<svg xmlns="http://www.w3.org/2000/svg" viewBox="0 0 128 128">
    <rect y="14" width="128" height="100" rx="15" />
    <path
        d="M7.13929 39.1075L27.2059 39.1695C36.6014 39.1987 43.5169 42.896 43.4897 51.6471C43.4719 57.4351 39.2906 61.098 34.4857 62.496C40.6943 64.0651 44.7826 68.2475 44.7628 74.6119C44.7297 85.3515 35.4608 88.6423 25.6539 88.612L7 88.5542L7.153 39.1075H7.13929ZM26.1419 59.5074C32.2864 59.5264 35.4082 56.9165 35.422 52.4724C35.4345 48.4398 32.8229 45.7571 26.4038 45.7373L14.8961 45.7016L14.8533 59.4726L26.1419 59.5074ZM26.3602 81.9755C33.4242 81.9973 36.6832 79.2503 36.6994 74.0245C36.715 69.0046 33.8986 66.1015 26.2724 66.078L14.8329 66.0426L14.7839 81.9395L26.3602 81.9755Z" />
    <path
        d="M82.7391 72.1345L90.8589 72.1597C91.2625 79.1562 95.763 83.1891 102.415 83.2098C108.56 83.2287 112.945 80.211 112.96 75.3279C112.973 71.0897 109.728 69.1731 103.876 67.7422L98.023 66.2428C90.6088 64.3818 84.5461 59.9875 84.5702 52.2107C84.5957 43.9396 92.3091 37.9695 102.13 38.0001C112.65 38.0327 119.626 44.2676 120.159 53.6648L112.108 53.6399C111.768 48.4129 107.897 44.6565 101.821 44.6378C96.732 44.6219 92.5543 47.3661 92.5413 51.5358C92.5286 55.6369 95.486 57.4841 101.064 58.9826L107.409 60.6208C115.18 62.6198 121.024 66.6705 121 74.5847C120.973 83.1984 113.463 89.814 102.161 89.7789C90.5301 89.7565 83.1997 82.8758 82.7391 72.1345Z" />
    <path d="M49 68.7431H79V58.7431H49V68.7431Z" mask="url(#path-4-inside-1_386_234)" />
    <style>
        rect {
            fill: #CDCDCD;
        }

        path {
            fill: #000;
            stroke: #000;
        }

        @media (prefers-color-scheme: dark) {
            rect {
                fill: #333333;
            }

            path {
                fill: #CDCDCD;
                stroke: #CDCDCD;
            }
        }
    </style>
</svg>