<svg xmlns="http://www.w3.org/2000/svg" viewBox="0 0 58 30" fill="none">
  <path
    d="M5.52 20.66C2.22 20.66 0.14 18.72 0 15.68H2.3C2.42 17.66 3.7 18.8 5.58 18.8C7.32 18.8 8.56 17.94 8.56 16.56C8.56 15.36 7.64 14.82 5.98 14.42L4.32 14C2.22 13.48 0.5 12.24 0.5 10.04C0.5 7.7 2.68 6 5.46 6C8.44 6 10.42 7.76 10.58 10.42H8.3C8.2 8.94 7.1 7.88 5.38 7.88C3.94 7.88 2.76 8.66 2.76 9.84C2.76 11 3.6 11.52 5.18 11.94L6.98 12.4C9.18 12.96 10.84 14.1 10.84 16.34C10.84 18.78 8.72 20.66 5.52 20.66Z"
    fill="white" />
  <path
    d="M12.2922 20.34V10.64H14.1522V11.32C14.1522 11.54 14.1322 11.8 14.1122 11.98C14.4722 10.94 15.1722 10.32 16.1522 10.32C17.0122 10.32 17.7922 10.84 18.0922 12.06C18.4922 11.04 19.1722 10.32 20.3722 10.32C21.8322 10.32 22.6922 11.54 22.6922 13.56V20.34H20.8322V13.88C20.8322 12.7 20.5722 11.96 19.7722 11.96C18.7322 11.96 18.4122 13.04 18.4122 14.3V20.34H16.5722V13.94C16.5722 12.74 16.2922 11.96 15.4722 11.96C14.4922 11.96 14.1522 13.06 14.1522 14.34V20.34H12.2922Z"
    fill="white" />
  <path
    d="M28.4844 20.66C26.5844 20.66 25.0844 19.52 25.0844 17.68C25.0844 15.62 26.6844 14.84 28.6444 14.58L30.5444 14.32C31.3044 14.22 31.5644 13.88 31.5644 13.34C31.5644 12.48 30.8844 11.9 29.6844 11.9C28.2844 11.9 27.5044 12.62 27.4444 13.72H25.3244C25.4244 11.82 27.0444 10.32 29.5844 10.32C32.4044 10.32 33.6444 11.78 33.6444 14.24V20.34H31.6844V19.9C31.6844 19.6 31.7044 19.32 31.7244 19.02C31.2444 20 30.1244 20.66 28.4844 20.66ZM27.2044 17.64C27.2044 18.56 27.9444 19.1 28.9444 19.1C30.4644 19.1 31.6044 18.1 31.6044 16.62V15.38C31.4844 15.54 31.0844 15.68 30.4644 15.8L29.2444 16.02C28.0444 16.22 27.2044 16.64 27.2044 17.64Z"
    fill="white" />
  <path
    d="M38.3566 20.34V10.64H40.4366V11.42C40.4366 11.8 40.4366 12.36 40.3966 12.78C40.9766 11.56 42.2166 10.34 44.5966 10.34C45.0366 10.34 45.3566 10.38 45.7166 10.42V12.44C45.3966 12.4 44.9966 12.36 44.4966 12.36C41.9366 12.36 40.4366 13.52 40.4366 15.86V20.34H38.3566Z"
    fill="white" />
  <path
    d="M56.3487 20.52C53.4087 20.52 51.5887 19.3 51.5887 16.28V12.32H48.0287V10.64H51.5887V7.28H53.6687V10.64H57.8487V12.32H53.6687V16.04C53.6687 18.02 54.5687 18.7 56.7087 18.7C57.1487 18.7 57.5687 18.66 58.0287 18.58V20.32C57.5687 20.44 56.9687 20.52 56.3487 20.52Z"
    fill="white" />
</svg>