<?xml version="1.0" encoding="UTF-8"?>
<svg id="Ebene_1" data-name="Ebene 1" xmlns="http://www.w3.org/2000/svg" version="1.1" viewBox="0 0 1122.5 680.3">
  <defs>
    <style>
      .cls-1 {
        fill: #fffdf0;
      }

      .cls-1, .cls-2, .cls-3, .cls-4, .cls-5, .cls-6 {
        stroke-width: 0px;
      }

      .cls-7 {
        fill: none;
        stroke: #fff;
        stroke-linejoin: round;
      }

      .cls-2 {
        fill: #000;
        fill-opacity: 0;
      }

      .cls-2, .cls-4, .cls-5 {
        fill-rule: evenodd;
      }

      .cls-3, .cls-4 {
        fill: #222;
      }

      .cls-5, .cls-6 {
        fill: #fff;
      }
    </style>
  </defs>
  <path class="cls-2" d="M952,7.6h154.6v42.8h-154.6V7.6Z"/>
  <path class="cls-1" d="M1053.2,22.6c.8,0,1.4.2,1.9.7.5.4.8,1,.8,1.8s-.2,1.1-.5,1.6-1,1-2.1,1.6c-.7.4-1.1.7-1.4,1s-.4.6-.5.9h4.4v.9h-5.6c0-.7.2-1.3.5-1.9.3-.5.9-1,1.7-1.5,1-.6,1.6-1.1,1.9-1.4s.4-.8.4-1.2-.2-.8-.5-1.1c-.3-.3-.7-.4-1.2-.4s-.9.2-1.2.6c-.3.4-.4.9-.4,1.5h-1v-.2c0-.8.2-1.5.7-2s1.2-.8,2-.8h0ZM1059.9,22.6c.5,0,.9,0,1.2.2.4.2.7.4.9.7.5.6.7,1.8.7,3.4s0,1.5-.2,2.1c0,.6-.3,1-.5,1.3s-.5.5-.9.7-.8.2-1.2.2c-.9,0-1.6-.3-2.1-.9s-.7-1.8-.7-3.4.2-2.8.7-3.4,1.2-1,2.1-1h0ZM1058.2,26.9c0,.7,0,1.2,0,1.7,0,.4.2.8.3,1,.3.5.7.7,1.3.7s1.1-.3,1.4-.8c0-.3.2-.6.3-1v-3c0-.3,0-.5-.2-.8,0-.2-.2-.5-.3-.7,0-.2-.3-.3-.5-.5-.2-.1-.4-.2-.8-.2s-.5,0-.7.2c-.2.1-.4.3-.5.5-.3.5-.5,1.4-.5,2.7v.2ZM1066.6,22.6c.8,0,1.4.2,1.9.7.5.4.8,1,.8,1.8s-.2,1.1-.5,1.6-1,1-2.1,1.6c-.7.4-1.1.7-1.4,1s-.4.6-.5.9h4.4v.9h-5.6c0-.7.2-1.3.5-1.9.3-.5.9-1,1.7-1.5,1-.6,1.6-1.1,1.9-1.4s.4-.8.4-1.2-.2-.8-.5-1.1c-.3-.3-.7-.4-1.2-.4s-.9.2-1.2.6c-.3.4-.4.9-.4,1.5h-1v-.2c0-.8.2-1.5.7-2s1.2-.8,2-.8h0ZM1075,22.6v5.6h1.2v.9h-1.2v2h-1v-2h-3.7v-1l3.9-5.5h.8,0ZM1074,24.1l-2.8,4.2h2.8v-4.2h0ZM1080.7,27.3v1h-3.5v-1h3.5ZM1084.6,22.6c.5,0,.9,0,1.2.2.4.2.7.4.9.7.5.6.7,1.8.7,3.4s0,1.5-.2,2.1c0,.6-.3,1-.5,1.3s-.5.5-.9.7-.8.2-1.2.2c-.9,0-1.6-.3-2.1-.9s-.7-1.8-.7-3.4.2-2.8.7-3.4,1.2-1,2.1-1h0ZM1082.9,26.9c0,.7,0,1.2,0,1.7,0,.4.2.8.3,1,.3.5.7.7,1.3.7s1.1-.3,1.4-.8c0-.3.2-.6.3-1v-3c0-.3,0-.5-.2-.8,0-.2-.2-.5-.3-.7,0-.2-.3-.3-.5-.5-.2-.1-.4-.2-.8-.2s-.5,0-.7.2c-.2.1-.4.3-.5.5-.3.5-.5,1.4-.5,2.7v.2ZM1091.2,22.6c.8,0,1.4.2,1.9.6s.7,1,.7,1.7,0,.7-.3,1c-.2.3-.5.5-.9.7h0c.5.1.9.4,1.1.7.3.4.4.8.4,1.3,0,.8-.3,1.4-.8,1.9s-1.2.7-2.1.7-1.5-.2-2.1-.7c-.5-.5-.8-1.2-.8-2h1c0,.6.2,1.1.5,1.4s.8.5,1.3.5,1-.2,1.3-.5c.4-.3.5-.7.5-1.2s-.2-.9-.5-1.2c-.3-.3-.8-.4-1.3-.4s-.2,0-.3,0h-.3v-.9h.4c.4,0,.7,0,.9-.2.2-.1.4-.3.5-.5s.2-.4.2-.7,0-.8-.4-1-.6-.4-1.1-.4-.9.2-1.2.5c-.3.3-.4.8-.5,1.4h-1c0-.9.3-1.6.8-2,.5-.5,1.1-.7,1.9-.7h.2Z"/>
  <path class="cls-4" d="M0,0h1122.5v680.3H0V0Z"/>
  <path class="cls-2" d="M832.9,405.9h0c0-4.1,3.3-7.4,7.4-7.4h216.6c2,0,3.8.8,5.2,2.2,1.4,1.4,2.2,3.3,2.2,5.2v49c0,4.1-3.3,7.4-7.4,7.4h-216.6c-4.1,0-7.4-3.3-7.4-7.4v-49h0Z"/>
  <path class="cls-7" d="M832.9,405.9h0c0-4.1,3.3-7.4,7.4-7.4h216.6c2,0,3.8.8,5.2,2.2,1.4,1.4,2.2,3.3,2.2,5.2v49c0,4.1-3.3,7.4-7.4,7.4h-216.6c-4.1,0-7.4-3.3-7.4-7.4v-49h0Z"/>
  <path class="cls-2" d="M832.9,488.9h0c0-4.1,3.3-7.4,7.4-7.4h216.6c2,0,3.8.8,5.2,2.2,1.4,1.4,2.2,3.3,2.2,5.2v49c0,4.1-3.3,7.4-7.4,7.4h-216.6c-4.1,0-7.4-3.3-7.4-7.4v-49h0Z"/>
  <path class="cls-7" d="M832.9,488.9h0c0-4.1,3.3-7.4,7.4-7.4h216.6c2,0,3.8.8,5.2,2.2,1.4,1.4,2.2,3.3,2.2,5.2v49c0,4.1-3.3,7.4-7.4,7.4h-216.6c-4.1,0-7.4-3.3-7.4-7.4v-49h0Z"/>
  <path class="cls-2" d="M574.7,405.9h0c0-4.1,3.3-7.4,7.4-7.4h216.6c2,0,3.8.8,5.2,2.2,1.4,1.4,2.2,3.3,2.2,5.2v49c0,4.1-3.3,7.4-7.4,7.4h-216.6c-4.1,0-7.4-3.3-7.4-7.4v-49h0Z"/>
  <path class="cls-7" d="M574.7,405.9h0c0-4.1,3.3-7.4,7.4-7.4h216.6c2,0,3.8.8,5.2,2.2,1.4,1.4,2.2,3.3,2.2,5.2v49c0,4.1-3.3,7.4-7.4,7.4h-216.6c-4.1,0-7.4-3.3-7.4-7.4v-49h0Z"/>
  <path class="cls-2" d="M574.7,488.9h0c0-4.1,3.3-7.4,7.4-7.4h216.6c2,0,3.8.8,5.2,2.2,1.4,1.4,2.2,3.3,2.2,5.2v49c0,4.1-3.3,7.4-7.4,7.4h-216.6c-4.1,0-7.4-3.3-7.4-7.4v-49h0Z"/>
  <path class="cls-7" d="M574.7,488.9h0c0-4.1,3.3-7.4,7.4-7.4h216.6c2,0,3.8.8,5.2,2.2,1.4,1.4,2.2,3.3,2.2,5.2v49c0,4.1-3.3,7.4-7.4,7.4h-216.6c-4.1,0-7.4-3.3-7.4-7.4v-49h0Z"/>
  <path class="cls-2" d="M316.5,405.9h0c0-4.1,3.3-7.4,7.4-7.4h216.6c2,0,3.8.8,5.2,2.2,1.4,1.4,2.2,3.3,2.2,5.2v49c0,4.1-3.3,7.4-7.4,7.4h-216.6c-4.1,0-7.4-3.3-7.4-7.4v-49h0Z"/>
  <path class="cls-7" d="M316.5,405.9h0c0-4.1,3.3-7.4,7.4-7.4h216.6c2,0,3.8.8,5.2,2.2,1.4,1.4,2.2,3.3,2.2,5.2v49c0,4.1-3.3,7.4-7.4,7.4h-216.6c-4.1,0-7.4-3.3-7.4-7.4v-49h0Z"/>
  <path class="cls-5" d="M58.2,405.9h0c0-4.1,3.3-7.4,7.4-7.4h216.6c2,0,3.8.8,5.2,2.2s2.2,3.3,2.2,5.2v49c0,4.1-3.3,7.4-7.4,7.4H65.6c-4.1,0-7.4-3.3-7.4-7.4v-49h0Z"/>
  <path class="cls-2" d="M574.7,247.9h0c0-63.9,51.8-115.7,115.7-115.7h0c30.7,0,60.1,12.2,81.8,33.9,21.7,21.7,33.9,51.1,33.9,81.8h0c0,63.9-51.8,115.7-115.7,115.7h0c-63.9,0-115.7-51.8-115.7-115.7h0Z"/>
  <path class="cls-7" d="M574.7,247.9h0c0-63.9,51.8-115.7,115.7-115.7h0c30.7,0,60.1,12.2,81.8,33.9,21.7,21.7,33.9,51.1,33.9,81.8h0c0,63.9-51.8,115.7-115.7,115.7h0c-63.9,0-115.7-51.8-115.7-115.7h0Z"/>
  <path class="cls-2" d="M574.7,191.8h231.4v112.1h-231.4v-112.1h0Z"/>
  <path class="cls-6" d="M645.9,240.8l4.5,12,4.5-12h2.6v14.3h-1.8v-11.9h0l-4.5,11.9h-1.6l-4.5-11.9h0v11.9h-1.8v-14.3h2.6ZM662.2,240.8v2.1h-1.7v-2.1h1.7ZM662.2,244.7v10.3h-1.7v-10.3h1.7ZM666.2,244.7l2.5,3.6h0l2.6-3.6h2l-3.5,4.8,4,5.6h-2.2l-2.9-4.3-2.9,4.3h-2.1l3.9-5.4-3.6-4.9h2.2ZM679.1,244.5c1.5,0,2.6.5,3.5,1.6.8,1.1,1.2,2.4,1.2,4.1v.2h-7.8c0,1.1.3,1.9.9,2.5.6.6,1.4.9,2.4.9s1.3-.2,1.8-.5c.4-.4.7-.9.9-1.5h1.7c-.2,1.1-.7,2-1.5,2.6s-1.7.9-2.9.9-2-.2-2.8-.7-1.3-1.2-1.7-2.1c-.4-.9-.5-1.8-.5-2.7,0-1.5.5-2.8,1.4-3.8s2.1-1.5,3.5-1.5h-.1ZM676,248.9h5.9c0-.8-.4-1.5-.9-2.1-.6-.6-1.2-.8-2.1-.8s-1.4.3-2,.8-.9,1.2-.9,2.1ZM694.8,240.8v14.3h-1.7v-1.4h0c-.3.5-.7.9-1.3,1.2s-1.3.4-2,.4c-1.4,0-2.6-.5-3.5-1.5s-1.3-2.3-1.3-4,.4-2.9,1.2-3.9,2-1.5,3.5-1.5,1.3.1,1.9.4c.6.3,1.1.7,1.4,1.2h0v-5.3h1.8ZM686.8,250c0,1.1.3,2,.9,2.8.6.7,1.4,1.1,2.3,1.1s1.8-.4,2.3-1.1c.6-.7.8-1.7.8-2.8s-.3-2.1-.9-2.8c-.6-.7-1.4-1.1-2.4-1.1s-1.7.4-2.3,1.1c-.5.7-.8,1.7-.8,2.9h.1ZM702.9,248.7v1.6h-5.8v-1.6h5.8ZM707.3,240.8v9.2c0,1.2.3,2.1,1,2.8s1.7,1,3,1,2.2-.3,2.8-1,.9-1.6.9-2.8v-9.2h1.9v9.2c0,1.7-.5,3-1.4,4s-2.3,1.4-4.2,1.4-3.4-.5-4.4-1.4-1.5-2.3-1.5-4v-9.2h1.9ZM723.1,244.5c1.4,0,2.4.3,3.1.8.7.5,1,1.3,1.1,2.4h-1.7c0-.6-.3-1-.7-1.3s-1-.5-1.7-.5-1.2.1-1.6.3c-.4.2-.6.6-.6,1s.2.7.5.9c.4.2.9.4,1.6.6l1.6.4c1,.2,1.8.6,2.3,1,.5.5.8,1.1.8,1.9s-.4,1.8-1.2,2.4c-.8.6-1.9.9-3.2.9s-2.4-.3-3.2-.9c-.8-.6-1.2-1.5-1.2-2.6h1.7c0,.6.3,1.1.8,1.5.5.3,1.2.5,2,.5s1.4-.1,1.9-.4c.4-.3.6-.6.6-1.1s-.2-.8-.6-1.1c-.4-.3-1.3-.5-2.6-.8-1.3-.2-2.2-.6-2.8-1.1-.5-.5-.8-1.1-.8-1.9s.4-1.6,1.1-2.1c.7-.5,1.7-.8,2.8-.8h0ZM733.9,244.5c1.5,0,2.6.5,3.5,1.6.8,1.1,1.2,2.4,1.2,4.1v.2h-7.8c0,1.1.3,1.9.9,2.5.6.6,1.4.9,2.4.9s1.3-.2,1.8-.5c.4-.4.7-.9.9-1.5h1.7c-.2,1.1-.7,2-1.5,2.6s-1.7.9-2.9.9-2-.2-2.8-.7-1.3-1.2-1.7-2.1c-.4-.9-.5-1.8-.5-2.7,0-1.5.5-2.8,1.4-3.8s2.1-1.5,3.5-1.5h-.1ZM730.9,248.9h5.9c0-.8-.4-1.5-.9-2.1-.6-.6-1.2-.8-2.1-.8s-1.4.3-2,.8-.9,1.2-.9,2.1Z"/>
  <path class="cls-2" d="M832.9,247.9h0c0-63.9,51.8-115.7,115.7-115.7h0c30.7,0,60.1,12.2,81.8,33.9,21.7,21.7,33.9,51.1,33.9,81.8h0c0,63.9-51.8,115.7-115.7,115.7h0c-63.9,0-115.7-51.8-115.7-115.7h0Z"/>
  <path class="cls-7" d="M832.9,247.9h0c0-63.9,51.8-115.7,115.7-115.7h0c30.7,0,60.1,12.2,81.8,33.9,21.7,21.7,33.9,51.1,33.9,81.8h0c0,63.9-51.8,115.7-115.7,115.7h0c-63.9,0-115.7-51.8-115.7-115.7h0Z"/>
  <path class="cls-2" d="M832.9,191.8h231.4v112.1h-231.4v-112.1h0Z"/>
  <path class="cls-6" d="M877.1,240.8v14.3h-1.9v-14.3h1.9ZM885.1,244.5c1.2,0,2.1.3,2.7,1,.6.6.8,1.5.8,2.7v6.9h-1.7v-7.1c0-.6-.2-1.1-.6-1.4-.4-.4-.9-.6-1.5-.6-1,0-1.7.3-2.2.9-.5.6-.8,1.3-.8,2.3v5.9h-1.7v-10.3h1.6v1.6h0c.4-.6.8-1.1,1.4-1.4.6-.3,1.2-.5,2-.5h0ZM893.5,241.6v3.1h2.1v1.5h-2.1v6.5c0,.5.2.8.5.8h1.6v1.5h-1.4c-.9,0-1.6-.2-1.9-.5-.3-.3-.5-.9-.5-1.7v-6.7h-1.8v-1.5h1.8v-3.1h1.7ZM901.5,244.5c1.5,0,2.6.5,3.5,1.6.8,1.1,1.2,2.4,1.2,4.1v.2h-7.8c0,1.1.3,1.9.9,2.5.6.6,1.4.9,2.4.9s1.3-.2,1.8-.5c.4-.4.7-.9.9-1.5h1.7c-.2,1.1-.7,2-1.5,2.6s-1.7.9-2.9.9-2-.2-2.8-.7-1.3-1.2-1.7-2.1c-.4-.9-.5-1.8-.5-2.7,0-1.5.5-2.8,1.4-3.8s2.1-1.5,3.5-1.5h-.1ZM898.5,248.9h5.9c0-.8-.4-1.5-.9-2.1-.6-.6-1.2-.8-2.1-.8s-1.4.3-2,.8-.9,1.2-.9,2.1ZM912.2,244.5c.7,0,1.4.2,1.9.5s.9.7,1.2,1.2h0v-1.5h1.6v9.6c0,1.6-.4,2.8-1.2,3.7s-2,1.3-3.6,1.3-2.2-.3-3-.8-1.2-1.3-1.3-2.3h1.7c0,.5.3.9.8,1.2.5.3,1.2.5,1.8.5,1,0,1.8-.3,2.3-1s.8-1.7.8-3v-.7h0c-.3.6-.7,1-1.3,1.4-.6.3-1.2.5-2,.5-1.4,0-2.5-.5-3.4-1.5-.8-1-1.2-2.2-1.2-3.8s.4-2.9,1.2-3.9,2-1.5,3.5-1.5h.2ZM909.2,249.7c0,1.2.3,2.2.8,2.9s1.2,1,2.2,1,1.7-.4,2.2-1.1c.6-.7.8-1.7.8-2.9s-.3-2-.8-2.7-1.2-1-2.2-1-1.7.3-2.2,1-.8,1.6-.8,2.7h0ZM924.6,244.5h.2v1.8c-1.3,0-2.2.3-2.8,1s-.9,1.7-.9,3.1v4.6h-1.7v-10.3h1.6v2.2h0c.4-.8.9-1.4,1.5-1.8.6-.4,1.3-.6,2.1-.6h0ZM929.9,244.5c1.4,0,2.4.2,3,.8.6.5.9,1.2.9,2v6c0,.4.2.6.5.6s.2,0,.2,0h.3v1.3c-.2,0-.3.2-.5.2h-.7c-.5,0-.8-.1-1.1-.4-.2-.3-.4-.7-.4-1.2-.4.5-1,.9-1.6,1.2s-1.3.4-2,.4-1.9-.2-2.5-.8c-.6-.5-.9-1.2-.9-2.2s.3-1.7.9-2.2c.6-.6,2-1,4.2-1.2.7,0,1.2-.2,1.5-.4s.4-.5.4-.9c0-.6-.2-1-.6-1.3-.4-.3-.9-.4-1.8-.4s-1.5.2-1.9.5-.6.8-.7,1.5h-1.7c0-1.1.5-2,1.2-2.6.8-.6,1.8-.9,3.2-.9h0ZM926.9,252.3c0,.5.2.9.5,1.1.4.3.8.4,1.5.4,1,0,1.7-.2,2.3-.7s.9-1,.9-1.6v-1.8c-.3.2-.7.3-1.1.4-.5,0-1.1.2-1.8.3-.8.1-1.3.3-1.7.6s-.5.7-.5,1.3h-.1ZM938.8,241.6v3.1h2.1v1.5h-2.1v6.5c0,.5.2.8.5.8h1.6v1.5h-1.4c-.9,0-1.6-.2-1.9-.5-.3-.3-.5-.9-.5-1.7v-6.7h-1.8v-1.5h1.8v-3.1h1.7ZM944.5,240.8v2.1h-1.7v-2.1h1.7ZM944.5,244.7v10.3h-1.7v-10.3h1.7ZM951.6,244.5c1.6,0,2.8.5,3.7,1.5s1.3,2.3,1.3,3.9-.5,2.9-1.4,3.9-2.1,1.5-3.6,1.5-2.7-.5-3.6-1.5c-.9-1-1.4-2.3-1.4-3.9s.5-3,1.4-3.9c.9-1,2.1-1.5,3.7-1.5h-.1ZM948.4,249.9c0,1.2.3,2.1.9,2.8.6.7,1.4,1,2.3,1s1.7-.4,2.3-1.1c.6-.7.9-1.7.9-2.8s-.3-2.1-.9-2.8c-.6-.7-1.4-1.1-2.3-1.1s-1.7.4-2.3,1.1c-.6.7-.9,1.7-.9,2.9h0ZM963.6,244.5c1.2,0,2.1.3,2.7,1,.6.6.8,1.5.8,2.7v6.9h-1.7v-7.1c0-.6-.2-1.1-.6-1.4-.4-.4-.9-.6-1.5-.6-1,0-1.7.3-2.2.9-.5.6-.8,1.3-.8,2.3v5.9h-1.7v-10.3h1.6v1.6h0c.4-.6.8-1.1,1.4-1.4.6-.3,1.2-.5,2-.5h0ZM973.2,244.5c1.4,0,2.4.3,3.1.8.7.5,1,1.3,1.1,2.4h-1.7c0-.6-.3-1-.7-1.3s-1-.5-1.7-.5-1.2.1-1.6.3c-.4.2-.6.6-.6,1s.2.7.5.9c.4.2.9.4,1.6.6l1.6.4c1,.2,1.8.6,2.3,1,.5.5.8,1.1.8,1.9s-.4,1.8-1.2,2.4c-.8.6-1.9.9-3.2.9s-2.4-.3-3.2-.9c-.8-.6-1.2-1.5-1.2-2.6h1.7c0,.6.3,1.1.8,1.5.5.3,1.2.5,2,.5s1.4-.1,1.9-.4c.4-.3.6-.6.6-1.1s-.2-.8-.6-1.1c-.4-.3-1.3-.5-2.6-.8-1.3-.2-2.2-.6-2.8-1.1-.5-.5-.8-1.1-.8-1.9s.4-1.6,1.1-2.1c.7-.5,1.7-.8,2.8-.8h0ZM984.9,244.5h.2v1.8c-1.3,0-2.2.3-2.8,1s-.9,1.7-.9,3.1v4.6h-1.7v-10.3h1.6v2.2h0c.4-.8.9-1.4,1.5-1.8.6-.4,1.3-.6,2.1-.6h0ZM990.2,244.5c1.4,0,2.4.2,3,.8.6.5.9,1.2.9,2v6c0,.4.2.6.5.6s.2,0,.2,0h.3v1.3c-.2,0-.3.2-.5.2h-.7c-.5,0-.8-.1-1.1-.4-.2-.3-.4-.7-.4-1.2-.4.5-1,.9-1.6,1.2s-1.3.4-2,.4-1.9-.2-2.5-.8c-.6-.5-.9-1.2-.9-2.2s.3-1.7.9-2.2c.6-.6,2-1,4.2-1.2.7,0,1.2-.2,1.5-.4s.4-.5.4-.9c0-.6-.2-1-.6-1.3-.4-.3-.9-.4-1.8-.4s-1.5.2-1.9.5-.6.8-.7,1.5h-1.7c0-1.1.5-2,1.2-2.6.8-.6,1.8-.9,3.2-.9h0ZM987.2,252.3c0,.5.2.9.5,1.1.4.3.8.4,1.5.4,1,0,1.7-.2,2.3-.7s.9-1,.9-1.6v-1.8c-.3.2-.7.3-1.1.4-.5,0-1.1.2-1.8.3-.8.1-1.3.3-1.7.6s-.5.7-.5,1.3h-.1ZM998.4,244.7v7c0,.6.2,1.1.6,1.5.4.4.9.6,1.5.6,1,0,1.7-.3,2.2-.9s.8-1.4.8-2.3v-5.9h1.7v10.3h-1.6v-1.6h0c-.4.7-.8,1.1-1.4,1.4-.6.3-1.2.5-2,.5-1.2,0-2.1-.3-2.7-.9-.6-.6-.9-1.5-.9-2.8v-6.9h1.8ZM1012.8,244.5c.8,0,1.4.2,1.8.5.5.3.8.7,1,1.3.3-.6.8-1,1.4-1.3.6-.3,1.2-.5,1.9-.5,1.2,0,2,.3,2.6.8s.8,1.2.8,2.1v7.6h-1.7v-6.9c0-.7-.2-1.3-.5-1.7s-.8-.6-1.5-.6-1.5.2-2,.8c-.5.5-.7,1.1-.7,1.8v6.5h-1.7v-6.9c0-.7-.2-1.3-.5-1.7s-.8-.6-1.5-.6-1,.1-1.4.4c-.4.3-.7.6-1,1.1-.2.4-.3.8-.3,1.1v6.5h-1.7v-10.3h1.6v1.5h0c.4-.6.9-1,1.4-1.3.6-.3,1.2-.4,1.9-.4v.2Z"/>
  <path class="cls-2" d="M581.9,403.9h217v51.2h-217v-51.2Z"/>
  <path class="cls-6" d="M602.8,423.8l3.3,9.9h0l3.3-9.9h1.6l-4.1,11.4h-1.7l-4-11.4h1.7,0ZM614.8,426.7c1.2,0,2.1.4,2.8,1.3s1,2,1,3.3v.2h-6.2c0,.9.2,1.5.7,2s1.1.7,1.9.7,1.1-.1,1.4-.4c.4-.3.6-.7.7-1.2h1.3c-.2.9-.6,1.6-1.2,2.1-.6.5-1.4.7-2.3.7s-1.6-.2-2.2-.6c-.6-.4-1.1-.9-1.3-1.6-.3-.7-.4-1.4-.4-2.2,0-1.2.4-2.2,1.1-3,.7-.8,1.7-1.2,2.8-1.2h0ZM612.3,430.3h4.8c0-.7-.3-1.2-.7-1.7-.4-.4-1-.7-1.7-.7s-1.2.2-1.6.6c-.4.4-.7,1-.8,1.7h0ZM624,426.7h.2v1.4c-1,0-1.8.3-2.3.8s-.7,1.4-.7,2.5v3.7h-1.4v-8.3h1.3v1.8h0c.3-.7.7-1.1,1.2-1.5.5-.3,1-.5,1.7-.5h0ZM628,426.7c1.1,0,1.9.2,2.5.7.5.4.8,1.1.9,1.9h-1.4c0-.5-.2-.8-.6-1-.3-.2-.8-.4-1.3-.4s-1,0-1.3.3c-.3.2-.5.4-.5.8s0,.6.4.8c.3.2.7.3,1.3.5l1.3.3c.8.2,1.4.5,1.8.8.4.4.6.9.6,1.5s-.3,1.5-1,1.9c-.6.5-1.5.7-2.6.7s-1.9-.2-2.5-.7-.9-1.2-1-2.1h1.4c0,.5.2.9.6,1.2.4.3.9.4,1.6.4s1.2-.1,1.5-.3c.3-.2.5-.5.5-.9s-.2-.7-.5-.9c-.3-.2-1-.4-2.1-.6-1-.2-1.8-.5-2.2-.9s-.6-.9-.6-1.5.3-1.3.9-1.7c.6-.4,1.3-.6,2.2-.6v-.2ZM636.7,426.7c1,0,1.8.2,2.5.7.6.5,1,1.2,1.1,2.1h-1.4c0-.5-.3-.9-.7-1.2-.4-.3-.8-.4-1.3-.4-.8,0-1.5.3-1.9.8s-.7,1.4-.7,2.4.2,1.7.6,2.2c.4.5,1,.8,1.8.8s1.2-.2,1.6-.5c.4-.4.6-.8.7-1.5h1.4c0,1-.5,1.8-1.2,2.4s-1.5.8-2.5.8-2.2-.4-2.8-1.1c-.7-.8-1-1.8-1-3.1s.3-2.4,1-3.2c.7-.8,1.7-1.2,2.9-1.2h0ZM643.2,423.8v4.4h0c.2-.4.5-.8,1-1s1-.4,1.6-.4c1,0,1.7.3,2.2.8.4.5.7,1.2.7,2.2v5.5h-1.4v-5.7c0-.5-.2-.9-.5-1.2-.3-.3-.7-.5-1.2-.5-.8,0-1.4.2-1.8.7-.4.5-.6,1.1-.6,1.8v4.7h-1.4v-11.4h1.4ZM652.2,423.8v1.7h-1.4v-1.7h1.4ZM652.2,426.9v8.3h-1.4v-8.3h1.4ZM657.7,426.7c1.2,0,2.1.4,2.8,1.3s1,2,1,3.3v.2h-6.2c0,.9.2,1.5.7,2s1.1.7,1.9.7,1.1-.1,1.4-.4c.4-.3.6-.7.7-1.2h1.3c-.2.9-.6,1.6-1.2,2.1-.6.5-1.4.7-2.3.7s-1.6-.2-2.2-.6c-.6-.4-1.1-.9-1.3-1.6-.3-.7-.4-1.4-.4-2.2,0-1.2.4-2.2,1.1-3,.7-.8,1.7-1.2,2.8-1.2h0ZM655.3,430.3h4.8c0-.7-.3-1.2-.7-1.7-.4-.4-1-.7-1.7-.7s-1.2.2-1.6.6c-.4.4-.7,1-.8,1.7h0ZM670.3,423.8v11.4h-1.4v-1.1h0c-.2.4-.6.8-1,1-.5.2-1,.3-1.6.3-1.2,0-2.1-.4-2.8-1.2-.7-.8-1-1.9-1-3.2s.3-2.3,1-3.1c.7-.8,1.6-1.2,2.8-1.2s1.1.1,1.5.3c.5.2.9.5,1.1,1h0v-4.2h1.4ZM663.9,431.1c0,.9.2,1.6.7,2.2s1.1.9,1.9.9,1.4-.3,1.9-.9c.4-.6.7-1.3.7-2.2s-.2-1.7-.7-2.3c-.4-.6-1.1-.9-1.9-.9s-1.4.3-1.8.9c-.4.6-.6,1.3-.6,2.3h-.2ZM675.8,426.7c1.2,0,2.1.4,2.8,1.3s1,2,1,3.3v.2h-6.2c0,.9.2,1.5.7,2s1.1.7,1.9.7,1.1-.1,1.4-.4c.4-.3.6-.7.7-1.2h1.3c-.2.9-.6,1.6-1.2,2.1-.6.5-1.4.7-2.3.7s-1.6-.2-2.2-.6c-.6-.4-1.1-.9-1.3-1.6-.3-.7-.4-1.4-.4-2.2,0-1.2.4-2.2,1.1-3,.7-.8,1.7-1.2,2.8-1.2h0ZM673.4,430.3h4.8c0-.7-.3-1.2-.7-1.7-.4-.4-1-.7-1.7-.7s-1.2.2-1.6.6c-.4.4-.7,1-.8,1.7h0ZM685,426.7c1,0,1.7.3,2.2.8.4.5.7,1.2.7,2.2v5.5h-1.4v-5.7c0-.5-.2-.9-.5-1.2-.3-.3-.7-.5-1.2-.5-.8,0-1.4.2-1.8.7-.4.5-.6,1.1-.6,1.8v4.7h-1.4v-8.3h1.3v1.3h0c.3-.5.7-.9,1.1-1.1.4-.2,1-.4,1.6-.4v.2ZM693.3,426.7c1.2,0,2.1.4,2.8,1.3s1,2,1,3.3v.2h-6.2c0,.9.2,1.5.7,2s1.1.7,1.9.7,1.1-.1,1.4-.4c.4-.3.6-.7.7-1.2h1.3c-.2.9-.6,1.6-1.2,2.1-.6.5-1.4.7-2.3.7s-1.6-.2-2.2-.6c-.6-.4-1.1-.9-1.3-1.6-.3-.7-.4-1.4-.4-2.2,0-1.2.4-2.2,1.1-3,.7-.8,1.7-1.2,2.8-1.2h0ZM690.9,430.3h4.8c0-.7-.3-1.2-.7-1.7-.4-.4-1-.7-1.7-.7s-1.2.2-1.6.6c-.4.4-.7,1-.8,1.7h0ZM704.7,423.8l6,9.3h0v-9.3h1.4v11.4h-1.7l-6-9.2h0v9.2h-1.4v-11.4h1.7ZM715.8,426.9v5.6c0,.5,0,.9.4,1.2.3.3.7.5,1.2.5.8,0,1.4-.2,1.8-.7.4-.5.6-1.1.6-1.8v-4.7h1.4v8.3h-1.3v-1.3h0c-.3.5-.7.9-1.1,1.2-.4.2-1,.4-1.5.4-1,0-1.7-.2-2.2-.8-.5-.5-.7-1.2-.7-2.2v-5.5h1.4v-.2ZM725.3,424.5v2.5h1.6v1.2h-1.6v5.2c0,.4,0,.6.4.7h1.3v1.2h-1.1c-.7,0-1.2-.1-1.5-.4-.2-.3-.4-.7-.4-1.3v-5.3h-1.4v-1.2h1.4v-2.5h1.4-.1ZM734.5,426.9v.9l-5.1,6.1h5.3v1.2h-7v-1l5-6h-4.7v-1.2h6.5ZM737.4,426.9v5.6c0,.5,0,.9.4,1.2.3.3.7.5,1.2.5.8,0,1.4-.2,1.8-.7.4-.5.6-1.1.6-1.8v-4.7h1.4v8.3h-1.3v-1.3h0c-.3.5-.7.9-1.1,1.2-.4.2-1,.4-1.5.4-1,0-1.7-.2-2.2-.8-.5-.5-.7-1.2-.7-2.2v-5.5h1.4v-.2ZM749,426.7c1,0,1.7.3,2.2.8.4.5.7,1.2.7,2.2v5.5h-1.4v-5.7c0-.5-.2-.9-.5-1.2-.3-.3-.7-.5-1.2-.5-.8,0-1.4.2-1.8.7-.4.5-.6,1.1-.6,1.8v4.7h-1.4v-8.3h1.3v1.3h0c.3-.5.7-.9,1.1-1.1.4-.2,1-.4,1.6-.4v.2ZM757.2,426.7c.6,0,1.1.1,1.5.4.4.2.8.6,1,1h0v-1.2h1.3v7.7c0,1.3-.3,2.3-.9,3-.6.7-1.6,1-2.9,1s-1.7-.2-2.4-.6c-.6-.4-1-1-1-1.8h1.4c0,.4.2.7.7,1,.4.2.9.4,1.5.4s1.4-.3,1.8-.8c.4-.5.6-1.3.6-2.4v-.5h0c-.2.5-.6.8-1,1.1-.5.3-1,.4-1.6.4-1.1,0-2-.4-2.7-1.2-.7-.8-1-1.8-1-3s.3-2.3,1-3.1c.7-.8,1.6-1.2,2.8-1.2v-.2ZM754.9,430.9c0,1,.2,1.8.6,2.3.4.6,1,.8,1.7.8s1.3-.3,1.8-.9c.4-.6.7-1.4.7-2.3s-.2-1.6-.6-2.1c-.4-.5-1-.8-1.7-.8s-1.4.3-1.8.8c-.4.5-.6,1.3-.6,2.2h-.1ZM766.5,426.7c1.2,0,2.1.4,2.8,1.3s1,2,1,3.3v.2h-6.2c0,.9.2,1.5.7,2s1.1.7,1.9.7,1.1-.1,1.4-.4c.4-.3.6-.7.7-1.2h1.3c-.2.9-.6,1.6-1.2,2.1-.6.5-1.4.7-2.3.7s-1.6-.2-2.2-.6c-.6-.4-1.1-.9-1.3-1.6-.3-.7-.4-1.4-.4-2.2,0-1.2.4-2.2,1.1-3,.7-.8,1.7-1.2,2.8-1.2h0ZM764.1,430.3h4.8c0-.7-.3-1.2-.7-1.7-.4-.4-1-.7-1.7-.7s-1.2.2-1.6.6c-.4.4-.7,1-.8,1.7h0ZM775.7,426.7c1,0,1.7.3,2.2.8.4.5.7,1.2.7,2.2v5.5h-1.4v-5.7c0-.5-.2-.9-.5-1.2-.3-.3-.7-.5-1.2-.5-.8,0-1.4.2-1.8.7-.4.5-.6,1.1-.6,1.8v4.7h-1.4v-8.3h1.3v1.3h0c.3-.5.7-.9,1.1-1.1.4-.2,1-.4,1.6-.4v.2Z"/>
  <path class="cls-2" d="M594.1,487.4h192.5v51.2h-192.5v-51.2h0Z"/>
  <path class="cls-6" d="M628.3,497.4c1.3,0,2.4.3,3.3,1,.9.6,1.4,1.6,1.6,2.8h-1.5c-.2-.8-.5-1.4-1.1-1.9-.6-.4-1.3-.7-2.3-.7s-2.2.5-2.9,1.4-1,2.1-1,3.5.4,2.4,1.1,3.3c.7.9,1.7,1.3,2.8,1.3s2-.3,2.7-1,1-1.5,1-2.6v-.2h-3.7v-1.3h5v6h-1l-.4-1.4c-.4.5-.9,1-1.6,1.3-.6.3-1.3.4-2.1.4-1.6,0-2.8-.6-3.9-1.7-1-1.1-1.5-2.5-1.5-4.1s.5-3.3,1.5-4.5,2.3-1.7,4-1.8v.2ZM638.7,500.7c1.1,0,1.9.2,2.4.6s.7.9.7,1.6v4.8c0,.3,0,.5.4.5h.4v1.1c0,0-.3.1-.4.2h-.5c-.4,0-.7-.1-.9-.3-.2-.2-.3-.5-.3-1-.4.4-.8.8-1.3,1s-1,.3-1.6.3c-.9,0-1.5-.2-2-.6s-.7-1-.7-1.7.2-1.3.7-1.8c.5-.4,1.6-.8,3.4-1,.6,0,1-.2,1.2-.3.2-.2.3-.4.3-.7,0-.5,0-.8-.4-1-.3-.2-.8-.3-1.4-.3s-1.2.1-1.5.4-.5.6-.5,1.2h-1.4c0-.9.4-1.6,1-2.1s1.4-.7,2.5-.7v-.2ZM636.4,506.9c0,.4,0,.7.4.9.3.2.7.3,1.2.3.8,0,1.4-.2,1.8-.6.5-.4.7-.8.7-1.3v-1.4c-.2.2-.5.3-.9.3s-.8.1-1.5.2c-.6,0-1.1.2-1.3.5-.3.2-.4.6-.4,1h0ZM648,500.7c1,0,1.7.3,2.2.8.4.5.7,1.2.7,2.2v5.5h-1.4v-5.7c0-.5-.2-.9-.5-1.2-.3-.3-.7-.5-1.2-.5-.8,0-1.4.2-1.8.7-.4.5-.6,1.1-.6,1.8v4.7h-1.4v-8.3h1.3v1.3h0c.3-.5.7-.9,1.1-1.1.4-.2,1-.4,1.6-.4v.2ZM658.9,500.9v.9l-5.1,6.1h5.3v1.2h-7v-1l5-6h-4.7v-1.2h6.5ZM661.9,497.7v4.4h0c.2-.4.5-.8,1-1s1-.4,1.6-.4c1,0,1.7.3,2.2.8.4.5.7,1.2.7,2.2v5.5h-1.4v-5.7c0-.5-.2-.9-.5-1.2-.3-.3-.7-.5-1.2-.5-.8,0-1.4.2-1.8.7-.4.5-.6,1.1-.6,1.8v4.7h-1.4v-11.4h1.4ZM672.9,500.7c1.2,0,2.1.4,2.8,1.3s1,2,1,3.3v.2h-6.2c0,.9.2,1.5.7,2s1.1.7,1.9.7,1.1-.1,1.4-.4c.4-.3.6-.7.7-1.2h1.3c-.2.9-.6,1.6-1.2,2.1-.6.5-1.4.7-2.3.7s-1.6-.2-2.2-.6c-.6-.4-1.1-.9-1.3-1.6-.3-.7-.4-1.4-.4-2.2,0-1.2.4-2.2,1.1-3,.7-.8,1.7-1.2,2.8-1.2h0ZM670.4,504.2h4.8c0-.7-.3-1.2-.7-1.7-.4-.4-1-.7-1.7-.7s-1.2.2-1.6.6c-.4.4-.7,1-.8,1.7h0ZM679.5,497.7v1.7h-1.4v-1.7h1.4ZM679.5,500.9v8.3h-1.4v-8.3h1.4ZM683.5,498.4v2.5h1.6v1.2h-1.6v5.2c0,.4,0,.6.4.7h1.3v1.2h-1.1c-.7,0-1.2-.1-1.5-.4-.2-.3-.4-.7-.4-1.3v-5.3h-1.4v-1.2h1.4v-2.5h1.4-.1ZM688.1,497.7v11.4h-1.4v-11.4h1.4ZM691.6,497.7v1.7h-1.4v-1.7h1.4ZM691.6,500.9v8.3h-1.4v-8.3h1.4ZM697.2,500.7c1,0,1.8.2,2.5.7.6.5,1,1.2,1.1,2.1h-1.4c0-.5-.3-.9-.7-1.2-.4-.3-.8-.4-1.3-.4-.8,0-1.5.3-1.9.8-.4.6-.7,1.4-.7,2.4s.2,1.7.6,2.2c.4.5,1,.8,1.8.8s1.2-.2,1.6-.5c.4-.4.6-.8.7-1.5h1.4c0,1-.5,1.8-1.2,2.4-.6.6-1.5.8-2.5.8s-2.2-.4-2.8-1.1c-.7-.8-1-1.8-1-3.1s.3-2.4,1-3.2c.7-.8,1.7-1.2,2.9-1.2h0ZM703.7,497.7v4.4h0c.2-.4.5-.8,1-1s1-.4,1.6-.4c1,0,1.7.3,2.2.8.4.5.7,1.2.7,2.2v5.5h-1.4v-5.7c0-.5-.2-.9-.5-1.2-.3-.3-.7-.5-1.2-.5-.8,0-1.4.2-1.8.7-.4.5-.6,1.1-.6,1.8v4.7h-1.4v-11.4h1.4ZM714.7,500.7c1.2,0,2.1.4,2.8,1.3s1,2,1,3.3v.2h-6.2c0,.9.2,1.5.7,2s1.1.7,1.9.7,1.1-.1,1.4-.4c.4-.3.6-.7.7-1.2h1.3c-.2.9-.6,1.6-1.2,2.1-.6.5-1.4.7-2.3.7s-1.6-.2-2.2-.6c-.6-.4-1.1-.9-1.3-1.6-.3-.7-.4-1.4-.4-2.2,0-1.2.4-2.2,1.1-3,.7-.8,1.7-1.2,2.8-1.2h0ZM712.2,504.2h4.8c0-.7-.3-1.2-.7-1.7-.4-.4-1-.7-1.7-.7s-1.2.2-1.6.6c-.4.4-.7,1-.8,1.7h0ZM722.6,500.7c1.1,0,1.9.2,2.5.7.5.4.8,1.1.9,1.9h-1.4c0-.5-.2-.8-.6-1-.3-.2-.8-.4-1.3-.4s-1,0-1.3.3c-.3.2-.5.4-.5.8s0,.6.4.8c.3.2.7.3,1.3.5l1.3.3c.8.2,1.4.5,1.8.8.4.4.6.9.6,1.5s-.3,1.5-1,1.9c-.6.5-1.5.7-2.6.7s-1.9-.2-2.5-.7-.9-1.2-1-2.1h1.4c0,.5.2.9.6,1.2.4.3.9.4,1.6.4s1.2-.1,1.5-.3c.3-.2.5-.5.5-.9s-.2-.7-.5-.9c-.3-.2-1-.4-2.1-.6-1-.2-1.8-.5-2.2-.9s-.6-.9-.6-1.5.3-1.3.9-1.7c.6-.4,1.3-.6,2.2-.6v-.2ZM733.6,500.9v5.6c0,.5,0,.9.4,1.2.3.3.7.5,1.2.5.8,0,1.4-.2,1.8-.7.4-.5.6-1.1.6-1.8v-4.7h1.4v8.3h-1.3v-1.3h0c-.3.5-.7.9-1.1,1.2-.4.2-1,.4-1.5.4-1,0-1.7-.2-2.2-.8-.5-.5-.7-1.2-.7-2.2v-5.5h1.4v-.2ZM745.2,500.7c1,0,1.7.3,2.2.8.4.5.7,1.2.7,2.2v5.5h-1.4v-5.7c0-.5-.2-.9-.5-1.2-.3-.3-.7-.5-1.2-.5-.8,0-1.4.2-1.8.7-.4.5-.6,1.1-.6,1.8v4.7h-1.4v-8.3h1.3v1.3h0c.3-.5.7-.9,1.1-1.1.4-.2,1-.4,1.6-.4v.2ZM757.5,497.7v11.4h-1.4v-1.1h0c-.2.4-.6.8-1,1-.5.2-1,.3-1.6.3-1.2,0-2.1-.4-2.8-1.2-.7-.8-1-1.9-1-3.2s.3-2.3,1-3.1c.7-.8,1.6-1.2,2.8-1.2s1.1.1,1.5.3c.5.2.9.5,1.1,1h0v-4.2h1.4ZM751.1,505.1c0,.9.2,1.6.7,2.2s1.1.9,1.9.9,1.4-.3,1.9-.9c.4-.6.7-1.3.7-2.2s-.2-1.7-.7-2.3c-.4-.6-1.1-.9-1.9-.9s-1.4.3-1.8.9c-.4.6-.6,1.3-.6,2.3h-.2Z"/>
  <path class="cls-6" d="M628.1,519.9h.2v1.4c-1,0-1.8.3-2.3.8s-.7,1.4-.7,2.5v3.7h-1.4v-8.3h1.3v1.8h0c.3-.7.7-1.1,1.2-1.5.5-.3,1-.5,1.7-.5h0ZM632.5,519.9c1.2,0,2.1.4,2.8,1.3s1,2,1,3.3v.2h-6.2c0,.9.2,1.5.7,2s1.1.7,1.9.7,1.1,0,1.4-.4c.4-.3.6-.7.7-1.2h1.3c-.2.9-.6,1.6-1.2,2.1-.6.5-1.4.7-2.3.7s-1.6-.2-2.2-.6c-.6-.4-1.1-.9-1.3-1.6-.3-.7-.4-1.4-.4-2.2,0-1.2.4-2.2,1.1-3,.7-.8,1.7-1.2,2.8-1.2h0ZM630,523.4h4.8c0-.7-.3-1.2-.7-1.7-.4-.4-1-.7-1.7-.7s-1.2.2-1.6.6-.7,1-.8,1.7h0ZM640.4,519.9c1.1,0,1.9.2,2.5.7.5.4.8,1.1.9,1.9h-1.4c0-.5-.2-.8-.6-1s-.8-.4-1.3-.4-1,0-1.3.3c-.3.2-.5.4-.5.8s0,.6.4.8c.3.2.7.3,1.3.5l1.3.3c.8.2,1.4.5,1.8.8.4.4.6.9.6,1.5s-.3,1.5-1,1.9c-.6.5-1.5.7-2.6.7s-1.9-.2-2.5-.7-.9-1.2-1-2.1h1.4c0,.5.2.9.6,1.2.4.3.9.4,1.6.4s1.2,0,1.5-.3.5-.5.5-.9-.2-.7-.5-.9-1-.4-2.1-.6c-1-.2-1.8-.5-2.2-.9s-.6-.9-.6-1.5.3-1.3.9-1.7c.6-.4,1.3-.6,2.2-.6v-.2ZM647.1,516.9v1.7h-1.4v-1.7h1.4ZM647.1,520.1v8.3h-1.4v-8.3h1.4ZM650.6,516.9v11.4h-1.4v-11.4h1.4ZM654.2,516.9v1.7h-1.4v-1.7h1.4ZM654.2,520.1v8.3h-1.4v-8.3h1.4ZM659.8,519.9c1.2,0,2.1.4,2.8,1.3s1,2,1,3.3v.2h-6.2c0,.9.2,1.5.7,2s1.1.7,1.9.7,1.1,0,1.4-.4c.4-.3.6-.7.7-1.2h1.3c-.2.9-.6,1.6-1.2,2.1-.6.5-1.4.7-2.3.7s-1.6-.2-2.2-.6c-.6-.4-1.1-.9-1.3-1.6-.3-.7-.4-1.4-.4-2.2,0-1.2.4-2.2,1.1-3,.7-.8,1.7-1.2,2.8-1.2h0ZM657.3,523.4h4.8c0-.7-.3-1.2-.7-1.7-.4-.4-1-.7-1.7-.7s-1.2.2-1.6.6-.7,1-.8,1.7h0ZM668.9,519.9c1,0,1.7.3,2.2.8.4.5.7,1.2.7,2.2v5.5h-1.4v-5.7c0-.5-.2-.9-.5-1.2s-.7-.5-1.2-.5c-.8,0-1.4.2-1.8.7-.4.5-.6,1.1-.6,1.8v4.7h-1.4v-8.3h1.3v1.3h0c.3-.5.7-.9,1.1-1.1.4-.2,1-.4,1.6-.4v.2ZM675.7,517.6v2.5h1.6v1.2h-1.6v5.2c0,.4,0,.6.4.7h1.3v1.2h-1.1c-.7,0-1.2,0-1.5-.4-.2-.3-.4-.7-.4-1.3v-5.3h-1.4v-1.2h1.4v-2.5h1.4-.1ZM682.1,519.9c1.2,0,2.1.4,2.8,1.3s1,2,1,3.3v.2h-6.2c0,.9.2,1.5.7,2s1.1.7,1.9.7,1.1,0,1.4-.4c.4-.3.6-.7.7-1.2h1.3c-.2.9-.6,1.6-1.2,2.1-.6.5-1.4.7-2.3.7s-1.6-.2-2.2-.6c-.6-.4-1.1-.9-1.3-1.6-.3-.7-.4-1.4-.4-2.2,0-1.2.4-2.2,1.1-3,.7-.8,1.7-1.2,2.8-1.2h0ZM679.6,523.4h4.8c0-.7-.3-1.2-.7-1.7-.4-.4-1-.7-1.7-.7s-1.2.2-1.6.6-.7,1-.8,1.7h0ZM690,519.9c1.1,0,1.9.2,2.5.7.5.4.8,1.1.9,1.9h-1.4c0-.5-.2-.8-.6-1s-.8-.4-1.3-.4-1,0-1.3.3c-.3.2-.5.4-.5.8s0,.6.4.8c.3.2.7.3,1.3.5l1.3.3c.8.2,1.4.5,1.8.8.4.4.6.9.6,1.5s-.3,1.5-1,1.9c-.6.5-1.5.7-2.6.7s-1.9-.2-2.5-.7-.9-1.2-1-2.1h1.4c0,.5.2.9.6,1.2.4.3.9.4,1.6.4s1.2,0,1.5-.3.5-.5.5-.9-.2-.7-.5-.9-1-.4-2.1-.6c-1-.2-1.8-.5-2.2-.9s-.6-.9-.6-1.5.3-1.3.9-1.7c.6-.4,1.3-.6,2.2-.6v-.2ZM701.4,516.9v5.7l5.8-5.7h2l-4.8,4.6,5,6.8h-1.9l-4.1-5.8-1.9,1.8v4h-1.5v-11.4h1.5,0ZM713.7,519.9c1.2,0,2.2.4,2.9,1.2s1.1,1.8,1.1,3.1-.4,2.3-1.1,3.1c-.7.8-1.7,1.2-2.9,1.2s-2.2-.4-2.9-1.2-1.1-1.8-1.1-3.2.4-2.4,1.1-3.2c.7-.8,1.7-1.2,2.9-1.2v.2ZM711.2,524.2c0,.9.2,1.7.7,2.3s1.1.8,1.9.8,1.4-.3,1.8-.8c.5-.6.7-1.3.7-2.3s-.2-1.7-.7-2.3-1.1-.9-1.9-.9-1.3.3-1.8.8c-.5.6-.7,1.3-.7,2.3h0ZM723.4,519.9c1,0,1.7.3,2.2.8.4.5.7,1.2.7,2.2v5.5h-1.4v-5.7c0-.5-.2-.9-.5-1.2s-.7-.5-1.2-.5c-.8,0-1.4.2-1.8.7-.4.5-.6,1.1-.6,1.8v4.7h-1.4v-8.3h1.3v1.3h0c.3-.5.7-.9,1.1-1.1.4-.2,1-.4,1.6-.4v.2ZM734.3,520.1v.9l-5.1,6.1h5.3v1.2h-7v-1l5-6h-4.7v-1.2h6.5ZM739.1,519.9c1.2,0,2.1.4,2.8,1.3s1,2,1,3.3v.2h-6.2c0,.9.2,1.5.7,2s1.1.7,1.9.7,1.1,0,1.4-.4c.4-.3.6-.7.7-1.2h1.3c-.2.9-.6,1.6-1.2,2.1-.6.5-1.4.7-2.3.7s-1.6-.2-2.2-.6c-.6-.4-1.1-.9-1.3-1.6-.3-.7-.4-1.4-.4-2.2,0-1.2.4-2.2,1.1-3,.7-.8,1.7-1.2,2.8-1.2h0ZM736.6,523.4h4.8c0-.7-.3-1.2-.7-1.7-.4-.4-1-.7-1.7-.7s-1.2.2-1.6.6-.7,1-.8,1.7h0ZM748.3,519.9c1.2,0,2.1.4,2.8,1.2s1,1.9,1,3.1-.3,2.3-1,3.1-1.6,1.2-2.8,1.2-1,0-1.5-.3-.9-.5-1.2-1h0v4.3h-1.4v-11.5h1.4v1.1h0c.2-.4.5-.8,1-1s1-.3,1.6-.3h.1ZM745.6,524.2c0,1,.2,1.7.7,2.3s1.1.8,1.9.8,1.4-.3,1.8-.8c.4-.6.7-1.3.7-2.3s-.2-1.6-.7-2.2c-.4-.6-1.1-.9-1.9-.9s-1.4.3-1.9.9-.7,1.3-.7,2.2h.1ZM755.6,517.6v2.5h1.6v1.2h-1.6v5.2c0,.4,0,.6.4.7h1.3v1.2h-1.1c-.7,0-1.2,0-1.5-.4-.2-.3-.4-.7-.4-1.3v-5.3h-1.4v-1.2h1.4v-2.5h1.4-.1Z"/>
  <path class="cls-2" d="M852.3,403.9h192.5v51.2h-192.5v-51.2h0Z"/>
  <path class="cls-6" d="M884.8,423.5c1.3,0,2.3.3,3,.9.8.6,1.1,1.5,1.2,2.7h-1.4c0-.8-.4-1.4-.8-1.8-.5-.4-1.1-.6-2-.6s-1.4.2-1.9.5c-.4.3-.7.8-.7,1.4s.2.8.6,1.1c.4.3,1.4.6,3.1.9,1.2.2,2.1.6,2.7,1.2.6.5.9,1.2.9,2.1s-.4,1.9-1.3,2.5c-.9.6-1.9.9-3.2.9s-2.5-.3-3.4-1-1.3-1.7-1.3-3h1.4c0,.9.3,1.6.9,2,.6.5,1.4.7,2.4.7s1.6-.2,2.1-.5c.5-.4.8-.9.8-1.5s-.2-1-.7-1.3-1.3-.6-2.5-.8c-1.6-.3-2.7-.7-3.3-1.2s-.8-1.1-.8-1.9.4-1.8,1.2-2.4,1.8-.9,3-.9h0ZM894.6,426.7c1.3,0,2.2.4,2.9,1.2.7.8,1.1,1.8,1.1,3.1s-.4,2.3-1.1,3.1c-.7.8-1.7,1.2-2.9,1.2s-2.2-.4-2.9-1.2c-.7-.8-1.1-1.8-1.1-3.2s.4-2.4,1.1-3.2c.7-.8,1.7-1.2,2.9-1.2v.2ZM892,431.1c0,.9.2,1.7.7,2.3.5.6,1.1.8,1.9.8s1.4-.3,1.8-.8c.5-.6.7-1.3.7-2.3s-.2-1.7-.7-2.3c-.5-.6-1.1-.9-1.9-.9s-1.3.3-1.8.8c-.5.6-.7,1.3-.7,2.3h0ZM906,426.9v.9l-5.1,6.1h5.3v1.2h-7v-1l5-6h-4.7v-1.2h6.5ZM909.1,423.8v1.7h-1.4v-1.7h1.4ZM909.1,426.9v8.3h-1.4v-8.3h1.4ZM914.6,426.7c1.1,0,1.9.2,2.4.6s.7.9.7,1.6v4.8c0,.3,0,.5.4.5s0,0,.2,0h.2v1.1c0,0-.3.1-.4.2h-.5c-.4,0-.7-.1-.9-.3-.2-.2-.3-.5-.3-1-.4.4-.8.8-1.3,1s-1,.3-1.6.3-1.5-.2-2-.6-.7-1-.7-1.7.2-1.3.7-1.8c.5-.4,1.6-.8,3.4-1,.6,0,1-.2,1.2-.3.2-.2.3-.4.3-.7,0-.5,0-.8-.4-1-.3-.2-.8-.3-1.4-.3s-1.2.1-1.5.4c-.3.2-.5.6-.5,1.2h-1.4c0-.9.4-1.6,1-2.1s1.4-.7,2.5-.7v-.2ZM912.2,433c0,.4,0,.7.4.9.3.2.7.3,1.2.3.8,0,1.4-.2,1.8-.6.5-.4.7-.8.7-1.3v-1.4c-.2.2-.5.3-.9.3s-.8.1-1.5.2c-.6,0-1.1.2-1.3.5-.3.2-.4.6-.4,1h0ZM921.2,423.8v11.4h-1.4v-11.4h1.4ZM926.8,426.7c1.2,0,2.1.4,2.8,1.3s1,2,1,3.3v.2h-6.2c0,.9.2,1.5.7,2s1.1.7,1.9.7,1.1-.1,1.4-.4c.4-.3.6-.7.7-1.2h1.3c-.2.9-.6,1.6-1.2,2.1-.6.5-1.4.7-2.3.7s-1.6-.2-2.2-.6c-.6-.4-1.1-.9-1.3-1.6-.3-.7-.4-1.4-.4-2.2,0-1.2.4-2.2,1.1-3,.7-.8,1.7-1.2,2.8-1.2h0ZM924.3,430.3h4.8c0-.7-.3-1.2-.7-1.7-.4-.4-1-.7-1.7-.7s-1.2.2-1.6.6c-.4.4-.7,1-.8,1.7h0ZM941.4,423.8l4.5,11.4h-1.7l-1.2-3.4h-4.8l-1.3,3.4h-1.6l4.5-11.4h1.7-.1ZM940.5,425.2l-1.9,5.3h3.9l-1.9-5.3h0ZM948.1,426.9v5.6c0,.5,0,.9.4,1.2.3.3.7.5,1.2.5.8,0,1.4-.2,1.8-.7.4-.5.6-1.1.6-1.8v-4.7h1.4v8.3h-1.3v-1.3h0c-.3.5-.7.9-1.1,1.2-.4.2-1,.4-1.5.4-1,0-1.7-.2-2.2-.8-.5-.5-.7-1.2-.7-2.2v-5.5h1.4v-.2ZM958.5,423.7h.9v1.2h-.8c-.4,0-.6,0-.8.2s-.2.4-.2.7v1.2h1.6v1.2h-1.6v7.1h-1.4v-7.1h-1.4v-1.2h1.4v-1.3c0-.6.2-1.1.6-1.5.4-.4,1-.5,1.7-.5h0ZM961.1,426.9l1.9,6.8h0l1.7-6.8h1.5l1.7,6.7h0l1.9-6.8h1.4l-2.6,8.2h-1.4l-1.7-6.5h0l-1.7,6.6h-1.5l-2.7-8.3h1.5,0ZM975.9,426.7c1.2,0,2.1.4,2.8,1.3s1,2,1,3.3v.2h-6.2c0,.9.2,1.5.7,2s1.1.7,1.9.7,1.1-.1,1.4-.4c.4-.3.6-.7.7-1.2h1.3c-.2.9-.6,1.6-1.2,2.1-.6.5-1.4.7-2.3.7s-1.6-.2-2.2-.6c-.6-.4-1.1-.9-1.3-1.6-.3-.7-.4-1.4-.4-2.2,0-1.2.4-2.2,1.1-3,.7-.8,1.7-1.2,2.8-1.2h0ZM973.5,430.3h4.8c0-.7-.3-1.2-.7-1.7-.4-.4-1-.7-1.7-.7s-1.2.2-1.6.6c-.4.4-.7,1-.8,1.7h0ZM985.2,426.7h.2v1.4c-1,0-1.8.3-2.3.8s-.7,1.4-.7,2.5v3.7h-1.4v-8.3h1.3v1.8h0c.3-.7.7-1.1,1.2-1.5.5-.3,1-.5,1.7-.5h0ZM988.4,424.5v2.5h1.6v1.2h-1.6v5.2c0,.4,0,.6.4.7h1.3v1.2h-1.1c-.7,0-1.2-.1-1.5-.4-.2-.3-.4-.7-.4-1.3v-5.3h-1.4v-1.2h1.4v-2.5h1.4-.1ZM992.9,426.9v5.6c0,.5,0,.9.4,1.2.3.3.7.5,1.2.5.8,0,1.4-.2,1.8-.7.4-.5.6-1.1.6-1.8v-4.7h1.4v8.3h-1.3v-1.3h0c-.3.5-.7.9-1.1,1.2-.4.2-1,.4-1.5.4-1,0-1.7-.2-2.2-.8-.5-.5-.7-1.2-.7-2.2v-5.5h1.4v-.2ZM1004.4,426.7c1,0,1.7.3,2.2.8.4.5.7,1.2.7,2.2v5.5h-1.4v-5.7c0-.5-.2-.9-.5-1.2-.3-.3-.7-.5-1.2-.5-.8,0-1.4.2-1.8.7-.4.5-.6,1.1-.6,1.8v4.7h-1.4v-8.3h1.3v1.3h0c.3-.5.7-.9,1.1-1.1.4-.2,1-.4,1.6-.4v.2ZM1012.7,426.7c.6,0,1.1.1,1.5.4.4.2.8.6,1,1h0v-1.2h1.3v7.7c0,1.3-.3,2.3-.9,3-.6.7-1.6,1-2.9,1s-1.7-.2-2.4-.6c-.6-.4-1-1-1-1.8h1.4c0,.4.2.7.7,1,.4.2.9.4,1.5.4s1.4-.3,1.8-.8c.4-.5.6-1.3.6-2.4v-.5h0c-.2.5-.6.8-1,1.1-.5.3-1,.4-1.6.4-1.1,0-2-.4-2.7-1.2-.7-.8-1-1.8-1-3s.3-2.3,1-3.1c.7-.8,1.6-1.2,2.8-1.2v-.2ZM1010.3,430.9c0,1,.2,1.8.6,2.3.4.6,1,.8,1.7.8s1.3-.3,1.8-.9c.4-.6.7-1.4.7-2.3s-.2-1.6-.6-2.1c-.4-.5-1-.8-1.7-.8s-1.4.3-1.8.8c-.4.5-.6,1.3-.6,2.2h-.1Z"/>
  <path class="cls-2" d="M852.3,486.5h192.5v51.2h-192.5v-51.2h0Z"/>
  <path class="cls-6" d="M872.6,506.4v4.9h6v-4.9h1.5v11.4h-1.5v-5.2h-6v5.2h-1.5v-11.4h1.5ZM885.8,509.4c1.2,0,2.1.4,2.8,1.3s1,2,1,3.3v.2h-6.2c0,.9.2,1.5.7,2s1.1.7,1.9.7,1.1,0,1.4-.4c.4-.3.6-.7.7-1.2h1.3c-.2.9-.6,1.6-1.2,2.1-.6.5-1.4.7-2.3.7s-1.6-.2-2.2-.6c-.6-.4-1.1-.9-1.3-1.6-.3-.7-.4-1.4-.4-2.2,0-1.2.4-2.2,1.1-3,.7-.8,1.7-1.2,2.8-1.2h0ZM883.4,512.9h4.8c0-.7-.3-1.2-.7-1.7-.4-.4-1-.7-1.7-.7s-1.2.2-1.6.6c-.4.4-.7,1-.8,1.7h0ZM892.9,507.1v2.5h1.6v1.2h-1.6v5.2c0,.4,0,.6.4.7h1.3v1.2h-1.1c-.7,0-1.2,0-1.5-.4-.2-.3-.4-.7-.4-1.3v-5.3h-1.4v-1.2h1.4v-2.5h1.4-.1ZM899.3,509.4c1.2,0,2.1.4,2.8,1.3s1,2,1,3.3v.2h-6.2c0,.9.2,1.5.7,2s1.1.7,1.9.7,1.1,0,1.4-.4c.4-.3.6-.7.7-1.2h1.3c-.2.9-.6,1.6-1.2,2.1-.6.5-1.4.7-2.3.7s-1.6-.2-2.2-.6c-.6-.4-1.1-.9-1.3-1.6-.3-.7-.4-1.4-.4-2.2,0-1.2.4-2.2,1.1-3,.7-.8,1.7-1.2,2.8-1.2h0ZM896.8,512.9h4.8c0-.7-.3-1.2-.7-1.7-.4-.4-1-.7-1.7-.7s-1.2.2-1.6.6c-.4.4-.7,1-.8,1.7h0ZM908.6,509.4h.2v1.4c-1,0-1.8.3-2.3.8s-.7,1.4-.7,2.5v3.7h-1.4v-8.3h1.3v1.8h0c.3-.7.7-1.1,1.2-1.5.5-.3,1-.5,1.7-.5h0ZM913,509.4c1.3,0,2.2.4,2.9,1.2.7.8,1.1,1.8,1.1,3.1s-.4,2.3-1.1,3.1c-.7.8-1.7,1.2-2.9,1.2s-2.2-.4-2.9-1.2-1.1-1.8-1.1-3.2.4-2.4,1.1-3.2c.7-.8,1.7-1.2,2.9-1.2v.2ZM910.5,513.7c0,.9.2,1.7.7,2.3s1.1.8,1.9.8,1.4-.3,1.8-.8c.5-.6.7-1.3.7-2.3s-.2-1.7-.7-2.3c-.5-.6-1.1-.9-1.9-.9s-1.3.3-1.8.8c-.5.6-.7,1.3-.7,2.3h0ZM922,509.4c.6,0,1.1.1,1.5.4.4.2.8.6,1,1h0v-1.2h1.3v7.7c0,1.3-.3,2.3-.9,3-.6.7-1.6,1-2.9,1s-1.7-.2-2.4-.6c-.6-.4-1-1-1-1.8h1.4c0,.4.2.7.7,1,.4.2.9.4,1.5.4s1.4-.3,1.8-.8c.4-.5.6-1.3.6-2.4v-.5h0c-.2.5-.6.8-1,1.1-.5.3-1,.4-1.6.4-1.1,0-2-.4-2.7-1.2s-1-1.8-1-3,.3-2.3,1-3.1c.7-.8,1.6-1.2,2.8-1.2v-.2ZM919.7,513.6c0,1,.2,1.8.6,2.3.4.6,1,.8,1.7.8s1.3-.3,1.8-.9c.4-.6.7-1.4.7-2.3s-.2-1.6-.6-2.1c-.4-.5-1-.8-1.7-.8s-1.4.3-1.8.8c-.4.5-.6,1.3-.6,2.2h-.1ZM931.3,509.4c1.2,0,2.1.4,2.8,1.3s1,2,1,3.3v.2h-6.2c0,.9.2,1.5.7,2s1.1.7,1.9.7,1.1,0,1.4-.4c.4-.3.6-.7.7-1.2h1.3c-.2.9-.6,1.6-1.2,2.1-.6.5-1.4.7-2.3.7s-1.6-.2-2.2-.6c-.6-.4-1.1-.9-1.3-1.6-.3-.7-.4-1.4-.4-2.2,0-1.2.4-2.2,1.1-3,.7-.8,1.7-1.2,2.8-1.2h0ZM928.8,512.9h4.8c0-.7-.3-1.2-.7-1.7-.4-.4-1-.7-1.7-.7s-1.2.2-1.6.6c-.4.4-.7,1-.8,1.7h0ZM940.5,509.4c1,0,1.7.3,2.2.8.4.5.7,1.2.7,2.2v5.5h-1.4v-5.7c0-.5-.2-.9-.5-1.2-.3-.3-.7-.5-1.2-.5-.8,0-1.4.2-1.8.7-.4.5-.6,1.1-.6,1.8v4.7h-1.4v-8.3h1.3v1.3h0c.3-.5.7-.9,1.1-1.1.4-.2,1-.4,1.6-.4v.2ZM948.8,509.4c1.2,0,2.1.4,2.8,1.3s1,2,1,3.3v.2h-6.2c0,.9.2,1.5.7,2s1.1.7,1.9.7,1.1,0,1.4-.4c.4-.3.6-.7.7-1.2h1.3c-.2.9-.6,1.6-1.2,2.1-.6.5-1.4.7-2.3.7s-1.6-.2-2.2-.6c-.6-.4-1.1-.9-1.3-1.6-.3-.7-.4-1.4-.4-2.2,0-1.2.4-2.2,1.1-3,.7-.8,1.7-1.2,2.8-1.2h0ZM946.3,512.9h4.8c0-.7-.3-1.2-.7-1.7-.4-.4-1-.7-1.7-.7s-1.2.2-1.6.6c-.4.4-.7,1-.8,1.7h0ZM960.7,506.4l3.6,9.6,3.6-9.6h2.1v11.4h-1.4v-9.5h0l-3.6,9.5h-1.3l-3.6-9.5h0v9.5h-1.4v-11.4h2.1,0ZM973.8,506.4v1.7h-1.4v-1.7h1.4ZM973.8,509.5v8.3h-1.4v-8.3h1.4ZM978.6,509.4c1.1,0,1.9.2,2.5.7.5.4.8,1.1.9,1.9h-1.4c0-.5-.2-.8-.6-1-.3-.2-.8-.4-1.3-.4s-1,0-1.3.3c-.3.2-.5.4-.5.8s0,.6.4.8c.3.2.7.3,1.3.5l1.3.3c.8.2,1.4.5,1.8.8.4.4.6.9.6,1.5s-.3,1.5-1,1.9c-.6.5-1.5.7-2.6.7s-1.9-.2-2.5-.7-.9-1.2-1-2.1h1.4c0,.5.2.9.6,1.2.4.3.9.4,1.6.4s1.2,0,1.5-.3.5-.5.5-.9-.2-.7-.5-.9-1-.4-2.1-.6c-1-.2-1.8-.5-2.2-.9s-.6-.9-.6-1.5.3-1.3.9-1.7c.6-.4,1.3-.6,2.2-.6v-.2ZM987.3,509.4c1,0,1.8.2,2.5.7.6.5,1,1.2,1.1,2.1h-1.4c0-.5-.3-.9-.7-1.2-.4-.3-.8-.4-1.3-.4-.8,0-1.5.3-1.9.8-.4.6-.7,1.4-.7,2.4s.2,1.7.6,2.2c.4.5,1,.8,1.8.8s1.2-.2,1.6-.5c.4-.4.6-.8.7-1.5h1.4c0,1-.5,1.8-1.2,2.4-.6.6-1.5.8-2.5.8s-2.2-.4-2.8-1.1c-.7-.8-1-1.8-1-3.1s.3-2.4,1-3.2c.7-.8,1.7-1.2,2.9-1.2h0ZM993.8,506.4v4.4h0c.2-.4.5-.8,1-1s1-.4,1.6-.4c1,0,1.7.3,2.2.8.4.5.7,1.2.7,2.2v5.5h-1.4v-5.7c0-.5-.2-.9-.5-1.2-.3-.3-.7-.5-1.2-.5-.8,0-1.4.2-1.8.7-.4.5-.6,1.1-.6,1.8v4.7h-1.4v-11.4h1.4ZM1002.7,509.5v5.6c0,.5,0,.9.4,1.2.3.3.7.5,1.2.5.8,0,1.4-.2,1.8-.7.4-.5.6-1.1.6-1.8v-4.7h1.4v8.3h-1.3v-1.3h0c-.3.5-.7.9-1.1,1.2-.4.2-1,.4-1.5.4-1,0-1.7-.2-2.2-.8-.5-.5-.7-1.2-.7-2.2v-5.5h1.4v-.2ZM1014.3,509.4c1,0,1.7.3,2.2.8.4.5.7,1.2.7,2.2v5.5h-1.4v-5.7c0-.5-.2-.9-.5-1.2-.3-.3-.7-.5-1.2-.5-.8,0-1.4.2-1.8.7-.4.5-.6,1.1-.6,1.8v4.7h-1.4v-8.3h1.3v1.3h0c.3-.5.7-.9,1.1-1.1.4-.2,1-.4,1.6-.4v.2ZM1022.5,509.4c.6,0,1.1.1,1.5.4.4.2.8.6,1,1h0v-1.2h1.3v7.7c0,1.3-.3,2.3-.9,3s-1.6,1-2.9,1-1.7-.2-2.4-.6c-.6-.4-1-1-1-1.8h1.4c0,.4.2.7.7,1,.4.2.9.4,1.5.4s1.4-.3,1.8-.8.6-1.3.6-2.4v-.5h0c-.2.5-.6.8-1,1.1-.5.3-1,.4-1.6.4-1.1,0-2-.4-2.7-1.2s-1-1.8-1-3,.3-2.3,1-3.1c.7-.8,1.6-1.2,2.8-1.2v-.2ZM1020.2,513.6c0,1,.2,1.8.6,2.3.4.6,1,.8,1.7.8s1.3-.3,1.8-.9c.4-.6.7-1.4.7-2.3s-.2-1.6-.6-2.1-1-.8-1.7-.8-1.4.3-1.8.8c-.4.5-.6,1.3-.6,2.2h-.1Z"/>
  <path class="cls-2" d="M316.5,247.9h0c0-63.9,51.8-115.7,115.7-115.7h0c30.7,0,60.1,12.2,81.8,33.9,21.7,21.7,33.9,51.1,33.9,81.8h0c0,63.9-51.8,115.7-115.7,115.7h0c-63.9,0-115.7-51.8-115.7-115.7h0Z"/>
  <path class="cls-7" d="M316.5,247.9h0c0-63.9,51.8-115.7,115.7-115.7h0c30.7,0,60.1,12.2,81.8,33.9,21.7,21.7,33.9,51.1,33.9,81.8h0c0,63.9-51.8,115.7-115.7,115.7h0c-63.9,0-115.7-51.8-115.7-115.7h0Z"/>
  <path class="cls-2" d="M316.5,191.8h231.4v112.1h-231.4v-112.1h0Z"/>
  <path class="cls-6" d="M359.6,216.8l7.5,11.6h0v-11.6h1.8v14.3h-2.1l-7.5-11.5h0v11.5h-1.8v-14.3h2.1ZM376,220.5c1.4,0,2.4.2,3,.8.6.5.9,1.2.9,2v6c0,.4.2.6.5.6s.2,0,.2,0h.3v1.3c-.2,0-.3.2-.5.2h-.7c-.5,0-.8-.1-1.1-.4-.2-.3-.4-.7-.4-1.2-.4.5-1,.9-1.6,1.2s-1.3.4-2,.4-1.9-.2-2.5-.8c-.6-.5-.9-1.2-.9-2.2s.3-1.7.9-2.2c.6-.6,2-1,4.2-1.2.7,0,1.2-.2,1.5-.4s.4-.5.4-.9c0-.6-.2-1-.6-1.3s-.9-.4-1.8-.4-1.5.2-1.9.5-.6.8-.7,1.5h-1.7c0-1.1.5-2,1.2-2.6.8-.6,1.8-.9,3.2-.9h.1ZM373,228.3c0,.5.2.9.5,1.1.4.3.8.4,1.5.4,1,0,1.7-.2,2.3-.7.6-.5.9-1,.9-1.6v-1.8c-.3.2-.7.3-1.1.4-.5,0-1.1.2-1.8.3-.8.1-1.3.3-1.7.6-.4.3-.5.7-.5,1.3h0ZM386.8,220.5c1.3,0,2.3.3,3.1.9.8.6,1.3,1.5,1.4,2.7h-1.8c-.1-.7-.4-1.2-.9-1.5-.4-.4-1-.5-1.7-.5-1.1,0-1.9.4-2.4,1.1-.5.7-.8,1.7-.8,3s.3,2.1.8,2.8,1.3,1,2.2,1,1.5-.2,2-.7c.5-.4.8-1.1.9-1.9h1.8c-.2,1.3-.7,2.3-1.5,3s-1.8,1-3.1,1-2.7-.5-3.6-1.4-1.3-2.2-1.3-3.9.4-3,1.3-4,2.1-1.5,3.6-1.5h0ZM394.9,216.8v5.5h0c.2-.6.7-1,1.3-1.3.6-.3,1.3-.5,2-.5,1.2,0,2.1.3,2.7,1,.6.6.8,1.5.8,2.7v6.9h-1.7v-7.1c0-.6-.2-1.1-.6-1.4-.4-.4-.9-.6-1.5-.6-1,0-1.7.3-2.2.9-.5.6-.8,1.3-.8,2.3v5.9h-1.7v-14.3h1.7ZM405.2,220.7l2.9,8.6h0l2.8-8.6h1.8l-3.8,10.3h-1.8l-3.8-10.3h1.9ZM418.6,220.5c1.5,0,2.6.5,3.5,1.6.8,1.1,1.2,2.4,1.2,4.1v.2h-7.8c0,1.1.3,1.9.9,2.5s1.4.9,2.4.9,1.3-.2,1.8-.5c.4-.4.7-.9.9-1.5h1.7c-.2,1.1-.7,2-1.5,2.6s-1.7.9-2.9.9-2-.2-2.8-.7-1.3-1.2-1.7-2.1c-.4-.9-.5-1.8-.5-2.7,0-1.5.5-2.8,1.4-3.8s2.1-1.5,3.5-1.5h-.1ZM415.6,224.9h5.9c0-.8-.4-1.5-.9-2.1-.6-.6-1.2-.8-2.1-.8s-1.4.3-2,.8-.9,1.2-.9,2.1ZM430.2,220.5h.2v1.8c-1.3,0-2.2.3-2.8,1-.6.7-.9,1.7-.9,3.1v4.6h-1.7v-10.3h1.6v2.2h0c.4-.8.9-1.4,1.5-1.8.6-.4,1.3-.6,2.1-.6h0ZM440.6,216.8v14.3h-1.7v-1.4h0c-.3.5-.7.9-1.3,1.2-.6.3-1.3.4-2,.4-1.4,0-2.6-.5-3.5-1.5s-1.3-2.3-1.3-4,.4-2.9,1.2-3.9c.8-1,2-1.5,3.5-1.5s1.3.1,1.9.4c.6.3,1.1.7,1.4,1.2h0v-5.3h1.8ZM432.6,226c0,1.1.3,2,.9,2.8.6.7,1.4,1.1,2.3,1.1s1.8-.4,2.3-1.1c.6-.7.8-1.7.8-2.8s-.3-2.1-.9-2.8-1.4-1.1-2.4-1.1-1.7.4-2.3,1.1c-.5.7-.8,1.7-.8,2.9h.1ZM445,216.8v2.1h-1.7v-2.1h1.7ZM445,220.7v10.3h-1.7v-10.3h1.7ZM452,220.5c1.3,0,2.3.3,3.1.9.8.6,1.3,1.5,1.4,2.7h-1.8c-.1-.7-.4-1.2-.9-1.5-.4-.4-1-.5-1.7-.5-1.1,0-1.9.4-2.4,1.1-.5.7-.8,1.7-.8,3s.3,2.1.8,2.8,1.3,1,2.2,1,1.5-.2,2-.7c.5-.4.8-1.1.9-1.9h1.8c-.2,1.3-.7,2.3-1.5,3s-1.8,1-3.1,1-2.7-.5-3.6-1.4-1.3-2.2-1.3-3.9.4-3,1.3-4,2.1-1.5,3.6-1.5h0ZM460.1,216.8v5.5h0c.2-.6.7-1,1.3-1.3.6-.3,1.3-.5,2-.5,1.2,0,2.1.3,2.7,1,.6.6.8,1.5.8,2.7v6.9h-1.7v-7.1c0-.6-.2-1.1-.6-1.4-.4-.4-.9-.6-1.5-.6-1,0-1.7.3-2.2.9-.5.6-.8,1.3-.8,2.3v5.9h-1.7v-14.3h1.7ZM471.9,217.6v3.1h2.1v1.5h-2.1v6.5c0,.5.2.8.5.8h1.6v1.5h-1.4c-.9,0-1.6-.2-1.9-.5s-.5-.9-.5-1.7v-6.7h-1.8v-1.5h1.8v-3.1h1.7,0ZM477.6,220.7v7c0,.6.2,1.1.6,1.5s.9.6,1.5.6c1,0,1.7-.3,2.2-.9s.8-1.4.8-2.3v-5.9h1.7v10.3h-1.6v-1.6h0c-.4.7-.8,1.1-1.4,1.4-.6.3-1.2.5-2,.5-1.2,0-2.1-.3-2.7-.9-.6-.6-.9-1.5-.9-2.8v-6.9h1.8ZM492,220.5c1.2,0,2.1.3,2.7,1,.6.6.8,1.5.8,2.7v6.9h-1.7v-7.1c0-.6-.2-1.1-.6-1.4-.4-.4-.9-.6-1.5-.6-1,0-1.7.3-2.2.9-.5.6-.8,1.3-.8,2.3v5.9h-1.7v-10.3h1.6v1.6h0c.4-.6.8-1.1,1.4-1.4.6-.3,1.2-.5,2-.5h0ZM502.3,220.5c.7,0,1.4.2,1.9.5s.9.7,1.2,1.2h0v-1.5h1.6v9.6c0,1.6-.4,2.8-1.2,3.7-.8.9-2,1.3-3.6,1.3s-2.2-.3-3-.8-1.2-1.3-1.3-2.3h1.7c0,.5.3.9.8,1.2s1.2.5,1.8.5c1,0,1.8-.3,2.3-1s.8-1.7.8-3v-.7h0c-.3.6-.7,1-1.3,1.4-.6.3-1.2.5-2,.5-1.4,0-2.5-.5-3.4-1.5-.8-1-1.2-2.2-1.2-3.8s.4-2.9,1.2-3.9c.8-1,2-1.5,3.5-1.5h.2ZM499.3,225.7c0,1.2.3,2.2.8,2.9s1.2,1,2.2,1,1.7-.4,2.2-1.1c.6-.7.8-1.7.8-2.9s-.3-2-.8-2.7-1.2-1-2.2-1-1.7.3-2.2,1-.8,1.6-.8,2.7h0Z"/>
  <path class="cls-6" d="M370.1,244.7v7c0,.6.2,1.1.6,1.5s.9.6,1.5.6c1,0,1.7-.3,2.2-.9s.8-1.4.8-2.3v-5.9h1.7v10.3h-1.6v-1.6h0c-.4.7-.8,1.1-1.4,1.4-.6.3-1.2.5-2,.5-1.2,0-2.1-.3-2.7-.9-.6-.6-.9-1.5-.9-2.8v-6.9h1.8ZM384.5,244.5c1.2,0,2.1.3,2.7,1,.6.6.8,1.5.8,2.7v6.9h-1.7v-7.1c0-.6-.2-1.1-.6-1.4-.4-.4-.9-.6-1.5-.6-1,0-1.7.3-2.2.9-.5.6-.8,1.3-.8,2.3v5.9h-1.7v-10.3h1.6v1.6h0c.4-.6.8-1.1,1.4-1.4.6-.3,1.2-.5,2-.5h0ZM399.9,240.8v14.3h-1.7v-1.4h0c-.3.5-.7.9-1.3,1.2-.6.3-1.3.4-2,.4-1.4,0-2.6-.5-3.5-1.5s-1.3-2.3-1.3-4,.4-2.9,1.2-3.9c.8-1,2-1.5,3.5-1.5s1.3.1,1.9.4c.6.3,1.1.7,1.4,1.2h0v-5.3h1.8ZM391.9,250c0,1.1.3,2,.9,2.8.6.7,1.4,1.1,2.3,1.1s1.8-.4,2.3-1.1c.6-.7.8-1.7.8-2.8s-.3-2.1-.9-2.8-1.4-1.1-2.4-1.1-1.7.4-2.3,1.1c-.5.7-.8,1.7-.8,2.9h.1ZM413.1,240.4c1.6,0,2.8.4,3.8,1.2.9.8,1.4,1.9,1.5,3.4h-1.8c-.1-1-.5-1.7-1.1-2.2s-1.4-.7-2.5-.7-1.8.2-2.4.6c-.6.4-.8,1-.8,1.8s.2,1,.7,1.4,1.8.7,3.9,1.2c1.5.3,2.7.8,3.4,1.4.8.6,1.1,1.5,1.1,2.7s-.5,2.4-1.6,3.1c-1.1.8-2.4,1.1-4,1.1s-3.1-.4-4.2-1.3c-1.1-.9-1.6-2.1-1.7-3.8h1.8c0,1.1.4,1.9,1.2,2.5.8.6,1.8.9,3,.9s2-.2,2.7-.7c.6-.4,1-1.1,1-1.9s-.3-1.2-.9-1.6c-.6-.4-1.6-.8-3.2-1.1-2-.4-3.4-.9-4.1-1.5s-1-1.4-1-2.4.5-2.3,1.5-3c1-.8,2.2-1.1,3.7-1.1h0ZM425.3,244.5c1.4,0,2.4.2,3,.8.6.5.9,1.2.9,2v6c0,.4.2.6.5.6s.2,0,.2,0h.3v1.3c-.2,0-.3.2-.5.2h-.7c-.5,0-.8-.1-1.1-.4-.2-.3-.4-.7-.4-1.2-.4.5-1,.9-1.6,1.2s-1.3.4-2,.4-1.9-.2-2.5-.8c-.6-.5-.9-1.2-.9-2.2s.3-1.7.9-2.2c.6-.6,2-1,4.2-1.2.7,0,1.2-.2,1.5-.4s.4-.5.4-.9c0-.6-.2-1-.6-1.3s-.9-.4-1.8-.4-1.5.2-1.9.5-.6.8-.7,1.5h-1.7c0-1.1.5-2,1.2-2.6.8-.6,1.8-.9,3.2-.9h.1ZM422.3,252.3c0,.5.2.9.5,1.1.4.3.8.4,1.5.4,1,0,1.7-.2,2.3-.7.6-.5.9-1,.9-1.6v-1.8c-.3.2-.7.3-1.1.4-.5,0-1.1.2-1.8.3-.8.1-1.3.3-1.7.6-.4.3-.5.7-.5,1.3h0ZM436.8,244.5c1.2,0,2.1.3,2.7,1,.6.6.8,1.5.8,2.7v6.9h-1.7v-7.1c0-.6-.2-1.1-.6-1.4-.4-.4-.9-.6-1.5-.6-1,0-1.7.3-2.2.9-.5.6-.8,1.3-.8,2.3v5.9h-1.7v-10.3h1.6v1.6h0c.4-.6.8-1.1,1.4-1.4.6-.3,1.2-.5,2-.5h0ZM444.7,240.8v2.1h-1.7v-2.1h1.7ZM444.7,244.7v10.3h-1.7v-10.3h1.7ZM451.6,244.5c1.5,0,2.6.5,3.5,1.6.8,1.1,1.2,2.4,1.2,4.1v.2h-7.8c0,1.1.3,1.9.9,2.5s1.4.9,2.4.9,1.3-.2,1.8-.5c.4-.4.7-.9.9-1.5h1.7c-.2,1.1-.7,2-1.5,2.6s-1.7.9-2.9.9-2-.2-2.8-.7-1.3-1.2-1.7-2.1c-.4-.9-.5-1.8-.5-2.7,0-1.5.5-2.8,1.4-3.8s2.1-1.5,3.5-1.5h-.1ZM448.6,248.9h5.9c0-.8-.4-1.5-.9-2.1-.6-.6-1.2-.8-2.1-.8s-1.4.3-2,.8-.9,1.2-.9,2.1ZM463.2,244.5h.2v1.8c-1.3,0-2.2.3-2.8,1-.6.7-.9,1.7-.9,3.1v4.6h-1.7v-10.3h1.6v2.2h0c.4-.8.9-1.4,1.5-1.8.6-.4,1.3-.6,2.1-.6h0ZM466.4,244.7v7c0,.6.2,1.1.6,1.5s.9.6,1.5.6c1,0,1.7-.3,2.2-.9s.8-1.4.8-2.3v-5.9h1.7v10.3h-1.6v-1.6h0c-.4.7-.8,1.1-1.4,1.4-.6.3-1.2.5-2,.5-1.2,0-2.1-.3-2.7-.9-.6-.6-.9-1.5-.9-2.8v-6.9h1.8ZM480.9,244.5c1.2,0,2.1.3,2.7,1,.6.6.8,1.5.8,2.7v6.9h-1.7v-7.1c0-.6-.2-1.1-.6-1.4-.4-.4-.9-.6-1.5-.6-1,0-1.7.3-2.2.9-.5.6-.8,1.3-.8,2.3v5.9h-1.7v-10.3h1.6v1.6h0c.4-.6.8-1.1,1.4-1.4.6-.3,1.2-.5,2-.5h0ZM491.2,244.5c.7,0,1.4.2,1.9.5s.9.7,1.2,1.2h0v-1.5h1.6v9.6c0,1.6-.4,2.8-1.2,3.7-.8.9-2,1.3-3.6,1.3s-2.2-.3-3-.8-1.2-1.3-1.3-2.3h1.7c0,.5.3.9.8,1.2.5.3,1.2.5,1.8.5,1,0,1.8-.3,2.3-1s.8-1.7.8-3v-.7h0c-.3.6-.7,1-1.3,1.4-.6.3-1.2.5-2,.5-1.4,0-2.5-.5-3.4-1.5-.8-1-1.2-2.2-1.2-3.8s.4-2.9,1.2-3.9c.8-1,2-1.5,3.5-1.5h.2ZM488.2,249.7c0,1.2.3,2.2.8,2.9s1.2,1,2.2,1,1.7-.4,2.2-1.1c.6-.7.8-1.7.8-2.9s-.3-2-.8-2.7-1.2-1-2.2-1-1.7.3-2.2,1-.8,1.6-.8,2.7h0Z"/>
  <path class="cls-6" d="M398.7,264.4c1.7,0,3.1.4,4.1,1.2,1.1.8,1.7,2,2,3.5h-1.9c-.2-1-.7-1.8-1.4-2.3-.7-.5-1.7-.8-2.9-.8s-2.7.6-3.6,1.7-1.3,2.6-1.3,4.4.4,3,1.3,4.1,2.1,1.6,3.5,1.6,2.5-.4,3.3-1.2c.9-.8,1.3-1.9,1.3-3.2v-.2h-4.6v-1.6h6.3v7.5h-1.2l-.5-1.8c-.5.7-1.2,1.2-2,1.6s-1.7.5-2.6.5c-1.9,0-3.6-.7-4.9-2.1s-1.9-3.1-1.9-5.1.6-4.1,1.8-5.6,2.9-2.2,5-2.2h.2ZM411.8,268.5c1.5,0,2.6.5,3.5,1.6.8,1.1,1.2,2.4,1.2,4.1v.2h-7.8c0,1.1.3,1.9.9,2.5s1.4.9,2.4.9,1.3-.2,1.8-.5c.4-.4.7-.9.9-1.5h1.7c-.2,1.1-.7,2-1.5,2.6s-1.7.9-2.9.9-2-.2-2.8-.7-1.3-1.2-1.7-2.1c-.4-.9-.5-1.8-.5-2.7,0-1.5.5-2.8,1.4-3.8s2.1-1.5,3.5-1.5h-.1ZM408.7,272.9h5.9c0-.8-.4-1.5-.9-2.1-.6-.6-1.2-.8-2.1-.8s-1.4.3-2,.8-.9,1.2-.9,2.1ZM420,264.8v5.3h0c.3-.5.7-.9,1.2-1.2.6-.3,1.3-.4,2-.4,1.5,0,2.6.5,3.5,1.5s1.3,2.3,1.3,3.9-.4,2.9-1.3,3.9c-.8,1-2,1.5-3.5,1.5s-1.3-.1-1.9-.4-1.1-.7-1.5-1.2h0v1.4h-1.7v-14.3h1.9ZM419.9,273.9c0,1.2.3,2.2.9,2.9.6.7,1.4,1,2.4,1s1.8-.3,2.3-1,.8-1.7.8-2.9-.3-2-.9-2.8c-.6-.7-1.4-1.1-2.4-1.1s-1.8.4-2.3,1.1-.8,1.7-.8,2.8ZM434.3,268.5c1.4,0,2.4.2,3,.8.6.5.9,1.2.9,2v6c0,.4.2.6.5.6s.2,0,.2,0h.3v1.3c-.2,0-.3.2-.5.2h-.7c-.5,0-.8-.1-1.1-.4-.2-.3-.4-.7-.4-1.2-.4.5-1,.9-1.6,1.2-.6.3-1.3.4-2,.4s-1.9-.2-2.5-.8c-.6-.5-.9-1.2-.9-2.2s.3-1.7.9-2.2c.6-.6,2-1,4.2-1.2.7,0,1.2-.2,1.5-.4.3-.2.4-.5.4-.9,0-.6-.2-1-.6-1.3s-.9-.4-1.8-.4-1.5.2-1.9.5-.6.8-.7,1.5h-1.7c0-1.1.5-2,1.2-2.6.8-.6,1.8-.9,3.2-.9h.1ZM431.3,276.3c0,.5.2.9.5,1.1.4.3.8.4,1.5.4,1,0,1.7-.2,2.3-.7.6-.5.9-1,.9-1.6v-1.8c-.3.2-.7.3-1.1.4-.5,0-1.1.2-1.8.3-.8.1-1.3.3-1.7.6-.4.3-.5.7-.5,1.3h0ZM433.3,264.9v2.1h-1.8v-2.1h1.8ZM437,264.9v2.1h-1.8v-2.1h1.8ZM442.5,268.7v7c0,.6.2,1.1.6,1.5s.9.6,1.5.6c1,0,1.7-.3,2.2-.9s.8-1.4.8-2.3v-5.9h1.7v10.3h-1.6v-1.6h0c-.4.7-.8,1.1-1.4,1.4s-1.2.5-2,.5c-1.2,0-2.1-.3-2.7-.9s-.9-1.5-.9-2.8v-6.9h1.8ZM461.2,264.8v14.3h-1.7v-1.4h0c-.3.5-.7.9-1.3,1.2-.6.3-1.3.4-2,.4-1.4,0-2.6-.5-3.5-1.5s-1.3-2.3-1.3-4,.4-2.9,1.2-3.9c.8-1,2-1.5,3.5-1.5s1.3.1,1.9.4,1.1.7,1.4,1.2h0v-5.3h1.8ZM453.2,274c0,1.1.3,2,.9,2.8.6.7,1.4,1.1,2.3,1.1s1.8-.4,2.3-1.1c.6-.7.8-1.7.8-2.8s-.3-2.1-.9-2.8c-.6-.7-1.4-1.1-2.4-1.1s-1.7.4-2.3,1.1c-.5.7-.8,1.7-.8,2.9h.1ZM468.1,268.5c1.5,0,2.6.5,3.5,1.6.8,1.1,1.2,2.4,1.2,4.1v.2h-7.8c0,1.1.3,1.9.9,2.5s1.4.9,2.4.9,1.3-.2,1.8-.5c.4-.4.7-.9.9-1.5h1.7c-.2,1.1-.7,2-1.5,2.6s-1.7.9-2.9.9-2-.2-2.8-.7-1.3-1.2-1.7-2.1c-.4-.9-.5-1.8-.5-2.7,0-1.5.5-2.8,1.4-3.8s2.1-1.5,3.5-1.5h-.1ZM465,272.9h5.9c0-.8-.4-1.5-.9-2.1-.6-.6-1.2-.8-2.1-.8s-1.4.3-2,.8-.9,1.2-.9,2.1Z"/>
  <path class="cls-2" d="M335.9,403.9h192.5v51.2h-192.5v-51.2h0Z"/>
  <path class="cls-6" d="M360.2,423.8l4.5,11.4h-1.7l-1.2-3.4h-4.8l-1.3,3.4h-1.6l4.5-11.4h1.7-.1ZM359.3,425.2l-1.9,5.3h3.9l-1.9-5.3h-.1ZM366.9,426.9v5.6c0,.5.1.9.4,1.2.3.3.7.5,1.2.5.8,0,1.4-.2,1.8-.7s.6-1.1.6-1.8v-4.7h1.4v8.3h-1.3v-1.3h0c-.3.5-.7.9-1.1,1.2-.4.2-1,.4-1.5.4-1,0-1.7-.2-2.2-.8-.5-.5-.7-1.2-.7-2.2v-5.5h1.4v-.2ZM377.3,423.7h.9v1.2h-.8c-.4,0-.6,0-.8.2-.2.2-.2.4-.2.7v1.2h1.6v1.2h-1.6v7.1h-1.4v-7.1h-1.4v-1.2h1.4v-1.3c0-.6.2-1.1.6-1.5s1-.5,1.7-.5h0ZM379.9,426.9l1.9,6.8h0l1.7-6.8h1.5l1.7,6.7h0l1.9-6.8h1.4l-2.6,8.2h-1.4l-1.7-6.5h0l-1.7,6.6h-1.5l-2.7-8.3h1.5ZM394.8,426.7c1.2,0,2.1.4,2.8,1.3.7.9,1,2,1,3.3v.2h-6.2c0,.9.2,1.5.7,2s1.1.7,1.9.7,1.1-.1,1.4-.4c.4-.3.6-.7.7-1.2h1.3c-.2.9-.6,1.6-1.2,2.1s-1.4.7-2.3.7-1.6-.2-2.2-.6-1.1-.9-1.3-1.6c-.3-.7-.4-1.4-.4-2.2,0-1.2.4-2.2,1.1-3s1.7-1.2,2.8-1.2h0ZM392.3,430.3h4.8c0-.7-.3-1.2-.7-1.7-.4-.4-1-.7-1.7-.7s-1.2.2-1.6.6-.7,1-.8,1.7h0ZM404,426.7h.2v1.4c-1,0-1.8.3-2.3.8s-.7,1.4-.7,2.5v3.7h-1.4v-8.3h1.3v1.8h0c.3-.7.7-1.1,1.2-1.5.5-.3,1-.5,1.7-.5h0ZM407.2,424.5v2.5h1.6v1.2h-1.6v5.2c0,.4.1.6.4.7h1.3v1.2h-1.1c-.7,0-1.2-.1-1.5-.4s-.4-.7-.4-1.3v-5.3h-1.4v-1.2h1.4v-2.5h1.4,0ZM411.7,426.9v5.6c0,.5.1.9.4,1.2.3.3.7.5,1.2.5.8,0,1.4-.2,1.8-.7s.6-1.1.6-1.8v-4.7h1.4v8.3h-1.3v-1.3h0c-.3.5-.7.9-1.1,1.2-.4.2-1,.4-1.5.4-1,0-1.7-.2-2.2-.8-.5-.5-.7-1.2-.7-2.2v-5.5h1.4v-.2ZM423.3,426.7c1,0,1.7.3,2.2.8.4.5.7,1.2.7,2.2v5.5h-1.4v-5.7c0-.5-.2-.9-.5-1.2-.3-.3-.7-.5-1.2-.5-.8,0-1.4.2-1.8.7s-.6,1.1-.6,1.8v4.7h-1.4v-8.3h1.3v1.3h0c.3-.5.7-.9,1.1-1.1s1-.4,1.6-.4v.2ZM431.5,426.7c.6,0,1.1.1,1.5.4.4.2.8.6,1,1h0v-1.2h1.3v7.7c0,1.3-.3,2.3-.9,3s-1.6,1-2.9,1-1.7-.2-2.4-.6c-.6-.4-1-1-1-1.8h1.4c0,.4.2.7.7,1,.4.2.9.4,1.5.4s1.4-.3,1.8-.8.6-1.3.6-2.4v-.5h0c-.2.5-.6.8-1,1.1-.5.3-1,.4-1.6.4-1.1,0-2-.4-2.7-1.2-.7-.8-1-1.8-1-3s.3-2.3,1-3.1c.7-.8,1.6-1.2,2.8-1.2v-.2ZM429.1,430.9c0,1,.2,1.8.6,2.3.4.6,1,.8,1.7.8s1.3-.3,1.8-.9c.4-.6.7-1.4.7-2.3s-.2-1.6-.6-2.1-1-.8-1.7-.8-1.4.3-1.8.8-.6,1.3-.6,2.2h-.1ZM443.6,423.8v11.4h-1.5v-11.4h1.5ZM449.9,426.7c.6,0,1.1.1,1.5.4.4.2.7.6.8,1,.3-.4.6-.8,1.1-1s1-.4,1.5-.4c.9,0,1.6.2,2.1.6.4.4.7,1,.7,1.7v6.1h-1.4v-5.5c0-.6-.1-1-.4-1.3s-.7-.5-1.2-.5-1.2.2-1.6.6-.6.9-.6,1.5v5.2h-1.4v-5.5c0-.6-.1-1-.4-1.3s-.6-.5-1.2-.5-.8.1-1.1.3c-.3.2-.6.5-.8.9-.2.4-.3.7-.3.9v5.2h-1.4v-8.3h1.3v1.2h0c.3-.5.7-.8,1.1-1s1-.4,1.5-.4h.2ZM463.6,426.7c.6,0,1.1.1,1.5.4.4.2.7.6.8,1,.3-.4.6-.8,1.1-1s1-.4,1.5-.4c.9,0,1.6.2,2.1.6.4.4.7,1,.7,1.7v6.1h-1.4v-5.5c0-.6-.1-1-.4-1.3s-.7-.5-1.2-.5-1.2.2-1.6.6-.6.9-.6,1.5v5.2h-1.4v-5.5c0-.6-.1-1-.4-1.3s-.6-.5-1.2-.5-.8.1-1.1.3c-.3.2-.6.5-.8.9-.2.4-.3.7-.3.9v5.2h-1.4v-8.3h1.3v1.2h0c.3-.5.7-.8,1.1-1s1-.4,1.5-.4h.2ZM476.8,426.7c1.2,0,2.2.4,2.9,1.2.7.8,1.1,1.8,1.1,3.1s-.4,2.3-1.1,3.1c-.7.8-1.7,1.2-2.9,1.2s-2.2-.4-2.9-1.2c-.7-.8-1.1-1.8-1.1-3.2s.4-2.4,1.1-3.2c.7-.8,1.7-1.2,2.9-1.2v.2ZM474.2,431.1c0,.9.2,1.7.7,2.3.5.6,1.1.8,1.9.8s1.4-.3,1.8-.8c.5-.6.7-1.3.7-2.3s-.2-1.7-.7-2.3c-.5-.6-1.1-.9-1.9-.9s-1.3.3-1.8.8c-.5.6-.7,1.3-.7,2.3h0ZM483.8,423.8v4.3h0c.2-.4.5-.8,1-1s1-.3,1.6-.3c1.2,0,2.1.4,2.8,1.2.7.8,1,1.9,1,3.1s-.3,2.3-1,3.1c-.7.8-1.6,1.2-2.8,1.2s-1-.1-1.5-.3c-.5-.2-.9-.5-1.2-1h0v1.1h-1.4v-11.4h1.5ZM483.8,431.1c0,1,.2,1.7.7,2.3.5.6,1.1.8,1.9.8s1.4-.3,1.8-.8c.4-.6.7-1.3.7-2.3s-.2-1.6-.7-2.2c-.4-.6-1.1-.9-1.9-.9s-1.4.3-1.9.9c-.4.6-.7,1.3-.7,2.2h.1ZM493.3,423.8v1.7h-1.4v-1.7h1.4ZM493.3,426.9v8.3h-1.4v-8.3h1.4ZM496.9,423.8v11.4h-1.4v-11.4h1.4ZM500.4,423.8v1.7h-1.4v-1.7h1.4ZM500.4,426.9v8.3h-1.4v-8.3h1.4ZM506,426.7c1.2,0,2.1.4,2.8,1.3.7.9,1,2,1,3.3v.2h-6.2c0,.9.2,1.5.7,2s1.1.7,1.9.7,1.1-.1,1.4-.4c.4-.3.6-.7.7-1.2h1.3c-.2.9-.6,1.6-1.2,2.1s-1.4.7-2.3.7-1.6-.2-2.2-.6-1.1-.9-1.3-1.6c-.3-.7-.4-1.4-.4-2.2,0-1.2.4-2.2,1.1-3s1.7-1.2,2.8-1.2h0ZM503.5,430.3h4.8c0-.7-.3-1.2-.7-1.7-.4-.4-1-.7-1.7-.7s-1.2.2-1.6.6-.7,1-.8,1.7h0Z"/>
  <path class="cls-2" d="M323.7,487.9h217v51.2h-217v-51.2h0Z"/>
  <path class="cls-6" d="M382.7,498.2l3.6,9.6,3.6-9.6h2.1v11.4h-1.4v-9.5h0l-3.6,9.5h-1.3l-3.6-9.5h0v9.5h-1.4v-11.4h2.1-.1ZM397.8,501.1c1.2,0,2.1.4,2.8,1.3.7.9,1,2,1,3.3v.2h-6.2c0,.9.2,1.5.7,2s1.1.7,1.9.7,1.1-.1,1.4-.4c.4-.3.6-.7.7-1.2h1.3c-.2.9-.6,1.6-1.2,2.1s-1.4.7-2.3.7-1.6-.2-2.2-.6-1.1-.9-1.3-1.6c-.3-.7-.4-1.4-.4-2.2,0-1.2.4-2.2,1.1-3s1.7-1.2,2.8-1.2h0ZM395.3,504.7h4.8c0-.7-.3-1.2-.7-1.7-.4-.4-1-.7-1.7-.7s-1.2.2-1.6.6-.7,1-.8,1.7h0ZM404.3,498.2v4.4h0c.2-.4.5-.8,1-1,.5-.3,1-.4,1.6-.4,1,0,1.7.3,2.2.8.4.5.7,1.2.7,2.2v5.5h-1.4v-5.7c0-.5-.2-.9-.5-1.2-.3-.3-.7-.5-1.2-.5-.8,0-1.4.2-1.8.7s-.6,1.1-.6,1.8v4.7h-1.4v-11.4h1.4,0ZM416,501.1h.1v1.4c-1,0-1.8.3-2.3.8s-.7,1.4-.7,2.5v3.7h-1.4v-8.3h1.3v1.8h0c.3-.7.7-1.1,1.2-1.5.5-.3,1-.5,1.7-.5h0ZM424.9,501.1c.5,0,1.1.1,1.5.3.5.2.9.5,1.1,1h0v-1.1h1.4v11.5h-1.4v-4.3h0c-.2.4-.6.8-1,1-.5.2-1,.3-1.6.3-1.2,0-2.1-.4-2.8-1.2-.7-.8-1-1.9-1-3.2s.3-2.3,1-3.1c.7-.8,1.6-1.2,2.8-1.2h0ZM422.6,505.5c0,.9.2,1.6.7,2.2s1.1.9,1.9.9,1.4-.3,1.9-.9c.4-.6.7-1.3.7-2.2s-.2-1.7-.7-2.3c-.4-.6-1.1-.9-1.9-.9s-1.4.3-1.8.9-.6,1.3-.6,2.3h-.2ZM432.5,501.3v5.6c0,.5.1.9.4,1.2.3.3.7.5,1.2.5.8,0,1.4-.2,1.8-.7s.6-1.1.6-1.8v-4.7h1.4v8.3h-1.3v-1.3h0c-.3.5-.7.9-1.1,1.2-.4.2-1,.4-1.5.4-1,0-1.7-.3-2.2-.8s-.7-1.2-.7-2.2v-5.5h1.4v-.2ZM443.4,501.1c1.1,0,1.9.2,2.4.6s.7.9.7,1.6v4.8c0,.3.1.5.4.5h.4v1.1c-.1,0-.3.1-.4.2h-.5c-.4,0-.7-.1-.9-.3s-.3-.5-.3-1c-.4.4-.8.7-1.3,1-.5.2-1,.3-1.6.3-.9,0-1.5-.2-2-.6s-.7-1-.7-1.7.2-1.3.7-1.8c.5-.4,1.6-.8,3.4-1,.6,0,1-.2,1.2-.3.2-.2.3-.4.3-.7,0-.5-.1-.8-.4-1s-.8-.3-1.4-.3-1.2.1-1.5.4c-.3.2-.5.6-.5,1.2h-1.4c0-.9.4-1.6,1-2.1s1.4-.7,2.5-.7v-.2ZM441,507.4c0,.4.1.7.4.9.3.2.7.3,1.2.3.8,0,1.4-.2,1.8-.6.5-.4.7-.8.7-1.3v-1.4c-.2.2-.5.3-.9.3s-.8.1-1.5.2c-.6,0-1.1.2-1.3.5-.3.2-.4.6-.4,1h0ZM450,498.2v11.4h-1.4v-11.4h1.4ZM453.6,498.2v1.7h-1.4v-1.7h1.4ZM453.6,501.3v8.3h-1.4v-8.3h1.4ZM457.6,498.9v2.5h1.6v1.2h-1.6v5.2c0,.4.1.6.4.7h1.3v1.2h-1.1c-.7,0-1.2-.1-1.5-.4-.2-.3-.4-.7-.4-1.3v-5.3h-1.4v-1.2h1.4v-2.5h1.4,0ZM464.1,501.1c1.1,0,1.9.2,2.4.6s.7.9.7,1.6v4.8c0,.3.1.5.4.5h.4v1.1c-.1,0-.3.1-.4.2h-.5c-.4,0-.7-.1-.9-.3s-.3-.5-.3-1c-.4.4-.8.7-1.3,1-.5.2-1,.3-1.6.3-.9,0-1.5-.2-2-.6s-.7-1-.7-1.7.2-1.3.7-1.8c.5-.4,1.6-.8,3.4-1,.6,0,1-.2,1.2-.3.2-.2.3-.4.3-.7,0-.5-.1-.8-.4-1s-.8-.3-1.4-.3-1.2.1-1.5.4c-.3.2-.5.6-.5,1.2h-1.4c0-.9.4-1.6,1-2.1s1.4-.7,2.5-.7v-.2ZM461.7,507.4c0,.4.1.7.4.9.3.2.7.3,1.2.3.8,0,1.4-.2,1.8-.6.5-.4.7-.8.7-1.3v-1.4c-.2.2-.5.3-.9.3s-.8.1-1.5.2c-.6,0-1.1.2-1.3.5-.3.2-.4.6-.4,1h0ZM471.2,498.9v2.5h1.6v1.2h-1.6v5.2c0,.4.1.6.4.7h1.3v1.2h-1.1c-.7,0-1.2-.1-1.5-.4-.2-.3-.4-.7-.4-1.3v-5.3h-1.4v-1.2h1.4v-2.5h1.4,0ZM475.8,498.2v1.7h-1.4v-1.7h1.4ZM475.8,501.3v8.3h-1.4v-8.3h1.4ZM478.6,501.3l2.3,6.9h0l2.3-6.9h1.4l-3,8.3h-1.5l-3.1-8.3h1.6Z"/>
  <path class="cls-6" d="M346.9,517.4v4.4h0c.2-.4.5-.8,1-1s1-.4,1.6-.4c1,0,1.7.3,2.2.8.4.5.7,1.2.7,2.2v5.5h-1.4v-5.7c0-.5-.2-.9-.5-1.2s-.7-.5-1.2-.5c-.8,0-1.4.2-1.8.7s-.6,1.1-.6,1.8v4.7h-1.4v-11.4h1.4,0ZM358,520.3c1.2,0,2.2.4,2.9,1.2.7.8,1.1,1.8,1.1,3.1s-.4,2.3-1.1,3.1-1.7,1.2-2.9,1.2-2.2-.4-2.9-1.2c-.7-.8-1.1-1.8-1.1-3.2s.4-2.4,1.1-3.2,1.7-1.2,2.9-1.2v.2ZM355.4,524.7c0,.9.2,1.7.7,2.3s1.1.8,1.9.8,1.4-.3,1.8-.8c.5-.6.7-1.3.7-2.3s-.2-1.7-.7-2.3-1.1-.9-1.9-.9-1.3.3-1.8.8c-.5.6-.7,1.3-.7,2.3h0ZM367,520.3c1,0,1.8.2,2.5.7.6.5,1,1.2,1.1,2.1h-1.4c-.1-.5-.3-.9-.7-1.2-.4-.3-.8-.4-1.3-.4-.8,0-1.5.3-1.9.8s-.7,1.4-.7,2.4.2,1.7.6,2.2,1,.8,1.8.8,1.2-.2,1.6-.5c.4-.4.6-.8.7-1.5h1.4c-.1,1-.5,1.8-1.2,2.4s-1.5.8-2.5.8-2.2-.4-2.8-1.1-1-1.8-1-3.1.3-2.4,1-3.2,1.7-1.2,2.9-1.2h-.1ZM373.5,517.4v4.4h0c.2-.4.5-.8,1-1s1-.4,1.6-.4c1,0,1.7.3,2.2.8.4.5.7,1.2.7,2.2v5.5h-1.4v-5.7c0-.5-.2-.9-.5-1.2s-.7-.5-1.2-.5c-.8,0-1.4.2-1.8.7s-.6,1.1-.6,1.8v4.7h-1.4v-11.4h1.4,0ZM381.8,520.5l1.9,6.8h0l1.7-6.8h1.5l1.7,6.7h0l1.9-6.8h1.4l-2.6,8.2h-1.4l-1.7-6.5h0l-1.7,6.6h-1.5l-2.7-8.3h1.5ZM396.6,520.3c1.2,0,2.1.4,2.8,1.3s1,2,1,3.3v.2h-6.2c0,.9.2,1.5.7,2s1.1.7,1.9.7,1.1,0,1.4-.4c.4-.3.6-.7.7-1.2h1.3c-.2.9-.6,1.6-1.2,2.1s-1.4.7-2.3.7-1.6-.2-2.2-.6c-.6-.4-1.1-.9-1.3-1.6-.3-.7-.4-1.4-.4-2.2,0-1.2.4-2.2,1.1-3s1.7-1.2,2.8-1.2h0ZM394.2,523.9h4.8c0-.7-.3-1.2-.7-1.7-.4-.4-1-.7-1.7-.7s-1.2.2-1.6.6c-.4.4-.7,1-.8,1.7h0ZM405.9,520.3h.2v1.4c-1,0-1.8.3-2.3.8s-.7,1.4-.7,2.5v3.7h-1.4v-8.3h1.3v1.8h0c.3-.7.7-1.1,1.2-1.5.5-.3,1-.5,1.7-.5h0ZM409.1,518.1v2.5h1.6v1.2h-1.6v5.2c0,.4.1.6.4.7h1.3v1.2h-1.1c-.7,0-1.2,0-1.5-.4-.2-.3-.4-.7-.4-1.3v-5.3h-1.4v-1.2h1.4v-2.5h1.4,0ZM413.7,517.4v1.7h-1.4v-1.7h1.4ZM413.7,520.5v8.3h-1.4v-8.3h1.4ZM419.2,520.3c.6,0,1.1,0,1.5.4.4.2.8.6,1,1h0v-1.2h1.3v7.7c0,1.3-.3,2.3-.9,3s-1.6,1-2.9,1-1.7-.2-2.4-.6c-.6-.4-1-1-1-1.8h1.4c0,.4.2.7.7,1,.4.2.9.4,1.5.4s1.4-.3,1.8-.8.6-1.3.6-2.4v-.5h0c-.2.5-.6.8-1,1.1-.5.3-1,.4-1.6.4-1.1,0-2-.4-2.7-1.2s-1-1.8-1-3,.3-2.3,1-3.1,1.6-1.2,2.8-1.2v-.2ZM416.8,524.5c0,1,.2,1.8.6,2.3.4.6,1,.8,1.7.8s1.3-.3,1.8-.9c.4-.6.7-1.4.7-2.3s-.2-1.6-.6-2.1-1-.8-1.7-.8-1.4.3-1.8.8-.6,1.3-.6,2.2h-.1ZM428.4,520.3c1.2,0,2.1.4,2.8,1.3s1,2,1,3.3v.2h-6.2c0,.9.2,1.5.7,2s1.1.7,1.9.7,1.1,0,1.4-.4c.4-.3.6-.7.7-1.2h1.3c-.2.9-.6,1.6-1.2,2.1s-1.4.7-2.3.7-1.6-.2-2.2-.6c-.6-.4-1.1-.9-1.3-1.6-.3-.7-.4-1.4-.4-2.2,0-1.2.4-2.2,1.1-3s1.7-1.2,2.8-1.2h0ZM426,523.9h4.8c0-.7-.3-1.2-.7-1.7-.4-.4-1-.7-1.7-.7s-1.2.2-1.6.6c-.4.4-.7,1-.8,1.7h0ZM437.7,520.3h.2v1.4c-1,0-1.8.3-2.3.8s-.7,1.4-.7,2.5v3.7h-1.4v-8.3h1.3v1.8h0c.3-.7.7-1.1,1.2-1.5.5-.3,1-.5,1.7-.5h0ZM444.1,517.4l2.2,9.5h0l2.6-9.5h1.7l2.5,9.5h0l2.3-9.5h1.5l-3,11.4h-1.6l-2.6-9.6h0l-2.6,9.6h-1.6l-2.9-11.4h1.5ZM461.3,520.3c1.2,0,2.2.4,2.9,1.2.7.8,1.1,1.8,1.1,3.1s-.4,2.3-1.1,3.1-1.7,1.2-2.9,1.2-2.2-.4-2.9-1.2c-.7-.8-1.1-1.8-1.1-3.2s.4-2.4,1.1-3.2,1.7-1.2,2.9-1.2v.2ZM458.8,524.7c0,.9.2,1.7.7,2.3s1.1.8,1.9.8,1.4-.3,1.8-.8c.5-.6.7-1.3.7-2.3s-.2-1.7-.7-2.3-1.1-.9-1.9-.9-1.3.3-1.8.8c-.5.6-.7,1.3-.7,2.3h0ZM468.3,517.4v4.4h0c.2-.4.5-.8,1-1s1-.4,1.6-.4c1,0,1.7.3,2.2.8.4.5.7,1.2.7,2.2v5.5h-1.4v-5.7c0-.5-.2-.9-.5-1.2s-.7-.5-1.2-.5c-.8,0-1.4.2-1.8.7s-.6,1.1-.6,1.8v4.7h-1.4v-11.4h1.4,0ZM479.9,520.3c1,0,1.7.3,2.2.8.4.5.7,1.2.7,2.2v5.5h-1.4v-5.7c0-.5-.2-.9-.5-1.2s-.7-.5-1.2-.5c-.8,0-1.4.2-1.8.7s-.6,1.1-.6,1.8v4.7h-1.4v-8.3h1.3v1.3h0c.3-.5.7-.9,1.1-1.1.4-.2,1-.4,1.6-.4v.2ZM488.9,520.3h.2v1.4c-1,0-1.8.3-2.3.8s-.7,1.4-.7,2.5v3.7h-1.4v-8.3h1.3v1.8h0c.3-.7.7-1.1,1.2-1.5.5-.3,1-.5,1.7-.5h0ZM493.1,520.3c1.1,0,1.9.2,2.4.6.5.4.7.9.7,1.6v4.8c0,.3.1.5.4.5s.1,0,.2,0h.2v1.1c-.1,0-.3,0-.4.2h-.5c-.4,0-.7,0-.9-.3-.2-.2-.3-.5-.3-1-.4.4-.8.8-1.3,1s-1,.3-1.6.3-1.5-.2-2-.6c-.5-.4-.7-1-.7-1.7s.2-1.3.7-1.8c.5-.4,1.6-.8,3.4-1,.6,0,1-.2,1.2-.3.2-.2.3-.4.3-.7,0-.5-.1-.8-.4-1s-.8-.3-1.4-.3-1.2,0-1.5.4c-.3.2-.5.6-.5,1.2h-1.4c0-.9.4-1.6,1-2.1s1.4-.7,2.5-.7v-.2ZM490.7,526.6c0,.4.1.7.4.9s.7.3,1.2.3c.8,0,1.4-.2,1.8-.6.5-.4.7-.8.7-1.3v-1.4c-.2.2-.5.3-.9.3s-.8,0-1.5.2c-.6,0-1.1.2-1.3.5-.3.2-.4.6-.4,1h0ZM499.7,520.5v5.6c0,.5.1.9.4,1.2s.7.5,1.2.5c.8,0,1.4-.2,1.8-.7s.6-1.1.6-1.8v-4.7h1.4v8.3h-1.3v-1.3h0c-.3.5-.7.9-1.1,1.2-.4.2-1,.4-1.5.4-1,0-1.7-.2-2.2-.8-.5-.5-.7-1.2-.7-2.2v-5.5h1.4v-.2ZM511.2,520.3c.6,0,1.1,0,1.5.4.4.2.7.6.8,1,.3-.4.6-.8,1.1-1s1-.4,1.5-.4c.9,0,1.6.2,2.1.6.4.4.7,1,.7,1.7v6.1h-1.4v-5.5c0-.6,0-1-.4-1.3-.2-.3-.7-.5-1.2-.5s-1.2.2-1.6.6-.6.9-.6,1.5v5.2h-1.4v-5.5c0-.6,0-1-.4-1.3-.2-.3-.6-.5-1.2-.5s-.8,0-1.1.3c-.3.2-.6.5-.8.9-.2.4-.3.7-.3.9v5.2h-1.4v-8.3h1.3v1.2h0c.3-.5.7-.8,1.1-1s1-.4,1.5-.4h.2Z"/>
  <path class="cls-5" d="M58.2,247.9h0c0-63.9,51.8-115.7,115.7-115.7h0c30.7,0,60.1,12.2,81.8,33.9s33.9,51.1,33.9,81.8h0c0,63.9-51.8,115.7-115.7,115.7h0c-63.9,0-115.7-51.8-115.7-115.7h0Z"/>
  <path class="cls-2" d="M58.2,191.8h231.4v112.1H58.2v-112.1h0Z"/>
  <path class="cls-3" d="M159.6,216.8c1.3,0,2.4.4,3.1,1.1.8.7,1.2,1.8,1.2,3.2s-.4,2.5-1.2,3.2-1.8,1-3,1h-4.6v5.8h-1.9v-14.3h6.4ZM159.1,223.6c.9,0,1.6-.2,2.1-.6.5-.4.8-1.1.8-2s-.3-1.5-.8-2c-.5-.4-1.3-.7-2.3-.7h-3.8v5.2h4ZM172.6,216.8c1.3,0,2.4.4,3.1,1.1.8.7,1.2,1.8,1.2,3.2s-.4,2.5-1.2,3.2-1.8,1-3,1h-4.6v5.8h-1.9v-14.3h6.4ZM172.1,223.6c.9,0,1.6-.2,2.1-.6.5-.4.8-1.1.8-2s-.3-1.5-.8-2c-.5-.4-1.3-.7-2.3-.7h-3.8v5.2h4ZM185.5,216.8c1.3,0,2.4.4,3.1,1.1.8.7,1.2,1.8,1.2,3.2s-.4,2.5-1.2,3.2-1.8,1-3,1h-4.6v5.8h-1.9v-14.3h6.4ZM185,223.6c.9,0,1.6-.2,2.1-.6.5-.4.8-1.1.8-2s-.3-1.5-.8-2c-.5-.4-1.3-.7-2.3-.7h-3.8v5.2h4ZM194.5,220.7v2.2h-2.2v-2.2h2.2ZM194.5,228.9v2.2h-2.2v-2.2h2.2Z"/>
  <path class="cls-3" d="M119.8,240.8c1.3,0,2.4.4,3.1,1.1.8.7,1.2,1.8,1.2,3.2s-.4,2.5-1.2,3.2c-.8.7-1.8,1-3,1h-4.6v5.8h-1.9v-14.3h6.4ZM119.2,247.6c.9,0,1.6-.2,2.1-.6.5-.4.8-1.1.8-2s-.3-1.5-.8-2c-.5-.4-1.3-.7-2.3-.7h-3.8v5.2h4ZM130.8,244.5h.2v1.8c-1.3,0-2.2.3-2.8,1-.6.7-.9,1.7-.9,3.1v4.6h-1.7v-10.3h1.6v2.2h0c.4-.8.9-1.4,1.5-1.8.6-.4,1.3-.6,2.1-.6h0ZM134.2,240.8v2.1h-1.7v-2.1h1.7ZM134.2,244.7v10.3h-1.7v-10.3h1.7ZM137.7,244.7l2.9,8.6h0l2.8-8.6h1.8l-3.8,10.3h-1.8l-3.8-10.3h1.9ZM151,244.5c1.4,0,2.4.2,3,.8.6.5.9,1.2.9,2v6c0,.4.2.6.5.6s.2,0,.2,0h.3v1.3c-.2,0-.3.2-.5.2h-.7c-.5,0-.8-.1-1.1-.4-.2-.3-.4-.7-.4-1.2-.4.5-1,.9-1.6,1.2s-1.3.4-2,.4-1.9-.2-2.5-.8c-.6-.5-.9-1.2-.9-2.2s.3-1.7.9-2.2c.6-.6,2-1,4.2-1.2.7,0,1.2-.2,1.5-.4s.4-.5.4-.9c0-.6-.2-1-.6-1.3-.4-.3-.9-.4-1.8-.4s-1.5.2-1.9.5-.6.8-.7,1.5h-1.7c0-1.1.5-2,1.2-2.6.8-.6,1.8-.9,3.2-.9h.1ZM148,252.3c0,.5.2.9.5,1.1.4.3.8.4,1.5.4,1,0,1.7-.2,2.3-.7s.9-1,.9-1.6v-1.8c-.3.2-.7.3-1.1.4-.5,0-1.1.2-1.8.3-.8.1-1.3.3-1.7.6s-.5.7-.5,1.3h0ZM159.9,241.6v3.1h2.1v1.5h-2.1v6.5c0,.5.2.8.5.8h1.6v1.5h-1.4c-.9,0-1.6-.2-1.9-.5-.3-.3-.5-.9-.5-1.7v-6.7h-1.8v-1.5h1.8v-3.1h1.7,0ZM167.9,244.5c1.5,0,2.6.5,3.5,1.6.8,1.1,1.2,2.4,1.2,4.1v.2h-7.8c0,1.1.3,1.9.9,2.5.6.6,1.4.9,2.4.9s1.3-.2,1.8-.5c.4-.4.7-.9.9-1.5h1.7c-.2,1.1-.7,2-1.5,2.6s-1.7.9-2.9.9-2-.2-2.8-.7-1.3-1.2-1.7-2.1c-.4-.9-.5-1.8-.5-2.7,0-1.5.5-2.8,1.4-3.8s2.1-1.5,3.5-1.5h0ZM164.8,248.9h5.9c0-.8-.4-1.5-.9-2.1-.6-.6-1.2-.8-2.1-.8s-1.4.3-2,.8-.9,1.2-.9,2.1ZM179.8,248.7v1.6h-5.8v-1.6h5.8ZM188.7,240.8c1.3,0,2.4.4,3.1,1.1.8.7,1.2,1.8,1.2,3.2s-.4,2.5-1.2,3.2-1.8,1-3,1h-4.6v5.8h-1.9v-14.3h6.4ZM188.2,247.6c.9,0,1.6-.2,2.1-.6.5-.4.8-1.1.8-2s-.3-1.5-.8-2c-.5-.4-1.3-.7-2.3-.7h-3.8v5.2h4ZM196.4,244.7v7c0,.6.2,1.1.6,1.5.4.4.9.6,1.5.6,1,0,1.7-.3,2.2-.9s.8-1.4.8-2.3v-5.9h1.7v10.3h-1.6v-1.6h0c-.4.7-.8,1.1-1.4,1.4-.6.3-1.2.5-2,.5-1.2,0-2.1-.3-2.7-.9s-.9-1.5-.9-2.8v-6.9h1.8ZM207.6,240.8v5.3h0c.3-.5.7-.9,1.2-1.2.6-.3,1.3-.4,2-.4,1.5,0,2.6.5,3.5,1.5s1.3,2.3,1.3,3.9-.4,2.9-1.3,3.9c-.8,1-2,1.5-3.5,1.5s-1.3-.1-1.9-.4c-.6-.3-1.1-.7-1.5-1.2h0v1.4h-1.7v-14.3h1.9ZM207.5,249.9c0,1.2.3,2.2.9,2.9.6.7,1.4,1,2.4,1s1.8-.3,2.3-1,.8-1.7.8-2.9-.3-2-.9-2.8c-.6-.7-1.4-1.1-2.4-1.1s-1.8.4-2.3,1.1c-.5.7-.8,1.7-.8,2.8ZM219.5,240.8v14.3h-1.7v-14.3h1.7ZM223.9,240.8v2.1h-1.7v-2.1h1.7ZM223.9,244.7v10.3h-1.7v-10.3h1.7ZM230.9,244.5c1.3,0,2.3.3,3.1.9.8.6,1.3,1.5,1.4,2.7h-1.8c-.1-.7-.4-1.2-.9-1.5-.4-.4-1-.5-1.7-.5-1.1,0-1.9.4-2.4,1.1-.5.7-.8,1.7-.8,3s.3,2.1.8,2.8,1.3,1,2.2,1,1.5-.2,2-.7c.5-.4.8-1.1.9-1.9h1.8c-.2,1.3-.7,2.3-1.5,3s-1.8,1-3.1,1-2.7-.5-3.6-1.4c-.9-.9-1.3-2.2-1.3-3.9s.4-3,1.3-4c.9-1,2.1-1.5,3.6-1.5h0Z"/>
  <path class="cls-3" d="M130.8,264.8c1.3,0,2.4.4,3.1,1.1.8.7,1.2,1.8,1.2,3.2s-.4,2.5-1.2,3.2-1.8,1-3,1h-4.6v5.8h-1.9v-14.3h6.4ZM130.3,271.6c.9,0,1.6-.2,2.1-.6s.8-1.1.8-2-.3-1.5-.8-2c-.5-.4-1.3-.7-2.3-.7h-3.8v5.2h4ZM140.8,268.5c1.4,0,2.4.2,3,.8.6.5.9,1.2.9,2v6c0,.4.2.6.5.6s.2,0,.2,0h.3v1.3c-.2,0-.3.2-.5.2h-.7c-.5,0-.8-.1-1.1-.4-.2-.3-.4-.7-.4-1.2-.4.5-1,.9-1.6,1.2-.6.3-1.3.4-2,.4s-1.9-.2-2.5-.8c-.6-.5-.9-1.2-.9-2.2s.3-1.7.9-2.2c.6-.6,2-1,4.2-1.2.7,0,1.2-.2,1.5-.4.3-.2.4-.5.4-.9,0-.6-.2-1-.6-1.3-.4-.3-.9-.4-1.8-.4s-1.5.2-1.9.5-.6.8-.7,1.5h-1.7c0-1.1.5-2,1.2-2.6.8-.6,1.8-.9,3.2-.9h.1ZM137.8,276.3c0,.5.2.9.5,1.1.4.3.8.4,1.5.4,1,0,1.7-.2,2.3-.7s.9-1,.9-1.6v-1.8c-.3.2-.7.3-1.1.4s-1.1.2-1.8.3c-.8.1-1.3.3-1.7.6-.4.3-.5.7-.5,1.3h0ZM152.4,268.5h.2v1.8c-1.3,0-2.2.3-2.8,1s-.9,1.7-.9,3.1v4.6h-1.7v-10.3h1.6v2.2h0c.4-.8.9-1.4,1.5-1.8s1.3-.6,2.1-.6h0ZM156.4,265.6v3.1h2.1v1.5h-2.1v6.5c0,.5.2.8.5.8h1.6v1.5h-1.4c-.9,0-1.6-.2-1.9-.5s-.5-.9-.5-1.7v-6.7h-1.8v-1.5h1.8v-3.1h1.7,0ZM165.3,268.5c1.2,0,2.1.3,2.7,1,.6.6.8,1.5.8,2.7v6.9h-1.7v-7.1c0-.6-.2-1.1-.6-1.4-.4-.4-.9-.6-1.5-.6-1,0-1.7.3-2.2.9s-.8,1.3-.8,2.3v5.9h-1.7v-10.3h1.6v1.6h0c.4-.6.8-1.1,1.4-1.4s1.2-.5,2-.5ZM175.7,268.5c1.5,0,2.6.5,3.5,1.6.8,1.1,1.2,2.4,1.2,4.1v.2h-7.8c0,1.1.3,1.9.9,2.5.6.6,1.4.9,2.4.9s1.3-.2,1.8-.5c.4-.4.7-.9.9-1.5h1.7c-.2,1.1-.7,2-1.5,2.6s-1.7.9-2.9.9-2-.2-2.8-.7-1.3-1.2-1.7-2.1-.5-1.8-.5-2.7c0-1.5.5-2.8,1.4-3.8s2.1-1.5,3.5-1.5h0ZM172.7,272.9h5.9c0-.8-.4-1.5-.9-2.1-.6-.6-1.2-.8-2.1-.8s-1.4.3-2,.8-.9,1.2-.9,2.1ZM187.3,268.5h.2v1.8c-1.3,0-2.2.3-2.8,1s-.9,1.7-.9,3.1v4.6h-1.7v-10.3h1.6v2.2h0c.4-.8.9-1.4,1.5-1.8s1.3-.6,2.1-.6h0ZM192.3,268.5c1.4,0,2.4.3,3.1.8.7.5,1,1.3,1.1,2.4h-1.7c0-.6-.3-1-.7-1.3s-1-.5-1.7-.5-1.2.1-1.6.3c-.4.2-.6.6-.6,1s.2.7.5.9c.4.2.9.4,1.6.6l1.6.4c1,.2,1.8.6,2.3,1,.5.5.8,1.1.8,1.9s-.4,1.8-1.2,2.4-1.9.9-3.2.9-2.4-.3-3.2-.9-1.2-1.5-1.2-2.6h1.7c0,.6.3,1.1.8,1.5.5.3,1.2.5,2,.5s1.4-.1,1.9-.4c.4-.3.6-.6.6-1.1s-.2-.8-.6-1.1c-.4-.3-1.3-.5-2.6-.8-1.3-.2-2.2-.6-2.8-1.1-.5-.5-.8-1.1-.8-1.9s.4-1.6,1.1-2.1c.7-.5,1.7-.8,2.8-.8h0ZM200.5,264.8v5.5h0c.2-.6.7-1,1.3-1.3s1.3-.5,2-.5c1.2,0,2.1.3,2.7,1,.6.6.8,1.5.8,2.7v6.9h-1.7v-7.1c0-.6-.2-1.1-.6-1.4-.4-.4-.9-.6-1.5-.6-1,0-1.7.3-2.2.9s-.8,1.3-.8,2.3v5.9h-1.7v-14.3h1.7ZM211.8,264.8v2.1h-1.7v-2.1h1.7ZM211.8,268.7v10.3h-1.7v-10.3h1.7ZM219.5,268.5c1.5,0,2.6.5,3.5,1.5s1.3,2.3,1.3,3.9-.4,2.9-1.3,3.9c-.8,1-2,1.5-3.5,1.5s-1.3-.1-1.9-.4c-.6-.3-1.1-.7-1.5-1.2h0v5.3h-1.7v-14.3h1.7v1.4h0c.3-.5.7-.9,1.3-1.2.6-.3,1.2-.4,2-.4h0ZM216.1,273.9c0,1.2.3,2.2.9,2.9.6.7,1.4,1,2.4,1s1.8-.3,2.3-1,.8-1.7.8-2.9-.3-2-.9-2.8c-.6-.7-1.4-1.1-2.4-1.1s-1.8.4-2.3,1.1-.8,1.7-.8,2.8Z"/>
  <path class="cls-2" d="M77.7,403.9h192.5v51.2H77.7v-51.2Z"/>
  <path class="cls-3" d="M109.6,414.2v1.3l-7.1,8.9h7.3v1.3h-9.1v-1.3l7.1-8.9h-6.5v-1.3s8.3,0,8.3,0ZM112.3,417.3v5.6c0,.5,0,.9.4,1.2.3.3.7.5,1.2.5.8,0,1.4-.2,1.8-.7s.6-1.1.6-1.8v-4.7h1.4v8.3h-1.3v-1.3h0c-.3.5-.7.9-1.1,1.2-.4.2-1,.4-1.5.4-1,0-1.7-.2-2.2-.8-.5-.5-.7-1.2-.7-2.2v-5.5h1.4v-.2ZM122.6,417.1c1.1,0,1.9.2,2.5.7.5.4.8,1.1.9,1.9h-1.4c0-.5-.2-.8-.6-1-.3-.2-.8-.4-1.3-.4s-1,0-1.3.3c-.3.2-.5.4-.5.8s0,.6.4.8c.3.2.7.3,1.3.5l1.3.3c.8.2,1.4.5,1.8.8.4.4.6.9.6,1.5s-.3,1.5-1,1.9c-.6.5-1.5.7-2.6.7s-1.9-.2-2.5-.7-.9-1.2-1-2.1h1.4c0,.5.2.9.6,1.2.4.3.9.4,1.6.4s1.2-.1,1.5-.3c.3-.2.5-.5.5-.9s-.2-.7-.5-.9c-.3-.2-1-.4-2.1-.6-1-.2-1.8-.5-2.2-.9-.4-.4-.6-.9-.6-1.5s.3-1.3.9-1.7c.6-.4,1.3-.6,2.2-.6v-.2ZM131.2,417.1c1.1,0,1.9.2,2.4.6s.7.9.7,1.6v4.8c0,.3.1.5.4.5h.4v1.1c-.1,0-.3.1-.4.2h-.5c-.4,0-.7-.1-.9-.3-.2-.2-.3-.5-.3-1-.4.4-.8.8-1.3,1s-1,.3-1.6.3c-.9,0-1.5-.2-2-.6s-.7-1-.7-1.7.2-1.3.7-1.8c.5-.4,1.6-.8,3.4-1,.6,0,1-.2,1.2-.3.2-.2.3-.4.3-.7,0-.5-.1-.8-.4-1-.3-.2-.8-.3-1.4-.3s-1.2.1-1.5.4-.5.6-.5,1.2h-1.4c0-.9.4-1.6,1-2.1s1.4-.7,2.5-.7v-.2ZM128.8,423.4c0,.4.1.7.4.9.3.2.7.3,1.2.3.8,0,1.4-.2,1.8-.6.5-.4.7-.8.7-1.3v-1.4c-.2.2-.5.3-.9.3s-.8.1-1.5.2c-.6,0-1.1.2-1.3.5-.3.2-.4.6-.4,1h0ZM140.4,417.1c.6,0,1.1.1,1.5.4.4.2.7.6.8,1,.3-.4.6-.8,1.1-1s1-.4,1.5-.4c.9,0,1.6.2,2.1.6.4.4.7,1,.7,1.7v6.1h-1.4v-5.5c0-.6-.1-1-.4-1.3-.2-.3-.7-.5-1.2-.5s-1.2.2-1.6.6c-.4.4-.6.9-.6,1.5v5.2h-1.4v-5.5c0-.6-.1-1-.4-1.3-.2-.3-.6-.5-1.2-.5s-.8.1-1.1.3c-.3.2-.6.5-.8.9s-.3.7-.3.9v5.2h-1.4v-8.3h1.3v1.2h0c.3-.5.7-.8,1.1-1,.4-.2,1-.4,1.5-.4h.2ZM154,417.1c.6,0,1.1.1,1.5.4.4.2.7.6.8,1,.3-.4.6-.8,1.1-1s1-.4,1.5-.4c.9,0,1.6.2,2.1.6.4.4.7,1,.7,1.7v6.1h-1.4v-5.5c0-.6-.1-1-.4-1.3-.2-.3-.7-.5-1.2-.5s-1.2.2-1.6.6c-.4.4-.6.9-.6,1.5v5.2h-1.4v-5.5c0-.6-.1-1-.4-1.3-.2-.3-.6-.5-1.2-.5s-.8.1-1.1.3c-.3.2-.6.5-.8.9s-.3.7-.3.9v5.2h-1.4v-8.3h1.3v1.2h0c.3-.5.7-.8,1.1-1,.4-.2,1-.4,1.5-.4h.2ZM167.1,417.1c1.2,0,2.1.4,2.8,1.3s1,2,1,3.3v.2h-6.2c0,.9.2,1.5.7,2s1.1.7,1.9.7,1.1-.1,1.4-.4c.4-.3.6-.7.7-1.2h1.3c-.2.9-.6,1.6-1.2,2.1-.6.5-1.4.7-2.3.7s-1.6-.2-2.2-.6c-.6-.4-1.1-.9-1.3-1.6-.3-.7-.4-1.4-.4-2.2,0-1.2.4-2.2,1.1-3,.7-.8,1.7-1.2,2.8-1.2h-.1ZM164.7,420.7h4.8c0-.7-.3-1.2-.7-1.7-.4-.4-1-.7-1.7-.7s-1.2.2-1.6.6c-.4.4-.7,1-.8,1.7h0ZM176.3,417.1c1,0,1.7.3,2.2.8.4.5.7,1.2.7,2.2v5.5h-1.4v-5.7c0-.5-.2-.9-.5-1.2-.3-.3-.7-.5-1.2-.5-.8,0-1.4.2-1.8.7-.4.5-.6,1.1-.6,1.8v4.7h-1.4v-8.3h1.3v1.3h0c.3-.5.7-.9,1.1-1.1.4-.2,1-.4,1.6-.4v.2ZM184.6,417.1c1.1,0,1.9.2,2.4.6s.7.9.7,1.6v4.8c0,.3.1.5.4.5h.4v1.1c-.1,0-.3.1-.4.2h-.5c-.4,0-.7-.1-.9-.3-.2-.2-.3-.5-.3-1-.4.4-.8.8-1.3,1s-1,.3-1.6.3c-.9,0-1.5-.2-2-.6s-.7-1-.7-1.7.2-1.3.7-1.8c.5-.4,1.6-.8,3.4-1,.6,0,1-.2,1.2-.3.2-.2.3-.4.3-.7,0-.5-.1-.8-.4-1-.3-.2-.8-.3-1.4-.3s-1.2.1-1.5.4-.5.6-.5,1.2h-1.4c0-.9.4-1.6,1-2.1s1.4-.7,2.5-.7v-.2ZM182.2,423.4c0,.4.1.7.4.9.3.2.7.3,1.2.3.8,0,1.4-.2,1.8-.6.5-.4.7-.8.7-1.3v-1.4c-.2.2-.5.3-.9.3s-.8.1-1.5.2c-.6,0-1.1.2-1.3.5-.3.2-.4.6-.4,1h0ZM193.9,417.1h.1v1.4c-1,0-1.8.3-2.3.8s-.7,1.4-.7,2.5v3.7h-1.4v-8.3h1.3v1.8h0c.3-.7.7-1.1,1.2-1.5.5-.3,1-.5,1.7-.5h0ZM196.5,414.2v4.3h0c.2-.4.5-.7,1-1,.5-.2,1-.3,1.6-.3,1.2,0,2.1.4,2.8,1.2.7.8,1,1.9,1,3.1s-.3,2.3-1,3.1c-.7.8-1.6,1.2-2.8,1.2s-1-.1-1.5-.3c-.5-.2-.9-.5-1.2-1h0v1.1h-1.4v-11.4h1.5ZM196.5,421.5c0,1,.2,1.7.7,2.3.5.6,1.1.8,1.9.8s1.4-.3,1.8-.8c.4-.6.7-1.3.7-2.3s-.2-1.6-.7-2.2c-.4-.6-1.1-.9-1.9-.9s-1.4.3-1.9.9c-.4.6-.7,1.3-.7,2.2h0ZM208,417.1c1.2,0,2.1.4,2.8,1.3s1,2,1,3.3v.2h-6.2c0,.9.2,1.5.7,2s1.1.7,1.9.7,1.1-.1,1.4-.4c.4-.3.6-.7.7-1.2h1.3c-.2.9-.6,1.6-1.2,2.1-.6.5-1.4.7-2.3.7s-1.6-.2-2.2-.6c-.6-.4-1.1-.9-1.3-1.6-.3-.7-.4-1.4-.4-2.2,0-1.2.4-2.2,1.1-3,.7-.8,1.7-1.2,2.8-1.2h-.1ZM205.6,420.7h4.8c0-.7-.3-1.2-.7-1.7-.4-.4-1-.7-1.7-.7s-1.2.2-1.6.6c-.4.4-.7,1-.8,1.7h0ZM214.6,414.2v1.7h-1.4v-1.7h1.4ZM214.6,417.3v8.3h-1.4v-8.3h1.4ZM218.6,414.9v2.5h1.6v1.2h-1.6v5.2c0,.4.1.6.4.7h1.3v1.2h-1.1c-.7,0-1.2-.1-1.5-.4-.2-.3-.4-.7-.4-1.3v-5.3h-1.4v-1.2h1.4v-2.5h1.4,0ZM230.2,417.1c.6,0,1.1.1,1.5.4.4.2.7.6.8,1,.3-.4.6-.8,1.1-1s1-.4,1.5-.4c.9,0,1.6.2,2.1.6.4.4.7,1,.7,1.7v6.1h-1.4v-5.5c0-.6-.1-1-.4-1.3-.2-.3-.7-.5-1.2-.5s-1.2.2-1.6.6c-.4.4-.6.9-.6,1.5v5.2h-1.4v-5.5c0-.6-.1-1-.4-1.3-.2-.3-.6-.5-1.2-.5s-.8.1-1.1.3c-.3.2-.6.5-.8.9s-.3.7-.3.9v5.2h-1.4v-8.3h1.3v1.2h0c.3-.5.7-.8,1.1-1,.4-.2,1-.4,1.5-.4h.2ZM241.3,414.2v1.7h-1.4v-1.7h1.4ZM241.3,417.3v8.3h-1.4v-8.3h1.4ZM245.3,414.9v2.5h1.6v1.2h-1.6v5.2c0,.4.1.6.4.7h1.3v1.2h-1.1c-.7,0-1.2-.1-1.5-.4-.2-.3-.4-.7-.4-1.3v-5.3h-1.4v-1.2h1.4v-2.5h1.4,0Z"/>
  <path class="cls-3" d="M126.4,433.1c1.3,0,2.3.3,3,.9.8.6,1.1,1.5,1.2,2.7h-1.4c0-.8-.4-1.4-.8-1.8-.5-.4-1.1-.6-2-.6s-1.4.2-1.9.5c-.4.3-.7.8-.7,1.4s.2.8.6,1.1c.4.3,1.4.6,3.1.9,1.2.2,2.1.6,2.7,1.2.6.5.9,1.2.9,2.1s-.4,1.9-1.3,2.5c-.9.6-1.9.9-3.2.9s-2.5-.3-3.4-1-1.3-1.7-1.3-3h1.4c0,.9.3,1.6.9,2,.6.5,1.4.7,2.4.7s1.6-.2,2.1-.5c.5-.4.8-.9.8-1.5s-.2-1-.7-1.3-1.3-.6-2.5-.8c-1.6-.3-2.7-.7-3.3-1.2-.6-.5-.8-1.1-.8-1.9s.4-1.8,1.2-2.4c.8-.6,1.8-.9,3-.9h0ZM134.6,434.1v2.5h1.6v1.2h-1.6v5.2c0,.4.1.6.4.7h1.3v1.2h-1.1c-.7,0-1.2-.1-1.5-.4-.2-.3-.4-.7-.4-1.3v-5.3h-1.4v-1.2h1.4v-2.5h1.4,0ZM141.1,436.3c1.1,0,1.9.2,2.4.6s.7.9.7,1.6v4.8c0,.3.1.5.4.5s.1,0,.2,0h.2v1.1c-.1,0-.3.1-.4.2h-.5c-.4,0-.7-.1-.9-.3-.2-.2-.3-.5-.3-1-.4.4-.8.8-1.3,1s-1,.3-1.6.3-1.5-.2-2-.6-.7-1-.7-1.7.2-1.3.7-1.8c.5-.4,1.6-.8,3.4-1,.6,0,1-.2,1.2-.3.2-.2.3-.4.3-.7,0-.5-.1-.8-.4-1-.3-.2-.8-.3-1.4-.3s-1.2.1-1.5.4c-.3.2-.5.6-.5,1.2h-1.4c0-.9.4-1.6,1-2.1s1.4-.7,2.5-.7v-.2ZM138.7,442.6c0,.4.1.7.4.9.3.2.7.3,1.2.3.8,0,1.4-.2,1.8-.6.5-.4.7-.8.7-1.3v-1.4c-.2.2-.5.3-.9.3s-.8.1-1.5.2c-.6,0-1.1.2-1.3.5-.3.2-.4.6-.4,1h0ZM153.7,433.4v11.4h-1.4v-1.1h0c-.2.4-.6.8-1,1-.5.2-1,.3-1.6.3-1.2,0-2.1-.4-2.8-1.2-.7-.8-1-1.9-1-3.2s.3-2.3,1-3.1c.7-.8,1.6-1.2,2.8-1.2s1.1.1,1.5.3c.5.2.9.5,1.1,1h0v-4.2h1.4ZM147.3,440.7c0,.9.2,1.6.7,2.2s1.1.9,1.9.9,1.4-.3,1.9-.9c.4-.6.7-1.3.7-2.2s-.2-1.7-.7-2.3c-.4-.6-1.1-.9-1.9-.9s-1.4.3-1.8.9c-.4.6-.6,1.3-.6,2.3h-.2ZM157.7,434.1v2.5h1.6v1.2h-1.6v5.2c0,.4.1.6.4.7h1.3v1.2h-1.1c-.7,0-1.2-.1-1.5-.4-.2-.3-.4-.7-.4-1.3v-5.3h-1.4v-1.2h1.4v-2.5h1.4,0ZM169.4,433.1c1.3,0,2.3.3,3,.9.8.6,1.1,1.5,1.2,2.7h-1.4c0-.8-.4-1.4-.8-1.8-.5-.4-1.1-.6-2-.6s-1.4.2-1.9.5c-.4.3-.7.8-.7,1.4s.2.8.6,1.1c.4.3,1.4.6,3.1.9,1.2.2,2.1.6,2.7,1.2.6.5.9,1.2.9,2.1s-.4,1.9-1.3,2.5c-.9.6-1.9.9-3.2.9s-2.5-.3-3.4-1-1.3-1.7-1.3-3h1.4c0,.9.3,1.6.9,2,.6.5,1.4.7,2.4.7s1.6-.2,2.1-.5c.5-.4.8-.9.8-1.5s-.2-1-.7-1.3-1.3-.6-2.5-.8c-1.6-.3-2.7-.7-3.3-1.2s-.8-1.1-.8-1.9.4-1.8,1.2-2.4,1.8-.9,3-.9h0ZM179.2,436.3c1.2,0,2.2.4,2.9,1.2.7.8,1.1,1.8,1.1,3.1s-.4,2.3-1.1,3.1c-.7.8-1.7,1.2-2.9,1.2s-2.2-.4-2.9-1.2c-.7-.8-1.1-1.8-1.1-3.2s.4-2.4,1.1-3.2c.7-.8,1.7-1.2,2.9-1.2v.2ZM176.6,440.7c0,.9.2,1.7.7,2.3.5.6,1.1.8,1.9.8s1.4-.3,1.8-.8c.5-.6.7-1.3.7-2.3s-.2-1.7-.7-2.3c-.5-.6-1.1-.9-1.9-.9s-1.3.3-1.8.8c-.5.6-.7,1.3-.7,2.3h0ZM186.3,433.4v11.4h-1.4v-11.4h1.4ZM189.8,433.4v1.7h-1.4v-1.7h1.4ZM189.8,436.5v8.3h-1.4v-8.3h1.4ZM196,436.3c1,0,1.7.3,2.2.8.4.5.7,1.2.7,2.2v5.5h-1.4v-5.7c0-.5-.2-.9-.5-1.2-.3-.3-.7-.5-1.2-.5-.8,0-1.4.2-1.8.7-.4.5-.6,1.1-.6,1.8v4.7h-1.4v-8.3h1.3v1.3h0c.3-.5.7-.9,1.1-1.1.4-.2,1-.4,1.6-.4v.2ZM204.2,436.3c.6,0,1.1.1,1.5.4.4.2.8.6,1,1h0v-1.2h1.3v7.7c0,1.3-.3,2.3-.9,3s-1.6,1-2.9,1-1.7-.2-2.4-.6c-.6-.4-1-1-1-1.8h1.4c0,.4.2.7.7,1,.4.2.9.4,1.5.4s1.4-.3,1.8-.8c.4-.5.6-1.3.6-2.4v-.5h0c-.2.5-.6.8-1,1.1-.5.3-1,.4-1.6.4-1.1,0-2-.4-2.7-1.2-.7-.8-1-1.8-1-3s.3-2.3,1-3.1c.7-.8,1.6-1.2,2.8-1.2v-.2ZM201.8,440.5c0,1,.2,1.8.6,2.3.4.6,1,.8,1.7.8s1.3-.3,1.8-.9c.4-.6.7-1.4.7-2.3s-.2-1.6-.6-2.1c-.4-.5-1-.8-1.7-.8s-1.4.3-1.8.8c-.4.5-.6,1.3-.6,2.2h0ZM213.5,436.3c1.2,0,2.1.4,2.8,1.3s1,2,1,3.3v.2h-6.2c0,.9.2,1.5.7,2s1.1.7,1.9.7,1.1-.1,1.4-.4c.4-.3.6-.7.7-1.2h1.3c-.2.9-.6,1.6-1.2,2.1-.6.5-1.4.7-2.3.7s-1.6-.2-2.2-.6c-.6-.4-1.1-.9-1.3-1.6-.3-.7-.4-1.4-.4-2.2,0-1.2.4-2.2,1.1-3,.7-.8,1.7-1.2,2.8-1.2h-.1ZM211,439.9h4.8c0-.7-.3-1.2-.7-1.7-.4-.4-1-.7-1.7-.7s-1.2.2-1.6.6c-.4.4-.7,1-.8,1.7h0ZM222.6,436.3c1,0,1.7.3,2.2.8.4.5.7,1.2.7,2.2v5.5h-1.4v-5.7c0-.5-.2-.9-.5-1.2-.3-.3-.7-.5-1.2-.5-.8,0-1.4.2-1.8.7-.4.5-.6,1.1-.6,1.8v4.7h-1.4v-8.3h1.3v1.3h0c.3-.5.7-.9,1.1-1.1.4-.2,1-.4,1.6-.4v.2Z"/>
  <path class="cls-5" d="M58.2,488.9h0c0-4.1,3.3-7.4,7.4-7.4h216.6c2,0,3.8.8,5.2,2.2s2.2,3.3,2.2,5.2v49c0,4.1-3.3,7.4-7.4,7.4H65.6c-4.1,0-7.4-3.3-7.4-7.4v-49h0Z"/>
  <path class="cls-2" d="M77.7,486.9h192.5v51.2H77.7v-51.2h0Z"/>
  <path class="cls-3" d="M94,497.3l3.3,9.9h0l3.3-9.9h1.6l-4.1,11.4h-1.7l-4-11.4h1.7-.1ZM106,500.2c1.2,0,2.2.4,2.9,1.2.7.8,1.1,1.8,1.1,3.1s-.4,2.3-1.1,3.1c-.7.8-1.7,1.2-2.9,1.2s-2.2-.4-2.9-1.2c-.7-.8-1.1-1.8-1.1-3.2s.4-2.4,1.1-3.2c.7-.8,1.7-1.2,2.9-1.2v.2ZM103.4,504.6c0,.9.2,1.7.7,2.3.5.6,1.1.8,1.9.8s1.4-.3,1.8-.8c.5-.6.7-1.3.7-2.3s-.2-1.7-.7-2.3c-.5-.6-1.1-.9-1.9-.9s-1.3.3-1.8.8c-.5.6-.7,1.3-.7,2.3h0ZM115.6,500.2c1,0,1.7.3,2.2.8.4.5.7,1.2.7,2.2v5.5h-1.4v-5.7c0-.5-.2-.9-.5-1.2-.3-.3-.7-.5-1.2-.5-.8,0-1.4.2-1.8.7s-.6,1.1-.6,1.8v4.7h-1.4v-8.3h1.3v1.3h0c.3-.5.7-.9,1.1-1.1.4-.3,1-.4,1.6-.4v.2ZM124,500.2c1.2,0,2.1.4,2.8,1.3.7.9,1,2,1,3.3v.2h-6.2c0,.9.2,1.5.7,2s1.1.7,1.9.7,1.1-.1,1.4-.4c.4-.3.6-.7.7-1.2h1.3c-.2.9-.6,1.6-1.2,2.1s-1.4.7-2.3.7-1.6-.2-2.2-.6-1.1-.9-1.3-1.6c-.3-.7-.4-1.4-.4-2.2,0-1.2.4-2.2,1.1-3s1.7-1.2,2.8-1.2h-.1ZM121.5,503.7h4.8c0-.7-.3-1.2-.7-1.7-.4-.4-1-.7-1.7-.7s-1.2.2-1.6.6-.7,1-.8,1.7h0ZM130.6,497.3v1.7h-1.4v-1.7h1.4ZM130.6,500.4v8.3h-1.4v-8.3h1.4ZM136.7,500.2c1,0,1.7.3,2.2.8.4.5.7,1.2.7,2.2v5.5h-1.4v-5.7c0-.5-.2-.9-.5-1.2-.3-.3-.7-.5-1.2-.5-.8,0-1.4.2-1.8.7-.4.5-.6,1.1-.6,1.8v4.7h-1.4v-8.3h1.3v1.3h0c.3-.5.7-.9,1.1-1.1.4-.3,1-.4,1.6-.4v.2ZM145,500.2c1.1,0,1.9.2,2.4.6s.7.9.7,1.6v4.8c0,.3.1.5.4.5h.4v1.1c-.1,0-.3.1-.4.2h-.5c-.4,0-.7-.1-.9-.3-.2-.2-.3-.5-.3-1-.4.4-.8.7-1.3,1-.5.2-1,.3-1.6.3-.9,0-1.5-.2-2-.6s-.7-1-.7-1.7.2-1.3.7-1.8c.5-.4,1.6-.8,3.4-1,.6,0,1-.2,1.2-.3.2-.2.3-.4.3-.7,0-.5-.1-.8-.4-1-.3-.2-.8-.3-1.4-.3s-1.2.1-1.5.4c-.3.2-.5.6-.5,1.2h-1.4c0-.9.4-1.6,1-2.1s1.4-.7,2.5-.7v-.2ZM142.6,506.4c0,.4.1.7.4.9.3.2.7.3,1.2.3.8,0,1.4-.2,1.8-.6.5-.4.7-.8.7-1.3v-1.4c-.2.2-.5.3-.9.3s-.8.1-1.5.2c-.6,0-1.1.2-1.3.5-.3.2-.4.6-.4,1h0ZM154.2,500.2c1,0,1.7.3,2.2.8.4.5.7,1.2.7,2.2v5.5h-1.4v-5.7c0-.5-.2-.9-.5-1.2-.3-.3-.7-.5-1.2-.5-.8,0-1.4.2-1.8.7-.4.5-.6,1.1-.6,1.8v4.7h-1.4v-8.3h1.3v1.3h0c.3-.5.7-.9,1.1-1.1.4-.3,1-.4,1.6-.4v.2ZM166.5,497.3v11.4h-1.4v-1.1h0c-.2.4-.6.8-1,1-.5.2-1,.3-1.6.3-1.2,0-2.1-.4-2.8-1.2-.7-.8-1-1.9-1-3.2s.3-2.3,1-3.1c.7-.8,1.6-1.2,2.8-1.2s1.1.1,1.5.3c.5.2.9.5,1.1,1h0v-4.2h1.4ZM160.1,504.6c0,.9.2,1.6.7,2.2s1.1.9,1.9.9,1.4-.3,1.9-.9c.4-.6.7-1.3.7-2.2s-.2-1.7-.7-2.3c-.4-.6-1.1-.9-1.9-.9s-1.4.3-1.8.9c-.4.6-.6,1.3-.6,2.3h-.2ZM172,500.2c1.2,0,2.1.4,2.8,1.3s1,2,1,3.3v.2h-6.2c0,.9.2,1.5.7,2s1.1.7,1.9.7,1.1-.1,1.4-.4c.4-.3.6-.7.7-1.2h1.3c-.2.9-.6,1.6-1.2,2.1-.6.5-1.4.7-2.3.7s-1.6-.2-2.2-.6c-.6-.4-1.1-.9-1.3-1.6-.3-.7-.4-1.4-.4-2.2,0-1.2.4-2.2,1.1-3,.7-.8,1.7-1.2,2.8-1.2h-.1ZM169.5,503.7h4.8c0-.7-.3-1.2-.7-1.7-.4-.4-1-.7-1.7-.7s-1.2.2-1.6.6c-.4.4-.7,1-.8,1.7h0ZM181.3,500.2h.1v1.4c-1,0-1.8.3-2.3.8s-.7,1.4-.7,2.5v3.7h-1.4v-8.3h1.3v1.8h0c.3-.7.7-1.1,1.2-1.5.5-.3,1-.5,1.7-.5h0ZM188.4,497.3v11.4h-1.4v-11.4h1.4ZM193.9,500.2c1.1,0,1.9.2,2.4.6s.7.9.7,1.6v4.8c0,.3.1.5.4.5h.4v1.1c-.1,0-.3.1-.4.2h-.5c-.4,0-.7-.1-.9-.3-.2-.2-.3-.5-.3-1-.4.4-.8.7-1.3,1-.5.2-1,.3-1.6.3-.9,0-1.5-.2-2-.6s-.7-1-.7-1.7.2-1.3.7-1.8c.5-.4,1.6-.8,3.4-1,.6,0,1-.2,1.2-.3.2-.2.3-.4.3-.7,0-.5-.1-.8-.4-1-.3-.2-.8-.3-1.4-.3s-1.2.1-1.5.4c-.3.2-.5.6-.5,1.2h-1.4c0-.9.4-1.6,1-2.1s1.4-.7,2.5-.7v-.2ZM191.5,506.4c0,.4.1.7.4.9.3.2.7.3,1.2.3.8,0,1.4-.2,1.8-.6.5-.4.7-.8.7-1.3v-1.4c-.2.2-.5.3-.9.3s-.8.1-1.5.2c-.6,0-1.1.2-1.3.5-.3.2-.4.6-.4,1h0ZM203.1,500.2c1,0,1.7.3,2.2.8.4.5.7,1.2.7,2.2v5.5h-1.4v-5.7c0-.5-.2-.9-.5-1.2-.3-.3-.7-.5-1.2-.5-.8,0-1.4.2-1.8.7-.4.5-.6,1.1-.6,1.8v4.7h-1.4v-8.3h1.3v1.3h0c.3-.5.7-.9,1.1-1.1.4-.3,1-.4,1.6-.4v.2ZM211.3,500.2c.6,0,1.1.1,1.5.4.4.2.8.6,1,1h0v-1.2h1.3v7.7c0,1.3-.3,2.3-.9,3-.6.7-1.6,1-2.9,1s-1.7-.2-2.4-.6c-.6-.4-1-1-1-1.8h1.4c0,.4.2.7.7,1,.4.2.9.4,1.5.4s1.4-.3,1.8-.8c.4-.5.6-1.3.6-2.4v-.5h0c-.2.5-.6.8-1,1.1-.5.3-1,.4-1.6.4-1.1,0-2-.4-2.7-1.2-.7-.8-1-1.8-1-3s.3-2.3,1-3.1c.7-.8,1.6-1.2,2.8-1.2v-.2ZM209,504.4c0,1,.2,1.8.6,2.3.4.6,1,.8,1.7.8s1.3-.3,1.8-.9c.4-.6.7-1.4.7-2.3s-.2-1.6-.6-2.1c-.4-.5-1-.8-1.7-.8s-1.4.3-1.8.8c-.4.5-.6,1.3-.6,2.2h0ZM220,497.1h.9v1.2h-.8c-.4,0-.6,0-.8.2s-.2.4-.2.7v1.2h1.6v1.2h-1.6v7.1h-1.4v-7.1h-1.4v-1.2h1.4v-1.3c0-.6.2-1.1.6-1.5.4-.4,1-.5,1.7-.5h0ZM226,500.2h.1v1.4c-1,0-1.8.3-2.3.8s-.7,1.4-.7,2.5v3.7h-1.4v-8.3h1.3v1.8h0c.3-.7.7-1.1,1.2-1.5.5-.3,1-.5,1.7-.5h0ZM228.7,497.3v1.7h-1.4v-1.7h1.4ZM228.7,500.4v8.3h-1.4v-8.3h1.4ZM233.5,500.2c1.1,0,1.9.2,2.5.7.5.4.8,1.1.9,1.9h-1.4c0-.5-.2-.8-.6-1-.3-.2-.8-.4-1.3-.4s-1,0-1.3.3c-.3.2-.5.4-.5.8s.1.6.4.8c.3.2.7.3,1.3.5l1.3.3c.8.2,1.4.5,1.8.8.4.4.6.9.6,1.5s-.3,1.5-1,1.9c-.6.5-1.5.7-2.6.7s-1.9-.2-2.5-.7-.9-1.2-1-2.1h1.4c0,.5.2.9.6,1.2.4.3.9.4,1.6.4s1.2-.1,1.5-.3c.3-.2.5-.5.5-.9s-.2-.7-.5-.9c-.3-.2-1-.4-2.1-.6-1-.2-1.8-.5-2.2-.9s-.6-.9-.6-1.5.3-1.3.9-1.7c.6-.4,1.3-.6,2.2-.6v-.2ZM240.7,497.9v2.5h1.6v1.2h-1.6v5.2c0,.4.1.6.4.7h1.3v1.2h-1.1c-.7,0-1.2-.1-1.5-.4-.2-.3-.4-.7-.4-1.3v-5.3h-1.4v-1.2h1.4v-2.5h1.4,0ZM245.2,497.3v1.7h-1.4v-1.7h1.4ZM245.2,500.4v8.3h-1.4v-8.3h1.4ZM250.7,500.2c.6,0,1.1.1,1.5.4.4.2.8.6,1,1h0v-1.2h1.3v7.7c0,1.3-.3,2.3-.9,3-.6.7-1.6,1-2.9,1s-1.7-.2-2.4-.6c-.6-.4-1-1-1-1.8h1.4c0,.4.2.7.7,1,.4.2.9.4,1.5.4s1.4-.3,1.8-.8c.4-.5.6-1.3.6-2.4v-.5h0c-.2.5-.6.8-1,1.1-.5.3-1,.4-1.6.4-1.1,0-2-.4-2.7-1.2-.7-.8-1-1.8-1-3s.3-2.3,1-3.1c.7-.8,1.6-1.2,2.8-1.2v-.2ZM248.4,504.4c0,1,.2,1.8.6,2.3.4.6,1,.8,1.7.8s1.3-.3,1.8-.9c.4-.6.7-1.4.7-2.3s-.2-1.6-.6-2.1c-.4-.5-1-.8-1.7-.8s-1.4.3-1.8.8c-.4.5-.6,1.3-.6,2.2h0Z"/>
  <path class="cls-3" d="M143.2,519.4c1.2,0,2.1.4,2.8,1.2s1,1.9,1,3.1-.3,2.3-1,3.1-1.6,1.2-2.8,1.2-1,0-1.5-.3-.9-.5-1.2-1h0v4.3h-1.4v-11.5h1.4v1.1h0c.2-.4.5-.8,1-1s1-.3,1.6-.3h0ZM140.4,523.7c0,1,.2,1.7.7,2.3s1.1.8,1.9.8,1.4-.3,1.8-.8c.4-.6.7-1.3.7-2.3s-.2-1.6-.7-2.2c-.4-.6-1.1-.9-1.9-.9s-1.4.3-1.9.9-.7,1.3-.7,2.2h0ZM152.7,519.4h.2v1.4c-1,0-1.8.3-2.3.8s-.7,1.4-.7,2.5v3.7h-1.4v-8.3h1.3v1.8h0c.3-.7.7-1.1,1.2-1.5.5-.3,1-.5,1.7-.5h0ZM157.2,519.4c1.2,0,2.2.4,2.9,1.2s1.1,1.8,1.1,3.1-.4,2.3-1.1,3.1c-.7.8-1.7,1.2-2.9,1.2s-2.2-.4-2.9-1.2-1.1-1.8-1.1-3.2.4-2.4,1.1-3.2c.7-.8,1.7-1.2,2.9-1.2v.2ZM154.6,523.8c0,.9.2,1.7.7,2.3s1.1.8,1.9.8,1.4-.3,1.8-.8c.5-.6.7-1.3.7-2.3s-.2-1.7-.7-2.3-1.1-.9-1.9-.9-1.3.3-1.8.8c-.5.6-.7,1.3-.7,2.3h0ZM165.6,516.3h.9v1.2h-.8c-.4,0-.6,0-.8.2s-.2.4-.2.7v1.2h1.6v1.2h-1.6v7.1h-1.4v-7.1h-1.4v-1.2h1.4v-1.3c0-.6.2-1.1.6-1.5.4-.4,1-.5,1.7-.5h0ZM169,516.5v1.7h-1.4v-1.7h1.4ZM169,519.6v8.3h-1.4v-8.3h1.4ZM173,517.1v2.5h1.6v1.2h-1.6v5.2c0,.4.1.6.4.7h1.3v1.2h-1.1c-.7,0-1.2,0-1.5-.4-.2-.3-.4-.7-.4-1.3v-5.3h-1.4v-1.2h1.4v-2.5h1.4,0ZM177.6,516.5v1.7h-1.4v-1.7h1.4ZM177.6,519.6v8.3h-1.4v-8.3h1.4ZM183.1,519.4c1.2,0,2.1.4,2.8,1.3s1,2,1,3.3v.2h-6.2c0,.9.2,1.5.7,2s1.1.7,1.9.7,1.1,0,1.4-.4c.4-.3.6-.7.7-1.2h1.3c-.2.9-.6,1.6-1.2,2.1-.6.5-1.4.7-2.3.7s-1.6-.2-2.2-.6c-.6-.4-1.1-.9-1.3-1.6-.3-.7-.4-1.4-.4-2.2,0-1.2.4-2.2,1.1-3,.7-.8,1.7-1.2,2.8-1.2h-.1ZM180.7,522.9h4.8c0-.7-.3-1.2-.7-1.7-.4-.4-1-.7-1.7-.7s-1.2.2-1.6.6c-.4.4-.7,1-.8,1.7h0ZM192.4,519.4h.2v1.4c-1,0-1.8.3-2.3.8s-.7,1.4-.7,2.5v3.7h-1.4v-8.3h1.3v1.8h0c.3-.7.7-1.1,1.2-1.5.5-.3,1-.5,1.7-.5h0ZM196.8,519.4c1.2,0,2.1.4,2.8,1.3s1,2,1,3.3v.2h-6.2c0,.9.2,1.5.7,2s1.1.7,1.9.7,1.1,0,1.4-.4c.4-.3.6-.7.7-1.2h1.3c-.2.9-.6,1.6-1.2,2.1-.6.5-1.4.7-2.3.7s-1.6-.2-2.2-.6c-.6-.4-1.1-.9-1.3-1.6-.3-.7-.4-1.4-.4-2.2,0-1.2.4-2.2,1.1-3,.7-.8,1.7-1.2,2.8-1.2h-.1ZM194.3,522.9h4.8c0-.7-.3-1.2-.7-1.7-.4-.4-1-.7-1.7-.7s-1.2.2-1.6.6c-.4.4-.7,1-.8,1.7h0ZM205.9,519.4c1,0,1.7.3,2.2.8.4.5.7,1.2.7,2.2v5.5h-1.4v-5.7c0-.5-.2-.9-.5-1.2s-.7-.5-1.2-.5c-.8,0-1.4.2-1.8.7-.4.5-.6,1.1-.6,1.8v4.7h-1.4v-8.3h1.3v1.3h0c.3-.5.7-.9,1.1-1.1.4-.2,1-.4,1.6-.4v.2Z"/>
  <path class="cls-2" d="M316.5,488.9h0c0-4.1,3.3-7.4,7.4-7.4h216.6c2,0,3.8.8,5.2,2.2,1.4,1.4,2.2,3.3,2.2,5.2v49c0,4.1-3.3,7.4-7.4,7.4h-216.6c-4.1,0-7.4-3.3-7.4-7.4v-49h0Z"/>
  <path class="cls-7" d="M316.5,488.9h0c0-4.1,3.3-7.4,7.4-7.4h216.6c2,0,3.8.8,5.2,2.2,1.4,1.4,2.2,3.3,2.2,5.2v49c0,4.1-3.3,7.4-7.4,7.4h-216.6c-4.1,0-7.4-3.3-7.4-7.4v-49h0Z"/>
</svg>