<svg viewBox="0 0 420 650" fill="none" xmlns="http://www.w3.org/2000/svg">
<rect width="420" height="650" rx="9" fill="#222222"/>
<rect x="15.5" y="445.5" width="389" height="179" rx="8.5" stroke="white"/>
<path d="M29.704 33V30.756L37.536 20.966C37.91 20.504 38.24 20.108 38.658 19.646H30.1V17.6H41.452V19.712L33.62 29.502C33.246 29.964 32.85 30.448 32.41 30.932H41.76V33H29.704ZM43.9023 33V22.33H46.1903V33H43.9023ZM43.8143 20.504V17.974H46.3003V20.504H43.8143ZM49.1874 33V22.33H51.4754V22.968C51.4754 23.386 51.4754 23.782 51.4314 24.178C51.9814 22.968 53.0594 21.978 54.6654 21.978C54.8414 21.978 55.0174 21.978 55.1934 22.022V24.244C55.0394 24.222 54.8194 24.178 54.5114 24.178C52.6634 24.178 51.4754 25.168 51.4754 27.522V33H49.1874ZM57.0077 33V17.6H59.2957V26.708C59.5377 26.4 59.8457 26.07 60.1097 25.806L63.4537 22.33H66.3797L61.8477 26.862L66.8417 33H63.8497L60.3077 28.402L59.2957 29.414V33H57.0077ZM71.8546 33.352C69.5446 33.352 68.0266 31.878 68.0266 29.106V22.33H70.3146V28.71C70.3146 30.47 70.9966 31.548 72.5146 31.548C74.0546 31.548 75.0226 30.382 75.0226 28.446V22.33H77.3106V33H75.0446V32.45C75.0446 32.142 75.0666 31.812 75.1106 31.526C74.5826 32.604 73.4606 33.352 71.8546 33.352ZM80.2968 33V17.6H82.5848V33H80.2968ZM88.6619 33.352C86.7259 33.352 84.9879 32.12 84.9879 30.074C84.9879 27.83 86.7479 26.928 88.8379 26.642L90.7519 26.356C91.5879 26.246 91.8739 25.938 91.8739 25.344C91.8739 24.398 91.1259 23.716 89.9379 23.716C88.4859 23.716 87.6719 24.508 87.6059 25.718H85.2739C85.3839 23.628 87.0559 21.978 89.7839 21.978C92.7319 21.978 94.1399 23.628 94.1399 26.356V33H92.0059V32.516C92.0059 32.186 92.0279 31.878 92.0499 31.548C91.4999 32.626 90.3779 33.352 88.6619 33.352ZM87.3419 30.008C87.3419 31.042 88.1559 31.636 89.1679 31.636C90.7299 31.636 91.9179 30.536 91.9179 28.908V27.544C91.7419 27.764 91.3459 27.896 90.7079 28.006L89.4979 28.248C88.2439 28.49 87.3419 28.974 87.3419 30.008ZM96.9901 33V22.33H99.2781V22.968C99.2781 23.386 99.2781 23.782 99.2341 24.178C99.7841 22.968 100.862 21.978 102.468 21.978C102.644 21.978 102.82 21.978 102.996 22.022V24.244C102.842 24.222 102.622 24.178 102.314 24.178C100.466 24.178 99.2781 25.168 99.2781 27.522V33H96.9901ZM104.81 33V22.33H107.098V33H104.81ZM104.722 20.504V17.974H107.208V20.504H104.722ZM114.364 33.176C112.428 33.176 111.108 32.23 111.108 29.854V24.178H108.886V22.33H111.108V18.634H113.396V22.33H115.816V24.178H113.396V29.546C113.396 30.734 113.924 31.262 114.958 31.262C115.222 31.262 115.486 31.24 115.772 31.196V33.022C115.442 33.11 114.914 33.176 114.364 33.176ZM121.017 33.352C119.081 33.352 117.343 32.12 117.343 30.074C117.343 27.83 119.103 26.928 121.193 26.642L123.107 26.356C123.943 26.246 124.229 25.938 124.229 25.344C124.229 24.398 123.481 23.716 122.293 23.716C120.841 23.716 120.027 24.508 119.961 25.718H117.629C117.739 23.628 119.411 21.978 122.139 21.978C125.087 21.978 126.495 23.628 126.495 26.356V33H124.361V32.516C124.361 32.186 124.383 31.878 124.405 31.548C123.855 32.626 122.733 33.352 121.017 33.352ZM118.773 20.504V17.974H121.259V20.504H118.773ZM119.697 30.008C119.697 31.042 120.511 31.636 121.523 31.636C123.085 31.636 124.273 30.536 124.273 28.908V27.544C124.097 27.764 123.701 27.896 123.063 28.006L121.853 28.248C120.599 28.49 119.697 28.974 119.697 30.008ZM123.151 20.504V17.974H125.615V20.504H123.151ZM133.506 33.176C131.57 33.176 130.25 32.23 130.25 29.854V24.178H128.028V22.33H130.25V18.634H132.538V22.33H134.958V24.178H132.538V29.546C132.538 30.734 133.066 31.262 134.1 31.262C134.364 31.262 134.628 31.24 134.914 31.196V33.022C134.584 33.11 134.056 33.176 133.506 33.176ZM141.084 33.352C138.136 33.352 136.376 31.79 136.266 29.392H138.554C138.62 30.756 139.5 31.614 141.062 31.614C142.404 31.614 143.284 30.998 143.284 30.052C143.284 29.282 142.69 28.842 141.48 28.6L140.028 28.314C137.916 27.918 136.64 26.884 136.64 25.168C136.64 23.342 138.378 21.978 140.908 21.978C143.614 21.978 145.286 23.342 145.396 25.542H143.108C142.998 24.376 142.162 23.716 140.842 23.716C139.698 23.716 138.906 24.222 138.906 25.058C138.906 25.806 139.434 26.18 140.71 26.422L142.184 26.708C144.186 27.104 145.528 28.05 145.528 29.876C145.528 31.856 143.834 33.352 141.084 33.352ZM147.908 37.532V22.33H150.196V22.946C150.196 23.232 150.196 23.496 150.152 23.826C150.79 22.77 152.022 21.978 153.672 21.978C156.62 21.978 158.468 24.354 158.468 27.676C158.468 31.108 156.422 33.352 153.584 33.352C151.934 33.352 150.834 32.604 150.152 31.526C150.196 31.878 150.196 32.164 150.196 32.472V37.532H147.908ZM150.086 27.654C150.086 29.986 151.34 31.57 153.122 31.57C154.926 31.57 156.114 29.964 156.114 27.654C156.114 25.388 154.948 23.782 153.122 23.782C151.362 23.782 150.086 25.278 150.086 27.654ZM160.799 33V22.33H163.087V22.968C163.087 23.386 163.087 23.782 163.043 24.178C163.593 22.968 164.671 21.978 166.277 21.978C166.453 21.978 166.629 21.978 166.805 22.022V24.244C166.651 24.222 166.431 24.178 166.123 24.178C164.275 24.178 163.087 25.168 163.087 27.522V33H160.799ZM173.112 33.352C169.966 33.352 167.766 31.152 167.766 27.676C167.766 24.266 169.988 21.978 173.112 21.978C176.258 21.978 178.48 24.266 178.48 27.676C178.48 31.152 176.258 33.352 173.112 33.352ZM170.098 27.676C170.098 30.052 171.264 31.57 173.112 31.57C174.96 31.57 176.148 30.052 176.148 27.676C176.148 25.256 174.938 23.782 173.112 23.782C171.308 23.782 170.098 25.256 170.098 27.676ZM183.906 24.178V33H181.618V24.178H179.55V22.33H181.618V20.724C181.618 18.414 183.004 17.226 184.852 17.226C185.424 17.226 185.886 17.336 186.106 17.424V19.272C185.93 19.228 185.666 19.184 185.402 19.184C184.5 19.184 183.906 19.712 183.906 20.68V22.33H190.22V33H187.932V24.178H183.906ZM187.822 20.504V17.974H190.308V20.504H187.822ZM193.219 33V17.6H195.507V33H193.219Z" fill="white"/>
<path d="M35.412 477V463.646H30.176V461.6H43.068V463.646H37.854V477H35.412ZM46.9677 477.352C43.8217 477.352 41.6217 475.152 41.6217 471.676C41.6217 468.266 43.8437 465.978 46.9677 465.978C50.1137 465.978 52.3357 468.266 52.3357 471.676C52.3357 475.152 50.1137 477.352 46.9677 477.352ZM43.9537 471.676C43.9537 474.052 45.1197 475.57 46.9677 475.57C48.8157 475.57 50.0037 474.052 50.0037 471.676C50.0037 469.256 48.7937 467.782 46.9677 467.782C45.1637 467.782 43.9537 469.256 43.9537 471.676ZM55.0511 477V461.6H60.0891C65.1711 461.6 68.2951 464.042 68.2951 469.3C68.2951 473.964 65.5671 477 60.3531 477H55.0511ZM57.4931 474.932H60.1331C63.6091 474.932 65.7871 473.238 65.7871 469.3C65.7871 465.714 63.9611 463.646 60.0891 463.646H57.4931V474.932ZM75.4345 477.352C72.2885 477.352 70.0885 475.152 70.0885 471.676C70.0885 468.266 72.3105 465.978 75.4345 465.978C78.5805 465.978 80.8025 468.266 80.8025 471.676C80.8025 475.152 78.5805 477.352 75.4345 477.352ZM72.4205 471.676C72.4205 474.052 73.5865 475.57 75.4345 475.57C77.2825 475.57 78.4705 474.052 78.4705 471.676C78.4705 469.256 77.2605 467.782 75.4345 467.782C73.6305 467.782 72.4205 469.256 72.4205 471.676ZM82.9679 477V474.074H85.8939V477H82.9679ZM82.9679 470.202V467.276H85.8939V470.202H82.9679ZM30.704 506V503.756L38.536 493.966C38.91 493.504 39.24 493.108 39.658 492.646H31.1V490.6H42.452V492.712L34.62 502.502C34.246 502.964 33.85 503.448 33.41 503.932H42.76V506H30.704ZM44.9023 506V495.33H47.1903V506H44.9023ZM44.8143 493.504V490.974H47.3003V493.504H44.8143ZM54.8514 506.352C51.6614 506.352 49.5494 504.328 49.5494 500.632C49.5494 497.31 51.7494 494.978 54.7634 494.978C57.9754 494.978 59.8014 497.222 59.8014 500.676V501.16H51.8594C51.9034 503.228 53.1354 504.57 54.8734 504.57C56.1054 504.57 57.1834 503.976 57.4034 502.612H59.7134C59.4934 504.636 57.8214 506.352 54.8514 506.352ZM51.8814 499.532H57.4034C57.3814 497.86 56.3914 496.716 54.7414 496.716C53.1354 496.716 52.0354 497.926 51.8814 499.532ZM62.1757 506V490.6H64.4637V506H62.1757ZM70.2328 506L66.1848 495.33H68.6488L71.1788 502.7C71.3548 503.162 71.4428 503.492 71.5528 503.91C71.6628 503.492 71.7728 503.162 71.9268 502.7L74.4128 495.33H76.7888L72.8068 506H70.2328ZM82.953 506.352C79.763 506.352 77.651 504.328 77.651 500.632C77.651 497.31 79.851 494.978 82.865 494.978C86.077 494.978 87.903 497.222 87.903 500.676V501.16H79.961C80.005 503.228 81.237 504.57 82.975 504.57C84.207 504.57 85.285 503.976 85.505 502.612H87.815C87.595 504.636 85.923 506.352 82.953 506.352ZM79.983 499.532H85.505C85.483 497.86 84.493 496.716 82.843 496.716C81.237 496.716 80.137 497.926 79.983 499.532ZM90.2773 506V495.33H92.5653V495.968C92.5653 496.386 92.5653 496.782 92.5213 497.178C93.0713 495.968 94.1493 494.978 95.7553 494.978C95.9313 494.978 96.1073 494.978 96.2833 495.022V497.244C96.1293 497.222 95.9093 497.178 95.6013 497.178C93.7533 497.178 92.5653 498.168 92.5653 500.522V506H90.2773ZM102.547 506.352C99.3567 506.352 97.2447 504.328 97.2447 500.632C97.2447 497.31 99.4447 494.978 102.459 494.978C105.671 494.978 107.497 497.222 107.497 500.676V501.16H99.5547C99.5987 503.228 100.831 504.57 102.569 504.57C103.801 504.57 104.879 503.976 105.099 502.612H107.409C107.189 504.636 105.517 506.352 102.547 506.352ZM99.5767 499.532H105.099C105.077 497.86 104.087 496.716 102.437 496.716C100.831 496.716 99.7307 497.926 99.5767 499.532ZM109.871 506V495.33H112.159V506H109.871ZM109.783 493.504V490.974H112.269V493.504H109.783ZM115.156 506V495.33H117.444V495.924C117.444 496.21 117.422 496.474 117.4 496.804C117.972 495.814 119.116 494.978 120.678 494.978C123.098 494.978 124.528 496.584 124.528 499.268V506H122.24V499.576C122.24 497.794 121.536 496.782 120.062 496.782C118.478 496.782 117.444 498.08 117.444 499.664V506H115.156ZM133.1 506.352C131.472 506.352 130.262 505.582 129.646 504.526C129.69 504.878 129.69 505.164 129.69 505.494V506H127.402V490.6H129.69V495.858C129.69 496.188 129.668 496.496 129.646 496.804C130.328 495.77 131.472 494.978 133.1 494.978C135.938 494.978 137.984 497.266 137.984 500.676C137.984 504.152 135.982 506.352 133.1 506.352ZM129.558 500.676C129.558 502.986 130.812 504.57 132.594 504.57C134.398 504.57 135.63 502.986 135.63 500.676C135.63 498.388 134.398 496.782 132.594 496.782C130.812 496.782 129.558 498.3 129.558 500.676ZM143.373 506.352C141.437 506.352 139.699 505.12 139.699 503.074C139.699 500.83 141.459 499.928 143.549 499.642L145.463 499.356C146.299 499.246 146.585 498.938 146.585 498.344C146.585 497.398 145.837 496.716 144.649 496.716C143.197 496.716 142.383 497.508 142.317 498.718H139.985C140.095 496.628 141.767 494.978 144.495 494.978C147.443 494.978 148.851 496.628 148.851 499.356V506H146.717V505.516C146.717 505.186 146.739 504.878 146.761 504.548C146.211 505.626 145.089 506.352 143.373 506.352ZM142.053 503.008C142.053 504.042 142.867 504.636 143.879 504.636C145.441 504.636 146.629 503.536 146.629 501.908V500.544C146.453 500.764 146.057 500.896 145.419 501.006L144.209 501.248C142.955 501.49 142.053 501.974 142.053 503.008ZM151.701 506V495.33H153.989V495.968C153.989 496.386 153.989 496.782 153.945 497.178C154.495 495.968 155.573 494.978 157.179 494.978C157.355 494.978 157.531 494.978 157.707 495.022V497.244C157.553 497.222 157.333 497.178 157.025 497.178C155.177 497.178 153.989 498.168 153.989 500.522V506H151.701ZM163.239 506.352C160.929 506.352 159.411 504.878 159.411 502.106V495.33H161.699V501.71C161.699 503.47 162.381 504.548 163.899 504.548C165.439 504.548 166.407 503.382 166.407 501.446V495.33H168.695V506H166.429V505.45C166.429 505.142 166.451 504.812 166.495 504.526C165.967 505.604 164.845 506.352 163.239 506.352ZM171.682 506V495.33H173.97V495.924C173.97 496.21 173.948 496.474 173.926 496.804C174.498 495.814 175.642 494.978 177.204 494.978C179.624 494.978 181.054 496.584 181.054 499.268V506H178.766V499.576C178.766 497.794 178.062 496.782 176.588 496.782C175.004 496.782 173.97 498.08 173.97 499.664V506H171.682ZM188.57 510.884C185.578 510.884 183.774 509.256 183.774 506.88H186.062C186.084 508.222 187.03 509.102 188.614 509.102C190.308 509.102 191.496 508.156 191.496 506.22V504.988C191.496 504.636 191.518 504.306 191.54 503.976C190.946 504.988 189.758 505.736 188.13 505.736C185.27 505.736 183.312 503.712 183.312 500.368C183.312 497.068 185.534 494.978 188.108 494.978C189.934 494.978 190.946 495.814 191.54 496.804C191.518 496.496 191.496 496.188 191.496 495.858V495.33H193.784V505.56C193.784 509.146 191.848 510.884 188.57 510.884ZM185.666 500.368C185.666 502.502 186.898 503.932 188.658 503.932C190.396 503.932 191.65 502.48 191.65 500.368C191.65 498.278 190.396 496.782 188.658 496.782C186.898 496.782 185.666 498.256 185.666 500.368ZM201.439 506.352C198.249 506.352 196.137 504.328 196.137 500.632C196.137 497.31 198.337 494.978 201.351 494.978C204.563 494.978 206.389 497.222 206.389 500.676V501.16H198.447C198.491 503.228 199.723 504.57 201.461 504.57C202.693 504.57 203.771 503.976 203.991 502.612H206.301C206.081 504.636 204.409 506.352 201.439 506.352ZM198.469 499.532H203.991C203.969 497.86 202.979 496.716 201.329 496.716C199.723 496.716 198.623 497.926 198.469 499.532ZM208.764 506V495.33H211.052V495.924C211.052 496.21 211.03 496.474 211.008 496.804C211.58 495.814 212.724 494.978 214.286 494.978C216.706 494.978 218.136 496.584 218.136 499.268V506H215.848V499.576C215.848 497.794 215.144 496.782 213.67 496.782C212.086 496.782 211.052 498.08 211.052 499.664V506H208.764ZM225.93 506V490.6H228.218V495.836C228.218 496.144 228.218 496.452 228.174 496.804C228.768 495.77 229.89 494.978 231.452 494.978C233.872 494.978 235.302 496.584 235.302 499.268V506H233.014V499.576C233.014 497.794 232.288 496.782 230.814 496.782C229.252 496.782 228.218 498.08 228.218 499.664V506H225.93ZM238.176 506V495.33H240.464V506H238.176ZM238.088 493.504V490.974H240.574V493.504H238.088ZM243.461 506V495.33H245.749V495.924C245.749 496.21 245.727 496.474 245.705 496.804C246.277 495.814 247.421 494.978 248.983 494.978C251.403 494.978 252.833 496.584 252.833 499.268V506H250.545V499.576C250.545 497.794 249.841 496.782 248.367 496.782C246.783 496.782 245.749 498.08 245.749 499.664V506H243.461ZM259.711 506.352C256.763 506.352 255.003 504.79 254.893 502.392H257.181C257.247 503.756 258.127 504.614 259.689 504.614C261.031 504.614 261.911 503.998 261.911 503.052C261.911 502.282 261.317 501.842 260.107 501.6L258.655 501.314C256.543 500.918 255.267 499.884 255.267 498.168C255.267 496.342 257.005 494.978 259.535 494.978C262.241 494.978 263.913 496.342 264.023 498.542H261.735C261.625 497.376 260.789 496.716 259.469 496.716C258.325 496.716 257.533 497.222 257.533 498.058C257.533 498.806 258.061 499.18 259.337 499.422L260.811 499.708C262.813 500.104 264.155 501.05 264.155 502.876C264.155 504.856 262.461 506.352 259.711 506.352ZM266.535 506V495.33H268.823V506H266.535ZM266.447 493.504V490.974H268.933V493.504H266.447ZM276.528 506.352C273.382 506.352 271.182 504.306 271.182 500.654C271.182 497.178 273.558 494.978 276.638 494.978C279.454 494.978 281.236 496.672 281.478 499.136H279.146C279.014 497.838 278.156 496.782 276.616 496.782C274.812 496.782 273.514 498.322 273.514 500.654C273.514 502.986 274.746 504.57 276.594 504.57C278.2 504.57 279.102 503.558 279.278 502.172H281.566C281.28 504.68 279.564 506.352 276.528 506.352ZM283.766 506V490.6H286.054V495.836C286.054 496.144 286.054 496.452 286.01 496.804C286.604 495.77 287.726 494.978 289.288 494.978C291.708 494.978 293.138 496.584 293.138 499.268V506H290.85V499.576C290.85 497.794 290.124 496.782 288.65 496.782C287.088 496.782 286.054 498.08 286.054 499.664V506H283.766ZM300.172 506.176C298.236 506.176 296.916 505.23 296.916 502.854V497.178H294.694V495.33H296.916V491.634H299.204V495.33H301.624V497.178H299.204V502.546C299.204 503.734 299.732 504.262 300.766 504.262C301.03 504.262 301.294 504.24 301.58 504.196V506.022C301.25 506.11 300.722 506.176 300.172 506.176ZM303.746 506V490.6H306.034V506H303.746ZM309.031 506V495.33H311.319V506H309.031ZM308.943 493.504V490.974H311.429V493.504H308.943ZM319.024 506.352C315.878 506.352 313.678 504.306 313.678 500.654C313.678 497.178 316.054 494.978 319.134 494.978C321.95 494.978 323.732 496.672 323.974 499.136H321.642C321.51 497.838 320.652 496.782 319.112 496.782C317.308 496.782 316.01 498.322 316.01 500.654C316.01 502.986 317.242 504.57 319.09 504.57C320.696 504.57 321.598 503.558 321.774 502.172H324.062C323.776 504.68 322.06 506.352 319.024 506.352ZM326.262 506V490.6H328.55V495.836C328.55 496.144 328.55 496.452 328.506 496.804C329.1 495.77 330.222 494.978 331.784 494.978C334.204 494.978 335.634 496.584 335.634 499.268V506H333.346V499.576C333.346 497.794 332.62 496.782 331.146 496.782C329.584 496.782 328.55 498.08 328.55 499.664V506H326.262ZM30.704 535V532.756L38.536 522.966C38.91 522.504 39.24 522.108 39.658 521.646H31.1V519.6H42.452V521.712L34.62 531.502C34.246 531.964 33.85 532.448 33.41 532.932H42.76V535H30.704ZM44.9023 535V524.33H47.1903V535H44.9023ZM44.8143 522.504V519.974H47.3003V522.504H44.8143ZM50.1874 535V524.33H52.4754V524.968C52.4754 525.386 52.4754 525.782 52.4314 526.178C52.9814 524.968 54.0594 523.978 55.6654 523.978C55.8414 523.978 56.0174 523.978 56.1934 524.022V526.244C56.0394 526.222 55.8194 526.178 55.5114 526.178C53.6634 526.178 52.4754 527.168 52.4754 529.522V535H50.1874ZM58.0077 535V519.6H60.2957V528.708C60.5377 528.4 60.8457 528.07 61.1097 527.806L64.4537 524.33H67.3797L62.8477 528.862L67.8417 535H64.8497L61.3077 530.402L60.2957 531.414V535H58.0077ZM72.8546 535.352C70.5446 535.352 69.0266 533.878 69.0266 531.106V524.33H71.3146V530.71C71.3146 532.47 71.9966 533.548 73.5146 533.548C75.0546 533.548 76.0226 532.382 76.0226 530.446V524.33H78.3106V535H76.0446V534.45C76.0446 534.142 76.0666 533.812 76.1106 533.526C75.5826 534.604 74.4606 535.352 72.8546 535.352ZM81.2968 535V519.6H83.5848V535H81.2968ZM89.6619 535.352C87.7259 535.352 85.9879 534.12 85.9879 532.074C85.9879 529.83 87.7479 528.928 89.8379 528.642L91.7519 528.356C92.5879 528.246 92.8739 527.938 92.8739 527.344C92.8739 526.398 92.1259 525.716 90.9379 525.716C89.4859 525.716 88.6719 526.508 88.6059 527.718H86.2739C86.3839 525.628 88.0559 523.978 90.7839 523.978C93.7319 523.978 95.1399 525.628 95.1399 528.356V535H93.0059V534.516C93.0059 534.186 93.0279 533.878 93.0499 533.548C92.4999 534.626 91.3779 535.352 89.6619 535.352ZM88.3419 532.008C88.3419 533.042 89.1559 533.636 90.1679 533.636C91.7299 533.636 92.9179 532.536 92.9179 530.908V529.544C92.7419 529.764 92.3459 529.896 91.7079 530.006L90.4979 530.248C89.2439 530.49 88.3419 530.974 88.3419 532.008ZM97.9901 535V524.33H100.278V524.968C100.278 525.386 100.278 525.782 100.234 526.178C100.784 524.968 101.862 523.978 103.468 523.978C103.644 523.978 103.82 523.978 103.996 524.022V526.244C103.842 526.222 103.622 526.178 103.314 526.178C101.466 526.178 100.278 527.168 100.278 529.522V535H97.9901ZM105.81 535V524.33H108.098V535H105.81ZM105.722 522.504V519.974H108.208V522.504H105.722ZM115.364 535.176C113.428 535.176 112.108 534.23 112.108 531.854V526.178H109.886V524.33H112.108V520.634H114.396V524.33H116.816V526.178H114.396V531.546C114.396 532.734 114.924 533.262 115.958 533.262C116.222 533.262 116.486 533.24 116.772 533.196V535.022C116.442 535.11 115.914 535.176 115.364 535.176ZM122.017 535.352C120.081 535.352 118.343 534.12 118.343 532.074C118.343 529.83 120.103 528.928 122.193 528.642L124.107 528.356C124.943 528.246 125.229 527.938 125.229 527.344C125.229 526.398 124.481 525.716 123.293 525.716C121.841 525.716 121.027 526.508 120.961 527.718H118.629C118.739 525.628 120.411 523.978 123.139 523.978C126.087 523.978 127.495 525.628 127.495 528.356V535H125.361V534.516C125.361 534.186 125.383 533.878 125.405 533.548C124.855 534.626 123.733 535.352 122.017 535.352ZM119.773 522.504V519.974H122.259V522.504H119.773ZM120.697 532.008C120.697 533.042 121.511 533.636 122.523 533.636C124.085 533.636 125.273 532.536 125.273 530.908V529.544C125.097 529.764 124.701 529.896 124.063 530.006L122.853 530.248C121.599 530.49 120.697 530.974 120.697 532.008ZM124.151 522.504V519.974H126.615V522.504H124.151ZM134.506 535.176C132.57 535.176 131.25 534.23 131.25 531.854V526.178H129.028V524.33H131.25V520.634H133.538V524.33H135.958V526.178H133.538V531.546C133.538 532.734 134.066 533.262 135.1 533.262C135.364 533.262 135.628 533.24 135.914 533.196V535.022C135.584 535.11 135.056 535.176 134.506 535.176ZM143.946 535V526.178H141.878V524.33H143.946V522.724C143.946 520.414 145.332 519.226 147.18 519.226C147.752 519.226 148.214 519.336 148.434 519.424V521.272C148.258 521.228 147.994 521.184 147.73 521.184C146.828 521.184 146.234 521.712 146.234 522.68V524.33H148.456V526.178H146.234V535H143.946ZM153.127 535.352C151.191 535.352 149.453 534.12 149.453 532.074C149.453 529.83 151.213 528.928 153.303 528.642L155.217 528.356C156.053 528.246 156.339 527.938 156.339 527.344C156.339 526.398 155.591 525.716 154.403 525.716C152.951 525.716 152.137 526.508 152.071 527.718H149.739C149.849 525.628 151.521 523.978 154.249 523.978C157.197 523.978 158.605 525.628 158.605 528.356V535H156.471V534.516C156.471 534.186 156.493 533.878 156.515 533.548C155.965 534.626 154.843 535.352 153.127 535.352ZM151.807 532.008C151.807 533.042 152.621 533.636 153.633 533.636C155.195 533.636 156.383 532.536 156.383 530.908V529.544C156.207 529.764 155.811 529.896 155.173 530.006L153.963 530.248C152.709 530.49 151.807 530.974 151.807 532.008ZM165.459 535.352C162.511 535.352 160.751 533.79 160.641 531.392H162.929C162.995 532.756 163.875 533.614 165.437 533.614C166.779 533.614 167.659 532.998 167.659 532.052C167.659 531.282 167.065 530.842 165.855 530.6L164.403 530.314C162.291 529.918 161.015 528.884 161.015 527.168C161.015 525.342 162.753 523.978 165.283 523.978C167.989 523.978 169.661 525.342 169.771 527.542H167.483C167.373 526.376 166.537 525.716 165.217 525.716C164.073 525.716 163.281 526.222 163.281 527.058C163.281 527.806 163.809 528.18 165.085 528.422L166.559 528.708C168.561 529.104 169.903 530.05 169.903 531.876C169.903 533.856 168.209 535.352 165.459 535.352ZM176.287 535.352C173.339 535.352 171.579 533.79 171.469 531.392H173.757C173.823 532.756 174.703 533.614 176.265 533.614C177.607 533.614 178.487 532.998 178.487 532.052C178.487 531.282 177.893 530.842 176.683 530.6L175.231 530.314C173.119 529.918 171.843 528.884 171.843 527.168C171.843 525.342 173.581 523.978 176.111 523.978C178.817 523.978 180.489 525.342 180.599 527.542H178.311C178.201 526.376 177.365 525.716 176.045 525.716C174.901 525.716 174.109 526.222 174.109 527.058C174.109 527.806 174.637 528.18 175.913 528.422L177.387 528.708C179.389 529.104 180.731 530.05 180.731 531.876C180.731 533.856 179.037 535.352 176.287 535.352ZM187.775 535.352C184.585 535.352 182.473 533.328 182.473 529.632C182.473 526.31 184.673 523.978 187.687 523.978C190.899 523.978 192.725 526.222 192.725 529.676V530.16H184.783C184.827 532.228 186.059 533.57 187.797 533.57C189.029 533.57 190.107 532.976 190.327 531.612H192.637C192.417 533.636 190.745 535.352 187.775 535.352ZM184.805 528.532H190.327C190.305 526.86 189.315 525.716 187.665 525.716C186.059 525.716 184.959 526.926 184.805 528.532ZM195.1 535V524.33H197.388V524.924C197.388 525.21 197.366 525.474 197.344 525.804C197.916 524.814 199.06 523.978 200.622 523.978C203.042 523.978 204.472 525.584 204.472 528.268V535H202.184V528.576C202.184 526.794 201.48 525.782 200.006 525.782C198.422 525.782 197.388 527.08 197.388 528.664V535H195.1ZM207.148 535V532.074H210.074V535H207.148ZM34.378 564L30.264 548.6H32.904L35.566 559.226C35.764 559.974 35.94 560.656 36.116 561.492C36.27 560.678 36.468 559.952 36.644 559.226L39.438 548.6H42.76L45.422 559.226C45.62 559.974 45.818 560.7 45.972 561.514C46.148 560.656 46.302 559.974 46.5 559.226L49.25 548.6H51.736L47.622 564H44.41L41.594 552.758C41.462 552.164 41.264 551.504 41.11 550.668C40.912 551.504 40.758 552.164 40.604 552.758L37.612 564H34.378ZM53.496 564V553.33H55.784V564H53.496ZM53.408 551.504V548.974H55.894V551.504H53.408ZM63.4452 564.352C60.2552 564.352 58.1432 562.328 58.1432 558.632C58.1432 555.31 60.3432 552.978 63.3572 552.978C66.5692 552.978 68.3952 555.222 68.3952 558.676V559.16H60.4532C60.4972 561.228 61.7292 562.57 63.4672 562.57C64.6992 562.57 65.7772 561.976 65.9972 560.612H68.3072C68.0872 562.636 66.4152 564.352 63.4452 564.352ZM60.4752 557.532H65.9972C65.9752 555.86 64.9852 554.716 63.3352 554.716C61.7292 554.716 60.6292 555.926 60.4752 557.532ZM75.0374 564.352C72.2214 564.352 70.1314 562.372 70.1314 558.676C70.1314 555.156 72.3094 552.978 75.0814 552.978C76.7974 552.978 77.8974 553.88 78.4474 554.804C78.4034 554.474 78.4034 554.166 78.4034 553.858V548.6H80.6914V564H78.4034V563.472C78.4034 563.12 78.4034 562.834 78.4474 562.526C77.9414 563.406 76.8194 564.352 75.0374 564.352ZM72.4854 558.676C72.4854 561.03 73.7394 562.57 75.5214 562.57C77.2594 562.57 78.5354 561.008 78.5354 558.654C78.5354 556.3 77.2814 554.782 75.5214 554.782C73.7614 554.782 72.4854 556.366 72.4854 558.676ZM88.3455 564.352C85.1555 564.352 83.0435 562.328 83.0435 558.632C83.0435 555.31 85.2435 552.978 88.2575 552.978C91.4695 552.978 93.2955 555.222 93.2955 558.676V559.16H85.3535C85.3975 561.228 86.6295 562.57 88.3675 562.57C89.5995 562.57 90.6775 561.976 90.8975 560.612H93.2075C92.9875 562.636 91.3155 564.352 88.3455 564.352ZM85.3755 557.532H90.8975C90.8755 555.86 89.8855 554.716 88.2355 554.716C86.6295 554.716 85.5295 555.926 85.3755 557.532ZM95.6698 564V553.33H97.9578V553.968C97.9578 554.386 97.9578 554.782 97.9138 555.178C98.4638 553.968 99.5418 552.978 101.148 552.978C101.324 552.978 101.5 552.978 101.676 553.022V555.244C101.522 555.222 101.302 555.178 100.994 555.178C99.1458 555.178 97.9578 556.168 97.9578 558.522V564H95.6698ZM106.262 564L102.214 553.33H104.678L107.208 560.7C107.384 561.162 107.472 561.492 107.582 561.91C107.692 561.492 107.802 561.162 107.956 560.7L110.442 553.33H112.818L108.836 564H106.262ZM118.982 564.352C115.792 564.352 113.68 562.328 113.68 558.632C113.68 555.31 115.88 552.978 118.894 552.978C122.106 552.978 123.932 555.222 123.932 558.676V559.16H115.99C116.034 561.228 117.266 562.57 119.004 562.57C120.236 562.57 121.314 561.976 121.534 560.612H123.844C123.624 562.636 121.952 564.352 118.982 564.352ZM116.012 557.532H121.534C121.512 555.86 120.522 554.716 118.872 554.716C117.266 554.716 116.166 555.926 116.012 557.532ZM126.307 564V553.33H128.595V553.968C128.595 554.386 128.595 554.782 128.551 555.178C129.101 553.968 130.179 552.978 131.785 552.978C131.961 552.978 132.137 552.978 132.313 553.022V555.244C132.159 555.222 131.939 555.178 131.631 555.178C129.783 555.178 128.595 556.168 128.595 558.522V564H126.307ZM136.239 564L132.873 553.33H135.271L137.405 560.898C137.493 561.228 137.581 561.58 137.647 561.932C137.735 561.558 137.823 561.206 137.911 560.898L139.957 553.33H142.927L145.039 560.898C145.127 561.206 145.215 561.536 145.281 561.91C145.369 561.536 145.435 561.206 145.545 560.876L147.657 553.33H149.901L146.601 564H143.851L141.695 556.322C141.629 556.036 141.541 555.684 141.453 555.266C141.387 555.684 141.299 556.014 141.189 556.322L139.055 564H136.239ZM156.236 564.352C153.046 564.352 150.934 562.328 150.934 558.632C150.934 555.31 153.134 552.978 156.148 552.978C159.36 552.978 161.186 555.222 161.186 558.676V559.16H153.244C153.288 561.228 154.52 562.57 156.258 562.57C157.49 562.57 158.568 561.976 158.788 560.612H161.098C160.878 562.636 159.206 564.352 156.236 564.352ZM153.266 557.532H158.788C158.766 555.86 157.776 554.716 156.126 554.716C154.52 554.716 153.42 555.926 153.266 557.532ZM163.56 564V553.33H165.848V553.924C165.848 554.21 165.826 554.474 165.804 554.804C166.376 553.814 167.52 552.978 169.082 552.978C171.502 552.978 172.932 554.584 172.932 557.268V564H170.644V557.576C170.644 555.794 169.94 554.782 168.466 554.782C166.882 554.782 165.848 556.08 165.848 557.664V564H163.56ZM180.075 564.352C177.259 564.352 175.169 562.372 175.169 558.676C175.169 555.156 177.347 552.978 180.119 552.978C181.835 552.978 182.935 553.88 183.485 554.804C183.441 554.474 183.441 554.166 183.441 553.858V548.6H185.729V564H183.441V563.472C183.441 563.12 183.441 562.834 183.485 562.526C182.979 563.406 181.857 564.352 180.075 564.352ZM177.523 558.676C177.523 561.03 178.777 562.57 180.559 562.57C182.297 562.57 183.573 561.008 183.573 558.654C183.573 556.3 182.319 554.782 180.559 554.782C178.799 554.782 177.523 556.366 177.523 558.676ZM194.417 564.352C192.789 564.352 191.579 563.582 190.963 562.526C191.007 562.878 191.007 563.164 191.007 563.494V564H188.719V548.6H191.007V553.858C191.007 554.188 190.985 554.496 190.963 554.804C191.645 553.77 192.789 552.978 194.417 552.978C197.255 552.978 199.301 555.266 199.301 558.676C199.301 562.152 197.299 564.352 194.417 564.352ZM190.875 558.676C190.875 560.986 192.129 562.57 193.911 562.57C195.715 562.57 196.947 560.986 196.947 558.676C196.947 556.388 195.715 554.782 193.911 554.782C192.129 554.782 190.875 556.3 190.875 558.676ZM204.689 564.352C202.753 564.352 201.015 563.12 201.015 561.074C201.015 558.83 202.775 557.928 204.865 557.642L206.779 557.356C207.615 557.246 207.901 556.938 207.901 556.344C207.901 555.398 207.153 554.716 205.965 554.716C204.513 554.716 203.699 555.508 203.633 556.718H201.301C201.411 554.628 203.083 552.978 205.811 552.978C208.759 552.978 210.167 554.628 210.167 557.356V564H208.033V563.516C208.033 563.186 208.055 562.878 208.077 562.548C207.527 563.626 206.405 564.352 204.689 564.352ZM203.369 561.008C203.369 562.042 204.183 562.636 205.195 562.636C206.757 562.636 207.945 561.536 207.945 559.908V558.544C207.769 558.764 207.373 558.896 206.735 559.006L205.525 559.248C204.271 559.49 203.369 559.974 203.369 561.008ZM213.017 564V553.33H215.305V553.968C215.305 554.386 215.305 554.782 215.261 555.178C215.811 553.968 216.889 552.978 218.495 552.978C218.671 552.978 218.847 552.978 219.023 553.022V555.244C218.869 555.222 218.649 555.178 218.341 555.178C216.493 555.178 215.305 556.168 215.305 558.522V564H213.017ZM220.838 564V548.6H223.126V557.708C223.368 557.4 223.676 557.07 223.94 556.806L227.284 553.33H230.21L225.678 557.862L230.672 564H227.68L224.138 559.402L223.126 560.414V564H220.838ZM236.201 564.352C233.011 564.352 230.899 562.328 230.899 558.632C230.899 555.31 233.099 552.978 236.113 552.978C239.325 552.978 241.151 555.222 241.151 558.676V559.16H233.209C233.253 561.228 234.485 562.57 236.223 562.57C237.455 562.57 238.533 561.976 238.753 560.612H241.063C240.843 562.636 239.171 564.352 236.201 564.352ZM233.231 557.532H238.753C238.731 555.86 237.741 554.716 236.091 554.716C234.485 554.716 233.385 555.926 233.231 557.532ZM243.525 564V553.33H245.813V564H243.525ZM243.437 551.504V548.974H245.923V551.504H243.437ZM253.078 564.176C251.142 564.176 249.822 563.23 249.822 560.854V555.178H247.6V553.33H249.822V549.634H252.11V553.33H254.53V555.178H252.11V560.546C252.11 561.734 252.638 562.262 253.672 562.262C253.936 562.262 254.2 562.24 254.486 562.196V564.022C254.156 564.11 253.628 564.176 253.078 564.176ZM261.572 568.532V553.33H263.86V553.946C263.86 554.232 263.86 554.496 263.816 554.826C264.454 553.77 265.686 552.978 267.336 552.978C270.284 552.978 272.132 555.354 272.132 558.676C272.132 562.108 270.086 564.352 267.248 564.352C265.598 564.352 264.498 563.604 263.816 562.526C263.86 562.878 263.86 563.164 263.86 563.472V568.532H261.572ZM263.75 558.654C263.75 560.986 265.004 562.57 266.786 562.57C268.59 562.57 269.778 560.964 269.778 558.654C269.778 556.388 268.612 554.782 266.786 554.782C265.026 554.782 263.75 556.278 263.75 558.654ZM274.463 564V553.33H276.751V553.968C276.751 554.386 276.751 554.782 276.707 555.178C277.257 553.968 278.335 552.978 279.941 552.978C280.117 552.978 280.293 552.978 280.469 553.022V555.244C280.315 555.222 280.095 555.178 279.787 555.178C277.939 555.178 276.751 556.168 276.751 558.522V564H274.463ZM286.001 564.352C283.691 564.352 282.173 562.878 282.173 560.106V553.33H284.461V559.71C284.461 561.47 285.143 562.548 286.661 562.548C288.201 562.548 289.169 561.382 289.169 559.446V553.33H291.457V564H289.191V563.45C289.191 563.142 289.213 562.812 289.257 562.526C288.729 563.604 287.607 564.352 286.001 564.352ZM283.493 551.504V548.974H285.979V551.504H283.493ZM287.871 551.504V548.974H290.335V551.504H287.871ZM295.389 564V555.178H293.321V553.33H295.389V551.724C295.389 549.414 296.775 548.226 298.623 548.226C299.195 548.226 299.657 548.336 299.877 548.424V550.272C299.701 550.228 299.437 550.184 299.173 550.184C298.271 550.184 297.677 550.712 297.677 551.68V553.33H299.899V555.178H297.677V564H295.389ZM306.176 564.352C302.986 564.352 300.874 562.328 300.874 558.632C300.874 555.31 303.074 552.978 306.088 552.978C309.3 552.978 311.126 555.222 311.126 558.676V559.16H303.184C303.228 561.228 304.46 562.57 306.198 562.57C307.43 562.57 308.508 561.976 308.728 560.612H311.038C310.818 562.636 309.146 564.352 306.176 564.352ZM303.206 557.532H308.728C308.706 555.86 307.716 554.716 306.066 554.716C304.46 554.716 303.36 555.926 303.206 557.532ZM313.5 564V553.33H315.788V553.924C315.788 554.21 315.766 554.474 315.744 554.804C316.316 553.814 317.46 552.978 319.022 552.978C321.442 552.978 322.872 554.584 322.872 557.268V564H320.584V557.576C320.584 555.794 319.88 554.782 318.406 554.782C316.822 554.782 315.788 556.08 315.788 557.664V564H313.5ZM325.548 564V561.074H328.474V564H325.548ZM30.704 593V590.756L38.536 580.966C38.91 580.504 39.24 580.108 39.658 579.646H31.1V577.6H42.452V579.712L34.62 589.502C34.246 589.964 33.85 590.448 33.41 590.932H42.76V593H30.704ZM44.9023 593V582.33H47.1903V593H44.9023ZM44.8143 580.504V577.974H47.3003V580.504H44.8143ZM50.1874 593V582.33H52.4754V582.968C52.4754 583.386 52.4754 583.782 52.4314 584.178C52.9814 582.968 54.0594 581.978 55.6654 581.978C55.8414 581.978 56.0174 581.978 56.1934 582.022V584.244C56.0394 584.222 55.8194 584.178 55.5114 584.178C53.6634 584.178 52.4754 585.168 52.4754 587.522V593H50.1874ZM58.0077 593V577.6H60.2957V586.708C60.5377 586.4 60.8457 586.07 61.1097 585.806L64.4537 582.33H67.3797L62.8477 586.862L67.8417 593H64.8497L61.3077 588.402L60.2957 589.414V593H58.0077ZM72.8546 593.352C70.5446 593.352 69.0266 591.878 69.0266 589.106V582.33H71.3146V588.71C71.3146 590.47 71.9966 591.548 73.5146 591.548C75.0546 591.548 76.0226 590.382 76.0226 588.446V582.33H78.3106V593H76.0446V592.45C76.0446 592.142 76.0666 591.812 76.1106 591.526C75.5826 592.604 74.4606 593.352 72.8546 593.352ZM81.2968 593V577.6H83.5848V593H81.2968ZM89.6619 593.352C87.7259 593.352 85.9879 592.12 85.9879 590.074C85.9879 587.83 87.7479 586.928 89.8379 586.642L91.7519 586.356C92.5879 586.246 92.8739 585.938 92.8739 585.344C92.8739 584.398 92.1259 583.716 90.9379 583.716C89.4859 583.716 88.6719 584.508 88.6059 585.718H86.2739C86.3839 583.628 88.0559 581.978 90.7839 581.978C93.7319 581.978 95.1399 583.628 95.1399 586.356V593H93.0059V592.516C93.0059 592.186 93.0279 591.878 93.0499 591.548C92.4999 592.626 91.3779 593.352 89.6619 593.352ZM87.4179 580.504V577.974H89.9039V580.504H87.4179ZM88.3419 590.008C88.3419 591.042 89.1559 591.636 90.1679 591.636C91.7299 591.636 92.9179 590.536 92.9179 588.908V587.544C92.7419 587.764 92.3459 587.896 91.7079 588.006L90.4979 588.248C89.2439 588.49 88.3419 588.974 88.3419 590.008ZM91.7959 580.504V577.974H94.2599V580.504H91.7959ZM97.9901 593V582.33H100.278V582.968C100.278 583.386 100.278 583.782 100.234 584.178C100.784 582.968 101.862 581.978 103.468 581.978C103.644 581.978 103.82 581.978 103.996 582.022V584.244C103.842 584.222 103.622 584.178 103.314 584.178C101.466 584.178 100.278 585.168 100.278 587.522V593H97.9901ZM110.567 593V577.6H116.793C119.741 577.6 122.249 578.766 122.249 582.088C122.249 585.454 119.741 586.576 116.793 586.576H113.009V593H110.567ZM113.009 584.53H116.793C118.883 584.53 119.741 583.584 119.741 582.088C119.741 580.592 118.905 579.646 116.793 579.646H113.009V584.53ZM124.244 593V577.6H126.532V593H124.244ZM132.609 593.352C130.673 593.352 128.935 592.12 128.935 590.074C128.935 587.83 130.695 586.928 132.785 586.642L134.699 586.356C135.535 586.246 135.821 585.938 135.821 585.344C135.821 584.398 135.073 583.716 133.885 583.716C132.433 583.716 131.619 584.508 131.553 585.718H129.221C129.331 583.628 131.003 581.978 133.731 581.978C136.679 581.978 138.087 583.628 138.087 586.356V593H135.953V592.516C135.953 592.186 135.975 591.878 135.997 591.548C135.447 592.626 134.325 593.352 132.609 593.352ZM131.289 590.008C131.289 591.042 132.103 591.636 133.115 591.636C134.677 591.636 135.865 590.536 135.865 588.908V587.544C135.689 587.764 135.293 587.896 134.655 588.006L133.445 588.248C132.191 588.49 131.289 588.974 131.289 590.008ZM140.937 593V582.33H143.225V582.924C143.225 583.21 143.203 583.474 143.181 583.804C143.753 582.814 144.897 581.978 146.459 581.978C148.879 581.978 150.309 583.584 150.309 586.268V593H148.021V586.576C148.021 584.794 147.317 583.782 145.843 583.782C144.259 583.782 143.225 585.08 143.225 586.664V593H140.937ZM157.848 593.352C154.658 593.352 152.546 591.328 152.546 587.632C152.546 584.31 154.746 581.978 157.76 581.978C160.972 581.978 162.797 584.222 162.797 587.676V588.16H154.856C154.9 590.228 156.132 591.57 157.87 591.57C159.102 591.57 160.18 590.976 160.4 589.612H162.71C162.49 591.636 160.818 593.352 157.848 593.352ZM154.878 586.532H160.4C160.378 584.86 159.388 583.716 157.738 583.716C156.132 583.716 155.032 584.926 154.878 586.532ZM165.172 593V582.33H167.46V582.924C167.46 583.21 167.438 583.474 167.416 583.804C167.988 582.814 169.132 581.978 170.694 581.978C173.114 581.978 174.544 583.584 174.544 586.268V593H172.256V586.576C172.256 584.794 171.552 583.782 170.078 583.782C168.494 583.782 167.46 585.08 167.46 586.664V593H165.172ZM177.22 593V590.074H180.146V593H177.22Z" fill="white"/>
<path d="M304.807 208.727C304.657 208.499 304.588 208.256 304.632 207.981C304.782 208.209 304.853 208.452 304.807 208.727Z" fill="white"/>
<path d="M148.321 302.241C118.762 274.869 107.502 231.973 119.624 193.821C119.82 193.198 120.176 192.605 120.082 191.91C119.571 191.511 118.935 191.414 118.346 191.205C116.191 190.448 114.031 189.715 111.874 188.964C111.546 188.849 111.172 188.811 110.926 188.499C111.116 188.1 111.537 188.029 111.877 187.863C119.599 184.078 126.88 179.744 134.626 176.16C135.882 175.577 136.253 175.686 136.883 176.908C140.813 184.531 144.886 192.31 148.28 200.184C148.467 200.627 148.655 201.073 148.249 201.5C147.888 201.88 147.454 201.78 147.037 201.656C145.076 201.066 143.14 200.402 141.207 199.729C139.582 199.165 139.215 199.33 138.713 200.951C130.504 227.503 136.457 257.222 154.073 278.765C156.392 281.602 158.861 284.296 161.496 286.843C162.601 287.911 151.284 289.912 149.322 290.219C147.863 290.447 147.548 290.865 147.748 292.386C147.902 293.546 149.414 303.253 148.321 302.241Z" fill="#24B54A"/>
<path d="M263.203 298.298C235.095 314.615 198.399 314.011 171.466 295.71C170.022 294.728 169.941 294.363 170.923 292.957C172.229 291.083 173.648 289.291 174.92 287.392C175.701 286.224 175.23 285.395 173.822 285.612C165.247 286.941 156.724 288.742 148.184 290.285C147.613 290.388 147.485 290.6 147.548 291.198C148.358 299.707 150.227 308.26 151.613 316.694C151.8 317.818 152.046 317.834 152.748 316.993C154.318 315.096 155.658 312.96 157.115 310.973C157.79 310.05 158.12 310.206 158.98 310.82C192.142 334.422 237.677 335.275 272.849 315.157" stroke="white"/>
<path d="M262.699 314.302C261.956 314.198 261.363 314.045 261.48 313.164C262.156 308.009 262.576 302.568 263.069 297.667C263.403 294.3 264.027 290.97 264.426 287.613C264.491 287.067 264.685 286.33 265.292 286.207C265.872 286.091 266.15 286.522 266.443 286.877C267.899 288.632 269.144 290.559 270.623 292.298C271.4 293.209 271.836 293.271 272.84 292.57C274.424 291.463 275.861 290.172 277.304 288.894C299.645 269.104 309.727 238.026 304.156 208.832C303.725 206.575 312.954 211.947 315.977 213.272C317.093 213.762 317.425 213.41 318.055 212.167C318.807 210.681 322.503 203.053 322.786 204.452C330.674 243.4 315.252 284.052 283.776 308.267C283.465 308.507 283.156 308.75 282.857 309.006C282.726 309.118 282.71 309.283 282.81 309.429C284.513 311.931 286.449 314.287 288.266 316.706C288.496 317.015 288.799 317.286 288.889 317.732C288.674 317.969 288.39 317.875 288.144 317.841C286.274 317.582 284.403 317.308 282.532 317.046C275.898 316.12 269.331 315.214 262.699 314.302Z" fill="#24B54A"/>
<path d="M231.42 121.478C270.004 126.688 305.669 154.461 318.637 190.969C319.17 192.468 319.042 192.419 320.623 191.907C323.279 191.044 325.935 190.18 328.595 189.32C328.894 189.223 329.196 189.148 329.502 189.077C329.67 189.039 329.801 189.217 329.726 189.385C329.586 189.709 329.439 190.03 329.277 190.345C325.475 197.822 321.705 205.272 317.917 212.748C317.297 213.97 317.284 213.977 316.059 213.356C308.231 209.385 300.83 206.058 292.883 202.18C292.446 201.968 292.038 201.706 292.11 201.123C292.178 200.549 292.643 200.371 293.095 200.228C295.047 199.611 297.001 199.006 298.934 198.329C300.418 197.812 300.562 197.534 300.041 196.082C289.567 167.013 261.148 145.439 230.726 140.801" stroke="white"/>
<path d="M141.428 187.48C141.633 187.901 141.883 188.3 142.113 188.708V188.715C142.703 188.799 142.977 188.428 143.158 187.96C143.457 187.184 143.919 186.495 144.299 185.762C158.313 158.847 187.349 140.306 217.82 139.993C219.099 139.978 219.37 140.149 219.392 141.424C219.438 144.128 219.234 146.872 219.438 149.57C219.473 150.023 219.582 150.434 220.068 150.609C220.501 150.761 220.829 150.559 221.137 150.288C221.643 149.848 222.107 149.365 222.584 148.897C228.327 143.285 233.821 137.567 239.531 131.922C240.657 130.806 240.65 130.397 239.553 129.275C233.59 123.173 227.224 117.841 221.144 111.767C220.894 111.514 220.639 111.268 220.377 111.031C220.333 110.994 220.224 110.991 220.168 111.019C220.115 111.044 220.056 111.131 220.056 111.193C220.037 111.508 220.037 111.823 220.037 112.138V119.461C220.037 119.776 220.037 120.091 220.025 120.406C220.018 120.63 219.906 120.774 219.669 120.783C219.473 120.792 219.276 120.798 219.08 120.798C179.465 121.179 142.335 144.916 125.322 180.946C125.288 181.061 125.257 181.173 125.226 181.289C125.659 181.105 126.102 180.946 126.522 180.74C129.275 179.406 132.025 178.065 134.772 176.718C135.978 176.126 135.881 176.117 136.474 177.329C138.126 180.712 139.772 184.097 141.428 187.48Z" stroke="#24B54A" stroke-linecap="square" stroke-linejoin="round"/>
<path d="M364.102 217.319H343.035V250.504H364.102V217.319Z" stroke="white" stroke-linejoin="round"/>
<path d="M360.246 222.553H346.891V245.272H360.246V222.553Z" stroke="white" stroke-linejoin="round"/>
<path d="M353.568 222.139V245.27" stroke="white" stroke-linejoin="round"/>
<path d="M346.96 230.399H360.178" stroke="white" stroke-linejoin="round"/>
<path d="M294.188 122.382C294.188 120.324 292.52 118.656 290.463 118.656C288.405 118.656 286.737 120.324 286.737 122.382C286.737 124.439 288.405 126.107 290.463 126.107C292.52 126.107 294.188 124.439 294.188 122.382Z" stroke="white" stroke-linejoin="round"/>
<path d="M306.718 118.666H306.861C308.909 118.666 310.58 120.34 310.58 122.385C310.58 124.43 308.906 126.105 306.861 126.105H306.718" stroke="white" stroke-linejoin="round"/>
<path d="M306.861 118.666H306.718H290.45H290.335" stroke="white" stroke-linejoin="round"/>
<path d="M312.426 126.113H312.57C314.618 126.113 316.289 127.787 316.289 129.833C316.289 131.878 314.615 133.552 312.57 133.552H284.608" stroke="white" stroke-linejoin="round"/>
<path d="M284.768 126.104H296.047H296.162H299.913" stroke="white" stroke-linejoin="round"/>
<path d="M301.988 126.104H312.429H312.572" stroke="white" stroke-linejoin="round"/>
<path d="M300.09 126.509L299.392 123.912L300.863 123.713L302.119 126.35" stroke="white" stroke-linejoin="round"/>
<path d="M288.48 129.833C288.48 127.775 286.812 126.107 284.755 126.107C282.697 126.107 281.029 127.775 281.029 129.833C281.029 131.89 282.697 133.558 284.755 133.558C286.812 133.558 288.48 131.89 288.48 129.833Z" stroke="white" stroke-linejoin="round"/>
<path d="M299.893 129.833C299.893 127.775 298.225 126.107 296.168 126.107C294.11 126.107 292.442 127.775 292.442 129.833C292.442 131.89 294.11 133.558 296.168 133.558C298.225 133.558 299.893 131.89 299.893 129.833Z" stroke="white" stroke-linejoin="round"/>
<path d="M63.1729 210.928L85.3287 223.733L94.7737 225.507H94.7956L72.6179 212.699L63.1729 210.928Z" stroke="white" stroke-linecap="round" stroke-linejoin="round"/>
<path d="M63.1755 210.928L56 222.302" stroke="white" stroke-linecap="round" stroke-linejoin="round"/>
<path d="M78.1533 235.108L85.3288 223.733" stroke="white" stroke-linecap="round" stroke-linejoin="round"/>
<path d="M78.168 257.504L94.7958 247.903L94.7739 225.507" stroke="white" stroke-linecap="round" stroke-linejoin="round"/>
<path d="M78.1558 235.107H78.168V257.504L56 244.698V222.302L78.1534 235.107" stroke="white" stroke-linecap="round" stroke-linejoin="round"/>
<path d="M63.7802 233.018V241.579L59.3359 239.013L59.3262 239.008V230.447L63.7802 233.018Z" stroke="white" stroke-linejoin="round"/>
<path d="M73.7069 246.727V238.167L69.2529 235.596V244.156L69.2626 244.161L73.7069 246.727Z" stroke="white" stroke-linejoin="round"/>
<path d="M210.326 366.179C209.615 363.264 207.321 362.095 205.297 362.086C203.48 362.077 201.026 363.027 200.228 366.182C199.221 366.182 198.202 366.21 197.182 366.173C196.397 366.145 195.923 365.593 195.923 364.776C195.916 361.812 195.923 358.847 195.923 355.882C195.923 352.69 195.929 349.497 195.926 346.305C195.926 345.011 196.403 344.553 197.809 344.55C200.415 344.54 203.021 344.537 205.628 344.537C208.917 344.537 212.203 344.537 215.492 344.55C217.119 344.553 217.574 344.986 217.574 346.507C217.574 352.481 217.574 358.457 217.568 364.43C217.568 365.761 217.119 366.176 215.688 366.176C213.911 366.176 212.134 366.176 210.329 366.176L210.326 366.179Z" stroke="white" stroke-linejoin="round"/>
<path d="M230.481 366.188C230.182 364.947 229.608 363.887 228.545 363.111C225.711 361.044 221.717 362.251 220.604 365.499C220.523 365.736 220.286 366.154 220.237 366.138C219.884 366.035 219.47 365.911 219.258 365.658C219.043 365.399 218.955 364.988 218.955 364.642C218.937 360.218 218.943 355.791 218.946 351.367C218.946 350.544 219.504 349.967 220.383 349.958C222.575 349.936 224.77 349.927 226.961 349.977C227.382 349.986 227.949 350.167 228.19 350.454C229.789 352.365 231.363 354.298 232.835 356.296C233.215 356.814 233.315 357.587 233.333 358.245C233.396 360.365 233.362 362.488 233.362 364.608C233.362 365.721 232.872 366.179 231.684 366.185C231.295 366.185 230.908 366.185 230.481 366.185V366.188ZM230.917 358.008C230.824 357.789 230.793 357.652 230.715 357.546C229.586 356.044 228.455 354.538 227.301 353.051C227.173 352.885 226.899 352.73 226.687 352.723C225.599 352.692 224.511 352.708 223.404 352.708V358.008H230.917Z" stroke="white" stroke-linejoin="round"/>
<path d="M225.496 363.707C227.298 363.707 228.854 365.175 228.82 366.846C228.785 368.614 227.298 369.995 225.418 370.008C223.604 370.02 222.086 368.595 222.092 366.887C222.098 365.057 223.545 363.704 225.496 363.707Z" stroke="white" stroke-linejoin="round"/>
<path d="M205.104 369.976C203.155 369.839 201.768 368.371 201.921 366.597C202.067 364.867 203.704 363.573 205.571 363.707C207.345 363.835 208.77 365.359 208.642 367.002C208.505 368.795 206.943 370.104 205.104 369.976Z" stroke="white" stroke-linejoin="round"/>
<path fill-rule="evenodd" clip-rule="evenodd" d="M145.922 130.935C145.953 130.982 145.98 131.007 146.041 131.007C146.852 131.007 147.661 131.011 148.47 131.015C150.559 131.015 152.207 128.434 151.107 126.593C150.767 126.024 150.416 125.439 150.064 124.851C149.384 123.714 148.696 122.567 148.065 121.504C147.307 121.924 146.549 122.343 145.792 122.762C144.599 123.422 143.407 124.082 142.217 124.743C143.461 126.816 144.691 128.873 145.922 130.935ZM147.71 122.848C148.556 124.268 149.405 125.688 150.253 127.107C150.968 128.301 149.813 130.015 148.478 130.017C147.835 130.013 147.187 130.01 146.538 130.009C146.031 129.161 145.523 128.313 145.014 127.465C144.545 126.683 144.076 125.901 143.608 125.119C144.639 124.547 145.67 123.977 146.701 123.406C147.037 123.22 147.374 123.034 147.71 122.848Z" fill="white"/>
<path fill-rule="evenodd" clip-rule="evenodd" d="M149.614 131.484C148.476 133.243 147.321 134.994 146.16 136.739C145.772 137.318 145.204 137.631 144.481 137.631C143.133 137.638 141.787 137.588 140.439 137.588L140.438 137.638C140.427 138.214 140.418 138.79 140.407 139.362L140.404 139.499C140.4 139.503 140.395 139.503 140.391 139.503L140.388 139.499C140.381 139.484 140.372 139.471 140.363 139.457L140.362 139.455C140.352 139.439 140.342 139.423 140.333 139.406C139.381 137.819 138.429 136.231 137.473 134.646C137.447 134.6 137.447 134.566 137.473 134.524C138.418 132.849 139.359 131.171 140.307 129.497C140.325 129.468 140.342 129.442 140.378 129.417L140.325 131.577C143.094 131.577 145.89 131.726 148.659 131.624C148.981 131.611 149.294 131.543 149.598 131.438C149.691 131.393 149.728 131.308 149.614 131.484ZM147.675 132.624L147.628 132.624H147.623C145.174 132.611 142.758 132.577 140.325 132.577H139.717C139.343 133.242 138.969 133.906 138.595 134.57C139 135.243 139.404 135.916 139.808 136.588C141.364 136.588 142.92 136.639 144.476 136.631L144.481 136.631C144.867 136.631 145.125 136.487 145.329 136.183C146.116 135 146.895 133.812 147.675 132.624Z" fill="white"/>
<path fill-rule="evenodd" clip-rule="evenodd" d="M127.238 130.843C127.183 130.846 127.147 130.857 127.117 130.91C126.711 131.612 126.303 132.311 125.895 133.009C124.851 134.818 126.262 137.536 128.407 137.504C129.069 137.494 129.751 137.483 130.437 137.472C131.761 137.451 133.098 137.429 134.335 137.414C134.35 136.548 134.366 135.682 134.381 134.816C134.406 133.453 134.431 132.091 134.453 130.73C132.036 130.771 129.64 130.807 127.238 130.843ZM133.348 136.435C131.695 136.458 130.041 136.483 128.388 136.508C126.997 136.53 126.089 134.673 126.756 133.515C127.08 132.96 127.407 132.401 127.733 131.839C128.721 131.824 129.709 131.808 130.697 131.791C131.609 131.776 132.521 131.761 133.432 131.747C133.412 132.925 133.391 134.104 133.369 135.282C133.362 135.666 133.355 136.051 133.348 136.435Z" fill="white"/>
<path fill-rule="evenodd" clip-rule="evenodd" d="M124.917 133.766C123.963 131.9 123.024 130.025 122.093 128.147C121.786 127.522 121.799 126.873 122.16 126.247C122.828 125.076 123.544 123.935 124.218 122.768L124.176 122.742C123.683 122.444 123.188 122.149 122.698 121.853L122.581 121.782C122.579 121.776 122.582 121.772 122.584 121.768L122.589 121.768C122.605 121.769 122.621 121.768 122.638 121.768L122.64 121.768C122.659 121.767 122.678 121.766 122.697 121.767C124.547 121.736 126.398 121.706 128.249 121.67C128.303 121.67 128.332 121.687 128.355 121.731C129.333 123.387 130.316 125.041 131.291 126.699C131.308 126.729 131.321 126.757 131.325 126.8L129.481 125.674C128.097 128.072 126.569 130.42 125.273 132.869C125.124 133.154 125.026 133.459 124.965 133.775C124.957 133.878 125.012 133.952 124.917 133.766ZM124.9 131.516L124.923 131.476L124.926 131.471C126.161 129.357 127.398 127.281 128.615 125.174L128.919 124.648C128.53 123.992 128.142 123.336 127.754 122.68C126.969 122.694 126.184 122.708 125.399 122.721C124.621 124.069 123.8 125.39 123.029 126.742L123.026 126.747C122.833 127.081 122.829 127.377 122.99 127.705C123.621 128.978 124.261 130.247 124.9 131.516Z" fill="white"/>
<path fill-rule="evenodd" clip-rule="evenodd" d="M136.479 115.2C136.504 115.15 136.513 115.114 136.482 115.061C136.076 114.359 135.675 113.656 135.275 112.953C134.23 111.144 131.171 111.008 130.126 112.881C129.804 113.46 129.472 114.056 129.139 114.655C128.495 115.813 127.845 116.981 127.24 118.06C127.983 118.506 128.725 118.953 129.467 119.399C130.634 120.102 131.802 120.804 132.969 121.505C134.143 119.391 135.309 117.297 136.479 115.2ZM128.581 117.695C129.388 116.252 130.193 114.807 130.998 113.363C131.675 112.147 133.737 112.29 134.406 113.446C134.725 114.004 135.046 114.567 135.369 115.129C134.888 115.993 134.408 116.857 133.928 117.721C133.485 118.518 133.042 119.315 132.599 120.112C131.589 119.505 130.579 118.897 129.569 118.29C129.24 118.092 128.911 117.893 128.581 117.695Z" fill="white"/>
<path fill-rule="evenodd" clip-rule="evenodd" d="M135.057 111.551C137.146 111.551 139.001 111.554 141.125 111.555C141.82 111.601 142.375 111.937 142.737 112.563C143.417 113.726 144.309 115.455 144.983 116.621L145.026 116.598C145.53 116.32 146.033 116.039 146.535 115.763L146.655 115.697C146.661 115.698 146.663 115.702 146.665 115.706L146.662 115.71C146.654 115.724 146.646 115.739 146.639 115.753L146.637 115.755C146.629 115.772 146.62 115.788 146.61 115.804C145.711 117.423 144.812 119.041 143.918 120.662C143.891 120.708 143.861 120.725 143.811 120.723C141.888 120.742 139.965 120.766 138.041 120.782C138.007 120.781 137.976 120.779 137.937 120.761L139.834 119.726C138.449 117.329 137.129 114.655 135.656 112.308C135.484 112.035 135.269 111.798 135.025 111.588C134.94 111.529 134.848 111.54 135.057 111.551ZM136.945 112.547L136.968 112.587L136.971 112.592C138.184 114.718 139.483 117.119 140.7 119.226L141.004 119.753C141.766 119.744 142.528 119.736 143.291 119.728C143.671 119.041 144.051 118.354 144.432 117.668C143.654 116.32 142.659 114.411 141.874 113.068L141.871 113.063C141.678 112.729 141.424 112.577 141.06 112.553C139.648 112.553 138.371 112.547 136.945 112.547Z" fill="white"/>
<rect x="15.5" y="45.5" width="389" height="391" rx="8.5" stroke="white"/>
<rect x="0.5" y="0.5" width="419" height="649" rx="8.5" stroke="white"/>
</svg>
