<svg viewBox="0 0 420 650" fill="none" xmlns="http://www.w3.org/2000/svg">
    <rect width="420" height="650" rx="9" fill="#222222" />
    <rect x="0.5" y="0.5" width="419" height="649" rx="8.5" stroke="white" />
    <rect x="15.5" y="445.5" width="389" height="179" rx="8.5" stroke="white" />
    <path
        d="M30.848 33V17.6H41.21V19.646H33.29V24.046H40.858V26.136H33.29V30.932H41.496V33H30.848ZM43.9882 33V22.33H46.2762V22.99C46.2762 23.254 46.2762 23.54 46.2322 23.804C46.8262 22.814 47.8602 21.978 49.3342 21.978C50.6982 21.978 51.8422 22.836 52.3482 24.024C53.0082 22.88 54.2622 21.978 55.8022 21.978C57.9582 21.978 59.5202 23.496 59.5202 26.268V33H57.2322V26.642C57.2322 24.86 56.6162 23.782 55.2302 23.782C53.8002 23.782 52.8982 25.058 52.8982 26.708V33H50.6102V26.686C50.6102 24.882 50.0162 23.782 48.6302 23.782C47.2222 23.782 46.2762 25.036 46.2762 26.752V33H43.9882ZM62.4003 33V22.33H64.6883V33H62.4003ZM62.3123 20.504V17.974H64.7983V20.504H62.3123ZM71.6895 33.352C68.7415 33.352 66.9815 31.79 66.8715 29.392H69.1595C69.2255 30.756 70.1055 31.614 71.6675 31.614C73.0095 31.614 73.8895 30.998 73.8895 30.052C73.8895 29.282 73.2955 28.842 72.0855 28.6L70.6335 28.314C68.5215 27.918 67.2455 26.884 67.2455 25.168C67.2455 23.342 68.9835 21.978 71.5135 21.978C74.2195 21.978 75.8915 23.342 76.0015 25.542H73.7135C73.6035 24.376 72.7675 23.716 71.4475 23.716C70.3035 23.716 69.5115 24.222 69.5115 25.058C69.5115 25.806 70.0395 26.18 71.3155 26.422L72.7895 26.708C74.7915 27.104 76.1335 28.05 76.1335 29.876C76.1335 31.856 74.4395 33.352 71.6895 33.352ZM82.5176 33.352C79.5696 33.352 77.8096 31.79 77.6996 29.392H79.9876C80.0536 30.756 80.9336 31.614 82.4956 31.614C83.8376 31.614 84.7176 30.998 84.7176 30.052C84.7176 29.282 84.1236 28.842 82.9136 28.6L81.4616 28.314C79.3496 27.918 78.0736 26.884 78.0736 25.168C78.0736 23.342 79.8116 21.978 82.3416 21.978C85.0476 21.978 86.7196 23.342 86.8296 25.542H84.5416C84.4316 24.376 83.5956 23.716 82.2756 23.716C81.1316 23.716 80.3396 24.222 80.3396 25.058C80.3396 25.806 80.8676 26.18 82.1436 26.422L83.6176 26.708C85.6196 27.104 86.9616 28.05 86.9616 29.876C86.9616 31.856 85.2676 33.352 82.5176 33.352ZM89.3417 33V22.33H91.6297V33H89.3417ZM89.2537 20.504V17.974H91.7397V20.504H89.2537ZM99.3349 33.352C96.1889 33.352 93.9889 31.152 93.9889 27.676C93.9889 24.266 96.2109 21.978 99.3349 21.978C102.481 21.978 104.703 24.266 104.703 27.676C104.703 31.152 102.481 33.352 99.3349 33.352ZM96.3209 27.676C96.3209 30.052 97.4869 31.57 99.3349 31.57C101.183 31.57 102.371 30.052 102.371 27.676C102.371 25.256 101.161 23.782 99.3349 23.782C97.5309 23.782 96.3209 25.256 96.3209 27.676ZM107.066 33V22.33H109.354V22.924C109.354 23.21 109.332 23.474 109.31 23.804C109.882 22.814 111.026 21.978 112.588 21.978C115.008 21.978 116.438 23.584 116.438 26.268V33H114.15V26.576C114.15 24.794 113.446 23.782 111.972 23.782C110.388 23.782 109.354 25.08 109.354 26.664V33H107.066ZM123.316 33.352C120.368 33.352 118.608 31.79 118.498 29.392H120.786C120.852 30.756 121.732 31.614 123.294 31.614C124.636 31.614 125.516 30.998 125.516 30.052C125.516 29.282 124.922 28.842 123.712 28.6L122.26 28.314C120.148 27.918 118.872 26.884 118.872 25.168C118.872 23.342 120.61 21.978 123.14 21.978C125.846 21.978 127.518 23.342 127.628 25.542H125.34C125.23 24.376 124.394 23.716 123.074 23.716C121.93 23.716 121.138 24.222 121.138 25.058C121.138 25.806 121.666 26.18 122.942 26.422L124.416 26.708C126.418 27.104 127.76 28.05 127.76 29.876C127.76 31.856 126.066 33.352 123.316 33.352ZM130.141 37.532V22.33H132.429V22.946C132.429 23.232 132.429 23.496 132.385 23.826C133.023 22.77 134.255 21.978 135.905 21.978C138.853 21.978 140.701 24.354 140.701 27.676C140.701 31.108 138.655 33.352 135.817 33.352C134.167 33.352 133.067 32.604 132.385 31.526C132.429 31.878 132.429 32.164 132.429 32.472V37.532H130.141ZM132.319 27.654C132.319 29.986 133.573 31.57 135.355 31.57C137.159 31.57 138.347 29.964 138.347 27.654C138.347 25.388 137.181 23.782 135.355 23.782C133.595 23.782 132.319 25.278 132.319 27.654ZM143.031 33V22.33H145.319V22.968C145.319 23.386 145.319 23.782 145.275 24.178C145.825 22.968 146.903 21.978 148.509 21.978C148.685 21.978 148.861 21.978 149.037 22.022V24.244C148.883 24.222 148.663 24.178 148.355 24.178C146.507 24.178 145.319 25.168 145.319 27.522V33H143.031ZM155.345 33.352C152.199 33.352 149.999 31.152 149.999 27.676C149.999 24.266 152.221 21.978 155.345 21.978C158.491 21.978 160.713 24.266 160.713 27.676C160.713 31.152 158.491 33.352 155.345 33.352ZM152.331 27.676C152.331 30.052 153.497 31.57 155.345 31.57C157.193 31.57 158.381 30.052 158.381 27.676C158.381 25.256 157.171 23.782 155.345 23.782C153.541 23.782 152.331 25.256 152.331 27.676ZM166.138 24.178V33H163.85V24.178H161.782V22.33H163.85V20.724C163.85 18.414 165.236 17.226 167.084 17.226C167.656 17.226 168.118 17.336 168.338 17.424V19.272C168.162 19.228 167.898 19.184 167.634 19.184C166.732 19.184 166.138 19.712 166.138 20.68V22.33H172.452V33H170.164V24.178H166.138ZM170.054 20.504V17.974H172.54V20.504H170.054ZM175.451 33V17.6H177.739V33H175.451Z"
        fill="white" />
    <path
        d="M35.412 477V463.646H30.176V461.6H43.068V463.646H37.854V477H35.412ZM46.9677 477.352C43.8217 477.352 41.6217 475.152 41.6217 471.676C41.6217 468.266 43.8437 465.978 46.9677 465.978C50.1137 465.978 52.3357 468.266 52.3357 471.676C52.3357 475.152 50.1137 477.352 46.9677 477.352ZM43.9537 471.676C43.9537 474.052 45.1197 475.57 46.9677 475.57C48.8157 475.57 50.0037 474.052 50.0037 471.676C50.0037 469.256 48.7937 467.782 46.9677 467.782C45.1637 467.782 43.9537 469.256 43.9537 471.676ZM55.0511 477V461.6H60.0891C65.1711 461.6 68.2951 464.042 68.2951 469.3C68.2951 473.964 65.5671 477 60.3531 477H55.0511ZM57.4931 474.932H60.1331C63.6091 474.932 65.7871 473.238 65.7871 469.3C65.7871 465.714 63.9611 463.646 60.0891 463.646H57.4931V474.932ZM75.4345 477.352C72.2885 477.352 70.0885 475.152 70.0885 471.676C70.0885 468.266 72.3105 465.978 75.4345 465.978C78.5805 465.978 80.8025 468.266 80.8025 471.676C80.8025 475.152 78.5805 477.352 75.4345 477.352ZM72.4205 471.676C72.4205 474.052 73.5865 475.57 75.4345 475.57C77.2825 475.57 78.4705 474.052 78.4705 471.676C78.4705 469.256 77.2605 467.782 75.4345 467.782C73.6305 467.782 72.4205 469.256 72.4205 471.676ZM82.9679 477V474.074H85.8939V477H82.9679ZM82.9679 470.202V467.276H85.8939V470.202H82.9679ZM30.704 506V503.756L38.536 493.966C38.91 493.504 39.24 493.108 39.658 492.646H31.1V490.6H42.452V492.712L34.62 502.502C34.246 502.964 33.85 503.448 33.41 503.932H42.76V506H30.704ZM44.9023 506V495.33H47.1903V506H44.9023ZM44.8143 493.504V490.974H47.3003V493.504H44.8143ZM54.8514 506.352C51.6614 506.352 49.5494 504.328 49.5494 500.632C49.5494 497.31 51.7494 494.978 54.7634 494.978C57.9754 494.978 59.8014 497.222 59.8014 500.676V501.16H51.8594C51.9034 503.228 53.1354 504.57 54.8734 504.57C56.1054 504.57 57.1834 503.976 57.4034 502.612H59.7134C59.4934 504.636 57.8214 506.352 54.8514 506.352ZM51.8814 499.532H57.4034C57.3814 497.86 56.3914 496.716 54.7414 496.716C53.1354 496.716 52.0354 497.926 51.8814 499.532ZM62.1757 506V490.6H64.4637V506H62.1757ZM70.2328 506L66.1848 495.33H68.6488L71.1788 502.7C71.3548 503.162 71.4428 503.492 71.5528 503.91C71.6628 503.492 71.7728 503.162 71.9268 502.7L74.4128 495.33H76.7888L72.8068 506H70.2328ZM82.953 506.352C79.763 506.352 77.651 504.328 77.651 500.632C77.651 497.31 79.851 494.978 82.865 494.978C86.077 494.978 87.903 497.222 87.903 500.676V501.16H79.961C80.005 503.228 81.237 504.57 82.975 504.57C84.207 504.57 85.285 503.976 85.505 502.612H87.815C87.595 504.636 85.923 506.352 82.953 506.352ZM79.983 499.532H85.505C85.483 497.86 84.493 496.716 82.843 496.716C81.237 496.716 80.137 497.926 79.983 499.532ZM90.2773 506V495.33H92.5653V495.968C92.5653 496.386 92.5653 496.782 92.5213 497.178C93.0713 495.968 94.1493 494.978 95.7553 494.978C95.9313 494.978 96.1073 494.978 96.2833 495.022V497.244C96.1293 497.222 95.9093 497.178 95.6013 497.178C93.7533 497.178 92.5653 498.168 92.5653 500.522V506H90.2773ZM102.547 506.352C99.3567 506.352 97.2447 504.328 97.2447 500.632C97.2447 497.31 99.4447 494.978 102.459 494.978C105.671 494.978 107.497 497.222 107.497 500.676V501.16H99.5547C99.5987 503.228 100.831 504.57 102.569 504.57C103.801 504.57 104.879 503.976 105.099 502.612H107.409C107.189 504.636 105.517 506.352 102.547 506.352ZM99.5767 499.532H105.099C105.077 497.86 104.087 496.716 102.437 496.716C100.831 496.716 99.7307 497.926 99.5767 499.532ZM109.871 506V495.33H112.159V506H109.871ZM109.783 493.504V490.974H112.269V493.504H109.783ZM115.156 506V495.33H117.444V495.924C117.444 496.21 117.422 496.474 117.4 496.804C117.972 495.814 119.116 494.978 120.678 494.978C123.098 494.978 124.528 496.584 124.528 499.268V506H122.24V499.576C122.24 497.794 121.536 496.782 120.062 496.782C118.478 496.782 117.444 498.08 117.444 499.664V506H115.156ZM133.1 506.352C131.472 506.352 130.262 505.582 129.646 504.526C129.69 504.878 129.69 505.164 129.69 505.494V506H127.402V490.6H129.69V495.858C129.69 496.188 129.668 496.496 129.646 496.804C130.328 495.77 131.472 494.978 133.1 494.978C135.938 494.978 137.984 497.266 137.984 500.676C137.984 504.152 135.982 506.352 133.1 506.352ZM129.558 500.676C129.558 502.986 130.812 504.57 132.594 504.57C134.398 504.57 135.63 502.986 135.63 500.676C135.63 498.388 134.398 496.782 132.594 496.782C130.812 496.782 129.558 498.3 129.558 500.676ZM143.373 506.352C141.437 506.352 139.699 505.12 139.699 503.074C139.699 500.83 141.459 499.928 143.549 499.642L145.463 499.356C146.299 499.246 146.585 498.938 146.585 498.344C146.585 497.398 145.837 496.716 144.649 496.716C143.197 496.716 142.383 497.508 142.317 498.718H139.985C140.095 496.628 141.767 494.978 144.495 494.978C147.443 494.978 148.851 496.628 148.851 499.356V506H146.717V505.516C146.717 505.186 146.739 504.878 146.761 504.548C146.211 505.626 145.089 506.352 143.373 506.352ZM142.053 503.008C142.053 504.042 142.867 504.636 143.879 504.636C145.441 504.636 146.629 503.536 146.629 501.908V500.544C146.453 500.764 146.057 500.896 145.419 501.006L144.209 501.248C142.955 501.49 142.053 501.974 142.053 503.008ZM151.701 506V495.33H153.989V495.968C153.989 496.386 153.989 496.782 153.945 497.178C154.495 495.968 155.573 494.978 157.179 494.978C157.355 494.978 157.531 494.978 157.707 495.022V497.244C157.553 497.222 157.333 497.178 157.025 497.178C155.177 497.178 153.989 498.168 153.989 500.522V506H151.701ZM163.239 506.352C160.929 506.352 159.411 504.878 159.411 502.106V495.33H161.699V501.71C161.699 503.47 162.381 504.548 163.899 504.548C165.439 504.548 166.407 503.382 166.407 501.446V495.33H168.695V506H166.429V505.45C166.429 505.142 166.451 504.812 166.495 504.526C165.967 505.604 164.845 506.352 163.239 506.352ZM171.682 506V495.33H173.97V495.924C173.97 496.21 173.948 496.474 173.926 496.804C174.498 495.814 175.642 494.978 177.204 494.978C179.624 494.978 181.054 496.584 181.054 499.268V506H178.766V499.576C178.766 497.794 178.062 496.782 176.588 496.782C175.004 496.782 173.97 498.08 173.97 499.664V506H171.682ZM188.57 510.884C185.578 510.884 183.774 509.256 183.774 506.88H186.062C186.084 508.222 187.03 509.102 188.614 509.102C190.308 509.102 191.496 508.156 191.496 506.22V504.988C191.496 504.636 191.518 504.306 191.54 503.976C190.946 504.988 189.758 505.736 188.13 505.736C185.27 505.736 183.312 503.712 183.312 500.368C183.312 497.068 185.534 494.978 188.108 494.978C189.934 494.978 190.946 495.814 191.54 496.804C191.518 496.496 191.496 496.188 191.496 495.858V495.33H193.784V505.56C193.784 509.146 191.848 510.884 188.57 510.884ZM185.666 500.368C185.666 502.502 186.898 503.932 188.658 503.932C190.396 503.932 191.65 502.48 191.65 500.368C191.65 498.278 190.396 496.782 188.658 496.782C186.898 496.782 185.666 498.256 185.666 500.368ZM201.439 506.352C198.249 506.352 196.137 504.328 196.137 500.632C196.137 497.31 198.337 494.978 201.351 494.978C204.563 494.978 206.389 497.222 206.389 500.676V501.16H198.447C198.491 503.228 199.723 504.57 201.461 504.57C202.693 504.57 203.771 503.976 203.991 502.612H206.301C206.081 504.636 204.409 506.352 201.439 506.352ZM198.469 499.532H203.991C203.969 497.86 202.979 496.716 201.329 496.716C199.723 496.716 198.623 497.926 198.469 499.532ZM208.764 506V495.33H211.052V495.924C211.052 496.21 211.03 496.474 211.008 496.804C211.58 495.814 212.724 494.978 214.286 494.978C216.706 494.978 218.136 496.584 218.136 499.268V506H215.848V499.576C215.848 497.794 215.144 496.782 213.67 496.782C212.086 496.782 211.052 498.08 211.052 499.664V506H208.764ZM225.93 506V490.6H228.218V495.836C228.218 496.144 228.218 496.452 228.174 496.804C228.768 495.77 229.89 494.978 231.452 494.978C233.872 494.978 235.302 496.584 235.302 499.268V506H233.014V499.576C233.014 497.794 232.288 496.782 230.814 496.782C229.252 496.782 228.218 498.08 228.218 499.664V506H225.93ZM238.176 506V495.33H240.464V506H238.176ZM238.088 493.504V490.974H240.574V493.504H238.088ZM243.461 506V495.33H245.749V495.924C245.749 496.21 245.727 496.474 245.705 496.804C246.277 495.814 247.421 494.978 248.983 494.978C251.403 494.978 252.833 496.584 252.833 499.268V506H250.545V499.576C250.545 497.794 249.841 496.782 248.367 496.782C246.783 496.782 245.749 498.08 245.749 499.664V506H243.461ZM259.711 506.352C256.763 506.352 255.003 504.79 254.893 502.392H257.181C257.247 503.756 258.127 504.614 259.689 504.614C261.031 504.614 261.911 503.998 261.911 503.052C261.911 502.282 261.317 501.842 260.107 501.6L258.655 501.314C256.543 500.918 255.267 499.884 255.267 498.168C255.267 496.342 257.005 494.978 259.535 494.978C262.241 494.978 263.913 496.342 264.023 498.542H261.735C261.625 497.376 260.789 496.716 259.469 496.716C258.325 496.716 257.533 497.222 257.533 498.058C257.533 498.806 258.061 499.18 259.337 499.422L260.811 499.708C262.813 500.104 264.155 501.05 264.155 502.876C264.155 504.856 262.461 506.352 259.711 506.352ZM266.535 506V495.33H268.823V506H266.535ZM266.447 493.504V490.974H268.933V493.504H266.447ZM276.528 506.352C273.382 506.352 271.182 504.306 271.182 500.654C271.182 497.178 273.558 494.978 276.638 494.978C279.454 494.978 281.236 496.672 281.478 499.136H279.146C279.014 497.838 278.156 496.782 276.616 496.782C274.812 496.782 273.514 498.322 273.514 500.654C273.514 502.986 274.746 504.57 276.594 504.57C278.2 504.57 279.102 503.558 279.278 502.172H281.566C281.28 504.68 279.564 506.352 276.528 506.352ZM283.766 506V490.6H286.054V495.836C286.054 496.144 286.054 496.452 286.01 496.804C286.604 495.77 287.726 494.978 289.288 494.978C291.708 494.978 293.138 496.584 293.138 499.268V506H290.85V499.576C290.85 497.794 290.124 496.782 288.65 496.782C287.088 496.782 286.054 498.08 286.054 499.664V506H283.766ZM300.172 506.176C298.236 506.176 296.916 505.23 296.916 502.854V497.178H294.694V495.33H296.916V491.634H299.204V495.33H301.624V497.178H299.204V502.546C299.204 503.734 299.732 504.262 300.766 504.262C301.03 504.262 301.294 504.24 301.58 504.196V506.022C301.25 506.11 300.722 506.176 300.172 506.176ZM303.746 506V490.6H306.034V506H303.746ZM309.031 506V495.33H311.319V506H309.031ZM308.943 493.504V490.974H311.429V493.504H308.943ZM319.024 506.352C315.878 506.352 313.678 504.306 313.678 500.654C313.678 497.178 316.054 494.978 319.134 494.978C321.95 494.978 323.732 496.672 323.974 499.136H321.642C321.51 497.838 320.652 496.782 319.112 496.782C317.308 496.782 316.01 498.322 316.01 500.654C316.01 502.986 317.242 504.57 319.09 504.57C320.696 504.57 321.598 503.558 321.774 502.172H324.062C323.776 504.68 322.06 506.352 319.024 506.352ZM326.262 506V490.6H328.55V495.836C328.55 496.144 328.55 496.452 328.506 496.804C329.1 495.77 330.222 494.978 331.784 494.978C334.204 494.978 335.634 496.584 335.634 499.268V506H333.346V499.576C333.346 497.794 332.62 496.782 331.146 496.782C329.584 496.782 328.55 498.08 328.55 499.664V506H326.262ZM35.764 535.352C32.948 535.352 30.858 533.372 30.858 529.676C30.858 526.156 33.036 523.978 35.808 523.978C37.524 523.978 38.624 524.88 39.174 525.804C39.13 525.474 39.13 525.166 39.13 524.858V519.6H41.418V535H39.13V534.472C39.13 534.12 39.13 533.834 39.174 533.526C38.668 534.406 37.546 535.352 35.764 535.352ZM33.212 529.676C33.212 532.03 34.466 533.57 36.248 533.57C37.986 533.57 39.262 532.008 39.262 529.654C39.262 527.3 38.008 525.782 36.248 525.782C34.488 525.782 33.212 527.366 33.212 529.676ZM49.0721 535.352C45.8821 535.352 43.7701 533.328 43.7701 529.632C43.7701 526.31 45.9701 523.978 48.9841 523.978C52.1961 523.978 54.0221 526.222 54.0221 529.676V530.16H46.0801C46.1241 532.228 47.3561 533.57 49.0941 533.57C50.3261 533.57 51.4041 532.976 51.6241 531.612H53.9341C53.7141 533.636 52.0421 535.352 49.0721 535.352ZM46.1021 528.532H51.6241C51.6021 526.86 50.6121 525.716 48.9621 525.716C47.3561 525.716 46.2561 526.926 46.1021 528.532ZM56.3964 535V524.33H58.6844V524.968C58.6844 525.386 58.6844 525.782 58.6404 526.178C59.1904 524.968 60.2684 523.978 61.8744 523.978C62.0504 523.978 62.2264 523.978 62.4024 524.022V526.244C62.2484 526.222 62.0284 526.178 61.7204 526.178C59.8724 526.178 58.6844 527.168 58.6844 529.522V535H56.3964ZM68.973 535V519.6H71.371V526.222C71.635 525.892 71.965 525.54 72.339 525.166L77.663 519.6H80.743L74.231 526.31L81.711 535H78.455L72.581 528.026L71.371 529.258V535H68.973ZM86.9716 535.352C83.8256 535.352 81.6256 533.152 81.6256 529.676C81.6256 526.266 83.8476 523.978 86.9716 523.978C90.1176 523.978 92.3396 526.266 92.3396 529.676C92.3396 533.152 90.1176 535.352 86.9716 535.352ZM83.9576 529.676C83.9576 532.052 85.1236 533.57 86.9716 533.57C88.8196 533.57 90.0076 532.052 90.0076 529.676C90.0076 527.256 88.7976 525.782 86.9716 525.782C85.1676 525.782 83.9576 527.256 83.9576 529.676ZM94.703 535V524.33H96.991V524.924C96.991 525.21 96.969 525.474 96.947 525.804C97.519 524.814 98.663 523.978 100.225 523.978C102.645 523.978 104.075 525.584 104.075 528.268V535H101.787V528.576C101.787 526.794 101.083 525.782 99.609 525.782C98.025 525.782 96.991 527.08 96.991 528.664V535H94.703ZM107.809 535V526.178H105.741V524.33H107.809V522.724C107.809 520.414 109.195 519.226 111.043 519.226C111.615 519.226 112.077 519.336 112.297 519.424V521.272C112.121 521.228 111.857 521.184 111.593 521.184C110.691 521.184 110.097 521.712 110.097 522.68V524.33H112.319V526.178H110.097V535H107.809ZM118.64 535.352C115.494 535.352 113.294 533.152 113.294 529.676C113.294 526.266 115.516 523.978 118.64 523.978C121.786 523.978 124.008 526.266 124.008 529.676C124.008 533.152 121.786 535.352 118.64 535.352ZM115.626 529.676C115.626 532.052 116.792 533.57 118.64 533.57C120.488 533.57 121.676 532.052 121.676 529.676C121.676 527.256 120.466 525.782 118.64 525.782C116.836 525.782 115.626 527.256 115.626 529.676ZM126.371 535V524.33H128.659V524.968C128.659 525.386 128.659 525.782 128.615 526.178C129.165 524.968 130.243 523.978 131.849 523.978C132.025 523.978 132.201 523.978 132.377 524.022V526.244C132.223 526.222 132.003 526.178 131.695 526.178C129.847 526.178 128.659 527.168 128.659 529.522V535H126.371ZM134.191 535V524.33H136.479V524.99C136.479 525.254 136.479 525.54 136.435 525.804C137.029 524.814 138.063 523.978 139.537 523.978C140.901 523.978 142.045 524.836 142.551 526.024C143.211 524.88 144.465 523.978 146.005 523.978C148.161 523.978 149.723 525.496 149.723 528.268V535H147.435V528.642C147.435 526.86 146.819 525.782 145.433 525.782C144.003 525.782 143.101 527.058 143.101 528.708V535H140.813V528.686C140.813 526.882 140.219 525.782 138.833 525.782C137.425 525.782 136.479 527.036 136.479 528.752V535H134.191ZM152.603 535V524.33H154.891V535H152.603ZM152.515 522.504V519.974H155.001V522.504H152.515ZM162.157 535.176C160.221 535.176 158.901 534.23 158.901 531.854V526.178H156.679V524.33H158.901V520.634H161.189V524.33H163.609V526.178H161.189V531.546C161.189 532.734 161.717 533.262 162.751 533.262C163.015 533.262 163.279 533.24 163.565 533.196V535.022C163.235 535.11 162.707 535.176 162.157 535.176ZM168.81 535.352C166.874 535.352 165.136 534.12 165.136 532.074C165.136 529.83 166.896 528.928 168.986 528.642L170.9 528.356C171.736 528.246 172.022 527.938 172.022 527.344C172.022 526.398 171.274 525.716 170.086 525.716C168.634 525.716 167.82 526.508 167.754 527.718H165.422C165.532 525.628 167.204 523.978 169.932 523.978C172.88 523.978 174.288 525.628 174.288 528.356V535H172.154V534.516C172.154 534.186 172.176 533.878 172.198 533.548C171.648 534.626 170.526 535.352 168.81 535.352ZM166.566 522.504V519.974H169.052V522.504H166.566ZM167.49 532.008C167.49 533.042 168.304 533.636 169.316 533.636C170.878 533.636 172.066 532.536 172.066 530.908V529.544C171.89 529.764 171.494 529.896 170.856 530.006L169.646 530.248C168.392 530.49 167.49 530.974 167.49 532.008ZM170.944 522.504V519.974H173.408V522.504H170.944ZM181.299 535.176C179.363 535.176 178.043 534.23 178.043 531.854V526.178H175.821V524.33H178.043V520.634H180.331V524.33H182.751V526.178H180.331V531.546C180.331 532.734 180.859 533.262 181.893 533.262C182.157 533.262 182.421 533.24 182.707 533.196V535.022C182.377 535.11 181.849 535.176 181.299 535.176ZM189.793 535V524.33H192.081V524.99C192.081 525.254 192.081 525.54 192.037 525.804C192.631 524.814 193.665 523.978 195.139 523.978C196.503 523.978 197.647 524.836 198.153 526.024C198.813 524.88 200.067 523.978 201.607 523.978C203.763 523.978 205.325 525.496 205.325 528.268V535H203.037V528.642C203.037 526.86 202.421 525.782 201.035 525.782C199.605 525.782 198.703 527.058 198.703 528.708V535H196.415V528.686C196.415 526.882 195.821 525.782 194.435 525.782C193.027 525.782 192.081 527.036 192.081 528.752V535H189.793ZM208.205 535V524.33H210.493V535H208.205ZM208.117 522.504V519.974H210.603V522.504H208.117ZM217.758 535.176C215.822 535.176 214.502 534.23 214.502 531.854V526.178H212.28V524.33H214.502V520.634H216.79V524.33H219.21V526.178H216.79V531.546C216.79 532.734 217.318 533.262 218.352 533.262C218.616 533.262 218.88 533.24 219.166 533.196V535.022C218.836 535.11 218.308 535.176 217.758 535.176ZM230.52 535.352C227.704 535.352 225.614 533.372 225.614 529.676C225.614 526.156 227.792 523.978 230.564 523.978C232.28 523.978 233.38 524.88 233.93 525.804C233.886 525.474 233.886 525.166 233.886 524.858V519.6H236.174V535H233.886V534.472C233.886 534.12 233.886 533.834 233.93 533.526C233.424 534.406 232.302 535.352 230.52 535.352ZM227.968 529.676C227.968 532.03 229.222 533.57 231.004 533.57C232.742 533.57 234.018 532.008 234.018 529.654C234.018 527.3 232.764 525.782 231.004 525.782C229.244 525.782 227.968 527.366 227.968 529.676ZM243.828 535.352C240.638 535.352 238.526 533.328 238.526 529.632C238.526 526.31 240.726 523.978 243.74 523.978C246.952 523.978 248.778 526.222 248.778 529.676V530.16H240.836C240.88 532.228 242.112 533.57 243.85 533.57C245.082 533.57 246.16 532.976 246.38 531.612H248.69C248.47 533.636 246.798 535.352 243.828 535.352ZM240.858 528.532H246.38C246.358 526.86 245.368 525.716 243.718 525.716C242.112 525.716 241.012 526.926 240.858 528.532ZM251.152 535V524.33H253.44V524.924C253.44 525.21 253.418 525.474 253.396 525.804C253.968 524.814 255.112 523.978 256.674 523.978C259.094 523.978 260.524 525.584 260.524 528.268V535H258.236V528.576C258.236 526.794 257.532 525.782 256.058 525.782C254.474 525.782 253.44 527.08 253.44 528.664V535H251.152ZM31.848 564V548.6H34.246V555.222C34.51 554.892 34.84 554.54 35.214 554.166L40.538 548.6H43.618L37.106 555.31L44.586 564H41.33L35.456 557.026L34.246 558.258V564H31.848ZM45.6327 564V548.6H47.9207V564H45.6327ZM50.9179 564V553.33H53.2059V564H50.9179ZM50.8299 551.504V548.974H53.3159V551.504H50.8299ZM56.203 564V553.33H58.491V553.99C58.491 554.254 58.491 554.54 58.447 554.804C59.041 553.814 60.075 552.978 61.549 552.978C62.913 552.978 64.057 553.836 64.563 555.024C65.223 553.88 66.477 552.978 68.017 552.978C70.173 552.978 71.735 554.496 71.735 557.268V564H69.447V557.642C69.447 555.86 68.831 554.782 67.445 554.782C66.015 554.782 65.113 556.058 65.113 557.708V564H62.825V557.686C62.825 555.882 62.231 554.782 60.845 554.782C59.437 554.782 58.491 556.036 58.491 557.752V564H56.203ZM77.6951 564.352C75.7591 564.352 74.0211 563.12 74.0211 561.074C74.0211 558.83 75.7811 557.928 77.8711 557.642L79.7851 557.356C80.6211 557.246 80.9071 556.938 80.9071 556.344C80.9071 555.398 80.1591 554.716 78.9711 554.716C77.5191 554.716 76.7051 555.508 76.6391 556.718H74.3071C74.4171 554.628 76.0891 552.978 78.8171 552.978C81.7651 552.978 83.1731 554.628 83.1731 557.356V564H81.0391V563.516C81.0391 563.186 81.0611 562.878 81.0831 562.548C80.5331 563.626 79.4111 564.352 77.6951 564.352ZM76.3751 561.008C76.3751 562.042 77.1891 562.636 78.2011 562.636C79.7631 562.636 80.9511 561.536 80.9511 559.908V558.544C80.7751 558.764 80.3791 558.896 79.7411 559.006L78.5311 559.248C77.2771 559.49 76.3751 559.974 76.3751 561.008ZM86.0233 568.532V553.33H88.3113V553.946C88.3113 554.232 88.3113 554.496 88.2673 554.826C88.9053 553.77 90.1373 552.978 91.7873 552.978C94.7353 552.978 96.5833 555.354 96.5833 558.676C96.5833 562.108 94.5373 564.352 91.6993 564.352C90.0493 564.352 88.9493 563.604 88.2673 562.526C88.3113 562.878 88.3113 563.164 88.3113 563.472V568.532H86.0233ZM88.2013 558.654C88.2013 560.986 89.4553 562.57 91.2373 562.57C93.0413 562.57 94.2293 560.964 94.2293 558.654C94.2293 556.388 93.0633 554.782 91.2373 554.782C89.4773 554.782 88.2013 556.278 88.2013 558.654ZM99.7096 564V555.178H97.6416V553.33H99.7096V551.724C99.7096 549.414 101.096 548.226 102.944 548.226C103.516 548.226 103.978 548.336 104.198 548.424V550.272C104.022 550.228 103.758 550.184 103.494 550.184C102.592 550.184 101.998 550.712 101.998 551.68V553.33H104.22V555.178H101.998V564H99.7096ZM108.89 564.352C106.954 564.352 105.216 563.12 105.216 561.074C105.216 558.83 106.976 557.928 109.066 557.642L110.98 557.356C111.816 557.246 112.102 556.938 112.102 556.344C112.102 555.398 111.354 554.716 110.166 554.716C108.714 554.716 107.9 555.508 107.834 556.718H105.502C105.612 554.628 107.284 552.978 110.012 552.978C112.96 552.978 114.368 554.628 114.368 557.356V564H112.234V563.516C112.234 563.186 112.256 562.878 112.278 562.548C111.728 563.626 110.606 564.352 108.89 564.352ZM107.57 561.008C107.57 562.042 108.384 562.636 109.396 562.636C110.958 562.636 112.146 561.536 112.146 559.908V558.544C111.97 558.764 111.574 558.896 110.936 559.006L109.726 559.248C108.472 559.49 107.57 559.974 107.57 561.008ZM121.487 564.352C118.671 564.352 116.581 562.372 116.581 558.676C116.581 555.156 118.759 552.978 121.531 552.978C123.247 552.978 124.347 553.88 124.897 554.804C124.853 554.474 124.853 554.166 124.853 553.858V548.6H127.141V564H124.853V563.472C124.853 563.12 124.853 562.834 124.897 562.526C124.391 563.406 123.269 564.352 121.487 564.352ZM118.935 558.676C118.935 561.03 120.189 562.57 121.971 562.57C123.709 562.57 124.985 561.008 124.985 558.654C124.985 556.3 123.731 554.782 121.971 554.782C120.211 554.782 118.935 556.366 118.935 558.676ZM134.795 564.352C131.605 564.352 129.493 562.328 129.493 558.632C129.493 555.31 131.693 552.978 134.707 552.978C137.919 552.978 139.745 555.222 139.745 558.676V559.16H131.803C131.847 561.228 133.079 562.57 134.817 562.57C136.049 562.57 137.127 561.976 137.347 560.612H139.657C139.437 562.636 137.765 564.352 134.795 564.352ZM131.825 557.532H137.347C137.325 555.86 136.335 554.716 134.685 554.716C133.079 554.716 131.979 555.926 131.825 557.532ZM142.119 564V553.33H144.407V553.924C144.407 554.21 144.385 554.474 144.363 554.804C144.935 553.814 146.079 552.978 147.641 552.978C150.061 552.978 151.491 554.584 151.491 557.268V564H149.203V557.576C149.203 555.794 148.499 554.782 147.025 554.782C145.441 554.782 144.407 556.08 144.407 557.664V564H142.119ZM163.145 564.176C161.209 564.176 159.889 563.23 159.889 560.854V555.178H157.667V553.33H159.889V549.634H162.177V553.33H164.597V555.178H162.177V560.546C162.177 561.734 162.705 562.262 163.739 562.262C164.003 562.262 164.267 562.24 164.553 562.196V564.022C164.223 564.11 163.695 564.176 163.145 564.176ZM166.719 564V553.33H169.007V553.968C169.007 554.386 169.007 554.782 168.963 555.178C169.513 553.968 170.591 552.978 172.197 552.978C172.373 552.978 172.549 552.978 172.725 553.022V555.244C172.571 555.222 172.351 555.178 172.043 555.178C170.195 555.178 169.007 556.168 169.007 558.522V564H166.719ZM178.988 564.352C175.798 564.352 173.686 562.328 173.686 558.632C173.686 555.31 175.886 552.978 178.9 552.978C182.112 552.978 183.938 555.222 183.938 558.676V559.16H175.996C176.04 561.228 177.272 562.57 179.01 562.57C180.242 562.57 181.32 561.976 181.54 560.612H183.85C183.63 562.636 181.958 564.352 178.988 564.352ZM176.018 557.532H181.54C181.518 555.86 180.528 554.716 178.878 554.716C177.272 554.716 176.172 555.926 176.018 557.532ZM189.418 555.178V564H187.13V555.178H185.062V553.33H187.13V551.724C187.13 549.414 188.516 548.226 190.364 548.226C190.936 548.226 191.398 548.336 191.618 548.424V550.272C191.442 550.228 191.178 550.184 190.914 550.184C190.012 550.184 189.418 550.712 189.418 551.68V553.33H193.994V551.724C193.994 549.414 195.38 548.226 197.228 548.226C197.8 548.226 198.262 548.336 198.482 548.424V550.272C198.306 550.228 198.042 550.184 197.778 550.184C196.876 550.184 196.282 550.712 196.282 551.68V553.33H198.504V555.178H196.282V564H193.994V555.178H189.418ZM204.769 564.352C201.579 564.352 199.467 562.328 199.467 558.632C199.467 555.31 201.667 552.978 204.681 552.978C207.893 552.978 209.719 555.222 209.719 558.676V559.16H201.777C201.821 561.228 203.053 562.57 204.791 562.57C206.023 562.57 207.101 561.976 207.321 560.612H209.631C209.411 562.636 207.739 564.352 204.769 564.352ZM201.799 557.532H207.321C207.299 555.86 206.309 554.716 204.659 554.716C203.053 554.716 201.953 555.926 201.799 557.532ZM212.094 564V553.33H214.382V553.924C214.382 554.21 214.36 554.474 214.338 554.804C214.91 553.814 216.054 552.978 217.616 552.978C220.036 552.978 221.466 554.584 221.466 557.268V564H219.178V557.576C219.178 555.794 218.474 554.782 217 554.782C215.416 554.782 214.382 556.08 214.382 557.664V564H212.094ZM224.142 564V561.074H227.068V564H224.142Z"
        fill="white" />
    <rect x="15.5" y="45.5" width="389" height="391" rx="8.5" stroke="white" />
    <path d="M207.7 230.502L207.688 230.515V230.502H207.7Z" fill="white" />
    <path d="M207.691 348.193V357.027L105.721 298.184V289.349L113.377 293.773L207.691 348.193Z" stroke="white"
        stroke-linecap="round" stroke-linejoin="round" />
    <path d="M309.647 289.349V298.184L207.69 357.027V348.193L301.991 293.773L309.647 289.349Z" stroke="white"
        stroke-linecap="round" stroke-linejoin="round" />
    <path
        d="M246.52 253.2L256.408 258.984L257.893 259.842L260.497 261.345L261.899 262.152L275.497 269.998L278.887 271.953L278.893 271.962L309.39 289.562L295.836 297.383L295.782 297.415L292.421 299.353L289.058 301.292L285.697 303.231L282.336 305.169L275.612 309.049L207.735 348.221L207.691 348.196L177.238 330.621L177.168 330.58L173.849 328.664L153.517 316.931L150.153 314.989L119.634 297.377L112.856 293.465L106.077 289.556L112.856 285.644L123.02 279.777L126.409 277.823L133.178 273.917L136.574 271.956L139.954 270.005L150.381 264.374"
        stroke="white" stroke-linecap="round" stroke-linejoin="round" />
    <path
        d="M207.919 268.867V324.374L227.161 313.263L246.403 302.153V246.771L227.457 257.712L227.161 257.881L208.215 268.781L208.174 268.74L207.919 268.867Z"
        stroke="white" stroke-linecap="round" stroke-linejoin="round" />
    <path d="M227.161 257.798V257.881L227.457 257.712L246.403 246.771V246.688L227.161 257.798Z" fill="white"
        stroke="white" stroke-linecap="round" stroke-linejoin="round" />
    <path d="M208.174 268.74L208.215 268.781L227.161 257.88V257.798L208.215 268.698L208.174 268.74Z" fill="white"
        stroke="white" stroke-linecap="round" stroke-linejoin="round" />
    <path
        d="M150.229 235.59V291.478L207.91 324.386V268.88L188.71 257.811L187.743 257.264V257.223L179.152 252.256H179.07L169.471 246.701L159.914 241.19L150.229 235.59Z"
        stroke="white" stroke-linecap="round" stroke-linejoin="round" />
    <path
        d="M208.031 268.743H208.117V324.341L246.422 302.277V246.847L235.116 237.062L233.386 239.086L229.504 243.599L220.688 253.933L220.561 254.105L212.25 263.807L208.031 268.743Z"
        stroke="white" stroke-linecap="round" stroke-linejoin="round" />
    <path d="M207.869 268.848L207.951 268.724" stroke="white" stroke-linecap="round" stroke-linejoin="round" />
    <path
        d="M150.188 235.629L169.471 246.678L179.133 252.205H179.175L187.822 257.185V257.226L188.792 257.731L208.031 268.743L212.25 263.808L220.647 253.934L229.504 243.599L233.386 239.086L235.116 237.062L177.149 203.652L150.188 235.629Z"
        stroke="white" stroke-linecap="round" stroke-linejoin="round" />
    <path d="M192.153 259.628L195.666 261.65L195.472 261.554L192.111 259.628H192.153Z" fill="white" stroke="white"
        stroke-linecap="round" stroke-linejoin="round" />
    <path
        d="M284.047 297.529C281.723 297.882 279.58 296.525 278.982 294.304C278.569 292.746 278.915 291.24 279.516 289.797C280.295 287.948 281.516 286.403 282.988 285.04C283.211 284.836 283.383 284.801 283.618 285.027C285.707 286.985 287.312 289.235 287.761 292.149C287.773 292.209 287.789 292.27 287.789 292.333V292.985C287.91 295.181 286.276 297.192 284.047 297.532V297.529Z"
        fill="white" stroke="white" stroke-linecap="round" stroke-linejoin="round" />
    <path d="M283.201 295.12V298.641V300.049V301.171" stroke="white" stroke-linecap="round" stroke-linejoin="round" />
    <path
        d="M176.288 250.298L190.214 258.284L182.462 253.851L163.434 242.944L190.042 211.387L203.402 219.087L176.288 250.298Z"
        fill="white" />
    <path d="M232.36 255.062L232.569 309.946" stroke="white" stroke-linecap="round" stroke-linejoin="round" />
    <path d="M208.117 324.342L246.422 302.277" stroke="white" stroke-linecap="round" stroke-linejoin="round" />
    <path d="M224.162 259.532L224.162 274.431" stroke="white" stroke-linecap="round" stroke-linejoin="round" />
    <path d="M220.436 261.767L220.436 275.92" stroke="white" stroke-linecap="round" stroke-linejoin="round" />
    <path d="M209.665 282.548V303.831" stroke="white" stroke-linecap="round" stroke-linejoin="round" />
    <path d="M211.344 281.464V302.75" stroke="white" stroke-linecap="round" stroke-linejoin="round" />
    <path d="M213.022 280.838V302.124" stroke="white" stroke-linecap="round" stroke-linejoin="round" />
    <path d="M214.701 279.751V301.034" stroke="white" stroke-linecap="round" stroke-linejoin="round" />
    <path d="M216.38 278.668V299.954" stroke="white" stroke-linecap="round" stroke-linejoin="round" />
    <path d="M218.059 277.705V298.988" stroke="white" stroke-linecap="round" stroke-linejoin="round" />
    <path d="M232.566 291.109L208.113 305.191" stroke="white" stroke-linecap="round" stroke-linejoin="round" />
    <path d="M232.566 269.261L208.113 283.346" stroke="white" stroke-linecap="round" stroke-linejoin="round" />
    <path
        d="M158.579 244.171V252.672L154.162 250.123L154.153 250.12V246.723L154.162 246.72V242.461L154.153 242.455V241.616L157.113 243.322L158.579 244.171Z"
        stroke="white" stroke-linejoin="round" />
    <path
        d="M164.867 247.743V256.247L160.451 253.699L160.441 253.692V250.298L160.451 250.292V246.037L160.441 246.03V245.188L163.401 246.898L164.867 247.743Z"
        stroke="white" stroke-linejoin="round" />
    <path
        d="M193.485 263.791V272.296L189.069 269.747L189.06 269.741V266.347L189.069 266.34V262.082L189.06 262.078V261.236L192.02 262.946L193.485 263.791Z"
        stroke="white" stroke-linejoin="round" />
    <path
        d="M199.774 267.367V275.871L195.357 273.322H195.354L195.345 273.316V269.922L195.357 269.915V265.657L195.345 265.651V264.812L198.308 266.521L199.774 267.367Z"
        stroke="white" stroke-linejoin="round" />
    <path
        d="M158.579 261.996V270.5L154.162 267.952L154.153 267.945V264.551L154.162 264.545V260.286L154.153 260.28V259.441L157.113 261.151L158.579 261.996Z"
        stroke="white" stroke-linejoin="round" />
    <path
        d="M164.867 265.571V274.072L160.451 271.524L160.441 271.52V268.123L160.451 268.12V263.861L160.441 263.855V263.016L163.401 264.723L164.867 265.571Z"
        stroke="white" stroke-linejoin="round" />
    <path
        d="M193.485 281.62V290.121L189.069 287.572L189.06 287.566V284.172L189.069 284.169V279.91L189.06 279.904V279.065L192.02 280.772L193.485 281.62Z"
        stroke="white" stroke-linejoin="round" />
    <path
        d="M199.774 285.192V293.697L195.357 291.148H195.354L195.345 291.141V287.747L195.357 287.741V283.483L195.345 283.479V282.637L198.308 284.347L199.774 285.192Z"
        stroke="white" stroke-linejoin="round" />
    <path
        d="M158.579 277.25V285.755L154.162 283.206L154.153 283.2V279.806L154.162 279.799V275.541L154.153 275.534V274.695L157.113 276.405L158.579 277.25Z"
        stroke="white" stroke-linejoin="round" />
    <path
        d="M164.867 280.826V289.327L160.451 286.778L160.441 286.775V283.378L160.451 283.374V279.116L160.441 279.109V278.271L163.401 279.977L164.867 280.826Z"
        stroke="white" stroke-linejoin="round" />
    <path
        d="M175.248 253.365V261.869L170.832 259.32H170.829L170.819 259.314V255.92L170.832 255.913V251.655L170.819 251.652V250.81L173.783 252.519L175.248 253.365Z"
        stroke="white" stroke-linejoin="round" />
    <path
        d="M175.248 271.193V279.694L170.832 277.146H170.829L170.819 277.139V273.745L170.832 273.742V269.484L170.819 269.477V268.638L173.783 270.345L175.248 271.193Z"
        stroke="white" stroke-linejoin="round" />
    <path
        d="M181.537 274.765V283.269L177.117 280.721L177.108 280.714V277.32L177.117 277.314V273.055L177.108 273.052V272.21L180.071 273.92L181.537 274.765Z"
        stroke="white" stroke-linejoin="round" />
    <path
        d="M175.248 286.447V294.948L170.832 292.4H170.829L170.819 292.393V288.999L170.832 288.996V284.737L170.819 284.731V283.892L173.783 285.599L175.248 286.447Z"
        stroke="white" stroke-linejoin="round" />
    <path
        d="M181.537 290.019V298.524L177.117 295.975L177.108 295.969V292.575L177.117 292.568V288.31L177.108 288.307V287.464L180.071 289.174L181.537 290.019Z"
        stroke="white" stroke-linejoin="round" />
    <path
        d="M193.485 296.874V305.376L189.069 302.827L189.06 302.82V299.426L189.069 299.423V295.165L189.06 295.158V294.319L192.02 296.026L193.485 296.874Z"
        stroke="white" stroke-linejoin="round" />
    <path
        d="M199.774 300.446V308.95L195.357 306.402H195.354L195.345 306.395V303.001L195.357 302.995V298.736L195.345 298.733V297.891L198.308 299.601L199.774 300.446Z"
        stroke="white" stroke-linejoin="round" />
    <path
        d="M181.537 256.94V265.444L177.117 262.895L177.108 262.889V259.495L177.117 259.489V255.23L177.108 255.224V254.385L180.071 256.095L181.537 256.94Z"
        stroke="white" stroke-linejoin="round" />
    <path d="M156.102 244.39V175.578" stroke="white" stroke-linecap="round" stroke-linejoin="round" />
    <path d="M179.235 224.429V175.578" stroke="white" stroke-linecap="round" stroke-linejoin="round" />
    <path d="M214.304 279.752V175.578" stroke="white" stroke-linecap="round" stroke-linejoin="round" />
    <path d="M276.648 279.752V175.578" stroke="white" stroke-linecap="round" stroke-linejoin="round" />
    <path d="M290.526 268.991V175.578" stroke="white" stroke-linecap="round" stroke-linejoin="round" />
    <path
        d="M330.034 347.582C330.034 340.556 324.336 334.861 317.307 334.861C310.278 334.861 304.58 340.556 304.58 347.582C304.58 354.608 310.278 360.304 317.307 360.304C324.336 360.304 330.034 354.608 330.034 347.582Z"
        stroke="white" stroke-miterlimit="10" />
    <path
        d="M319.914 348.268L321.736 348.846C321.457 349.861 320.991 350.617 320.34 351.112C319.692 351.603 318.869 351.848 317.871 351.848C316.635 351.848 315.619 351.427 314.824 350.585C314.028 349.739 313.63 348.583 313.63 347.119C313.63 345.57 314.03 344.368 314.83 343.514C315.63 342.655 316.681 342.225 317.985 342.225C319.123 342.225 320.048 342.562 320.759 343.234C321.182 343.632 321.499 344.203 321.711 344.948L319.851 345.393C319.741 344.91 319.51 344.529 319.159 344.25C318.812 343.971 318.389 343.831 317.89 343.831C317.2 343.831 316.639 344.079 316.207 344.574C315.78 345.069 315.566 345.871 315.566 346.979C315.566 348.156 315.778 348.994 316.201 349.493C316.624 349.993 317.174 350.242 317.851 350.242C318.351 350.242 318.78 350.083 319.14 349.766C319.5 349.449 319.758 348.949 319.914 348.268Z"
        fill="white" />
    <path
        d="M88.628 183.778C88.492 183.243 87.9478 182.919 87.4126 183.055L78.6897 185.272C78.1544 185.408 77.8308 185.952 77.9668 186.487C78.1028 187.022 78.647 187.346 79.1822 187.21L86.9359 185.24L88.906 192.994C89.042 193.529 89.5861 193.852 90.1214 193.716C90.6567 193.58 90.9804 193.036 90.8444 192.501L88.628 183.778ZM305.414 363.309C305.826 362.941 305.861 362.309 305.493 361.897C305.125 361.485 304.493 361.449 304.081 361.818L305.414 363.309ZM85.8309 185.167C85.555 185.645 85.7191 186.256 86.1975 186.532C86.6759 186.808 87.2874 186.644 87.5634 186.166L85.8309 185.167ZM85.7196 189.464C85.9826 188.978 85.8021 188.371 85.3164 188.108C84.8308 187.845 84.2239 188.026 83.9609 188.512L85.7196 189.464ZM82.1812 191.906C81.9314 192.398 82.1281 193 82.6206 193.25C83.1132 193.5 83.715 193.303 83.9649 192.811L82.1812 191.906ZM82.3009 196.203C82.5374 195.704 82.3246 195.108 81.8255 194.871C81.3264 194.635 80.7301 194.848 80.4936 195.347L82.3009 196.203ZM78.8991 198.832C78.6761 199.337 78.9049 199.927 79.4102 200.15C79.9155 200.373 80.5058 200.144 80.7288 199.639L78.8991 198.832ZM79.2497 203.117C79.459 202.605 79.2144 202.022 78.7033 201.812C78.1922 201.603 77.6082 201.848 77.3989 202.359L79.2497 203.117ZM75.9946 205.924C75.7992 206.441 76.0595 207.018 76.576 207.213C77.0926 207.409 77.6698 207.148 77.8652 206.632L75.9946 205.924ZM76.5759 210.184C76.7573 209.662 76.4815 209.092 75.9599 208.911C75.4382 208.729 74.8683 209.005 74.6868 209.527L76.5759 210.184ZM73.4768 213.163C73.3095 213.69 73.6006 214.252 74.1269 214.419C74.6533 214.587 75.2156 214.296 75.3829 213.769L73.4768 213.163ZM74.2872 217.385C74.4402 216.854 74.1341 216.3 73.6034 216.147C73.0727 215.994 72.5185 216.3 72.3655 216.831L74.2872 217.385ZM71.3534 220.528C71.2148 221.063 71.5358 221.608 72.0704 221.747C72.605 221.886 73.1507 221.565 73.2894 221.03L71.3534 220.528ZM72.3904 224.7C72.5146 224.161 72.179 223.625 71.6408 223.5C71.1027 223.376 70.5658 223.712 70.4416 224.25L72.3904 224.7ZM69.6304 227.996C69.5208 228.537 69.8708 229.065 70.4121 229.174C70.9534 229.284 71.481 228.934 71.5907 228.393L69.6304 227.996ZM70.8906 232.106C70.9856 231.562 70.6215 231.044 70.0775 230.949C69.5334 230.854 69.0154 231.218 68.9204 231.762L70.8906 232.106ZM68.3119 235.545C68.2315 236.092 68.6093 236.6 69.1557 236.68C69.7021 236.761 70.2102 236.383 70.2906 235.836L68.3119 235.545ZM69.7907 239.583C69.8564 239.034 69.4652 238.537 68.9168 238.471C68.3684 238.405 67.8706 238.796 67.8049 239.345L69.7907 239.583ZM67.3999 243.155C67.3489 243.705 67.7533 244.192 68.3032 244.243C68.8531 244.294 69.3403 243.889 69.3913 243.34L67.3999 243.155ZM69.0921 247.107C69.1285 246.556 68.7113 246.08 68.1602 246.043C67.6091 246.007 67.1329 246.424 67.0965 246.975L69.0921 247.107ZM66.8946 250.802C66.8728 251.353 67.3025 251.818 67.8543 251.84C68.4062 251.862 68.8712 251.432 68.893 250.88L66.8946 250.802ZM68.7937 254.658C68.8009 254.106 68.3591 253.653 67.8069 253.645C67.2546 253.638 66.8011 254.08 66.7938 254.632L68.7937 254.658ZM66.7952 258.565C66.8028 259.118 67.2567 259.559 67.8089 259.552C68.3611 259.544 68.8026 259.09 68.795 258.538L66.7952 258.565ZM68.9043 262.495C68.8814 261.944 68.4155 261.515 67.8637 261.538C67.3119 261.56 66.8831 262.026 66.906 262.578L68.9043 262.495ZM67.1282 266.591C67.1664 267.142 67.644 267.558 68.1949 267.52C68.7459 267.481 69.1616 267.004 69.1234 266.453L67.1282 266.591ZM69.4518 270.394C69.3983 269.845 68.9093 269.442 68.3596 269.496C67.8099 269.549 67.4077 270.038 67.4613 270.588L69.4518 270.394ZM67.9071 274.585C67.9761 275.133 68.4761 275.522 69.0241 275.453C69.5721 275.384 69.9604 274.884 69.8915 274.336L67.9071 274.585ZM70.4398 278.251C70.3555 277.705 69.8448 277.331 69.2989 277.415C68.7531 277.5 68.3789 278.01 68.4632 278.556L70.4398 278.251ZM69.1329 282.523C69.2325 283.066 69.7536 283.426 70.2969 283.326C70.8401 283.227 71.1997 282.706 71.1001 282.162L69.1329 282.523ZM71.8686 286.044C71.7537 285.504 71.2226 285.159 70.6824 285.274C70.1422 285.389 69.7974 285.92 69.9123 286.46L71.8686 286.044ZM70.8037 290.379C70.9338 290.916 71.4744 291.245 72.0112 291.115C72.5479 290.985 72.8775 290.444 72.7474 289.908L70.8037 290.379ZM73.7346 293.743C73.5894 293.21 73.0397 292.895 72.5068 293.041C71.974 293.186 71.6597 293.736 71.805 294.268L73.7346 293.743ZM72.9155 298.127C73.0757 298.656 73.634 298.954 74.1626 298.794C74.6911 298.634 74.9897 298.075 74.8294 297.547L72.9155 298.127ZM76.0326 301.322C75.8574 300.798 75.2909 300.516 74.7671 300.691C74.2433 300.866 73.9606 301.433 74.1358 301.956L76.0326 301.322ZM75.4618 305.744C75.6516 306.262 76.226 306.529 76.7446 306.339C77.2632 306.149 77.5298 305.575 77.3399 305.056L75.4618 305.744ZM78.7552 308.759C78.5507 308.246 77.9691 307.996 77.456 308.2C76.943 308.405 76.6928 308.986 76.8972 309.499L78.7552 308.759ZM78.436 313.208C78.6549 313.715 79.2433 313.948 79.7504 313.73C80.2575 313.511 80.4911 312.922 80.2723 312.415L78.436 313.208ZM81.8933 316.03C81.6602 315.529 81.0653 315.312 80.5647 315.545C80.064 315.778 79.847 316.373 80.0801 316.874L81.8933 316.03ZM81.8263 320.491C82.0734 320.985 82.6742 321.185 83.1681 320.938C83.662 320.691 83.8621 320.09 83.615 319.596L81.8263 320.491ZM85.4361 323.112C85.1752 322.625 84.5691 322.442 84.0823 322.703C83.5956 322.964 83.4124 323.57 83.6733 324.057L85.4361 323.112ZM85.621 327.571C85.8955 328.05 86.5065 328.216 86.9857 327.942C87.465 327.667 87.631 327.056 87.3565 326.577L85.621 327.571ZM89.372 329.984C89.0842 329.513 88.4688 329.364 87.9974 329.652C87.526 329.94 87.3773 330.555 87.6651 331.027L89.372 329.984ZM89.807 334.426C90.1079 334.889 90.7273 335.021 91.1904 334.72C91.6535 334.419 91.785 333.8 91.484 333.337L89.807 334.426ZM93.688 336.627C93.3743 336.172 92.7515 336.058 92.297 336.372C91.8425 336.686 91.7284 337.308 92.0422 337.763L93.688 336.627ZM94.3703 341.036C94.6966 341.482 95.3224 341.578 95.7679 341.252C96.2135 340.926 96.3101 340.3 95.9837 339.854L94.3703 341.036ZM98.3687 343.016C98.03 342.58 97.4018 342.501 96.9656 342.84C96.5294 343.179 96.4503 343.807 96.789 344.243L98.3687 343.016ZM99.2958 347.38C99.6466 347.807 100.277 347.869 100.703 347.518C101.13 347.167 101.191 346.537 100.841 346.11L99.2958 347.38ZM103.399 349.135C103.036 348.718 102.405 348.674 101.988 349.037C101.571 349.399 101.527 350.031 101.89 350.447L103.399 349.135ZM104.568 353.44C104.942 353.847 105.575 353.873 105.981 353.499C106.388 353.125 106.414 352.492 106.04 352.086L104.568 353.44ZM108.762 354.963C108.377 354.567 107.744 354.559 107.348 354.944C106.952 355.329 106.944 355.962 107.329 356.358L108.762 354.963ZM110.17 359.197C110.566 359.582 111.199 359.573 111.584 359.177C111.969 358.781 111.96 358.148 111.564 357.763L110.17 359.197ZM114.442 360.483C114.036 360.11 113.403 360.136 113.029 360.543C112.656 360.95 112.682 361.582 113.089 361.956L114.442 360.483ZM116.084 364.632C116.5 364.994 117.132 364.95 117.494 364.533C117.857 364.116 117.812 363.485 117.395 363.122L116.084 364.632ZM120.421 365.679C119.995 365.328 119.365 365.39 119.014 365.817C118.664 366.244 118.725 366.874 119.152 367.224L120.421 365.679ZM122.291 369.729C122.728 370.068 123.356 369.988 123.694 369.552C124.033 369.115 123.953 368.487 123.517 368.149L122.291 369.729ZM126.681 370.532C126.235 370.206 125.609 370.303 125.283 370.749C124.957 371.194 125.054 371.82 125.5 372.146L126.681 370.532ZM128.774 374.472C129.229 374.786 129.852 374.671 130.165 374.217C130.479 373.762 130.364 373.139 129.91 372.826L128.774 374.472ZM133.201 375.028C132.738 374.727 132.118 374.859 131.818 375.322C131.517 375.785 131.649 376.405 132.112 376.705L133.201 375.028ZM135.513 378.845C135.985 379.133 136.6 378.984 136.887 378.512C137.175 378.041 137.026 377.425 136.554 377.138L135.513 378.845ZM139.963 379.151C139.483 378.877 138.872 379.044 138.598 379.523C138.324 380.002 138.49 380.613 138.97 380.887L139.963 379.151ZM142.485 382.833C142.972 383.094 143.578 382.91 143.839 382.424C144.099 381.937 143.916 381.331 143.429 381.07L142.485 382.833ZM146.946 382.889C146.452 382.642 145.851 382.843 145.604 383.337C145.357 383.831 145.558 384.432 146.052 384.678L146.946 382.889ZM149.67 386.423C150.171 386.656 150.765 386.438 150.998 385.938C151.231 385.437 151.014 384.842 150.513 384.609L149.67 386.423ZM154.128 386.229C153.621 386.01 153.033 386.244 152.814 386.751C152.596 387.258 152.83 387.847 153.337 388.065L154.128 386.229ZM157.046 389.602C157.559 389.806 158.14 389.556 158.345 389.043C158.549 388.53 158.298 387.948 157.785 387.744L157.046 389.602ZM161.489 389.158C160.97 388.968 160.396 389.235 160.206 389.754C160.017 390.272 160.283 390.846 160.802 391.036L161.489 389.158ZM164.59 392.361C165.114 392.536 165.68 392.253 165.855 391.729C166.03 391.205 165.747 390.639 165.223 390.464L164.59 392.361ZM168.999 391.665C168.47 391.505 167.912 391.804 167.752 392.333C167.592 392.861 167.891 393.419 168.419 393.58L168.999 391.665ZM172.279 394.689C172.811 394.834 173.361 394.519 173.506 393.986C173.651 393.454 173.337 392.904 172.804 392.759L172.279 394.689ZM176.639 393.745C176.102 393.615 175.562 393.945 175.432 394.482C175.302 395.018 175.632 395.559 176.168 395.689L176.639 393.745ZM180.087 396.579C180.628 396.694 181.159 396.349 181.273 395.809C181.388 395.268 181.043 394.737 180.503 394.623L180.087 396.579ZM184.385 395.39C183.842 395.291 183.321 395.651 183.221 396.194C183.122 396.737 183.481 397.258 184.025 397.358L184.385 395.39ZM187.992 398.026C188.537 398.111 189.048 397.736 189.132 397.19C189.216 396.645 188.842 396.134 188.296 396.05L187.992 398.026ZM192.212 396.597C191.664 396.529 191.164 396.917 191.095 397.465C191.026 398.013 191.414 398.513 191.962 398.582L192.212 396.597ZM195.96 399.027C196.509 399.081 196.998 398.678 197.052 398.129C197.105 397.579 196.703 397.09 196.153 397.036L195.96 399.027ZM200.095 397.365C199.544 397.326 199.066 397.742 199.028 398.293C198.99 398.844 199.406 399.322 199.957 399.36L200.095 397.365ZM203.97 399.582C204.522 399.605 204.987 399.176 205.01 398.624C205.033 398.072 204.604 397.606 204.052 397.583L203.97 399.582ZM208.01 397.693C207.458 397.685 207.004 398.126 206.996 398.679C206.989 399.231 207.43 399.685 207.982 399.692L208.01 397.693ZM212.009 399.692C212.561 399.685 213.003 399.231 212.995 398.679C212.987 398.127 212.534 397.685 211.981 397.693L212.009 399.692ZM215.94 397.584C215.388 397.606 214.96 398.072 214.982 398.624C215.005 399.176 215.471 399.605 216.023 399.582L215.94 397.584ZM220.032 399.36C220.583 399.322 220.999 398.845 220.96 398.294C220.922 397.743 220.445 397.327 219.894 397.365L220.032 399.36ZM223.841 397.037C223.292 397.09 222.889 397.579 222.943 398.129C222.996 398.678 223.485 399.081 224.035 399.027L223.841 397.037ZM228.027 398.583C228.575 398.514 228.964 398.014 228.895 397.466C228.826 396.918 228.326 396.529 227.778 396.598L228.027 398.583ZM231.7 396.05C231.155 396.134 230.78 396.645 230.864 397.19C230.949 397.736 231.459 398.111 232.005 398.026L231.7 396.05ZM235.965 397.359C236.509 397.259 236.868 396.738 236.769 396.195C236.67 395.652 236.149 395.292 235.605 395.391L235.965 397.359ZM239.49 394.624C238.949 394.738 238.604 395.269 238.719 395.81C238.834 396.35 239.365 396.695 239.905 396.58L239.49 394.624ZM243.822 395.69C244.359 395.56 244.689 395.02 244.559 394.483C244.429 393.946 243.889 393.616 243.352 393.746L243.822 395.69ZM247.188 392.76C246.655 392.905 246.341 393.455 246.486 393.988C246.631 394.521 247.18 394.835 247.713 394.69L247.188 392.76ZM251.573 393.581C252.102 393.421 252.401 392.862 252.241 392.334C252.081 391.805 251.523 391.506 250.994 391.667L251.573 393.581ZM254.767 390.466C254.243 390.641 253.96 391.207 254.135 391.731C254.31 392.255 254.877 392.538 255.401 392.363L254.767 390.466ZM259.192 391.037C259.711 390.848 259.978 390.273 259.788 389.755C259.598 389.236 259.024 388.969 258.505 389.159L259.192 391.037ZM262.206 387.747C261.693 387.951 261.442 388.532 261.646 389.045C261.85 389.559 262.432 389.809 262.945 389.605L262.206 387.747ZM266.656 388.067C267.163 387.849 267.397 387.26 267.178 386.753C266.96 386.246 266.372 386.012 265.864 386.231L266.656 388.067ZM269.479 384.612C268.978 384.845 268.76 385.44 268.993 385.94C269.226 386.441 269.821 386.659 270.322 386.426L269.479 384.612ZM273.939 384.682C274.434 384.435 274.634 383.834 274.387 383.34C274.14 382.846 273.54 382.646 273.046 382.892L273.939 384.682ZM276.564 381.073C276.077 381.333 275.893 381.939 276.154 382.426C276.414 382.913 277.02 383.097 277.507 382.836L276.564 381.073ZM281.022 380.891C281.501 380.617 281.667 380.006 281.393 379.527C281.119 379.047 280.508 378.881 280.029 379.155L281.022 380.891ZM283.439 377.141C282.967 377.428 282.818 378.044 283.105 378.515C283.393 378.987 284.008 379.136 284.48 378.848L283.439 377.141ZM287.879 376.71C288.343 376.409 288.474 375.79 288.174 375.326C287.873 374.863 287.254 374.731 286.791 375.032L287.879 376.71ZM290.082 372.829C289.628 373.143 289.513 373.766 289.827 374.22C290.14 374.675 290.763 374.79 291.218 374.476L290.082 372.829ZM294.492 372.15C294.938 371.824 295.035 371.198 294.709 370.753C294.383 370.307 293.757 370.21 293.311 370.536L294.492 372.15ZM296.475 368.153C296.038 368.492 295.959 369.12 296.297 369.556C296.636 369.993 297.264 370.072 297.7 369.734L296.475 368.153ZM300.839 367.228C301.266 366.878 301.328 366.248 300.978 365.821C300.627 365.394 299.997 365.332 299.57 365.683L300.839 367.228ZM302.596 363.127C302.179 363.489 302.135 364.121 302.497 364.538C302.859 364.954 303.491 364.999 303.908 364.636L302.596 363.127ZM86.7993 183.513C86.473 184.062 86.1501 184.613 85.8309 185.167L87.5634 186.166C87.8781 185.62 88.1965 185.077 88.5183 184.536L86.7993 183.513ZM83.9609 188.512C83.353 189.634 82.7597 190.766 82.1812 191.906L83.9649 192.811C84.5352 191.686 85.1202 190.571 85.7196 189.464L83.9609 188.512ZM80.4936 195.347C79.947 196.5 79.4155 197.662 78.8991 198.832L80.7288 199.639C81.2379 198.486 81.762 197.34 82.3009 196.203L80.4936 195.347ZM77.3989 202.359C76.9154 203.539 76.4472 204.728 75.9946 205.924L77.8652 206.632C78.3114 205.453 78.773 204.281 79.2497 203.117L77.3989 202.359ZM74.6868 209.527C74.2678 210.732 73.8643 211.944 73.4768 213.163L75.3829 213.769C75.7649 212.567 76.1627 211.372 76.5759 210.184L74.6868 209.527ZM72.3655 216.831C72.0121 218.057 71.6747 219.289 71.3534 220.528L73.2894 221.03C73.6061 219.808 73.9388 218.593 74.2872 217.385L72.3655 216.831ZM70.4416 224.25C70.155 225.492 69.8845 226.741 69.6304 227.996L71.5907 228.393C71.8411 227.156 72.1078 225.925 72.3904 224.7L70.4416 224.25ZM68.9204 231.762C68.7011 233.018 68.4982 234.279 68.3119 235.545L70.2906 235.836C70.4743 234.588 70.6744 233.344 70.8906 232.106L68.9204 231.762ZM67.8049 239.345C67.6533 240.61 67.5183 241.88 67.3999 243.155L69.3913 243.34C69.508 242.082 69.6412 240.83 69.7907 239.583L67.8049 239.345ZM67.0965 246.975C67.0125 248.246 66.9451 249.522 66.8946 250.802L68.893 250.88C68.9429 249.618 69.0093 248.36 69.0921 247.107L67.0965 246.975ZM66.7938 254.632C66.7855 255.27 66.7812 255.909 66.7812 256.549H68.7812C68.7812 255.918 68.7854 255.288 68.7937 254.658L66.7938 254.632ZM66.7812 256.549C66.7812 257.222 66.7859 257.894 66.7952 258.565L68.795 258.538C68.7858 257.876 68.7812 257.213 68.7812 256.549H66.7812ZM66.906 262.578C66.9616 263.921 67.0358 265.258 67.1282 266.591L69.1234 266.453C69.0323 265.138 68.9591 263.819 68.9043 262.495L66.906 262.578ZM67.4613 270.588C67.5915 271.926 67.7403 273.259 67.9071 274.585L69.8915 274.336C69.727 273.027 69.5803 271.714 69.4518 270.394L67.4613 270.588ZM68.4632 278.556C68.6683 279.885 68.8916 281.207 69.1329 282.523L71.1001 282.162C70.8622 280.865 70.642 279.561 70.4398 278.251L68.4632 278.556ZM69.9123 286.46C70.1915 287.773 70.4888 289.079 70.8037 290.379L72.7474 289.908C72.4369 288.627 72.1439 287.339 71.8686 286.044L69.9123 286.46ZM71.805 294.268C72.1575 295.562 72.5278 296.848 72.9155 298.127L74.8294 297.547C74.4472 296.286 74.0822 295.018 73.7346 293.743L71.805 294.268ZM74.1358 301.956C74.5605 303.227 75.0026 304.489 75.4618 305.744L77.3399 305.056C76.8872 303.819 76.4513 302.575 76.0326 301.322L74.1358 301.956ZM76.8972 309.499C77.3933 310.744 77.9063 311.98 78.436 313.208L80.2723 312.415C79.75 311.205 79.2442 309.986 78.7552 308.759L76.8972 309.499ZM80.0801 316.874C80.6457 318.089 81.2279 319.295 81.8263 320.491L83.615 319.596C83.025 318.417 82.4509 317.228 81.8933 316.03L80.0801 316.874ZM83.6733 324.057C84.3066 325.238 84.9559 326.41 85.621 327.571L87.3565 326.577C86.7007 325.432 86.0605 324.277 85.4361 323.112L83.6733 324.057ZM87.6651 331.027C88.3635 332.171 89.0776 333.304 89.807 334.426L91.484 333.337C90.7648 332.23 90.0607 331.112 89.372 329.984L87.6651 331.027ZM92.0422 337.763C92.8032 338.865 93.5794 339.956 94.3703 341.036L95.9837 339.854C95.2038 338.79 94.4385 337.714 93.688 336.627L92.0422 337.763ZM96.789 344.243C97.6102 345.301 98.4459 346.347 99.2958 347.38L100.841 346.11C100.003 345.091 99.1785 344.059 98.3687 343.016L96.789 344.243ZM101.89 350.447C102.769 351.458 103.662 352.455 104.568 353.44L106.04 352.086C105.146 351.115 104.266 350.131 103.399 349.135L101.89 350.447ZM107.329 356.358C108.263 357.317 109.21 358.264 110.17 359.197L111.564 357.763C110.617 356.842 109.683 355.909 108.762 354.963L107.329 356.358ZM113.089 361.956C114.075 362.862 115.073 363.754 116.084 364.632L117.395 363.122C116.399 362.256 115.414 361.377 114.442 360.483L113.089 361.956ZM119.152 367.224C120.187 368.074 121.233 368.909 122.291 369.729L123.517 368.149C122.473 367.34 121.441 366.516 120.421 365.679L119.152 367.224ZM125.5 372.146C126.58 372.936 127.671 373.712 128.774 374.472L129.91 372.826C128.822 372.076 127.746 371.311 126.681 370.532L125.5 372.146ZM132.112 376.705C133.235 377.434 134.369 378.148 135.513 378.845L136.554 377.138C135.426 376.45 134.308 375.746 133.201 375.028L132.112 376.705ZM138.97 380.887C140.131 381.552 141.303 382.201 142.485 382.833L143.429 381.07C142.264 380.446 141.108 379.807 139.963 379.151L138.97 380.887ZM146.052 384.678C147.248 385.276 148.454 385.858 149.67 386.423L150.513 384.609C149.315 384.052 148.125 383.479 146.946 382.889L146.052 384.678ZM153.337 388.065C154.564 388.594 155.801 389.107 157.046 389.602L157.785 387.744C156.558 387.255 155.339 386.75 154.128 386.229L153.337 388.065ZM160.802 391.036C162.057 391.495 163.319 391.936 164.59 392.361L165.223 390.464C163.971 390.045 162.726 389.61 161.489 389.158L160.802 391.036ZM168.419 393.58C169.698 393.967 170.985 394.337 172.279 394.689L172.804 392.759C171.528 392.412 170.26 392.047 168.999 391.665L168.419 393.58ZM176.168 395.689C177.468 396.003 178.774 396.3 180.087 396.579L180.503 394.623C179.208 394.348 177.92 394.055 176.639 393.745L176.168 395.689ZM184.025 397.358C185.341 397.599 186.663 397.822 187.992 398.026L188.296 396.05C186.986 395.848 185.682 395.628 184.385 395.39L184.025 397.358ZM191.962 398.582C193.289 398.748 194.622 398.897 195.96 399.027L196.153 397.036C194.834 396.908 193.52 396.762 192.212 396.597L191.962 398.582ZM199.957 399.36C201.29 399.452 202.627 399.526 203.97 399.582L204.052 397.583C202.728 397.529 201.409 397.456 200.095 397.365L199.957 399.36ZM207.982 399.692C208.653 399.702 209.326 399.706 209.999 399.706V397.706C209.335 397.706 208.672 397.702 208.01 397.693L207.982 399.692ZM209.999 399.706C210.67 399.706 211.34 399.702 212.009 399.692L211.981 397.693C211.322 397.702 210.661 397.706 209.999 397.706V399.706ZM216.023 399.582C217.364 399.526 218.7 399.452 220.032 399.36L219.894 397.365C218.581 397.456 217.263 397.529 215.94 397.584L216.023 399.582ZM224.035 399.027C225.371 398.897 226.702 398.749 228.027 398.583L227.778 396.598C226.471 396.762 225.159 396.909 223.841 397.037L224.035 399.027ZM232.005 398.026C233.331 397.822 234.652 397.599 235.965 397.359L235.605 395.391C234.31 395.629 233.008 395.848 231.7 396.05L232.005 398.026ZM239.905 396.58C241.217 396.301 242.523 396.005 243.822 395.69L243.352 393.746C242.071 394.056 240.784 394.349 239.49 394.624L239.905 396.58ZM247.713 394.69C249.007 394.338 250.294 393.968 251.573 393.581L250.994 391.667C249.733 392.048 248.464 392.413 247.188 392.76L247.713 394.69ZM255.401 392.363C256.672 391.938 257.936 391.496 259.192 391.037L258.505 389.159C257.267 389.611 256.021 390.047 254.767 390.466L255.401 392.363ZM262.945 389.605C264.191 389.109 265.428 388.597 266.656 388.067L265.864 386.231C264.653 386.752 263.434 387.258 262.206 387.747L262.945 389.605ZM270.322 386.426C271.537 385.861 272.743 385.279 273.939 384.682L273.046 382.892C271.866 383.482 270.677 384.055 269.479 384.612L270.322 386.426ZM277.507 382.836C278.689 382.204 279.86 381.555 281.022 380.891L280.029 379.155C278.884 379.81 277.729 380.449 276.564 381.073L277.507 382.836ZM284.48 378.848C285.624 378.151 286.757 377.438 287.879 376.71L286.791 375.032C285.684 375.75 284.566 376.453 283.439 377.141L284.48 378.848ZM291.218 374.476C292.32 373.716 293.412 372.94 294.492 372.15L293.311 370.536C292.246 371.315 291.17 372.08 290.082 372.829L291.218 374.476ZM297.7 369.734C298.758 368.913 299.805 368.078 300.839 367.228L299.57 365.683C298.55 366.52 297.518 367.344 296.475 368.153L297.7 369.734ZM303.908 364.636C304.413 364.197 304.915 363.755 305.414 363.309L304.081 361.818C303.589 362.257 303.094 362.694 302.596 363.127L303.908 364.636Z"
        fill="white" />
    <path
        d="M111.065 153.044C110.665 153.425 110.651 154.058 111.032 154.458C111.414 154.857 112.047 154.872 112.446 154.49L111.065 153.044ZM329.016 333.106C329.135 333.645 329.669 333.986 330.208 333.867L338.996 331.926C339.535 331.806 339.876 331.273 339.757 330.733C339.638 330.194 339.104 329.853 338.565 329.973L330.753 331.698L329.027 323.887C328.908 323.347 328.374 323.007 327.835 323.126C327.296 323.245 326.955 323.779 327.074 324.318L329.016 333.106ZM113.846 153.171C114.25 152.795 114.273 152.162 113.897 151.758C113.521 151.353 112.888 151.33 112.484 151.706L113.846 153.171ZM115.376 149.089C114.962 149.454 114.921 150.086 115.286 150.5C115.651 150.915 116.283 150.955 116.698 150.59L115.376 149.089ZM119.619 148.088C120.043 147.734 120.1 147.103 119.747 146.679C119.393 146.255 118.762 146.198 118.338 146.551L119.619 148.088ZM121.368 144.095C120.934 144.437 120.86 145.065 121.202 145.499C121.544 145.933 122.173 146.007 122.606 145.665L121.368 144.095ZM125.659 143.324C126.101 142.994 126.193 142.368 125.863 141.925C125.533 141.482 124.906 141.391 124.463 141.721L125.659 143.324ZM127.622 139.432C127.17 139.75 127.062 140.374 127.38 140.826C127.698 141.277 128.322 141.386 128.773 141.068L127.622 139.432ZM131.948 138.896C132.408 138.591 132.533 137.97 132.228 137.51C131.922 137.05 131.301 136.925 130.841 137.23L131.948 138.896ZM134.12 135.116C133.652 135.409 133.51 136.026 133.802 136.495C134.095 136.963 134.712 137.105 135.181 136.812L134.12 135.116ZM138.469 134.816C138.945 134.536 139.104 133.923 138.824 133.447C138.544 132.971 137.931 132.812 137.455 133.093L138.469 134.816ZM140.843 131.16C140.36 131.427 140.184 132.036 140.451 132.519C140.718 133.003 141.327 133.178 141.81 132.911L140.843 131.16ZM145.202 131.098C145.692 130.844 145.884 130.241 145.631 129.75C145.377 129.26 144.774 129.068 144.283 129.322L145.202 131.098ZM147.772 127.577C147.275 127.818 147.066 128.415 147.307 128.913C147.547 129.41 148.145 129.618 148.642 129.378L147.772 127.577ZM152.128 127.753C152.632 127.527 152.856 126.935 152.63 126.431C152.403 125.927 151.811 125.703 151.308 125.929L152.128 127.753ZM154.887 124.378C154.377 124.591 154.137 125.176 154.349 125.686C154.562 126.196 155.147 126.437 155.657 126.224L154.887 124.378ZM159.227 124.792C159.742 124.594 159.999 124.015 159.801 123.5C159.602 122.984 159.023 122.727 158.508 122.926L159.227 124.792ZM162.167 121.573C161.647 121.758 161.374 122.329 161.558 122.85C161.743 123.37 162.314 123.643 162.835 123.459L162.167 121.573ZM166.477 122.225C167.003 122.055 167.291 121.491 167.121 120.966C166.951 120.44 166.387 120.152 165.862 120.322L166.477 122.225ZM169.589 119.173C169.059 119.328 168.755 119.884 168.911 120.414C169.066 120.944 169.622 121.247 170.152 121.092L169.589 119.173ZM173.857 120.06C174.391 119.919 174.709 119.372 174.569 118.838C174.428 118.304 173.881 117.985 173.347 118.126L173.857 120.06ZM177.132 117.183C176.594 117.309 176.26 117.847 176.387 118.385C176.513 118.922 177.051 119.256 177.589 119.13L177.132 117.183ZM181.345 118.302C181.886 118.191 182.234 117.662 182.122 117.121C182.011 116.58 181.482 116.232 180.941 116.343L181.345 118.302ZM184.773 115.609C184.229 115.705 183.866 116.224 183.963 116.768C184.06 117.312 184.579 117.674 185.122 117.578L184.773 115.609ZM188.919 116.957C189.465 116.875 189.842 116.366 189.76 115.82C189.678 115.274 189.169 114.897 188.623 114.979L188.919 116.957ZM192.488 114.454C191.94 114.521 191.55 115.02 191.617 115.568C191.683 116.116 192.182 116.506 192.73 116.44L192.488 114.454ZM196.554 116.026C197.103 115.974 197.507 115.487 197.455 114.937C197.403 114.387 196.915 113.983 196.366 114.035L196.554 116.026ZM200.253 113.721C199.702 113.758 199.285 114.235 199.322 114.786C199.359 115.337 199.836 115.754 200.387 115.717L200.253 113.721ZM204.228 115.511C204.779 115.489 205.209 115.023 205.187 114.471C205.165 113.92 204.699 113.49 204.147 113.512L204.228 115.511ZM208.046 113.408C207.494 113.415 207.052 113.869 207.059 114.421C207.067 114.974 207.52 115.415 208.073 115.408L208.046 113.408ZM211.987 115.409C212.54 115.416 212.994 114.975 213.001 114.423C213.009 113.87 212.567 113.417 212.015 113.409L211.987 115.409ZM216.028 113.52C215.476 113.497 215.01 113.926 214.987 114.477C214.964 115.029 215.393 115.495 215.945 115.518L216.028 113.52ZM219.903 115.737C220.454 115.775 220.931 115.359 220.969 114.808C221.007 114.257 220.592 113.78 220.041 113.741L219.903 115.737ZM224.038 114.074C223.488 114.021 222.999 114.423 222.946 114.973C222.892 115.522 223.295 116.011 223.844 116.065L224.038 114.074ZM227.786 116.504C228.334 116.573 228.834 116.184 228.903 115.636C228.972 115.088 228.583 114.588 228.035 114.519L227.786 116.504ZM232.006 115.075C231.46 114.991 230.95 115.365 230.865 115.911C230.781 116.457 231.156 116.967 231.701 117.051L232.006 115.075ZM235.613 117.711C236.156 117.81 236.677 117.451 236.777 116.907C236.876 116.364 236.516 115.843 235.973 115.744L235.613 117.711ZM239.91 116.522C239.37 116.407 238.839 116.752 238.724 117.292C238.61 117.833 238.955 118.364 239.495 118.478L239.91 116.522ZM243.359 119.356C243.896 119.486 244.436 119.156 244.566 118.62C244.696 118.083 244.366 117.542 243.829 117.412L243.359 119.356ZM247.719 118.412C247.186 118.267 246.637 118.582 246.492 119.115C246.347 119.647 246.661 120.197 247.194 120.342L247.719 118.412ZM250.999 121.436C251.528 121.596 252.086 121.297 252.246 120.768C252.406 120.24 252.107 119.682 251.579 119.521L250.999 121.436ZM255.408 120.74C254.884 120.565 254.318 120.848 254.143 121.372C253.968 121.896 254.251 122.462 254.775 122.637L255.408 120.74ZM258.509 123.943C259.028 124.133 259.602 123.866 259.792 123.347C259.981 122.829 259.715 122.254 259.196 122.065L258.509 123.943ZM262.952 123.499C262.439 123.294 261.858 123.545 261.654 124.058C261.449 124.571 261.7 125.153 262.213 125.357L262.952 123.499ZM265.87 126.872C266.377 127.091 266.965 126.857 267.184 126.35C267.402 125.843 267.169 125.254 266.661 125.036L265.87 126.872ZM270.328 126.678C269.828 126.445 269.233 126.662 269 127.163C268.767 127.664 268.984 128.259 269.485 128.492L270.328 126.678ZM273.053 130.211C273.547 130.458 274.147 130.258 274.394 129.764C274.641 129.27 274.441 128.669 273.947 128.422L273.053 130.211ZM277.513 130.267C277.026 130.007 276.42 130.19 276.16 130.677C275.899 131.164 276.083 131.77 276.57 132.031L277.513 130.267ZM280.036 133.949C280.515 134.223 281.126 134.057 281.4 133.578C281.675 133.098 281.508 132.487 281.029 132.213L280.036 133.949ZM284.486 134.255C284.014 133.968 283.399 134.117 283.111 134.588C282.824 135.06 282.973 135.675 283.444 135.963L284.486 134.255ZM286.798 138.073C287.261 138.374 287.88 138.242 288.181 137.778C288.482 137.315 288.35 136.696 287.887 136.395L286.798 138.073ZM291.224 138.628C290.77 138.315 290.147 138.429 289.834 138.884C289.52 139.339 289.634 139.961 290.089 140.275L291.224 138.628ZM293.318 142.569C293.764 142.895 294.39 142.798 294.716 142.352C295.042 141.906 294.945 141.281 294.499 140.954L293.318 142.569ZM297.708 143.371C297.271 143.033 296.643 143.112 296.305 143.549C295.966 143.985 296.046 144.613 296.482 144.952L297.708 143.371ZM299.577 147.422C300.004 147.772 300.634 147.71 300.985 147.284C301.335 146.857 301.273 146.227 300.847 145.876L299.577 147.422ZM303.915 148.468C303.499 148.106 302.867 148.15 302.505 148.567C302.142 148.984 302.187 149.616 302.604 149.978L303.915 148.468ZM305.557 152.617C305.963 152.991 306.596 152.964 306.97 152.557C307.343 152.151 307.317 151.518 306.91 151.145L305.557 152.617ZM309.829 153.904C309.433 153.519 308.8 153.528 308.415 153.924C308.03 154.32 308.039 154.953 308.435 155.338L309.829 153.904ZM311.237 158.137C311.622 158.533 312.255 158.542 312.651 158.157C313.047 157.772 313.055 157.138 312.67 156.743L311.237 158.137ZM315.431 159.66C315.057 159.254 314.425 159.227 314.018 159.601C313.612 159.975 313.586 160.608 313.96 161.014L315.431 159.66ZM316.601 163.966C316.963 164.382 317.595 164.426 318.011 164.064C318.428 163.701 318.472 163.07 318.109 162.653L316.601 163.966ZM320.704 165.72C320.353 165.293 319.723 165.232 319.296 165.583C318.87 165.933 318.808 166.564 319.159 166.99L320.704 165.72ZM321.631 170.084C321.97 170.52 322.598 170.599 323.034 170.261C323.47 169.922 323.549 169.294 323.211 168.857L321.631 170.084ZM325.629 172.064C325.303 171.619 324.677 171.522 324.232 171.849C323.786 172.175 323.69 172.801 324.016 173.246L325.629 172.064ZM326.312 176.474C326.625 176.928 327.248 177.042 327.703 176.729C328.157 176.415 328.271 175.792 327.958 175.338L326.312 176.474ZM330.193 178.674C329.892 178.211 329.273 178.08 328.809 178.38C328.346 178.681 328.215 179.301 328.516 179.764L330.193 178.674ZM330.628 183.116C330.916 183.587 331.531 183.736 332.002 183.448C332.474 183.161 332.623 182.545 332.335 182.074L330.628 183.116ZM334.379 185.529C334.104 185.05 333.493 184.884 333.014 185.159C332.535 185.433 332.369 186.044 332.643 186.523L334.379 185.529ZM334.564 189.989C334.825 190.475 335.431 190.658 335.918 190.398C336.404 190.137 336.588 189.531 336.327 189.044L334.564 189.989ZM338.174 192.61C337.927 192.116 337.326 191.916 336.832 192.163C336.338 192.41 336.138 193.01 336.385 193.504L338.174 192.61ZM338.107 197.071C338.34 197.572 338.935 197.788 339.435 197.555C339.936 197.322 340.153 196.727 339.92 196.227L338.107 197.071ZM341.564 199.893C341.345 199.386 340.757 199.152 340.25 199.371C339.743 199.59 339.509 200.178 339.728 200.686L341.564 199.893ZM341.245 204.342C341.45 204.855 342.031 205.105 342.544 204.9C343.057 204.696 343.307 204.114 343.103 203.601L341.245 204.342ZM344.538 207.357C344.349 206.839 343.774 206.572 343.256 206.762C342.737 206.952 342.471 207.526 342.66 208.045L344.538 207.357ZM343.968 211.779C344.143 212.302 344.709 212.585 345.233 212.41C345.757 212.235 346.04 211.668 345.865 211.144L343.968 211.779ZM347.085 214.974C346.925 214.445 346.366 214.147 345.838 214.307C345.309 214.467 345.011 215.025 345.171 215.554L347.085 214.974ZM346.266 219.358C346.411 219.891 346.961 220.205 347.494 220.06C348.026 219.915 348.341 219.365 348.195 218.832L346.266 219.358ZM349.197 222.722C349.067 222.185 348.526 221.856 347.989 221.986C347.452 222.116 347.123 222.657 347.253 223.193L349.197 222.722ZM348.132 227.057C348.247 227.597 348.778 227.942 349.318 227.827C349.858 227.712 350.203 227.181 350.088 226.641L348.132 227.057ZM350.868 230.578C350.768 230.035 350.247 229.675 349.704 229.775C349.16 229.874 348.801 230.395 348.9 230.939L350.868 230.578ZM349.561 234.85C349.645 235.396 350.156 235.77 350.702 235.686C351.247 235.601 351.622 235.091 351.537 234.545L349.561 234.85ZM352.093 238.516C352.024 237.968 351.524 237.579 350.976 237.648C350.428 237.717 350.04 238.217 350.109 238.765L352.093 238.516ZM350.549 242.707C350.602 243.257 351.091 243.659 351.641 243.605C352.191 243.552 352.593 243.063 352.539 242.513L350.549 242.707ZM352.872 246.51C352.834 245.959 352.356 245.544 351.806 245.582C351.255 245.62 350.839 246.098 350.877 246.648L352.872 246.51ZM351.096 250.606C351.119 251.158 351.585 251.587 352.137 251.564C352.689 251.541 353.117 251.075 353.095 250.523L351.096 250.606ZM353.205 254.536C353.198 253.984 352.744 253.542 352.192 253.55C351.639 253.557 351.198 254.011 351.206 254.564L353.205 254.536ZM351.205 258.554C351.198 259.106 351.639 259.56 352.191 259.568C352.744 259.576 353.197 259.134 353.205 258.582L351.205 258.554ZM353.092 262.638C353.115 262.086 352.687 261.62 352.135 261.597C351.583 261.574 351.117 262.002 351.094 262.554L353.092 262.638ZM350.871 266.549C350.832 267.1 351.247 267.578 351.798 267.616C352.349 267.655 352.827 267.24 352.866 266.689L350.871 266.549ZM352.525 270.732C352.579 270.183 352.178 269.693 351.628 269.639C351.078 269.585 350.589 269.987 350.535 270.537L352.525 270.732ZM350.087 274.512C350.017 275.06 350.405 275.56 350.953 275.63C351.501 275.699 352.001 275.312 352.071 274.764L350.087 274.512ZM351.502 278.783C351.588 278.237 351.214 277.725 350.669 277.64C350.123 277.555 349.612 277.929 349.526 278.474L351.502 278.783ZM348.854 282.418C348.753 282.961 349.112 283.483 349.655 283.583C350.198 283.684 350.72 283.325 350.82 282.782L348.854 282.418ZM350.024 286.762C350.14 286.222 349.796 285.69 349.256 285.574C348.717 285.458 348.185 285.801 348.069 286.341L350.024 286.762ZM347.172 290.24C347.041 290.777 347.369 291.318 347.905 291.45C348.442 291.581 348.983 291.253 349.115 290.716L347.172 290.24ZM348.093 294.643C348.24 294.111 347.927 293.56 347.395 293.414C346.862 293.267 346.312 293.58 346.165 294.112L348.093 294.643ZM345.047 297.954C344.885 298.482 345.182 299.041 345.71 299.203C346.238 299.365 346.797 299.068 346.959 298.54L345.047 297.954ZM345.715 302.402C345.892 301.879 345.611 301.312 345.088 301.135C344.565 300.958 343.997 301.239 343.82 301.762L345.715 302.402ZM342.485 305.534C342.293 306.051 342.557 306.627 343.075 306.819C343.593 307.01 344.169 306.746 344.36 306.228L342.485 305.534ZM342.897 310.013C343.104 309.501 342.856 308.918 342.343 308.712C341.831 308.505 341.249 308.753 341.042 309.265L342.897 310.013ZM339.494 312.954C339.273 313.46 339.504 314.05 340.01 314.271C340.516 314.492 341.106 314.261 341.327 313.754L339.494 312.954ZM339.65 317.45C339.885 316.951 339.671 316.355 339.171 316.119C338.672 315.884 338.076 316.098 337.841 316.598L339.65 317.45ZM336.085 320.193C335.835 320.686 336.032 321.287 336.525 321.537C337.018 321.786 337.619 321.589 337.869 321.096L336.085 320.193ZM335.985 324.69C336.248 324.205 336.068 323.598 335.583 323.334C335.097 323.071 334.49 323.251 334.227 323.736L335.985 324.69ZM332.269 327.226C331.992 327.704 332.155 328.316 332.633 328.593C333.11 328.87 333.722 328.707 333.999 328.229L332.269 327.226ZM331.914 331.71C332.205 331.241 332.059 330.624 331.59 330.334C331.12 330.043 330.504 330.189 330.213 330.658L331.914 331.71ZM112.446 154.49C112.91 154.047 113.376 153.607 113.846 153.171L112.484 151.706C112.008 152.149 111.535 152.595 111.065 153.044L112.446 154.49ZM116.698 150.59C117.66 149.743 118.634 148.909 119.619 148.088L118.338 146.551C117.339 147.384 116.352 148.23 115.376 149.089L116.698 150.59ZM122.606 145.665C123.613 144.871 124.63 144.091 125.659 143.324L124.463 141.721C123.42 142.498 122.389 143.29 121.368 144.095L122.606 145.665ZM128.773 141.068C129.821 140.33 130.879 139.606 131.948 138.896L130.841 137.23C129.758 137.95 128.684 138.684 127.622 139.432L128.773 141.068ZM135.181 136.812C136.267 136.132 137.363 135.467 138.469 134.816L137.455 133.093C136.333 133.752 135.221 134.427 134.12 135.116L135.181 136.812ZM141.81 132.911C142.931 132.292 144.062 131.687 145.202 131.098L144.283 129.322C143.127 129.919 141.981 130.532 140.843 131.16L141.81 132.911ZM148.642 129.378C149.795 128.821 150.957 128.279 152.128 127.753L151.308 125.929C150.12 126.463 148.942 127.012 147.772 127.577L148.642 129.378ZM155.657 126.224C156.839 125.731 158.029 125.254 159.227 124.792L158.508 122.926C157.293 123.394 156.086 123.878 154.887 124.378L155.657 126.224ZM162.835 123.459C164.042 123.032 165.256 122.62 166.477 122.225L165.862 120.322C164.623 120.723 163.391 121.14 162.167 121.573L162.835 123.459ZM170.152 121.092C171.38 120.731 172.615 120.387 173.857 120.06L173.347 118.126C172.087 118.458 170.835 118.807 169.589 119.173L170.152 121.092ZM177.589 119.13C178.834 118.837 180.087 118.561 181.345 118.302L180.941 116.343C179.665 116.606 178.395 116.886 177.132 117.183L177.589 119.13ZM185.122 117.578C186.382 117.354 187.648 117.147 188.919 116.957L188.623 114.979C187.334 115.172 186.05 115.382 184.773 115.609L185.122 117.578ZM192.73 116.44C193.999 116.285 195.274 116.147 196.554 116.026L196.366 114.035C195.068 114.158 193.776 114.297 192.488 114.454L192.73 116.44ZM200.387 115.717C201.663 115.631 202.943 115.562 204.228 115.511L204.147 113.512C202.845 113.565 201.546 113.634 200.253 113.721L200.387 115.717ZM208.073 115.408C208.714 115.399 209.356 115.395 209.999 115.395V113.395C209.347 113.395 208.696 113.399 208.046 113.408L208.073 115.408ZM209.999 115.395C210.663 115.395 211.326 115.4 211.987 115.409L212.015 113.409C211.344 113.4 210.672 113.395 209.999 113.395V115.395ZM215.945 115.518C217.269 115.573 218.588 115.646 219.903 115.737L220.041 113.741C218.708 113.649 217.37 113.575 216.028 113.52L215.945 115.518ZM223.844 116.065C225.164 116.193 226.478 116.34 227.786 116.504L228.035 114.519C226.708 114.353 225.376 114.204 224.038 114.074L223.844 116.065ZM231.701 117.051C233.011 117.253 234.315 117.473 235.613 117.711L235.973 115.744C234.657 115.503 233.335 115.28 232.006 115.075L231.701 117.051ZM239.495 118.478C240.79 118.753 242.078 119.046 243.359 119.356L243.829 117.412C242.53 117.098 241.223 116.801 239.91 116.522L239.495 118.478ZM247.194 120.342C248.47 120.689 249.738 121.054 250.999 121.436L251.579 119.521C250.3 119.134 249.013 118.764 247.719 118.412L247.194 120.342ZM254.775 122.637C256.027 123.056 257.272 123.491 258.509 123.943L259.196 122.065C257.941 121.606 256.679 121.165 255.408 120.74L254.775 122.637ZM262.213 125.357C263.44 125.845 264.659 126.351 265.87 126.872L266.661 125.036C265.434 124.507 264.197 123.994 262.952 123.499L262.213 125.357ZM269.485 128.492C270.684 129.049 271.873 129.622 273.053 130.211L273.947 128.422C272.75 127.825 271.544 127.243 270.328 126.678L269.485 128.492ZM276.57 132.031C277.735 132.654 278.89 133.294 280.036 133.949L281.029 132.213C279.867 131.549 278.695 130.9 277.513 130.267L276.57 132.031ZM283.444 135.963C284.573 136.651 285.691 137.354 286.798 138.073L287.887 136.395C286.764 135.666 285.63 134.953 284.486 134.255L283.444 135.963ZM290.089 140.275C291.177 141.025 292.253 141.789 293.318 142.569L294.499 140.954C293.419 140.164 292.327 139.389 291.224 138.628L290.089 140.275ZM296.482 144.952C297.526 145.761 298.558 146.584 299.577 147.422L300.847 145.876C299.812 145.027 298.766 144.192 297.708 143.371L296.482 144.952ZM302.604 149.978C303.6 150.844 304.585 151.724 305.557 152.617L306.91 151.145C305.925 150.239 304.926 149.347 303.915 148.468L302.604 149.978ZM308.435 155.338C309.382 156.258 310.316 157.191 311.237 158.137L312.67 156.743C311.737 155.783 310.789 154.837 309.829 153.904L308.435 155.338ZM313.96 161.014C314.853 161.986 315.734 162.97 316.601 163.966L318.109 162.653C317.231 161.643 316.338 160.645 315.431 159.66L313.96 161.014ZM319.159 166.99C319.997 168.01 320.821 169.041 321.631 170.084L323.211 168.857C322.389 167.8 321.554 166.754 320.704 165.72L319.159 166.99ZM324.016 173.246C324.796 174.311 325.561 175.387 326.312 176.474L327.958 175.338C327.196 174.235 326.42 173.144 325.629 172.064L324.016 173.246ZM328.516 179.764C329.235 180.871 329.939 181.988 330.628 183.116L332.335 182.074C331.636 180.93 330.922 179.797 330.193 178.674L328.516 179.764ZM332.643 186.523C333.299 187.668 333.94 188.824 334.564 189.989L336.327 189.044C335.693 187.862 335.044 186.691 334.379 185.529L332.643 186.523ZM336.385 193.504C336.975 194.684 337.549 195.873 338.107 197.071L339.92 196.227C339.354 195.012 338.772 193.806 338.174 192.61L336.385 193.504ZM339.728 200.686C340.25 201.896 340.756 203.114 341.245 204.342L343.103 203.601C342.607 202.357 342.094 201.12 341.564 199.893L339.728 200.686ZM342.66 208.045C343.113 209.281 343.549 210.526 343.968 211.779L345.865 211.144C345.44 209.874 344.998 208.611 344.538 207.357L342.66 208.045ZM345.171 215.554C345.553 216.815 345.918 218.083 346.266 219.358L348.195 218.832C347.843 217.539 347.473 216.252 347.085 214.974L345.171 215.554ZM347.253 223.193C347.563 224.474 347.857 225.762 348.132 227.057L350.088 226.641C349.809 225.328 349.512 224.022 349.197 222.722L347.253 223.193ZM348.9 230.939C349.138 232.236 349.358 233.54 349.561 234.85L351.537 234.545C351.332 233.216 351.109 231.894 350.868 230.578L348.9 230.939ZM350.109 238.765C350.274 240.074 350.42 241.388 350.549 242.707L352.539 242.513C352.409 241.175 352.26 239.843 352.093 238.516L350.109 238.765ZM350.877 246.648C350.968 247.963 351.041 249.282 351.096 250.606L353.095 250.523C353.039 249.181 352.965 247.843 352.872 246.51L350.877 246.648ZM351.206 254.564C351.215 255.225 351.219 255.888 351.219 256.552H353.219C353.219 255.879 353.215 255.207 353.205 254.536L351.206 254.564ZM351.219 256.552C351.219 257.221 351.215 257.888 351.205 258.554L353.205 258.582C353.215 257.906 353.219 257.23 353.219 256.552H351.219ZM351.094 262.554C351.038 263.891 350.963 265.222 350.871 266.549L352.866 266.689C352.96 265.343 353.035 263.993 353.092 262.638L351.094 262.554ZM350.535 270.537C350.404 271.867 350.255 273.192 350.087 274.512L352.071 274.764C352.241 273.426 352.393 272.082 352.525 270.732L350.535 270.537ZM349.526 278.474C349.32 279.795 349.096 281.11 348.854 282.418L350.82 282.782C351.066 281.455 351.294 280.122 351.502 278.783L349.526 278.474ZM348.069 286.341C347.788 287.648 347.489 288.948 347.172 290.24L349.115 290.716C349.436 289.405 349.739 288.087 350.024 286.762L348.069 286.341ZM346.165 294.112C345.81 295.4 345.437 296.681 345.047 297.954L346.959 298.54C347.355 297.249 347.733 295.95 348.093 294.643L346.165 294.112ZM343.82 301.762C343.392 303.027 342.947 304.285 342.485 305.534L344.36 306.228C344.829 304.961 345.281 303.686 345.715 302.402L343.82 301.762ZM341.042 309.265C340.543 310.504 340.027 311.733 339.494 312.954L341.327 313.754C341.867 312.516 342.391 311.269 342.897 310.013L341.042 309.265ZM337.841 316.598C337.272 317.806 336.686 319.004 336.085 320.193L337.869 321.096C338.479 319.891 339.073 318.675 339.65 317.45L337.841 316.598ZM334.227 323.736C333.59 324.91 332.938 326.073 332.269 327.226L333.999 328.229C334.677 327.06 335.339 325.88 335.985 324.69L334.227 323.736ZM330.213 330.658C329.862 331.226 329.508 331.79 329.149 332.352L330.835 333.428C331.199 332.858 331.559 332.286 331.914 331.71L330.213 330.658Z"
        fill="white" />
    <path
        d="M291.696 287.083C288.606 287.55 285.76 285.751 284.969 282.796C284.419 280.724 284.88 278.725 285.681 276.808C286.717 274.352 288.339 272.299 290.294 270.487C290.59 270.217 290.816 270.173 291.13 270.468C293.906 273.071 296.039 276.058 296.634 279.932C296.653 280.015 296.669 280.094 296.669 280.177V281.042C296.831 283.959 294.659 286.632 291.696 287.083Z"
        fill="white" stroke="white" stroke-linecap="round" stroke-linejoin="round" />
    <path d="M290.574 283.883V288.561V290.429V291.92" stroke="white" stroke-linecap="round" stroke-linejoin="round" />
    <path
        d="M277.192 287.198C274.868 287.55 272.725 286.193 272.127 283.972C271.714 282.415 272.061 280.908 272.661 279.466C273.44 277.616 274.661 276.072 276.133 274.708C276.356 274.505 276.528 274.47 276.763 274.696C278.852 276.653 280.457 278.903 280.906 281.817C280.918 281.878 280.934 281.938 280.934 282.002V282.653C281.055 284.849 279.421 286.861 277.192 287.201V287.198Z"
        fill="white" stroke="white" stroke-linecap="round" stroke-linejoin="round" />
    <path d="M276.346 284.789V288.31V289.714V290.836" stroke="white" stroke-linecap="round" stroke-linejoin="round" />
    <path
        d="M87.9865 177.414C86.3014 177.414 84.7149 176.998 83.3859 175.946C80.9854 174.004 79.9744 171.484 80.7088 168.494C81.4433 165.5 83.5067 163.774 86.4604 163.082C86.7974 163.002 87.1535 163.043 87.4905 163.043C88.244 163.062 88.4824 162.865 88.6001 162.112C88.8195 160.606 89.4712 159.258 90.3837 158.048C91.9512 156.026 94.0718 155.035 96.5517 154.736C99.9442 154.339 102.621 155.607 104.723 158.207C105.079 158.642 105.476 158.801 106.052 158.702C110.077 158.029 113.39 160.171 114.442 164.114C114.662 164.947 114.719 165.007 115.593 165.087C118.963 165.443 121.284 168.039 121.227 171.392C121.189 174.446 118.846 177.001 115.832 177.338C115.336 177.398 114.859 177.417 114.363 177.417H87.9865V177.414Z"
        stroke="white" stroke-miterlimit="10" />
    <path
        d="M98.3774 168.987L100.199 169.565C99.9199 170.581 99.4544 171.336 98.8027 171.831C98.1553 172.322 97.3322 172.567 96.3335 172.567C95.0978 172.567 94.0822 172.146 93.2866 171.304C92.491 170.458 92.0933 169.303 92.0933 167.838C92.0933 166.29 92.4932 165.088 93.293 164.233C94.0928 163.374 95.1444 162.944 96.4478 162.944C97.5861 162.944 98.5107 163.281 99.2217 163.954C99.6449 164.351 99.9622 164.923 100.174 165.667L98.314 166.112C98.2039 165.629 97.9733 165.249 97.6221 164.969C97.2751 164.69 96.8519 164.55 96.3525 164.55C95.6628 164.55 95.1021 164.798 94.6704 165.293C94.243 165.788 94.0293 166.59 94.0293 167.699C94.0293 168.875 94.2409 169.713 94.6641 170.212C95.0872 170.712 95.6374 170.961 96.3145 170.961C96.8138 170.961 97.2433 170.803 97.603 170.485C97.9627 170.168 98.2209 169.669 98.3774 168.987ZM101.437 167.813C101.437 166.865 101.579 166.069 101.862 165.426C102.074 164.952 102.362 164.527 102.726 164.15C103.094 163.774 103.496 163.494 103.932 163.312C104.511 163.067 105.18 162.944 105.938 162.944C107.309 162.944 108.405 163.37 109.226 164.22C110.051 165.071 110.463 166.254 110.463 167.769C110.463 169.271 110.055 170.447 109.238 171.298C108.422 172.144 107.33 172.567 105.963 172.567C104.579 172.567 103.479 172.146 102.662 171.304C101.845 170.458 101.437 169.294 101.437 167.813ZM103.373 167.75C103.373 168.803 103.616 169.603 104.103 170.149C104.59 170.691 105.208 170.961 105.957 170.961C106.706 170.961 107.319 170.693 107.797 170.155C108.28 169.614 108.521 168.803 108.521 167.724C108.521 166.658 108.286 165.862 107.816 165.337C107.351 164.813 106.731 164.55 105.957 164.55C105.182 164.55 104.558 164.817 104.084 165.35C103.61 165.879 103.373 166.679 103.373 167.75ZM115.449 174.099H111.341V173.033L112.758 171.642C113.018 171.39 113.222 171.182 113.369 171.018C113.517 170.844 113.621 170.688 113.681 170.55C113.742 170.411 113.772 170.268 113.772 170.121C113.772 169.965 113.72 169.843 113.616 169.757C113.521 169.67 113.387 169.627 113.213 169.627C113.049 169.627 112.871 169.67 112.68 169.757C112.498 169.843 112.295 169.986 112.069 170.186L111.289 169.224C111.567 168.981 111.874 168.786 112.212 168.639C112.559 168.483 112.962 168.405 113.421 168.405C113.985 168.405 114.435 168.543 114.773 168.821C115.12 169.089 115.293 169.479 115.293 169.991C115.293 170.251 115.246 170.493 115.15 170.719C115.055 170.935 114.903 171.165 114.695 171.408C114.487 171.642 114.214 171.915 113.876 172.227L113.213 172.825H115.449V174.099Z"
        fill="white" />
    <path
        d="M155.264 171.624V168.833H152.451V166.907H155.264V164.117H157.139V166.907H159.958V168.833H157.139V171.624H155.264Z"
        fill="#24B54A" />
    <path
        d="M155.264 159.007V156.217H152.451V154.291H155.264V151.5H157.139V154.291H159.958V156.217H157.139V159.007H155.264Z"
        fill="#24B54A" />
    <path
        d="M178.317 171.3V168.509H175.505V166.583H178.317V163.792H180.192V166.583H183.012V168.509H180.192V171.3H178.317Z"
        fill="#24B54A" />
    <path
        d="M178.317 158.684V155.893H175.505V153.967H178.317V151.176H180.192V153.967H183.012V155.893H180.192V158.684H178.317Z"
        fill="#24B54A" />
    <path d="M288.634 157.365V155.307H292.677V157.365H288.634Z" fill="#24B54A" />
    <path
        d="M178.317 146.836V144.045H175.505V142.119H178.317V139.329H180.192V142.119H183.012V144.045H180.192V146.836H178.317Z"
        fill="#24B54A" />
    <path d="M213.23 171.3V168.509H210.418V166.583H213.23V163.792H215.105V166.583H217.925V168.509H215.105V171.3H213.23Z"
        fill="#24B54A" />
    <path d="M274.88 169.981V167.923H278.923V169.981H274.88Z" fill="#24B54A" />
    <path d="M288.634 169.981V167.923H292.677V169.981H288.634Z" fill="#24B54A" />
</svg>