<svg width="616" height="416" viewBox="0 0 616 416" fill="none" xmlns="http://www.w3.org/2000/svg">
<path d="M30 0L24.2265 10H35.7735L30 0ZM30 386H29V387H30V386ZM616 386L606 380.227V391.773L616 386ZM29 9V386H31V9H29ZM30 387H607V385H30V387Z" fill="#DFDFDF"/>
<path d="M21.2129 375.16L14.2129 375.16L14.2129 370.45L15.1429 370.45L15.1429 374.05L17.1429 374.05L17.1429 370.61L18.0929 370.61L18.0929 374.05L20.2729 374.05L20.2729 370.32L21.2129 370.32L21.2129 375.16ZM21.2129 369.187L16.3629 369.187L16.3629 368.147L16.6629 368.147C16.7829 368.147 16.9129 368.147 17.0329 368.167C16.5829 367.897 16.2029 367.427 16.2029 366.757C16.2029 366.137 16.5929 365.617 17.1329 365.387C16.6129 365.087 16.2029 364.517 16.2029 363.817C16.2029 362.837 16.8929 362.127 18.1529 362.127L21.2129 362.127L21.2129 363.167L18.3229 363.167C17.5129 363.167 17.0229 363.447 17.0229 364.077C17.0229 364.727 17.6029 365.137 18.3529 365.137L21.2129 365.137L21.2129 366.177L18.3429 366.177C17.5229 366.177 17.0229 366.447 17.0229 367.077C17.0229 367.717 17.5929 368.147 18.3729 368.147L21.2129 368.147L21.2129 369.187ZM21.2129 360.818L16.3629 360.818L16.3629 359.778L21.2129 359.778L21.2129 360.818ZM15.5329 360.858L14.3829 360.858L14.3829 359.728L15.5329 359.728L15.5329 360.858ZM21.3729 356.596C21.3729 357.936 20.6629 358.736 19.5729 358.786L19.5729 357.746C20.1929 357.716 20.5829 357.316 20.5829 356.606C20.5829 355.996 20.3029 355.596 19.8729 355.596C19.5229 355.596 19.3229 355.866 19.2129 356.416L19.0829 357.076C18.9029 358.036 18.4329 358.616 17.6529 358.616C16.8229 358.616 16.2029 357.826 16.2029 356.676C16.2029 355.446 16.8229 354.686 17.8229 354.636L17.8229 355.676C17.2929 355.726 16.9929 356.106 16.9929 356.706C16.9929 357.226 17.2229 357.586 17.6029 357.586C17.9429 357.586 18.1129 357.346 18.2229 356.766L18.3529 356.096C18.5329 355.186 18.9629 354.576 19.7929 354.576C20.6929 354.576 21.3729 355.346 21.3729 356.596ZM21.3729 351.674C21.3729 353.014 20.6629 353.814 19.5729 353.864L19.5729 352.824C20.1929 352.794 20.5829 352.394 20.5829 351.684C20.5829 351.074 20.3029 350.674 19.8729 350.674C19.5229 350.674 19.3229 350.944 19.2129 351.494L19.0829 352.154C18.9029 353.114 18.4329 353.694 17.6529 353.694C16.8229 353.694 16.2029 352.904 16.2029 351.754C16.2029 350.524 16.8229 349.764 17.8229 349.714L17.8229 350.754C17.2929 350.804 16.9929 351.184 16.9929 351.784C16.9929 352.304 17.2229 352.664 17.6029 352.664C17.9429 352.664 18.1129 352.424 18.2229 351.844L18.3529 351.174C18.5329 350.264 18.9629 349.654 19.7929 349.654C20.6929 349.654 21.3729 350.424 21.3729 351.674ZM21.2129 348.572L16.3629 348.572L16.3629 347.532L21.2129 347.532L21.2129 348.572ZM15.5329 348.612L14.3829 348.612L14.3829 347.482L15.5329 347.482L15.5329 348.612ZM21.3729 344.03C21.3729 345.46 20.3729 346.46 18.7929 346.46C17.2429 346.46 16.2029 345.45 16.2029 344.03C16.2029 342.6 17.2429 341.59 18.7929 341.59C20.3729 341.59 21.3729 342.6 21.3729 344.03ZM18.7929 345.4C19.8729 345.4 20.5629 344.87 20.5629 344.03C20.5629 343.19 19.8729 342.65 18.7929 342.65C17.6929 342.65 17.0229 343.2 17.0229 344.03C17.0229 344.85 17.6929 345.4 18.7929 345.4ZM21.2129 340.515L16.3629 340.515L16.3629 339.475L16.6329 339.475C16.7629 339.475 16.8829 339.485 17.0329 339.495C16.5829 339.235 16.2029 338.715 16.2029 338.005C16.2029 336.905 16.9329 336.255 18.1529 336.255L21.2129 336.255L21.2129 337.295L18.2929 337.295C17.4829 337.295 17.0229 337.615 17.0229 338.285C17.0229 339.005 17.6129 339.475 18.3329 339.475L21.2129 339.475L21.2129 340.515ZM21.3729 332.829C21.3729 334.279 20.4529 335.239 18.7729 335.239C17.2629 335.239 16.2029 334.239 16.2029 332.869C16.2029 331.409 17.2229 330.579 18.7929 330.579L19.0129 330.579L19.0129 334.189C19.9529 334.169 20.5629 333.609 20.5629 332.819C20.5629 332.259 20.2929 331.769 19.6729 331.669L19.6729 330.619C20.5929 330.719 21.3729 331.479 21.3729 332.829ZM18.2729 334.179L18.2729 331.669C17.5129 331.679 16.9929 332.129 16.9929 332.879C16.9929 333.609 17.5429 334.109 18.2729 334.179ZM21.2129 329.5L16.3629 329.5L16.3629 328.46L16.6329 328.46C16.7629 328.46 16.8829 328.47 17.0329 328.48C16.5829 328.22 16.2029 327.7 16.2029 326.99C16.2029 325.89 16.9329 325.24 18.1529 325.24L21.2129 325.24L21.2129 326.28L18.2929 326.28C17.4829 326.28 17.0229 326.6 17.0229 327.27C17.0229 327.99 17.6129 328.46 18.3329 328.46L21.2129 328.46L21.2129 329.5Z" fill="#DFDFDF"/>
<path d="M516.484 400C516.504 398.76 517.144 398.14 518.274 397.31L518.954 396.8C519.634 396.3 520.264 395.74 520.264 394.95C520.264 394.22 519.804 393.72 519.044 393.72C518.194 393.72 517.684 394.31 517.684 395.35V395.45H516.564V395.3C516.564 393.78 517.564 392.83 519.044 392.83C520.444 392.83 521.354 393.69 521.354 394.95C521.354 396.12 520.574 396.86 519.414 397.71L518.934 398.06C518.264 398.55 517.974 398.79 517.894 399.01H521.414V400H516.484ZM525.005 400.16C523.315 400.16 522.355 398.8 522.355 396.49C522.355 394.2 523.375 392.83 525.005 392.83C526.615 392.83 527.645 394.18 527.645 396.52C527.645 398.82 526.665 400.16 525.005 400.16ZM523.445 396.54C523.445 398.4 524.055 399.27 525.005 399.27C525.965 399.27 526.555 398.4 526.555 396.53C526.555 394.6 525.965 393.72 525.005 393.72C524.015 393.72 523.445 394.61 523.445 396.54ZM531.615 400V398.25H528.355V397.29L531.285 393H532.685V397.32H533.965V398.25H532.685V400H531.615ZM529.375 397.32H531.615V394C531.525 394.17 531.425 394.32 531.315 394.48L529.645 396.94C529.555 397.07 529.455 397.22 529.375 397.32ZM537.089 400.16C535.569 400.16 534.639 399.28 534.629 398.06H535.719C535.729 398.76 536.219 399.27 537.049 399.27C537.939 399.27 538.539 398.67 538.539 397.7C538.539 396.85 538.049 396.18 537.149 396.18C536.489 396.18 535.969 396.58 535.789 397.01H534.739L535.269 393H539.239V394H536.059L535.839 395.64C535.819 395.79 535.789 395.96 535.759 396.11C536.099 395.65 536.679 395.3 537.419 395.3C538.729 395.3 539.619 396.33 539.619 397.67C539.619 399.2 538.559 400.16 537.089 400.16Z" fill="white"/>
<path d="M51.41 399C51.43 397.76 52.07 397.14 53.2 396.31L53.88 395.8C54.56 395.3 55.19 394.74 55.19 393.95C55.19 393.22 54.73 392.72 53.97 392.72C53.12 392.72 52.61 393.31 52.61 394.35V394.45H51.49V394.3C51.49 392.78 52.49 391.83 53.97 391.83C55.37 391.83 56.28 392.69 56.28 393.95C56.28 395.12 55.5 395.86 54.34 396.71L53.86 397.06C53.19 397.55 52.9 397.79 52.82 398.01H56.34V399H51.41ZM59.9308 399.16C58.2408 399.16 57.2808 397.8 57.2808 395.49C57.2808 393.2 58.3008 391.83 59.9308 391.83C61.5408 391.83 62.5708 393.18 62.5708 395.52C62.5708 397.82 61.5908 399.16 59.9308 399.16ZM58.3708 395.54C58.3708 397.4 58.9808 398.27 59.9308 398.27C60.8908 398.27 61.4808 397.4 61.4808 395.53C61.4808 393.6 60.8908 392.72 59.9308 392.72C58.9408 392.72 58.3708 393.61 58.3708 395.54ZM63.451 399C63.471 397.76 64.111 397.14 65.241 396.31L65.921 395.8C66.601 395.3 67.231 394.74 67.231 393.95C67.231 393.22 66.771 392.72 66.011 392.72C65.161 392.72 64.651 393.31 64.651 394.35V394.45H63.531V394.3C63.531 392.78 64.531 391.83 66.011 391.83C67.411 391.83 68.321 392.69 68.321 393.95C68.321 395.12 67.541 395.86 66.381 396.71L65.901 397.06C65.231 397.55 64.941 397.79 64.861 398.01H68.381V399H63.451ZM71.9718 399.16C70.2818 399.16 69.3218 397.8 69.3218 395.49C69.3218 393.2 70.3418 391.83 71.9718 391.83C73.5818 391.83 74.6118 393.18 74.6118 395.52C74.6118 397.82 73.6318 399.16 71.9718 399.16ZM70.4118 395.54C70.4118 397.4 71.0218 398.27 71.9718 398.27C72.9318 398.27 73.5218 397.4 73.5218 395.53C73.5218 393.6 72.9318 392.72 71.9718 392.72C70.9818 392.72 70.4118 393.61 70.4118 395.54Z" fill="white"/>
<path d="M42.344 41V29.8H46.008C49.704 29.8 51.976 31.576 51.976 35.4C51.976 38.792 49.992 41 46.2 41H42.344ZM44.12 39.496H46.04C48.568 39.496 50.152 38.264 50.152 35.4C50.152 32.792 48.824 31.288 46.008 31.288H44.12V39.496ZM57.1363 41.256C54.8163 41.256 53.2803 39.784 53.2803 37.096C53.2803 34.68 54.8803 32.984 57.0723 32.984C59.4083 32.984 60.7362 34.616 60.7362 37.128V37.48H54.9603C54.9923 38.984 55.8883 39.96 57.1523 39.96C58.0483 39.96 58.8323 39.528 58.9923 38.536H60.6723C60.5123 40.008 59.2963 41.256 57.1363 41.256ZM54.9763 36.296H58.9923C58.9763 35.08 58.2563 34.248 57.0563 34.248C55.8883 34.248 55.0883 35.128 54.9763 36.296ZM62.463 41V29.8H64.127V36.424C64.303 36.2 64.527 35.96 64.719 35.768L67.151 33.24H69.279L65.983 36.536L69.615 41H67.439L64.863 37.656L64.127 38.392V41H62.463ZM72.6718 41.256C71.2638 41.256 69.9998 40.36 69.9998 38.872C69.9998 37.24 71.2798 36.584 72.7998 36.376L74.1918 36.168C74.7998 36.088 75.0078 35.864 75.0078 35.432C75.0078 34.744 74.4638 34.248 73.5998 34.248C72.5438 34.248 71.9518 34.824 71.9038 35.704H70.2078C70.2878 34.184 71.5038 32.984 73.4878 32.984C75.6318 32.984 76.6558 34.184 76.6558 36.168V41H75.1038V40.648C75.1038 40.408 75.1198 40.184 75.1358 39.944C74.7358 40.728 73.9198 41.256 72.6718 41.256ZM71.7118 38.824C71.7118 39.576 72.3038 40.008 73.0398 40.008C74.1758 40.008 75.0398 39.208 75.0398 38.024V37.032C74.9118 37.192 74.6238 37.288 74.1598 37.368L73.2798 37.544C72.3678 37.72 71.7118 38.072 71.7118 38.824ZM78.7286 41V33.24H80.3926V33.704C80.3926 34.008 80.3926 34.296 80.3606 34.584C80.7606 33.704 81.5446 32.984 82.7126 32.984C82.8406 32.984 82.9686 32.984 83.0966 33.016V34.632C82.9846 34.616 82.8246 34.584 82.6006 34.584C81.2566 34.584 80.3926 35.304 80.3926 37.016V41H78.7286ZM88.5601 41.256C87.3761 41.256 86.4961 40.696 86.0481 39.928C86.0801 40.184 86.0801 40.392 86.0801 40.632V41H84.4161V29.8H86.0801V33.624C86.0801 33.864 86.0641 34.088 86.0481 34.312C86.5441 33.56 87.3761 32.984 88.5601 32.984C90.6241 32.984 92.1121 34.648 92.1121 37.128C92.1121 39.656 90.6561 41.256 88.5601 41.256ZM85.9841 37.128C85.9841 38.808 86.8961 39.96 88.1921 39.96C89.5041 39.96 90.4001 38.808 90.4001 37.128C90.4001 35.464 89.5041 34.296 88.1921 34.296C86.8961 34.296 85.9841 35.4 85.9841 37.128ZM97.2151 41.256C94.9271 41.256 93.3271 39.656 93.3271 37.128C93.3271 34.648 94.9431 32.984 97.2151 32.984C99.5031 32.984 101.119 34.648 101.119 37.128C101.119 39.656 99.5031 41.256 97.2151 41.256ZM95.0231 37.128C95.0231 38.856 95.8711 39.96 97.2151 39.96C98.5591 39.96 99.4231 38.856 99.4231 37.128C99.4231 35.368 98.5431 34.296 97.2151 34.296C95.9031 34.296 95.0231 35.368 95.0231 37.128ZM102.838 41V33.24H104.502V33.672C104.502 33.88 104.486 34.072 104.47 34.312C104.886 33.592 105.718 32.984 106.854 32.984C108.614 32.984 109.654 34.152 109.654 36.104V41H107.99V36.328C107.99 35.032 107.478 34.296 106.406 34.296C105.254 34.296 104.502 35.24 104.502 36.392V41H102.838ZM111.744 41V33.24H113.408V41H111.744ZM111.68 31.912V30.072H113.488V31.912H111.68ZM118.5 41.256C116.356 41.256 115.076 40.12 114.996 38.376H116.66C116.708 39.368 117.348 39.992 118.484 39.992C119.46 39.992 120.1 39.544 120.1 38.856C120.1 38.296 119.668 37.976 118.788 37.8L117.732 37.592C116.196 37.304 115.268 36.552 115.268 35.304C115.268 33.976 116.532 32.984 118.372 32.984C120.34 32.984 121.556 33.976 121.636 35.576H119.972C119.892 34.728 119.284 34.248 118.324 34.248C117.492 34.248 116.916 34.616 116.916 35.224C116.916 35.768 117.3 36.04 118.228 36.216L119.3 36.424C120.756 36.712 121.732 37.4 121.732 38.728C121.732 40.168 120.5 41.256 118.5 41.256ZM123.463 41V33.24H125.127V41H123.463ZM123.399 31.912V30.072H125.207V31.912H123.399ZM130.699 41.256C128.379 41.256 126.843 39.784 126.843 37.096C126.843 34.68 128.443 32.984 130.635 32.984C132.971 32.984 134.299 34.616 134.299 37.128V37.48H128.523C128.555 38.984 129.451 39.96 130.715 39.96C131.611 39.96 132.395 39.528 132.555 38.536H134.235C134.075 40.008 132.859 41.256 130.699 41.256ZM128.539 36.296H132.555C132.539 35.08 131.819 34.248 130.619 34.248C129.451 34.248 128.651 35.128 128.539 36.296ZM136.026 41V33.24H137.69V33.704C137.69 34.008 137.69 34.296 137.658 34.584C138.058 33.704 138.842 32.984 140.01 32.984C140.138 32.984 140.266 32.984 140.394 33.016V34.632C140.282 34.616 140.122 34.584 139.898 34.584C138.554 34.584 137.69 35.304 137.69 37.016V41H136.026ZM144.417 41.256C142.737 41.256 141.633 40.184 141.633 38.168V33.24H143.297V37.88C143.297 39.16 143.793 39.944 144.897 39.944C146.017 39.944 146.721 39.096 146.721 37.688V33.24H148.385V41H146.737V40.6C146.737 40.376 146.753 40.136 146.785 39.928C146.401 40.712 145.585 41.256 144.417 41.256ZM150.557 41V33.24H152.221V33.672C152.221 33.88 152.205 34.072 152.189 34.312C152.605 33.592 153.437 32.984 154.573 32.984C156.333 32.984 157.373 34.152 157.373 36.104V41H155.709V36.328C155.709 35.032 155.197 34.296 154.125 34.296C152.973 34.296 152.221 35.24 152.221 36.392V41H150.557ZM162.839 44.552C160.663 44.552 159.351 43.368 159.351 41.64H161.015C161.031 42.616 161.719 43.256 162.871 43.256C164.103 43.256 164.967 42.568 164.967 41.16V40.264C164.967 40.008 164.983 39.768 164.999 39.528C164.567 40.264 163.703 40.808 162.519 40.808C160.439 40.808 159.015 39.336 159.015 36.904C159.015 34.504 160.631 32.984 162.503 32.984C163.831 32.984 164.567 33.592 164.999 34.312C164.983 34.088 164.967 33.864 164.967 33.624V33.24H166.631V40.68C166.631 43.288 165.223 44.552 162.839 44.552ZM160.727 36.904C160.727 38.456 161.623 39.496 162.903 39.496C164.167 39.496 165.079 38.44 165.079 36.904C165.079 35.384 164.167 34.296 162.903 34.296C161.623 34.296 160.727 35.368 160.727 36.904ZM46.984 62.256C43.752 62.256 41.688 59.856 41.688 56.432C41.688 52.768 44.072 50.528 47.224 50.528C49.848 50.528 51.688 52.032 51.912 54.16H50.056C49.88 52.928 48.776 52.032 47.24 52.032C45.08 52.032 43.528 53.6 43.528 56.432C43.528 59.008 45.016 60.768 47.176 60.768C49.032 60.768 50.344 59.664 50.344 57.728V57.584H47.064V56.08H51.96V62H50.408V61.568C50.408 61.216 50.424 60.848 50.456 60.48C49.896 61.488 48.648 62.256 46.984 62.256ZM57.355 62.256C55.035 62.256 53.499 60.784 53.499 58.096C53.499 55.68 55.099 53.984 57.291 53.984C59.627 53.984 60.955 55.616 60.955 58.128V58.48H55.179C55.211 59.984 56.107 60.96 57.371 60.96C58.267 60.96 59.051 60.528 59.211 59.536H60.891C60.731 61.008 59.515 62.256 57.355 62.256ZM55.195 57.296H59.211C59.195 56.08 58.475 55.248 57.275 55.248C56.107 55.248 55.307 56.128 55.195 57.296ZM66.8258 62.256C65.6418 62.256 64.7618 61.696 64.3138 60.928C64.3458 61.184 64.3458 61.392 64.3458 61.632V62H62.6818V50.8H64.3458V54.624C64.3458 54.864 64.3298 55.088 64.3138 55.312C64.8098 54.56 65.6418 53.984 66.8258 53.984C68.8898 53.984 70.3778 55.648 70.3778 58.128C70.3778 60.656 68.9218 62.256 66.8258 62.256ZM64.2498 58.128C64.2498 59.808 65.1618 60.96 66.4578 60.96C67.7698 60.96 68.6658 59.808 68.6658 58.128C68.6658 56.464 67.7698 55.296 66.4578 55.296C65.1618 55.296 64.2498 56.4 64.2498 58.128ZM74.2968 62.256C72.8888 62.256 71.6248 61.36 71.6248 59.872C71.6248 58.24 72.9048 57.584 74.4248 57.376L75.8168 57.168C76.4248 57.088 76.6328 56.864 76.6328 56.432C76.6328 55.744 76.0888 55.248 75.2248 55.248C74.1688 55.248 73.5768 55.824 73.5288 56.704H71.8328C71.9128 55.184 73.1288 53.984 75.1128 53.984C77.2568 53.984 78.2808 55.184 78.2808 57.168V62H76.7288V61.648C76.7288 61.408 76.7448 61.184 76.7608 60.944C76.3608 61.728 75.5448 62.256 74.2968 62.256ZM72.6648 52.912V51.072H74.4728V52.912H72.6648ZM73.3368 59.824C73.3368 60.576 73.9288 61.008 74.6648 61.008C75.8008 61.008 76.6648 60.208 76.6648 59.024V58.032C76.5368 58.192 76.2488 58.288 75.7848 58.368L74.9048 58.544C73.9928 58.72 73.3368 59.072 73.3368 59.824ZM75.8488 52.912V51.072H77.6408V52.912H75.8488ZM83.0576 62.256C81.3776 62.256 80.2736 61.184 80.2736 59.168V54.24H81.9376V58.88C81.9376 60.16 82.4336 60.944 83.5376 60.944C84.6576 60.944 85.3616 60.096 85.3616 58.688V54.24H87.0256V62H85.3776V61.6C85.3776 61.376 85.3936 61.136 85.4256 60.928C85.0416 61.712 84.2256 62.256 83.0576 62.256ZM92.3014 62.256C90.2534 62.256 88.7334 60.816 88.7334 58.128C88.7334 55.568 90.3174 53.984 92.3334 53.984C93.5814 53.984 94.3814 54.64 94.7814 55.312C94.7494 55.072 94.7494 54.848 94.7494 54.624V50.8H96.4134V62H94.7494V61.616C94.7494 61.36 94.7494 61.152 94.7814 60.928C94.4134 61.568 93.5974 62.256 92.3014 62.256ZM90.4454 58.128C90.4454 59.84 91.3574 60.96 92.6534 60.96C93.9174 60.96 94.8454 59.824 94.8454 58.112C94.8454 56.4 93.9334 55.296 92.6534 55.296C91.3734 55.296 90.4454 56.448 90.4454 58.128ZM101.98 62.256C99.66 62.256 98.124 60.784 98.124 58.096C98.124 55.68 99.724 53.984 101.916 53.984C104.252 53.984 105.58 55.616 105.58 58.128V58.48H99.804C99.836 59.984 100.732 60.96 101.996 60.96C102.892 60.96 103.676 60.528 103.836 59.536H105.516C105.356 61.008 104.14 62.256 101.98 62.256ZM99.82 57.296H103.836C103.82 56.08 103.1 55.248 101.9 55.248C100.732 55.248 99.932 56.128 99.82 57.296ZM110.219 62.256C108.075 62.256 106.795 61.12 106.715 59.376H108.379C108.427 60.368 109.067 60.992 110.203 60.992C111.179 60.992 111.819 60.544 111.819 59.856C111.819 59.296 111.387 58.976 110.507 58.8L109.451 58.592C107.915 58.304 106.987 57.552 106.987 56.304C106.987 54.976 108.251 53.984 110.091 53.984C112.059 53.984 113.275 54.976 113.355 56.576H111.691C111.611 55.728 111.003 55.248 110.043 55.248C109.211 55.248 108.635 55.616 108.635 56.224C108.635 56.768 109.019 57.04 109.947 57.216L111.019 57.424C112.475 57.712 113.451 58.4 113.451 59.728C113.451 61.168 112.219 62.256 110.219 62.256ZM118.574 62.256C116.254 62.256 114.718 60.784 114.718 58.096C114.718 55.68 116.318 53.984 118.51 53.984C120.846 53.984 122.174 55.616 122.174 58.128V58.48H116.398C116.43 59.984 117.326 60.96 118.59 60.96C119.486 60.96 120.27 60.528 120.43 59.536H122.11C121.95 61.008 120.734 62.256 118.574 62.256ZM116.414 57.296H120.43C120.414 56.08 119.694 55.248 118.494 55.248C117.326 55.248 116.526 56.128 116.414 57.296ZM123.901 62V50.8H125.565V57.424C125.741 57.2 125.965 56.96 126.157 56.768L128.589 54.24H130.717L127.421 57.536L131.053 62H128.877L126.301 58.656L125.565 59.392V62H123.901ZM135.098 62.128C133.69 62.128 132.73 61.44 132.73 59.712V55.584H131.114V54.24H132.73V51.552H134.394V54.24H136.154V55.584H134.394V59.488C134.394 60.352 134.778 60.736 135.53 60.736C135.722 60.736 135.914 60.72 136.122 60.688V62.016C135.882 62.08 135.498 62.128 135.098 62.128ZM141.028 62.256C138.74 62.256 137.14 60.656 137.14 58.128C137.14 55.648 138.756 53.984 141.028 53.984C143.316 53.984 144.932 55.648 144.932 58.128C144.932 60.656 143.316 62.256 141.028 62.256ZM138.836 58.128C138.836 59.856 139.684 60.96 141.028 60.96C142.372 60.96 143.236 59.856 143.236 58.128C143.236 56.368 142.356 55.296 141.028 55.296C139.716 55.296 138.836 56.368 138.836 58.128ZM146.651 62V54.24H148.315V54.704C148.315 55.008 148.315 55.296 148.283 55.584C148.683 54.704 149.467 53.984 150.635 53.984C150.763 53.984 150.891 53.984 151.019 54.016V55.632C150.907 55.616 150.747 55.584 150.523 55.584C149.179 55.584 148.315 56.304 148.315 58.016V62H146.651Z" fill="#24B54A"/>
<path d="M517.68 373V359H521.02L527.58 370.24C527.56 369.64 527.54 368.96 527.54 368.3V359H529.78V373H526.78L519.86 361.16C519.9 361.86 519.9 362.4 519.9 363V373H517.68ZM536.913 373.32C534.013 373.32 532.093 371.48 532.093 368.12C532.093 365.1 534.093 362.98 536.833 362.98C539.753 362.98 541.412 365.02 541.412 368.16V368.6H534.193C534.233 370.48 535.353 371.7 536.933 371.7C538.053 371.7 539.033 371.16 539.233 369.92H541.333C541.133 371.76 539.613 373.32 536.913 373.32ZM534.213 367.12H539.233C539.213 365.6 538.313 364.56 536.813 364.56C535.353 364.56 534.353 365.66 534.213 367.12ZM547.295 373.16C545.535 373.16 544.335 372.3 544.335 370.14V364.98H542.315V363.3H544.335V359.94H546.415V363.3H548.615V364.98H546.415V369.86C546.415 370.94 546.895 371.42 547.835 371.42C548.075 371.42 548.315 371.4 548.575 371.36V373.02C548.275 373.1 547.795 373.16 547.295 373.16ZM554.296 373V370.96L561.416 362.06C561.756 361.64 562.056 361.28 562.436 360.86H554.656V359H564.976V360.92L557.856 369.82C557.516 370.24 557.156 370.68 556.756 371.12H565.256V373H554.296ZM571.229 373.32C568.329 373.32 566.409 371.48 566.409 368.12C566.409 365.1 568.409 362.98 571.149 362.98C574.069 362.98 575.729 365.02 575.729 368.16V368.6H568.509C568.549 370.48 569.669 371.7 571.249 371.7C572.369 371.7 573.349 371.16 573.549 369.92H575.649C575.449 371.76 573.929 373.32 571.229 373.32ZM568.529 367.12H573.549C573.529 365.6 572.629 364.56 571.129 364.56C569.669 364.56 568.669 365.66 568.529 367.12ZM577.887 373V363.3H579.967V363.88C579.967 364.26 579.967 364.62 579.927 364.98C580.427 363.88 581.407 362.98 582.867 362.98C583.027 362.98 583.187 362.98 583.347 363.02V365.04C583.207 365.02 583.007 364.98 582.727 364.98C581.047 364.98 579.967 365.88 579.967 368.02V373H577.887ZM589.081 373.32C586.221 373.32 584.221 371.32 584.221 368.16C584.221 365.06 586.241 362.98 589.081 362.98C591.941 362.98 593.961 365.06 593.961 368.16C593.961 371.32 591.941 373.32 589.081 373.32ZM586.341 368.16C586.341 370.32 587.401 371.7 589.081 371.7C590.761 371.7 591.841 370.32 591.841 368.16C591.841 365.96 590.741 364.62 589.081 364.62C587.441 364.62 586.341 365.96 586.341 368.16Z" fill="#24B54A"/>
<path d="M328.708 233.32C325.128 233.32 322.928 231.38 322.788 228.34H325.088C325.208 230.32 326.748 231.46 328.788 231.46C330.708 231.46 331.968 230.66 331.968 229.22C331.968 228.02 331.028 227.44 329.428 227.1L327.188 226.62C325.028 226.16 323.288 224.9 323.288 222.72C323.288 220.34 325.508 218.66 328.568 218.66C331.848 218.66 333.828 220.42 333.988 223.08H331.688C331.608 221.6 330.488 220.52 328.488 220.52C326.808 220.52 325.548 221.3 325.548 222.52C325.548 223.66 326.428 224.22 327.948 224.54L330.368 225.06C332.568 225.52 334.248 226.74 334.248 228.98C334.248 231.44 332.228 233.32 328.708 233.32ZM340.318 233.16C338.558 233.16 337.358 232.3 337.358 230.14V224.98H335.338V223.3H337.358V219.94H339.438V223.3H341.638V224.98H339.438V229.86C339.438 230.94 339.918 231.42 340.858 231.42C341.098 231.42 341.338 231.4 341.598 231.36V233.02C341.298 233.1 340.818 233.16 340.318 233.16ZM343.567 233V223.3H345.647V223.88C345.647 224.26 345.647 224.62 345.607 224.98C346.107 223.88 347.087 222.98 348.547 222.98C348.707 222.98 348.867 222.98 349.027 223.02V225.04C348.887 225.02 348.687 224.98 348.407 224.98C346.727 224.98 345.647 225.88 345.647 228.02V233H343.567ZM353.301 233.32C351.541 233.32 349.961 232.2 349.961 230.34C349.961 228.3 351.561 227.48 353.461 227.22L355.201 226.96C355.961 226.86 356.221 226.58 356.221 226.04C356.221 225.18 355.541 224.56 354.461 224.56C353.141 224.56 352.401 225.28 352.341 226.38H350.221C350.321 224.48 351.841 222.98 354.321 222.98C357.001 222.98 358.281 224.48 358.281 226.96V233H356.341V232.56C356.341 232.26 356.361 231.98 356.381 231.68C355.881 232.66 354.861 233.32 353.301 233.32ZM352.101 230.28C352.101 231.22 352.841 231.76 353.761 231.76C355.181 231.76 356.261 230.76 356.261 229.28V228.04C356.101 228.24 355.741 228.36 355.161 228.46L354.061 228.68C352.921 228.9 352.101 229.34 352.101 230.28ZM360.872 233V223.3H362.952V223.84C362.952 224.1 362.932 224.34 362.912 224.64C363.432 223.74 364.472 222.98 365.892 222.98C368.092 222.98 369.392 224.44 369.392 226.88V233H367.312V227.16C367.312 225.54 366.672 224.62 365.332 224.62C363.892 224.62 362.952 225.8 362.952 227.24V233H360.872ZM375.885 233.32C373.325 233.32 371.425 231.52 371.425 228.16C371.425 224.96 373.405 222.98 375.925 222.98C377.485 222.98 378.485 223.8 378.985 224.64C378.945 224.34 378.945 224.06 378.945 223.78V219H381.025V233H378.945V232.52C378.945 232.2 378.945 231.94 378.985 231.66C378.525 232.46 377.505 233.32 375.885 233.32ZM373.565 228.16C373.565 230.3 374.705 231.7 376.325 231.7C377.905 231.7 379.065 230.28 379.065 228.14C379.065 226 377.925 224.62 376.325 224.62C374.725 224.62 373.565 226.06 373.565 228.16ZM383.743 233V223.3H385.823V233H383.743ZM383.663 221.64V219.34H385.923V221.64H383.663ZM388.548 233V223.3H390.628V223.84C390.628 224.1 390.608 224.34 390.588 224.64C391.108 223.74 392.148 222.98 393.568 222.98C395.768 222.98 397.068 224.44 397.068 226.88V233H394.988V227.16C394.988 225.54 394.348 224.62 393.008 224.62C391.568 224.62 390.628 225.8 390.628 227.24V233H388.548ZM403.9 237.44C401.18 237.44 399.54 235.96 399.54 233.8H401.62C401.64 235.02 402.5 235.82 403.94 235.82C405.48 235.82 406.56 234.96 406.56 233.2V232.08C406.56 231.76 406.58 231.46 406.6 231.16C406.06 232.08 404.98 232.76 403.5 232.76C400.9 232.76 399.12 230.92 399.12 227.88C399.12 224.88 401.14 222.98 403.48 222.98C405.14 222.98 406.06 223.74 406.6 224.64C406.58 224.36 406.56 224.08 406.56 223.78V223.3H408.64V232.6C408.64 235.86 406.88 237.44 403.9 237.44ZM401.26 227.88C401.26 229.82 402.38 231.12 403.98 231.12C405.56 231.12 406.7 229.8 406.7 227.88C406.7 225.98 405.56 224.62 403.98 224.62C402.38 224.62 401.26 225.96 401.26 227.88Z" fill="#F15A24"/>
<path d="M1 51L526 415" stroke="#24B54A" stroke-width="2" stroke-dasharray="5 5"/>
<path d="M90.5 257.833H296" stroke="white"/>
<circle cx="104.375" cy="256.99" r="18.8755" fill="white" stroke="white"/>
<circle cx="298.375" cy="256.99" r="17.8755" fill="white" stroke="#F15A24" stroke-width="3"/>
<circle cx="486.375" cy="386.375" r="17.8755" fill="white" stroke="#24B54A" stroke-width="3"/>
<path d="M124 233L127.124 225.3H128.554L131.689 233H130.325L129.5 230.8H126.134L125.298 233H124ZM126.519 229.777H129.115L128.081 227.038C127.982 226.774 127.905 226.554 127.817 226.301C127.74 226.554 127.641 226.785 127.553 227.038L126.519 229.777ZM134.441 233.176C132.967 233.176 132.087 232.395 132.032 231.196H133.176C133.209 231.878 133.649 232.307 134.43 232.307C135.101 232.307 135.541 231.999 135.541 231.526C135.541 231.141 135.244 230.921 134.639 230.8L133.913 230.657C132.857 230.459 132.219 229.942 132.219 229.084C132.219 228.171 133.088 227.489 134.353 227.489C135.706 227.489 136.542 228.171 136.597 229.271H135.453C135.398 228.688 134.98 228.358 134.32 228.358C133.748 228.358 133.352 228.611 133.352 229.029C133.352 229.403 133.616 229.59 134.254 229.711L134.991 229.854C135.992 230.052 136.663 230.525 136.663 231.438C136.663 232.428 135.816 233.176 134.441 233.176ZM139.855 233.176C138.381 233.176 137.501 232.395 137.446 231.196H138.59C138.623 231.878 139.063 232.307 139.844 232.307C140.515 232.307 140.955 231.999 140.955 231.526C140.955 231.141 140.658 230.921 140.053 230.8L139.327 230.657C138.271 230.459 137.633 229.942 137.633 229.084C137.633 228.171 138.502 227.489 139.767 227.489C141.12 227.489 141.956 228.171 142.011 229.271H140.867C140.812 228.688 140.394 228.358 139.734 228.358C139.162 228.358 138.766 228.611 138.766 229.029C138.766 229.403 139.03 229.59 139.668 229.711L140.405 229.854C141.406 230.052 142.077 230.525 142.077 231.438C142.077 232.428 141.23 233.176 139.855 233.176ZM145.6 233.176C144.005 233.176 142.949 232.164 142.949 230.316C142.949 228.655 144.049 227.489 145.556 227.489C147.162 227.489 148.075 228.611 148.075 230.338V230.58H144.104C144.126 231.614 144.742 232.285 145.611 232.285C146.227 232.285 146.766 231.988 146.876 231.306H148.031C147.921 232.318 147.085 233.176 145.6 233.176ZM144.115 229.766H146.876C146.865 228.93 146.37 228.358 145.545 228.358C144.742 228.358 144.192 228.963 144.115 229.766ZM151.31 233.088C150.342 233.088 149.682 232.615 149.682 231.427V228.589H148.571V227.665H149.682V225.817H150.826V227.665H152.036V228.589H150.826V231.273C150.826 231.867 151.09 232.131 151.607 232.131C151.739 232.131 151.871 232.12 152.014 232.098V233.011C151.849 233.055 151.585 233.088 151.31 233.088Z" fill="white"/>
<path d="M317.75 257.833H515.717" stroke="white" stroke-dasharray="2 2"/>
</svg>
