<svg xmlns="http://www.w3.org/2000/svg" viewBox="0 0 200 49" fill="none">
    <path fill-rule="evenodd" clip-rule="evenodd"
        d="M56.229 14.6181V12.9193C56.229 12.5834 56.0187 12.5409 55.8496 12.5409H50.5354C50.4511 12.5409 50.3247 12.4778 50.3247 12.2894V9.22764C50.3247 9.01749 50.4511 8.97557 50.5354 8.97557H54.3528C54.5209 8.97557 54.7317 8.93364 54.7317 8.59822V6.8999C54.7317 6.56347 54.5209 6.52205 54.3528 6.52205H50.5354C50.4511 6.52205 50.3247 6.4589 50.3247 6.26947V3.71139C50.3247 3.50175 50.4511 3.45932 50.5354 3.45932H55.4281C55.5972 3.45932 55.8075 3.41789 55.8075 3.08247V1.38416C55.8075 1.04772 55.5972 1.0058 55.4281 1.0058H47.3306C47.162 1.0058 46.9507 1.04772 46.9507 1.38416V14.6181C46.9507 14.9535 47.162 14.9955 47.3306 14.9955H55.8496C56.0187 14.9955 56.229 14.9535 56.229 14.6181ZM67.9493 14.6181V8.59822C67.9493 6.87919 67.8447 5.95577 67.1489 5.20007C66.4729 4.46608 65.3981 4.15188 64.1959 4.15188C63.5423 4.15188 62.6987 4.31908 62.0877 4.57115C61.8982 4.65501 61.5813 4.76059 61.3283 4.76059C61.1171 4.76059 61.0962 4.69694 61.0962 4.61308C61.0962 4.46608 61.0536 4.3403 60.8011 4.3403H58.4181C58.2489 4.3403 58.0392 4.38223 58.0392 4.71815V14.6181C58.0392 14.9535 58.2489 14.9955 58.4181 14.9955H60.822C60.9906 14.9955 61.2019 14.9535 61.2019 14.6181V7.67531C61.2019 7.14995 61.4121 6.85797 61.8337 6.66854C62.1511 6.52205 62.593 6.4589 62.9516 6.4589C63.6271 6.4589 64.1116 6.64783 64.4281 7.04639C64.7023 7.40253 64.7866 7.92687 64.7866 8.76643V14.6181C64.7866 14.9535 64.9974 14.9955 65.1665 14.9955H67.5704C67.7391 14.9955 67.9493 14.9535 67.9493 14.6181ZM80.1887 9.89848V9.39484C80.1887 7.19289 79.5569 4.13066 75.0432 4.13066C72.0278 4.13066 69.729 5.76735 69.729 9.7727C69.729 14.0099 72.6388 15.1839 75.7182 15.1839C77.2785 15.1839 78.7763 14.9328 79.3024 14.5343C79.5137 14.3873 79.5345 14.26 79.5345 13.9887V12.6672C79.5345 12.499 79.4716 12.3313 79.2395 12.3313C79.0927 12.3313 79.0495 12.3742 78.923 12.4364C78.5223 12.6455 77.5106 13.087 76.1189 13.087C74.2636 13.087 73.04 12.3525 73.04 10.5698C73.04 10.3607 73.166 10.2753 73.3559 10.2753H79.8093C79.9779 10.2753 80.1887 10.2334 80.1887 9.89848ZM77.0255 8.07387C77.0255 8.30372 76.9834 8.34615 76.7726 8.34615H73.2295C73.0192 8.34615 72.977 8.26179 72.977 8.13702C72.977 6.8999 73.7145 6.08055 74.9589 6.08055C75.866 6.08055 77.0255 6.4589 77.0255 8.07387ZM89.075 6.6054V4.86566C89.075 4.50852 88.9485 4.17309 88.0211 4.17309C86.439 4.17309 85.9747 4.96921 85.3637 4.96921C85.2373 4.96921 85.1316 4.88637 85.1316 4.7813V4.61308C85.1316 4.46608 85.0889 4.3403 84.8365 4.3403H82.4961C82.327 4.3403 82.1157 4.38223 82.1157 4.71815V14.6181C82.1157 14.9535 82.327 14.9955 82.4961 14.9955H84.9C85.0686 14.9955 85.2799 14.9535 85.2799 14.6181V8.4103C85.2799 7.63338 85.4902 6.7529 87.1769 6.7529C88.2948 6.7529 88.4634 6.92011 88.7799 6.92011C88.9912 6.92011 89.075 6.79382 89.075 6.6054ZM100.654 14.3665V4.71815C100.654 4.3403 100.38 4.3403 100.275 4.3403H97.9333C97.66 4.3403 97.6382 4.46608 97.6382 4.61308C97.6382 4.69694 97.6382 4.76059 97.4279 4.76059C96.9428 4.76059 96.4156 4.17309 94.897 4.17309C91.8603 4.17309 89.8358 6.04013 89.8358 9.71006C89.8358 13.0238 91.6079 14.9955 94.7071 14.9955C96.247 14.9955 97.0272 14.3448 97.3014 14.3448C97.4279 14.3448 97.4914 14.4499 97.4914 14.6181V14.9328C97.4914 15.6037 97.3857 16.2326 96.7112 16.6731C96.0571 17.0928 95.0875 17.1969 94.3063 17.1969C92.451 17.1969 91.3971 16.6523 90.9329 16.4008C90.8064 16.3371 90.7434 16.2957 90.5951 16.2957C90.4057 16.2957 90.3208 16.4412 90.3208 16.6316V18.0365C90.3208 18.2885 90.3208 18.4148 90.5321 18.5608C91.0172 18.9174 93.0208 19.3584 94.6441 19.3584C97.1531 19.3584 99.3041 18.7497 100.19 17.0509C100.548 16.3589 100.654 15.4572 100.654 14.3665ZM97.4914 11.4306C97.4914 12.2065 97.2166 12.3944 96.7534 12.6036C96.4583 12.7299 96.1206 12.7718 95.7828 12.7718C93.8639 12.7718 93.1473 11.6185 93.1473 9.66813C93.1473 6.62661 94.8335 6.37454 95.7828 6.37454C96.1206 6.37454 96.4583 6.41698 96.7534 6.54225C97.2166 6.73169 97.4914 6.94183 97.4914 7.50709V11.4306ZM106.341 1.55187C106.341 0.64916 105.709 0.146029 104.57 0.146029C103.453 0.146029 102.799 0.64916 102.799 1.52964C102.799 2.43234 103.431 2.93547 104.57 2.93547C105.687 2.93547 106.341 2.43234 106.341 1.55187ZM106.152 14.6181V4.73937C106.152 4.40344 105.941 4.3403 105.772 4.3403H103.368C103.2 4.3403 102.989 4.38223 102.989 4.71815V14.6181C102.989 14.9535 103.2 14.9955 103.368 14.9955H105.772C105.941 14.9955 106.152 14.9535 106.152 14.6181ZM118.406 9.89848V9.39484C118.406 7.19289 117.773 4.13066 113.26 4.13066C110.245 4.13066 107.947 5.76735 107.947 9.7727C107.947 14.0099 110.857 15.1839 113.935 15.1839C115.496 15.1839 116.993 14.9328 117.52 14.5343C117.731 14.3873 117.753 14.26 117.753 13.9887V12.6672C117.753 12.499 117.689 12.3313 117.457 12.3313C117.309 12.3313 117.266 12.3742 117.14 12.4364C116.74 12.6455 115.728 13.087 114.335 13.087C112.48 13.087 111.257 12.3525 111.257 10.5698C111.257 10.3607 111.384 10.2753 111.573 10.2753H118.026C118.194 10.2753 118.406 10.2334 118.406 9.89848ZM115.243 8.07387C115.243 8.30372 115.2 8.34615 114.99 8.34615H111.447C111.236 8.34615 111.194 8.26179 111.194 8.13702C111.194 6.8999 111.932 6.08055 113.176 6.08055C114.083 6.08055 115.243 6.4589 115.243 8.07387ZM130.107 9.89848V9.39484C130.107 7.19289 129.474 4.13066 124.962 4.13066C121.946 4.13066 119.648 5.76735 119.648 9.7727C119.648 14.0099 122.558 15.1839 125.637 15.1839C127.197 15.1839 128.694 14.9328 129.221 14.5343C129.433 14.3873 129.454 14.26 129.454 13.9887V12.6672C129.454 12.499 129.391 12.3313 129.158 12.3313C129.011 12.3313 128.969 12.3742 128.843 12.4364C128.442 12.6455 127.429 13.087 126.037 13.087C124.181 13.087 122.959 12.3525 122.959 10.5698C122.959 10.3607 123.086 10.2753 123.275 10.2753H129.728C129.896 10.2753 130.107 10.2334 130.107 9.89848ZM126.945 8.07387C126.945 8.30372 126.902 8.34615 126.692 8.34615H123.148C122.937 8.34615 122.896 8.26179 122.896 8.13702C122.896 6.8999 123.634 6.08055 124.877 6.08055C125.784 6.08055 126.945 6.4589 126.945 8.07387ZM137.731 6.06034V4.71815C137.731 4.38223 137.52 4.3403 137.351 4.3403H135.812C135.727 4.3403 135.622 4.27817 135.622 4.08873V3.81595C135.622 3.52297 135.643 2.93547 135.685 2.78898C135.812 2.32727 136.085 2.17977 136.571 2.17977C137.034 2.17977 137.203 2.38991 137.457 2.38991C137.604 2.38991 137.731 2.30555 137.731 2.05399V0.774943C137.731 0.271812 136.719 0.020752 135.601 0.020752C134.714 0.020752 133.26 0.229379 132.67 1.78221C132.522 2.15906 132.458 2.57833 132.458 3.56439V4.08873C132.458 4.27817 132.353 4.3403 132.269 4.3403H131.362C131.193 4.3403 130.982 4.38223 130.982 4.71815V6.06034C130.982 6.39626 131.193 6.43718 131.362 6.43718H132.269C132.353 6.43718 132.458 6.50033 132.458 6.68875V14.6181C132.458 14.9535 132.67 14.9955 132.838 14.9955H135.242C135.41 14.9955 135.622 14.9535 135.622 14.6181V6.68875C135.622 6.50033 135.727 6.43718 135.812 6.43718H137.351C137.52 6.43718 137.731 6.39626 137.731 6.06034ZM145.338 6.06034V4.71815C145.338 4.38223 145.126 4.3403 144.957 4.3403H143.417C143.333 4.3403 143.228 4.27817 143.228 4.08873V3.81595C143.228 3.52297 143.25 2.93547 143.291 2.78898C143.417 2.32727 143.692 2.17977 144.177 2.17977C144.641 2.17977 144.81 2.38991 145.062 2.38991C145.211 2.38991 145.338 2.30555 145.338 2.05399V0.774943C145.338 0.271812 144.325 0.020752 143.208 0.020752C142.321 0.020752 140.867 0.229379 140.276 1.78221C140.128 2.15906 140.065 2.57833 140.065 3.56439V4.08873C140.065 4.27817 139.96 4.3403 139.875 4.3403H138.969C138.799 4.3403 138.588 4.38223 138.588 4.71815V6.06034C138.588 6.39626 138.799 6.43718 138.969 6.43718H139.875C139.96 6.43718 140.065 6.50033 140.065 6.68875V14.6181C140.065 14.9535 140.276 14.9955 140.444 14.9955H142.849C143.017 14.9955 143.228 14.9535 143.228 14.6181V6.68875C143.228 6.50033 143.333 6.43718 143.417 6.43718H144.957C145.126 6.43718 145.338 6.39626 145.338 6.06034ZM150.187 1.55187C150.187 0.64916 149.554 0.146029 148.416 0.146029C147.298 0.146029 146.644 0.64916 146.644 1.52964C146.644 2.43234 147.276 2.93547 148.416 2.93547C149.533 2.93547 150.187 2.43234 150.187 1.55187ZM149.997 14.6181V4.73937C149.997 4.40344 149.787 4.3403 149.618 4.3403H147.214C147.045 4.3403 146.834 4.38223 146.834 4.71815V14.6181C146.834 14.9535 147.045 14.9955 147.214 14.9955H149.618C149.787 14.9955 149.997 14.9535 149.997 14.6181ZM160.535 14.6181V13.2542C160.535 12.9193 160.323 12.8768 160.154 12.8768H155.811C155.621 12.8768 155.537 12.8556 155.537 12.7298C155.537 12.6253 155.578 12.5834 155.641 12.499L160.113 6.56347C160.302 6.3114 160.346 6.14369 160.346 5.82999V4.71815C160.346 4.38223 160.134 4.3403 159.965 4.3403H152.289C152.121 4.3403 151.91 4.38223 151.91 4.71815V6.06034C151.91 6.39626 152.121 6.43718 152.289 6.43718H156.106C156.295 6.43718 156.38 6.4589 156.38 6.58519C156.38 6.68875 156.337 6.73168 156.275 6.81605L151.93 12.5834C151.741 12.8344 151.699 13.0446 151.699 13.3178V14.6181C151.699 14.9535 151.91 14.9955 152.079 14.9955H160.154C160.323 14.9955 160.535 14.9535 160.535 14.6181ZM165.648 1.55187C165.648 0.64916 165.016 0.146029 163.877 0.146029C162.76 0.146029 162.105 0.64916 162.105 1.52964C162.105 2.43234 162.738 2.93547 163.877 2.93547C164.993 2.93547 165.648 2.43234 165.648 1.55187ZM165.458 14.6181V4.73937C165.458 4.40344 165.247 4.3403 165.079 4.3403H162.674C162.506 4.3403 162.295 4.38223 162.295 4.71815V14.6181C162.295 14.9535 162.506 14.9955 162.674 14.9955H165.079C165.247 14.9955 165.458 14.9535 165.458 14.6181ZM177.713 9.89848V9.39484C177.713 7.19289 177.079 4.13066 172.566 4.13066C169.551 4.13066 167.253 5.76735 167.253 9.7727C167.253 14.0099 170.163 15.1839 173.241 15.1839C174.802 15.1839 176.3 14.9328 176.826 14.5343C177.037 14.3873 177.059 14.26 177.059 13.9887V12.6672C177.059 12.499 176.996 12.3313 176.764 12.3313C176.616 12.3313 176.574 12.3742 176.447 12.4364C176.047 12.6455 175.035 13.087 173.642 13.087C171.787 13.087 170.564 12.3525 170.564 10.5698C170.564 10.3607 170.69 10.2753 170.88 10.2753H177.332C177.501 10.2753 177.713 10.2334 177.713 9.89848ZM174.549 8.07387C174.549 8.30372 174.507 8.34615 174.296 8.34615H170.754C170.542 8.34615 170.5 8.26179 170.5 8.13702C170.5 6.8999 171.239 6.08055 172.483 6.08055C173.389 6.08055 174.549 6.4589 174.549 8.07387ZM189.55 14.6181V8.59822C189.55 6.87919 189.446 5.95577 188.75 5.20007C188.074 4.46608 186.999 4.15188 185.797 4.15188C185.143 4.15188 184.3 4.31908 183.689 4.57115C183.499 4.65501 183.183 4.76059 182.93 4.76059C182.719 4.76059 182.697 4.69694 182.697 4.61308C182.697 4.46608 182.655 4.3403 182.402 4.3403H180.019C179.851 4.3403 179.64 4.38223 179.64 4.71815V14.6181C179.64 14.9535 179.851 14.9955 180.019 14.9955H182.423C182.592 14.9955 182.803 14.9535 182.803 14.6181V7.67531C182.803 7.14995 183.014 6.85797 183.435 6.66854C183.752 6.52205 184.195 6.4589 184.553 6.4589C185.228 6.4589 185.713 6.64783 186.03 7.04639C186.304 7.40253 186.387 7.92687 186.387 8.76643V14.6181C186.387 14.9535 186.598 14.9955 186.767 14.9955H189.172C189.34 14.9955 189.55 14.9535 189.55 14.6181ZM200 14.6181V13.2542C200 12.9193 199.789 12.8768 199.62 12.8768H195.276C195.086 12.8768 195.002 12.8556 195.002 12.7298C195.002 12.6253 195.043 12.5834 195.107 12.499L199.578 6.56347C199.768 6.3114 199.809 6.14369 199.809 5.82999V4.71815C199.809 4.38223 199.599 4.3403 199.43 4.3403H191.754C191.585 4.3403 191.375 4.38223 191.375 4.71815V6.06034C191.375 6.39626 191.585 6.43718 191.754 6.43718H195.571C195.761 6.43718 195.846 6.4589 195.846 6.58519C195.846 6.68875 195.803 6.73168 195.74 6.81605L191.396 12.5834C191.206 12.8344 191.164 13.0446 191.164 13.3178V14.6181C191.164 14.9535 191.375 14.9955 191.543 14.9955H199.62C199.789 14.9955 200 14.9535 200 14.6181Z"
        fill="white" />
    <path fill-rule="evenodd" clip-rule="evenodd"
        d="M55.2025 34.1577V33.3986C55.2025 33.0602 54.9899 33.0175 54.8198 33.0175H49.221C49.1357 33.0175 49.008 32.955 49.008 32.7644V28.0811C49.008 27.8713 49.1357 27.8291 49.221 27.8291H53.3142C53.4838 27.8291 53.6954 27.7854 53.6954 27.4485V26.6889C53.6954 26.352 53.4838 26.3098 53.3142 26.3098H49.221C49.1357 26.3098 49.008 26.2463 49.008 26.0558V22.2378C49.008 22.0264 49.1357 21.9842 49.221 21.9842H54.3963C54.5654 21.9842 54.7774 21.9415 54.7774 21.6047V20.846C54.7774 20.5076 54.5654 20.4655 54.3963 20.4655H47.3328C47.1627 20.4655 46.9507 20.5076 46.9507 20.846V34.1577C46.9507 34.4951 47.1627 34.5373 47.3328 34.5373H54.8198C54.9899 34.5373 55.2025 34.4951 55.2025 34.1577ZM65.483 34.2421C65.483 34.0932 65.4191 34.0302 65.3348 33.9047L62.0468 29.1365C61.9829 29.0303 61.9415 28.9459 61.9415 28.8626C61.9415 28.7783 61.962 28.7147 62.0253 28.6309L64.7616 24.601C64.847 24.474 64.9098 24.3896 64.9098 24.2423C64.9098 24.0726 64.804 23.9674 64.5491 23.9674H63.5309C63.2341 23.9674 63.1702 24.1153 63.1074 24.221L61.1982 27.3012C61.1343 27.4053 61.0715 27.4907 60.9862 27.4907C60.8799 27.4907 60.8375 27.3855 60.7532 27.2798L58.653 24.221C58.5682 24.1153 58.5043 23.9674 58.2075 23.9674H56.8286C56.5747 23.9674 56.4679 24.0726 56.4679 24.2423C56.4679 24.3896 56.5313 24.474 56.6171 24.601L59.5225 28.8204C59.5864 28.9246 59.6712 29.0303 59.6712 29.1365C59.6712 29.2208 59.6288 29.326 59.5225 29.4744L56.5108 33.9047C56.4265 34.0302 56.3627 34.116 56.3627 34.2624C56.3627 34.4316 56.4679 34.5373 56.7234 34.5373H57.7829C58.0798 34.5373 58.1436 34.3884 58.2075 34.2837L60.413 30.7188C60.4768 30.6136 60.5407 30.5292 60.6255 30.5292C60.7318 30.5292 60.7737 30.6339 60.8595 30.7391L63.2979 34.2837C63.3833 34.3884 63.4466 34.5373 63.7439 34.5373H65.1223C65.3767 34.5373 65.483 34.4102 65.483 34.2421ZM76.7373 29.1151C76.7373 25.823 74.9563 23.7982 71.8384 23.7982C70.2266 23.7982 69.569 24.3896 69.1021 24.3896C68.8896 24.3896 68.8896 24.3261 68.8896 24.2423C68.8896 24.0939 68.8466 23.9674 68.5927 23.9674H67.4468C67.2777 23.9674 67.0657 24.0096 67.0657 24.348V38.525C67.0657 38.8619 67.2777 38.904 67.4468 38.904H68.6566C68.8257 38.904 69.0382 38.8619 69.0382 38.525V34.3884C69.0382 34.2207 69.0801 34.116 69.2288 34.116C69.4408 34.116 70.2266 34.7065 71.7107 34.7065C74.8077 34.7065 76.7373 32.6176 76.7373 29.1151ZM74.6595 29.1573C74.6595 32.8498 72.432 33.2294 71.2223 33.2294C70.7987 33.2294 70.3108 33.1654 69.9297 33.0175C69.335 32.7858 69.0382 32.5322 69.0382 31.8575V26.6457C69.0382 25.9714 69.335 25.7189 69.9297 25.4867C70.3108 25.3388 70.7987 25.2748 71.2223 25.2748C73.7052 25.2748 74.6595 26.7951 74.6595 29.1573ZM87.8122 29.0938V28.5887C87.8122 26.8998 87.1761 23.7982 83.2515 23.7982C79.9635 23.7982 78.3516 26.3733 78.3516 29.3687C78.3516 33.5033 80.9817 34.7065 83.7185 34.7065C85.012 34.7065 86.5186 34.4743 87.0484 34.0734C87.2599 33.9255 87.2824 33.7975 87.2824 33.5246V32.8071C87.2824 32.6389 87.2185 32.4692 86.9856 32.4692C86.8364 32.4692 86.7731 32.5119 86.6453 32.5749C86.2422 32.7858 85.2241 33.2294 83.9305 33.2294C82.0218 33.2294 80.4304 32.2167 80.4304 29.7696C80.4304 29.5577 80.5582 29.4744 80.7492 29.4744H87.43C87.6002 29.4744 87.8122 29.4312 87.8122 29.0938ZM85.7549 27.7854C85.7549 28.0181 85.691 28.0603 85.5004 28.0603H80.6849C80.4728 28.0603 80.4304 27.9754 80.4304 27.8489C80.4304 27.1533 80.8974 25.2336 83.1877 25.2336C84.2912 25.2336 85.7549 25.8022 85.7549 27.7854ZM95.667 25.3388V24.4953C95.667 24.1153 95.667 23.7982 94.7331 23.7982C93.3967 23.7982 92.6758 24.601 92.0612 24.601C91.934 24.601 91.8277 24.5157 91.8277 24.411V24.2423C91.8277 24.0939 91.7848 23.9674 91.5309 23.9674H90.385C90.2159 23.9674 90.0028 24.0096 90.0028 24.348V34.1577C90.0028 34.4951 90.2159 34.5373 90.385 34.5373H91.5948C91.7639 34.5373 91.9754 34.4951 91.9754 34.1577V27.1533C91.9754 26.3733 92.2094 25.4867 93.8212 25.4867C94.9457 25.4867 95.0519 25.6554 95.3702 25.6554C95.5827 25.6554 95.667 25.5294 95.667 25.3388ZM103.996 33.9468V33.1445C103.996 32.8905 103.869 32.8071 103.699 32.8071C103.424 32.8071 103.126 33.2091 102.087 33.2091C101.303 33.2091 100.942 32.8905 100.773 32.4692C100.645 32.1735 100.624 31.9006 100.624 31.2462V25.6757C100.624 25.4867 100.729 25.4232 100.815 25.4232H103.615C103.784 25.4232 103.996 25.381 103.996 25.0431V24.348C103.996 24.0096 103.784 23.9674 103.615 23.9674H100.815C100.729 23.9674 100.624 23.9039 100.624 23.7144V21.5406C100.624 21.2043 100.412 21.1616 100.242 21.1616H99.0332C98.8631 21.1616 98.6516 21.2043 98.6516 21.5406V23.7144C98.6516 23.9039 98.5453 23.9674 98.46 23.9674H97.3366C97.1665 23.9674 96.9539 24.0096 96.9539 24.348V25.0431C96.9539 25.381 97.1665 25.4232 97.3366 25.4232H98.46C98.5453 25.4232 98.6516 25.4867 98.6516 25.6757V31.2462C98.6516 32.4916 98.7993 33.4819 99.5206 34.0734C100.114 34.5581 100.984 34.7065 101.748 34.7065C102.511 34.7065 103.996 34.5169 103.996 33.9468ZM114.441 29.0938V28.5887C114.441 26.8998 113.804 23.7982 109.881 23.7982C106.593 23.7982 104.981 26.3733 104.981 29.3687C104.981 33.5033 107.611 34.7065 110.347 34.7065C111.641 34.7065 113.147 34.4743 113.677 34.0734C113.89 33.9255 113.911 33.7975 113.911 33.5246V32.8071C113.911 32.6389 113.847 32.4692 113.613 32.4692C113.465 32.4692 113.402 32.5119 113.275 32.5749C112.872 32.7858 111.853 33.2294 110.559 33.2294C108.65 33.2294 107.06 32.2167 107.06 29.7696C107.06 29.5577 107.186 29.4744 107.378 29.4744H114.06C114.228 29.4744 114.441 29.4312 114.441 29.0938ZM112.384 27.7854C112.384 28.0181 112.32 28.0603 112.129 28.0603H107.314C107.102 28.0603 107.06 27.9754 107.06 27.8489C107.06 27.1533 107.526 25.2336 109.817 25.2336C110.919 25.2336 112.384 25.8022 112.384 27.7854ZM125.35 34.1577V28.2717C125.35 26.5415 125.244 25.6132 124.544 24.8531C123.887 24.1153 122.784 23.7982 121.574 23.7982C120.917 23.7982 120.068 23.9461 119.453 24.1996C119.263 24.2845 118.923 24.3896 118.669 24.3896C118.456 24.3896 118.456 24.3261 118.456 24.2423C118.456 24.0939 118.415 23.9674 118.159 23.9674H117.014C116.844 23.9674 116.633 24.0096 116.633 24.348V34.1577C116.633 34.4951 116.844 34.5373 117.014 34.5373H118.222C118.393 34.5373 118.605 34.4951 118.605 34.1577V26.6056C118.605 25.9923 118.881 25.7397 119.433 25.5294C119.856 25.3607 120.429 25.255 120.917 25.255C121.807 25.255 122.487 25.4867 122.911 25.9506C123.272 26.3942 123.376 26.9841 123.376 27.9754V34.1577C123.376 34.4951 123.589 34.5373 123.76 34.5373H124.968C125.138 34.5373 125.35 34.4951 125.35 34.1577Z"
        fill="white" />
    <path fill-rule="evenodd" clip-rule="evenodd"
        d="M49.1515 42.1368V41.8511C49.1515 41.716 48.9773 41.6329 48.5913 41.6329C48.3192 41.6329 48.0919 41.6786 47.8801 41.8511C47.5549 42.1142 47.5549 42.5283 47.5549 42.7623V43.1016C47.5549 43.1692 47.5173 43.1914 47.487 43.1914H47.0858C47.0251 43.1914 46.9492 43.2069 46.9492 43.3269V43.5753C46.9492 43.6953 47.0251 43.7097 47.0858 43.7097H47.487C47.5173 43.7097 47.5549 43.7323 47.5549 43.801V46.8271C47.5549 46.9471 47.6308 46.9629 47.6915 46.9629H48.1223C48.1822 46.9629 48.2581 46.9471 48.2581 46.8271V43.801C48.2581 43.7323 48.2965 43.7097 48.3261 43.7097H48.9697C49.0297 43.7097 49.1056 43.6953 49.1056 43.5753V43.3269C49.1056 43.2069 49.0297 43.1914 48.9697 43.1914H48.3261C48.2965 43.1914 48.2581 43.1692 48.2581 43.1016V42.7547C48.2581 42.5056 48.2502 42.167 48.6896 42.167C48.909 42.167 48.9617 42.2569 49.0532 42.2569C49.1211 42.2569 49.1515 42.2267 49.1515 42.1368ZM52.9967 46.8278V43.3269C52.9967 43.2069 52.9208 43.1914 52.8608 43.1914H52.4301C52.369 43.1914 52.2938 43.2069 52.2938 43.3269V46.0227C52.2938 46.2409 52.1951 46.3307 51.9986 46.4062C51.8468 46.467 51.635 46.5043 51.4608 46.5043C51.1424 46.5043 50.9003 46.4288 50.7485 46.2635C50.6194 46.105 50.5898 45.8947 50.5898 45.5411V43.3269C50.5898 43.2069 50.5139 43.1914 50.4532 43.1914H50.0225C49.9621 43.1914 49.8866 43.2069 49.8866 43.3269V45.4354C49.8866 46.0525 49.917 46.3835 50.1663 46.6546C50.4005 46.9176 50.7944 47.0226 51.2259 47.0226C51.4608 47.0226 51.7712 46.9697 51.9906 46.8799C52.0593 46.8505 52.18 46.812 52.2707 46.812C52.3462 46.812 52.3462 46.8346 52.3462 46.8648C52.3462 46.9169 52.3617 46.9629 52.4524 46.9629H52.8608C52.9208 46.9629 52.9967 46.9471 52.9967 46.8271V46.8278ZM52.5196 42.3108C52.5196 42.047 52.3762 41.9413 52.1344 41.9413C51.8843 41.9413 51.7337 42.047 51.7337 42.3025C51.7337 42.566 51.8775 42.6717 52.1192 42.6717C52.3686 42.6717 52.5196 42.566 52.5196 42.3108ZM51.1875 42.3108C51.1875 42.047 51.0441 41.9413 50.802 41.9413C50.5523 41.9413 50.4016 42.047 50.4016 42.3025C50.4016 42.566 50.5454 42.6717 50.7872 42.6717C51.0361 42.6717 51.1875 42.566 51.1875 42.3108ZM56.3348 43.6806V43.379C56.3348 43.2439 56.3348 43.1314 56.002 43.1314C55.5249 43.1314 55.2676 43.4168 55.0483 43.4168C55.0027 43.4168 54.9648 43.3866 54.9648 43.3488V43.2892C54.9648 43.2364 54.9496 43.1914 54.8593 43.1914H54.4509C54.3902 43.1914 54.3143 43.2069 54.3143 43.3269V46.8271C54.3143 46.9471 54.3902 46.9629 54.4509 46.9629H54.8817C54.942 46.9629 55.0179 46.9471 55.0179 46.8271V44.3279C55.0179 44.049 55.1014 43.7323 55.6764 43.7323C56.0775 43.7323 56.1158 43.7927 56.2289 43.7927C56.3048 43.7927 56.3348 43.7482 56.3348 43.6806ZM61.3989 42.3482V42.0772C61.3989 41.9564 61.323 41.9413 61.2623 41.9413H58.7424C58.682 41.9413 58.6065 41.9564 58.6065 42.0772V46.8271C58.6065 46.9471 58.682 46.9629 58.7424 46.9629H59.2039C59.2646 46.9629 59.3401 46.9471 59.3401 46.8271V44.6586C59.3401 44.5831 59.3857 44.568 59.416 44.568H60.8767C60.9371 44.568 61.0126 44.5537 61.0126 44.4336V44.1622C61.0126 44.0422 60.9371 44.0279 60.8767 44.0279H59.416C59.3857 44.0279 59.3401 44.0052 59.3401 43.9373V42.5735C59.3401 42.4981 59.3857 42.483 59.416 42.483H61.2623C61.323 42.483 61.3989 42.4682 61.3989 42.3482ZM65.6077 45.0659C65.6077 43.8984 64.98 43.1314 63.7913 43.1314C62.5572 43.1314 61.9674 43.9584 61.9674 45.0885C61.9674 46.256 62.5951 47.0226 63.7838 47.0226C65.0179 47.0226 65.6077 46.1952 65.6077 45.0659ZM64.8669 45.0508C64.8669 45.8034 64.6851 46.5043 63.7913 46.5043C62.9052 46.5043 62.7082 45.8411 62.7082 45.1036C62.7082 44.3506 62.8904 43.65 63.7838 43.65C64.6703 43.65 64.8669 44.3125 64.8669 45.0508ZM64.8054 42.3108C64.8054 42.047 64.6616 41.9413 64.4198 41.9413C64.1701 41.9413 64.019 42.047 64.019 42.3025C64.019 42.566 64.1629 42.6717 64.405 42.6717C64.6536 42.6717 64.8054 42.566 64.8054 42.3108ZM63.4733 42.3108C63.4733 42.047 63.3295 41.9413 63.0874 41.9413C62.838 41.9413 62.6862 42.047 62.6862 42.3025C62.6862 42.566 62.8301 42.6717 63.0718 42.6717C63.3219 42.6717 63.4733 42.566 63.4733 42.3108ZM68.7033 43.6806V43.379C68.7033 43.2439 68.7033 43.1314 68.3709 43.1314C67.8942 43.1314 67.6365 43.4168 67.4164 43.4168C67.3712 43.4168 67.3337 43.3866 67.3337 43.3488V43.2892C67.3337 43.2364 67.3181 43.1914 67.2274 43.1914H66.8194C66.7591 43.1914 66.6836 43.2069 66.6836 43.3269V46.8271C66.6836 46.9471 66.7591 46.9629 66.8194 46.9629H67.2502C67.3113 46.9629 67.3868 46.9471 67.3868 46.8271V44.3279C67.3868 44.049 67.4695 43.7323 68.0452 43.7323C68.4464 43.7323 68.4843 43.7927 68.5978 43.7927C68.6737 43.7927 68.7033 43.7482 68.7033 43.6806ZM72.6855 46.8278V41.8296C72.6855 41.7084 72.6099 41.6937 72.5488 41.6937H72.1181C72.0581 41.6937 71.9822 41.7084 71.9822 41.8296V43.2439C71.9822 43.3039 71.9674 43.342 71.9143 43.342C71.8456 43.342 71.5883 43.1314 71.0505 43.1314C69.9602 43.1314 69.2342 43.8305 69.2342 45.1263C69.2342 46.3005 69.8691 47.0226 70.9826 47.0226C71.5579 47.0226 71.7925 46.812 71.9595 46.812C72.0354 46.812 72.0354 46.8346 72.0354 46.8648C72.0354 46.9169 72.0502 46.9629 72.1409 46.9629H72.5488C72.6099 46.9629 72.6855 46.9471 72.6855 46.8271V46.8278ZM71.9822 46.0065C71.9822 46.2473 71.876 46.3379 71.6638 46.4205C71.528 46.4745 71.3534 46.4972 71.202 46.4972C70.3166 46.4972 69.975 45.9544 69.975 45.1112C69.975 43.7927 70.7705 43.6568 71.202 43.6568C71.3534 43.6568 71.528 43.6795 71.6638 43.7323C71.876 43.8154 71.9822 43.906 71.9822 44.1471V46.0065ZM77.1359 45.0206V44.8394C77.1359 44.2377 76.9098 43.1314 75.509 43.1314C74.3356 43.1314 73.7606 44.049 73.7606 45.1179C73.7606 46.5942 74.6991 47.0226 75.676 47.0226C76.1378 47.0226 76.6748 46.9403 76.8635 46.7976C76.9394 46.7448 76.9469 46.6999 76.9469 46.6017V46.3458C76.9469 46.2862 76.9246 46.2258 76.8411 46.2258C76.7887 46.2258 76.7655 46.2409 76.72 46.2635C76.5765 46.339 76.2134 46.4972 75.7515 46.4972C75.0695 46.4972 74.5014 46.1352 74.5014 45.2606C74.5014 45.1851 74.5473 45.1564 74.6156 45.1564H77.0001C77.0604 45.1564 77.1359 45.1406 77.1359 45.0206ZM76.4031 44.5544C76.4031 44.6375 76.3803 44.6522 76.3116 44.6522H74.5929C74.517 44.6522 74.5014 44.622 74.5014 44.5771C74.5014 44.3279 74.6684 43.6425 75.4862 43.6425C75.8801 43.6425 76.4031 43.8456 76.4031 44.5544ZM80.2319 43.6806V43.379C80.2319 43.2439 80.2319 43.1314 79.8987 43.1314C79.4217 43.1314 79.1648 43.4168 78.945 43.4168C78.8995 43.4168 78.8623 43.3866 78.8623 43.3488V43.2892C78.8623 43.2364 78.8468 43.1914 78.756 43.1914H78.3477C78.2877 43.1914 78.2118 43.2069 78.2118 43.3269V46.8271C78.2118 46.9471 78.2877 46.9629 78.3477 46.9629H78.7788C78.8395 46.9629 78.9143 46.9471 78.9143 46.8271V44.3279C78.9143 44.049 78.9982 43.7323 79.5731 43.7323C79.9743 43.7323 80.0126 43.7927 80.1257 43.7927C80.2016 43.7927 80.2319 43.7482 80.2319 43.6806ZM84.4562 45.0281C84.4562 43.8535 83.8206 43.1314 82.7079 43.1314C82.1321 43.1314 81.8972 43.342 81.7306 43.342C81.6555 43.342 81.6555 43.3194 81.6555 43.2892C81.6555 43.2371 81.6403 43.1914 81.5492 43.1914H81.1409C81.0805 43.1914 81.005 43.2069 81.005 43.3269V48.3856C81.005 48.5056 81.0805 48.5207 81.1409 48.5207H81.572C81.6327 48.5207 81.7082 48.5056 81.7082 48.3856V46.9101C81.7082 46.8505 81.7234 46.812 81.7762 46.812C81.8517 46.812 82.1321 47.0226 82.6623 47.0226C83.7686 47.0226 84.4562 46.2786 84.4562 45.0281ZM83.7154 45.0443C83.7154 46.3617 82.92 46.4972 82.4881 46.4972C82.3363 46.4972 82.1625 46.4745 82.0259 46.422C81.8145 46.339 81.7082 46.2484 81.7082 46.0072V44.1479C81.7082 43.9071 81.8145 43.8165 82.0259 43.7335C82.1625 43.6795 82.3363 43.6568 82.4881 43.6568C83.3743 43.6568 83.7154 44.2 83.7154 45.0432V45.0443ZM87.5515 43.6806V43.379C87.5515 43.2439 87.5515 43.1314 87.2187 43.1314C86.7416 43.1314 86.4843 43.4168 86.265 43.4168C86.2194 43.4168 86.1815 43.3866 86.1815 43.3488V43.2892C86.1815 43.2364 86.1663 43.1914 86.076 43.1914H85.6676C85.6069 43.1914 85.5318 43.2069 85.5318 43.3269V46.8271C85.5318 46.9471 85.6069 46.9629 85.6676 46.9629H86.0984C86.1587 46.9629 86.2346 46.9471 86.2346 46.8271V44.3279C86.2346 44.049 86.3181 43.7323 86.8931 43.7323C87.2942 43.7323 87.3325 43.7927 87.4456 43.7927C87.5215 43.7927 87.5515 43.7482 87.5515 43.6806ZM91.723 45.0659C91.723 43.8984 91.0953 43.1314 89.9063 43.1314C88.6722 43.1314 88.0824 43.9584 88.0824 45.0885C88.0824 46.256 88.7097 47.0226 89.8987 47.0226C91.1329 47.0226 91.723 46.1952 91.723 45.0659ZM90.9822 45.0508C90.9822 45.8034 90.8001 46.5043 89.9063 46.5043C89.0206 46.5043 88.824 45.8411 88.824 45.1036C88.824 44.3506 89.0054 43.65 89.8987 43.65C90.7849 43.65 90.9822 44.3125 90.9822 45.0508ZM96.0445 46.9101V43.3269C96.0445 43.1914 95.9462 43.1914 95.9086 43.1914H95.5006C95.4023 43.1914 95.3951 43.2371 95.3951 43.2892C95.3951 43.3194 95.3951 43.342 95.3116 43.342C95.145 43.342 94.9481 43.1314 94.4103 43.1314C93.3196 43.1314 92.5944 43.801 92.5944 45.0961C92.5944 46.2711 93.2289 46.9629 94.3424 46.9629C94.8949 46.9629 95.1826 46.7297 95.2733 46.7297C95.3264 46.7297 95.342 46.7674 95.342 46.8271V47.0754C95.342 47.3393 95.3116 47.6182 95.0771 47.776C94.8418 47.9345 94.4938 47.9873 94.2137 47.9873C93.5473 47.9873 93.169 47.7918 93.0027 47.7012C92.9572 47.6786 92.9337 47.6635 92.8817 47.6635C92.8134 47.6635 92.783 47.7163 92.783 47.7843V48.0545C92.783 48.1447 92.783 48.19 92.8589 48.2429C92.9868 48.3327 93.5393 48.5207 94.161 48.5207C95.0088 48.5207 95.6593 48.3033 95.9166 47.739C96.0073 47.5355 96.0445 47.3015 96.0445 46.9101ZM95.342 45.9468C95.342 46.188 95.2357 46.2786 95.024 46.3617C94.887 46.4145 94.7135 46.4364 94.5617 46.4364C93.6763 46.4364 93.3352 45.9242 93.3352 45.081C93.3352 43.7625 94.1302 43.6568 94.5617 43.6568C94.7135 43.6568 94.887 43.6795 95.024 43.7323C95.2357 43.8154 95.342 43.9063 95.342 44.1471V45.9468ZM99.4813 43.6806V43.379C99.4813 43.2439 99.4813 43.1314 99.1485 43.1314C98.6714 43.1314 98.4137 43.4168 98.1948 43.4168C98.1492 43.4168 98.1113 43.3866 98.1113 43.3488V43.2892C98.1113 43.2364 98.0965 43.1914 98.0058 43.1914H97.5974C97.5367 43.1914 97.4615 43.2069 97.4615 43.3269V46.8271C97.4615 46.9471 97.5367 46.9629 97.5974 46.9629H98.0285C98.0885 46.9629 98.1644 46.9471 98.1644 46.8271V44.3279C98.1644 44.049 98.2479 43.7323 98.8228 43.7323C99.224 43.7323 99.2619 43.7927 99.375 43.7927C99.4509 43.7927 99.4813 43.7482 99.4813 43.6806ZM103.032 46.8278V44.4404C103.032 43.8761 102.979 43.6425 102.775 43.4394C102.661 43.3266 102.412 43.1314 101.692 43.1314C100.935 43.1314 100.473 43.3194 100.368 43.3949C100.292 43.447 100.292 43.4923 100.292 43.5821V43.8607C100.292 43.9282 100.323 43.9811 100.391 43.9811C100.444 43.9811 100.466 43.966 100.512 43.9437C100.677 43.8535 100.996 43.6651 101.624 43.6651C102.276 43.6651 102.329 43.921 102.329 44.1698V44.2898C102.329 44.4404 102.238 44.4865 102.109 44.5235L101.222 44.7949C100.526 45.013 100.027 45.2538 100.027 45.9846C100.027 46.5043 100.27 47.0226 101.291 47.0226C101.867 47.0226 102.131 46.812 102.306 46.812C102.382 46.812 102.382 46.8346 102.382 46.8648C102.382 46.9169 102.397 46.9629 102.487 46.9629H102.896C102.956 46.9629 103.032 46.9471 103.032 46.8271V46.8278ZM102.329 45.9989C102.329 46.202 102.298 46.285 102.109 46.3752C101.92 46.467 101.677 46.4972 101.465 46.4972C101.079 46.4972 100.768 46.3692 100.768 45.9393C100.768 45.4505 101.132 45.3591 101.541 45.224L102.147 45.0206C102.215 44.9979 102.215 44.9904 102.268 44.9904C102.313 44.9904 102.329 45.013 102.329 45.0659V45.9989ZM109.678 46.8271V44.7265C109.678 44.1094 109.64 43.7776 109.391 43.5074C109.156 43.2439 108.846 43.1314 108.414 43.1314C107.573 43.1314 107.346 43.4621 107.127 43.4621H107.082C106.923 43.4621 106.794 43.1314 106.06 43.1314C105.772 43.1314 105.537 43.1839 105.318 43.2749C105.25 43.305 105.128 43.342 105.038 43.342C104.962 43.342 104.962 43.3194 104.962 43.2892C104.962 43.2364 104.947 43.1914 104.856 43.1914H104.448C104.388 43.1914 104.312 43.2069 104.312 43.3269V46.8271C104.312 46.9471 104.388 46.9629 104.448 46.9629H104.879C104.939 46.9629 105.015 46.9471 105.015 46.8271V44.132C105.015 43.9139 105.114 43.824 105.31 43.7486C105.462 43.687 105.628 43.65 105.802 43.65C106.121 43.65 106.325 43.7255 106.476 43.8909C106.605 44.049 106.644 44.2453 106.644 44.5982V46.8271C106.644 46.9471 106.718 46.9629 106.78 46.9629H107.21C107.27 46.9629 107.346 46.9471 107.346 46.8271V44.1313C107.346 43.9135 107.444 43.8233 107.642 43.7482C107.793 43.687 107.96 43.65 108.134 43.65C108.452 43.65 108.657 43.7255 108.808 43.8909C108.937 44.049 108.975 44.2453 108.975 44.5982V46.8271C108.975 46.9471 109.05 46.9629 109.111 46.9629H109.542C109.602 46.9629 109.678 46.9471 109.678 46.8271ZM116.324 46.8271V44.7265C116.324 44.1094 116.286 43.7776 116.036 43.5074C115.802 43.2439 115.492 43.1314 115.06 43.1314C114.22 43.1314 113.992 43.4621 113.773 43.4621H113.728C113.569 43.4621 113.441 43.1314 112.706 43.1314C112.418 43.1314 112.184 43.1839 111.964 43.2749C111.896 43.305 111.775 43.342 111.684 43.342C111.608 43.342 111.608 43.3194 111.608 43.2892C111.608 43.2364 111.593 43.1914 111.502 43.1914H111.094C111.033 43.1914 110.958 43.2069 110.958 43.3269V46.8271C110.958 46.9471 111.033 46.9629 111.094 46.9629H111.525C111.585 46.9629 111.661 46.9471 111.661 46.8271V44.132C111.661 43.9139 111.759 43.824 111.956 43.7486C112.108 43.687 112.274 43.65 112.449 43.65C112.767 43.65 112.971 43.7255 113.123 43.8909C113.252 44.049 113.289 44.2453 113.289 44.5982V46.8271C113.289 46.9471 113.365 46.9629 113.425 46.9629H113.856C113.917 46.9629 113.992 46.9471 113.992 46.8271V44.1313C113.992 43.9135 114.091 43.8233 114.287 43.7482C114.439 43.687 114.606 43.65 114.78 43.65C115.098 43.65 115.303 43.7255 115.454 43.8909C115.583 44.049 115.621 44.2453 115.621 44.5982V46.8271C115.621 46.9471 115.696 46.9629 115.757 46.9629H116.188C116.248 46.9629 116.324 46.9471 116.324 46.8271ZM120.737 45.0206V44.8394C120.737 44.2377 120.51 43.1314 119.11 43.1314C117.937 43.1314 117.361 44.049 117.361 45.1179C117.361 46.5942 118.299 47.0226 119.276 47.0226C119.739 47.0226 120.275 46.9403 120.465 46.7976C120.54 46.7448 120.548 46.6999 120.548 46.6017V46.3458C120.548 46.2862 120.525 46.2258 120.443 46.2258C120.389 46.2258 120.367 46.2409 120.321 46.2635C120.178 46.339 119.814 46.4972 119.352 46.4972C118.671 46.4972 118.103 46.1352 118.103 45.2606C118.103 45.1851 118.148 45.1564 118.216 45.1564H120.601C120.661 45.1564 120.737 45.1406 120.737 45.0206ZM120.003 44.5544C120.003 44.6375 119.981 44.6522 119.912 44.6522H118.193C118.118 44.6522 118.103 44.622 118.103 44.5771C118.103 44.3279 118.269 43.6425 119.087 43.6425C119.481 43.6425 120.003 43.8456 120.003 44.5544ZM126.497 46.8278V41.8296C126.497 41.7084 126.422 41.6937 126.361 41.6937H125.93C125.87 41.6937 125.794 41.7084 125.794 41.8296V43.2439C125.794 43.3039 125.78 43.342 125.726 43.342C125.657 43.342 125.4 43.1314 124.863 43.1314C123.772 43.1314 123.046 43.8305 123.046 45.1263C123.046 46.3005 123.682 47.0226 124.794 47.0226C125.37 47.0226 125.604 46.812 125.771 46.812C125.847 46.812 125.847 46.8346 125.847 46.8648C125.847 46.9169 125.862 46.9629 125.953 46.9629H126.361C126.422 46.9629 126.497 46.9471 126.497 46.8271V46.8278ZM125.794 46.0065C125.794 46.2473 125.688 46.3379 125.476 46.4205C125.34 46.4745 125.166 46.4972 125.014 46.4972C124.128 46.4972 123.787 45.9544 123.787 45.1112C123.787 43.7927 124.582 43.6568 125.014 43.6568C125.166 43.6568 125.34 43.6795 125.476 43.7323C125.688 43.8154 125.794 43.906 125.794 44.1471V46.0065ZM130.948 45.0206V44.8394C130.948 44.2377 130.722 43.1314 129.321 43.1314C128.147 43.1314 127.573 44.049 127.573 45.1179C127.573 46.5942 128.511 47.0226 129.487 47.0226C129.95 47.0226 130.487 46.9403 130.676 46.7976C130.751 46.7448 130.759 46.6999 130.759 46.6017V46.3458C130.759 46.2862 130.737 46.2258 130.652 46.2258C130.601 46.2258 130.578 46.2409 130.533 46.2635C130.389 46.339 130.025 46.4972 129.563 46.4972C128.882 46.4972 128.314 46.1352 128.314 45.2606C128.314 45.1851 128.359 45.1564 128.427 45.1564H130.812C130.873 45.1564 130.948 45.1406 130.948 45.0206ZM130.215 44.5544C130.215 44.6375 130.192 44.6522 130.124 44.6522H128.405C128.329 44.6522 128.314 44.622 128.314 44.5771C128.314 44.3279 128.481 43.6425 129.298 43.6425C129.692 43.6425 130.215 43.8456 130.215 44.5544ZM134.104 45.9166C134.104 45.4203 133.825 45.1564 133.424 44.9073L132.977 44.6291C132.643 44.4253 132.484 44.3204 132.484 44.0641C132.484 43.7708 132.766 43.6651 133.098 43.6651C133.583 43.6651 133.795 43.9358 133.916 43.9358C134.006 43.9358 134.029 43.8833 134.029 43.8154V43.5451C134.029 43.4545 134.029 43.4017 133.953 43.3488C133.802 43.2364 133.44 43.1314 133.068 43.1314C132.341 43.1314 131.819 43.4545 131.819 44.1547C131.819 44.6669 132.137 44.8998 132.553 45.1715L133.022 45.4724C133.235 45.6086 133.409 45.7207 133.409 46.0072C133.409 46.3164 133.189 46.4892 132.727 46.4892C132.182 46.4892 132.016 46.2182 131.857 46.2182C131.767 46.2182 131.744 46.2711 131.744 46.339V46.6168C131.744 46.707 131.744 46.7523 131.819 46.8044C132.008 46.9471 132.409 47.0226 132.78 47.0226C133.348 47.0226 134.104 46.8044 134.104 45.9166ZM139.964 45.5705C139.964 44.9677 139.699 44.4404 138.896 44.2977C138.859 44.2902 138.843 44.2755 138.843 44.26C138.843 44.2453 138.859 44.2226 138.896 44.2151C139.011 44.1924 139.661 44.0196 139.661 43.1612C139.661 42.4981 139.32 42.1897 138.912 42.0545C138.586 41.9496 138.208 41.9413 137.776 41.9413H136.777C136.717 41.9413 136.641 41.9564 136.641 42.0772V46.8271C136.641 46.9471 136.717 46.9629 136.777 46.9629H137.92C138.412 46.9629 138.783 46.9176 138.995 46.8572C139.782 46.6244 139.964 45.9619 139.964 45.5705ZM138.905 43.2284C138.905 44.035 138.246 44.0879 137.874 44.0879H137.435C137.405 44.0879 137.359 44.0652 137.359 43.9969V42.5056C137.359 42.4305 137.405 42.4154 137.435 42.4154H137.837C138.322 42.4154 138.905 42.4603 138.905 43.2284ZM139.207 45.5177C139.207 46.4364 138.511 46.4892 137.988 46.4892H137.435C137.405 46.4892 137.359 46.467 137.359 46.3986V44.651C137.359 44.5763 137.405 44.5605 137.435 44.5605H138.056C138.579 44.5605 139.207 44.6435 139.207 45.5177ZM144.134 46.8278V43.3269C144.134 43.2069 144.059 43.1914 143.999 43.1914H143.567C143.506 43.1914 143.432 43.2069 143.432 43.3269V46.0227C143.432 46.2409 143.333 46.3307 143.136 46.4062C142.985 46.467 142.772 46.5043 142.599 46.5043C142.28 46.5043 142.038 46.4288 141.886 46.2635C141.757 46.105 141.727 45.8947 141.727 45.5411V43.3269C141.727 43.2069 141.652 43.1914 141.591 43.1914H141.16C141.1 43.1914 141.024 43.2069 141.024 43.3269V45.4354C141.024 46.0525 141.054 46.3835 141.304 46.6546C141.537 46.9176 141.932 47.0226 142.363 47.0226C142.599 47.0226 142.909 46.9697 143.128 46.8799C143.197 46.8505 143.317 46.812 143.408 46.812C143.484 46.812 143.484 46.8346 143.484 46.8648C143.484 46.9169 143.499 46.9629 143.59 46.9629H143.999C144.059 46.9629 144.134 46.9471 144.134 46.8271V46.8278ZM148.563 46.8271V44.7265C148.563 44.1094 148.524 43.7776 148.275 43.5074C148.041 43.2439 147.647 43.1314 147.216 43.1314C146.981 43.1314 146.678 43.1839 146.458 43.2749C146.39 43.305 146.269 43.342 146.178 43.342C146.103 43.342 146.103 43.3194 146.103 43.2892C146.103 43.2364 146.087 43.1914 145.997 43.1914H145.589C145.528 43.1914 145.452 43.2069 145.452 43.3269V46.8271C145.452 46.9471 145.528 46.9629 145.589 46.9629H146.019C146.08 46.9629 146.156 46.9471 146.156 46.8271V44.132C146.156 43.9139 146.254 43.824 146.451 43.7486C146.602 43.687 146.807 43.65 146.981 43.65C147.299 43.65 147.541 43.7323 147.693 43.8984C147.821 44.0566 147.86 44.2679 147.86 44.6208V46.8271C147.86 46.9471 147.935 46.9629 147.996 46.9629H148.426C148.487 46.9629 148.563 46.9471 148.563 46.8271ZM153.051 46.8278V41.8296C153.051 41.7084 152.976 41.6937 152.915 41.6937H152.484C152.424 41.6937 152.348 41.7084 152.348 41.8296V43.2439C152.348 43.3039 152.333 43.342 152.28 43.342C152.211 43.342 151.954 43.1314 151.417 43.1314C150.326 43.1314 149.6 43.8305 149.6 45.1263C149.6 46.3005 150.235 47.0226 151.348 47.0226C151.925 47.0226 152.158 46.812 152.325 46.812C152.401 46.812 152.401 46.8346 152.401 46.8648C152.401 46.9169 152.416 46.9629 152.506 46.9629H152.915C152.976 46.9629 153.051 46.9471 153.051 46.8271V46.8278ZM152.348 46.0065C152.348 46.2473 152.242 46.3379 152.029 46.4205C151.893 46.4745 151.719 46.4972 151.567 46.4972C150.682 46.4972 150.341 45.9544 150.341 45.1112C150.341 43.7927 151.136 43.6568 151.567 43.6568C151.719 43.6568 151.893 43.6795 152.029 43.7323C152.242 43.8154 152.348 43.906 152.348 44.1471V46.0065ZM157.502 45.0206V44.8394C157.502 44.2377 157.276 43.1314 155.875 43.1314C154.701 43.1314 154.126 44.049 154.126 45.1179C154.126 46.5942 155.065 47.0226 156.041 47.0226C156.503 47.0226 157.04 46.9403 157.229 46.7976C157.305 46.7448 157.313 46.6999 157.313 46.6017V46.3458C157.313 46.2862 157.291 46.2258 157.207 46.2258C157.155 46.2258 157.132 46.2409 157.086 46.2635C156.942 46.339 156.579 46.4972 156.117 46.4972C155.436 46.4972 154.868 46.1352 154.868 45.2606C154.868 45.1851 154.913 45.1564 154.981 45.1564H157.366C157.427 45.1564 157.502 45.1406 157.502 45.0206ZM156.769 44.5544C156.769 44.6375 156.746 44.6522 156.678 44.6522H154.959C154.883 44.6522 154.868 44.622 154.868 44.5771C154.868 44.3279 155.034 43.6425 155.852 43.6425C156.246 43.6425 156.769 43.8456 156.769 44.5544ZM160.659 45.9166C160.659 45.4203 160.379 45.1564 159.978 44.9073L159.531 44.6291C159.197 44.4253 159.038 44.3204 159.038 44.0641C159.038 43.7708 159.319 43.6651 159.652 43.6651C160.137 43.6651 160.348 43.9358 160.47 43.9358C160.56 43.9358 160.583 43.8833 160.583 43.8154V43.5451C160.583 43.4545 160.583 43.4017 160.507 43.3488C160.356 43.2364 159.994 43.1314 159.622 43.1314C158.895 43.1314 158.374 43.4545 158.374 44.1547C158.374 44.6669 158.692 44.8998 159.107 45.1715L159.577 45.4724C159.789 45.6086 159.963 45.7207 159.963 46.0072C159.963 46.3164 159.744 46.4892 159.281 46.4892C158.736 46.4892 158.57 46.2182 158.411 46.2182C158.32 46.2182 158.298 46.2711 158.298 46.339V46.6168C158.298 46.707 158.298 46.7523 158.374 46.8044C158.562 46.9471 158.963 47.0226 159.334 47.0226C159.903 47.0226 160.659 46.8044 160.659 45.9166Z"
        fill="white" />
    <path fill-rule="evenodd" clip-rule="evenodd"
        d="M27.724 46.8876H0.739916C-6.66342e-08 46.8876 0 45.6799 0 45.6799V44.5997H28.4639V45.6799C28.4639 46.8876 27.724 46.8876 27.724 46.8876ZM0 42.3126H28.4639V40.0247H0V42.3126ZM0 37.7368H28.4639V35.4489H0V37.7368ZM28.463 33.1509H0V1.91855C0 0.888949 0.647427 0.759827 1.16418 0.759827H26.0082C26.5267 0.759827 27.1724 0.888949 27.1724 1.91855V7.12984C27.1724 8.16029 26.5267 8.28857 26.0082 8.28857H10.9995C10.7398 8.28857 10.3512 8.41684 10.3512 9.06077V12.4745C10.3512 13.0543 10.7398 13.2475 10.9995 13.2475H22.7083C23.2259 13.2475 23.8733 13.3758 23.8733 14.4046V19.6175C23.8733 20.6463 23.2259 20.7754 22.7083 20.7754H10.9995C10.7398 20.7754 10.3512 20.9037 10.3512 21.5468V24.8423C10.3512 25.4213 10.7398 25.6145 10.9995 25.6145H27.3022C27.8198 25.6145 28.4664 25.7428 28.4664 26.7724L28.463 33.1509Z"
        fill="white" />
</svg>