<?xml version="1.0" encoding="UTF-8"?>
<svg xmlns="http://www.w3.org/2000/svg">
    <symbol id="bs-logo-round" viewBox="0 0 128 128" fill="none">
        <path
            d="M64 128C99.3462 128 128 99.3462 128 64C128 28.6538 99.3462 0 64 0C28.6538 0 0 28.6538 0 64C0 99.3462 28.6538 128 64 128Z"
            fill="#2C2C2C" />
        <path
            d="M15.8604 45.3333L30.9751 45.38C38.052 45.402 43.261 48.1869 43.2405 54.7785C43.2271 59.1381 40.0776 61.8972 36.4584 62.9502C41.1349 64.132 44.2144 67.2823 44.1995 72.0762C44.1745 80.1655 37.193 82.6443 29.8061 82.6214L15.7555 82.5779L15.8707 45.3333H15.8604ZM30.1736 60.6991C34.8019 60.7134 37.1533 58.7475 37.1637 55.4001C37.1731 52.3627 35.206 50.342 30.371 50.327L21.703 50.3002L21.6708 60.6728L30.1736 60.6991ZM30.3381 77.6226C35.6589 77.639 38.1137 75.5699 38.1259 71.6337C38.1376 67.8526 36.0162 65.6659 30.272 65.6482L21.6555 65.6215L21.6186 77.5955L30.3381 77.6226Z"
            fill="#CDCDCD" />
        <path
            d="M83.3495 70.2101L89.4655 70.2291C89.7695 75.4991 93.1592 78.5367 98.17 78.5523C102.798 78.5666 106.101 76.2935 106.112 72.6155C106.122 69.4231 103.678 67.9795 99.2701 66.9018L94.862 65.7724C89.2772 64.3706 84.7106 61.0607 84.7287 55.203C84.7479 48.973 90.5578 44.4762 97.9549 44.4992C105.879 44.5237 111.134 49.22 111.535 56.2982L105.471 56.2795C105.214 52.3424 102.299 49.513 97.7226 49.4989C93.8896 49.4869 90.7426 51.5539 90.7327 54.6946C90.7231 57.7837 92.9506 59.175 97.1519 60.3038L101.931 61.5377C107.785 63.0434 112.187 66.0945 112.168 72.0557C112.148 78.5438 106.492 83.5268 97.9788 83.5004C89.2179 83.4835 83.6964 78.3008 83.3495 70.2101Z"
            fill="#CDCDCD" />
        <path d="M48.7812 63.8895H78.7458" stroke="#CDCDCD" stroke-width="6" />
    </symbol>
    <symbol id="github" viewBox="0 0 16 16">
        <path
            d="M8 0C3.58 0 0 3.58 0 8c0 3.54 2.29 6.53 5.47 7.59.4.07.55-.17.55-.38 0-.19-.01-.82-.01-1.49-2.01.37-2.53-.49-2.69-.94-.09-.23-.48-.94-.82-1.13-.28-.15-.68-.52-.01-.53.63-.01 1.08.58 1.23.82.72 1.21 1.87.87 2.33.66.07-.52.28-.87.51-1.07-1.78-.2-3.64-.89-3.64-3.95 0-.87.31-1.59.82-2.15-.08-.2-.36-1.02.08-2.12 0 0 .67-.21 2.2.82.64-.18 1.32-.27 2-.27.68 0 1.36.09 2 .27 1.53-1.04 2.2-.82 2.2-.82.44 1.1.16 1.92.08 2.12.51.56.82 1.27.82 2.15 0 3.07-1.87 3.75-3.65 3.95.29.25.54.73.54 1.48 0 1.07-.01 1.93-.01 2.2 0 .21.15.46.55.38A8.012 8.012 0 0 0 16 8c0-4.42-3.58-8-8-8z">
        </path>
    </symbol>
    <symbol id="linkedin" viewBox="0 0 24 24">
        <path
            d="M6.5 8a1.5 1.5 0 100-3 1.5 1.5 0 000 3zM5 10a1 1 0 011-1h1a1 1 0 011 1v8a1 1 0 01-1 1H6a1 1 0 01-1-1v-8zm6 9h1a1 1 0 001-1v-4.5c0-1.5 3-2.5 3-.5v5a1 1 0 001 1h1a1 1 0 001-1v-6c0-2-1.5-3-3.5-3S13 10.5 13 10.5V10a1 1 0 00-1-1h-1a1 1 0 00-1 1v8a1 1 0 001 1z">
        </path>
        <path fill-rule="evenodd" clip-rule="evenodd"
            d="M20 1a3 3 0 013 3v16a3 3 0 01-3 3H4a3 3 0 01-3-3V4a3 3 0 013-3h16zm0 2a1 1 0 011 1v16a1 1 0 01-1 1H4a1 1 0 01-1-1V4a1 1 0 011-1h16z">
        </path>
    </symbol>
    <symbol id="close" viewBox="0 0 512 512">
        <path
            d="M390.248 91.582l30.17 30.17L286.168 256l134.25 134.248-30.17 30.17L256 286.168l-134.248 134.25-30.17-30.17L225.83 256 91.582 121.752l30.17-30.17L256 225.83 390.248 91.582z">
        </path>
    </symbol>
    <symbol id="redirect" viewBox="0 0 32 32">
        <path
            d="M10.7906 29H18.2111L32 15.5617L18.2111 2H10.7906L21.7553 12.6457L0 12.6997V18.4237H21.7553L10.7906 29Z" />
    </symbol>
    <symbol id="download" viewBox="0 0 16 32">
        <path d="M24 32H8V28.7991H24V32ZM16 26.139L8 18.1398H14.3994V0H17.6006V18.1398H24L16 26.139Z" />
    </symbol>
    <symbol id="arrow-left" viewBox="0 0 24 24">
        <path d="M14.96 18.96L8 12L14.96 5.04004L15.67 5.75004L9.41 12L15.66 18.25L14.96 18.96Z" fill="black" />
    </symbol>
    <symbol id="arrow-right" viewBox="0 0 24 24">
        <path
            d="M9.39961 18.4002L8.69961 17.7002L14.2996 12.1002L8.59961 6.4002L9.29961 5.7002L15.6996 12.1002L9.39961 18.4002Z"
            fill="black" />
    </symbol>
    <symbol id="plus" viewBox="0 0 26 26">
        <!-- <circle cx="13" cy="13" r="13" /> -->
        <path
            d="M12.0598 17.8904V13.8904H8.25977V12.1104H12.0598V8.11035H13.9398V12.1104H17.7398V13.8904H13.9398V17.8904H12.0598Z" />
    </symbol>
    <symbol id="minus" viewBox="0 0 26 26">
        <!-- <circle cx="13" cy="13" r="13" /> -->
        <path d="M8.25977 13.8904V12.1104H17.7398V13.8904H8.25977Z" />
    </symbol>
    <symbol id="email" viewBox="0 0 25 25">
        <path
            d="M23.2422 0.156286L0.610349 13.2129C-0.27344 13.7207 -0.161135 14.9512 0.717771 15.3223L5.9082 17.5L19.9365 5.13675C20.2051 4.8975 20.5859 5.26371 20.3564 5.54203L8.59375 19.8731V23.8037C8.59375 24.9561 9.98535 25.4102 10.6689 24.5752L13.7695 20.8008L19.8535 23.3496C20.5469 23.6426 21.3379 23.208 21.4648 22.461L24.9805 1.36722C25.1465 0.380895 24.0869 -0.331996 23.2422 0.156286Z "
            fill="#CDCDCD" />
    </symbol>
    <symbol id="anchor" viewBox="0 0 24 24">
        <path fill="#CDCDCD"
            d="m12.11 15.39-3.88 3.88a2.52 2.52 0 0 1-3.5 0 2.47 2.47 0 0 1 0-3.5l3.88-3.88a1 1 0 0 0-1.42-1.42l-3.88 3.89a4.48 4.48 0 0 0 6.33 6.33l3.89-3.88a1 1 0 1 0-1.42-1.42Zm8.58-12.08a4.49 4.49 0 0 0-6.33 0l-3.89 3.88a1 1 0 0 0 1.42 1.42l3.88-3.88a2.52 2.52 0 0 1 3.5 0 2.47 2.47 0 0 1 0 3.5l-3.88 3.88a1 1 0 1 0 1.42 1.42l3.88-3.89a4.49 4.49 0 0 0 0-6.33ZM8.83 15.17a1 1 0 0 0 1.1.22 1 1 0 0 0 .32-.22l4.92-4.92a1 1 0 0 0-1.42-1.42l-4.92 4.92a1 1 0 0 0 0 1.42Z">
        </path>
    </symbol>
</svg>