<?xml version="1.0" encoding="UTF-8"?>
<svg xmlns="http://www.w3.org/2000/svg">
  <symbol id="dena" viewBox="0 0 200 69">
    <path
      d="M69.2932 1.12815L76.3662 0V53.4021C74.7415 53.8222 72.6615 54.2438 70.1261 54.6668C67.2336 55.1137 64.3096 55.3245 61.3829 55.297C58.5871 55.341 55.8052 54.8935 53.1642 53.975C50.8443 53.1571 48.7195 51.8666 46.9241 50.1851C45.1677 48.5034 43.8031 46.4557 42.9271 44.1874C41.9567 41.6464 41.4796 38.9438 41.5213 36.2242C41.4923 33.6035 41.8912 30.9956 42.7024 28.5034C43.4266 26.2742 44.6061 24.2198 46.1661 22.4705C47.7183 20.7647 49.6278 19.4225 51.7584 18.5396C54.1617 17.5662 56.7368 17.088 59.3294 17.1338C62.8066 17.0976 66.2362 17.9436 69.2976 19.5928V1.12815H69.2932ZM69.2932 25.6875C66.627 23.8594 63.47 22.8808 60.2372 22.8803C58.4457 22.8329 56.6658 23.1804 55.0239 23.8983C53.6388 24.5349 52.4291 25.4982 51.4984 26.7054C50.5518 27.9692 49.878 29.4158 49.5197 30.9536C49.1037 32.6763 48.8995 34.4433 48.9116 36.2154C48.9116 40.4724 50.053 43.7584 52.3357 46.0735C54.6184 48.3886 57.6621 49.5461 61.4667 49.5461C63.086 49.5636 64.705 49.4812 66.3142 49.2993C67.3262 49.1866 68.33 49.0099 69.3197 48.7705V25.6831L69.2932 25.6875ZM85.1799 36.2771C85.1166 33.3849 85.6336 30.5094 86.7002 27.8204C87.6199 25.5672 88.9992 23.5305 90.7501 21.8403C92.4085 20.2596 94.3774 19.0411 96.5319 18.2619C98.6815 17.4646 100.955 17.0543 103.248 17.0501C108.574 17.0501 112.658 18.5822 115.499 21.6464C118.34 24.7106 119.76 29.3775 119.76 35.6469V36.7354C119.761 37.1466 119.735 37.5573 119.681 37.9649H92.5746C92.8683 41.7548 94.0611 44.6325 96.1529 46.5979C98.2447 48.5634 101.491 49.5461 105.892 49.5461C108.001 49.5842 110.108 49.3847 112.172 48.9512C113.483 48.6732 114.768 48.2855 116.015 47.7922L117.002 53.2655C115.544 53.8652 114.027 54.3083 112.476 54.5875C110.06 55.08 107.599 55.3149 105.134 55.2882C102.093 55.3576 99.0643 54.8723 96.197 53.856C93.8616 53.0101 91.7436 51.6554 89.9966 49.8898C88.3598 48.1834 87.1251 46.1327 86.3829 43.8877C85.5664 41.4342 85.16 38.8628 85.1799 36.2771ZM112.348 32.6987C112.398 29.7609 111.599 27.34 109.951 25.4363C108.303 23.5325 106.033 22.5851 103.142 22.5939C101.746 22.5611 100.359 22.8259 99.0737 23.3707C97.7881 23.9155 96.6332 24.7278 95.6858 25.7536C94.8186 26.6959 94.1342 27.7912 93.6675 28.9838C93.1911 30.1773 92.8711 31.4275 92.7156 32.7032H112.348V32.6987ZM128.808 19.0155C130.432 18.6424 132.589 18.2443 135.277 17.8213C138.351 17.372 141.455 17.1598 144.562 17.1867C147.706 17.1867 150.319 17.5965 152.402 18.4162C154.325 19.1262 156.039 20.3082 157.386 21.8535C158.666 23.387 159.571 25.1975 160.03 27.1417C160.557 29.3723 160.813 31.6584 160.792 33.9503V54.4509H153.68V35.3649C153.708 33.4348 153.543 31.5066 153.186 29.6096C152.942 28.2152 152.383 26.895 151.551 25.7492C150.77 24.7497 149.71 24.0032 148.506 23.603C146.982 23.1242 145.388 22.9023 143.791 22.9464C143.028 22.9464 142.244 22.9729 141.433 23.0169C140.622 23.061 139.847 23.1227 139.111 23.1932C138.375 23.2637 137.714 23.3474 137.132 23.4356C136.55 23.5237 136.127 23.5986 135.876 23.6471V54.4509H128.808V19.0155ZM184.118 17.0501C186.555 16.9911 188.985 17.335 191.31 18.068C193.09 18.6439 194.708 19.6348 196.03 20.9589C197.222 22.2009 198.096 23.7128 198.577 25.3658C199.094 27.2034 199.344 29.1063 199.317 31.0153V53.8207L196.77 54.2085C195.68 54.3731 194.45 54.5199 193.081 54.6492C191.712 54.7785 190.229 54.9077 188.63 55.037C187.032 55.1545 185.447 55.2133 183.875 55.2133C181.802 55.2309 179.733 55.0196 177.706 54.5831C175.988 54.2208 174.351 53.5472 172.876 52.5956C171.513 51.6912 170.412 50.4452 169.681 48.982C168.879 47.2965 168.488 45.445 168.54 43.5792C168.486 41.7578 168.944 39.9579 169.862 38.3836C170.751 36.9236 171.994 35.7112 173.475 34.8581C175.133 33.9185 176.932 33.2546 178.803 32.8926C180.906 32.4643 183.047 32.2531 185.193 32.2625C185.904 32.2625 186.639 32.2977 187.397 32.3682C188.154 32.4387 188.877 32.5328 189.565 32.6503L191.354 32.9632C191.859 33.0572 192.215 33.1277 192.42 33.1747V31.3503C192.421 30.274 192.293 29.2016 192.041 28.1553C191.799 27.1292 191.331 26.1702 190.671 25.3481C189.946 24.4808 189.018 23.8058 187.969 23.3827C186.55 22.8428 185.036 22.5925 183.519 22.6467C181.468 22.6202 179.419 22.7676 177.393 23.0874C176.062 23.2885 174.751 23.6055 173.475 24.0349L172.638 18.6321C174.119 18.1169 175.649 17.7522 177.203 17.5436C179.491 17.1922 181.803 17.0271 184.118 17.0501ZM184.726 49.7532C186.401 49.7532 187.884 49.718 189.177 49.6475C190.264 49.6026 191.345 49.4729 192.411 49.2596V38.3836C191.617 38.0784 190.786 37.8784 189.939 37.7886C188.564 37.6102 187.179 37.5277 185.792 37.5419C184.661 37.546 183.531 37.6166 182.408 37.7534C181.279 37.8773 180.176 38.1746 179.138 38.6348C178.188 39.0499 177.343 39.6734 176.666 40.4592C175.976 41.3228 175.624 42.4089 175.679 43.5131C175.679 45.8634 176.491 47.4896 178.116 48.3915C179.74 49.2934 181.944 49.7473 184.726 49.7532Z"
      fill="white" />
    <path d="M0 61.6384H33.8577V68.3324H0V61.6384Z" fill="white" />
    <path d="M41.5344 61.6384H75.3922V68.3324H41.5344V61.6384Z" fill="white" />
    <path d="M83.0688 61.6384H116.927V68.3324H83.0688V61.6384Z" fill="white" />
    <path d="M124.608 61.6384H158.466V68.3324H124.608V61.6384Z" fill="white" />
    <path d="M166.142 61.6384H200V68.3324H166.142V61.6384Z" fill="white" />
  </symbol>
  <symbol id="bmwk" viewBox="0 0 200 101">
    <path
      d="M73.5388 4.67805C73.5388 5.08149 73.4786 5.48268 73.3602 5.86838C73.2546 6.19868 73.0936 6.50862 72.8841 6.78494C72.6837 7.03111 72.4421 7.24055 72.1699 7.40391C71.9128 7.55522 71.6366 7.67132 71.3486 7.74911C71.699 7.80572 72.0348 7.93113 72.3365 8.11811C72.639 8.29734 72.9087 8.52679 73.1341 8.79661C73.3755 9.08521 73.5612 9.41619 73.6816 9.77268C73.82 10.1541 73.8885 10.5573 73.884 10.963C73.8946 11.4647 73.8013 11.9632 73.6102 12.4271C73.4308 12.8874 73.1405 13.2963 72.7651 13.6175C72.3322 13.9657 71.8346 14.2246 71.301 14.3793C70.6196 14.5719 69.9139 14.6641 69.206 14.6531H66.4444V1.19037H69.0512C69.742 1.17807 70.4311 1.2622 71.0986 1.44034C71.6108 1.56739 72.0898 1.80281 72.5032 2.13073C72.8569 2.41534 73.1282 2.78931 73.2888 3.21394C73.4665 3.68109 73.5514 4.1784 73.5388 4.67805ZM71.8128 4.76137C71.821 4.47047 71.7656 4.18129 71.6504 3.91402C71.5353 3.64675 71.3632 3.40783 71.1462 3.21394C70.5506 2.75052 69.8037 2.52561 69.0512 2.58306H68.1466V7.23727H69.0512C69.8053 7.28998 70.5509 7.05139 71.1343 6.57068C71.3676 6.33328 71.5485 6.04961 71.6654 5.73796C71.7822 5.42631 71.8325 5.09363 71.8128 4.76137ZM72.0628 10.9868C72.0801 10.6623 72.025 10.338 71.9015 10.0374C71.778 9.73681 71.5891 9.46748 71.3486 9.24893C70.766 8.79579 70.0378 8.5714 69.3012 8.61806H68.1109V13.3794H69.1703C69.9768 13.4426 70.7792 13.2146 71.4319 12.7366C71.6591 12.5038 71.834 12.2251 71.9448 11.9192C72.0557 11.6134 72.0999 11.2874 72.0747 10.963L72.0628 10.9868ZM82.5615 14.7602H81.1212V13.6889C81.0486 13.8076 80.9649 13.9192 80.8712 14.0222C80.7246 14.1902 80.5565 14.3383 80.3713 14.4626C80.1375 14.6053 79.8903 14.7249 79.6333 14.8197C79.3267 14.924 79.0049 14.9763 78.681 14.9744C78.2767 14.9871 77.8735 14.9266 77.4907 14.7959C77.1605 14.6652 76.8665 14.457 76.6337 14.1888C76.3879 13.8739 76.206 13.514 76.098 13.1294C75.9681 12.5999 75.9081 12.0557 75.9195 11.5106V5.34463H77.5026V11.3915C77.4518 11.9861 77.5892 12.5816 77.8954 13.0937C78.0406 13.2646 78.2241 13.399 78.4309 13.4858C78.6377 13.5727 78.862 13.6096 79.0857 13.5937C79.5091 13.6075 79.9259 13.4867 80.2761 13.2485C80.5496 13.0541 80.7975 12.8262 81.0141 12.57V5.42796H82.5972L82.5615 14.7602ZM90.132 14.7602V8.73709C90.1802 8.13743 90.0386 7.5378 89.7273 7.02301C89.5833 6.8492 89.4007 6.71136 89.1941 6.62044C88.9874 6.52953 88.7625 6.48803 88.537 6.49926C88.111 6.47805 87.6907 6.60415 87.3467 6.85636C87.0702 7.05156 86.8218 7.28387 86.6087 7.54675V14.6888H84.9898V5.34463H86.442V6.35642C86.5117 6.2357 86.5956 6.1238 86.692 6.02313C86.8393 5.85127 87.0119 5.70278 87.2038 5.5827C87.4353 5.43573 87.6829 5.31591 87.9418 5.2256C88.2642 5.14196 88.5997 5.12175 88.9298 5.16608C89.3341 5.1534 89.7374 5.21389 90.1201 5.34463C90.4551 5.4665 90.7511 5.67617 90.9772 5.95171C91.231 6.26316 91.4175 6.6239 91.5247 7.0111C91.6694 7.53823 91.7376 8.08343 91.7271 8.62996V14.6888L90.132 14.7602ZM93.7031 10.2012C93.682 9.39192 93.807 8.58547 94.0721 7.82053C94.2807 7.24249 94.6093 6.71513 95.0362 6.2731C95.4247 5.88484 95.9031 5.59861 96.4289 5.43986C96.8887 5.2776 97.3702 5.18531 97.8573 5.16608C98.1212 5.15435 98.3855 5.17837 98.6429 5.2375C98.8331 5.26385 99.0179 5.32009 99.1905 5.40415V0.892784L100.726 0.714233V14.6888H99.2738V13.7008C99.2738 13.7722 99.1548 13.8793 99.0596 14.0222C98.9285 14.169 98.7852 14.3044 98.631 14.4269C98.4206 14.5807 98.1878 14.7011 97.9406 14.784C97.628 14.8788 97.3031 14.9269 96.9765 14.9268C96.5443 14.9312 96.1156 14.8503 95.7147 14.6888C95.302 14.4965 94.9424 14.2064 94.6672 13.8436C94.3375 13.3971 94.0952 12.8923 93.953 12.3557C93.7534 11.6388 93.6532 10.8978 93.6554 10.1536L93.7031 10.2012ZM97.3693 13.5698C97.5948 13.5683 97.819 13.5363 98.0359 13.4746C98.2153 13.4107 98.387 13.3268 98.5477 13.2246C98.6784 13.131 98.8017 13.0275 98.9167 12.9152C98.9985 12.8294 99.074 12.7379 99.1429 12.6414V6.84446C98.9881 6.74518 98.8197 6.66899 98.6429 6.61829C98.4143 6.53558 98.1716 6.49916 97.9287 6.51116C97.5746 6.50852 97.2232 6.57315 96.8931 6.70162C96.5628 6.82569 96.2741 7.04019 96.0599 7.32059C95.7992 7.65159 95.6088 8.03234 95.5005 8.4395C95.3557 8.9869 95.2876 9.55175 95.2981 10.1179C95.2887 10.6701 95.3446 11.2215 95.4648 11.7605C95.5496 12.1367 95.7073 12.4925 95.929 12.808C96.0893 13.0423 96.3041 13.2341 96.5551 13.3668C96.806 13.4995 97.0854 13.5692 97.3693 13.5698ZM109.189 8.51092C109.213 8.85968 109.213 9.20966 109.189 9.55842C109.205 9.81846 109.181 10.0794 109.118 10.3321H104.357C104.334 11.2039 104.583 12.0611 105.071 12.7842C105.295 13.048 105.577 13.2562 105.895 13.3925C106.213 13.5289 106.558 13.5895 106.904 13.5698C107.153 13.5683 107.401 13.5363 107.642 13.4746C107.841 13.4076 108.036 13.3281 108.225 13.2366L108.63 12.9628L108.88 12.7485L109.463 13.8555L109.177 14.1412C109.012 14.2853 108.832 14.4129 108.642 14.5221C108.378 14.6537 108.103 14.7613 107.82 14.8435C107.43 14.9347 107.031 14.9786 106.63 14.9744C106.086 14.9752 105.545 14.8785 105.035 14.6888C104.57 14.4848 104.161 14.1702 103.845 13.7722C103.482 13.3069 103.219 12.7722 103.071 12.201C102.868 11.4608 102.776 10.6946 102.797 9.92742C102.784 9.1951 102.881 8.46494 103.083 7.76101C103.236 7.21377 103.5 6.70348 103.857 6.26119C104.174 5.87595 104.583 5.57706 105.047 5.39225C105.49 5.21798 105.965 5.14085 106.44 5.16608C106.811 5.16195 107.18 5.23491 107.522 5.38037C107.864 5.52584 108.173 5.74064 108.427 6.01122C108.969 6.72808 109.239 7.6138 109.189 8.51092ZM106.213 6.35642C105.945 6.34848 105.679 6.41006 105.441 6.53519C105.203 6.66032 105.002 6.84476 104.856 7.07062C104.474 7.68062 104.272 8.3862 104.273 9.10609H107.701C107.713 9.01121 107.713 8.91529 107.701 8.82041V8.45141C107.736 7.9184 107.598 7.38836 107.309 6.93968C107.189 6.75873 107.027 6.61055 106.835 6.50866C106.644 6.40678 106.43 6.35444 106.213 6.35642ZM115.355 7.20156C115.179 7.02676 114.988 6.86746 114.784 6.72542C114.471 6.50574 114.094 6.39681 113.713 6.41594C113.366 6.39341 113.022 6.49933 112.748 6.71352C112.645 6.79954 112.562 6.90687 112.505 7.02811C112.447 7.14935 112.417 7.28162 112.415 7.41582C112.403 7.73802 112.514 8.05281 112.725 8.29666C113.002 8.57716 113.314 8.82117 113.653 9.02277L114.236 9.37987C114.804 9.68756 115.316 10.0901 115.748 10.5702C116.14 11.0616 116.335 11.681 116.296 12.3081C116.294 12.6593 116.221 13.0064 116.079 13.3279C115.938 13.6494 115.732 13.9384 115.474 14.1769C115.174 14.4474 114.822 14.6542 114.439 14.7852C114.057 14.9161 113.652 14.9683 113.248 14.9387C112.643 14.9453 112.043 14.8109 111.499 14.5459C111.309 14.4534 111.13 14.3417 110.963 14.2126L110.606 13.8674L111.368 12.6057L111.653 12.8795C111.784 12.9866 111.915 13.0937 112.058 13.1889C112.227 13.2842 112.402 13.3677 112.582 13.4389C112.807 13.5006 113.039 13.5326 113.272 13.5341C113.656 13.5546 114.034 13.441 114.343 13.2127C114.461 13.1234 114.557 13.0083 114.623 12.8762C114.689 12.7441 114.723 12.5986 114.724 12.4509C114.724 12.2566 114.692 12.0636 114.629 11.8796C114.575 11.7155 114.485 11.5652 114.367 11.4391C114.239 11.2967 114.095 11.1689 113.939 11.0582L113.355 10.713L112.76 10.344C112.24 10.0231 111.774 9.62125 111.38 9.15371C111.051 8.68488 110.891 8.11821 110.927 7.54675C110.928 7.21104 110.997 6.87895 111.13 6.57068C111.265 6.27655 111.464 6.0163 111.713 5.80886C111.969 5.5868 112.263 5.41334 112.582 5.29702C112.925 5.17229 113.288 5.11177 113.653 5.11847C113.97 5.10632 114.287 5.14244 114.593 5.2256C114.831 5.28676 115.059 5.37881 115.272 5.49938C115.439 5.59271 115.594 5.70451 115.736 5.83267C115.848 5.91857 115.951 6.01417 116.046 6.11835L115.355 7.20156ZM123.092 14.7007V8.73709C123.139 8.16138 123.024 7.58413 122.759 7.07062C122.641 6.89901 122.48 6.76141 122.292 6.67159C122.104 6.58177 121.896 6.54287 121.688 6.55878C121.449 6.54676 121.21 6.5832 120.986 6.66591C120.795 6.71542 120.614 6.79584 120.45 6.90397C120.296 6.98979 120.155 7.09812 120.033 7.22536C119.926 7.3444 119.819 7.45153 119.748 7.54675V14.6888H118.153V5.34463H119.605V6.35642C119.676 6.26119 119.771 6.13026 119.902 5.97551C120.047 5.81381 120.211 5.66996 120.39 5.54699C120.605 5.40378 120.837 5.28783 121.081 5.20179C121.365 5.11099 121.663 5.06677 121.962 5.07086C122.415 5.03138 122.87 5.1225 123.272 5.33345C123.675 5.5444 124.009 5.86634 124.235 6.26119C124.342 6.10902 124.466 5.96928 124.604 5.84458C124.768 5.68264 124.952 5.5426 125.152 5.42796C125.372 5.29963 125.608 5.19964 125.854 5.13037C126.135 5.04343 126.429 5.00322 126.723 5.01134C128.627 5.01134 129.58 6.11835 129.58 8.34428V14.6888H127.997V8.73709C128.048 8.15063 127.901 7.56384 127.58 7.07062C127.434 6.90039 127.25 6.7658 127.044 6.6771C126.838 6.5884 126.614 6.54793 126.39 6.55878C125.996 6.54408 125.607 6.65678 125.283 6.88017C125.033 7.06394 124.802 7.27122 124.592 7.49914V14.6888L123.092 14.7007ZM133.567 14.7007H131.984V5.34463H133.567V14.7007ZM132.794 3.03539C132.647 3.04112 132.501 3.0154 132.366 2.95995C132.23 2.90451 132.108 2.82064 132.008 2.714C131.808 2.48783 131.702 2.19426 131.71 1.89266C131.71 1.61734 131.817 1.35264 132.008 1.15466C132.213 0.949676 132.492 0.834548 132.782 0.834548C133.072 0.834548 133.35 0.949676 133.555 1.15466C133.75 1.37473 133.856 1.65875 133.853 1.95218C133.862 2.25378 133.755 2.54734 133.555 2.77351C133.457 2.87401 133.338 2.95247 133.206 3.00376C133.075 3.05504 132.934 3.07799 132.794 3.0711V3.03539ZM141.126 14.7007V8.73709C141.174 8.13743 141.033 7.5378 140.721 7.02301C140.577 6.8492 140.395 6.71136 140.188 6.62044C139.981 6.52953 139.756 6.48803 139.531 6.49926C139.105 6.47805 138.685 6.60415 138.341 6.85636C138.064 7.05156 137.816 7.28387 137.603 7.54675V14.6888H136.019V5.34463H137.46V6.35642C137.529 6.2357 137.613 6.1238 137.71 6.02313C137.857 5.85127 138.03 5.70278 138.222 5.5827C138.453 5.43573 138.701 5.31591 138.96 5.2256C139.276 5.10986 139.611 5.05728 139.948 5.07086C140.352 5.05817 140.755 5.11866 141.138 5.24941C141.473 5.37127 141.769 5.58095 141.995 5.85648C142.257 6.1642 142.448 6.52592 142.554 6.91588C142.689 7.44466 142.753 7.98906 142.745 8.53473V14.6888L141.126 14.7007ZM146.661 14.7007H145.078V5.34463H146.661V14.7007ZM145.887 3.03539C145.741 3.04112 145.595 3.0154 145.46 2.95995C145.324 2.90451 145.202 2.82064 145.102 2.714C144.902 2.48783 144.796 2.19426 144.804 1.89266C144.792 1.67397 144.848 1.45689 144.963 1.27066C145.078 1.08443 145.248 0.937998 145.449 0.851098C145.65 0.764198 145.873 0.741003 146.087 0.784638C146.302 0.828272 146.498 0.93664 146.649 1.09514C146.839 1.31695 146.941 1.60079 146.935 1.89266C146.947 2.19267 146.845 2.48604 146.649 2.714C146.552 2.81555 146.436 2.89641 146.307 2.95165C146.178 3.0069 146.039 3.03539 145.899 3.03539H145.887ZM153.148 7.20156C152.972 7.02676 152.781 6.86746 152.577 6.72542C152.264 6.50574 151.887 6.39681 151.506 6.41594C151.159 6.39341 150.815 6.49933 150.542 6.71352C150.439 6.79954 150.355 6.90687 150.298 7.02811C150.24 7.14935 150.21 7.28162 150.208 7.41582C150.196 7.73802 150.307 8.05281 150.518 8.29666C150.795 8.57716 151.107 8.82117 151.446 9.02277L152.029 9.37987C152.598 9.68756 153.109 10.0901 153.541 10.5702C153.922 11.0491 154.116 11.6495 154.089 12.2605C154.095 12.6102 154.03 12.9575 153.897 13.281C153.764 13.6045 153.566 13.8972 153.315 14.1412C152.702 14.6771 151.902 14.9507 151.089 14.903C150.483 14.9096 149.884 14.7751 149.339 14.5102C149.148 14.4424 148.965 14.3546 148.792 14.2483L148.435 13.9031L149.196 12.6414L149.482 12.9152C149.613 13.0223 149.744 13.1294 149.887 13.2246C150.055 13.3199 150.23 13.4034 150.411 13.4746C150.636 13.5363 150.868 13.5683 151.101 13.5698C151.485 13.5903 151.863 13.4767 152.172 13.2485C152.29 13.1591 152.385 13.044 152.451 12.9119C152.517 12.7798 152.552 12.6343 152.553 12.4866C152.553 12.2923 152.52 12.0993 152.458 11.9153C152.404 11.7512 152.314 11.6009 152.196 11.4749C152.068 11.3324 151.924 11.2046 151.768 11.0939L151.172 10.6773L150.577 10.3083C150.057 9.98735 149.591 9.58554 149.196 9.11799C148.886 8.65625 148.747 8.10031 148.804 7.54675C148.804 7.21104 148.873 6.87895 149.006 6.57068C149.141 6.27655 149.341 6.0163 149.589 5.80886C149.845 5.5868 150.14 5.41334 150.458 5.29702C150.801 5.17229 151.164 5.11177 151.53 5.11847C151.847 5.10632 152.164 5.14244 152.47 5.2256C152.707 5.28676 152.935 5.37881 153.148 5.49938C153.315 5.59271 153.471 5.70451 153.613 5.83267C153.724 5.91857 153.828 6.01417 153.922 6.11835L153.148 7.20156ZM159.969 6.59449H157.91V11.8677C157.867 12.3344 157.954 12.8037 158.16 13.2246C158.264 13.3514 158.398 13.4511 158.549 13.5153C158.7 13.5795 158.865 13.6064 159.029 13.5937C159.235 13.5921 159.439 13.56 159.636 13.4984L160.005 13.3199L160.219 14.5935C160.072 14.687 159.916 14.7667 159.755 14.8316C159.436 14.9523 159.096 15.009 158.755 14.9982C158.421 15.0196 158.086 14.9702 157.772 14.8533C157.458 14.7364 157.172 14.5546 156.934 14.3198C156.472 13.6696 156.257 12.8763 156.327 12.0819V6.6302H155.136V5.5708L156.327 5.34463L156.493 2.714H157.91V5.34463H160.159L159.969 6.59449ZM167.659 8.47522V9.52271C167.674 9.78274 167.65 10.0436 167.587 10.2964H162.826C162.814 11.1667 163.063 12.0205 163.54 12.7485C163.764 13.0123 164.046 13.2205 164.364 13.3568C164.682 13.4931 165.028 13.5538 165.373 13.5341C165.626 13.5318 165.878 13.4998 166.123 13.4389C166.321 13.3792 166.513 13.2995 166.694 13.2008L167.111 12.9271L167.361 12.7128L167.944 13.8198L167.647 14.1055C167.487 14.2522 167.312 14.3801 167.123 14.4864C166.859 14.618 166.584 14.7256 166.302 14.8078C165.911 14.899 165.512 14.9429 165.111 14.9387C164.563 14.9397 164.019 14.8429 163.504 14.6531C163.039 14.4491 162.63 14.1344 162.314 13.7365C161.958 13.2669 161.696 12.7336 161.54 12.1653C161.352 11.4344 161.26 10.6821 161.266 9.92742C161.253 9.1951 161.35 8.46494 161.552 7.76101C161.711 7.21576 161.973 6.70642 162.326 6.26119C162.647 5.87957 163.055 5.58141 163.516 5.39225C163.959 5.21798 164.434 5.14085 164.909 5.16608C165.301 5.14241 165.693 5.20593 166.057 5.35207C166.422 5.49821 166.749 5.72333 167.016 6.01122C167.537 6.75663 167.77 7.6662 167.67 8.57044L167.659 8.47522ZM164.683 6.35642C164.417 6.35278 164.154 6.41632 163.919 6.54116C163.684 6.66599 163.484 6.84809 163.338 7.07062C162.952 7.67963 162.745 8.38513 162.742 9.10609H166.171V8.45141C166.205 7.9184 166.068 7.38836 165.778 6.93968C165.653 6.76921 165.49 6.63068 165.302 6.53549C165.114 6.4403 164.906 6.39117 164.695 6.39213L164.683 6.35642ZM173.908 6.68971C173.831 6.64251 173.746 6.6102 173.658 6.59449C173.364 6.5219 173.058 6.51522 172.762 6.5749C172.466 6.63459 172.186 6.75916 171.944 6.93968C171.679 7.18003 171.471 7.47704 171.337 7.80863V14.6888H169.754V5.34463H171.206V6.61829C171.274 6.4271 171.361 6.24357 171.468 6.07074C171.561 5.88804 171.696 5.72924 171.86 5.60651C172.013 5.45528 172.201 5.34478 172.408 5.28512C172.656 5.19826 172.919 5.15791 173.182 5.16608C173.362 5.13047 173.548 5.13047 173.729 5.16608L174.051 5.26131L173.908 6.68971ZM177.062 14.6888H175.479V5.34463H177.062V14.6888ZM176.277 3.02348C176.132 3.02906 175.988 3.00322 175.854 2.94773C175.721 2.89225 175.601 2.80844 175.503 2.70209C175.303 2.47592 175.197 2.18236 175.205 1.88076C175.199 1.73469 175.222 1.58887 175.273 1.4519C175.325 1.31493 175.403 1.18958 175.503 1.08324C175.708 0.878256 175.986 0.763128 176.277 0.763128C176.567 0.763128 176.845 0.878256 177.05 1.08324C177.24 1.30505 177.342 1.58888 177.336 1.88076C177.348 2.18077 177.246 2.47414 177.05 2.70209C176.849 2.90574 176.575 3.0213 176.288 3.02348H176.277ZM186.073 14.6888H184.633V13.6413C184.56 13.76 184.476 13.8716 184.383 13.9746C184.236 14.1426 184.068 14.2907 183.883 14.415C183.649 14.5577 183.402 14.6773 183.145 14.7721C182.838 14.8764 182.516 14.9287 182.193 14.9268C181.789 14.9331 181.386 14.8728 181.002 14.7483C180.672 14.6176 180.378 14.4094 180.145 14.1412C179.897 13.8276 179.715 13.4673 179.609 13.0818C179.475 12.5529 179.411 12.0086 179.419 11.463V5.34463H181.014V11.3915C180.961 11.9772 181.094 12.5647 181.395 13.0699C181.54 13.2416 181.723 13.3765 181.93 13.4634C182.137 13.5503 182.362 13.5868 182.585 13.5698C183.009 13.5837 183.425 13.4629 183.776 13.2246C184.058 13.0372 184.311 12.8085 184.526 12.5462V5.40415H186.109L186.073 14.6888ZM193.441 14.6888V8.73709C193.488 8.16138 193.372 7.58413 193.108 7.07062C192.99 6.89901 192.829 6.76141 192.641 6.67159C192.453 6.58177 192.244 6.54287 192.037 6.55878C191.798 6.54676 191.559 6.5832 191.334 6.66591C191.144 6.71542 190.963 6.79584 190.799 6.90397C190.676 6.98902 190.56 7.08461 190.453 7.18965C190.346 7.28528 190.25 7.39314 190.168 7.51104V14.6888H188.573V5.34463H190.025V6.35642C190.096 6.26119 190.192 6.13026 190.323 5.97551C190.468 5.81381 190.631 5.66996 190.811 5.54699C191.025 5.40378 191.257 5.28783 191.501 5.20179C191.784 5.10527 192.083 5.06091 192.382 5.07086C192.835 5.03138 193.29 5.1225 193.693 5.33345C194.096 5.5444 194.43 5.86634 194.655 6.26119C194.759 6.10626 194.883 5.96611 195.024 5.84458C195.188 5.68264 195.372 5.5426 195.572 5.42796C195.793 5.29963 196.028 5.19964 196.274 5.13037C196.555 5.04343 196.849 5.00322 197.143 5.01134C199.048 5.01134 200 6.11835 200 8.34428V14.6888H198.417V8.73709C198.468 8.15063 198.322 7.56384 198 7.07062C197.854 6.90039 197.67 6.7658 197.464 6.6771C197.258 6.5884 197.034 6.54793 196.81 6.55878C196.416 6.54408 196.028 6.65678 195.703 6.88017C195.451 7.06047 195.219 7.26805 195.012 7.49914C195.004 7.6562 195.024 7.81346 195.072 7.96337C195.102 8.13669 195.102 8.3138 195.072 8.48712V14.6888H193.441ZM70.0749 26.3897H68.1466V34.5197H66.5634V26.3897H65.4802V25.3304L66.6706 25.1161V23.2354C66.6581 22.7854 66.7308 22.3371 66.8848 21.9141C67.0076 21.5782 67.2026 21.2735 67.4562 21.0213C67.6848 20.7872 67.9666 20.6116 68.2775 20.5095C68.5988 20.3983 68.9375 20.3459 69.2774 20.3548C69.5687 20.3456 69.8592 20.39 70.1344 20.4857C70.2984 20.5449 70.4576 20.6165 70.6106 20.6999L70.2416 22.0212C70.1399 21.9485 70.0274 21.8923 69.9083 21.8546C69.7395 21.7819 69.5561 21.7493 69.3726 21.7593C69.2118 21.7481 69.0506 21.7745 68.9018 21.8365C68.753 21.8985 68.6208 21.9943 68.5156 22.1164C68.2813 22.502 68.177 22.9527 68.218 23.402V25.0923H70.2416L70.0749 26.3897ZM78.2168 34.5197H76.7646V33.4603C76.6921 33.5829 76.6084 33.6984 76.5146 33.8055C76.3591 33.9609 76.192 34.1042 76.0147 34.2341C75.7874 34.3884 75.5388 34.5087 75.2767 34.5912C74.9669 34.7004 74.641 34.7567 74.3125 34.7578C73.9318 34.7544 73.554 34.6901 73.1936 34.5673C72.8618 34.4454 72.5668 34.2405 72.3365 33.9722C72.0773 33.6615 71.8939 33.2947 71.8009 32.9009C71.6607 32.3731 71.5966 31.828 71.6104 31.282V25.0923H73.2055V31.1392C73.1521 31.7248 73.2854 32.3123 73.5864 32.8176C73.731 32.9892 73.9143 33.1241 74.1213 33.211C74.3283 33.2979 74.5529 33.3344 74.7767 33.3175C75.2015 33.3431 75.622 33.2212 75.9671 32.9723C76.2415 32.7792 76.4931 32.5556 76.717 32.3057V25.0923H78.3001L78.2168 34.5197ZM74.3244 22.3902C74.3295 22.6584 74.2315 22.9183 74.0506 23.1163C73.8708 23.2883 73.6328 23.386 73.384 23.3901C73.2604 23.3905 73.1379 23.3666 73.0235 23.3196C72.9091 23.2726 72.8051 23.2035 72.7175 23.1163C72.6252 23.02 72.5533 22.9061 72.5063 22.7813C72.4592 22.6565 72.4379 22.5235 72.4437 22.3902C72.4365 22.2568 72.4572 22.1234 72.5043 21.9984C72.5514 21.8734 72.624 21.7596 72.7175 21.6641C72.8034 21.5747 72.9071 21.5041 73.0219 21.457C73.1367 21.4098 73.26 21.3872 73.384 21.3903C73.5077 21.3899 73.6302 21.4139 73.7446 21.4608C73.859 21.5078 73.963 21.5769 74.0506 21.6641C74.1441 21.7596 74.2167 21.8734 74.2638 21.9984C74.3109 22.1234 74.3316 22.2568 74.3244 22.3902ZM77.336 22.3902C77.341 22.6584 77.243 22.9183 77.0622 23.1163C76.8827 23.288 76.644 23.3839 76.3956 23.3839C76.1472 23.3839 75.9084 23.288 75.729 23.1163C75.5482 22.9183 75.4502 22.6584 75.4552 22.3902C75.4481 22.2568 75.4687 22.1234 75.5158 21.9984C75.563 21.8734 75.6356 21.7596 75.729 21.6641C75.8164 21.5763 75.9203 21.5066 76.0347 21.4591C76.149 21.4115 76.2717 21.387 76.3956 21.387C76.5195 21.387 76.6421 21.4115 76.7565 21.4591C76.8709 21.5066 76.9748 21.5763 77.0622 21.6641C77.1609 21.7574 77.2393 21.87 77.2926 21.9949C77.3458 22.1199 77.3728 22.2544 77.3717 22.3902H77.336ZM84.7755 26.485C84.699 26.4378 84.6142 26.4055 84.5256 26.3897C84.2366 26.3183 83.9355 26.3112 83.6434 26.3687C83.3514 26.4263 83.0755 26.5473 82.8353 26.723C82.5665 26.9648 82.3585 27.2666 82.2282 27.6039V34.5197H80.6451V25.1161H82.1449V26.3897C82.2129 26.2024 82.3007 26.0228 82.4068 25.8541C82.5041 25.6704 82.6378 25.5085 82.7996 25.378C82.9547 25.2209 83.136 25.092 83.3352 24.9971C83.5836 24.9102 83.8459 24.8699 84.109 24.878C84.2935 24.8682 84.4784 24.8883 84.6565 24.9375L84.9779 25.0328L84.7755 26.485ZM103.571 20.9737L100.298 34.5197H98.8096L96.7622 26.0207C96.6075 25.4256 96.4884 24.8304 96.3813 24.3662C96.2985 23.9732 96.2389 23.5758 96.2028 23.1758C96.1922 23.5769 96.1404 23.9758 96.048 24.3662C95.9409 24.8661 95.8219 25.4018 95.679 25.985L93.5126 34.5197H91.9652L88.7513 20.9975H90.5725L92.2627 29.2346C92.3937 29.8536 92.5127 30.425 92.6079 30.9963C92.6884 31.4213 92.744 31.8505 92.7746 32.2819C92.812 31.8413 92.8796 31.4039 92.9769 30.9725L93.3817 29.187L95.3814 20.9975H97.0122L98.9643 29.2346C99.1072 29.8536 99.2381 30.425 99.3571 30.9963C99.4572 31.4186 99.5209 31.8487 99.5476 32.2819C99.605 31.8322 99.6925 31.3868 99.8095 30.9487C99.9047 30.3655 100.024 29.7584 100.155 29.1394L101.857 20.9856L103.571 20.9737ZM106.654 34.5197H105.059V25.1161H106.642L106.654 34.5197ZM105.868 22.8426C105.577 22.8389 105.298 22.7288 105.083 22.5331C104.874 22.3105 104.759 22.0166 104.761 21.7117C104.753 21.4158 104.854 21.1272 105.047 20.9023C105.149 20.7984 105.271 20.7172 105.407 20.6639C105.542 20.6105 105.687 20.5863 105.833 20.5928C105.974 20.5859 106.116 20.61 106.248 20.6634C106.379 20.7169 106.498 20.7984 106.594 20.9023C106.695 21.0108 106.773 21.1383 106.824 21.2772C106.875 21.4161 106.898 21.5638 106.892 21.7117C106.9 22.0133 106.794 22.3069 106.594 22.5331C106.493 22.6291 106.373 22.7038 106.242 22.7529C106.112 22.802 105.972 22.8243 105.833 22.8187L105.868 22.8426ZM113.213 26.5088C113.136 26.4616 113.051 26.4293 112.963 26.4136C112.672 26.3428 112.369 26.3359 112.075 26.3934C111.781 26.451 111.503 26.5716 111.26 26.7468C110.998 26.9919 110.795 27.293 110.665 27.6277V34.5197H109.07V25.1161H110.522V26.3897C110.591 26.2048 110.675 26.0257 110.772 25.8541C110.877 25.6751 111.009 25.5143 111.165 25.378C111.33 25.2371 111.52 25.1281 111.725 25.0566C111.972 24.9641 112.235 24.9236 112.498 24.9375C112.695 24.9277 112.891 24.9478 113.082 24.9971L113.415 25.0923L113.213 26.5088ZM118.795 26.4136H116.724V31.6153C116.68 32.0872 116.771 32.562 116.986 32.9842C117.09 33.1072 117.222 33.203 117.372 33.2632C117.521 33.3233 117.683 33.3461 117.843 33.3294C118.049 33.3278 118.254 33.2958 118.45 33.2342L118.819 33.0556L119.045 34.3293C118.898 34.4266 118.743 34.5103 118.581 34.5793C118.262 34.7 117.922 34.7566 117.581 34.7459C117.247 34.7673 116.912 34.7179 116.598 34.601C116.284 34.484 115.999 34.3022 115.76 34.0674C115.296 33.4136 115.081 32.6159 115.153 31.8177V26.3897H113.963V25.3304L115.153 25.0923L115.331 22.4616H116.736V25.0923H119.045L118.795 26.4136ZM124.652 27.0206C124.475 26.8421 124.284 26.6788 124.08 26.5326C123.766 26.3179 123.389 26.2133 123.009 26.235C122.663 26.208 122.32 26.3097 122.045 26.5207C121.942 26.6095 121.859 26.7191 121.802 26.8422C121.745 26.9653 121.714 27.0991 121.712 27.2349C121.707 27.5523 121.817 27.8608 122.021 28.1038C122.295 28.3916 122.607 28.6399 122.95 28.8418L123.533 29.187C124.101 29.4947 124.612 29.8973 125.045 30.3774C125.437 30.9026 125.629 31.5502 125.588 32.2045C125.547 32.8587 125.274 33.4768 124.818 33.9484C124.517 34.2187 124.165 34.4263 123.783 34.5591C123.401 34.692 122.996 34.7474 122.592 34.7221C122.256 34.7179 121.921 34.678 121.593 34.6031C121.343 34.5197 121.081 34.4364 120.843 34.3293C120.653 34.2325 120.474 34.1169 120.307 33.9841C120.164 33.8531 120.045 33.746 119.95 33.6389L120.712 32.389L120.997 32.6628L121.402 32.9604C121.568 33.0604 121.744 33.1441 121.926 33.2104C122.15 33.2798 122.382 33.3199 122.616 33.3294C122.999 33.3543 123.377 33.2448 123.688 33.0199C123.805 32.93 123.9 32.8147 123.966 32.6827C124.031 32.5508 124.067 32.4056 124.068 32.2581C124.068 32.0599 124.036 31.863 123.973 31.6748C123.919 31.5108 123.83 31.3605 123.711 31.2344C123.583 31.0957 123.439 30.9719 123.283 30.8654L122.7 30.4726L122.104 30.1036C121.584 29.7826 121.118 29.3808 120.724 28.9133C120.382 28.449 120.21 27.882 120.236 27.3063C120.234 26.973 120.308 26.6436 120.45 26.3421C120.577 26.0461 120.773 25.7849 121.021 25.5803C121.272 25.3516 121.568 25.1774 121.89 25.0685C122.231 24.9343 122.595 24.8695 122.961 24.878C123.279 24.8659 123.596 24.902 123.902 24.9852C124.139 25.0463 124.367 25.1384 124.58 25.2589C124.747 25.3523 124.903 25.4641 125.045 25.5922L125.354 25.8779L124.652 27.0206ZM132.687 26.9373L132.496 26.7588C132.395 26.6718 132.287 26.5922 132.175 26.5207C132.028 26.4362 131.872 26.3684 131.71 26.3183C131.506 26.2549 131.293 26.2267 131.08 26.235C130.753 26.2286 130.429 26.2894 130.127 26.4136C129.827 26.5496 129.565 26.7582 129.365 27.0206C129.132 27.3395 128.958 27.6986 128.854 28.08C128.718 28.6007 128.654 29.1372 128.663 29.6751C128.654 30.2627 128.71 30.8496 128.83 31.4249C128.924 31.82 129.081 32.1977 129.294 32.5438C129.473 32.8069 129.72 33.0167 130.008 33.1509C130.306 33.2734 130.626 33.3342 130.949 33.3294C131.334 33.3547 131.719 33.2679 132.056 33.0794C132.248 32.9539 132.431 32.8147 132.603 32.6628L133.246 33.7579L132.96 34.0436C132.819 34.1748 132.659 34.2832 132.484 34.365C132.256 34.4807 132.017 34.5725 131.77 34.6388C131.45 34.7103 131.122 34.7462 130.794 34.7459C130.294 34.7432 129.799 34.6546 129.33 34.484C128.868 34.3078 128.458 34.017 128.139 33.6389C127.782 33.1988 127.522 32.6875 127.378 32.1391C127.154 31.366 127.054 30.5626 127.08 29.7584C127.054 28.9809 127.175 28.2055 127.437 27.473C127.636 26.9082 127.948 26.3898 128.354 25.9493C128.707 25.5777 129.138 25.2891 129.615 25.1042C130.065 24.935 130.54 24.8464 131.02 24.8423C131.332 24.8333 131.645 24.8653 131.948 24.9375C132.186 24.9977 132.418 25.0814 132.639 25.1875C132.807 25.2682 132.964 25.3724 133.103 25.497L133.413 25.7827L132.687 26.9373ZM140.15 34.5197V28.4371C140.204 27.837 140.062 27.2356 139.745 26.723C139.601 26.5507 139.418 26.4146 139.211 26.3257C139.004 26.2368 138.779 26.1976 138.555 26.2112C138.132 26.1973 137.715 26.3182 137.365 26.5564C137.088 26.7516 136.84 26.9839 136.627 27.2468V34.5197H135.043V20.6404L136.627 20.4738V26.0565C136.696 25.9394 136.78 25.8315 136.876 25.7351C137.007 25.5824 137.159 25.45 137.329 25.3423C137.856 25.0199 138.461 24.8471 139.079 24.8423C139.444 24.8248 139.808 24.8883 140.145 25.0283C140.483 25.1682 140.785 25.3811 141.031 25.6517C141.594 26.4203 141.852 27.3701 141.757 28.3181V34.5197H140.15ZM143.554 32.1391C143.542 31.6641 143.648 31.1936 143.864 30.7702C144.068 30.4078 144.358 30.1012 144.709 29.8774C145.072 29.6416 145.475 29.476 145.899 29.3894C146.397 29.2882 146.903 29.2403 147.411 29.2466H147.899V28.3419C147.966 27.7618 147.818 27.1772 147.482 26.6992C147.33 26.5405 147.144 26.4175 146.938 26.3393C146.732 26.2611 146.512 26.2295 146.292 26.2469C145.874 26.2251 145.46 26.3287 145.102 26.5445C144.837 26.7055 144.586 26.8887 144.352 27.092L143.685 26.0327C143.811 25.9041 143.947 25.7848 144.09 25.6755C144.274 25.5304 144.473 25.4066 144.685 25.3065C145.249 25.0219 145.874 24.8789 146.506 24.8899C146.908 24.8615 147.311 24.9189 147.689 25.0585C148.066 25.1981 148.41 25.4165 148.697 25.6994C149.259 26.437 149.527 27.358 149.446 28.2824V33.7341C149.457 33.9936 149.485 34.252 149.53 34.5078H148.018V33.496C147.957 33.6375 147.877 33.7697 147.78 33.8889C147.671 34.0472 147.539 34.1877 147.387 34.3055C147.215 34.4353 147.027 34.5432 146.828 34.6269C146.577 34.7222 146.31 34.7706 146.042 34.7697C145.702 34.7694 145.366 34.7006 145.054 34.5673C144.749 34.4428 144.474 34.2563 144.245 34.0198C144.017 33.7789 143.839 33.4958 143.721 33.1866C143.596 32.8517 143.536 32.4963 143.542 32.1391H143.554ZM146.423 33.3294C146.621 33.3278 146.818 33.2957 147.006 33.2342C147.163 33.1739 147.311 33.0939 147.447 32.9961C147.564 32.9125 147.668 32.8123 147.756 32.6985L147.982 32.4128V30.3774H147.482C146.883 30.3582 146.289 30.4935 145.756 30.7702C145.56 30.8826 145.4 31.0487 145.294 31.249C145.189 31.4492 145.143 31.6754 145.161 31.901C145.14 32.2939 145.258 32.6819 145.495 32.9961C145.616 33.1148 145.762 33.206 145.923 33.2635C146.083 33.321 146.253 33.3434 146.423 33.3294ZM155.946 26.3421H154.029V34.5197H152.375V26.3897H151.184V25.3304L152.375 25.1161V23.2354C152.362 22.7854 152.435 22.3371 152.589 21.9141C152.716 21.5834 152.906 21.2803 153.148 21.0213C153.38 20.7856 153.666 20.6099 153.982 20.5095C154.299 20.3992 154.634 20.3468 154.97 20.3548C155.265 20.3441 155.56 20.3885 155.839 20.4857C155.999 20.5449 156.154 20.6166 156.303 20.6999L155.946 22.0212C155.844 21.9485 155.732 21.8923 155.612 21.8546C155.447 21.7837 155.268 21.7511 155.089 21.7593C154.928 21.7481 154.767 21.7745 154.618 21.8365C154.469 21.8985 154.337 21.9943 154.232 22.1164C153.992 22.4997 153.887 22.9523 153.934 23.402V25.0923H156.053L155.946 26.3421ZM161.528 26.3421H159.398V31.5439C159.36 32.0155 159.45 32.4885 159.659 32.9128C159.763 33.0372 159.895 33.1346 160.044 33.1968C160.193 33.259 160.355 33.2841 160.517 33.2699C160.722 33.2683 160.927 33.2362 161.124 33.1747L161.493 32.9961L161.719 34.2698L161.243 34.5197C160.924 34.6405 160.584 34.6971 160.243 34.6864C159.909 34.7077 159.574 34.6584 159.26 34.5414C158.946 34.4245 158.66 34.2427 158.422 34.0079C157.958 33.3541 157.743 32.5564 157.814 31.7582V26.3897H156.684V25.3304L157.814 25.0923L157.993 22.4616H159.398V25.0923H161.659L161.528 26.3421ZM72.6937 54.2436H71.2414V53.1842C71.173 53.3093 71.089 53.4253 70.9915 53.5294C70.8476 53.6969 70.679 53.8414 70.4915 53.9579C70.262 54.1113 70.014 54.2353 69.7535 54.3269C69.4431 54.4323 69.1172 54.4846 68.7894 54.4816C68.4081 54.4843 68.0294 54.4198 67.6704 54.2912C67.3386 54.1692 67.0436 53.9643 66.8134 53.696C66.5608 53.3855 66.3781 53.0242 66.2777 52.6366C66.1375 52.1088 66.0734 51.5637 66.0873 51.0178V44.8399H67.6704V50.8987C67.6206 51.4857 67.7581 52.0733 68.0632 52.5771C68.2079 52.7488 68.3912 52.8837 68.5981 52.9706C68.8051 53.0575 69.0298 53.094 69.2536 53.0771C69.6769 53.0909 70.0937 52.9701 70.4439 52.7319C70.7211 52.5377 70.973 52.3098 71.1938 52.0534V44.8399H72.777L72.6937 54.2436ZM80.2523 54.2436V48.1967C80.3048 47.5982 80.1674 46.9984 79.8595 46.4826C79.7154 46.3088 79.5328 46.171 79.3262 46.08C79.1196 45.9891 78.8946 45.9476 78.6691 45.9589C78.2431 45.9376 77.8228 46.0637 77.4788 46.316C77.2069 46.5166 76.9557 46.7439 76.7289 46.9944V54.2436H75.1219V44.8399H76.5741V45.8993C76.6478 45.7746 76.7357 45.6587 76.836 45.5541C76.9853 45.3922 77.1531 45.2484 77.336 45.1256C77.5739 44.9828 77.825 44.8633 78.0859 44.7685C78.3975 44.6519 78.7295 44.5992 79.0619 44.6138C79.4662 44.6011 79.8695 44.6616 80.2523 44.7923C80.5848 44.9129 80.8802 45.118 81.1093 45.3875C81.3634 45.7032 81.5498 46.0679 81.6569 46.4588C81.8016 46.9859 81.8697 47.5311 81.8592 48.0776V54.2436H80.2523ZM83.8233 49.6846C83.8004 48.8742 83.9296 48.0667 84.2042 47.3039C84.4083 46.7265 84.7329 46.199 85.1565 45.7565C85.528 45.3764 85.9852 45.0907 86.4896 44.9233C86.9688 44.7613 87.4718 44.6808 87.9775 44.6852C88.2389 44.6614 88.5018 44.6614 88.7632 44.6852C88.9507 44.7226 89.1341 44.7784 89.3107 44.8518V40.4L90.8939 40.2214V54.2436H89.4059V53.2437C89.3457 53.3579 89.2739 53.4655 89.1917 53.5651C89.0701 53.7243 88.9257 53.8647 88.7632 53.9817C88.5541 54.1308 88.3259 54.2509 88.0847 54.3388C87.7721 54.4336 87.4472 54.4817 87.1205 54.4816C86.686 54.4857 86.2557 54.3964 85.8588 54.2198C85.446 54.0275 85.0864 53.7374 84.8113 53.3746C84.4749 52.9321 84.232 52.4259 84.0971 51.8867C83.8839 51.1721 83.7756 50.4303 83.7757 49.6846H83.8233ZM87.549 53.0771C87.7755 53.0774 88.0006 53.0412 88.2156 52.9699C88.537 52.8474 88.8204 52.642 89.0369 52.3748C89.1221 52.292 89.1979 52.2002 89.2631 52.101V46.3517C89.1088 46.2487 88.9404 46.1685 88.7632 46.1136C88.5325 46.0404 88.2908 46.0081 88.049 46.0184C87.6982 46.01 87.3496 46.0749 87.0253 46.2088C86.6927 46.3287 86.4029 46.544 86.192 46.8278C85.9293 47.153 85.7386 47.5303 85.6326 47.9348C85.482 48.4851 85.4138 49.0548 85.4302 49.6251C85.4142 50.1736 85.4702 50.7219 85.5969 51.2558C85.6803 51.6341 85.8337 51.9934 86.0492 52.3152C86.2106 52.5512 86.4274 52.744 86.6805 52.8768C86.9337 53.0096 87.2155 53.0784 87.5014 53.0771H87.549ZM101.964 47.3277L106.547 54.2436H104.404L100.488 48.1015H99.4762V54.2436H97.7621V40.7333H99.4762V46.685H100.512L104.285 40.7333H106.19L101.964 47.3277ZM109.356 52.0891C109.327 52.3734 109.385 52.66 109.523 52.9104C109.593 52.9911 109.682 53.0545 109.781 53.0958C109.88 53.137 109.987 53.1551 110.094 53.1485H110.463L110.689 53.0652L110.82 54.2555L110.392 54.4102C110.115 54.4778 109.831 54.5098 109.546 54.5055C109.06 54.5035 108.595 54.3112 108.249 53.9698C107.861 53.474 107.686 52.8449 107.761 52.22V40.4357L109.356 40.2571V52.0891ZM113.832 54.2793H112.201V44.8756H113.784L113.832 54.2793ZM113.094 42.614C112.947 42.6197 112.801 42.594 112.666 42.5386C112.53 42.4831 112.408 42.3993 112.308 42.2926C112.108 42.0665 112.002 41.7729 112.01 41.4713C111.998 41.2526 112.054 41.0355 112.169 40.8493C112.284 40.6631 112.454 40.5166 112.655 40.4297C112.856 40.3428 113.079 40.3196 113.294 40.3633C113.508 40.4069 113.704 40.5153 113.855 40.6738C114.05 40.8938 114.155 41.1779 114.153 41.4713C114.161 41.7729 114.055 42.0665 113.855 42.2926C113.749 42.396 113.622 42.4751 113.482 42.5244C113.342 42.5737 113.194 42.5921 113.046 42.5783L113.094 42.614ZM121.235 54.2793V48.1967C121.282 47.621 121.167 47.0437 120.902 46.5302C120.784 46.3586 120.623 46.221 120.435 46.1312C120.247 46.0414 120.039 46.0025 119.831 46.0184C119.593 46.0149 119.357 46.047 119.129 46.1136C118.94 46.1725 118.759 46.2565 118.593 46.3636C118.439 46.4494 118.298 46.5577 118.176 46.685L117.891 46.9944V54.2436H116.224V44.8399H117.664V45.8993C117.746 45.7627 117.842 45.6351 117.95 45.5184C118.093 45.354 118.257 45.2098 118.438 45.0899C118.649 44.9398 118.882 44.8233 119.129 44.7447C119.412 44.6482 119.71 44.6038 120.009 44.6138C120.463 44.5743 120.917 44.6654 121.32 44.8764C121.723 45.0873 122.057 45.4093 122.283 45.8041C122.39 45.6519 122.514 45.5122 122.652 45.3875C122.813 45.2219 122.997 45.0815 123.2 44.9709C123.424 44.8425 123.664 44.7426 123.914 44.6733C124.191 44.5864 124.48 44.5461 124.771 44.5543C126.675 44.5543 127.628 45.6613 127.628 47.8753V54.1841H126.044V48.1967C126.096 47.6102 125.949 47.0234 125.628 46.5302C125.483 46.3578 125.3 46.2218 125.093 46.1329C124.887 46.044 124.662 46.0048 124.437 46.0184C124.044 46.0037 123.655 46.1164 123.33 46.3398C123.078 46.5201 122.847 46.7276 122.64 46.9587V54.2436L121.235 54.2793ZM129.568 51.8986C129.55 51.4486 129.65 51.0017 129.859 50.6027C130.068 50.2037 130.378 49.8666 130.758 49.6251C131.126 49.399 131.528 49.2342 131.948 49.137C132.446 49.0358 132.953 48.988 133.46 48.9942H133.948V48.0896C134.016 47.5094 133.867 46.9248 133.532 46.4469C133.379 46.2881 133.193 46.1652 132.987 46.087C132.781 46.0087 132.561 45.9772 132.341 45.9946C131.922 45.9709 131.506 46.0792 131.151 46.3041C130.886 46.4609 130.635 46.6401 130.401 46.8397L129.734 45.7803C129.861 45.6518 129.996 45.5324 130.139 45.4232C130.328 45.2848 130.527 45.1615 130.734 45.0542C130.99 44.9239 131.263 44.8278 131.544 44.7685C131.874 44.6807 132.214 44.6406 132.556 44.6495C132.958 44.6193 133.363 44.6747 133.742 44.8122C134.122 44.9497 134.468 45.166 134.758 45.447C135.317 46.1858 135.581 47.1071 135.496 48.03V53.5175C135.465 53.7784 135.493 54.0429 135.579 54.2912H134.067V53.2556C134.004 53.3994 133.924 53.5352 133.829 53.6603C133.72 53.8149 133.588 53.9515 133.436 54.065C133.266 54.2012 133.078 54.3134 132.877 54.3983C132.624 54.4833 132.358 54.5275 132.091 54.5293C131.753 54.5318 131.417 54.467 131.103 54.3388C130.798 54.2107 130.522 54.0202 130.294 53.7794C130.069 53.5409 129.892 53.2623 129.77 52.958C129.616 52.6135 129.534 52.2405 129.532 51.8629L129.568 51.8986ZM132.413 53.1604C132.611 53.1647 132.809 53.1324 132.996 53.0652C133.152 53.009 133.3 52.933 133.436 52.839C133.552 52.745 133.66 52.6415 133.758 52.5295L133.972 52.2438V50.1369H133.472C132.874 50.1296 132.282 50.2642 131.746 50.5297C131.542 50.648 131.377 50.8243 131.273 51.0362C131.17 51.2481 131.131 51.4862 131.163 51.7201C131.136 52.108 131.251 52.4925 131.484 52.8033C131.603 52.9152 131.744 53.0015 131.897 53.0568C132.051 53.1121 132.214 53.1352 132.377 53.1247L132.413 53.1604ZM141.935 46.7802C141.759 46.6054 141.568 46.4461 141.364 46.3041C141.049 46.0801 140.667 45.9708 140.281 45.9946C140.11 45.9768 139.938 45.9941 139.774 46.0452C139.61 46.0964 139.459 46.1804 139.329 46.2921C139.223 46.3759 139.138 46.4828 139.08 46.6045C139.022 46.7263 138.993 46.8597 138.995 46.9944C138.985 47.1518 139.006 47.3096 139.057 47.4588C139.108 47.6079 139.188 47.7455 139.293 47.8634C139.567 48.1511 139.879 48.3995 140.221 48.6014L140.816 48.9585C141.386 49.2586 141.895 49.6623 142.316 50.1488C142.7 50.6266 142.899 51.2267 142.876 51.8391C142.879 52.1884 142.813 52.5349 142.68 52.858C142.547 53.1811 142.35 53.4742 142.102 53.7198C141.489 54.2558 140.689 54.5293 139.876 54.4816C139.539 54.4839 139.203 54.4439 138.876 54.3626C138.616 54.2892 138.362 54.1977 138.114 54.0888C137.925 53.9921 137.745 53.8764 137.579 53.7436C137.458 53.6387 137.343 53.5274 137.234 53.4103L137.995 52.1486L138.281 52.4224C138.401 52.5384 138.533 52.6421 138.674 52.7319C138.843 52.8303 139.023 52.9101 139.21 52.9699C139.429 53.0411 139.658 53.0773 139.888 53.0771C140.276 53.0993 140.659 52.9857 140.971 52.7557C141.087 52.6651 141.18 52.5494 141.244 52.4174C141.308 52.2854 141.341 52.1405 141.34 51.9938C141.343 51.7963 141.315 51.5995 141.257 51.4106C141.196 51.2497 141.107 51.1007 140.995 50.9702C140.865 50.8285 140.717 50.7044 140.555 50.6012L139.971 50.2083L139.388 49.8393C138.868 49.5184 138.401 49.1166 138.007 48.649C137.662 48.1863 137.485 47.6191 137.507 47.0421C137.495 46.7051 137.564 46.3702 137.71 46.066C137.847 45.7762 138.041 45.517 138.281 45.3042C138.542 45.0819 138.84 44.9085 139.162 44.7923C139.503 44.6744 139.861 44.6141 140.221 44.6138C140.538 44.6016 140.855 44.6377 141.162 44.7209C141.401 44.7767 141.629 44.869 141.84 44.9947C142.013 45.0836 142.173 45.1958 142.316 45.328C142.424 45.4138 142.524 45.5095 142.614 45.6137L141.935 46.7802ZM150.018 46.6612L149.839 46.4945C149.739 46.4008 149.627 46.3208 149.506 46.2564C149.363 46.165 149.206 46.0968 149.042 46.0541C148.838 45.9869 148.625 45.9547 148.411 45.9589C148.083 45.9507 147.758 46.0157 147.459 46.1493C147.159 46.2807 146.897 46.4853 146.697 46.7445C146.46 47.0663 146.287 47.4297 146.185 47.8158C146.054 48.3371 145.994 48.8736 146.006 49.4108C145.996 49.9945 146.052 50.5775 146.173 51.1487C146.246 51.5727 146.404 51.9776 146.637 52.339C146.819 52.5991 147.065 52.8082 147.351 52.9461C147.646 53.0685 147.961 53.1332 148.28 53.1366C148.666 53.1518 149.049 53.0613 149.387 52.8747C149.573 52.7494 149.751 52.6143 149.923 52.47L150.565 53.5651L150.28 53.8508C150.13 53.9714 149.971 54.0789 149.804 54.1722C149.577 54.2892 149.337 54.3772 149.089 54.434C148.298 54.6038 147.474 54.5544 146.709 54.2912C146.249 54.1105 145.84 53.8204 145.518 53.4461C145.15 52.9969 144.875 52.4789 144.709 51.9224C144.495 51.1476 144.399 50.3451 144.423 49.5418C144.406 48.7619 144.523 47.9848 144.768 47.2444C144.965 46.6792 145.282 46.1634 145.697 45.7327C146.044 45.3549 146.477 45.0652 146.959 44.8875C147.402 44.7117 147.875 44.6228 148.351 44.6257C148.668 44.6156 148.984 44.6476 149.292 44.7209C149.527 44.7697 149.756 44.8497 149.97 44.959C150.143 45.0437 150.303 45.1519 150.446 45.2804C150.554 45.3662 150.654 45.4619 150.744 45.566L150.018 46.6612ZM157.481 54.2436V48.1967C157.535 47.5966 157.393 46.9951 157.076 46.4826C156.935 46.3058 156.753 46.1659 156.546 46.0747C156.338 45.9835 156.112 45.9437 155.886 45.9589C155.46 45.9376 155.04 46.0637 154.696 46.316C154.424 46.5166 154.173 46.7439 153.946 46.9944V54.2436H152.375V40.4L153.958 40.2214V45.8041C154.03 45.696 154.11 45.5926 154.196 45.4946C154.331 45.3417 154.487 45.2093 154.66 45.1018C155.164 44.7674 155.758 44.5969 156.362 44.6138C156.728 44.5947 157.094 44.6562 157.433 44.794C157.772 44.9318 158.077 45.1426 158.326 45.4113C158.873 46.1872 159.126 47.1323 159.041 48.0776V54.2436H157.481ZM168.016 54.2436H166.54V53.1842C166.471 53.3093 166.387 53.4253 166.29 53.5294C166.146 53.6969 165.977 53.8414 165.79 53.9579C165.56 54.1113 165.312 54.2353 165.052 54.3269C164.745 54.4312 164.423 54.4835 164.099 54.4816C163.714 54.4842 163.332 54.4198 162.969 54.2912C162.638 54.1734 162.346 53.9676 162.123 53.696C161.872 53.3831 161.686 53.0229 161.576 52.6366C161.446 52.1071 161.386 51.5629 161.397 51.0178V44.8399H162.981V50.8987C162.933 51.484 163.066 52.0698 163.361 52.5771C163.507 52.7481 163.69 52.8824 163.897 52.9692C164.104 53.0561 164.328 53.093 164.552 53.0771C164.975 53.0909 165.392 52.9701 165.742 52.7319C166.016 52.5375 166.264 52.3096 166.48 52.0534V44.8399H168.063L168.016 54.2436ZM174.467 46.1374H172.372V51.3511C172.33 51.8177 172.416 52.2871 172.622 52.708C172.728 52.8333 172.862 52.9319 173.013 52.996C173.164 53.0601 173.328 53.0878 173.491 53.0771C173.698 53.0773 173.904 53.041 174.098 52.9699L174.467 52.8033L174.682 54.065C174.54 54.1713 174.384 54.2556 174.217 54.315C173.898 54.4357 173.558 54.4924 173.217 54.4816C172.885 54.5013 172.552 54.4511 172.241 54.3342C171.929 54.2174 171.645 54.0364 171.408 53.8032C170.946 53.153 170.731 52.3597 170.801 51.5653V46.1374H169.611V45.078L170.801 44.8399L170.98 42.2212H172.384V44.8399H174.634L174.467 46.1374ZM181.514 45.8636L177.717 52.8509H181.776L181.633 54.196H175.681V53.1842L179.598 46.1255H175.896V44.8399H181.538L181.514 45.8636Z"
      fill="#FAFAFA" />
    <path
      d="M23.2116 13.6531C23.2591 13.2581 23.2829 12.8606 23.283 12.4628V11.7129C26.5564 11.7129 29.437 9.33222 29.437 6.59445C29.3226 5.44995 28.8134 4.38096 27.9967 3.571L28.3538 3.49958C29.4363 4.46812 30.0947 5.82335 30.1869 7.27294C30.1869 10.5345 26.9373 13.5579 23.2116 13.6293M19.9025 2.29735C19.8483 1.94409 19.7094 1.6092 19.4977 1.32127C19.4977 0.987978 19.6406 0.666587 20.1762 0.928461C19.8906 1.22604 20.1167 1.74979 20.1167 1.74979C20.1167 1.74979 20.7 1.47601 20.5809 1.0832C21.4618 1.29746 20.8309 2.4759 19.9025 2.27354M19.1406 3.97572C19.0199 3.47433 18.7881 3.0065 18.4621 2.60683C18.2959 2.38521 18.0827 2.20307 17.8378 2.07343C17.5929 1.94379 17.3224 1.86986 17.0457 1.85692C16.6635 1.88295 16.2889 1.97561 15.9386 2.1307C15.7717 1.84733 15.6549 1.53725 15.5934 1.21414C15.5934 0.976074 15.9982 0.738007 16.7838 0.738007C18.486 0.738007 19.4977 1.49982 19.4977 2.78538C19.4616 3.20091 19.3443 3.60532 19.1525 3.97572M23.5211 25.866C23.6599 25.8534 23.7996 25.8781 23.9258 25.9374C24.6076 27.3341 25.4291 28.6582 26.3779 29.8893C27.2473 29.7406 28.1266 29.6571 29.0085 29.6393C29.0604 29.63 29.1136 29.6315 29.1648 29.6438C29.216 29.6561 29.2641 29.6789 29.3061 29.7108C29.3786 29.8059 29.4126 29.9249 29.4013 30.044C29.3982 30.3403 29.3204 30.631 29.1752 30.8892C28.928 30.6865 28.6425 30.5356 28.3357 30.4456C28.0289 30.3557 27.7072 30.3284 27.3897 30.3654C27.1319 30.3751 26.8762 30.415 26.6278 30.4845H26.485L26.9968 31.0082C27.7944 31.8057 28.4848 32.4961 28.4848 32.9485C28.4586 33.1094 28.3997 33.2632 28.3116 33.4004C28.2236 33.5375 28.1083 33.6552 27.9729 33.746C27.7149 32.695 27.0848 31.7732 26.1993 31.1511V32.27C26.1993 33.865 26.0327 34.115 25.4851 34.115H25.1875C25.5335 33.5877 25.685 32.9564 25.6161 32.3295V31.5796C25.6181 31.2929 25.638 31.0067 25.6756 30.7225V30.6035H25.5803C25.214 30.5443 24.8442 30.5085 24.4733 30.4964C23.8666 30.4175 23.2528 30.5752 22.7593 30.9368C22.497 30.7453 22.3114 30.4669 22.2355 30.1512C22.2355 29.8179 22.4498 29.7822 22.7116 29.7822H23.164C23.7949 29.8696 24.4316 29.9094 25.0685 29.9012H25.1399V29.8417C24.5771 28.6489 23.83 27.5523 22.9259 26.5921C23.033 26.2112 23.1283 25.9612 23.5092 25.9612M13.3437 29.7584V29.8179H13.4151C14.0521 29.8261 14.6887 29.7863 15.3197 29.6988H15.7601C16.0339 29.6988 16.2481 29.6988 16.2481 30.0679C16.1722 30.3836 15.9866 30.662 15.7244 30.8535C15.2308 30.4919 14.617 30.3341 14.0103 30.413C13.6354 30.4251 13.2617 30.4609 12.8914 30.5202H12.8081V30.6392C12.856 30.9224 12.8799 31.2091 12.8795 31.4963V32.2462C12.8067 32.8749 12.9631 33.5089 13.3199 34.0317C13.2211 34.0441 13.1211 34.0441 13.0223 34.0317C12.4629 34.0317 12.3081 33.7817 12.3081 32.1866V31.0677H12.2367C11.3635 31.6927 10.7495 32.6158 10.5107 33.6627C10.2385 33.4756 10.0504 33.1893 9.98697 32.8651C9.98697 32.4128 10.6774 31.6748 11.4749 30.9249L11.9391 30.4607V30.4011H11.7844C11.5373 30.3259 11.2808 30.2858 11.0226 30.2821C10.6912 30.2609 10.359 30.3092 10.0474 30.424C9.7358 30.5388 9.45166 30.7175 9.21325 30.9487C9.06956 30.6892 8.98806 30.3999 8.97518 30.1036C8.96204 29.9806 8.99607 29.8572 9.07041 29.7584C9.16236 29.6998 9.2716 29.6746 9.3799 29.6869C10.2614 29.7106 11.1403 29.7941 12.0105 29.9369C12.9593 28.7058 13.7808 27.3817 14.4626 25.985C14.5888 25.9257 14.7285 25.9011 14.8673 25.9136C15.2363 25.9136 15.3435 26.1636 15.4506 26.5445C14.5882 27.5018 13.8776 28.5857 13.3437 29.7584ZM8.24908 7.29675C8.35658 5.86227 9.01831 4.52598 10.0941 3.571H10.4393C9.61973 4.39918 9.1218 5.49209 9.0347 6.65397C9.0347 9.39174 11.9629 11.7843 15.284 11.7843C15.284 12.0224 15.284 12.2723 15.284 12.5223C15.284 12.9202 15.3079 13.3177 15.3554 13.7127C11.5939 13.7127 8.3443 10.6416 8.3443 7.35627M33.508 13.0937C35.1863 15.76 36.5076 15.7124 38.4955 15.7124C37.2105 14.6713 36.1117 13.4195 35.2459 12.0105L32.151 7.07059C31.8532 5.52654 31.059 4.12209 29.8894 3.07106C30.2167 2.95495 30.5285 2.79904 30.8178 2.60683C28.7943 2.60683 26.7945 1.59505 25.6994 1.59505C25.5665 1.57109 25.4301 1.57367 25.2982 1.60265C25.1663 1.63162 25.0414 1.68641 24.9308 1.76387C24.8201 1.84132 24.7259 1.9399 24.6535 2.05393C24.5811 2.16796 24.532 2.29519 24.509 2.42828C24.5032 2.47572 24.5032 2.52369 24.509 2.57112C24.509 3.1901 25.1875 3.76146 26.3779 3.76146C26.7107 3.78521 27.0449 3.78521 27.3778 3.76146C28.0904 4.54431 28.5109 5.54924 28.5681 6.60636C28.58 8.73706 25.997 10.4035 23.3901 10.4035H22.9616C22.44 9.67375 22.09 8.8355 21.9379 7.95144C21.9379 6.23735 23.0568 4.83276 23.0568 3.1901C23.0465 2.4524 22.772 1.74287 22.2831 1.19033C22.5941 0.926106 22.8491 0.602329 23.033 0.238067C22.7976 0.307455 22.552 0.335644 22.3069 0.32139C21.0571 0.32139 20.0453 0 19.0573 0C18.4979 0 18.3431 0.17855 18.3431 0.345197C18.331 0.392042 18.331 0.441192 18.3431 0.488037C18.1321 0.417516 17.9175 0.35792 17.7003 0.309487C17.3902 0.252254 17.0753 0.224356 16.76 0.226164C15.5696 0.226164 15.1292 0.738007 15.1292 1.16653C15.2116 1.72169 15.4192 2.25084 15.7363 2.71396C16.1501 2.51587 16.5993 2.40255 17.0576 2.38067C17.7003 2.38067 18.2479 2.98774 18.5693 3.70194C18.2541 3.74982 17.9358 3.77369 17.617 3.77336C16.8869 3.72258 16.1686 3.56207 15.4863 3.29723C15.717 3.67436 16.0636 3.96667 16.4743 4.13046C17.25 4.37053 18.0474 4.53399 18.855 4.6185C18.7617 4.83916 18.5986 5.02314 18.3907 5.14225H18.2241C17.436 4.99984 16.6657 4.77235 15.9267 4.46375C15.9267 4.91608 17.1171 5.91596 18.1527 6.30877C17.0357 7.4557 16.1684 8.82153 15.6053 10.3202H15.1173C12.5105 10.3202 9.92745 8.64183 9.92745 6.48732C9.99763 5.43323 10.4164 4.43241 11.1178 3.64242C11.4451 3.69239 11.7749 3.72418 12.1058 3.73765C13.2961 3.73765 13.927 3.10677 13.9746 2.54732C13.9532 2.27892 13.8282 2.02939 13.626 1.85162C13.4238 1.67385 13.1603 1.58182 12.8914 1.59505H12.7843C11.6891 1.59505 9.70129 2.60683 7.68962 2.60683C7.97891 2.79904 8.29074 2.95495 8.61808 3.07106C7.44507 4.12303 6.64342 5.52591 6.33264 7.07059L3.26158 11.9986C2.3914 13.4044 1.29317 14.6555 0.0119629 15.7005C1.99982 15.7005 3.32109 15.7005 5.01137 13.0818L6.57071 10.5583C6.69046 10.8875 6.83779 11.2061 7.01113 11.5105L3.86865 16.5337C3.00172 17.9456 1.89847 19.1978 0.60713 20.2357C2.59499 20.2357 3.91626 20.2357 5.60654 17.617L8.3443 13.296C8.54666 13.5222 8.76092 13.7246 8.97518 13.9269L5.16611 20.0333C4.29976 21.4456 3.19643 22.6979 1.90459 23.7353C3.89245 23.7353 5.21373 23.7353 6.8921 21.1165L10.6059 15.1649C10.8559 15.3196 11.1059 15.4743 11.3678 15.6172L6.83258 22.8782C5.97033 24.2933 4.8711 25.5496 3.58297 26.5921C5.57083 26.5921 6.8921 26.5921 8.58237 23.9733L13.2485 16.498L14.0936 16.7956L8.78473 25.247C7.92059 26.6677 6.81715 27.9282 5.52321 28.9727C7.51107 28.9727 8.83234 28.9727 10.5226 26.354L16.141 17.3432H16.3195C16.4737 17.7919 16.558 18.2616 16.5695 18.7359C16.5695 21.5689 14.7126 24.0686 12.4867 25.9969C12.6879 26.0546 12.8964 26.0827 13.1056 26.0802C13.4281 26.0841 13.7503 26.0642 14.0698 26.0207C13.4622 27.2405 12.7408 28.4003 11.9153 29.4846C11.0933 29.3438 10.2614 29.2682 9.42751 29.2584C8.7014 29.2584 8.61808 29.6869 8.61808 30.0559C8.61458 30.3375 8.67239 30.6164 8.7875 30.8733C8.90261 31.1303 9.07226 31.3591 9.28467 31.5439C9.41561 31.1987 9.68938 30.7463 11.0345 30.7463H11.1654C10.725 31.1987 9.53464 32.139 9.53464 32.9842C9.56914 33.328 9.72225 33.6491 9.96769 33.8924C10.2131 34.1356 10.5356 34.2859 10.8797 34.3173C10.8678 34.1668 10.8678 34.0156 10.8797 33.865C11.0024 33.1255 11.3665 32.4474 11.9153 31.9367C11.9034 32.0435 11.9034 32.1513 11.9153 32.2581C11.9153 33.7936 12.0462 34.4959 13.0223 34.4959C13.3573 34.484 13.6792 34.3627 13.9389 34.1507C13.6765 33.9176 13.4777 33.6216 13.3611 33.2905C13.2445 32.9594 13.2139 32.6042 13.2723 32.2581V31.5082C13.2842 31.2941 13.2842 31.0795 13.2723 30.8654C13.5257 30.8416 13.7807 30.8416 14.0341 30.8654C14.0341 30.8654 15.4149 30.7582 15.7482 31.4724C16.1172 31.1272 16.6647 30.6511 16.6647 30.1155C16.6647 29.5798 16.4981 29.3537 15.7839 29.3537C15.5101 29.3537 14.665 29.5203 13.9627 29.5203C14.4753 28.6154 15.069 27.7588 15.7363 26.9611C15.8476 27.3662 16.0802 27.7276 16.4029 27.9967C16.5277 26.7418 16.9747 25.5404 17.7003 24.509C17.8454 25.4979 17.9011 26.4978 17.867 27.4967C17.867 31.3058 16.9504 34.115 15.0102 34.6387C15.1467 34.8766 15.3398 35.0771 15.5723 35.2224C15.8049 35.3678 16.0697 35.4535 16.3434 35.472C17.0576 35.472 17.4504 34.6744 17.8432 33.9126C18.0455 34.4721 18.6169 35.841 19.1883 35.841C19.7596 35.841 20.3786 34.4721 20.5333 33.9126C20.9261 34.6744 21.307 35.472 22.0212 35.472C22.2972 35.4565 22.5649 35.3721 22.7998 35.2266C23.0348 35.081 23.2296 34.8789 23.3663 34.6387C21.4261 34.1031 20.5095 31.2939 20.5095 27.4967C20.505 26.4801 20.5846 25.4649 20.7476 24.4614C21.4807 25.4889 21.9284 26.6923 22.0451 27.9491C22.3745 27.6838 22.6119 27.3214 22.7235 26.9135C23.3909 27.7112 23.9845 28.5678 24.4971 29.4727C23.7829 29.4727 22.9378 29.306 22.664 29.306C21.9617 29.306 21.7951 29.7108 21.7951 30.0679C21.9591 30.6012 22.2781 31.0736 22.7116 31.4248C23.0449 30.7106 24.4257 30.8178 24.4257 30.8178C24.6791 30.7939 24.9342 30.7939 25.1875 30.8178C25.1756 31.0319 25.1756 31.2464 25.1875 31.4605V32.2105C25.2459 32.5566 25.2153 32.9118 25.0987 33.2429C24.9821 33.5739 24.7833 33.8699 24.521 34.1031C24.7847 34.316 25.1106 34.4372 25.4494 34.4483C26.4136 34.4483 26.5564 33.746 26.5564 32.2105C26.5683 32.1037 26.5683 31.9959 26.5564 31.8891C27.1084 32.4007 27.48 33.0772 27.6158 33.8174C27.6396 33.9672 27.6396 34.1199 27.6158 34.2697C27.9621 34.2409 28.2873 34.0918 28.5352 33.8483C28.783 33.6048 28.9379 33.2823 28.9728 32.9366C28.9728 32.139 27.7825 31.1511 27.342 30.7106C28.6871 30.7106 28.9609 31.163 29.0918 31.5082C29.309 31.3267 29.4827 31.0988 29.6001 30.8413C29.7175 30.5838 29.7757 30.3032 29.7703 30.0202C29.7703 29.6512 29.687 29.2227 28.9609 29.2227C28.127 29.2325 27.2951 29.3081 26.4731 29.4489C25.6452 28.3591 24.9124 27.2002 24.2829 25.985C24.6024 26.0285 24.9246 26.0484 25.2471 26.0445C25.4563 26.047 25.6648 26.0189 25.866 25.9612C23.6401 24.0329 21.7832 21.5332 21.7832 18.7002C21.7977 18.2252 21.8861 17.7553 22.0451 17.3075H22.2117L27.842 26.3183C29.5561 28.9727 30.8773 28.9727 32.8771 28.9727C31.5858 27.9349 30.4825 26.6826 29.6156 25.2708L24.3424 16.8194L25.1756 16.5218L29.8536 23.9971C31.532 26.5921 32.8533 26.5921 34.8531 26.5921C33.556 25.5602 32.4518 24.3069 31.5915 22.8901L27.0564 15.6291L27.8063 15.1768L31.5201 21.1284C33.2104 23.7948 34.5317 23.7472 36.5195 23.7472C35.259 22.6966 34.1846 21.441 33.3413 20.0333L29.5323 13.9269C29.7584 13.7246 29.9727 13.5103 30.175 13.296L32.8771 17.6289C34.5317 20.2952 35.8529 20.2357 37.8527 20.2357C36.5339 19.2048 35.4093 17.9472 34.5317 16.5218L31.4368 11.5105C31.6015 11.2034 31.7447 10.8852 31.8653 10.5583L33.508 13.0937Z"
      fill="#FAFAFA" />
    <path d="M54.196 34.5197H48.4348V1.59509H54.196V34.5197Z" fill="#FAFAFA" />
    <path d="M54.196 67.4205H48.4348V34.5197H54.196V67.4205Z" fill="#9C9C9C" />
    <path d="M54.196 100.393H48.4348V67.4205H54.196V100.393Z" fill="#505050" />
  </symbol>
  <symbol id="bay-arch" viewBox="0 0 200 94">
    <path fill-rule="evenodd" clip-rule="evenodd"
      d="M2.15702 39.9104L3.88029 35.8803H11.075L12.6259 39.9104H15.0385L8.81316 24.3102H6.59445L0.00292969 39.9104H2.15702ZM10.4287 34.1036H4.5696L7.58533 26.4119L10.4287 34.1036Z"
      fill="white" />
    <path fill-rule="evenodd" clip-rule="evenodd"
      d="M17.2765 39.9104H19.2583V33.8003C19.2583 31.8719 20.2923 30.8536 22.0371 30.8536C22.3171 30.8536 22.6833 30.8969 23.1141 30.9836V29.0986C22.8556 29.0552 22.5756 29.0336 22.2956 29.0336C20.68 29.0336 19.646 29.7269 19.2583 31.1136L19.2152 29.0336H17.2119C17.2765 29.7919 17.2765 30.3769 17.2765 30.7453V31.1786V39.9104Z"
      fill="white" />
    <path fill-rule="evenodd" clip-rule="evenodd"
      d="M33.4602 36.2486H31.5215C31.5 37.722 30.5737 38.6537 29.1951 38.6537C27.4288 38.6537 26.5025 37.1587 26.5025 34.2336C26.5025 31.6336 27.6011 30.1819 29.2382 30.1819C30.466 30.1819 31.4354 31.1353 31.4354 32.4569H33.374V32.4136C33.374 30.1819 31.8016 28.7736 29.389 28.7736C26.2655 28.7736 24.4346 30.9619 24.4346 34.7103C24.4346 38.1987 26.1578 40.1704 29.2382 40.1704C31.8016 40.1704 33.2879 38.8053 33.4602 36.2486Z"
      fill="white" />
    <path fill-rule="evenodd" clip-rule="evenodd"
      d="M38.6881 30.8319V24.3102H36.6848V39.9104H38.6881V32.8469C38.6881 31.3953 39.8729 30.3769 41.5531 30.3769C43.2548 30.3769 43.9656 31.2653 43.9656 33.0419V39.9104H45.9474V33.1719C45.9474 31.9153 45.9259 31.0486 45.4304 30.3769C44.7626 29.4669 43.5133 28.9036 42.07 28.9036C40.4545 28.9036 39.162 29.6836 38.6881 30.8319Z"
      fill="white" />
    <path fill-rule="evenodd" clip-rule="evenodd"
      d="M49.7365 39.9104H51.7398V29.0336H49.7365V39.9104ZM49.5642 26.5202H51.8906V24.3102H49.5642V26.5202Z"
      fill="white" />
    <path fill-rule="evenodd" clip-rule="evenodd"
      d="M54.0664 29.0336V30.4636H55.8974V37.852C55.8974 39.5854 56.7375 40.1487 58.6762 40.1487C59.0854 40.1487 59.6024 40.0621 60.2486 39.8887V38.3721C59.9255 38.4587 59.6024 38.5237 59.2578 38.5237C58.1161 38.5237 57.8791 38.2204 57.8791 37.137V30.4636H60.2917V29.0336H57.8791V26.1302L55.8974 26.8019V29.0336H54.0664Z"
      fill="white" />
    <path fill-rule="evenodd" clip-rule="evenodd"
      d="M71.6824 36.422H69.7868C69.7653 37.8087 68.7744 38.6753 67.1804 38.6753C65.2848 38.6753 64.1646 37.527 64.1646 35.447V35.0136V34.797H71.8332C71.8763 34.342 71.8763 33.9086 71.8763 33.4753C71.8763 30.5719 70.0884 28.7736 67.1588 28.7736C64.0138 28.7736 62.1829 30.7886 62.1829 34.6886C62.1829 38.2853 63.9492 40.1704 67.3096 40.1704C69.916 40.1704 71.6609 38.697 71.6824 36.422ZM64.2723 33.3886C64.2723 31.4169 65.5002 30.1386 67.1804 30.1386C68.7098 30.1386 69.8514 31.2869 69.8514 33.1503V33.3886H64.2723Z"
      fill="white" />
    <path fill-rule="evenodd" clip-rule="evenodd"
      d="M77.044 39.9104V34.082L81.4362 39.9104H83.8919L79.0689 33.7136L83.5688 29.0119H81.1368L77.044 33.4753V24.3102H75.0386V39.9104H77.044Z"
      fill="white" />
    <path fill-rule="evenodd" clip-rule="evenodd"
      d="M84.635 29.0336V30.4636H86.466V37.852C86.466 39.5854 87.3061 40.1487 89.2448 40.1487C89.654 40.1487 90.171 40.0621 90.8172 39.8887V38.3721C90.4941 38.4587 90.171 38.5237 89.8264 38.5237C88.6847 38.5237 88.4478 38.2204 88.4478 37.137V30.4636H90.8603V29.0336H88.4478V26.1302L86.466 26.8019V29.0336H84.635Z"
      fill="white" />
    <path fill-rule="evenodd" clip-rule="evenodd"
      d="M102.251 36.422H100.356C100.334 37.8087 99.3432 38.6753 97.7492 38.6753C95.8536 38.6753 94.7335 37.527 94.7335 35.447V35.0136V34.797H102.402C102.445 34.342 102.445 33.9086 102.445 33.4753C102.445 30.5719 100.657 28.7736 97.7277 28.7736C94.5827 28.7736 92.7517 30.7886 92.7517 34.6886C92.7517 38.2853 94.5181 40.1704 97.8784 40.1704C100.485 40.1704 102.23 38.697 102.251 36.422ZM94.8412 33.3886C94.8412 31.4169 96.069 30.1386 97.7492 30.1386C99.2786 30.1386 100.42 31.2869 100.42 33.1503V33.3886H94.8412Z"
      fill="white" />
    <path fill-rule="evenodd" clip-rule="evenodd"
      d="M107.718 30.8103L107.654 29.0336H105.629C105.693 29.8136 105.715 30.5719 105.715 31.2653V39.9104H107.718V32.8469C107.718 31.3953 108.903 30.3769 110.583 30.3769C112.285 30.3769 112.996 31.2653 112.996 33.0419V39.9104H114.977V33.1503C114.977 31.8936 114.956 31.0486 114.46 30.3769C113.793 29.4669 112.543 28.9036 111.1 28.9036C109.484 28.9036 108.192 29.6619 107.718 30.8103Z"
      fill="white" />
    <path fill-rule="evenodd" clip-rule="evenodd"
      d="M120.705 39.9104V34.082L125.1 39.9104H127.555L122.73 33.7136L127.232 29.0119H124.798L120.705 33.4753V24.3102H118.702V39.9104H120.705Z"
      fill="white" />
    <path fill-rule="evenodd" clip-rule="evenodd"
      d="M135.943 34.5153V35.5986C135.943 37.527 134.909 38.5453 133.059 38.5453C131.851 38.5453 131.011 37.7437 131.011 36.7036C131.011 35.4036 132.09 34.5153 134.263 34.5153H135.943ZM138.057 39.9104C137.97 39.347 137.947 39.0003 137.947 38.8703V38.177V32.1536C137.947 29.8569 136.762 28.7736 133.682 28.7736C131.097 28.7736 129.697 29.8352 129.697 31.7419V31.9153H131.614C131.659 30.7452 132.477 30.0519 133.811 30.0519C135.233 30.0519 135.943 30.6586 135.943 31.8286V33.1503H134.069C130.817 33.1503 128.964 34.667 128.964 36.8987C128.964 38.827 130.345 40.1704 132.583 40.1704C134.308 40.1704 135.515 39.477 136.053 38.1987C136.116 39.0003 136.159 39.5637 136.266 39.9104H138.057Z"
      fill="white" />
    <path fill-rule="evenodd" clip-rule="evenodd"
      d="M143.704 39.9104V33.3453C143.704 31.4169 144.803 30.4202 146.462 30.4202C148.163 30.4202 148.831 31.4386 148.831 33.3453V39.9104H150.856V33.1719C150.856 31.5469 152.019 30.4419 153.613 30.4419C155.186 30.4419 155.983 31.2869 155.983 32.9769V39.9104H157.921V33.2586C157.921 32.0453 157.857 31.2003 157.577 30.6586C157.038 29.6186 155.703 28.9036 154.152 28.9036C152.644 28.9036 151.61 29.4886 150.533 30.8103C149.607 29.5319 148.465 28.9036 146.979 28.9036C145.492 28.9036 144.243 29.7052 143.704 30.8753L143.64 29.0336H141.615C141.68 30.2252 141.701 30.9836 141.701 31.2869V39.9104H143.704Z"
      fill="white" />
    <path fill-rule="evenodd" clip-rule="evenodd"
      d="M163.785 39.9104V33.3453C163.785 31.4169 164.883 30.4202 166.542 30.4202C168.244 30.4202 168.912 31.4386 168.912 33.3453V39.9104H170.936V33.1719C170.936 31.5469 172.1 30.4419 173.694 30.4419C175.266 30.4419 176.063 31.2869 176.063 32.9769V39.9104H178.002V33.2586C178.002 32.0453 177.937 31.2003 177.657 30.6586C177.119 29.6186 175.783 28.9036 174.232 28.9036C172.724 28.9036 171.69 29.4886 170.613 30.8103C169.687 29.5319 168.545 28.9036 167.059 28.9036C165.573 28.9036 164.323 29.7052 163.785 30.8753L163.72 29.0336H161.695C161.76 30.2252 161.781 30.9836 161.781 31.2869V39.9104H163.785Z"
      fill="white" />
    <path fill-rule="evenodd" clip-rule="evenodd"
      d="M190.694 36.422H188.798C188.775 37.8087 187.786 38.6753 186.19 38.6753C184.296 38.6753 183.176 37.527 183.176 35.447V35.0136V34.797H190.842C190.886 34.342 190.886 33.9086 190.886 33.4753C190.886 30.5719 189.1 28.7736 186.17 28.7736C183.023 28.7736 181.194 30.7886 181.194 34.6886C181.194 38.2853 182.959 40.1704 186.321 40.1704C188.928 40.1704 190.672 38.697 190.694 36.422ZM183.282 33.3886C183.282 31.4169 184.509 30.1386 186.19 30.1386C187.719 30.1386 188.863 31.2869 188.863 33.1503V33.3886H183.282Z"
      fill="white" />
    <path fill-rule="evenodd" clip-rule="evenodd"
      d="M194.05 39.9104H196.031V33.8003C196.031 31.8719 197.065 30.8536 198.81 30.8536C199.09 30.8536 199.457 30.8969 199.887 30.9836V29.0986C199.629 29.0552 199.349 29.0336 199.069 29.0336C197.453 29.0336 196.419 29.7269 196.031 31.1136L195.986 29.0336H193.985C194.05 29.7919 194.05 30.3769 194.05 30.7453V31.1786V39.9104Z"
      fill="white" />
    <path fill-rule="evenodd" clip-rule="evenodd"
      d="M6.70009 6.84235H3.70806V1.94563H6.70009C8.85418 1.94563 9.91184 2.76898 9.91184 4.43733C9.91184 6.23568 8.89942 6.84235 6.70009 6.84235ZM6.89612 14.0791H3.70806V8.57571H6.89612C9.20099 8.57571 10.3427 9.48572 10.3427 11.3491C10.3427 13.3424 9.24407 14.0791 6.89612 14.0791ZM1.64014 15.8125H7.19769C10.7519 15.8125 12.5398 14.8158 12.5398 11.6741C12.5398 9.57238 11.5274 8.16403 9.61027 7.62236C11.2474 7.10236 12.1306 5.88901 12.1306 4.17732C12.1306 2.55231 11.3335 1.29563 9.99801 0.667285C9.13637 0.277281 8.14549 0.21228 6.91766 0.21228H1.64014V15.8125Z"
      fill="white" />
    <path fill-rule="evenodd" clip-rule="evenodd"
      d="M21.9531 10.4174V11.5007C21.9531 13.4291 20.9192 14.4474 19.0666 14.4474C17.8604 14.4474 17.0203 13.6458 17.0203 12.6057C17.0203 11.3057 18.0973 10.4174 20.2729 10.4174H21.9531ZM24.0641 15.8124C23.978 15.2491 23.9564 14.9024 23.9564 14.7724V14.0791V8.0557C23.9564 5.759 22.7717 4.67566 19.6913 4.67566C17.1064 4.67566 15.7063 5.73734 15.7063 7.64403V7.81736H17.6234C17.6665 6.64735 18.485 5.95401 19.8206 5.95401C21.2423 5.95401 21.9531 6.56068 21.9531 7.73069V9.05237H20.0791C16.8264 9.05237 14.9739 10.5691 14.9739 12.8007C14.9739 14.7291 16.3525 16.0725 18.5927 16.0725C20.316 16.0725 21.5223 15.3791 22.0608 14.1008C22.1255 14.9024 22.1685 15.4658 22.2762 15.8124H24.0641Z"
      fill="white" />
    <path fill-rule="evenodd" clip-rule="evenodd"
      d="M30.5113 15.8125L28.8527 19.9292H30.7052L37.0382 4.93567H35.0565L31.5668 13.5591L28.1203 4.93567H26.0955L30.5113 15.8125Z"
      fill="white" />
    <path fill-rule="evenodd" clip-rule="evenodd"
      d="M48.0154 12.3241H46.1198C46.0983 13.7108 45.1074 14.5774 43.5134 14.5774C41.6178 14.5774 40.4976 13.4291 40.4976 11.3491V10.9157V10.6991H48.1662C48.2093 10.2441 48.2093 9.81072 48.2093 9.37738C48.2093 6.47401 46.4214 4.67566 43.4918 4.67566C40.3468 4.67566 38.5159 6.69068 38.5159 10.5907C38.5159 14.1874 40.2822 16.0725 43.6426 16.0725C46.2491 16.0725 47.9939 14.5991 48.0154 12.3241ZM40.6053 9.29071C40.6053 7.31902 41.8332 6.04067 43.5134 6.04067C45.0428 6.04067 46.1844 7.18902 46.1844 9.05237V9.29071H40.6053Z"
      fill="white" />
    <path fill-rule="evenodd" clip-rule="evenodd"
      d="M51.3715 15.8125H53.3554V9.70239C53.3554 7.77403 54.3894 6.75569 56.132 6.75569C56.4121 6.75569 56.7783 6.79902 57.2091 6.88569V5.00067C56.9506 4.95734 56.6706 4.93567 56.3905 4.93567C54.775 4.93567 53.741 5.62901 53.3554 7.01569L53.3102 4.93567H51.3069C51.3715 5.69401 51.3715 6.27902 51.3715 6.64735V7.08069V15.8125Z"
      fill="white" />
    <path fill-rule="evenodd" clip-rule="evenodd"
      d="M59.6303 15.8125H61.6336V4.93567H59.6303V15.8125ZM59.458 2.4223H61.7844V0.21228H59.458V2.4223Z" fill="white" />
    <path fill-rule="evenodd" clip-rule="evenodd"
      d="M64.8433 12.5408V12.8008C64.8433 15.0758 66.2219 16.0725 69.2161 16.0725C71.9302 16.0725 73.5458 14.7075 73.5458 12.6925C73.5458 11.1541 72.7272 10.2224 71.047 9.76744L68.5914 9.09577C67.4713 8.79243 66.9974 8.40243 66.9974 7.68742C66.9974 6.82074 67.859 6.10574 69.1514 6.10574C70.4224 6.10574 71.2194 6.73408 71.2194 7.79576V7.88242H73.2011C73.2227 7.77409 73.2227 7.66575 73.2227 7.55742C73.2227 5.8024 71.7579 4.69739 69.3022 4.69739C66.5881 4.69739 64.9294 6.1274 64.9294 8.03409C64.9294 9.48577 65.8772 10.4175 67.7944 10.8725L70.0992 11.4141C70.9824 11.6308 71.3917 12.0858 71.3917 12.8441C71.3917 13.8408 70.5085 14.5558 69.1299 14.5558C67.7513 14.5558 66.8466 13.7758 66.8466 12.5841V12.5408H64.8433Z"
      fill="white" />
    <path fill-rule="evenodd" clip-rule="evenodd"
      d="M85.0205 12.1507H83.0796C83.0581 13.6241 82.1318 14.5558 80.7554 14.5558C78.9869 14.5558 78.0606 13.0608 78.0606 10.1357C78.0606 7.53569 79.1592 6.08401 80.7963 6.08401C82.0241 6.08401 82.9935 7.03735 82.9935 8.35903H84.9321V8.3157C84.9321 6.08401 83.3597 4.67566 80.9471 4.67566C77.8237 4.67566 75.9927 6.86402 75.9927 10.6124C75.9927 14.1008 77.7181 16.0725 80.7963 16.0725C83.3597 16.0725 84.846 14.7074 85.0205 12.1507Z"
      fill="white" />
    <path fill-rule="evenodd" clip-rule="evenodd"
      d="M90.0309 6.73402V0.21228H88.0276V15.8125H90.0309V8.74904C90.0309 7.29736 91.2156 6.27901 92.8958 6.27901C94.5976 6.27901 95.3084 7.16736 95.3084 8.94404V15.8125H97.2902V9.07405C97.2902 7.81736 97.2686 6.95069 96.7732 6.27901C96.1054 5.369 94.8561 4.80566 93.4128 4.80566C91.7972 4.80566 90.5048 5.58567 90.0309 6.73402Z"
      fill="white" />
    <path fill-rule="evenodd" clip-rule="evenodd"
      d="M109.954 12.3241H108.059C108.037 13.7108 107.046 14.5774 105.452 14.5774C103.557 14.5774 102.436 13.4291 102.436 11.3491V10.9157V10.6991H110.105C110.148 10.2441 110.148 9.81072 110.148 9.37738C110.148 6.47401 108.36 4.67566 105.431 4.67566C102.286 4.67566 100.457 6.69068 100.457 10.5907C100.457 14.1874 102.221 16.0725 105.581 16.0725C108.188 16.0725 109.933 14.5991 109.954 12.3241ZM102.544 9.29071C102.544 7.31902 103.772 6.04067 105.452 6.04067C106.982 6.04067 108.123 7.18902 108.123 9.05237V9.29071H102.544Z"
      fill="white" />
    <path fill-rule="evenodd" clip-rule="evenodd" d="M17.3133 91.1093L13.759 91.1115L13.1365 89.5493L17.3133 91.1093Z"
      fill="white" />
    <path fill-rule="evenodd" clip-rule="evenodd"
      d="M24.6501 86.1562C24.6501 86.544 24.5941 86.9211 24.4886 87.2829L21.8778 80.7135L14.7219 78.0268L17.5007 85.114L24.3679 87.6902C23.7992 89.7118 22.0717 91.1114 19.8745 91.1006L17.5007 85.114L10.3168 82.449L13.1365 89.5493L5.95046 86.8842L3.29015 80.226L3.288 79.8468L10.3168 82.449L7.51648 75.3553L3.28369 73.8017L3.29446 67.7632L4.686 68.2615L7.51648 75.3553L14.7219 78.0268L11.8807 70.9525L4.686 68.2615L4.35212 67.4252L10.5064 67.4403C10.711 67.982 11.8807 70.9525 11.8807 70.9525L19.0538 73.5872L16.611 67.436L18.8685 67.4338L23.4503 69.2105L24.6501 72.0142V75.6716L19.0538 73.5872L21.8778 80.7135L24.6501 81.7557V86.1562Z"
      fill="white" />
    <path fill-rule="evenodd" clip-rule="evenodd" d="M22.7393 67.4316H24.6499V69.6243L23.4501 69.2105L22.7393 67.4316Z"
      fill="white" />
    <path fill-rule="evenodd" clip-rule="evenodd"
      d="M7.61545 91.0573C5.19856 90.7388 3.29004 88.6761 3.26634 86.1693L3.25342 85.8638L5.95034 86.8843L7.61545 91.0573Z"
      fill="white" />
    <path fill-rule="evenodd" clip-rule="evenodd"
      d="M24.5661 86.113V67.4621L3.33757 67.4751L3.33542 86.113C3.31173 88.7585 5.60368 91.0379 8.2209 91.0422L19.9025 91.0574C22.3 91.0747 24.5597 89.064 24.5661 86.113ZM24.8936 86.1325C24.872 89.4302 22.4487 91.3975 19.7776 91.3975H8.21874C5.5886 91.391 2.99507 89.2547 2.99292 86.1476V67.1111H24.8936V86.1325Z"
      fill="white" />
    <path fill-rule="evenodd" clip-rule="evenodd"
      d="M1.60135 59.0618C1.33424 59.0748 1.21792 59.3067 1.21792 59.5602C1.21792 59.8332 1.43979 60.0563 1.71121 60.0563C1.76506 60.0563 2.43283 60.2925 2.43714 61.3693L2.43068 63.393L2.42852 64.784L2.43068 65.2434L2.43498 65.4059C2.43714 65.4384 2.48237 65.4146 2.48237 65.4622L25.4127 65.4146L25.4644 65.2434L25.4665 64.784V63.393L25.4601 61.3693C25.4644 60.3012 26.2485 60.0563 26.3066 60.0563C26.5802 60.0563 26.7999 59.8332 26.7999 59.5602C26.7999 59.2937 26.591 59.0748 26.3282 59.0618C26.3368 59.0272 26.3411 58.9903 26.3411 58.9513C26.3411 58.6783 26.1192 58.4551 25.8456 58.4551C25.5742 58.4551 25.3524 58.6783 25.3524 58.9513C25.3524 58.9903 25.3567 59.0272 25.3653 59.0618C25.1003 59.0727 24.8871 59.2915 24.8871 59.5602C24.8871 59.8332 25.1089 60.0563 25.3804 60.0563C25.4385 60.0563 25.4924 60.0477 25.5419 60.0303C25.4902 60.286 25.3588 60.4377 25.1176 60.5828C25.0809 60.3445 24.8763 60.1625 24.6286 60.1625C24.3636 60.1625 24.1482 60.3727 24.1353 60.637C24.1008 60.6305 24.0642 60.6262 24.0254 60.6262C23.7519 60.6262 23.53 60.8472 23.53 61.1223C23.53 61.3975 23.7519 61.6185 24.0254 61.6185C24.0642 61.6185 24.1008 61.6163 24.1353 61.6077C24.1439 61.8742 24.3615 62.0887 24.6286 62.0887C24.8181 62.0887 24.9818 61.9825 25.0659 61.8244C25.1822 62.2555 25.3545 62.8319 24.9366 63.1655C24.7901 63.2804 24.7169 63.3259 24.5079 63.3605C23.9694 63.4515 23.293 63.2782 23.1875 62.8449C23.1832 62.821 23.1832 62.8015 23.1918 62.782C23.2198 62.7907 23.2478 62.795 23.278 62.795C23.4611 62.795 23.6097 62.6455 23.6097 62.4614C23.6097 62.2794 23.4611 62.1299 23.278 62.1299C23.2866 62.0995 23.2952 62.0692 23.2952 62.0367C23.2952 61.8395 23.1358 61.6792 22.9398 61.6792C22.7459 61.6792 22.5865 61.8395 22.5865 62.0367C22.5865 62.0692 22.5908 62.0995 22.5994 62.1299C22.4206 62.1342 22.2785 62.2815 22.2785 62.4614C22.2785 62.6455 22.4271 62.795 22.608 62.795C22.6296 62.795 22.6511 62.7929 22.677 62.8384C22.5973 63.2977 22.076 63.3909 21.5848 63.3519C21.3048 63.328 21.1131 63.302 20.9128 63.198C20.2795 62.6759 20.3376 62.1429 20.7232 61.7225C20.7814 61.9327 20.9731 62.0887 21.1993 62.0887C21.4664 62.0887 21.6839 61.8742 21.6926 61.6077C21.7292 61.6163 21.7658 61.6185 21.8046 61.6185C22.076 61.6185 22.2979 61.3975 22.2979 61.1223C22.2979 60.8472 22.076 60.6262 21.8046 60.6262C21.7658 60.6262 21.7292 60.6305 21.6926 60.637C21.6818 60.3727 21.4642 60.1625 21.1993 60.1625C20.9515 60.1625 20.7469 60.3467 20.7103 60.6002C20.4647 60.4398 20.3441 60.286 20.2902 60.0282C20.3419 60.0477 20.3958 60.0563 20.4539 60.0563C20.7275 60.0563 20.9472 59.8332 20.9472 59.5602C20.9472 59.2937 20.7383 59.0748 20.4755 59.0618C20.4841 59.0272 20.4884 58.9903 20.4884 58.9513C20.4884 58.6783 20.2665 58.4551 19.993 58.4551C19.7194 58.4551 19.4997 58.6783 19.4997 58.9513C19.4997 58.9903 19.504 59.0272 19.5105 59.0618C19.2455 59.0727 19.0344 59.2915 19.0344 59.5602C19.0344 59.8332 19.2541 60.0563 19.5277 60.0563C19.5837 60.0563 19.6397 60.0477 19.6892 60.0303C19.6375 60.286 19.5061 60.4377 19.2649 60.5828C19.2283 60.3445 19.0236 60.1625 18.7759 60.1625C18.511 60.1625 18.2934 60.3727 18.2826 60.637C18.246 60.6305 18.2094 60.6262 18.1728 60.6262C17.8992 60.6262 17.6773 60.8472 17.6773 61.1223C17.6773 61.3975 17.8992 61.6185 18.1728 61.6185C18.2094 61.6185 18.246 61.6163 18.2826 61.6077C18.2912 61.8742 18.5088 62.0887 18.7759 62.0887C18.9892 62.0887 19.1701 61.9522 19.239 61.7637C19.588 62.1775 19.6246 62.6997 18.9353 63.1872C18.7953 63.2825 18.6661 63.328 18.47 63.3605C17.9358 63.4494 17.3434 63.2782 17.2379 62.8449C17.2314 62.821 17.2336 62.8015 17.24 62.782C17.268 62.7907 17.2982 62.795 17.3284 62.795C17.5093 62.795 17.6579 62.6455 17.6579 62.4614C17.6579 62.2794 17.5093 62.1299 17.3284 62.1299C17.337 62.0995 17.3434 62.0692 17.3434 62.0367C17.3434 61.8395 17.1862 61.6792 16.9902 61.6792C16.7941 61.6792 16.6347 61.8395 16.6347 62.0367C16.6347 62.0692 16.6391 62.0995 16.6477 62.1299C16.4689 62.1342 16.3267 62.2815 16.3267 62.4614C16.3267 62.6455 16.4753 62.795 16.6584 62.795C16.6778 62.795 16.6994 62.7929 16.7252 62.8384C16.6477 63.2977 16.1264 63.3909 15.6331 63.3519C15.3164 63.3259 15.1161 63.2955 14.8749 63.1482C14.3019 62.6434 14.3686 62.1299 14.7435 61.7225C14.8016 61.9327 14.9933 62.0887 15.2195 62.0887C15.4866 62.0887 15.7042 61.8742 15.7149 61.6077C15.7494 61.6163 15.786 61.6185 15.8248 61.6185C16.0962 61.6185 16.3181 61.3975 16.3181 61.1223C16.3181 60.8472 16.0962 60.6262 15.8248 60.6262C15.786 60.6262 15.7494 60.6305 15.7149 60.637C15.702 60.3727 15.4845 60.1625 15.2195 60.1625C14.9718 60.1625 14.7671 60.3467 14.7327 60.6002C14.485 60.4398 14.3643 60.286 14.3105 60.0282C14.3622 60.0477 14.416 60.0563 14.4742 60.0563C14.7478 60.0563 14.9675 59.8332 14.9675 59.5602C14.9675 59.2937 14.7585 59.0748 14.4957 59.0618C14.5044 59.0272 14.5087 58.9903 14.5087 58.9513C14.5087 58.6783 14.2868 58.4551 14.0132 58.4551C13.7418 58.4551 13.5199 58.6783 13.5199 58.9513C13.5199 58.9903 13.5242 59.0272 13.5329 59.0618C13.2679 59.0727 13.0546 59.2915 13.0546 59.5602C13.0546 59.8332 13.2744 60.0563 13.5479 60.0563C13.6061 60.0563 13.6599 60.0477 13.7095 60.0303C13.6578 60.286 13.5264 60.4377 13.2851 60.5828C13.2485 60.3445 13.0439 60.1625 12.7962 60.1625C12.5312 60.1625 12.3158 60.3727 12.3029 60.637C12.2684 60.6305 12.2318 60.6262 12.193 60.6262C11.9194 60.6262 11.6976 60.8472 11.6976 61.1223C11.6976 61.3975 11.9194 61.6185 12.193 61.6185C12.2296 61.6185 12.2684 61.6163 12.3029 61.6077C12.3115 61.8742 12.5291 62.0887 12.7962 62.0887C13.0094 62.0887 13.1904 61.9522 13.2614 61.7637C13.6082 62.1775 13.6449 62.6997 12.9513 63.1807C12.8069 63.2804 12.6777 63.328 12.4774 63.3605C11.941 63.4494 11.3486 63.2782 11.2431 62.8449C11.2388 62.821 11.2388 62.8015 11.2474 62.782C11.2754 62.7907 11.3034 62.795 11.3335 62.795C11.5166 62.795 11.6653 62.6455 11.6653 62.4614C11.6653 62.2794 11.5166 62.1299 11.3335 62.1299C11.3421 62.0995 11.3508 62.0692 11.3508 62.0367C11.3508 61.8395 11.1914 61.6792 10.9953 61.6792C10.7993 61.6792 10.6421 61.8395 10.6421 62.0367C10.6421 62.0692 10.6464 62.0995 10.655 62.1299C10.4762 62.1342 10.334 62.2815 10.334 62.4614C10.334 62.6455 10.4827 62.795 10.6636 62.795C10.6851 62.795 10.7067 62.7929 10.7325 62.8384C10.6528 63.2977 10.1315 63.3909 9.63826 63.3519C9.29361 63.3237 9.08035 63.289 8.80678 63.1005C8.29196 62.6109 8.36519 62.1169 8.72708 61.7225C8.78524 61.9327 8.97696 62.0887 9.20314 62.0887C9.47024 62.0887 9.68781 61.8742 9.69858 61.6077C9.73304 61.6163 9.76966 61.6185 9.80844 61.6185C10.082 61.6185 10.3017 61.3975 10.3017 61.1223C10.3017 60.8472 10.082 60.6262 9.80844 60.6262C9.76966 60.6262 9.73304 60.6305 9.69858 60.637C9.68565 60.3727 9.47024 60.1625 9.20314 60.1625C8.95542 60.1625 8.75078 60.3467 8.71631 60.6002C8.46859 60.4398 8.35012 60.286 8.29411 60.0282C8.34581 60.0477 8.39966 60.0563 8.45782 60.0563C8.73139 60.0563 8.95326 59.8332 8.95326 59.5602C8.95326 59.2937 8.74216 59.0748 8.47936 59.0618C8.48798 59.0272 8.49229 58.9903 8.49229 58.9513C8.49229 58.6783 8.27041 58.4551 7.99684 58.4551C7.72543 58.4551 7.50356 58.6783 7.50356 58.9513C7.50356 58.9903 7.50787 59.0272 7.51648 59.0618C7.25153 59.0727 7.03827 59.2915 7.03827 59.5602C7.03827 59.8332 7.26015 60.0563 7.53156 60.0563C7.58972 60.0563 7.64357 60.0477 7.69527 60.0303C7.64142 60.286 7.51002 60.4377 7.26876 60.5828C7.23214 60.3445 7.0275 60.1625 6.77978 60.1625C6.51483 60.1625 6.29942 60.3727 6.2865 60.637C6.25203 60.6305 6.21326 60.6262 6.17664 60.6262C5.90307 60.6262 5.6812 60.8472 5.6812 61.1223C5.6812 61.3975 5.90307 61.6185 6.17664 61.6185C6.21326 61.6185 6.25203 61.6163 6.2865 61.6077C6.29511 61.8742 6.51268 62.0887 6.77978 62.0887C6.99304 62.0887 7.17398 61.9522 7.24507 61.7637C7.59188 62.1775 7.6285 62.6997 6.93272 63.1742C6.82717 63.2479 6.65054 63.341 6.52776 63.3605C5.99139 63.4494 5.39901 63.2782 5.29346 62.8449C5.287 62.821 5.28915 62.8015 5.29777 62.782C5.32362 62.7907 5.35378 62.795 5.38393 62.795C5.56703 62.795 5.71351 62.6455 5.71351 62.4614C5.71351 62.2794 5.56703 62.1299 5.38393 62.1299C5.39255 62.0995 5.40117 62.0692 5.40117 62.0367C5.40117 61.8395 5.24176 61.6792 5.04574 61.6792C4.84972 61.6792 4.69247 61.8395 4.69247 62.0367C4.69247 62.0692 4.69678 62.0995 4.70324 62.1299C4.52661 62.1342 4.38444 62.2815 4.38444 62.4614C4.38444 62.6455 4.53091 62.795 4.71401 62.795C4.73555 62.795 4.75709 62.7929 4.78294 62.8384C4.70324 63.2977 4.18195 63.3909 3.68866 63.3519C3.37848 63.3259 3.22338 63.2197 3.0252 62.9987C2.71932 62.6585 2.75379 62.2902 2.86796 61.8287C2.94981 61.9825 3.11352 62.0887 3.30093 62.0887C3.56804 62.0887 3.7856 61.8742 3.79637 61.6077C3.83083 61.6163 3.86745 61.6185 3.90623 61.6185C4.17764 61.6185 4.39951 61.3975 4.39951 61.1223C4.39951 60.8472 4.17764 60.6262 3.90623 60.6262C3.86745 60.6262 3.83083 60.6305 3.79637 60.637C3.78344 60.3727 3.56804 60.1625 3.30093 60.1625C3.05536 60.1625 2.85072 60.3445 2.81195 60.5828C2.57285 60.4377 2.44145 60.286 2.38759 60.0303C2.43929 60.0477 2.49314 60.0563 2.55131 60.0563C2.82272 60.0563 3.04459 59.8332 3.04459 59.5602C3.04459 59.2915 2.83134 59.0727 2.56638 59.0618C2.575 59.0272 2.57931 58.9903 2.57931 58.9513C2.57931 58.6783 2.35744 58.4551 2.08387 58.4551C1.81245 58.4551 1.59058 58.6783 1.59058 58.9513C1.59058 58.9903 1.59489 59.0272 1.60135 59.0618ZM25.4601 86.1606V66.4372H2.44575V86.1238C2.44575 89.8765 5.65104 91.8807 8.04424 91.8915H20.1976C22.552 91.9132 25.4837 89.8505 25.4601 86.1606ZM5.03282 60.832L8.02269 57.6643L11.0018 60.8493L13.9572 57.6643L16.9665 60.8818L19.965 57.6665L22.9893 60.832L25.8736 57.647L27.528 59.2763L26.3152 60.5547L26.2765 86.1606C26.3152 89.974 23.2693 92.6802 20.3204 92.6932H7.83098C4.84757 92.6802 1.60566 89.974 1.61212 86.1606L1.55612 60.507L0.360596 59.2763L1.93524 57.6643L5.03282 60.832ZM25.6195 59.4258C25.6195 59.3327 25.697 59.259 25.7896 59.259C25.8844 59.259 25.9598 59.3327 25.9598 59.4258C25.9598 59.519 25.8844 59.5948 25.7896 59.5948C25.697 59.5948 25.6195 59.519 25.6195 59.4258ZM7.79867 61.0378C7.79867 60.9057 8.08732 60.8992 8.09378 61.0378V63.068C8.09378 63.1937 7.79867 63.1937 7.79867 63.068V61.0378ZM3.32032 64.5522H3.64989V64.2207H3.32032V64.5522ZM6.32527 64.5522H6.65485V64.2207H6.32527V64.5522ZM9.33238 64.5522H9.66196V64.2207H9.33238V64.5522ZM12.3373 64.5522H12.6669V64.2207H12.3373V64.5522ZM15.3423 64.5522H15.6719V64.2207H15.3423V64.5522ZM18.3472 64.5522H18.6768V64.2207H18.3472V64.5522ZM21.3544 64.5522H21.6839V64.2207H21.3544V64.5522ZM24.3593 64.5522H24.6889V64.2207H24.3593V64.5522ZM4.42106 64.7516H5.64458V64.0387H4.42106V64.7516ZM10.3814 64.7516H11.6049V64.0387H10.3814V64.7516ZM16.3956 64.7516H17.6192V64.0387H16.3956V64.7516ZM22.4077 64.7516H23.6312V64.0387H22.4077V64.7516ZM7.95592 63.7765L8.56552 64.3897L7.95592 65.0029L7.34631 64.3897L7.95592 63.7765ZM13.9529 63.7765L14.5647 64.3897L13.9529 65.0029L13.3433 64.3897L13.9529 63.7765ZM19.952 63.7765L20.5617 64.3897L19.952 65.0029L19.3403 64.3897L19.952 63.7765ZM13.8474 61.0378C13.8474 60.9057 14.1338 60.8992 14.1403 61.0378V63.068C14.1403 63.1937 13.8474 63.1937 13.8474 63.068V61.0378ZM19.8314 61.0378C19.8314 60.9057 20.1179 60.8992 20.1244 61.0378V63.068C20.1244 63.1937 19.8314 63.1937 19.8314 63.068V61.0378ZM24.4239 61.1678C24.4239 61.0747 24.4993 60.9988 24.5941 60.9988C24.6867 60.9988 24.7621 61.0747 24.7621 61.1678C24.7621 61.2632 24.6867 61.339 24.5941 61.339C24.4993 61.339 24.4239 61.2632 24.4239 61.1678ZM21.4448 61.1678C21.4448 61.2632 21.3694 61.339 21.2747 61.339C21.182 61.339 21.1066 61.2632 21.1066 61.1678C21.1066 61.0747 21.182 60.9988 21.2747 60.9988C21.3694 60.9988 21.4448 61.0747 21.4448 61.1678ZM18.9224 61.1678C18.9224 61.2632 18.847 61.339 18.7522 61.339C18.6596 61.339 18.5842 61.2632 18.5842 61.1678C18.5842 61.0747 18.6596 60.9988 18.7522 60.9988C18.847 60.9988 18.9224 61.0747 18.9224 61.1678ZM15.5146 61.1678C15.5146 61.2632 15.4392 61.339 15.3444 61.339C15.2518 61.339 15.1764 61.2632 15.1764 61.1678C15.1764 61.0747 15.2518 60.9988 15.3444 60.9988C15.4392 60.9988 15.5146 61.0747 15.5146 61.1678ZM12.8974 61.1678C12.8974 61.2632 12.822 61.339 12.7294 61.339C12.6346 61.339 12.5592 61.2632 12.5592 61.1678C12.5592 61.0747 12.6346 60.9988 12.7294 60.9988C12.822 60.9988 12.8974 61.0747 12.8974 61.1678ZM9.50255 61.1678C9.50255 61.2632 9.42716 61.339 9.33453 61.339C9.23975 61.339 9.16436 61.2632 9.16436 61.1678C9.16436 61.0747 9.23975 60.9988 9.33453 60.9988C9.42716 60.9988 9.50255 61.0747 9.50255 61.1678ZM6.80563 61.1678C6.80563 61.2632 6.73024 61.339 6.63546 61.339C6.54283 61.339 6.46744 61.2632 6.46744 61.1678C6.46744 61.0747 6.54283 60.9988 6.63546 60.9988C6.73024 60.9988 6.80563 61.0747 6.80563 61.1678ZM3.22123 61.1678C3.22123 61.0747 3.29662 60.9988 3.3914 60.9988C3.48403 60.9988 3.55942 61.0747 3.55942 61.1678C3.55942 61.2632 3.48403 61.339 3.3914 61.339C3.29662 61.339 3.22123 61.2632 3.22123 61.1678ZM1.89431 59.4258C1.89431 59.3327 1.9697 59.259 2.06448 59.259C2.15926 59.259 2.23465 59.3327 2.23465 59.4258C2.23465 59.519 2.15926 59.5948 2.06448 59.5948C1.9697 59.5948 1.89431 59.519 1.89431 59.4258ZM7.91714 59.259C8.01192 59.259 8.08732 59.3327 8.08732 59.4258C8.08732 59.519 8.01192 59.5948 7.91714 59.5948C7.82236 59.5948 7.74697 59.519 7.74697 59.4258C7.74697 59.3327 7.82236 59.259 7.91714 59.259ZM13.9874 59.259C14.0821 59.259 14.1575 59.3327 14.1575 59.4258C14.1575 59.519 14.0821 59.5948 13.9874 59.5948C13.8947 59.5948 13.8172 59.519 13.8172 59.4258C13.8172 59.3327 13.8947 59.259 13.9874 59.259ZM19.9283 59.259C20.021 59.259 20.0985 59.3327 20.0985 59.4258C20.0985 59.519 20.021 59.5948 19.9283 59.5948C19.8336 59.5948 19.7582 59.519 19.7582 59.4258C19.7582 59.3327 19.8336 59.259 19.9283 59.259Z"
      fill="white" />
  </symbol>
  <symbol id="bay-innovativ" viewBox="0 0 200 27">
    <path
      d="M8.57949 14.6096C8.57949 10.7996 6.88617 10.254 5.07055 10.254C4.13171 10.2515 3.20154 10.4337 2.33302 10.7902V17.3753C2.33302 18.6547 3.3302 19.2568 5.27752 19.2568C6.81091 19.2568 8.57949 18.7206 8.57949 14.5531M10.9313 14.5531C10.9313 20.4421 7.39417 21.3076 5.28692 21.3076C0.385701 21.3734 0 18.2032 0 17.2248V3.52771H2.33302V8.57004C3.22283 8.31329 4.14444 8.18344 5.07055 8.18434C7.73283 8.18434 10.9313 9.31322 10.9313 14.6096"
      fill="white" />
    <path
      d="M21.6368 15.127C20.8988 15.0174 20.1533 14.967 19.4072 14.9765C18.3066 14.9765 15.6443 15.3057 15.6443 17.1307C15.6443 18.5889 16.6885 19.3038 18.7111 19.3038C20.7337 19.3038 21.6368 18.6077 21.6368 17.1966V15.127ZM23.9886 13.5371V17.2248C23.9886 18.1655 23.6029 21.3734 18.6923 21.3734C13.7817 21.3734 13.2925 18.1467 13.2925 17.1495C13.2925 14.619 15.5408 13.1044 19.3038 13.1044C20.084 13.1002 20.8636 13.1505 21.6368 13.2549C21.5333 11.1571 20.6114 10.2352 18.109 10.2352C16.9027 10.2512 15.7074 10.4674 14.5719 10.8749V8.8805C15.8071 8.41339 17.1177 8.17742 18.4383 8.18435C21.9943 8.18435 23.998 10.0658 23.998 13.5371"
      fill="white" />
    <path
      d="M37.272 8.39136L31.985 22.5212C30.8562 25.5692 29.2193 26.2089 28.0151 26.2089C27.4137 26.2028 26.8146 26.1335 26.2277 26.0019V23.9041C26.6937 24.0334 27.1742 24.103 27.6577 24.111C28.9371 24.111 29.7555 22.5776 30.2165 21.1665L25.3999 8.39136H27.9117L31.383 17.968L34.8072 8.39136H37.272Z"
      fill="white" />
    <path
      d="M41.0443 13.9982H47.6295C47.4978 12.5118 46.8863 10.2823 44.3557 10.2823C42.2014 10.2823 41.2795 11.223 41.082 13.9982M49.1252 18.429V20.5551C47.6863 21.14 46.144 21.428 44.5909 21.4017C41.9004 21.4017 38.7019 20.2729 38.7019 14.9483C38.7019 13.2832 38.7019 8.19385 44.3463 8.19385C47.78 8.19385 49.9907 10.6209 49.9907 14.3651C49.9907 14.9922 49.9656 15.5817 49.9155 16.1336H41.0631C41.4206 18.7959 42.9446 19.3886 44.6756 19.3886C46.1976 19.436 47.7084 19.1131 49.0782 18.4478"
      fill="white" />
    <path
      d="M55.1929 21.1666H52.8411V9.47325C54.8097 8.64248 56.9227 8.20774 59.0593 8.19385V10.3481C57.7541 10.3772 56.4567 10.5572 55.1929 10.8843V21.1666Z"
      fill="white" />
    <path
      d="M61.2793 21.1665V9.49196C62.9735 8.64058 64.8396 8.18692 66.7356 8.16553C69.9623 8.16553 71.8814 9.96233 71.8814 12.9256V21.1665H69.5201V12.7751C69.5201 11.571 69.1909 10.3386 66.6227 10.3386C65.6078 10.339 64.599 10.4945 63.6311 10.7996V21.1477L61.2793 21.1665Z"
      fill="white" />
    <path d="M99.3132 8.39132H101.665V21.1665H99.3132V8.39132ZM101.74 6.41578H99.2285V3.94165H101.74V6.41578Z"
      fill="white" />
    <path
      d="M105.362 21.1665V9.49196C107.056 8.64058 108.923 8.18692 110.819 8.16553C114.045 8.16553 115.964 9.96233 115.964 12.9256V21.1665H113.613V12.7751C113.613 11.571 113.283 10.3386 110.715 10.3386C109.7 10.339 108.691 10.4945 107.724 10.7996V21.1477L105.362 21.1665Z"
      fill="white" />
    <path
      d="M119.567 21.1665V9.49196C121.262 8.64058 123.128 8.18692 125.024 8.16553C128.25 8.16553 130.169 9.96233 130.169 12.9256V21.1665H127.818V12.7751C127.818 11.571 127.488 10.3386 124.92 10.3386C123.905 10.339 122.897 10.4945 121.929 10.7996V21.1477L119.567 21.1665Z"
      fill="white" />
    <path
      d="M142.719 14.7978C142.719 10.8279 140.978 10.2917 139.059 10.2917C137.14 10.2917 135.4 10.8279 135.4 14.7978C135.4 18.7677 137.14 19.3039 139.059 19.3039C140.978 19.3039 142.719 18.7677 142.719 14.7978ZM145.07 14.7978C145.07 20.2258 141.797 21.3829 139.059 21.3829C136.322 21.3829 133.048 20.2352 133.048 14.7978C133.048 9.36034 136.322 8.21265 139.059 8.21265C141.797 8.21265 145.07 9.36034 145.07 14.7978Z"
      fill="white" />
    <path d="M158.448 8.39136L153.537 21.1665H151.129L146.237 8.39136H148.749L152.333 18.3537L155.936 8.39136H158.448Z"
      fill="white" />
    <path
      d="M168.184 15.127C167.446 15.0174 166.701 14.9671 165.955 14.9765C164.854 14.9765 162.192 15.3057 162.192 17.1307C162.192 18.5889 163.236 19.3038 165.259 19.3038C167.281 19.3038 168.203 18.6077 168.203 17.206L168.184 15.127ZM170.536 13.5371V17.2248C170.536 18.1655 170.151 21.3734 165.24 21.3734C160.329 21.3734 159.84 18.1467 159.84 17.1495C159.84 14.619 162.088 13.1044 165.851 13.1044C166.632 13.1002 167.411 13.1505 168.184 13.2549C168.081 11.1571 167.159 10.2352 164.657 10.2352C163.45 10.2512 162.255 10.4674 161.119 10.8749V8.8805C162.355 8.41339 163.665 8.17742 164.986 8.18435C168.542 8.18435 170.546 10.0658 170.546 13.5371"
      fill="white" />
    <path
      d="M176.858 10.3481V17.7705C176.858 18.8712 177.573 19.2757 178.739 19.2757C179.261 19.287 179.775 19.1535 180.226 18.89V20.9878C179.65 21.2244 179.033 21.3458 178.41 21.3453C177.899 21.3856 177.385 21.317 176.902 21.1442C176.419 20.9714 175.978 20.6983 175.608 20.3428C175.238 19.9873 174.948 19.5575 174.757 19.0817C174.565 18.6059 174.476 18.0949 174.497 17.5824V10.3481H172.267V8.39139H174.497V4.58142H176.858V8.39139H180.263V10.3481H176.858Z"
      fill="white" />
    <path d="M182.879 8.39132H185.23V21.1665H182.879V8.39132ZM185.325 6.42519H182.813V3.94165H185.325V6.42519Z"
      fill="white" />
    <path d="M200 8.39136L195.08 21.1665H192.681L187.789 8.39136H190.292L193.876 18.3537L197.488 8.39136H200Z"
      fill="white" />
    <path
      d="M86.8673 26.0583C89.6895 22.4271 93.65 16.5663 93.65 13.0292C93.65 9.492 89.6424 3.63123 86.8673 0H82.4082C85.174 3.61242 89.2003 9.52023 89.2003 13.0292C89.2003 16.5381 85.174 22.4365 82.4082 26.0583H86.8673Z"
      fill="#C2C2C2" />
    <path
      d="M81.9942 13.0291C81.9942 11.6463 82.935 9.37909 84.6377 6.58511C83.998 5.53149 83.2548 4.40261 82.4082 3.21729C79.3226 7.54466 77.5352 11.1289 77.5352 13.0291C77.5352 14.9294 79.3696 18.5512 82.4082 22.841C83.2548 21.6557 83.998 20.5174 84.6377 19.4543C82.9538 16.6321 81.9942 14.3838 81.9942 13.0291Z"
      fill="white" />
  </symbol>
  <symbol id="tum-venture-labs" viewBox="0 0 200 31">
    <path fill-rule="evenodd" clip-rule="evenodd"
      d="M120.87 0.749662L117.841 10.1745H117.807L114.822 0.749662H111.777L116.141 14.1571H119.469H119.46L123.915 0.749662H120.87ZM124.786 0.749662V14.1571H134.971V11.6751H127.736V8.3877H134.238V6.1007H127.736V3.22857H134.82V0.749662H124.786ZM145.245 0.749662V9.7404H145.21L139.606 0.749662H136.678V14.1571H139.442V5.17897H139.48L145.059 14.1571H148.009V0.749662H145.245ZM149.274 0.752493V3.22825H153.295V14.1568H156.245V3.22825H160.265V0.752493H149.274ZM172.911 9.09048C172.911 10.9056 172.401 12.2583 171.387 13.1423C170.373 14.0294 168.969 14.4761 167.174 14.4761C165.38 14.4761 163.953 14.0357 162.952 13.1517C161.961 12.2646 161.457 10.9119 161.457 9.08419V0.744629H164.407V9.08419C164.407 9.44596 164.435 9.80773 164.501 10.1538C164.564 10.4998 164.69 10.8207 164.898 11.0944C165.096 11.3712 165.38 11.5914 165.732 11.755C166.088 11.9186 166.57 11.9972 167.174 11.9972C168.223 11.9972 168.953 11.7613 169.35 11.2957C169.756 10.827 169.954 10.0908 169.954 9.09048V0.750921H172.905V9.09048H172.911ZM175.166 0.750606H182.401C183.003 0.750606 183.541 0.851272 184.023 1.04002C184.508 1.23192 184.917 1.50246 185.266 1.8422C185.613 2.18195 185.874 2.57203 186.053 3.02503C186.236 3.47803 186.321 3.95305 186.321 4.45009C186.321 5.23654 186.157 5.92233 185.824 6.49801C185.493 7.07055 184.951 7.51097 184.202 7.80667V7.84442C184.564 7.94194 184.866 8.09923 185.103 8.30371C185.336 8.50819 185.534 8.75671 185.682 9.04927C185.833 9.33868 185.946 9.64383 186.009 9.97729C186.082 10.3107 186.123 10.6411 186.151 10.9839C186.167 11.1947 186.179 11.4432 186.186 11.7327C186.201 12.0252 186.223 12.3146 186.252 12.604C186.28 12.8966 186.337 13.186 186.4 13.4628C186.469 13.7397 186.57 13.9725 186.711 14.1581H183.761C183.676 13.9442 183.604 13.7114 183.563 13.4566C183.519 13.2017 183.478 12.9312 183.45 12.6481C183.421 12.365 183.393 12.0818 183.371 11.783C183.349 11.4873 183.321 11.2104 183.286 10.9462C183.188 10.2447 182.974 9.73506 182.647 9.41104C182.322 9.08387 181.79 8.92029 181.054 8.92029H178.104V14.1581H175.15V0.750606H175.166ZM178.116 6.81574H181.35C182.017 6.81574 182.521 6.66789 182.861 6.36274C183.207 6.06389 183.377 5.57629 183.377 4.89679C183.377 4.21415 183.207 3.77059 182.861 3.47803C182.515 3.18861 182.011 3.04076 181.35 3.04076H178.116V6.81574ZM188.372 0.749662V14.1571H198.557V11.6751H191.322V8.3877H197.824V6.1007H191.322V3.22857H198.406V0.749662H188.372ZM153.295 16.6074V30.0149H162.784V27.5328H156.245V16.6074H153.295ZM168.271 16.5451L163.183 29.9526H166.164L167.216 26.9672H172.235L173.251 29.9526H176.315L171.293 16.5451H168.271ZM169.732 19.8545H169.769L171.457 24.7714H167.987L169.732 19.8545ZM176.975 16.6087H183.287C183.923 16.6087 184.506 16.6653 185.031 16.7785C185.557 16.8918 186.011 17.0774 186.385 17.3322C186.76 17.587 187.053 17.9268 187.257 18.3514C187.462 18.7761 187.569 19.3015 187.569 19.9306C187.569 20.5976 187.415 21.1575 187.103 21.6105C186.788 22.0635 186.335 22.441 185.746 22.7304C186.577 22.9727 187.194 23.3816 187.597 23.9793C188.004 24.5739 188.208 25.288 188.208 26.1248C188.208 26.798 188.073 27.3862 187.811 27.8833C187.547 28.3772 187.194 28.783 186.747 29.0944C186.3 29.4058 185.796 29.6386 185.223 29.7896C184.654 29.9375 184.065 30.0161 183.463 30.0161H176.959V16.6087H176.975ZM179.925 22.0352H182.909C183.435 22.0352 183.866 21.9094 184.21 21.6608C184.55 21.4123 184.71 21.0034 184.71 20.4434C184.71 20.132 184.654 19.874 184.54 19.6695C184.427 19.4714 184.279 19.3141 184.087 19.2008C183.895 19.0876 183.684 19.0121 183.441 18.968C183.202 18.9271 182.947 18.9051 182.683 18.9051H179.918V22.0352H179.925ZM179.925 27.726H183.079C183.372 27.726 183.64 27.6977 183.911 27.641C184.172 27.5844 184.408 27.4932 184.606 27.3579C184.805 27.2227 184.968 27.0465 185.088 26.82C185.208 26.5935 185.264 26.3104 185.264 25.9549C185.264 25.2691 185.072 24.7721 184.682 24.4826C184.295 24.1901 183.781 24.0422 183.145 24.0422H179.931V27.7197L179.925 27.726ZM191.328 25.5654C191.328 26.0184 191.407 26.3959 191.571 26.7137C191.731 27.0251 191.945 27.2799 192.216 27.4718C192.484 27.6637 192.795 27.8115 193.158 27.9028C193.513 27.9971 193.894 28.0443 194.294 28.0443C194.555 28.0443 194.839 28.0255 195.138 27.9814C195.434 27.9405 195.717 27.8556 195.982 27.7266C196.243 27.5976 196.463 27.4278 196.64 27.2107C196.816 26.9905 196.901 26.7137 196.901 26.3739C196.901 26.0121 196.788 25.7133 196.555 25.4868C196.322 25.2603 196.023 25.0684 195.642 24.9143C195.258 24.757 194.839 24.6217 194.363 24.5179C193.888 24.4109 193.406 24.2914 192.918 24.1467C192.415 24.0208 191.923 23.873 191.448 23.6874C190.973 23.5049 190.547 23.269 190.173 22.9859C189.795 22.6964 189.493 22.341 189.257 21.9163C189.024 21.4916 188.91 20.9663 188.91 20.3371C188.91 19.6482 189.058 19.0473 189.351 18.544C189.647 18.0344 190.031 17.616 190.507 17.2762C190.982 16.9333 191.52 16.6879 192.122 16.5244C192.726 16.3608 193.328 16.2821 193.923 16.2821C194.625 16.2821 195.298 16.3608 195.944 16.5181C196.589 16.6722 197.166 16.927 197.66 17.2762C198.164 17.6285 198.563 18.0752 198.853 18.6132C199.143 19.1511 199.294 19.818 199.294 20.5982H196.435C196.407 20.1955 196.322 19.8684 196.18 19.6073C196.038 19.343 195.846 19.1385 195.604 18.9812C195.365 18.8334 195.094 18.7264 194.776 18.6635C194.464 18.6006 194.13 18.5723 193.781 18.5723C193.542 18.5723 193.306 18.6006 193.066 18.6509C192.824 18.6981 192.613 18.7831 192.421 18.912C192.229 19.0379 192.065 19.1952 191.939 19.3933C191.81 19.5852 191.747 19.8243 191.747 20.0949C191.747 20.3654 191.797 20.5699 191.895 20.7335C191.996 20.897 192.194 21.0449 192.484 21.1707C192.777 21.2997 193.186 21.4413 193.705 21.5828C194.222 21.7244 194.902 21.91 195.746 22.1145C195.909 22.1491 196.123 22.2057 196.385 22.2781C196.646 22.3473 196.923 22.4416 197.222 22.5612C197.518 22.6807 197.811 22.8317 198.107 23.0205C198.406 23.2061 198.667 23.4389 198.916 23.7157C199.158 23.9925 199.357 24.3197 199.505 24.7003C199.653 25.0841 199.731 25.5214 199.731 26.0247C199.731 26.6413 199.612 27.2107 199.379 27.7329C199.143 28.2583 198.79 28.7113 198.315 29.095C197.846 29.4757 197.263 29.7745 196.57 29.9947C195.875 30.2149 195.066 30.3188 194.149 30.3188C193.413 30.3188 192.698 30.2275 192.002 30.0356C191.306 29.8469 190.699 29.5606 190.173 29.1737C189.647 28.7836 189.222 28.2866 188.904 27.692C188.583 27.088 188.429 26.3739 188.441 25.5497H191.3L191.328 25.5654ZM75.7535 0.749662H73.1214V24.768H67.1142V0.749662H45.3332V6.00003H50.5911V30.0152H55.8459V6.00003H61.8531V30.0152H78.373V6.00003H84.3803V30.0152H89.6382V6.00003H95.6454V30.0152H100.9V0.749662H75.7535ZM34.8092 30.0142H35.5869V0.75501H34.8092V30.0142ZM7.28423 1.08784V18.4496C7.29683 20.0571 7.75021 21.2903 8.65066 22.1365C9.55112 22.9827 10.716 23.4168 12.1517 23.4263V30.0828C10.4453 30.1048 8.74826 29.8406 7.12366 29.3027C5.70371 28.8308 4.39081 28.0538 3.29515 27.0282C2.23413 26.0027 1.40294 24.7633 0.867699 23.3822C0.266346 21.803 -0.0264598 20.1263 0.00187626 18.4433V1.08784H7.28423ZM12.1376 16.7455C13.844 16.7266 15.5442 16.9877 17.1656 17.5288C18.5887 18.0007 19.8985 18.7746 20.9941 19.8001C22.0552 20.8256 22.8864 22.0682 23.4216 23.4461H23.4436C23.9726 24.8498 24.2552 26.3306 24.2872 27.831L24.2874 29.6968H16.9988V28.3945C16.9925 26.7995 16.5359 25.5664 15.6418 24.7076C14.7476 23.8488 13.5733 23.4178 12.1376 23.4178V16.7455ZM24.2824 1.07809L24.3044 17.4584H17.0158V1.07809H24.2824Z"
      fill="white" />
  </symbol>
</svg>