<svg xmlns="http://www.w3.org/2000/svg" viewBox="0 0 128 128">
    <path class="background"
        d="M64 128C99.3462 128 128 99.3462 128 64C128 28.6538 99.3462 0 64 0C28.6538 0 0 28.6538 0 64C0 99.3462 28.6538 128 64 128Z"/>
    <path class="content"
        d="M15.8604 45.3333L30.9751 45.38C38.052 45.402 43.261 48.1869 43.2405 54.7785C43.2271 59.1381 40.0776 61.8972 36.4584 62.9502C41.1349 64.132 44.2144 67.2823 44.1995 72.0762C44.1745 80.1655 37.193 82.6443 29.8061 82.6214L15.7555 82.5779L15.8707 45.3333H15.8604ZM30.1736 60.6991C34.8019 60.7134 37.1533 58.7475 37.1637 55.4001C37.1731 52.3627 35.206 50.342 30.371 50.327L21.703 50.3002L21.6708 60.6728L30.1736 60.6991ZM30.3381 77.6226C35.6589 77.639 38.1137 75.5699 38.1259 71.6337C38.1376 67.8526 36.0162 65.6659 30.272 65.6482L21.6555 65.6215L21.6186 77.5955L30.3381 77.6226Z"/>
    <path class="content"
        d="M83.3495 70.2101L89.4655 70.2291C89.7695 75.4991 93.1592 78.5367 98.17 78.5523C102.798 78.5666 106.101 76.2935 106.112 72.6155C106.122 69.4231 103.678 67.9795 99.2701 66.9018L94.862 65.7724C89.2772 64.3706 84.7106 61.0607 84.7287 55.203C84.7479 48.973 90.5578 44.4762 97.9549 44.4992C105.879 44.5237 111.134 49.22 111.535 56.2982L105.471 56.2795C105.214 52.3424 102.299 49.513 97.7226 49.4989C93.8896 49.4869 90.7426 51.5539 90.7327 54.6946C90.7231 57.7837 92.9506 59.175 97.1519 60.3038L101.931 61.5377C107.785 63.0434 112.187 66.0945 112.168 72.0557C112.148 78.5438 106.492 83.5268 97.9788 83.5004C89.2179 83.4835 83.6964 78.3008 83.3495 70.2101Z"/>
    <path class="content" d="M48.7812 63.8895H78.7458" stroke-width="6" />
    <style>
        .background {
            fill: #CDCDCD;
        }

        .content {
            fill: #000;
            stroke: #000;
        }

        @media (prefers-color-scheme: dark) {
            .background {
                fill: #333333;
            }

            .content {
                fill: #CDCDCD;
                stroke: #CDCDCD;
            }
        }
    </style>
</svg>