<svg xmlns="http://www.w3.org/2000/svg" fill="none" viewBox="0 0 128 128">
    <path
        d="M0.139291 39.1075L20.2059 39.1695C29.6014 39.1987 36.5169 42.896 36.4897 51.6471C36.4719 57.4351 32.2906 61.098 27.4857 62.496C33.6943 64.0651 37.7826 68.2475 37.7628 74.6119C37.7297 85.3515 28.4608 88.6423 18.6539 88.612L0 88.5542L0.153 39.1075H0.139291ZM19.1419 59.5074C25.2864 59.5264 28.4082 56.9165 28.422 52.4724C28.4345 48.4398 25.8229 45.7571 19.4038 45.7373L7.89608 45.7016L7.85332 59.4726L19.1419 59.5074ZM19.3602 81.9755C26.4242 81.9973 29.6832 79.2503 29.6994 74.0245C29.715 69.0046 26.8986 66.1015 19.2724 66.078L7.83292 66.0426L7.78393 81.9395L19.3602 81.9755Z" />
    <path
        d="M89.7391 72.1345L97.8589 72.1597C98.2625 79.1562 102.763 83.1891 109.415 83.2098C115.56 83.2287 119.945 80.211 119.96 75.3279C119.973 71.0897 116.728 69.1731 110.876 67.7422L105.023 66.2428C97.6088 64.3818 91.5461 59.9875 91.5702 52.2107C91.5957 43.9396 99.3091 37.9695 109.13 38.0001C119.65 38.0327 126.626 44.2676 127.159 53.6648L119.108 53.6399C118.768 48.4129 114.897 44.6565 108.821 44.6378C103.732 44.6219 99.5543 47.3661 99.5413 51.5358C99.5286 55.6369 102.486 57.4841 108.064 58.9826L114.409 60.6208C122.18 62.6198 128.024 66.6705 128 74.5847C127.973 83.1984 120.463 89.814 109.161 89.7789C97.5301 89.7565 90.1997 82.8758 89.7391 72.1345Z" />
    <path d="M43.8458 63.7431H83.6275" stroke-width="6" />
    <style>
        path {
            fill: #000;
            stroke: #000;
        }

        @media (prefers-color-scheme: dark) {
            path {
                fill: #CDCDCD;
                stroke: #CDCDCD;
            }
        }
    </style>
</svg>