<?xml version="1.0" encoding="UTF-8"?>
<svg id="Ebene_1" data-name="Ebene 1" xmlns="http://www.w3.org/2000/svg" version="1.1" viewBox="0 0 1122.5 680.3">
  <defs>
    <style>
      .cls-1 {
        fill: #fffdf0;
      }

      .cls-1, .cls-2, .cls-3, .cls-4 {
        stroke-width: 0px;
      }

      .cls-5 {
        fill: none;
        stroke: #fff;
        stroke-linejoin: round;
      }

      .cls-2 {
        fill: #000;
        fill-opacity: 0;
      }

      .cls-2, .cls-3 {
        fill-rule: evenodd;
      }

      .cls-3 {
        fill: #222;
      }

      .cls-4 {
        fill: #fff;
      }
    </style>
  </defs>
  <path class="cls-2" d="M952,7.6h154.6v42.8h-154.6V7.6Z"/>
  <path class="cls-1" d="M1053.2,22.6c.8,0,1.4.2,1.9.7.5.4.8,1,.8,1.8s-.2,1.1-.5,1.6c-.3.5-1,1-2.1,1.6-.7.4-1.1.7-1.4,1-.3.3-.4.6-.5.9h4.4v.9h-5.6c0-.7.2-1.3.5-1.9.3-.5.9-1,1.7-1.5,1-.6,1.6-1.1,1.9-1.4.3-.3.4-.8.4-1.2s-.2-.8-.5-1.1c-.3-.3-.7-.4-1.2-.4s-.9.2-1.2.6c-.3.4-.4.9-.4,1.5h0c0,0-1,0-1,0v-.2c0-.8.2-1.5.7-2,.5-.5,1.2-.8,2-.8ZM1059.9,22.6c.5,0,.9,0,1.2.2.4.2.7.4.9.7.5.6.7,1.8.7,3.4s0,1.5-.2,2.1c-.1.6-.3,1-.5,1.3-.2.3-.5.5-.9.7-.4.2-.8.2-1.2.2-.9,0-1.6-.3-2.1-.9-.5-.6-.7-1.8-.7-3.4s.2-2.8.7-3.4c.5-.6,1.2-1,2.1-1ZM1058.2,26.9c0,.7,0,1.2.1,1.7,0,.4.2.8.3,1,.3.5.7.7,1.3.7s1.1-.3,1.4-.8c.1-.3.2-.6.3-1,0-.4,0-.9,0-1.5s0-.4,0-.7c0-.2,0-.5,0-.8,0-.3,0-.5-.2-.8,0-.2-.2-.5-.3-.7-.1-.2-.3-.3-.5-.5-.2-.1-.4-.2-.8-.2s-.5,0-.7.2c-.2.1-.4.3-.5.5-.3.5-.5,1.4-.5,2.7ZM1066.6,22.6c.8,0,1.4.2,1.9.7.5.4.8,1,.8,1.8s-.2,1.1-.5,1.6c-.3.5-1,1-2.1,1.6-.7.4-1.1.7-1.4,1-.3.3-.4.6-.5.9h4.4v.9h-5.6c0-.7.2-1.3.5-1.9.3-.5.9-1,1.7-1.5,1-.6,1.6-1.1,1.9-1.4.3-.3.4-.8.4-1.2s-.2-.8-.5-1.1c-.3-.3-.7-.4-1.2-.4s-.9.2-1.2.6c-.3.4-.4.9-.4,1.5h0c0,0-1,0-1,0v-.2c0-.8.2-1.5.7-2,.5-.5,1.2-.8,2-.8ZM1075,22.6v5.6h1.2v.9h-1.2v2h-1v-2h-3.7v-1l3.9-5.5h.8ZM1074,24.1l-2.8,4.2h2.8v-4.2h0ZM1080.7,27.3v1h-3.5v-1h3.5ZM1084.6,22.6c.5,0,.9,0,1.2.2.4.2.7.4.9.7.5.6.7,1.8.7,3.4s0,1.5-.2,2.1c-.1.6-.3,1-.5,1.3-.2.3-.5.5-.9.7-.4.2-.8.2-1.2.2-.9,0-1.6-.3-2.1-.9-.5-.6-.7-1.8-.7-3.4s.2-2.8.7-3.4c.5-.6,1.2-1,2.1-1ZM1082.9,26.9c0,.7,0,1.2.1,1.7,0,.4.2.8.3,1,.3.5.7.7,1.3.7s1.1-.3,1.4-.8c.1-.3.2-.6.3-1,0-.4,0-.9,0-1.5s0-.4,0-.7c0-.2,0-.5,0-.8,0-.3,0-.5-.2-.8,0-.2-.2-.5-.3-.7-.1-.2-.3-.3-.5-.5-.2-.1-.4-.2-.8-.2s-.5,0-.7.2c-.2.1-.4.3-.5.5-.3.5-.5,1.4-.5,2.7ZM1091.2,22.6c.8,0,1.4.2,1.9.6.5.4.7,1,.7,1.7s0,.7-.3,1c-.2.3-.5.5-.9.7h0c.5.1.9.4,1.1.7.3.4.4.8.4,1.3,0,.8-.3,1.4-.8,1.9-.5.5-1.2.7-2.1.7s-1.5-.2-2.1-.7c-.5-.5-.8-1.2-.8-2h0s1,0,1,0c0,.6.2,1.1.5,1.4.3.3.8.5,1.3.5s1-.2,1.3-.5c.4-.3.5-.7.5-1.2s-.2-.9-.5-1.2c-.3-.3-.8-.4-1.3-.4s-.2,0-.3,0c0,0-.2,0-.3,0v-.9c0,0,.2,0,.4,0,.4,0,.7,0,.9-.2.2-.1.4-.3.5-.5.1-.2.2-.4.2-.7,0-.4-.1-.8-.4-1-.3-.2-.6-.4-1.1-.4s-.9.2-1.2.5c-.3.3-.4.8-.5,1.4h-1c0-.9.3-1.6.8-2,.5-.5,1.1-.7,1.9-.7Z"/>
  <path class="cls-3" d="M0,0h1122.5v680.3H0V0Z"/>
  <path class="cls-2" d="M42.9,108.5h0c0-8.8,7.2-16,16-16h1004.8c4.2,0,8.3,1.7,11.3,4.7,3,3,4.7,7.1,4.7,11.3v92.7c0,8.8-7.2,16-16,16H58.8c-8.8,0-16-7.2-16-16v-92.7Z"/>
  <path class="cls-5" d="M42.9,108.5h0c0-8.8,7.2-16,16-16h1004.8c4.2,0,8.3,1.7,11.3,4.7,3,3,4.7,7.1,4.7,11.3v92.7c0,8.8-7.2,16-16,16H58.8c-8.8,0-16-7.2-16-16v-92.7Z"/>
  <path class="cls-2" d="M751,414.7h0c0-90.8,73.6-164.3,164.3-164.3h0c43.6,0,85.4,17.3,116.2,48.1,30.8,30.8,48.1,72.6,48.1,116.2h0c0,90.8-73.6,164.3-164.3,164.3h0c-90.8,0-164.3-73.6-164.3-164.3Z"/>
  <path class="cls-5" d="M751,414.7h0c0-90.8,73.6-164.3,164.3-164.3h0c43.6,0,85.4,17.3,116.2,48.1,30.8,30.8,48.1,72.6,48.1,116.2h0c0,90.8-73.6,164.3-164.3,164.3h0c-90.8,0-164.3-73.6-164.3-164.3Z"/>
  <path class="cls-2" d="M42.9,414.7h0c0-90.8,73.6-164.3,164.3-164.3h0c43.6,0,85.4,17.3,116.2,48.1,30.8,30.8,48.1,72.6,48.1,116.2h0c0,90.8-73.6,164.3-164.3,164.3h0c-90.8,0-164.3-73.6-164.3-164.3Z"/>
  <path class="cls-5" d="M42.9,414.7h0c0-90.8,73.6-164.3,164.3-164.3h0c43.6,0,85.4,17.3,116.2,48.1,30.8,30.8,48.1,72.6,48.1,116.2h0c0,90.8-73.6,164.3-164.3,164.3h0c-90.8,0-164.3-73.6-164.3-164.3Z"/>
  <path class="cls-2" d="M751,355.2h328.6v119.1h-328.6v-119.1Z"/>
  <path class="cls-4" d="M803.6,396.6c1.3,0,2.4.3,3.4.9,1,.6,1.7,1.4,2.2,2.5.5,1.1.8,2.3.8,3.6s-.3,2.5-.8,3.6c-.5,1.1-1.2,1.9-2.2,2.5s-2.1.9-3.4.9-2.4-.3-3.4-.9c-1-.6-1.7-1.4-2.2-2.5-.5-1.1-.8-2.3-.8-3.6,0-2,.6-3.7,1.7-5,1.2-1.3,2.7-2,4.7-2ZM798.9,403.6c0,1,.2,1.9.5,2.8.4.9.9,1.5,1.6,2,.7.5,1.5.7,2.5.7,1.4,0,2.6-.5,3.4-1.5s1.2-2.3,1.2-3.9-.4-2.9-1.2-3.9c-.8-1-1.9-1.6-3.4-1.6s-2.5.5-3.4,1.6c-.8,1-1.2,2.3-1.2,3.9ZM802.6,393.5v1.9h-1.7v-1.9h1.7ZM806.2,393.5v1.9h-1.7v-1.9h1.7ZM813.5,396.9v7.9l4.4-4.2h2.1l-3.8,3.5,4.1,6.1h-2l-3.3-5-1.5,1.4v3.7h-1.6v-13.3h1.6ZM825.5,400.4c1.5,0,2.6.5,3.4,1.4.8.9,1.2,2.2,1.2,3.6s-.4,2.7-1.3,3.7c-.8.9-2,1.4-3.4,1.4s-2.5-.5-3.4-1.4c-.9-.9-1.3-2.1-1.3-3.7s.4-2.8,1.3-3.7c.8-.9,2-1.4,3.4-1.4ZM822.4,405.4c0,1.1.3,2,.8,2.7.6.7,1.3,1,2.2,1s1.6-.3,2.1-1c.6-.7.9-1.6.9-2.7s-.3-2-.8-2.6c-.6-.7-1.3-1-2.2-1s-1.6.3-2.1,1c-.6.7-.9,1.5-.9,2.7ZM836.7,400.4c1.2,0,2,.3,2.5.9.5.6.8,1.4.8,2.5v6.4h-1.6v-6.6c0-.5-.2-1-.5-1.3-.3-.4-.8-.5-1.4-.5-.9,0-1.6.3-2.1.8-.5.5-.8,1.2-.8,2.1v5.5h-1.6v-9.6h1.5v1.5h0c.4-.6.8-1,1.3-1.3.5-.3,1.1-.4,1.8-.4ZM846.5,400.4c1.5,0,2.6.5,3.4,1.4.8.9,1.3,2.2,1.2,3.6,0,1.5-.4,2.7-1.3,3.7-.8.9-2,1.4-3.4,1.4s-2.5-.5-3.4-1.4c-.9-.9-1.3-2.1-1.3-3.7,0-1.5.4-2.8,1.3-3.7.8-.9,2-1.4,3.4-1.4ZM843.5,405.4c0,1.1.3,2,.8,2.7.6.7,1.3,1,2.2,1s1.6-.3,2.1-1c.6-.7.9-1.6.9-2.7,0-1.1-.3-2-.8-2.6-.6-.7-1.3-1-2.2-1s-1.6.3-2.1,1c-.6.7-.9,1.5-.9,2.7ZM857.7,400.4c.7,0,1.3.1,1.7.4s.8.7.9,1.2c.3-.5.8-.9,1.3-1.2.5-.3,1.1-.4,1.8-.4,1.1,0,1.9.2,2.4.7.5.5.8,1.2.8,2v7.1h-1.6v-6.4c0-.7-.2-1.2-.5-1.6-.3-.3-.8-.5-1.4-.5s-1.4.2-1.9.7c-.4.5-.7,1-.7,1.7v6.1h-1.6v-6.4c0-.7-.1-1.2-.4-1.6s-.7-.5-1.4-.5-1,.1-1.3.4c-.4.2-.7.6-.9,1-.2.4-.3.8-.3,1.1v6h-1.6v-9.6h1.5v1.4h0c.4-.6.8-1,1.3-1.2.5-.3,1.1-.4,1.8-.4ZM870.7,396.9v1.9h-1.6v-1.9h1.6ZM870.7,400.6v9.6h-1.6v-9.6h1.6ZM876.4,400.4c1.3,0,2.3.2,2.9.8.6.5,1,1.3,1,2.3h-1.6c0-.5-.3-.9-.7-1.2-.4-.3-.9-.4-1.6-.4s-1.1.1-1.5.3c-.4.2-.5.5-.5.9s.2.6.5.9c.3.2.8.4,1.5.5l1.5.3c.9.2,1.6.5,2.1,1,.5.4.7,1,.7,1.7s-.4,1.7-1.1,2.2c-.7.5-1.7.8-3,.8s-2.2-.3-3-.8c-.7-.6-1.1-1.4-1.1-2.5h1.6c0,.6.3,1.1.7,1.4.5.3,1.1.5,1.9.5s1.4-.1,1.8-.4c.4-.2.6-.6.6-1.1s-.2-.8-.6-1c-.4-.2-1.2-.5-2.4-.7-1.2-.2-2.1-.6-2.6-1-.5-.4-.7-1-.7-1.7s.3-1.5,1-2c.7-.5,1.6-.7,2.6-.7ZM886.5,400.4c1.2,0,2.1.3,2.9.8.7.6,1.2,1.4,1.3,2.5h-1.6c-.1-.6-.4-1.1-.8-1.4-.4-.3-.9-.5-1.6-.5-1,0-1.7.3-2.2,1-.5.7-.8,1.6-.8,2.8s.2,1.9.8,2.6c.5.6,1.2,1,2.1,1s1.4-.2,1.8-.6c.4-.4.7-1,.8-1.7h1.6c-.2,1.2-.6,2.1-1.4,2.8-.7.6-1.7,1-2.9,1s-2.5-.4-3.3-1.3c-.8-.9-1.2-2.1-1.2-3.6s.4-2.8,1.2-3.8c.8-.9,1.9-1.4,3.3-1.4ZM894.1,396.9v5.1h0c.2-.5.6-.9,1.2-1.2.6-.3,1.2-.4,1.9-.4,1.2,0,2,.3,2.5.9.5.6.8,1.4.8,2.5v6.4h-1.6v-6.6c0-.5-.2-1-.5-1.3-.3-.4-.8-.5-1.4-.5-.9,0-1.6.3-2.1.8-.5.5-.8,1.2-.8,2.1v5.5h-1.6v-13.3h1.6ZM909.6,400.6v6.6c0,.5.2,1,.5,1.4.4.4.8.5,1.5.5.9,0,1.6-.3,2.1-.8.5-.6.8-1.3.8-2.1v-5.5h1.6v9.6h-1.5v-1.5h0c-.4.6-.8,1.1-1.3,1.3s-1.1.4-1.8.4c-1.1,0-2-.3-2.5-.9-.5-.6-.8-1.4-.8-2.6v-6.4h1.6ZM923.1,400.4c1.2,0,2,.3,2.5.9.5.6.8,1.4.8,2.5v6.4h-1.6v-6.6c0-.5-.2-1-.5-1.3-.3-.4-.8-.5-1.4-.5-.9,0-1.6.3-2.1.8-.5.5-.8,1.2-.8,2.1v5.5h-1.6v-9.6h1.5v1.5h0c.4-.6.8-1,1.3-1.3.5-.3,1.1-.4,1.8-.4ZM937.4,396.9v13.3h-1.6v-1.3h0c-.3.5-.6.9-1.2,1.1-.5.3-1.2.4-1.9.4-1.3,0-2.4-.5-3.2-1.4-.8-.9-1.2-2.2-1.2-3.7,0-1.5.4-2.7,1.2-3.6.8-.9,1.9-1.4,3.2-1.4s1.2.1,1.8.4c.6.2,1,.6,1.3,1.1h0v-5h1.6ZM930,405.5c0,1,.3,1.9.8,2.6.5.7,1.3,1,2.2,1s1.6-.3,2.2-1c.5-.7.8-1.6.8-2.6,0-1.1-.3-2-.8-2.6-.5-.7-1.3-1-2.3-1s-1.6.3-2.1,1c-.5.7-.8,1.6-.8,2.7ZM949.2,400.4c1.5,0,2.6.5,3.4,1.4.8.9,1.2,2.2,1.2,3.6s-.4,2.7-1.3,3.7c-.8.9-2,1.4-3.4,1.4s-2.5-.5-3.4-1.4c-.9-.9-1.3-2.1-1.3-3.7s.4-2.8,1.3-3.7c.8-.9,2-1.4,3.4-1.4ZM946.2,405.4c0,1.1.3,2,.8,2.7.6.7,1.3,1,2.2,1s1.6-.3,2.1-1c.6-.7.9-1.6.9-2.7s-.3-2-.8-2.6c-.6-.7-1.3-1-2.2-1s-1.6.3-2.1,1c-.6.7-.9,1.5-.9,2.7ZM948.3,397v1.9h-1.7v-1.9h1.7ZM951.8,397v1.9h-1.7v-1.9h1.7ZM957.4,396.9v7.9l4.4-4.2h2.1l-3.8,3.5,4.1,6.1h-2l-3.3-5-1.5,1.4v3.7h-1.6v-13.3h1.6ZM969.4,400.4c1.5,0,2.6.5,3.4,1.4.8.9,1.2,2.2,1.2,3.6s-.4,2.7-1.3,3.7c-.8.9-2,1.4-3.4,1.4s-2.5-.5-3.4-1.4c-.9-.9-1.3-2.1-1.3-3.7s.4-2.8,1.3-3.7c.8-.9,2-1.4,3.4-1.4ZM966.4,405.4c0,1.1.3,2,.8,2.7.6.7,1.3,1,2.2,1s1.6-.3,2.1-1c.6-.7.9-1.6.9-2.7s-.3-2-.8-2.6c-.6-.7-1.3-1-2.2-1s-1.6.3-2.1,1c-.6.7-.9,1.5-.9,2.7ZM977.6,396.9v13.3h-1.6v-13.3h1.6ZM984.2,400.4c1.5,0,2.6.5,3.4,1.4.8.9,1.2,2.2,1.2,3.6s-.4,2.7-1.3,3.7c-.8.9-2,1.4-3.4,1.4s-2.5-.5-3.4-1.4c-.9-.9-1.3-2.1-1.3-3.7s.4-2.8,1.3-3.7c.8-.9,2-1.4,3.4-1.4ZM981.2,405.4c0,1.1.3,2,.8,2.7.6.7,1.3,1,2.2,1s1.6-.3,2.1-1c.6-.7.9-1.6.9-2.7s-.3-2-.8-2.6c-.6-.7-1.3-1-2.2-1s-1.6.3-2.1,1c-.6.7-.9,1.5-.9,2.7ZM994.7,400.4c.7,0,1.2.1,1.7.4.5.3.9.7,1.1,1.2h0v-1.4h1.5v8.9c0,1.5-.4,2.7-1.1,3.5-.7.8-1.9,1.2-3.4,1.2s-2-.2-2.8-.7c-.8-.5-1.2-1.2-1.2-2.1h1.6c0,.5.3.9.8,1.2.5.3,1.1.4,1.7.4.9,0,1.7-.3,2.2-.9.5-.6.8-1.5.8-2.8v-.6h0c-.2.5-.6,1-1.2,1.3-.5.3-1.1.5-1.8.5-1.3,0-2.3-.4-3.1-1.3-.8-.9-1.2-2.1-1.2-3.5s.4-2.7,1.2-3.7c.8-1,1.9-1.4,3.3-1.4ZM991.9,405.3c0,1.1.2,2,.7,2.7.5.7,1.2,1,2,1s1.6-.3,2.1-1c.5-.7.8-1.6.8-2.7s-.2-1.9-.7-2.5c-.5-.6-1.2-1-2-1s-1.6.3-2.1,1c-.5.6-.8,1.5-.8,2.5ZM1003.2,396.9v1.9h-1.6v-1.9h1.6ZM1003.2,400.6v9.6h-1.6v-9.6h1.6ZM1008.9,400.4c1.3,0,2.3.2,2.9.8s1,1.3,1,2.3h-1.6c0-.5-.3-.9-.7-1.2-.4-.3-.9-.4-1.6-.4s-1.1.1-1.5.3c-.4.2-.5.5-.5.9s.2.6.5.9c.3.2.8.4,1.5.5l1.5.3c.9.2,1.6.5,2.1,1,.5.4.7,1,.7,1.7s-.4,1.7-1.1,2.2c-.7.5-1.7.8-3,.8s-2.2-.3-3-.8c-.7-.6-1.1-1.4-1.1-2.5h1.6c0,.6.3,1.1.7,1.4.5.3,1.1.5,1.9.5s1.4-.1,1.8-.4c.4-.2.6-.6.6-1.1s-.2-.8-.6-1-1.2-.5-2.4-.7c-1.2-.2-2.1-.6-2.6-1-.5-.4-.7-1-.7-1.7s.3-1.5,1-2c.7-.5,1.6-.7,2.6-.7ZM1019,400.4c1.2,0,2.1.3,2.9.8.7.6,1.2,1.4,1.3,2.5h-1.6c-.1-.6-.4-1.1-.8-1.4-.4-.3-.9-.5-1.6-.5-1,0-1.7.3-2.2,1s-.8,1.6-.8,2.8.2,1.9.8,2.6c.5.6,1.2,1,2.1,1s1.4-.2,1.8-.6c.4-.4.7-1,.8-1.7h1.6c-.2,1.2-.6,2.1-1.4,2.8-.7.6-1.7,1-2.9,1s-2.5-.4-3.3-1.3c-.8-.9-1.2-2.1-1.2-3.6s.4-2.8,1.2-3.8c.8-.9,1.9-1.4,3.3-1.4ZM1026.6,396.9v5.1h0c.2-.5.6-.9,1.2-1.2.6-.3,1.2-.4,1.9-.4,1.2,0,2,.3,2.5.9.5.6.8,1.4.8,2.5v6.4h-1.6v-6.6c0-.5-.2-1-.5-1.3-.3-.4-.8-.5-1.4-.5-.9,0-1.6.3-2.1.8-.5.5-.8,1.2-.8,2.1v5.5h-1.6v-13.3h1.6Z"/>
  <path class="cls-4" d="M835.4,420.1v2.9h1.9v1.4h-1.9v6c0,.5.2.7.5.8.3,0,.7,0,1,0h.4v1.4h-1.3c-.9,0-1.5-.2-1.8-.5-.3-.3-.4-.8-.4-1.6v-6.2h-1.7v-1.4h1.7v-2.9h1.6ZM843.9,422.7h0s0,0,.1,0v1.7c-1.2,0-2.1.3-2.7,1-.6.6-.8,1.6-.8,2.9v4.3h-1.6v-9.6h1.5v2h0c.4-.8.8-1.3,1.4-1.7.6-.4,1.2-.6,2-.6ZM848.8,422.8c1.3,0,2.2.2,2.8.7.6.5.8,1.1.8,1.9v5.6c0,.4.2.5.5.5s.2,0,.2,0c0,0,.2,0,.2,0v1.2c-.1,0-.3.1-.5.2-.2,0-.4,0-.6,0-.4,0-.8-.1-1-.4s-.3-.6-.3-1.1c-.4.5-.9.9-1.5,1.1-.6.2-1.2.4-1.9.4s-1.8-.2-2.3-.7c-.6-.5-.8-1.2-.8-2s.3-1.5.8-2c.6-.5,1.9-.9,3.9-1.2.7,0,1.2-.2,1.4-.4.2-.2.4-.4.4-.8,0-.5-.2-.9-.5-1.2-.3-.3-.9-.4-1.6-.4s-1.4.2-1.8.5c-.4.3-.6.8-.6,1.4h-1.6c0-1.1.4-1.9,1.1-2.4.7-.5,1.7-.8,3-.8ZM846,430c0,.4.2.8.5,1,.3.2.8.4,1.4.4.9,0,1.6-.2,2.1-.7.5-.4.8-.9.8-1.5v-1.7c-.3.2-.6.3-1,.4-.4,0-1,.1-1.7.2-.7.1-1.2.3-1.6.6s-.5.7-.5,1.2ZM858.8,422.8c.7,0,1.2.1,1.7.4.5.3.9.7,1.1,1.2h0v-1.4h1.5v8.9c0,1.5-.4,2.7-1.1,3.5-.7.8-1.9,1.2-3.4,1.2s-2-.2-2.8-.7c-.8-.5-1.2-1.2-1.2-2.1h1.6c0,.5.3.9.8,1.2.5.3,1.1.4,1.7.4.9,0,1.7-.3,2.2-.9.5-.6.8-1.5.8-2.8v-.6h0c-.2.5-.6,1-1.2,1.3-.5.3-1.1.5-1.8.5-1.3,0-2.3-.4-3.1-1.3-.8-.9-1.2-2.1-1.2-3.5s.4-2.7,1.2-3.7,1.9-1.4,3.3-1.4ZM856,427.7c0,1.1.2,2,.7,2.7.5.7,1.2,1,2,1s1.6-.3,2.1-1c.5-.7.8-1.6.8-2.7s-.2-1.9-.7-2.5c-.5-.6-1.2-1-2-1s-1.6.3-2.1,1c-.5.6-.8,1.5-.8,2.5ZM868.9,419.2c.1,0,.3,0,.5,0,.2,0,.4,0,.5.1v1.4c-.1,0-.3,0-.4,0-.2,0-.3,0-.5,0-.4,0-.8,0-.9.3-.2.2-.3.4-.3.8v1.4h1.9v1.4h-1.9v8.2h-1.6v-8.2h-1.6v-1.4h1.6v-1.5c0-.7.2-1.3.7-1.7.4-.4,1.1-.6,2-.6ZM875.1,422.8c1.3,0,2.2.2,2.8.7.6.5.8,1.1.8,1.9,0,3.3,0,5.2,0,5.6,0,.4.2.5.5.5s.2,0,.2,0c0,0,.2,0,.2,0v1.2c-.1,0-.3.1-.5.2-.2,0-.4,0-.6,0-.4,0-.8-.1-1-.4-.2-.2-.3-.6-.3-1.1-.4.5-.9.9-1.5,1.1-.6.2-1.2.4-1.9.4s-1.8-.2-2.3-.7c-.6-.5-.8-1.2-.8-2,0-.9.3-1.5.8-2,.6-.5,1.9-.9,3.9-1.2.7,0,1.2-.2,1.4-.4.2-.2.4-.4.4-.8,0-.5-.2-.9-.5-1.2-.3-.3-.9-.4-1.6-.4s-1.4.2-1.8.5c-.4.3-.6.8-.6,1.4h-1.6c0-1.1.4-1.9,1.1-2.4.7-.5,1.7-.8,3-.8ZM872.3,430c0,.4.2.8.5,1,.3.2.8.4,1.4.4.9,0,1.6-.2,2.1-.7.5-.4.8-.9.8-1.5v-1.7c-.3.2-.6.3-1,.4-.4,0-1,.1-1.7.2-.7.1-1.2.3-1.6.6-.3.3-.5.7-.5,1.2ZM874.1,419.4v1.9h-1.7v-1.9h1.7ZM877.6,419.4v1.9h-1.7v-1.9h1.7ZM882.7,419.3v5.1h0c.2-.5.6-.9,1.2-1.2.6-.3,1.2-.4,1.9-.4,1.2,0,2,.3,2.5.9.5.6.8,1.4.8,2.5v6.4h-1.6v-6.6c0-.5-.2-1-.5-1.3-.3-.4-.8-.5-1.4-.5-.9,0-1.6.3-2.1.8-.5.5-.8,1.2-.8,2.1v5.5h-1.6v-13.3h1.6ZM893.2,419.3v1.9h-1.6v-1.9h1.6ZM893.2,423v9.6h-1.6v-9.6h1.6ZM899.6,422.8c.7,0,1.2.1,1.7.4.5.3.9.7,1.1,1.2h0v-1.4h1.5v8.9c0,1.5-.4,2.7-1.1,3.5-.7.8-1.9,1.2-3.4,1.2s-2-.2-2.8-.7c-.8-.5-1.2-1.2-1.2-2.1h1.6c0,.5.3.9.8,1.2.5.3,1.1.4,1.7.4.9,0,1.7-.3,2.2-.9.5-.6.7-1.5.8-2.8v-.6h0c-.3.5-.6,1-1.2,1.3-.5.3-1.1.5-1.8.5-1.3,0-2.3-.4-3.1-1.3-.8-.9-1.2-2.1-1.2-3.5,0-1.5.4-2.7,1.2-3.7.8-1,1.9-1.4,3.3-1.4ZM896.8,427.7c0,1.1.2,2,.7,2.7.5.7,1.2,1,2,1s1.6-.3,2.1-1c.5-.7.8-1.6.8-2.7,0-1-.2-1.9-.7-2.5-.5-.6-1.2-1-2-1s-1.6.3-2.1,1c-.5.6-.8,1.5-.8,2.5ZM910.4,422.8c1.4,0,2.5.5,3.2,1.5.8,1,1.2,2.3,1.2,3.8v.2h-7.2c0,1,.3,1.8.8,2.3.5.6,1.3.8,2.2.8s1.3-.2,1.7-.5c.4-.3.7-.8.8-1.4h1.6c-.2,1.1-.7,1.9-1.4,2.5s-1.6.8-2.7.8-1.9-.2-2.6-.7c-.7-.5-1.2-1.1-1.5-1.9-.3-.8-.5-1.7-.5-2.5,0-1.4.4-2.6,1.3-3.6.9-.9,1.9-1.4,3.2-1.4ZM907.5,426.9h5.5c0-.8-.3-1.4-.9-1.9-.5-.5-1.2-.8-1.9-.8s-1.4.2-1.9.7c-.5.5-.8,1.2-.9,2ZM919.6,422.8c1.3,0,2.3.2,2.9.8.6.5,1,1.3,1,2.3h-1.6c0-.5-.3-.9-.7-1.2-.4-.3-.9-.4-1.6-.4s-1.1.1-1.5.3c-.4.2-.5.5-.5.9s.2.6.5.9c.3.2.8.4,1.5.5l1.5.3c.9.2,1.6.5,2.1,1,.5.4.7,1,.7,1.7s-.4,1.7-1.1,2.2c-.7.5-1.7.8-3,.8s-2.2-.3-3-.8c-.7-.6-1.1-1.4-1.1-2.5h1.6c0,.6.3,1.1.7,1.4.5.3,1.1.5,1.9.5s1.4-.1,1.8-.4c.4-.2.6-.6.6-1.1s-.2-.8-.6-1c-.4-.2-1.2-.5-2.4-.7-1.2-.2-2.1-.6-2.6-1-.5-.4-.7-1-.7-1.7s.3-1.5,1-2,1.6-.7,2.6-.7ZM932.9,419.3v6.6l6.8-6.6h2.3l-5.6,5.4,5.8,7.9h-2.2l-4.8-6.7-2.2,2.1v4.7h-1.8v-13.3h1.8ZM947.3,422.8c1.5,0,2.6.5,3.4,1.4.8.9,1.2,2.2,1.2,3.6s-.4,2.7-1.3,3.7c-.8.9-2,1.4-3.4,1.4s-2.5-.5-3.4-1.4-1.3-2.1-1.3-3.7.4-2.8,1.3-3.7,2-1.4,3.4-1.4ZM944.3,427.8c0,1.1.3,2,.8,2.7.6.7,1.3,1,2.2,1s1.6-.3,2.1-1c.6-.7.9-1.6.9-2.7s-.3-2-.8-2.6c-.6-.7-1.3-1-2.2-1s-1.6.3-2.1,1-.9,1.5-.9,2.7ZM958.5,422.8c1.2,0,2,.3,2.5.9.5.6.8,1.4.8,2.5v6.4h-1.6v-6.6c0-.5-.2-1-.5-1.3-.3-.4-.8-.5-1.4-.5-.9,0-1.6.3-2.1.8-.5.5-.7,1.2-.8,2.1v5.5h-1.6v-9.6h1.5v1.5h0c.4-.6.8-1,1.3-1.3.5-.3,1.1-.4,1.8-.4ZM971.3,423v1.1l-5.9,7.2h6.2v1.4h-8.1v-1.2l5.8-7h-5.5v-1.4h7.5ZM976.8,422.8c1.4,0,2.5.5,3.2,1.5.8,1,1.2,2.3,1.2,3.8v.2h-7.2c0,1,.3,1.8.8,2.3.5.6,1.3.8,2.2.8s1.3-.2,1.7-.5c.4-.3.7-.8.8-1.4h1.6c-.2,1.1-.7,1.9-1.4,2.5-.7.6-1.6.8-2.7.8s-1.9-.2-2.6-.7c-.7-.5-1.2-1.1-1.5-1.9-.3-.8-.5-1.7-.5-2.5,0-1.4.4-2.6,1.3-3.6.9-.9,1.9-1.4,3.2-1.4ZM974,426.9h5.5c0-.8-.3-1.4-.9-1.9-.5-.5-1.2-.8-1.9-.8s-1.4.2-1.9.7c-.5.5-.8,1.2-.9,2ZM987.6,422.8c1.4,0,2.5.5,3.2,1.4.8.9,1.2,2.2,1.2,3.6s-.4,2.7-1.2,3.6c-.8.9-1.8,1.4-3.2,1.4s-1.2-.1-1.8-.4c-.6-.2-1-.6-1.4-1.1h0v5h-1.6v-13.3h1.6v1.3h0c.2-.5.6-.9,1.2-1.1.5-.3,1.2-.4,1.9-.4ZM984.4,427.8c0,1.1.3,2,.8,2.7.5.7,1.3,1,2.2,1s1.6-.3,2.1-1,.8-1.6.8-2.8-.3-1.9-.8-2.5c-.5-.7-1.3-1-2.2-1s-1.7.3-2.2,1c-.5.7-.8,1.6-.8,2.6ZM996.1,420.1v2.9h1.9v1.4h-1.9v6c0,.5.2.7.5.8.3,0,.7,0,1,0h.4v1.4h-1.3c-.9,0-1.5-.2-1.8-.5-.3-.3-.4-.8-.4-1.6v-6.2h-1.7v-1.4h1.7v-2.9h1.6Z"/>
  <path class="cls-2" d="M43.1,355.2h328.4v119.1H43.1v-119.1Z"/>
  <path class="cls-4" d="M70.6,396.9l5.2,13.3h-2l-1.5-4h-5.6l-1.5,4h-1.8l5.2-13.3h2ZM69.6,398.5l-2.2,6.2h4.5l-2.2-6.2h0ZM81.7,400.3h0s0,0,.1,0v1.7c-1.2,0-2.1.3-2.7,1-.6.6-.8,1.6-.8,2.9v4.3h-1.6v-9.6h1.5v2h0c.4-.8.8-1.3,1.4-1.7.6-.4,1.2-.6,2-.6ZM86.8,400.4c1.2,0,2.1.3,2.9.8.7.6,1.2,1.4,1.3,2.5h-1.6c-.1-.6-.4-1.1-.8-1.4-.4-.3-.9-.5-1.6-.5-1,0-1.7.3-2.2,1s-.8,1.6-.8,2.8.2,1.9.8,2.6c.5.6,1.2,1,2.1,1s1.4-.2,1.8-.6c.4-.4.7-1,.8-1.7h1.6c-.2,1.2-.6,2.1-1.4,2.8-.7.6-1.7,1-2.9,1s-2.5-.4-3.3-1.3c-.8-.9-1.2-2.1-1.2-3.6s.4-2.8,1.2-3.8c.8-.9,1.9-1.4,3.3-1.4ZM94.3,396.9v5.1h0c.2-.5.6-.9,1.2-1.2.6-.3,1.2-.4,1.9-.4,1.2,0,2,.3,2.5.9.5.6.8,1.4.8,2.5v6.4h-1.6v-6.6c0-.5-.2-1-.5-1.3-.3-.4-.8-.5-1.4-.5-.9,0-1.6.3-2.1.8-.5.5-.8,1.2-.8,2.1v5.5h-1.6v-13.3h1.6ZM104.8,396.9v1.9h-1.6v-1.9h1.6ZM104.8,400.6v9.6h-1.6v-9.6h1.6ZM109.5,397.7v2.9h1.9v1.4h-1.9v6c0,.5.2.7.5.8.3,0,.7,0,1,0h.4v1.4h-1.3c-.9,0-1.5-.2-1.8-.5-.3-.3-.4-.8-.4-1.6v-6.2h-1.7v-1.4h1.7v-2.9h1.6ZM116.9,400.4c1.4,0,2.5.5,3.2,1.5.8,1,1.2,2.3,1.2,3.8v.2h-7.2c0,1,.3,1.8.8,2.3.5.6,1.3.8,2.2.8s1.3-.2,1.7-.5c.4-.3.7-.8.8-1.4h1.6c-.2,1.1-.7,1.9-1.4,2.5-.7.6-1.6.8-2.7.8s-1.9-.2-2.6-.7c-.7-.5-1.2-1.1-1.5-1.9-.3-.8-.5-1.7-.5-2.5,0-1.4.4-2.6,1.3-3.6.9-.9,1.9-1.4,3.2-1.4ZM114.1,404.5h5.5c0-.8-.3-1.4-.9-1.9-.5-.5-1.2-.8-1.9-.8s-1.4.2-1.9.7c-.5.5-.8,1.2-.9,2ZM124.6,396.9v7.9l4.4-4.2h2.1l-3.8,3.5,4.1,6.1h-2l-3.3-5-1.5,1.4v3.7h-1.6v-13.3h1.6ZM134.8,397.7v2.9h1.9v1.4h-1.9v6c0,.5.2.7.5.8.3,0,.7,0,1,0h.4v1.4h-1.3c-.9,0-1.5-.2-1.8-.5-.3-.3-.4-.8-.4-1.6v-6.2h-1.7v-1.4h1.7v-2.9h1.6ZM142.4,400.4c1.5,0,2.6.5,3.4,1.4.8.9,1.2,2.2,1.2,3.6s-.4,2.7-1.3,3.7c-.8.9-2,1.4-3.4,1.4s-2.5-.5-3.4-1.4c-.9-.9-1.3-2.1-1.3-3.7s.4-2.8,1.3-3.7c.8-.9,2-1.4,3.4-1.4ZM139.4,405.4c0,1.1.3,2,.8,2.7.6.7,1.3,1,2.2,1s1.6-.3,2.1-1c.6-.7.9-1.6.9-2.7s-.3-2-.8-2.6c-.6-.7-1.3-1-2.2-1s-1.6.3-2.1,1-.9,1.5-.9,2.7ZM153.7,400.4c1.2,0,2,.3,2.5.9.5.6.8,1.4.8,2.5v6.4h-1.6v-6.6c0-.5-.2-1-.5-1.3-.3-.4-.8-.5-1.4-.5-.9,0-1.6.3-2.1.8-.5.5-.8,1.2-.8,2.1v5.5h-1.6v-9.6h1.5v1.5h0c.4-.6.8-1,1.3-1.3.5-.3,1.1-.4,1.8-.4ZM161,396.9v1.9h-1.6v-1.9h1.6ZM161,400.6v9.6h-1.6v-9.6h1.6ZM166.7,400.4c1.3,0,2.3.2,2.9.8s1,1.3,1,2.3h-1.6c0-.5-.3-.9-.7-1.2-.4-.3-.9-.4-1.6-.4s-1.1.1-1.5.3c-.4.2-.5.5-.5.9s.2.6.5.9c.3.2.8.4,1.5.5l1.5.3c.9.2,1.6.5,2.1,1,.5.4.7,1,.7,1.7,0,.9-.4,1.7-1.1,2.2-.7.5-1.7.8-3,.8s-2.2-.3-3-.8c-.7-.6-1.1-1.4-1.1-2.5h1.6c0,.6.3,1.1.7,1.4.5.3,1.1.5,1.9.5s1.4-.1,1.8-.4c.4-.2.6-.6.6-1.1s-.2-.8-.6-1-1.2-.5-2.4-.7c-1.2-.2-2.1-.6-2.6-1-.5-.4-.7-1-.7-1.7s.3-1.5,1-2c.7-.5,1.6-.7,2.6-.7ZM176.9,400.4c1.2,0,2.1.3,2.9.8.7.6,1.2,1.4,1.3,2.5h-1.6c-.1-.6-.4-1.1-.8-1.4-.4-.3-.9-.5-1.6-.5-1,0-1.7.3-2.2,1-.5.7-.8,1.6-.8,2.8,0,1.1.2,1.9.8,2.6.5.6,1.2,1,2.1,1s1.4-.2,1.8-.6c.4-.4.7-1,.8-1.7h1.6c-.2,1.2-.6,2.1-1.4,2.8-.7.6-1.7,1-2.9,1s-2.5-.4-3.3-1.3c-.8-.9-1.2-2.1-1.2-3.6,0-1.6.4-2.8,1.2-3.8.8-.9,1.9-1.4,3.3-1.4ZM184.4,396.9v5.1h0c.2-.5.6-.9,1.2-1.2.6-.3,1.2-.4,1.9-.4,1.2,0,2,.3,2.5.9.5.6.8,1.4.8,2.5v6.4h-1.6v-6.6c0-.5-.2-1-.5-1.3-.3-.4-.8-.5-1.4-.5-.9,0-1.6.3-2.1.8-.5.5-.7,1.2-.8,2.1v5.5h-1.6v-13.3h1.6ZM197.2,400.4c1.4,0,2.5.5,3.2,1.5.8,1,1.2,2.3,1.2,3.8v.2h-7.2c0,1,.3,1.8.8,2.3.5.6,1.3.8,2.2.8s1.3-.2,1.7-.5c.4-.3.7-.8.8-1.4h1.6c-.2,1.1-.7,1.9-1.4,2.5s-1.6.8-2.7.8-1.9-.2-2.6-.7c-.7-.5-1.2-1.1-1.5-1.9-.3-.8-.5-1.7-.5-2.5,0-1.4.4-2.6,1.3-3.6.9-.9,1.9-1.4,3.2-1.4ZM194.4,404.5h5.5c0-.8-.3-1.4-.9-1.9-.5-.5-1.2-.8-1.9-.8s-1.4.2-1.9.7c-.5.5-.8,1.2-.9,2ZM210,400.6v6.6c0,.5.2,1,.5,1.4.4.4.8.5,1.5.5.9,0,1.6-.3,2.1-.8.5-.6.8-1.3.8-2.1v-5.5h1.6v9.6h-1.5v-1.5h0c-.4.6-.8,1.1-1.3,1.3-.5.3-1.1.4-1.8.4-1.1,0-2-.3-2.5-.9-.5-.6-.8-1.4-.8-2.6v-6.4h1.6ZM223.5,400.4c1.2,0,2,.3,2.5.9.5.6.8,1.4.8,2.5v6.4h-1.6v-6.6c0-.5-.2-1-.5-1.3-.3-.4-.8-.5-1.4-.5-.9,0-1.6.3-2.1.8-.5.5-.8,1.2-.8,2.1v5.5h-1.6v-9.6h1.5v1.5h0c.4-.6.8-1,1.3-1.3.5-.3,1.1-.4,1.8-.4ZM237.8,396.9v13.3h-1.6v-1.3h0c-.2.5-.6.9-1.2,1.1-.5.3-1.2.4-1.9.4-1.3,0-2.4-.5-3.2-1.4-.8-.9-1.2-2.2-1.2-3.7s.4-2.7,1.2-3.6c.8-.9,1.9-1.4,3.2-1.4s1.2.1,1.8.4c.6.2,1,.6,1.3,1.1h0v-5h1.6ZM230.3,405.5c0,1,.3,1.9.8,2.6.5.7,1.3,1,2.2,1s1.6-.3,2.2-1c.5-.7.8-1.6.8-2.6s-.3-2-.8-2.6c-.5-.7-1.3-1-2.3-1s-1.6.3-2.1,1c-.5.7-.8,1.6-.8,2.7ZM249.4,400.4c1.4,0,2.5.5,3.2,1.5.8,1,1.2,2.3,1.2,3.8v.2h-7.2c0,1,.3,1.8.8,2.3.5.6,1.3.8,2.2.8s1.3-.2,1.7-.5c.4-.3.7-.8.8-1.4h1.6c-.2,1.1-.7,1.9-1.4,2.5s-1.6.8-2.7.8-1.9-.2-2.6-.7c-.7-.5-1.2-1.1-1.5-1.9-.3-.8-.5-1.7-.5-2.5,0-1.4.4-2.6,1.3-3.6.9-.9,1.9-1.4,3.2-1.4ZM246.6,404.5h5.5c0-.8-.3-1.4-.9-1.9-.5-.5-1.2-.8-1.9-.8s-1.4.2-1.9.7c-.5.5-.8,1.2-.9,2ZM260.1,400.4c1.2,0,2,.3,2.5.9.5.6.8,1.4.8,2.5v6.4h-1.6v-6.6c0-.5-.2-1-.5-1.3-.3-.4-.8-.5-1.4-.5-.9,0-1.6.3-2.1.8-.5.5-.8,1.2-.8,2.1v5.5h-1.6v-9.6h1.5v1.5h0c.4-.6.8-1,1.3-1.3.5-.3,1.1-.4,1.8-.4ZM269.8,400.4c1.4,0,2.5.5,3.2,1.5.8,1,1.2,2.3,1.2,3.8v.2h-7.2c0,1,.3,1.8.8,2.3.5.6,1.3.8,2.2.8s1.3-.2,1.7-.5c.4-.3.7-.8.8-1.4h1.6c-.2,1.1-.7,1.9-1.4,2.5s-1.6.8-2.7.8-1.9-.2-2.6-.7c-.7-.5-1.2-1.1-1.5-1.9-.3-.8-.5-1.7-.5-2.5,0-1.4.4-2.6,1.3-3.6.9-.9,1.9-1.4,3.2-1.4ZM267,404.5h5.5c0-.8-.3-1.4-.9-1.9-.5-.5-1.2-.8-1.9-.8s-1.4.2-1.9.7c-.5.5-.8,1.2-.9,2ZM280.7,400.3h0s0,0,.1,0v1.7c-1.2,0-2.1.3-2.7,1-.6.6-.8,1.6-.8,2.9v4.3h-1.6v-9.6h1.5v2h0c.4-.8.8-1.3,1.4-1.7.6-.4,1.2-.6,2-.6ZM285.7,400.4c.7,0,1.2.1,1.7.4.5.3.9.7,1.1,1.2h0v-1.4h1.5v8.9c0,1.5-.4,2.7-1.1,3.5-.7.8-1.9,1.2-3.4,1.2s-2-.2-2.8-.7c-.8-.5-1.2-1.2-1.2-2.1h1.6c0,.5.3.9.8,1.2.5.3,1.1.4,1.7.4.9,0,1.7-.3,2.2-.9.5-.6.8-1.5.8-2.8v-.6h0c-.2.5-.6,1-1.2,1.3-.5.3-1.1.5-1.8.5-1.3,0-2.3-.4-3.1-1.3-.8-.9-1.2-2.1-1.2-3.5s.4-2.7,1.2-3.7c.8-1,1.9-1.4,3.3-1.4ZM282.9,405.3c0,1.1.2,2,.7,2.7.5.7,1.2,1,2,1s1.6-.3,2.1-1c.5-.7.8-1.6.8-2.7s-.2-1.9-.7-2.5c-.5-.6-1.2-1-2-1s-1.6.3-2.1,1c-.5.6-.8,1.5-.8,2.5ZM296.4,400.4c1.4,0,2.5.5,3.2,1.5.8,1,1.2,2.3,1.2,3.8v.2h-7.2c0,1,.3,1.8.8,2.3.5.6,1.3.8,2.2.8s1.3-.2,1.7-.5c.4-.3.7-.8.8-1.4h1.6c-.2,1.1-.7,1.9-1.4,2.5-.7.6-1.6.8-2.7.8s-1.9-.2-2.6-.7c-.7-.5-1.2-1.1-1.5-1.9-.3-.8-.5-1.7-.5-2.5,0-1.4.4-2.6,1.3-3.6.9-.9,1.9-1.4,3.2-1.4ZM293.6,404.5h5.5c0-.8-.3-1.4-.9-1.9-.5-.5-1.2-.8-1.9-.8s-1.4.2-1.9.7c-.5.5-.8,1.2-.9,2ZM304.7,397.7v2.9h1.9v1.4h-1.9v6c0,.5.2.7.5.8.3,0,.7,0,1,0h.4v1.4h-1.3c-.9,0-1.5-.2-1.8-.5-.3-.3-.4-.8-.4-1.6v-6.2h-1.7v-1.4h1.7v-2.9h1.6ZM310,396.9v1.9h-1.6v-1.9h1.6ZM310,400.6v9.6h-1.6v-9.6h1.6ZM315.7,400.4c1.3,0,2.3.2,2.9.8.6.5,1,1.3,1,2.3h-1.6c0-.5-.3-.9-.7-1.2-.4-.3-.9-.4-1.6-.4s-1.1.1-1.5.3c-.4.2-.5.5-.5.9s.2.6.5.9c.3.2.8.4,1.5.5l1.5.3c.9.2,1.6.5,2.1,1,.5.4.7,1,.7,1.7s-.4,1.7-1.1,2.2c-.7.5-1.7.8-3,.8s-2.2-.3-3-.8c-.7-.6-1.1-1.4-1.1-2.5h1.6c0,.6.3,1.1.7,1.4.5.3,1.1.5,1.9.5s1.4-.1,1.8-.4c.4-.2.6-.6.6-1.1s-.2-.8-.6-1c-.4-.2-1.2-.5-2.4-.7-1.2-.2-2.1-.6-2.6-1-.5-.4-.7-1-.7-1.7s.3-1.5,1-2c.7-.5,1.6-.7,2.6-.7ZM325.8,400.4c1.2,0,2.1.3,2.9.8.7.6,1.2,1.4,1.3,2.5h-1.6c-.1-.6-.4-1.1-.8-1.4-.4-.3-.9-.5-1.6-.5-1,0-1.7.3-2.2,1-.5.7-.8,1.6-.8,2.8s.2,1.9.8,2.6c.5.6,1.2,1,2.1,1s1.4-.2,1.8-.6c.4-.4.7-1,.8-1.7h1.6c-.2,1.2-.6,2.1-1.4,2.8-.7.6-1.7,1-2.9,1s-2.5-.4-3.3-1.3c-.8-.9-1.2-2.1-1.2-3.6s.4-2.8,1.2-3.8c.8-.9,1.9-1.4,3.3-1.4ZM333.4,396.9v5.1h0c.2-.5.6-.9,1.2-1.2.6-.3,1.2-.4,1.9-.4,1.2,0,2,.3,2.5.9.5.6.8,1.4.8,2.5v6.4h-1.6v-6.6c0-.5-.2-1-.5-1.3-.3-.4-.8-.5-1.4-.5-.9,0-1.6.3-2.1.8-.5.5-.8,1.2-.8,2.1v5.5h-1.6v-13.3h1.6ZM346.2,400.4c1.4,0,2.5.5,3.2,1.5.8,1,1.2,2.3,1.2,3.8v.2h-7.2c0,1,.3,1.8.8,2.3.5.6,1.3.8,2.2.8s1.3-.2,1.7-.5c.4-.3.7-.8.8-1.4h1.6c-.2,1.1-.7,1.9-1.4,2.5s-1.6.8-2.7.8-1.9-.2-2.6-.7c-.7-.5-1.2-1.1-1.5-1.9-.3-.8-.5-1.7-.5-2.5,0-1.4.4-2.6,1.3-3.6.9-.9,1.9-1.4,3.2-1.4ZM343.3,404.5h5.5c0-.8-.3-1.4-.9-1.9-.5-.5-1.2-.8-1.9-.8s-1.4.2-1.9.7c-.5.5-.8,1.2-.9,2Z"/>
  <path class="cls-4" d="M146.3,419c1.3,0,2.4.3,3.4.9,1,.6,1.7,1.4,2.2,2.5.5,1.1.8,2.3.8,3.6s-.2,1.9-.5,2.9c-.3.9-.8,1.7-1.5,2.4l1.8,1.4-.9,1.1-2-1.6c-.4.3-.9.5-1.5.6-.5.1-1.1.2-1.7.2-1.3,0-2.4-.3-3.4-.9-1-.6-1.7-1.4-2.2-2.5-.5-1.1-.8-2.3-.8-3.6,0-2,.6-3.7,1.7-5,1.2-1.3,2.7-2,4.7-2ZM141.6,426c0,1,.2,1.9.5,2.8.4.9.9,1.5,1.6,2,.7.5,1.5.7,2.5.7s.6,0,.9,0c.3,0,.6-.2.9-.3l-1.5-1.2,1-1.1,1.8,1.4c.5-.5.9-1.1,1.1-1.8.3-.7.4-1.5.4-2.4,0-1.6-.4-2.9-1.2-3.9-.8-1-1.9-1.6-3.4-1.6s-2.5.5-3.4,1.6-1.2,2.3-1.2,3.9ZM156.1,423v6.6c0,.5.2,1,.5,1.4.4.4.8.5,1.5.5.9,0,1.6-.3,2.1-.8.5-.6.8-1.3.8-2.1v-5.5h1.6v9.6h-1.5v-1.5h0c-.4.6-.8,1.1-1.3,1.3s-1.1.4-1.8.4c-1.1,0-2-.3-2.5-.9-.5-.6-.8-1.4-.8-2.6v-6.4h1.6ZM168.9,422.8c1.3,0,2.2.2,2.8.7.6.5.8,1.1.8,1.9,0,3.3,0,5.2,0,5.6,0,.4.2.5.5.5s.2,0,.2,0c0,0,.2,0,.2,0v1.2c-.1,0-.3.1-.5.2-.2,0-.4,0-.6,0-.4,0-.8-.1-1-.4-.2-.2-.3-.6-.3-1.1-.4.5-.9.9-1.5,1.1-.6.2-1.2.4-1.9.4s-1.8-.2-2.3-.7c-.6-.5-.8-1.2-.8-2s.3-1.5.8-2c.6-.5,1.9-.9,3.9-1.2.7,0,1.2-.2,1.4-.4.3-.2.4-.4.4-.8,0-.5-.2-.9-.5-1.2-.3-.3-.9-.4-1.6-.4s-1.4.2-1.8.5c-.4.3-.6.8-.6,1.4h-1.6c0-1.1.4-1.9,1.1-2.4.7-.5,1.7-.8,3-.8ZM166.1,430c0,.4.2.8.5,1,.3.2.8.4,1.4.4.9,0,1.6-.2,2.1-.7.5-.4.8-.9.8-1.5v-1.7c-.3.2-.6.3-1,.4-.4,0-1,.1-1.7.2-.7.1-1.2.3-1.6.6s-.5.7-.5,1.2ZM176.6,419.3v13.3h-1.6v-13.3h1.6ZM180.8,419.3v1.9h-1.6v-1.9h1.6ZM180.8,423v9.6h-1.6v-9.6h1.6ZM185.4,420.1v2.9h1.9v1.4h-1.9v6c0,.5.2.7.5.8.3,0,.7,0,1,0h.4v1.4h-1.3c-.9,0-1.5-.2-1.8-.5-.3-.3-.4-.8-.4-1.6v-6.2h-1.7v-1.4h1.7v-2.9h1.6ZM193,422.8c1.3,0,2.2.2,2.8.7.6.5.8,1.1.8,1.9v5.6c0,.4.2.5.5.5s.2,0,.2,0c0,0,.2,0,.2,0v1.2c-.1,0-.3.1-.5.2-.2,0-.4,0-.6,0-.4,0-.8-.1-1-.4-.2-.2-.3-.6-.3-1.1-.4.5-.9.9-1.5,1.1-.6.2-1.2.4-1.9.4s-1.8-.2-2.3-.7c-.6-.5-.8-1.2-.8-2s.3-1.5.8-2c.6-.5,1.9-.9,3.9-1.2.7,0,1.2-.2,1.4-.4.2-.2.4-.4.4-.8,0-.5-.2-.9-.5-1.2-.3-.3-.9-.4-1.6-.4s-1.4.2-1.8.5c-.4.3-.6.8-.6,1.4h-1.6c0-1.1.4-1.9,1.1-2.4.7-.5,1.7-.8,3-.8ZM190.2,430c0,.4.2.8.5,1,.3.2.8.4,1.4.4.9,0,1.6-.2,2.1-.7.5-.4.8-.9.8-1.5v-1.7c-.3.2-.6.3-1,.4-.4,0-1,.1-1.7.2-.7.1-1.2.3-1.6.6s-.5.7-.5,1.2ZM192.1,419.5v1.9h-1.7v-1.9h1.7ZM195.6,419.5v1.9h-1.7v-1.9h1.7ZM201.3,420.1v2.9h1.9v1.4h-1.9v6c0,.5.2.7.5.8.3,0,.7,0,1,0h.4v1.4h-1.3c-.9,0-1.5-.2-1.8-.5-.3-.3-.4-.8-.4-1.6v-6.2h-1.7v-1.4h1.7v-2.9h1.6ZM213.4,422.8c1.3,0,2.3.2,2.9.8.6.5,1,1.3,1,2.3h-1.6c0-.5-.3-.9-.7-1.2-.4-.3-.9-.4-1.6-.4s-1.1.1-1.5.3c-.4.2-.5.5-.5.9s.2.6.5.9c.3.2.8.4,1.5.5l1.5.3c.9.2,1.6.5,2.1,1,.5.4.7,1,.7,1.7s-.4,1.7-1.1,2.2c-.7.5-1.7.8-3,.8s-2.2-.3-3-.8c-.7-.6-1.1-1.4-1.1-2.5h1.6c0,.6.3,1.1.7,1.4.5.3,1.1.5,1.9.5s1.4-.1,1.8-.4c.4-.2.6-.6.6-1.1s-.2-.8-.6-1c-.4-.2-1.2-.5-2.4-.7-1.2-.2-2.1-.6-2.6-1-.5-.4-.7-1-.7-1.7s.3-1.5,1-2,1.6-.7,2.6-.7ZM221.7,420.1v2.9h1.9v1.4h-1.9v6c0,.5.2.7.5.8.3,0,.7,0,1,0h.4v1.4h-1.3c-.9,0-1.5-.2-1.8-.5-.3-.3-.4-.8-.4-1.6v-6.2h-1.7v-1.4h1.7v-2.9h1.6ZM229.2,422.8c1.4,0,2.5.5,3.2,1.5.8,1,1.2,2.3,1.2,3.8v.2h-7.2c0,1,.3,1.8.8,2.3.5.6,1.3.8,2.2.8s1.3-.2,1.7-.5c.4-.3.7-.8.8-1.4h1.6c-.2,1.1-.7,1.9-1.4,2.5s-1.6.8-2.7.8-1.9-.2-2.6-.7c-.7-.5-1.2-1.1-1.5-1.9-.3-.8-.5-1.7-.5-2.5,0-1.4.4-2.6,1.3-3.6.9-.9,1.9-1.4,3.2-1.4ZM226.3,426.9h5.5c0-.8-.3-1.4-.9-1.9-.5-.5-1.2-.8-1.9-.8s-1.4.2-1.9.7c-.5.5-.8,1.2-.9,2ZM236.8,419.3v1.9h-1.6v-1.9h1.6ZM236.8,423v9.6h-1.6v-9.6h1.6ZM243.2,422.8c.7,0,1.2.1,1.7.4.5.3.9.7,1.1,1.2h0v-1.4h1.5v8.9c0,1.5-.4,2.7-1.1,3.5-.7.8-1.9,1.2-3.4,1.2s-2-.2-2.8-.7c-.7-.5-1.2-1.2-1.2-2.1h1.6c0,.5.3.9.8,1.2.5.3,1.1.4,1.7.4.9,0,1.7-.3,2.2-.9.5-.6.8-1.5.8-2.8v-.6h0c-.2.5-.6,1-1.2,1.3-.5.3-1.1.5-1.8.5-1.3,0-2.3-.4-3.1-1.3-.8-.9-1.2-2.1-1.2-3.5,0-1.5.4-2.7,1.2-3.7.8-1,1.9-1.4,3.3-1.4ZM240.5,427.7c0,1.1.2,2,.7,2.7.5.7,1.2,1,2,1s1.6-.3,2.1-1c.5-.7.8-1.6.8-2.7,0-1-.2-1.9-.7-2.5-.5-.6-1.2-1-2-1s-1.6.3-2.1,1c-.5.6-.7,1.5-.8,2.5ZM254,422.8c1.4,0,2.5.5,3.2,1.5.8,1,1.2,2.3,1.2,3.8v.2h-7.2c0,1,.3,1.8.8,2.3.5.6,1.3.8,2.2.8s1.3-.2,1.7-.5c.4-.3.7-.8.8-1.4h1.6c-.2,1.1-.7,1.9-1.4,2.5s-1.6.8-2.7.8-1.9-.2-2.6-.7c-.7-.5-1.2-1.1-1.5-1.9-.3-.8-.5-1.7-.5-2.5,0-1.4.4-2.6,1.3-3.6.9-.9,1.9-1.4,3.2-1.4ZM251.2,426.9h5.5c0-.8-.3-1.4-.9-1.9-.5-.5-1.2-.8-1.9-.8s-1.4.2-1.9.7c-.5.5-.8,1.2-.9,2ZM264.9,422.7h0s0,0,.1,0v1.7c-1.2,0-2.1.3-2.7,1-.6.6-.8,1.6-.8,2.9v4.3h-1.6v-9.6h1.5v2h0c.4-.8.8-1.3,1.4-1.7.6-.4,1.2-.6,2-.6ZM270.9,422.8c1.2,0,2,.3,2.5.9.5.6.8,1.4.8,2.5v6.4h-1.6v-6.6c0-.5-.2-1-.5-1.3-.3-.4-.8-.5-1.4-.5-.9,0-1.6.3-2.1.8-.5.5-.8,1.2-.8,2.1v5.5h-1.6v-9.6h1.5v1.5h0c.4-.6.8-1,1.3-1.3.5-.3,1.1-.4,1.8-.4Z"/>
  <path class="cls-2" d="M396.9,414.7h0c0-90.8,73.6-164.3,164.3-164.3h0c43.6,0,85.4,17.3,116.2,48.1,30.8,30.8,48.1,72.6,48.1,116.2h0c0,90.8-73.6,164.3-164.3,164.3h0c-90.8,0-164.3-73.6-164.3-164.3Z"/>
  <path class="cls-5" d="M396.9,414.7h0c0-90.8,73.6-164.3,164.3-164.3h0c43.6,0,85.4,17.3,116.2,48.1,30.8,30.8,48.1,72.6,48.1,116.2h0c0,90.8-73.6,164.3-164.3,164.3h0c-90.8,0-164.3-73.6-164.3-164.3Z"/>
  <path class="cls-2" d="M396.9,355.2h328.7v119.1h-328.7v-119.1Z"/>
  <path class="cls-4" d="M429,396.6c1.3,0,2.4.3,3.4.9,1,.6,1.7,1.4,2.2,2.5.5,1.1.8,2.3.8,3.6s-.3,2.5-.8,3.6c-.5,1.1-1.2,1.9-2.2,2.5s-2.1.9-3.4.9-2.4-.3-3.4-.9c-1-.6-1.7-1.4-2.2-2.5-.5-1.1-.8-2.3-.8-3.6,0-2,.6-3.7,1.7-5,1.2-1.3,2.7-2,4.7-2ZM424.4,403.6c0,1,.2,1.9.5,2.8.4.9.9,1.5,1.6,2,.7.5,1.5.7,2.5.7,1.4,0,2.6-.5,3.4-1.5s1.2-2.3,1.2-3.9-.4-2.9-1.2-3.9c-.8-1-1.9-1.6-3.4-1.6s-2.5.5-3.4,1.6c-.8,1-1.2,2.3-1.2,3.9ZM442.1,400.4c1.4,0,2.5.5,3.2,1.4.8.9,1.2,2.2,1.2,3.6,0,1.5-.4,2.7-1.2,3.6-.8.9-1.8,1.4-3.2,1.4s-1.2-.1-1.8-.4c-.6-.2-1-.6-1.4-1.1h0v5h-1.6v-13.3h1.6v1.3h0c.3-.5.6-.9,1.2-1.1.5-.3,1.2-.4,1.9-.4ZM438.9,405.4c0,1.1.3,2,.8,2.7.5.7,1.3,1,2.2,1s1.6-.3,2.1-1c.5-.7.8-1.6.8-2.8,0-1-.3-1.9-.8-2.5-.5-.7-1.3-1-2.2-1s-1.7.3-2.2,1c-.5.7-.8,1.6-.8,2.6ZM450.6,397.7v2.9h1.9v1.4h-1.9v6c0,.5.2.7.5.8.3,0,.7,0,1,0h.4v1.4h-1.3c-.9,0-1.5-.2-1.8-.5-.3-.3-.4-.8-.4-1.6v-6.2h-1.7v-1.4h1.7v-2.9h1.6ZM455.9,396.9v1.9h-1.6v-1.9h1.6ZM455.9,400.6v9.6h-1.6v-9.6h1.6ZM463,400.4c.7,0,1.3.1,1.7.4.4.3.8.7.9,1.2.3-.5.8-.9,1.3-1.2.5-.3,1.1-.4,1.8-.4,1.1,0,1.9.2,2.4.7.5.5.8,1.2.8,2v7.1h-1.6v-6.4c0-.7-.2-1.2-.5-1.6-.3-.3-.8-.5-1.4-.5s-1.4.2-1.9.7c-.4.5-.7,1-.7,1.7v6.1h-1.6v-6.4c0-.7-.1-1.2-.4-1.6-.3-.3-.7-.5-1.4-.5s-1,.1-1.3.4c-.4.2-.7.6-.9,1-.2.4-.3.8-.3,1.1v6h-1.6v-9.6h1.5v1.4h0c.4-.6.8-1,1.3-1.2.5-.3,1.1-.4,1.8-.4ZM476,396.9v1.9h-1.6v-1.9h1.6ZM476,400.6v9.6h-1.6v-9.6h1.6ZM482.5,400.4c1.4,0,2.5.5,3.2,1.5.8,1,1.2,2.3,1.2,3.8v.2h-7.2c0,1,.3,1.8.8,2.3.5.6,1.3.8,2.2.8s1.3-.2,1.7-.5c.4-.3.7-.8.8-1.4h1.6c-.2,1.1-.7,1.9-1.4,2.5s-1.6.8-2.7.8-1.9-.2-2.6-.7c-.7-.5-1.2-1.1-1.5-1.9-.3-.8-.5-1.7-.5-2.5,0-1.4.4-2.6,1.3-3.6.9-.9,1.9-1.4,3.2-1.4ZM479.6,404.5h5.5c0-.8-.3-1.4-.9-1.9-.5-.5-1.2-.8-1.9-.8s-1.4.2-1.9.7c-.5.5-.8,1.2-.9,2ZM493.3,400.3h0s0,0,.1,0v1.7c-1.2,0-2.1.3-2.7,1-.6.6-.8,1.6-.8,2.9v4.3h-1.6v-9.6h1.5v2h0c.4-.8.8-1.3,1.4-1.7.6-.4,1.2-.6,2-.6ZM496.3,400.6v6.6c0,.5.2,1,.5,1.4.4.4.8.5,1.5.5.9,0,1.6-.3,2.1-.8.5-.6.8-1.3.8-2.1v-5.5h1.6v9.6h-1.5v-1.5h0c-.4.6-.8,1.1-1.3,1.3s-1.1.4-1.8.4c-1.1,0-2-.3-2.5-.9-.5-.6-.8-1.4-.8-2.6v-6.4h1.6ZM509.7,400.4c1.2,0,2,.3,2.5.9.5.6.8,1.4.8,2.5v6.4h-1.6v-6.6c0-.5-.2-1-.5-1.3-.3-.4-.8-.5-1.4-.5-.9,0-1.6.3-2.1.8-.5.5-.7,1.2-.8,2.1v5.5h-1.6v-9.6h1.5v1.5h0c.4-.6.8-1,1.3-1.3.5-.3,1.1-.4,1.8-.4ZM519.4,400.4c.7,0,1.2.1,1.7.4.5.3.9.7,1.1,1.2h0v-1.4h1.5v8.9c0,1.5-.4,2.7-1.1,3.5-.7.8-1.9,1.2-3.4,1.2s-2-.2-2.8-.7c-.8-.5-1.2-1.2-1.2-2.1h1.6c0,.5.3.9.8,1.2.5.3,1.1.4,1.7.4.9,0,1.7-.3,2.2-.9.5-.6.8-1.5.8-2.8v-.6h0c-.2.5-.6,1-1.2,1.3-.5.3-1.1.5-1.8.5-1.3,0-2.3-.4-3.1-1.3-.8-.9-1.2-2.1-1.2-3.5s.4-2.7,1.2-3.7c.8-1,1.9-1.4,3.3-1.4ZM516.6,405.3c0,1.1.2,2,.7,2.7.5.7,1.2,1,2,1s1.6-.3,2.1-1c.5-.7.8-1.6.8-2.7s-.2-1.9-.7-2.5c-.5-.6-1.2-1-2-1s-1.6.3-2.1,1c-.5.6-.8,1.5-.8,2.5ZM532.2,400.6l2.7,8h0l2.6-8h1.7l-3.5,9.6h-1.7l-3.6-9.6h1.8ZM544.7,400.4c1.4,0,2.5.5,3.2,1.5.8,1,1.2,2.3,1.2,3.8v.2h-7.2c0,1,.3,1.8.8,2.3.5.6,1.3.8,2.2.8s1.3-.2,1.7-.5c.4-.3.7-.8.8-1.4h1.6c-.2,1.1-.7,1.9-1.4,2.5s-1.6.8-2.7.8-1.9-.2-2.6-.7c-.7-.5-1.2-1.1-1.5-1.9-.3-.8-.5-1.7-.5-2.5,0-1.4.4-2.6,1.3-3.6.9-.9,1.9-1.4,3.2-1.4ZM541.8,404.5h5.5c0-.8-.3-1.4-.9-1.9-.5-.5-1.2-.8-1.9-.8s-1.4.2-1.9.7c-.5.5-.8,1.2-.9,2ZM555.5,400.3h0s0,0,.1,0v1.7c-1.2,0-2.1.3-2.7,1-.6.6-.8,1.6-.8,2.9v4.3h-1.6v-9.6h1.5v2h0c.4-.8.8-1.3,1.4-1.7.6-.4,1.2-.6,2-.6ZM561.5,400.4c.7,0,1.3.1,1.7.4s.8.7.9,1.2c.3-.5.8-.9,1.3-1.2.5-.3,1.1-.4,1.8-.4,1.1,0,1.9.2,2.4.7.5.5.8,1.2.8,2v7.1h-1.6v-6.4c0-.7-.2-1.2-.5-1.6-.3-.3-.8-.5-1.4-.5s-1.4.2-1.9.7c-.4.5-.7,1-.7,1.7v6.1h-1.6v-6.4c0-.7-.1-1.2-.4-1.6s-.7-.5-1.4-.5-1,.1-1.3.4c-.4.2-.7.6-.9,1-.2.4-.3.8-.3,1.1v6h-1.6v-9.6h1.5v1.4h0c.4-.6.8-1,1.3-1.2.5-.3,1.1-.4,1.8-.4ZM574.5,396.9v1.9h-1.6v-1.9h1.6ZM574.5,400.6v9.6h-1.6v-9.6h1.6ZM581,400.4c1.4,0,2.5.5,3.2,1.5.8,1,1.2,2.3,1.2,3.8v.2h-7.2c0,1,.3,1.8.8,2.3.5.6,1.3.8,2.2.8s1.3-.2,1.7-.5c.4-.3.7-.8.8-1.4h1.6c-.2,1.1-.7,1.9-1.4,2.5s-1.6.8-2.7.8-1.9-.2-2.6-.7c-.7-.5-1.2-1.1-1.5-1.9-.3-.8-.5-1.7-.5-2.5,0-1.4.4-2.6,1.3-3.6.9-.9,1.9-1.4,3.2-1.4ZM578.1,404.5h5.5c0-.8-.3-1.4-.9-1.9-.5-.5-1.2-.8-1.9-.8s-1.4.2-1.9.7c-.5.5-.8,1.2-.9,2ZM589.2,397.7v2.9h1.9v1.4h-1.9v6c0,.5.2.7.5.8.3,0,.7,0,1,0h.4v1.4h-1.3c-.9,0-1.5-.2-1.8-.5-.3-.3-.4-.8-.4-1.6v-6.2h-1.7v-1.4h1.7v-2.9h1.6ZM594.5,396.9v5h0c.2-.5.6-.9,1.2-1.1.5-.3,1.2-.4,1.9-.4,1.4,0,2.5.5,3.2,1.4.8.9,1.2,2.2,1.2,3.6s-.4,2.7-1.2,3.6c-.8.9-1.8,1.4-3.2,1.4s-1.2-.1-1.8-.4c-.6-.2-1-.6-1.4-1.1h0v1.3h-1.6v-13.3h1.6ZM594.4,405.4c0,1.1.3,2,.8,2.7.5.7,1.3,1,2.2,1s1.6-.3,2.1-1,.8-1.6.8-2.8-.3-1.9-.8-2.5c-.5-.7-1.3-1-2.2-1s-1.7.3-2.2,1c-.5.7-.8,1.6-.8,2.6ZM607.8,400.4c1.3,0,2.2.2,2.8.7.6.5.8,1.1.8,1.9v5.6c0,.4.2.5.5.5s.2,0,.2,0c0,0,.2,0,.2,0v1.2c-.1,0-.3.1-.5.2-.2,0-.4,0-.6,0-.4,0-.8-.1-1-.4-.2-.2-.3-.6-.3-1.1-.4.5-.9.9-1.5,1.1-.6.2-1.2.4-1.9.4s-1.8-.2-2.3-.7c-.6-.5-.8-1.2-.8-2s.3-1.5.8-2c.6-.5,1.9-.9,3.9-1.2.7,0,1.2-.2,1.4-.4.2-.2.4-.4.4-.8,0-.5-.2-.9-.5-1.2-.3-.3-.9-.4-1.6-.4s-1.4.2-1.8.5c-.4.3-.6.8-.6,1.4h-1.6c0-1.1.4-1.9,1.1-2.4.7-.5,1.7-.8,3-.8ZM605.1,407.6c0,.4.2.8.5,1,.3.2.8.4,1.4.4.9,0,1.6-.2,2.1-.7.5-.4.8-.9.8-1.5v-1.7c-.3.2-.6.3-1,.4-.4,0-1,.1-1.7.2-.7.1-1.2.3-1.6.6s-.5.7-.5,1.2ZM618.7,400.3h0s0,0,.1,0v1.7c-1.2,0-2.1.3-2.7,1-.6.6-.8,1.6-.8,2.9v4.3h-1.6v-9.6h1.5v2h0c.4-.8.8-1.3,1.4-1.7.6-.4,1.2-.6,2-.6ZM623.8,400.4c1.4,0,2.5.5,3.2,1.5.8,1,1.2,2.3,1.2,3.8v.2h-7.2c0,1,.3,1.8.8,2.3.5.6,1.3.8,2.2.8s1.3-.2,1.7-.5c.4-.3.7-.8.8-1.4h1.6c-.2,1.1-.7,1.9-1.4,2.5s-1.6.8-2.7.8-1.9-.2-2.6-.7c-.7-.5-1.2-1.1-1.5-1.9-.3-.8-.5-1.7-.5-2.5,0-1.4.4-2.6,1.3-3.6.9-.9,1.9-1.4,3.2-1.4ZM620.9,404.5h5.5c0-.8-.3-1.4-.9-1.9-.5-.5-1.2-.8-1.9-.8s-1.4.2-1.9.7c-.5.5-.8,1.2-.9,2ZM634.6,400.3h0s0,0,.1,0v1.7c-1.2,0-2.1.3-2.7,1-.6.6-.8,1.6-.8,2.9v4.3h-1.6v-9.6h1.5v2h0c.4-.8.8-1.3,1.4-1.7.6-.4,1.2-.6,2-.6ZM650.2,396.9v1.5h-7v4.2h6.1v1.5h-6.1v6.1h-1.8v-13.3h8.8ZM653.6,396.9v13.3h-1.6v-13.3h1.6ZM660,400.4c1.3,0,2.2.2,2.8.7.6.5.8,1.1.8,1.9v5.6c0,.4.2.5.5.5s.2,0,.2,0c0,0,.2,0,.2,0v1.2c-.1,0-.3.1-.5.2-.2,0-.4,0-.6,0-.4,0-.8-.1-1-.4-.2-.2-.3-.6-.3-1.1-.4.5-.9.9-1.5,1.1-.6.2-1.2.4-1.9.4s-1.8-.2-2.3-.7c-.6-.5-.8-1.2-.8-2s.3-1.5.8-2c.6-.5,1.9-.9,3.9-1.2.7,0,1.2-.2,1.4-.4.2-.2.4-.4.4-.8,0-.5-.2-.9-.5-1.2-.3-.3-.9-.4-1.6-.4s-1.4.2-1.8.5c-.4.3-.6.8-.6,1.4h-1.6c0-1.1.4-1.9,1.1-2.4.7-.5,1.7-.8,3-.8ZM657.2,407.6c0,.4.2.8.5,1,.3.2.8.4,1.4.4.9,0,1.6-.2,2.1-.7.5-.4.8-.9.8-1.5v-1.7c-.3.2-.6.3-1,.4-.4,0-1,.1-1.7.2-.7.1-1.2.3-1.6.6s-.5.7-.5,1.2ZM659,397v1.9h-1.7v-1.9h1.7ZM662.6,397v1.9h-1.7v-1.9h1.7ZM670.1,400.4c1.2,0,2.1.3,2.9.8.7.6,1.2,1.4,1.3,2.5h-1.6c-.1-.6-.4-1.1-.8-1.4-.4-.3-.9-.5-1.6-.5-1,0-1.7.3-2.2,1s-.8,1.6-.8,2.8.2,1.9.8,2.6c.5.6,1.2,1,2.1,1s1.4-.2,1.8-.6c.4-.4.7-1,.8-1.7h1.6c-.2,1.2-.6,2.1-1.4,2.8-.7.6-1.7,1-2.9,1s-2.5-.4-3.3-1.3c-.8-.9-1.2-2.1-1.2-3.6s.4-2.8,1.2-3.8c.8-.9,1.9-1.4,3.3-1.4ZM677.7,396.9v5.1h0c.2-.5.6-.9,1.2-1.2.6-.3,1.2-.4,1.9-.4,1.2,0,2,.3,2.5.9.5.6.8,1.4.8,2.5v6.4h-1.6v-6.6c0-.5-.2-1-.5-1.3-.3-.4-.8-.5-1.4-.5-.9,0-1.6.3-2.1.8-.5.5-.8,1.2-.8,2.1v5.5h-1.6v-13.3h1.6ZM690.5,400.4c1.4,0,2.5.5,3.2,1.5.8,1,1.2,2.3,1.2,3.8v.2h-7.2c0,1,.3,1.8.8,2.3.5.6,1.3.8,2.2.8s1.3-.2,1.7-.5c.4-.3.7-.8.8-1.4h1.6c-.2,1.1-.7,1.9-1.4,2.5-.7.6-1.6.8-2.7.8s-1.9-.2-2.6-.7c-.7-.5-1.2-1.1-1.5-1.9-.3-.8-.5-1.7-.5-2.5,0-1.4.4-2.6,1.3-3.6.9-.9,1.9-1.4,3.2-1.4ZM687.6,404.5h5.5c0-.8-.3-1.4-.9-1.9-.5-.5-1.2-.8-1.9-.8s-1.4.2-1.9.7c-.5.5-.8,1.2-.9,2ZM698.9,400.6v2.1h-2.1v-2.1h2.1ZM698.9,408.2v2.1h-2.1v-2.1h2.1Z"/>
  <path class="cls-4" d="M457.3,419.3l5.2,13.3h-2l-1.5-4h-5.6l-1.5,4h-1.8l5.2-13.3h2ZM456.2,420.9l-2.2,6.2h4.5l-2.2-6.2h0ZM465.1,423v6.6c0,.5.2,1,.5,1.4.4.4.8.5,1.5.5.9,0,1.6-.3,2.1-.8.5-.6.8-1.3.8-2.1v-5.5h1.6v9.6h-1.5v-1.5h0c-.4.6-.8,1.1-1.3,1.3-.5.3-1.1.4-1.8.4-1.1,0-2-.3-2.5-.9-.5-.6-.8-1.4-.8-2.6v-6.4h1.6ZM477.2,419.2c.1,0,.3,0,.5,0,.2,0,.4,0,.5.1v1.4c-.1,0-.3,0-.4,0-.2,0-.3,0-.5,0-.4,0-.8,0-.9.3-.2.2-.3.4-.3.8v1.4h1.9v1.4h-1.9v8.2h-1.6v-8.2h-1.6v-1.4h1.6v-1.5c0-.7.2-1.3.7-1.7.4-.4,1.1-.6,2-.6ZM482.6,422.8c1.3,0,2.3.2,2.9.8s1,1.3,1,2.3h-1.6c0-.5-.3-.9-.7-1.2-.4-.3-.9-.4-1.6-.4s-1.1.1-1.5.3c-.4.2-.5.5-.5.9s.2.6.5.9c.3.2.8.4,1.5.5l1.5.3c.9.2,1.6.5,2.1,1,.5.4.7,1,.7,1.7s-.4,1.7-1.1,2.2c-.7.5-1.7.8-3,.8s-2.2-.3-3-.8c-.7-.6-1.1-1.4-1.1-2.5h1.6c0,.6.3,1.1.7,1.4.5.3,1.1.5,1.9.5s1.4-.1,1.8-.4c.4-.2.6-.6.6-1.1s-.2-.8-.6-1-1.2-.5-2.4-.7c-1.2-.2-2.1-.6-2.6-1-.5-.4-.7-1-.7-1.7s.3-1.5,1-2,1.6-.7,2.6-.7ZM490.9,420.1v2.9h1.9v1.4h-1.9v6c0,.5.2.7.5.8.3,0,.7,0,1,0h.4v1.4h-1.3c-.9,0-1.5-.2-1.8-.5-.3-.3-.4-.8-.4-1.6v-6.2h-1.7v-1.4h1.7v-2.9h1.6ZM498.5,422.8c1.5,0,2.6.5,3.4,1.4.8.9,1.2,2.2,1.2,3.6,0,1.5-.4,2.7-1.3,3.7-.8.9-2,1.4-3.4,1.4s-2.5-.5-3.4-1.4c-.9-.9-1.3-2.1-1.3-3.7,0-1.5.4-2.8,1.3-3.7.8-.9,2-1.4,3.4-1.4ZM495.5,427.8c0,1.1.3,2,.8,2.7.6.7,1.3,1,2.2,1s1.6-.3,2.1-1c.6-.7.9-1.6.9-2.7,0-1.1-.3-2-.8-2.6-.6-.7-1.3-1-2.2-1s-1.6.3-2.1,1c-.6.7-.9,1.5-.9,2.7ZM509.1,422.8c1.2,0,2.1.3,2.9.8.7.6,1.2,1.4,1.3,2.5h-1.6c-.1-.6-.4-1.1-.8-1.4-.4-.3-.9-.5-1.6-.5-1,0-1.7.3-2.2,1-.5.7-.8,1.6-.8,2.8,0,1.1.3,1.9.8,2.6.5.6,1.2,1,2.1,1s1.4-.2,1.8-.6c.4-.4.7-1,.8-1.7h1.6c-.2,1.2-.6,2.1-1.4,2.8-.7.6-1.7,1-2.9,1s-2.5-.4-3.3-1.3c-.8-.9-1.2-2.1-1.2-3.6,0-1.6.4-2.8,1.2-3.8.8-.9,1.9-1.4,3.3-1.4ZM516.8,419.3v7.9l4.4-4.2h2.1l-3.8,3.5,4.1,6.1h-2l-3.3-5-1.5,1.4v3.7h-1.6v-13.3h1.6ZM526.4,423v6.6c0,.5.2,1,.5,1.4.4.4.8.5,1.5.5.9,0,1.6-.3,2.1-.8.5-.6.8-1.3.8-2.1v-5.5h1.6v9.6h-1.5v-1.5h0c-.4.6-.8,1.1-1.3,1.3s-1.1.4-1.8.4c-1.1,0-2-.3-2.5-.9-.5-.6-.8-1.4-.8-2.6v-6.4h1.6ZM539.8,422.8c1.2,0,2,.3,2.5.9.5.6.8,1.4.8,2.5v6.4h-1.6v-6.6c0-.5-.2-1-.5-1.3-.3-.4-.8-.5-1.4-.5-.9,0-1.6.3-2.1.8-.5.5-.8,1.2-.8,2.1v5.5h-1.6v-9.6h1.5v1.5h0c.4-.6.8-1,1.3-1.3.5-.3,1.1-.4,1.8-.4ZM549.5,422.8c.7,0,1.2.1,1.7.4.5.3.9.7,1.1,1.2h0v-1.4h1.5v8.9c0,1.5-.4,2.7-1.1,3.5s-1.9,1.2-3.4,1.2-2-.2-2.8-.7c-.8-.5-1.2-1.2-1.2-2.1h1.6c0,.5.3.9.8,1.2.5.3,1.1.4,1.7.4.9,0,1.7-.3,2.2-.9.5-.6.8-1.5.8-2.8v-.6h0c-.2.5-.6,1-1.2,1.3-.5.3-1.1.5-1.8.5-1.3,0-2.3-.4-3.1-1.3-.8-.9-1.2-2.1-1.2-3.5s.4-2.7,1.2-3.7,1.9-1.4,3.3-1.4ZM546.7,427.7c0,1.1.2,2,.7,2.7.5.7,1.2,1,2,1s1.6-.3,2.1-1c.5-.7.8-1.6.8-2.7s-.2-1.9-.7-2.5-1.2-1-2-1-1.6.3-2.1,1c-.5.6-.8,1.5-.8,2.5ZM558.7,430.6v2c0,.7-.2,1.3-.5,1.8s-.8.8-1.5,1v-.9c.3-.1.6-.3.8-.6.2-.3.3-.7.3-1.1h0c0,0-1.1,0-1.1,0v-2.1h2.1ZM568.8,419.3l7,10.8h0v-10.8h1.7v13.3h-1.9l-7-10.7h0v10.7h-1.7v-13.3h1.9ZM584.1,422.8c1.4,0,2.5.5,3.2,1.5.8,1,1.2,2.3,1.2,3.8v.2h-7.2c0,1,.3,1.8.8,2.3.5.6,1.3.8,2.2.8s1.3-.2,1.7-.5c.4-.3.7-.8.8-1.4h1.6c-.2,1.1-.7,1.9-1.4,2.5s-1.6.8-2.7.8-1.9-.2-2.6-.7c-.7-.5-1.2-1.1-1.5-1.9-.3-.8-.5-1.7-.5-2.5,0-1.4.4-2.6,1.3-3.6.9-.9,1.9-1.4,3.2-1.4ZM581.2,426.9h5.5c0-.8-.3-1.4-.9-1.9-.5-.5-1.2-.8-1.9-.8s-1.4.2-1.9.7c-.5.5-.8,1.2-.9,2ZM591.7,423v6.6c0,.5.2,1,.5,1.4.4.4.8.5,1.5.5.9,0,1.6-.3,2.1-.8.5-.6.8-1.3.8-2.1v-5.5h1.6v9.6h-1.5v-1.5h0c-.4.6-.8,1.1-1.3,1.3s-1.1.4-1.8.4c-1.1,0-2-.3-2.5-.9-.5-.6-.8-1.4-.8-2.6v-6.4h1.6ZM602.1,419.3v5h0c.2-.5.6-.9,1.2-1.1s1.2-.4,1.9-.4c1.4,0,2.5.5,3.2,1.4s1.2,2.2,1.2,3.6-.4,2.7-1.2,3.6c-.8.9-1.8,1.4-3.2,1.4s-1.2-.1-1.8-.4-1-.6-1.4-1.1h0v1.3h-1.6v-13.3h1.6ZM602.1,427.8c0,1.1.3,2,.8,2.7.5.7,1.3,1,2.2,1s1.6-.3,2.1-1,.8-1.6.8-2.8-.3-1.9-.8-2.5c-.5-.7-1.3-1-2.2-1s-1.7.3-2.2,1-.8,1.6-.8,2.6ZM615.5,422.8c1.3,0,2.2.2,2.8.7.6.5.8,1.1.8,1.9v5.6c0,.4.2.5.5.5s.2,0,.2,0c0,0,.2,0,.2,0v1.2c-.1,0-.3.1-.5.2-.2,0-.4,0-.6,0-.4,0-.8-.1-1-.4s-.3-.6-.3-1.1c-.4.5-.9.9-1.5,1.1-.6.2-1.2.4-1.9.4s-1.8-.2-2.3-.7c-.6-.5-.8-1.2-.8-2s.3-1.5.8-2c.6-.5,1.9-.9,3.9-1.2.7,0,1.2-.2,1.4-.4.2-.2.4-.4.4-.8,0-.5-.2-.9-.5-1.2-.3-.3-.9-.4-1.6-.4s-1.4.2-1.8.5c-.4.3-.6.8-.6,1.4h-1.6c0-1.1.4-1.9,1.1-2.4.7-.5,1.7-.8,3-.8ZM612.7,430c0,.4.2.8.5,1,.3.2.8.4,1.4.4.9,0,1.6-.2,2.1-.7.5-.4.8-.9.8-1.5v-1.7c-.3.2-.6.3-1,.4-.4,0-1,.1-1.7.2-.7.1-1.2.3-1.6.6s-.5.7-.5,1.2ZM623.2,423v6.6c0,.5.2,1,.5,1.4.4.4.8.5,1.5.5.9,0,1.6-.3,2.1-.8.5-.6.8-1.3.8-2.1v-5.5h1.6v9.6h-1.5v-1.5h0c-.4.6-.8,1.1-1.3,1.3s-1.1.4-1.8.4c-1.1,0-2-.3-2.5-.9-.5-.6-.8-1.4-.8-2.6v-6.4h1.6ZM634.4,430.6v2c0,.7-.2,1.3-.5,1.8-.3.5-.8.8-1.5,1v-.9c.3-.1.6-.3.8-.6.2-.3.3-.7.3-1.1h0c0,0-1.1,0-1.1,0v-2.1h2.1ZM646.3,422.8c1.4,0,2.5.5,3.2,1.5.8,1,1.2,2.3,1.2,3.8v.2h-7.2c0,1,.3,1.8.8,2.3.5.6,1.3.8,2.2.8s1.3-.2,1.7-.5c.4-.3.7-.8.8-1.4h1.6c-.2,1.1-.7,1.9-1.4,2.5s-1.6.8-2.7.8-1.9-.2-2.6-.7c-.7-.5-1.2-1.1-1.5-1.9-.3-.8-.5-1.7-.5-2.5,0-1.4.4-2.6,1.3-3.6.9-.9,1.9-1.4,3.2-1.4ZM643.5,426.9h5.5c0-.8-.3-1.4-.9-1.9-.5-.5-1.2-.8-1.9-.8s-1.4.2-1.9.7c-.5.5-.8,1.2-.9,2ZM654.5,420.1v2.9h1.9v1.4h-1.9v6c0,.5.2.7.5.8.3,0,.7,0,1,0h.4v1.4h-1.3c-.9,0-1.5-.2-1.8-.5-.3-.3-.4-.8-.4-1.6v-6.2h-1.7v-1.4h1.7v-2.9h1.6ZM662.2,422.8c1.2,0,2.1.3,2.9.8.7.6,1.2,1.4,1.3,2.5h-1.6c-.1-.6-.4-1.1-.8-1.4-.4-.3-.9-.5-1.6-.5-1,0-1.7.3-2.2,1s-.8,1.6-.8,2.8.2,1.9.8,2.6c.5.6,1.2,1,2.1,1s1.4-.2,1.8-.6c.4-.4.7-1,.8-1.7h1.6c-.2,1.2-.6,2.1-1.4,2.8-.7.6-1.7,1-2.9,1s-2.5-.4-3.3-1.3-1.2-2.1-1.2-3.6.4-2.8,1.2-3.8c.8-.9,1.9-1.4,3.3-1.4ZM670.6,430.6v2.1h-2.1v-2.1h2.1Z"/>
  <path class="cls-2" d="M71,95.3h972v119.1H71v-119.1Z"/>
  <path class="cls-4" d="M147.9,147.3l6.4,10.2h0v-10.2h3.1v15.2h-3.3l-6.3-10.2h0v10.2h-3.1v-15.2h3.3ZM165.1,151.2c1.6,0,2.8.3,3.6.8.8.5,1.2,1.3,1.2,2.2v5.9c0,.4,0,.9,0,1.3,0,.4.2.8.3,1h-3.1c0-.2,0-.3-.1-.5,0-.2,0-.4,0-.5-.4.4-.9.8-1.6,1-.6.2-1.3.3-2.1.3-1.1,0-2-.3-2.7-.9-.7-.6-1-1.4-1-2.5s.3-1.8,1-2.3c.6-.6,1.8-.9,3.5-1.1,1.2-.1,1.9-.3,2.3-.4.4-.2.6-.5.6-.9s-.1-.9-.4-1.1c-.3-.2-.8-.4-1.5-.4s-1.1.1-1.4.4c-.3.3-.5.7-.6,1.2h-3c0-1.2.6-2.1,1.5-2.7.9-.6,2.2-.9,3.7-.9ZM162.6,159.4c0,.4.2.8.5,1,.3.2.8.4,1.4.4s1.4-.2,1.8-.6c.4-.4.6-1,.6-1.9v-1.2c-.2.1-.4.3-.7.3-.3,0-.8.2-1.6.3-.7,0-1.2.3-1.5.5-.3.3-.5.6-.5,1.1ZM177.6,151.2c1.4,0,2.6.4,3.6,1.1,1,.7,1.5,1.8,1.6,3.1h-3c0-.6-.3-1.1-.7-1.4-.4-.3-.9-.5-1.5-.5s-1.4.3-1.9,1c-.4.7-.7,1.5-.7,2.6s.2,1.9.7,2.5c.4.6,1.1.9,1.9.9s1.2-.2,1.6-.6c.4-.4.7-.9.8-1.7h2.9c-.2,1.5-.8,2.6-1.7,3.4-.9.8-2.1,1.2-3.6,1.2s-3-.5-4-1.6c-1-1.1-1.5-2.4-1.5-4.1s.5-3.2,1.5-4.3c1-1.1,2.4-1.6,4.1-1.6ZM187.6,147.3v5.7h0c.3-.6.8-1,1.4-1.3.6-.3,1.2-.5,1.9-.5,1.4,0,2.4.4,3.1,1.1.6.7,1,1.8,1,3.3v6.9h-3v-6.3c0-.9-.2-1.5-.5-1.9-.3-.4-.8-.7-1.5-.7s-1.4.2-1.8.8c-.4.5-.5,1.3-.5,2.3v5.9h-3v-15.2h3ZM200.2,147.3v5.7h0c.3-.6.8-1,1.4-1.3.6-.3,1.2-.5,1.9-.5,1.4,0,2.4.4,3.1,1.1.6.7,1,1.8,1,3.3v6.9h-3v-6.3c0-.9-.2-1.5-.5-1.9-.3-.4-.8-.7-1.5-.7s-1.4.2-1.8.8c-.4.5-.5,1.3-.5,2.3v5.9h-3v-15.2h3ZM214.9,151.2c1.6,0,2.8.3,3.6.8.8.5,1.2,1.3,1.2,2.2v5.9c0,.4,0,.9,0,1.3,0,.4.2.8.3,1h-3.1c0-.2,0-.3-.1-.5,0-.2,0-.4,0-.5-.4.4-.9.8-1.6,1-.6.2-1.3.3-2.1.3-1.1,0-2-.3-2.7-.9-.7-.6-1-1.4-1-2.5s.3-1.8,1-2.3c.6-.6,1.8-.9,3.5-1.1,1.2-.1,1.9-.3,2.3-.4.4-.2.6-.5.6-.9s-.1-.9-.4-1.1c-.3-.2-.8-.4-1.5-.4s-1.1.1-1.4.4c-.3.3-.5.7-.6,1.2h-3c0-1.2.6-2.1,1.5-2.7.9-.6,2.2-.9,3.7-.9ZM212.4,159.4c0,.4.2.8.5,1,.3.2.8.4,1.4.4s1.4-.2,1.8-.6c.4-.4.6-1,.6-1.9v-1.2c-.2.1-.4.3-.7.3-.3,0-.8.2-1.6.3-.7,0-1.2.3-1.5.5-.3.3-.5.6-.5,1.1ZM225.2,147.3v15.2h-3v-15.2h3ZM231.4,148.2v3.3h2.2v2h-2.2v5.5c0,.4,0,.8.2.9.2.2.5.3,1,.3s.3,0,.5,0c.2,0,.3,0,.4,0v2.4c-.2,0-.5,0-.8,0-.3,0-.6,0-.9,0-1.3,0-2.2-.2-2.7-.7-.5-.4-.8-1.1-.8-1.9v-6.6h-1.8v-2h1.8v-3.3h3ZM238.2,147.3v2.5h-3v-2.5h3ZM238.2,151.5v11h-3v-11h3ZM245,151.2c.8,0,1.5.2,2,.5.5.3,1,.7,1.3,1.3h0v-1.5h2.9v10.4c0,1.5-.5,2.6-1.4,3.5-.9.9-2.4,1.3-4.3,1.3s-2.4-.3-3.3-.9c-.9-.6-1.4-1.5-1.5-2.6h3c.1.5.4.9.8,1.2.4.2.9.4,1.5.4s1.4-.2,1.8-.7c.4-.5.6-1.1.6-2v-1.5h0c-.3.5-.7,1-1.3,1.3-.6.3-1.2.4-2,.4-1.5,0-2.6-.5-3.5-1.5-.8-1-1.2-2.3-1.2-4.1s.4-2.9,1.3-3.9c.9-1,2-1.6,3.4-1.6ZM243.3,156.6c0,1,.2,1.8.6,2.4.4.6,1,.9,1.8.9s1.4-.3,1.9-.9c.5-.6.7-1.3.7-2.2s-.2-1.9-.7-2.5c-.4-.6-1.1-.9-1.9-.9s-1.3.3-1.8.9c-.4.6-.7,1.3-.7,2.3ZM258.7,151.2c1.6,0,2.9.6,3.9,1.7,1,1.1,1.5,2.5,1.5,4.3v.6h-8c0,.9.3,1.7.8,2.1.5.5,1.1.7,2,.7s1.1-.1,1.5-.4c.5-.3.8-.6.9-1h2.7c-.4,1.2-1,2.2-1.9,2.8-.9.6-1.9.9-3.3.9s-3.1-.5-4.1-1.6c-1-1.1-1.5-2.5-1.5-4.2s.5-3,1.6-4.1c1.1-1.1,2.4-1.7,4.1-1.7ZM256.1,155.8h4.9c-.1-.8-.4-1.4-.8-1.8-.4-.4-.9-.6-1.6-.6s-1.3.2-1.8.6c-.4.4-.7,1-.8,1.7ZM283.5,147.3v2.8h-8v3.2h7.4v2.6h-7.4v3.7h8.2v2.8h-11.6v-15.2h11.4ZM291.9,151.2c1.4,0,2.4.4,3.1,1.1.6.7,1,1.8,1,3.4v6.9h-3v-6.3c0-.9-.2-1.5-.5-1.9-.3-.4-.8-.7-1.5-.7s-1.4.2-1.8.8-.5,1.3-.5,2.3v5.9h-3v-11h2.9v1.5h0c.4-.6.8-1,1.4-1.4s1.2-.5,2-.5ZM302.1,148.2v3.3h2.2v2h-2.2v5.5c0,.4,0,.8.2.9.2.2.5.3,1,.3s.3,0,.5,0c.2,0,.3,0,.4,0v2.4c-.2,0-.5,0-.8,0-.3,0-.6,0-.9,0-1.3,0-2.2-.2-2.7-.7-.5-.4-.8-1.1-.8-1.9v-6.6h-1.8v-2h1.8v-3.3h3ZM307.9,151.5l2,7.5h0l1.8-7.5h2.9l1.9,7.5h0l2-7.5h3.1l-3.5,11h-3.1l-2-7.4h0l-1.9,7.4h-3.1l-3.5-11h3.2ZM326.2,147.3v2.5h-3v-2.5h3ZM326.2,151.5v11h-3v-11h3ZM333.9,151.2c1.4,0,2.6.4,3.6,1.1,1,.7,1.5,1.8,1.6,3.1h-3c0-.6-.3-1.1-.7-1.4-.4-.3-.9-.5-1.5-.5s-1.4.3-1.9,1c-.4.7-.7,1.5-.7,2.6s.2,1.9.7,2.5c.4.6,1.1.9,1.9.9s1.2-.2,1.6-.6c.4-.4.7-.9.8-1.7h2.9c-.2,1.5-.8,2.6-1.7,3.4-.9.8-2.1,1.2-3.6,1.2s-3-.5-4-1.6c-1-1.1-1.5-2.4-1.5-4.1s.5-3.2,1.5-4.3c1-1.1,2.4-1.6,4.1-1.6ZM344.2,147.3v8.2l3.8-4h3.6l-4.2,4,4.6,7h-3.7l-3-4.9-1.2,1.1v3.8h-3v-15.2h3ZM356.2,147.3v15.2h-3v-15.2h3ZM361.6,151.5v6.3c0,.8.1,1.5.4,1.9.3.4.8.7,1.5.7s1.4-.2,1.8-.8c.4-.5.5-1.3.5-2.3v-5.9h3v11h-2.9v-1.5h0c-.4.6-.9,1.1-1.5,1.4s-1.2.5-1.9.5c-1.4,0-2.4-.3-3-1-.6-.7-1-1.8-1-3.4v-6.9h3ZM377.6,151.2c1.4,0,2.4.4,3.1,1.1.6.7,1,1.8,1,3.4v6.9h-3v-6.3c0-.9-.2-1.5-.5-1.9-.3-.4-.8-.7-1.5-.7s-1.4.2-1.8.8c-.4.5-.5,1.3-.5,2.3v5.9h-3v-11h2.9v1.5h0c.4-.6.8-1,1.4-1.4s1.2-.5,2-.5ZM388.3,151.2c.8,0,1.5.2,2,.5.5.3,1,.7,1.3,1.3h0v-1.5h2.9v10.4c0,1.5-.5,2.6-1.4,3.5-.9.9-2.4,1.3-4.3,1.3s-2.4-.3-3.3-.9c-.9-.6-1.4-1.5-1.5-2.6h3c.1.5.4.9.8,1.2.4.2.9.4,1.5.4s1.4-.2,1.8-.7c.4-.5.6-1.1.6-2v-1.5h0c-.3.5-.7,1-1.3,1.3-.6.3-1.2.4-2,.4-1.5,0-2.6-.5-3.5-1.5-.8-1-1.2-2.3-1.2-4.1s.4-2.9,1.3-3.9c.9-1,2-1.6,3.4-1.6ZM386.6,156.6c0,1,.2,1.8.6,2.4.4.6,1,.9,1.8.9s1.4-.3,1.9-.9c.5-.6.7-1.3.7-2.2s-.2-1.9-.7-2.5c-.4-.6-1.1-.9-1.9-.9s-1.3.3-1.8.9c-.4.6-.7,1.3-.7,2.3ZM405.9,151.5v6.3c0,.8.1,1.5.4,1.9.3.4.8.7,1.5.7s1.4-.2,1.8-.8c.4-.5.5-1.3.5-2.3v-5.9h3v11h-2.9v-1.5h0c-.4.6-.9,1.1-1.5,1.4-.6.3-1.2.5-1.9.5-1.4,0-2.4-.3-3-1-.6-.7-1-1.8-1-3.4v-6.9h3ZM421.8,151.2c1.4,0,2.4.4,3.1,1.1.6.7,1,1.8,1,3.4v6.9h-3v-6.3c0-.9-.2-1.5-.5-1.9-.3-.4-.8-.7-1.5-.7s-1.4.2-1.8.8c-.4.5-.5,1.3-.5,2.3v5.9h-3v-11h2.9v1.5h0c.4-.6.8-1,1.4-1.4.6-.3,1.2-.5,2-.5ZM438.9,147.3v15.2h-2.9v-1.4h0c-.3.6-.8,1-1.4,1.3-.6.3-1.2.4-2,.4-1.5,0-2.7-.6-3.6-1.7-.9-1.1-1.3-2.5-1.3-4.2s.4-3,1.3-4.1c.9-1.1,2.1-1.6,3.6-1.6s1.3.1,1.9.4c.6.3,1,.7,1.4,1.2h0v-5.5h3ZM430.7,157c0,1,.2,1.9.7,2.5.5.7,1.1,1,2,1s1.5-.3,1.9-.9c.4-.6.7-1.5.7-2.6s-.2-1.9-.7-2.5c-.4-.6-1.1-1-2-1s-1.5.3-2,1c-.5.6-.7,1.5-.7,2.6ZM455,147.3l5.7,15.2h-3.5l-1.1-3.4h-5.7l-1.2,3.4h-3.4l5.8-15.2h3.4ZM453.2,151l-2,5.6h4l-1.9-5.6h0ZM464.7,151.5v6.3c0,.8.1,1.5.4,1.9.3.4.8.7,1.5.7s1.4-.2,1.8-.8c.4-.5.5-1.3.5-2.3v-5.9h3v11h-2.9v-1.5h0c-.4.6-.9,1.1-1.5,1.4-.6.3-1.2.5-1.9.5-1.4,0-2.4-.3-3-1-.6-.7-1-1.8-1-3.4v-6.9h3ZM478.7,147.3c.2,0,.5,0,.8,0,.4,0,.6,0,.8,0v2.3c-.2,0-.4,0-.6,0-.2,0-.3,0-.5,0-.4,0-.7,0-.9.3-.2.2-.3.6-.3,1.1v.5h2.1v2h-2.1v9h-3v-9h-1.8v-2h1.8v-.8c0-1.1.3-2,1-2.6.7-.6,1.6-.9,2.7-.9ZM483.6,151.5l2,7.5h0l1.8-7.5h2.9l1.9,7.5h0l2-7.5h3.1l-3.5,11h-3.1l-2-7.4h0l-1.9,7.4h-3.1l-3.5-11h3.2ZM503.9,151.2c1.6,0,2.9.6,3.9,1.7,1,1.1,1.5,2.5,1.5,4.3v.6h-8c0,.9.3,1.7.8,2.1.5.5,1.1.7,2,.7s1.1-.1,1.5-.4c.5-.3.8-.6.9-1h2.7c-.4,1.2-1,2.2-1.9,2.8-.9.6-1.9.9-3.3.9s-3.1-.5-4.1-1.6c-1-1.1-1.5-2.5-1.5-4.2s.5-3,1.6-4.1c1.1-1.1,2.4-1.7,4.1-1.7ZM501.3,155.8h4.9c-.1-.8-.4-1.4-.8-1.8-.4-.4-.9-.6-1.6-.6s-1.3.2-1.8.6c-.4.4-.7,1-.8,1.7ZM517.5,151.2c.1,0,.3,0,.4,0,.1,0,.2,0,.3,0v2.8c-.2,0-.3,0-.5,0-.2,0-.3,0-.6,0-1,0-1.8.3-2.3.9-.5.6-.7,1.5-.7,2.5v5.1h-3v-11h2.9v2h0c.3-.7.8-1.3,1.4-1.7.6-.4,1.3-.6,2.1-.6ZM523.2,148.2v3.3h2.2v2h-2.2v5.5c0,.4,0,.8.2.9.2.2.5.3,1,.3s.3,0,.5,0c.2,0,.3,0,.4,0v2.4c-.2,0-.5,0-.8,0-.3,0-.6,0-.9,0-1.3,0-2.2-.2-2.7-.7-.5-.4-.8-1.1-.8-1.9v-6.6h-1.8v-2h1.8v-3.3h3ZM529.9,151.5v6.3c0,.8.1,1.5.4,1.9.3.4.8.7,1.5.7s1.4-.2,1.8-.8c.4-.5.5-1.3.5-2.3v-5.9h3v11h-2.9v-1.5h0c-.4.6-.9,1.1-1.5,1.4-.6.3-1.2.5-1.9.5-1.4,0-2.4-.3-3-1-.6-.7-1-1.8-1-3.4v-6.9h3ZM545.9,151.2c1.4,0,2.4.4,3.1,1.1.6.7,1,1.8,1,3.4v6.9h-3v-6.3c0-.9-.2-1.5-.5-1.9-.3-.4-.8-.7-1.5-.7s-1.4.2-1.8.8c-.4.5-.5,1.3-.5,2.3v5.9h-3v-11h2.9v1.5h0c.4-.6.8-1,1.4-1.4s1.2-.5,2-.5ZM556.6,151.2c.8,0,1.5.2,2,.5.5.3,1,.7,1.3,1.3h0v-1.5h2.9v10.4c0,1.5-.5,2.6-1.4,3.5-.9.9-2.4,1.3-4.3,1.3s-2.4-.3-3.3-.9c-.9-.6-1.4-1.5-1.5-2.6h3c.1.5.4.9.8,1.2.4.2.9.4,1.5.4s1.4-.2,1.8-.7c.4-.5.6-1.1.6-2v-1.5h0c-.3.5-.7,1-1.3,1.3-.6.3-1.2.4-2,.4-1.5,0-2.6-.5-3.5-1.5-.8-1-1.2-2.3-1.2-4.1s.4-2.9,1.3-3.9c.9-1,2-1.6,3.4-1.6ZM554.9,156.6c0,1,.2,1.8.6,2.4.4.6,1,.9,1.8.9s1.4-.3,1.9-.9c.5-.6.7-1.3.7-2.2s-.2-1.9-.7-2.5c-.4-.6-1.1-.9-1.9-.9s-1.3.3-1.8.9c-.4.6-.7,1.3-.7,2.3ZM574.8,147.3v15.2h-3.4v-15.2h3.4ZM583.8,151.2c.8,0,1.5.2,2,.5.5.3.9.8,1.2,1.4.4-.6.9-1,1.5-1.4s1.2-.5,1.9-.5c1.3,0,2.3.3,3,1,.7.7,1,1.6,1,2.8v7.5h-3v-6.4c0-1-.2-1.7-.5-2-.3-.4-.8-.5-1.4-.5s-1.2.2-1.5.7c-.3.5-.5,1.1-.5,2v6.2h-3v-6.8c0-.7-.1-1.3-.4-1.6-.3-.4-.7-.5-1.4-.5s-1.1.2-1.5.7c-.4.4-.6,1-.6,1.8v6.5h-3v-11h2.9v1.5h0c.4-.6.9-1.1,1.5-1.3.6-.3,1.2-.4,1.9-.4ZM603.1,151.2c.8,0,1.5.2,2,.5.5.3.9.8,1.2,1.4.4-.6.9-1,1.5-1.4.6-.3,1.2-.5,1.9-.5,1.3,0,2.3.3,3,1,.7.7,1,1.6,1,2.8v7.5h-3v-6.4c0-1-.2-1.7-.5-2-.3-.4-.8-.5-1.4-.5s-1.2.2-1.5.7c-.3.5-.5,1.1-.5,2v6.2h-3v-6.8c0-.7-.1-1.3-.4-1.6-.3-.4-.7-.5-1.4-.5s-1.1.2-1.5.7c-.4.4-.6,1-.6,1.8v6.5h-3v-11h2.9v1.5h0c.4-.6.9-1.1,1.5-1.3.6-.3,1.2-.4,1.9-.4ZM621.5,151.2c1.7,0,3.1.5,4.1,1.6,1,1.1,1.6,2.5,1.6,4.2s-.5,3.2-1.6,4.2c-1,1.1-2.4,1.6-4.1,1.6s-3.1-.5-4.1-1.6c-1-1.1-1.6-2.5-1.6-4.2s.5-3.1,1.5-4.2c1-1.1,2.4-1.6,4.2-1.6ZM618.8,157c0,1.2.2,2,.7,2.6.5.6,1.1.9,2,.9s1.5-.3,2-.9c.5-.6.7-1.5.7-2.6s-.2-2-.7-2.6c-.4-.6-1.1-1-2-1s-1.5.3-1.9.9c-.5.6-.7,1.5-.7,2.7ZM632.1,147.3v5.5h0c.3-.5.8-.9,1.4-1.2.6-.3,1.3-.4,2.1-.4,1.3,0,2.4.5,3.2,1.6.9,1,1.3,2.5,1.3,4.2s-.4,3.2-1.3,4.2c-.9,1.1-2,1.6-3.3,1.6s-1.6-.1-2.2-.4c-.6-.3-1.1-.7-1.4-1.3h0v1.4h-2.9v-15.2h3ZM632,157c0,1.1.2,1.9.7,2.5.5.6,1.1,1,1.9,1s1.4-.3,1.9-1c.5-.6.7-1.5.7-2.5s-.2-1.9-.7-2.6c-.4-.7-1.1-1-1.9-1s-1.4.3-1.9,1c-.5.6-.7,1.5-.7,2.6ZM645.3,147.3v2.5h-3v-2.5h3ZM645.3,151.5v11h-3v-11h3ZM650.8,147.3v15.2h-3v-15.2h3ZM656.3,147.3v2.5h-3v-2.5h3ZM656.3,151.5v11h-3v-11h3ZM663.7,151.2c1.6,0,2.9.6,3.9,1.7,1,1.1,1.5,2.5,1.5,4.3v.6h-8c0,.9.3,1.7.8,2.1.5.5,1.1.7,2,.7s1.1-.1,1.5-.4c.5-.3.8-.6.9-1h2.7c-.4,1.2-1,2.2-1.9,2.8-.9.6-1.9.9-3.3.9s-3.1-.5-4.1-1.6c-1-1.1-1.5-2.5-1.5-4.2s.5-3,1.6-4.1c1.1-1.1,2.4-1.7,4.1-1.7ZM661.1,155.8h4.9c-.1-.8-.4-1.4-.8-1.8-.4-.4-.9-.6-1.6-.6s-1.3.2-1.8.6c-.4.4-.7,1-.8,1.7ZM674.4,151.7v3.3h-3.3v-3.3h3.3ZM674.4,159.2v3.3h-3.3v-3.3h3.3ZM690.3,147.3c1.6,0,2.7.3,3.5.9.8.6,1.2,1.6,1.2,2.8,0,.8-.2,1.4-.5,2-.4.5-.9.9-1.5,1.2.9.3,1.6.8,2.1,1.4.5.7.7,1.5.7,2.5,0,1.4-.5,2.5-1.5,3.3-1,.8-2.3,1.2-3.8,1.2h-7.5v-15.2h7.3ZM689.9,153.4c.6,0,1.1-.2,1.5-.5.4-.3.5-.8.5-1.4,0-.6-.2-1-.6-1.3-.4-.3-.9-.4-1.7-.4h-3.2v3.6h3.4ZM690.1,159.9c.8,0,1.3-.2,1.8-.5.4-.3.6-.8.6-1.5,0-.7-.2-1.2-.6-1.6-.4-.4-1-.6-1.7-.6h-3.7v4.2h3.7ZM702.9,151.2c1.6,0,2.9.6,3.9,1.7,1,1.1,1.5,2.5,1.5,4.3v.6h-8c0,.9.3,1.7.8,2.1.5.5,1.1.7,2,.7s1.1-.1,1.5-.4c.5-.3.8-.6.9-1h2.7c-.4,1.2-1,2.2-1.9,2.8-.9.6-1.9.9-3.3.9s-3.1-.5-4.1-1.6c-1-1.1-1.5-2.5-1.5-4.2s.5-3,1.6-4.1c1.1-1.1,2.4-1.7,4.1-1.7ZM700.2,155.8h4.9c-.1-.8-.4-1.4-.8-1.8-.4-.4-.9-.6-1.6-.6s-1.3.2-1.8.6c-.4.4-.7,1-.8,1.7ZM714.5,151.2c1.5,0,2.7.3,3.5.9.8.6,1.3,1.5,1.4,2.6h-2.9c0-.5-.2-.9-.6-1.1-.3-.2-.8-.4-1.5-.4s-1,0-1.3.3c-.3.2-.4.4-.4.8,0,.3.2.6.5.8.4.2,1.1.4,2.1.6,1.7.3,2.8.7,3.4,1.3.6.5.9,1.2.9,2,0,1.2-.5,2.2-1.4,2.9-.9.6-2.1,1-3.7,1s-2.7-.3-3.7-1c-.9-.6-1.4-1.6-1.5-2.9h2.9c0,.6.2,1,.7,1.4.4.3,1,.5,1.7.5s1.1-.1,1.4-.4c.4-.2.6-.6.6-1,0-.4-.2-.7-.7-.9-.5-.2-1.4-.5-2.6-.8-1.3-.2-2.2-.6-2.7-1.1-.6-.5-.8-1.1-.8-1.9,0-1.2.4-2,1.2-2.6.8-.6,2-.9,3.6-.9ZM725.3,148.2v3.3h2.2v2h-2.2v5.5c0,.4,0,.8.2.9.2.2.5.3,1,.3s.3,0,.5,0c.2,0,.3,0,.4,0v2.4c-.2,0-.5,0-.8,0-.3,0-.6,0-.9,0-1.3,0-2.2-.2-2.7-.7-.5-.4-.8-1.1-.8-1.9v-6.6h-1.8v-2h1.8v-3.3h3ZM735.4,155.4v2.6h-6.4v-2.6h6.4ZM745,147.3c1.6,0,2.8.4,3.8,1.3.9.9,1.4,2.1,1.4,3.5s-.5,2.7-1.4,3.5c-.9.9-2.2,1.3-3.8,1.3h-3.6v5.5h-3.4v-15.2h7ZM744,154.4c1,0,1.7-.2,2.1-.5.5-.4.7-.9.7-1.8s-.2-1.3-.7-1.7c-.4-.4-1.2-.6-2.2-.6h-2.7v4.6h2.7ZM758,151.2c.1,0,.3,0,.4,0,.1,0,.2,0,.3,0v2.8c-.2,0-.3,0-.5,0-.2,0-.3,0-.6,0-1,0-1.8.3-2.3.9-.5.6-.7,1.5-.7,2.5v5.1h-3v-11h2.9v2h0c.3-.7.8-1.3,1.4-1.7.6-.4,1.3-.6,2.1-.6ZM764.6,151.2c1.6,0,2.8.3,3.6.8.8.5,1.2,1.3,1.2,2.2v5.9c0,.4,0,.9,0,1.3,0,.4.2.8.3,1h-3.1c0-.2,0-.3-.1-.5,0-.2,0-.4,0-.5-.4.4-.9.8-1.6,1-.6.2-1.3.3-2.1.3-1.1,0-2-.3-2.7-.9-.7-.6-1-1.4-1-2.5s.3-1.8,1-2.3c.6-.6,1.8-.9,3.5-1.1,1.2-.1,1.9-.3,2.3-.4.4-.2.6-.5.6-.9s-.1-.9-.4-1.1c-.3-.2-.8-.4-1.5-.4s-1.1.1-1.4.4c-.3.3-.5.7-.6,1.2h-3c0-1.2.6-2.1,1.5-2.7.9-.6,2.2-.9,3.7-.9ZM762.1,159.4c0,.4.2.8.5,1,.3.2.8.4,1.4.4s1.4-.2,1.8-.6c.4-.4.6-1,.6-1.9v-1.2c-.2.1-.4.3-.7.3-.3,0-.8.2-1.6.3-.7,0-1.2.3-1.5.5-.3.3-.5.6-.5,1.1ZM777.1,151.2c1.4,0,2.6.4,3.6,1.1,1,.7,1.5,1.8,1.6,3.1h-3c0-.6-.3-1.1-.7-1.4-.4-.3-.9-.5-1.5-.5s-1.4.3-1.9,1c-.4.7-.7,1.5-.7,2.6,0,1.1.2,1.9.7,2.5.4.6,1.1.9,1.9.9s1.2-.2,1.6-.6c.4-.4.7-.9.8-1.7h2.9c-.2,1.5-.8,2.6-1.7,3.4-.9.8-2.1,1.2-3.6,1.2s-3-.5-4-1.6c-1-1.1-1.5-2.4-1.5-4.1,0-1.8.5-3.2,1.5-4.3,1-1.1,2.4-1.6,4.1-1.6ZM787.9,148.2v3.3h2.2v2h-2.2v5.5c0,.4,0,.8.2.9.2.2.5.3,1,.3s.3,0,.5,0c.2,0,.3,0,.4,0v2.4c-.2,0-.5,0-.8,0-.3,0-.6,0-.9,0-1.3,0-2.2-.2-2.7-.7-.5-.4-.8-1.1-.8-1.9v-6.6h-1.8v-2h1.8v-3.3h3ZM794.6,147.3v2.5h-3v-2.5h3ZM794.6,151.5v11h-3v-11h3ZM802.3,151.2c1.4,0,2.6.4,3.6,1.1,1,.7,1.5,1.8,1.6,3.1h-3c0-.6-.3-1.1-.7-1.4-.4-.3-.9-.5-1.5-.5s-1.4.3-1.9,1c-.4.7-.7,1.5-.7,2.6s.2,1.9.7,2.5c.4.6,1.1.9,1.9.9s1.2-.2,1.6-.6c.4-.4.7-.9.8-1.7h2.9c-.2,1.5-.8,2.6-1.7,3.4-.9.8-2.1,1.2-3.6,1.2s-3-.5-4-1.6c-1-1.1-1.5-2.4-1.5-4.1s.5-3.2,1.5-4.3c1-1.1,2.4-1.6,4.1-1.6ZM814.4,151.2c1.6,0,2.9.6,3.9,1.7,1,1.1,1.5,2.5,1.5,4.3v.6h-8c0,.9.3,1.7.8,2.1.5.5,1.1.7,2,.7s1.1-.1,1.5-.4c.5-.3.8-.6.9-1h2.7c-.4,1.2-1,2.2-1.9,2.8-.9.6-1.9.9-3.3.9s-3.1-.5-4.1-1.6c-1-1.1-1.5-2.5-1.5-4.2s.5-3,1.6-4.1c1.1-1.1,2.4-1.7,4.1-1.7ZM811.8,155.8h4.9c-.1-.8-.4-1.4-.8-1.8-.4-.4-.9-.6-1.6-.6s-1.3.2-1.8.6c-.4.4-.7,1-.8,1.7ZM834.6,146.9c1.7,0,3.2.5,4.4,1.5,1.2,1,1.9,2.3,2.1,4h-3.2c-.1-.8-.5-1.4-1.2-1.9-.6-.5-1.4-.7-2.1-.7-1.3,0-2.3.5-3.1,1.4-.7.9-1.1,2.2-1.1,3.8s.4,2.7,1.1,3.7c.7.9,1.7,1.4,3.1,1.4s1.8-.3,2.3-.9,1-1.4,1.1-2.5h3.2c-.2,1.9-.9,3.5-2.1,4.6-1.2,1.1-2.7,1.7-4.6,1.7s-2.8-.3-3.9-1c-1.1-.7-2-1.6-2.7-2.8-.6-1.2-.9-2.6-.9-4.1,0-2.3.7-4.3,2-5.8,1.4-1.5,3.2-2.3,5.4-2.3ZM848.1,151.2c1.6,0,2.8.3,3.6.8.8.5,1.2,1.3,1.2,2.2v5.9c0,.4,0,.9,0,1.3,0,.4.2.8.3,1h-3.1c0-.2,0-.3-.1-.5,0-.2,0-.4,0-.5-.4.4-.9.8-1.6,1-.6.2-1.3.3-2.1.3-1.1,0-2-.3-2.7-.9-.7-.6-1-1.4-1-2.5,0-1,.3-1.8,1-2.3.6-.6,1.8-.9,3.5-1.1,1.2-.1,1.9-.3,2.3-.4.4-.2.6-.5.6-.9,0-.5-.1-.9-.4-1.1-.3-.2-.8-.4-1.5-.4s-1.1.1-1.4.4c-.3.3-.5.7-.6,1.2h-3c0-1.2.6-2.1,1.5-2.7.9-.6,2.2-.9,3.7-.9ZM845.6,159.4c0,.4.2.8.5,1,.3.2.8.4,1.4.4s1.4-.2,1.8-.6c.4-.4.6-1,.6-1.9v-1.2c-.2.1-.4.3-.7.3-.3,0-.8.2-1.6.3-.7,0-1.2.3-1.5.5-.3.3-.5.6-.5,1.1ZM859.8,151.2c1.5,0,2.7.3,3.5.9.8.6,1.3,1.5,1.4,2.6h-2.9c0-.5-.2-.9-.6-1.1-.3-.2-.8-.4-1.5-.4s-1,0-1.3.3c-.3.2-.4.4-.4.8s.2.6.5.8c.4.2,1.1.4,2.1.6,1.7.3,2.8.7,3.4,1.3.6.5.9,1.2.9,2,0,1.2-.5,2.2-1.4,2.9-.9.6-2.1,1-3.7,1s-2.8-.3-3.7-1c-.9-.6-1.4-1.6-1.5-2.9h2.9c0,.6.2,1,.7,1.4.4.3,1,.5,1.7.5s1.1-.1,1.4-.4c.4-.2.6-.6.6-1s-.2-.7-.7-.9c-.5-.2-1.4-.5-2.6-.8-1.3-.2-2.2-.6-2.7-1.1s-.8-1.1-.8-1.9c0-1.2.4-2,1.2-2.6.8-.6,2-.9,3.6-.9ZM871.8,151.2c1.6,0,2.9.6,3.9,1.7,1,1.1,1.5,2.5,1.5,4.3v.6h-8c0,.9.3,1.7.8,2.1.5.5,1.1.7,2,.7s1.1-.1,1.5-.4c.5-.3.8-.6.9-1h2.7c-.4,1.2-1,2.2-1.9,2.8-.9.6-1.9.9-3.3.9s-3.1-.5-4.1-1.6c-1-1.1-1.5-2.5-1.5-4.2s.5-3,1.6-4.1c1.1-1.1,2.4-1.7,4.1-1.7ZM869.2,155.8h4.9c-.1-.8-.4-1.4-.8-1.8-.4-.4-.9-.6-1.6-.6s-1.3.2-1.8.6c-.4.4-.7,1-.8,1.7ZM889.4,151.2c1.5,0,2.7.3,3.5.9.8.6,1.3,1.5,1.4,2.6h-2.9c0-.5-.2-.9-.6-1.1-.3-.2-.8-.4-1.5-.4s-1,0-1.3.3c-.3.2-.4.4-.4.8,0,.3.2.6.5.8.4.2,1.1.4,2.1.6,1.7.3,2.8.7,3.4,1.3.6.5.9,1.2.9,2,0,1.2-.5,2.2-1.4,2.9-.9.6-2.1,1-3.7,1s-2.8-.3-3.7-1c-.9-.6-1.4-1.6-1.5-2.9h2.9c0,.6.2,1,.7,1.4.4.3,1,.5,1.7.5s1.1-.1,1.4-.4c.4-.2.6-.6.6-1,0-.4-.2-.7-.7-.9-.5-.2-1.4-.5-2.6-.8-1.3-.2-2.2-.6-2.7-1.1-.6-.5-.8-1.1-.8-1.9,0-1.2.4-2,1.2-2.6.8-.6,2-.9,3.6-.9ZM901.6,151.2c1.4,0,2.6.4,3.6,1.1,1,.7,1.5,1.8,1.6,3.1h-3c0-.6-.3-1.1-.7-1.4-.4-.3-.9-.5-1.5-.5s-1.4.3-1.9,1c-.4.7-.7,1.5-.7,2.6s.2,1.9.7,2.5c.4.6,1.1.9,1.9.9s1.2-.2,1.6-.6c.4-.4.7-.9.8-1.7h2.9c-.2,1.5-.8,2.6-1.7,3.4-.9.8-2.1,1.2-3.6,1.2s-3-.5-4-1.6c-1-1.1-1.5-2.4-1.5-4.1s.5-3.2,1.5-4.3c1-1.1,2.4-1.6,4.1-1.6ZM911.6,147.3v5.7h0c.3-.6.8-1,1.4-1.3.6-.3,1.2-.5,1.9-.5,1.4,0,2.4.4,3.1,1.1.6.7,1,1.8,1,3.3v6.9h-3v-6.3c0-.9-.2-1.5-.5-1.9-.3-.4-.8-.7-1.5-.7s-1.4.2-1.8.8-.5,1.3-.5,2.3v5.9h-3v-15.2h3ZM926.3,151.2c1.6,0,2.8.3,3.6.8.8.5,1.2,1.3,1.2,2.2v5.9c0,.4,0,.9,0,1.3,0,.4.2.8.3,1h-3.1c0-.2,0-.3-.1-.5,0-.2,0-.4,0-.5-.4.4-.9.8-1.6,1-.6.2-1.3.3-2.1.3-1.1,0-2-.3-2.7-.9-.7-.6-1-1.4-1-2.5s.3-1.8,1-2.3c.6-.6,1.8-.9,3.5-1.1,1.2-.1,1.9-.3,2.3-.4.4-.2.6-.5.6-.9s-.1-.9-.4-1.1c-.3-.2-.8-.4-1.5-.4s-1.1.1-1.4.4c-.3.3-.5.7-.6,1.2h-3c0-1.2.6-2.1,1.5-2.7.9-.6,2.2-.9,3.7-.9ZM923.8,159.4c0,.4.2.8.5,1,.3.2.8.4,1.4.4s1.4-.2,1.8-.6c.4-.4.6-1,.6-1.9v-1.2c-.2.1-.4.3-.7.3-.3,0-.8.2-1.6.3-.7,0-1.2.3-1.5.5-.3.3-.5.6-.5,1.1ZM937.8,147.3c.2,0,.5,0,.8,0,.4,0,.6,0,.8,0v2.3c-.2,0-.4,0-.6,0-.2,0-.3,0-.5,0-.4,0-.7,0-.9.3-.2.2-.3.5-.3.9v.8h3.4v-.8c0-1.2.3-2.1,1-2.6.7-.6,1.6-.8,2.7-.8s.5,0,.9,0c.4,0,.6,0,.7,0v2.3c-.2,0-.4,0-.6,0-.2,0-.4,0-.5,0-.4,0-.7.1-.9.3-.2.2-.3.5-.2.8v.8h2.1v2h-2.1v9h-3v-9h-3.4v9h-3v-9h-1.8v-2h1.8v-.8c0-1.1.3-2,1-2.6.7-.6,1.6-.9,2.7-.9ZM952.1,151.2c1.6,0,2.9.6,3.9,1.7,1,1.1,1.5,2.5,1.5,4.3v.6h-8c0,.9.3,1.7.8,2.1.5.5,1.1.7,2,.7s1.1-.1,1.5-.4c.5-.3.8-.6.9-1h2.7c-.4,1.2-1,2.2-1.9,2.8-.9.6-1.9.9-3.3.9s-3.1-.5-4.1-1.6c-1-1.1-1.5-2.5-1.5-4.2s.5-3,1.6-4.1c1.1-1.1,2.4-1.7,4.1-1.7ZM949.5,155.8h4.9c-.1-.8-.4-1.4-.8-1.8-.4-.4-.9-.6-1.6-.6s-1.3.2-1.8.6c-.4.4-.7,1-.8,1.7ZM965.6,151.2c1.4,0,2.4.4,3.1,1.1.6.7,1,1.8,1,3.4v6.9h-3v-6.3c0-.9-.2-1.5-.5-1.9-.3-.4-.8-.7-1.5-.7s-1.4.2-1.8.8c-.4.5-.5,1.3-.5,2.3v5.9h-3v-11h2.9v1.5h0c.4-.6.8-1,1.4-1.4.6-.3,1.2-.5,2-.5Z"/>
</svg>