<svg xmlns="http://www.w3.org/2000/svg" width="169" height="85" fill="none"><g clip-path="url(#a)"><path d="M61.78 3.93c0 .339-.05.676-.15 1a2.57 2.57 0 0 1-.4.77 2.3 2.3 0 0 1-.6.52 2.8 2.8 0 0 1-.69.29c.294.048.577.153.83.31a2.599 2.599 0 0 1 1.13 1.39c.116.32.174.66.17 1 .009.421-.07.84-.23 1.23a2.52 2.52 0 0 1-.71 1 3.53 3.53 0 0 1-1.23.64 6.122 6.122 0 0 1-1.76.23h-2.32V1h2.19c.58-.01 1.16.06 1.72.21a3.1 3.1 0 0 1 1.18.58c.297.24.525.553.66.91.15.392.22.81.21 1.23ZM60.33 4a1.68 1.68 0 0 0-.56-1.3 2.55 2.55 0 0 0-1.76-.53h-.76v3.91h.76a2.48 2.48 0 0 0 1.75-.56A2 2 0 0 0 60.33 4Zm.21 5.23a1.84 1.84 0 0 0-.6-1.46 2.54 2.54 0 0 0-1.72-.53h-1v4h.89a2.84 2.84 0 0 0 1.9-.54 1.92 1.92 0 0 0 .54-1.49l-.01.02Zm8.82 3.17h-1.21v-.9c-.061.1-.131.193-.21.28a2.14 2.14 0 0 1-.42.37 3.54 3.54 0 0 1-.62.3 2.442 2.442 0 0 1-.8.13c-.34.01-.678-.04-1-.15a1.86 1.86 0 0 1-.72-.51 2.581 2.581 0 0 1-.45-.89 5.253 5.253 0 0 1-.15-1.36V4.49h1.33v5.08c-.043.5.073 1 .33 1.43a1.2 1.2 0 0 0 1 .42 1.68 1.68 0 0 0 1-.29 3.36 3.36 0 0 0 .62-.57v-6h1.33l-.03 7.84Zm6.36 0V7.34a2.41 2.41 0 0 0-.34-1.44 1.22 1.22 0 0 0-1-.44 1.56 1.56 0 0 0-1 .3 3.1 3.1 0 0 0-.62.58v6H71.4V4.49h1.22v.85c.058-.101.129-.195.21-.28a1.88 1.88 0 0 1 .43-.37 3 3 0 0 1 .62-.3c.27-.07.553-.087.83-.05.34-.01.678.04 1 .15.281.102.53.279.72.51.213.262.37.565.46.89.122.443.179.9.17 1.36v5.09l-1.34.06Zm3-3.83a5.66 5.66 0 0 1 .31-2 3.66 3.66 0 0 1 .81-1.3 2.8 2.8 0 0 1 1.17-.7 4.09 4.09 0 0 1 1.2-.23c.222-.01.444.01.66.06.16.022.315.07.46.14V.75L84.62.6v11.74H83.4v-.83c0 .06-.1.15-.18.27-.11.123-.23.237-.36.34-.177.13-.372.23-.58.3-.263.08-.536.12-.81.12a2.761 2.761 0 0 1-1.06-.2 2.35 2.35 0 0 1-.88-.71c-.277-.375-.48-.8-.6-1.25a6.82 6.82 0 0 1-.25-1.85l.04.04Zm3.08 2.83a2.1 2.1 0 0 0 .56-.08c.15-.054.295-.124.43-.21.11-.079.213-.166.31-.26a2.11 2.11 0 0 0 .19-.23V5.75a1.59 1.59 0 0 0-.42-.19 1.54 1.54 0 0 0-.6-.09 2.35 2.35 0 0 0-.87.16 1.58 1.58 0 0 0-.7.52 2.601 2.601 0 0 0-.47.94 5.12 5.12 0 0 0-.17 1.41c-.008.464.04.927.14 1.38.071.316.204.615.39.88a1.47 1.47 0 0 0 1.21.64Zm9.93-4.25c.02.293.02.587 0 .88.013.218-.007.438-.06.65h-4a3.52 3.52 0 0 0 .6 2.06 1.88 1.88 0 0 0 1.54.66 2.54 2.54 0 0 0 .62-.08 4.16 4.16 0 0 0 .49-.2l.34-.23.21-.18.49.93-.24.24a2.83 2.83 0 0 1-.45.32c-.221.11-.452.2-.69.27a4.202 4.202 0 0 1-1 .11c-.457 0-.911-.08-1.34-.24a2.62 2.62 0 0 1-1-.77 3.621 3.621 0 0 1-.65-1.32 6.533 6.533 0 0 1-.23-1.91 6.19 6.19 0 0 1 .24-1.82c.129-.46.35-.888.65-1.26a2.49 2.49 0 0 1 1-.73 2.79 2.79 0 0 1 1.17-.19 2.26 2.26 0 0 1 1.67.71 3.19 3.19 0 0 1 .64 2.1Zm-2.5-1.81a1.31 1.31 0 0 0-1.14.6 3.21 3.21 0 0 0-.49 1.71h2.88c.01-.08.01-.16 0-.24V7.1a2.09 2.09 0 0 0-.33-1.27 1.09 1.09 0 0 0-.92-.49Zm7.68.71a3.634 3.634 0 0 0-.48-.4 1.44 1.44 0 0 0-.9-.26 1.19 1.19 0 0 0-.81.25.78.78 0 0 0-.28.59c-.01.27.083.535.26.74.233.236.495.44.78.61l.49.3c.477.258.907.597 1.27 1 .329.413.493.933.46 1.46a2.15 2.15 0 0 1-.69 1.57 2.52 2.52 0 0 1-1.87.64 3.282 3.282 0 0 1-1.47-.33 2.606 2.606 0 0 1-.45-.28l-.3-.29.64-1.06.24.23c.11.09.22.18.34.26.142.08.289.15.44.21.189.052.384.079.58.08.322.017.64-.078.9-.27a.81.81 0 0 0 .32-.64c0-.163-.027-.325-.08-.48a1 1 0 0 0-.22-.37 2.167 2.167 0 0 0-.36-.32L95.23 9l-.5-.31a4.841 4.841 0 0 1-1.16-1 2.12 2.12 0 0 1-.38-1.35c0-.282.058-.561.17-.82a1.83 1.83 0 0 1 .49-.64 2.34 2.34 0 0 1 .73-.43 2.5 2.5 0 0 1 .9-.15 2.63 2.63 0 0 1 1.36.32c.14.078.27.172.39.28.094.072.18.152.26.24l-.58.91Zm6.5 6.3V7.34a2.603 2.603 0 0 0-.28-1.4.999.999 0 0 0-.9-.43 1.49 1.49 0 0 0-.59.09 1.54 1.54 0 0 0-.45.2 1.507 1.507 0 0 0-.35.27c-.09.1-.18.19-.24.27v6h-1.34V4.49h1.22v.85c.06-.08.14-.19.25-.32a2.32 2.32 0 0 1 .99-.65 2.35 2.35 0 0 1 .74-.11 1.997 1.997 0 0 1 1.91 1c.09-.128.194-.245.31-.35.138-.136.292-.254.46-.35a2.55 2.55 0 0 1 .59-.25 2.26 2.26 0 0 1 .73-.1c1.6 0 2.4.93 2.4 2.8v5.33h-1.33v-5a2.212 2.212 0 0 0-.35-1.4 1.241 1.241 0 0 0-1-.43 1.54 1.54 0 0 0-.93.27 4.03 4.03 0 0 0-.58.52v6.04l-1.26.01Zm8.8 0h-1.33V4.49h1.33v7.86Zm-.65-9.8a.859.859 0 0 1-.66-.27 1 1 0 0 1-.25-.69.89.89 0 0 1 .25-.62.919.919 0 0 1 1.3 0 1 1 0 0 1 .25.67 1 1 0 0 1-.25.69.842.842 0 0 1-.64.25v-.03Zm7 9.8V7.34a2.41 2.41 0 0 0-.34-1.44 1.217 1.217 0 0 0-1-.44 1.56 1.56 0 0 0-1 .3 3.13 3.13 0 0 0-.62.58v6h-1.33V4.49h1.21v.85c.059-.101.129-.195.21-.28.124-.144.269-.27.43-.37a3 3 0 0 1 .62-.3 2.16 2.16 0 0 1 .83-.13c.34-.01.678.04 1 .15.281.102.53.279.72.51.22.258.381.562.47.89.113.444.167.902.16 1.36v5.17l-1.36.01Zm4.65 0h-1.33V4.49h1.33v7.86Zm-.65-9.8a.859.859 0 0 1-.66-.27 1 1 0 0 1-.25-.69.902.902 0 0 1 1.55-.67c.159.186.245.425.24.67a1 1 0 0 1-.24.69.87.87 0 0 1-.63.27h-.01Zm6.1 3.5a3.634 3.634 0 0 0-.48-.4 1.44 1.44 0 0 0-.9-.26c-.292-.019-.58.07-.81.25a.783.783 0 0 0-.28.59c-.01.27.083.535.26.74.233.236.495.44.78.61l.49.3a4.76 4.76 0 0 1 1.27 1c.32.402.483.907.46 1.42a2.148 2.148 0 0 1-.65 1.58 2.61 2.61 0 0 1-1.87.64 3.282 3.282 0 0 1-1.47-.33 2.417 2.417 0 0 1-.46-.22l-.3-.29.64-1.06.24.23c.11.09.22.18.34.26.142.08.289.15.44.21.189.052.384.079.58.08.322.017.64-.078.9-.27a.815.815 0 0 0 .32-.64 1.535 1.535 0 0 0-.08-.48 1.01 1.01 0 0 0-.22-.37 2.16 2.16 0 0 0-.36-.32l-.5-.35-.5-.31a4.843 4.843 0 0 1-1.16-1 1.997 1.997 0 0 1-.33-1.32c0-.282.058-.561.17-.82a1.83 1.83 0 0 1 .49-.64 2.34 2.34 0 0 1 .73-.43c.288-.105.593-.156.9-.15a2.63 2.63 0 0 1 1.36.32c.14.078.271.172.39.28.094.072.181.152.26.24l-.65.91Zm5.73-.51h-1.73v4.43c-.036.392.037.786.21 1.14a.861.861 0 0 0 .73.31 1.75 1.75 0 0 0 .51-.08l.31-.15.18 1.07a2.4 2.4 0 0 1-.39.2 2.182 2.182 0 0 1-.84.14 2.002 2.002 0 0 1-1.53-.57 2.818 2.818 0 0 1-.51-1.88V5.57h-1v-.89l1-.19.14-2.21h1.19v2.21h1.89l-.16 1.05Zm6.46 1.58V8c.013.218-.007.438-.06.65h-4c-.01.731.199 1.448.6 2.06a1.878 1.878 0 0 0 1.54.66c.212-.002.424-.029.63-.08.166-.05.327-.117.48-.2l.35-.23.21-.18.49.93-.25.24c-.134.123-.281.23-.44.32-.221.11-.452.2-.69.27a4.2 4.2 0 0 1-1 .11c-.461 0-.918-.08-1.35-.24a2.624 2.624 0 0 1-1-.77 3.869 3.869 0 0 1-.65-1.32 7.312 7.312 0 0 1-.23-1.88 6.187 6.187 0 0 1 .24-1.82c.133-.458.354-.886.65-1.26a2.59 2.59 0 0 1 1-.73 2.79 2.79 0 0 1 1.17-.19 2.231 2.231 0 0 1 1.77.71c.438.626.634 1.39.55 2.15l-.01-.08Zm-2.5-1.78a1.33 1.33 0 0 0-1.13.6 3.226 3.226 0 0 0-.5 1.71h2.88V7.1a2.095 2.095 0 0 0-.33-1.27 1.11 1.11 0 0 0-.91-.46l-.01-.03Zm7.75.28a.6.6 0 0 0-.21-.08 1.722 1.722 0 0 0-1.44.29 1.997 1.997 0 0 0-.51.73v5.78h-1.33V4.49h1.22v1.07c.057-.16.131-.315.22-.46a1.13 1.13 0 0 1 .33-.39 1.08 1.08 0 0 1 .46-.27 1.8 1.8 0 0 1 .65-.1c.152-.03.308-.03.46 0l.27.08-.12 1.2Zm2.65 6.72h-1.33V4.49h1.33v7.85Zm-.66-9.8a.845.845 0 0 1-.65-.27 1 1 0 0 1-.25-.69.922.922 0 0 1 .25-.67.919.919 0 0 1 1.3 0c.159.186.245.425.24.67a1 1 0 0 1-.24.69.909.909 0 0 1-.64.27h-.01Zm8.23 9.8h-1.21v-.88c-.061.1-.131.193-.21.28a2.122 2.122 0 0 1-.42.37c-.196.12-.404.22-.62.3a2.445 2.445 0 0 1-.8.13 3.095 3.095 0 0 1-1-.15 1.866 1.866 0 0 1-.72-.51 2.51 2.51 0 0 1-.45-.89 5.197 5.197 0 0 1-.16-1.36V4.49h1.34v5.08c-.045.492.067.986.32 1.41a1.192 1.192 0 0 0 1 .42 1.68 1.68 0 0 0 1-.29c.237-.157.45-.35.63-.57v-6h1.33l-.03 7.8Zm6.19 0v-5a2.603 2.603 0 0 0-.28-1.4.999.999 0 0 0-.9-.43 1.49 1.49 0 0 0-.59.09 1.54 1.54 0 0 0-.45.2c-.103.071-.2.152-.29.24-.09.08-.171.17-.24.27v6.03h-1.34V4.49h1.22v.85c.06-.08.14-.19.25-.32a2.32 2.32 0 0 1 .99-.65c.238-.081.489-.118.74-.11a1.997 1.997 0 0 1 1.91 1 1.72 1.72 0 0 1 .31-.35c.138-.136.292-.254.46-.35a2.55 2.55 0 0 1 .59-.25 2.26 2.26 0 0 1 .73-.1c1.6 0 2.4.93 2.4 2.8v5.33h-1.33v-5a2.212 2.212 0 0 0-.35-1.4 1.241 1.241 0 0 0-1-.43 1.54 1.54 0 0 0-.93.27 3.55 3.55 0 0 0-.58.52c-.007.132.01.264.05.39a1.3 1.3 0 0 1 0 .44v5.21h-1.37ZM58.87 22.17h-1.62V29h-1.33v-6.83h-.91v-.89l1-.18v-1.58a3 3 0 0 1 .18-1.11 2.05 2.05 0 0 1 .48-.75 1.71 1.71 0 0 1 .69-.43 2.38 2.38 0 0 1 .84-.13c.245-.008.489.03.72.11.138.05.271.11.4.18l-.31 1.11a1 1 0 0 0-.28-.14.998.998 0 0 0-.45-.08.87.87 0 0 0-.72.3 1.77 1.77 0 0 0-.25 1.08v1.42h1.7l-.14 1.09ZM65.71 29h-1.22v-.89c-.06.103-.131.2-.21.29-.13.13-.271.25-.42.36-.19.13-.4.23-.62.3a2.43 2.43 0 0 1-.81.14 3 3 0 0 1-.94-.16 1.74 1.74 0 0 1-.72-.5 2.19 2.19 0 0 1-.45-.9 4.818 4.818 0 0 1-.16-1.36v-5.2h1.34v5.08a2.34 2.34 0 0 0 .32 1.41 1.19 1.19 0 0 0 1 .42c.357.022.71-.08 1-.29.23-.162.442-.35.63-.56v-6.06h1.33L65.71 29Zm-3.27-10.19a.88.88 0 0 1-.23.61.83.83 0 0 1-.56.23.79.79 0 0 1-.56-.23.83.83 0 0 1-.23-.61.81.81 0 0 1 .486-.784.75.75 0 0 1 .304-.056.789.789 0 0 1 .79.84Zm2.53 0a.88.88 0 0 1-.23.61.81.81 0 0 1-1.12 0 .88.88 0 0 1-.23-.61.81.81 0 0 1 .23-.61.79.79 0 0 1 1.12 0 .83.83 0 0 1 .26.61h-.03Zm6.25 3.44a.599.599 0 0 0-.21-.08 1.711 1.711 0 0 0-1.42.28 1.93 1.93 0 0 0-.51.74V29h-1.33v-7.9h1.26v1.07c.057-.157.13-.308.22-.45a1.29 1.29 0 0 1 .33-.4c.13-.132.283-.24.45-.32.209-.073.429-.107.65-.1.155-.008.31.009.46.05l.27.08-.17 1.22Zm15.79-4.63L84.26 29h-1.25l-1.72-7.14c-.13-.5-.23-1-.32-1.39-.07-.33-.12-.664-.15-1a4.9 4.9 0 0 1-.13 1c-.09.42-.19.87-.31 1.36L78.56 29h-1.3l-2.7-11.36h1.53l1.42 6.92c.11.52.21 1 .29 1.48.068.357.114.718.14 1.08a8.01 8.01 0 0 1 .17-1.1l.34-1.5 1.68-6.88h1.37l1.64 6.92c.12.52.23 1 .33 1.48.084.355.138.716.16 1.08a8.53 8.53 0 0 1 .22-1.12c.08-.49.18-1 .29-1.52l1.43-6.85 1.44-.01ZM89.6 29h-1.34v-7.9h1.33l.01 7.9Zm-.66-9.81a1 1 0 0 1-.66-.26 1 1 0 0 1-.27-.69 1 1 0 0 1 .24-.68.87.87 0 0 1 .66-.26.819.819 0 0 1 .64.26.94.94 0 0 1 .25.68 1 1 0 0 1-.25.69.883.883 0 0 1-.64.24l.03.02Zm6.17 3.08a.599.599 0 0 0-.21-.08 1.739 1.739 0 0 0-1.43.28 2 2 0 0 0-.5.74V29h-1.34v-7.9h1.22v1.07c.058-.155.128-.306.21-.45a1.47 1.47 0 0 1 .8-.67 1.61 1.61 0 0 1 .65-.1c.165-.008.33.009.49.05l.28.08-.17 1.19Zm4.69-.08h-1.74v4.37a2.1 2.1 0 0 0 .22 1.15.83.83 0 0 0 .72.29 1.75 1.75 0 0 0 .51-.08l.31-.15.19 1.07a2.42 2.42 0 0 1-.39.21 2.18 2.18 0 0 1-.84.14 2 2 0 0 1-1.53-.57 2.83 2.83 0 0 1-.51-1.89v-4.56h-1v-.89l1-.2.15-2.21h1.18v2.21h1.94l-.21 1.11Zm4.92.51a3.736 3.736 0 0 0-.48-.41 1.45 1.45 0 0 0-.9-.25 1.18 1.18 0 0 0-.81.24.81.81 0 0 0-.28.6c-.004.267.088.526.26.73.23.242.493.45.78.62l.49.29a4.76 4.76 0 0 1 1.27 1 2.322 2.322 0 0 1-.19 3 2.564 2.564 0 0 1-1.87.65 4.006 4.006 0 0 1-.84-.1c-.21-.07-.43-.14-.63-.23a2.684 2.684 0 0 1-.45-.29c-.12-.11-.22-.2-.3-.29l.64-1.05.24.23.34.25c.14.084.287.154.44.21.188.058.383.092.58.1.321.02.64-.071.9-.26a.818.818 0 0 0 .32-.64c0-.167-.028-.332-.08-.49a1.01 1.01 0 0 0-.22-.37 2.119 2.119 0 0 0-.36-.31l-.49-.33-.5-.31a4.843 4.843 0 0 1-1.16-1 2.122 2.122 0 0 1-.41-1.35c-.001-.28.06-.557.18-.81.106-.249.271-.468.48-.64a2.07 2.07 0 0 1 .73-.43c.286-.113.592-.167.9-.16a2.63 2.63 0 0 1 1.36.32c.14.078.271.172.39.28l.26.24-.59.96Zm6.75-.07-.16-.15a2.298 2.298 0 0 0-.27-.2 1.904 1.904 0 0 0-.39-.17 1.578 1.578 0 0 0-.53-.07 2.001 2.001 0 0 0-.8.15c-.252.114-.472.29-.64.51a2.74 2.74 0 0 0-.43.89 5.004 5.004 0 0 0-.16 1.34c-.008.494.039.987.14 1.47.08.332.211.65.39.94.15.221.358.397.6.51.25.103.519.154.79.15a1.68 1.68 0 0 0 .93-.21 3.9 3.9 0 0 0 .46-.35l.54.92-.24.24a1.56 1.56 0 0 1-.4.27 3.103 3.103 0 0 1-.6.23 3.657 3.657 0 0 1-2.05-.13 2.453 2.453 0 0 1-1-.71c-.3-.37-.519-.8-.64-1.26a6.469 6.469 0 0 1-.25-2 5.185 5.185 0 0 1 .3-1.92c.167-.474.429-.91.77-1.28a2.91 2.91 0 0 1 1.06-.71 3.43 3.43 0 0 1 1.18-.22c.262-.008.525.02.78.08a3 3 0 0 1 .58.21c.142.068.273.155.39.26l.26.24-.61.97Zm6.27 6.37v-5.11a2.343 2.343 0 0 0-.34-1.44 1.21 1.21 0 0 0-1-.43 1.678 1.678 0 0 0-1 .29 3.13 3.13 0 0 0-.62.58V29h-1.33V17.34l1.33-.14v4.69c.059-.098.129-.189.21-.27.11-.128.238-.24.38-.33a2.86 2.86 0 0 1 1.47-.42 2.076 2.076 0 0 1 1.64.68c.473.646.69 1.444.61 2.24V29h-1.35Zm2.86-2c-.01-.399.079-.794.26-1.15a2.13 2.13 0 0 1 .71-.75 2.904 2.904 0 0 1 1-.41 6 6 0 0 1 1.27-.12h.41v-.76a1.998 1.998 0 0 0-.35-1.38 1.247 1.247 0 0 0-1-.38 1.759 1.759 0 0 0-1 .25 4.66 4.66 0 0 0-.63.46l-.56-.89c.106-.108.22-.208.34-.3.154-.122.322-.226.5-.31a3.25 3.25 0 0 1 1.53-.35 2.378 2.378 0 0 1 1.84.68c.473.62.698 1.393.63 2.17v4.58c.009.218.033.435.07.65h-1.27v-.85c-.051.119-.118.23-.2.33a1.565 1.565 0 0 1-.33.35c-.145.109-.303.2-.47.27-.211.08-.434.12-.66.12-.285 0-.568-.058-.83-.17a1.997 1.997 0 0 1-.68-.46 2.138 2.138 0 0 1-.44-.7 2.38 2.38 0 0 1-.15-.88h.01Zm2.41 1c.166-.001.332-.028.49-.08a1.65 1.65 0 0 0 .37-.2 1.25 1.25 0 0 0 .26-.25l.19-.24v-1.71h-.42a2.938 2.938 0 0 0-1.45.33.995.995 0 0 0-.5.95c-.018.33.081.656.28.92a.994.994 0 0 0 .78.28Zm8-5.87h-1.61V29h-1.39v-6.83h-1v-.89l1-.18v-1.58c-.01-.378.051-.755.18-1.11.107-.278.267-.532.47-.75.195-.198.435-.346.7-.43a2.36 2.36 0 0 1 .83-.13 1.99 1.99 0 0 1 .73.11c.134.05.265.11.39.18l-.3 1.11a.996.996 0 0 0-.28-.14 1 1 0 0 0-.44-.08.865.865 0 0 0-.72.3c-.202.322-.29.702-.25 1.08v1.42h1.78l-.09 1.05Zm4.69 0h-1.79v4.37c-.032.396.044.794.22 1.15a.844.844 0 0 0 .72.3 1.75 1.75 0 0 0 .51-.08l.31-.15.19 1.07-.4.21a2.182 2.182 0 0 1-.84.14 2.002 2.002 0 0 1-1.53-.57 2.834 2.834 0 0 1-.51-1.89v-4.51h-.95v-.89l.95-.2.15-2.21h1.18v2.21h1.9l-.11 1.05ZM61.07 45.57h-1.22v-.89a1.42 1.42 0 0 1-.21.29 1.82 1.82 0 0 1-.42.36 2.772 2.772 0 0 1-.62.31 2.45 2.45 0 0 1-.81.13 2.732 2.732 0 0 1-.94-.16 1.74 1.74 0 0 1-.72-.5 2.34 2.34 0 0 1-.45-.89 4.818 4.818 0 0 1-.16-1.36v-5.19h1.33v5.09a2.34 2.34 0 0 0 .33 1.41 1.19 1.19 0 0 0 1 .42 1.68 1.68 0 0 0 1-.29c.233-.163.444-.355.63-.57v-6.06h1.33l-.07 7.9Zm6.35 0v-5.08a2.4 2.4 0 0 0-.33-1.44 1.22 1.22 0 0 0-1-.44 1.56 1.56 0 0 0-1 .3 4.27 4.27 0 0 0-.63.57v6.09h-1.35v-7.9h1.22v.89c.062-.105.136-.202.22-.29a2.33 2.33 0 0 1 .42-.36c.2-.12.41-.22.63-.3a2.08 2.08 0 0 1 .82-.13c.34-.01.678.04 1 .15.28.101.528.274.72.5.213.265.37.572.46.9.122.443.179.9.17 1.36v5.18h-1.35Zm3-3.83c-.02-.68.09-1.36.32-2 .172-.485.444-.928.8-1.3a2.8 2.8 0 0 1 1.12-.7 3.8 3.8 0 0 1 1.25-.2c.22-.02.44-.02.66 0 .158.031.312.078.46.14v-3.74l1.33-.15v11.78h-1.25v-.84c-.05.096-.11.186-.18.27a1.71 1.71 0 0 1-.36.35 2.391 2.391 0 0 1-.57.3c-.263.08-.536.12-.81.12a2.55 2.55 0 0 1-1.06-.22 2.35 2.35 0 0 1-.88-.71 3.451 3.451 0 0 1-.6-1.25 6.44 6.44 0 0 1-.27-1.85h.04Zm3.13 2.85c.19 0 .38-.03.56-.09a1.64 1.64 0 0 0 .69-.5c.072-.07.135-.147.19-.23v-4.83a1.74 1.74 0 0 0-1.02-.28 2.118 2.118 0 0 0-.86.16c-.28.1-.523.282-.7.52a2.48 2.48 0 0 0-.47.93c-.126.462-.184.94-.17 1.42-.013.46.034.921.14 1.37.07.318.199.62.38.89a1.47 1.47 0 0 0 1.22.64h.04Zm12.11-4.83 3.85 5.81h-1.8l-3.29-5.16h-.85v5.16h-1.44V34.22h1.44v5h.87l3.17-5h1.6l-3.55 5.54Zm6.21 4c-.025.239.024.48.14.69a.59.59 0 0 0 .48.2h.31l.19-.07.11 1-.36.13c-.232.057-.47.084-.71.08a1.56 1.56 0 0 1-1.09-.45 2 2 0 0 1-.41-1.47v-9.9l1.34-.15v9.94Zm3.76 1.84h-1.37v-7.9h1.33l.04 7.9Zm-.62-9.8a.86.86 0 0 1-.66-.27 1 1 0 0 1-.25-.69.9.9 0 0 1 1.55-.67 1 1 0 0 1 .25.67 1 1 0 0 1-.25.69.86.86 0 0 1-.68.24l.04.03Zm6.84 9.8v-5.11a2.602 2.602 0 0 0-.28-1.4.998.998 0 0 0-.9-.43 2 2 0 0 0-.59.08c-.159.05-.31.12-.45.21-.13.072-.247.163-.35.27l-.24.26v6.09h-1.4v-7.9h1.21v.89a1.91 1.91 0 0 1 .24-.32c.12-.138.257-.26.41-.36a2.1 2.1 0 0 1 .58-.29 2.08 2.08 0 0 1 .74-.11 1.997 1.997 0 0 1 1.91 1c.09-.128.194-.245.31-.35.135-.14.29-.257.46-.35.189-.108.39-.192.6-.25.233-.073.476-.107.72-.1 1.6 0 2.4.93 2.4 2.79v5.3h-1.33v-5.03a2.212 2.212 0 0 0-.35-1.4 1.21 1.21 0 0 0-1-.43 1.54 1.54 0 0 0-.93.27 3.545 3.545 0 0 0-.58.52v6.12l-1.18.03Zm7-2a2.157 2.157 0 0 1 1-1.91 3.36 3.36 0 0 1 1-.41 6 6 0 0 1 1.27-.12h.41v-.76a1.998 1.998 0 0 0-.35-1.38 1.247 1.247 0 0 0-1-.38 1.69 1.69 0 0 0-1 .26 4.567 4.567 0 0 0-.63.45l-.56-.89c.106-.108.22-.208.34-.3.158-.116.326-.22.5-.31.215-.11.444-.19.68-.24.277-.074.563-.108.85-.1a2.401 2.401 0 0 1 1.85.67c.47.62.691 1.395.62 2.17v4.61c-.026.22-.002.441.07.65h-1.27v-.87c-.053.12-.12.235-.2.34-.092.13-.203.245-.33.34a1.995 1.995 0 0 1-.47.28 2.125 2.125 0 0 1-1.49-.05 1.995 1.995 0 0 1-.68-.47 2.185 2.185 0 0 1-.44-.69 2.28 2.28 0 0 1-.2-.92l.03.03Zm2.39 1.06a1.36 1.36 0 0 0 .49-.08 1.63 1.63 0 0 0 .37-.19c.097-.079.187-.166.27-.26l.18-.24v-1.77h-.42a3.18 3.18 0 0 0-1.45.33.996.996 0 0 0-.49 1c-.022.326.074.649.27.91a1.002 1.002 0 0 0 .75.27l.03.03Zm8-5.36a3.629 3.629 0 0 0-.48-.4 1.42 1.42 0 0 0-.91-.26 1.064 1.064 0 0 0-.8.25.742.742 0 0 0-.28.59.995.995 0 0 0 .25.73c.23.242.493.45.78.62l.5.3a4.34 4.34 0 0 1 1.26 1c.322.401.489.905.47 1.42a2.185 2.185 0 0 1-.65 1.58 2.61 2.61 0 0 1-1.87.64 3.394 3.394 0 0 1-.84-.1 4.926 4.926 0 0 1-.64-.23 2.684 2.684 0 0 1-.45-.29 3.814 3.814 0 0 1-.29-.28l.64-1.06.24.23c.101.098.212.185.33.26.142.083.293.15.45.2.184.06.376.09.57.09a1.4 1.4 0 0 0 .91-.27.813.813 0 0 0 .31-.64 1.626 1.626 0 0 0-.07-.49 1.245 1.245 0 0 0-.22-.37 1.85 1.85 0 0 0-.37-.31l-.49-.33-.49-.31a4.843 4.843 0 0 1-1.16-1 2.12 2.12 0 0 1-.42-1.35 1.746 1.746 0 0 1 .17-.82 2 2 0 0 1 .48-.64c.219-.187.469-.332.74-.43.286-.1.587-.15.89-.15.266-.01.533.02.79.09.201.047.393.124.57.23.145.075.28.169.4.28.091.072.174.153.25.24l-.57.98Zm6.79-.1-.15-.14a1.297 1.297 0 0 0-.28-.2 1.356 1.356 0 0 0-.39-.17 1.59 1.59 0 0 0-.53-.08 1.849 1.849 0 0 0-.8.16c-.252.11-.472.282-.64.5a2.67 2.67 0 0 0-.43.9c-.11.438-.16.889-.15 1.34-.008.49.038.98.14 1.46.061.356.194.696.39 1 .153.218.36.394.6.51.247.103.512.157.78.16a1.78 1.78 0 0 0 .93-.22c.156-.105.306-.219.45-.34l.54.92-.24.24a2.776 2.776 0 0 1-.4.27 2.55 2.55 0 0 1-.6.22 3.74 3.74 0 0 1-2-.12 2.554 2.554 0 0 1-1-.71 3.692 3.692 0 0 1-.68-1.28 6.786 6.786 0 0 1-.24-2 5.698 5.698 0 0 1 .29-1.93 3.47 3.47 0 0 1 .78-1.27c.292-.317.655-.56 1.06-.71.372-.148.77-.223 1.17-.22a2.96 2.96 0 0 1 .79.08c.198.041.39.108.57.2.145.071.28.162.4.27.091.072.174.152.25.24l-.61.92Zm6.27 6.37v-5.08a2.343 2.343 0 0 0-.34-1.44 1.182 1.182 0 0 0-1-.44 1.56 1.56 0 0 0-1 .3c-.228.169-.439.36-.63.57v6.09h-1.32V33.94l1.33-.15v4.69a2.64 2.64 0 0 1 .2-.26 1.76 1.76 0 0 1 .39-.33 2.459 2.459 0 0 1 1.43-.41 2.104 2.104 0 0 1 1.65.67c.459.652.672 1.446.6 2.24v5.18h-1.31Zm8.85 0h-1.24v-.89a1.4 1.4 0 0 1-.21.29c-.121.14-.262.262-.42.36a2.77 2.77 0 0 1-.62.31 2.445 2.445 0 0 1-.8.13 2.79 2.79 0 0 1-.95-.16 1.62 1.62 0 0 1-.71-.5 2.523 2.523 0 0 1-.46-.89 5.235 5.235 0 0 1-.15-1.36v-5.19h1.33v5.09c-.04.492.072.984.32 1.41a1.199 1.199 0 0 0 1 .42c.356.012.706-.09 1-.29.23-.163.438-.355.62-.57v-6.06h1.33l-.04 7.9Zm5.42-6.81h-1.76v4.38c-.036.392.037.786.21 1.14a.88.88 0 0 0 .73.31c.174 0 .347-.03.51-.09l.31-.14.18 1.06c-.119.09-.25.16-.39.21a2.182 2.182 0 0 1-.84.14 1.996 1.996 0 0 1-1.52-.57 2.818 2.818 0 0 1-.51-1.88v-4.56h-1v-.89l1-.2.15-2.2h1.18v2.2h1.89l-.14 1.09Zm5.92-.23-3.19 5.87h3.41l-.12 1.13h-5v-.85l3.29-5.93h-3.11v-1.08h4.74l-.02.86ZM19.5 11.47c.04-.332.06-.666.06-1v-.63c2.75 0 5.17-2 5.17-4.3A4.16 4.16 0 0 0 23.52 3l.3-.06a4.65 4.65 0 0 1 1.54 3.17c0 2.74-2.73 5.28-5.86 5.34m-2.78-9.52a1.86 1.86 0 0 0-.34-.82c0-.28.12-.55.57-.33-.24.25-.05.69-.05.69s.49-.23.39-.56c.74.18.21 1.17-.57 1m-.64 1.43a2.89 2.89 0 0 0-.57-1.15 1.58 1.58 0 0 0-1.19-.63 2.76 2.76 0 0 0-.93.23 2.399 2.399 0 0 1-.29-.77c0-.2.34-.4 1-.4 1.43 0 2.28.64 2.28 1.72a2.68 2.68 0 0 1-.29 1m3.67 18.39a.66.66 0 0 1 .34.06 19.332 19.332 0 0 0 2.06 3.32c.73-.125 1.47-.195 2.21-.21a.321.321 0 0 1 .25.06.4.4 0 0 1 .08.28 1.48 1.48 0 0 1-.19.71 2 2 0 0 0-1.5-.44 2.763 2.763 0 0 0-.64.1h-.12l.43.44c.67.67 1.25 1.25 1.25 1.63a1 1 0 0 1-.43.67 3.76 3.76 0 0 0-1.49-2.18v.94c0 1.34-.14 1.55-.6 1.55h-.25a2.28 2.28 0 0 0 .36-1.5v-.63c.002-.24.018-.481.05-.72v-.1h-.08a7.322 7.322 0 0 0-.93-.09 2 2 0 0 0-1.44.37 1.15 1.15 0 0 1-.44-.66c0-.28.18-.31.4-.31h.38c.53.073 1.065.107 1.6.1h.06v-.05a10.55 10.55 0 0 0-1.86-2.73c.09-.32.17-.53.49-.53M11.21 25v.05h.06c.535.007 1.07-.027 1.6-.1h.37c.23 0 .41 0 .41.31-.064.265-.22.5-.44.66a2 2 0 0 0-1.44-.37 7.46 7.46 0 0 0-.94.09h-.07v.1c.04.238.06.479.06.72v.63a2.21 2.21 0 0 0 .37 1.5.996.996 0 0 1-.25 0c-.47 0-.6-.21-.6-1.55v-.94h-.06a3.69 3.69 0 0 0-1.45 2.18 1.06 1.06 0 0 1-.44-.67c0-.38.58-1 1.25-1.63l.39-.39v-.05H9.9a2.31 2.31 0 0 0-.64-.1 2.001 2.001 0 0 0-1.52.56 1.61 1.61 0 0 1-.2-.71.41.41 0 0 1 .08-.29.4.4 0 0 1 .26-.06c.74.02 1.479.09 2.21.21a19.336 19.336 0 0 0 2.06-3.32.66.66 0 0 1 .34-.06c.31 0 .4.21.49.53a10.588 10.588 0 0 0-1.77 2.7ZM6.93 6.13A4.65 4.65 0 0 1 8.48 3h.29a4.12 4.12 0 0 0-1.18 2.59c0 2.3 2.46 4.31 5.25 4.31v.62c0 .334.02.668.06 1-3.16 0-5.89-2.58-5.89-5.34M28.15 11c1.41 2.24 2.52 2.2 4.19 2.2a12.27 12.27 0 0 1-2.73-3.11l-2.6-4.15a6.06 6.06 0 0 0-1.9-3.36 3.56 3.56 0 0 0 .78-.39c-1.7 0-3.38-.85-4.3-.85a.86.86 0 0 0-1 .7.492.492 0 0 0 0 .12c0 .52.57 1 1.57 1 .28.02.56.02.84 0a3.86 3.86 0 0 1 1 2.39c.01 1.79-2.16 3.19-4.35 3.19h-.36a5.001 5.001 0 0 1-.86-2.06c0-1.44.94-2.62.94-4A2.59 2.59 0 0 0 18.72 1c.261-.222.476-.494.63-.8a1.79 1.79 0 0 1-.61.07c-1.05 0-1.9-.27-2.73-.27-.47 0-.6.15-.6.29a.24.24 0 0 0 0 .12 5.437 5.437 0 0 0-.54-.15 4.22 4.22 0 0 0-.79-.07c-1 0-1.37.43-1.37.79.07.466.244.91.51 1.3A2.89 2.89 0 0 1 14.33 2c.54 0 1 .51 1.27 1.11a5.29 5.29 0 0 1-.8.06 6.12 6.12 0 0 1-1.79-.4c.194.317.485.562.83.7a10.44 10.44 0 0 0 2 .41.92.92 0 0 1-.39.44h-.14a9.3 9.3 0 0 1-1.93-.57c0 .38 1 1.22 1.87 1.55a9.74 9.74 0 0 0-2.14 3.37h-.41c-2.19 0-4.36-1.41-4.36-3.22a4 4 0 0 1 1-2.39c.275.042.552.069.83.08 1 0 1.53-.53 1.57-1a.87.87 0 0 0-.91-.8h-.09c-.92 0-2.59.85-4.28.85a3.6 3.6 0 0 0 .78.39 6.14 6.14 0 0 0-1.92 3.36l-2.58 4.14a12.51 12.51 0 0 1-2.73 3.11c1.67 0 2.78 0 4.2-2.2l1.31-2.12c.1.277.224.544.37.8l-2.64 4.22A12.139 12.139 0 0 1 .51 17c1.67 0 2.78 0 4.2-2.2l2.3-3.63c.17.19.35.36.53.53l-3.2 5.13a12.11 12.11 0 0 1-2.74 3.11c1.67 0 2.78 0 4.19-2.2l3.12-5c.21.13.42.26.64.38l-3.81 6.1a12.141 12.141 0 0 1-2.73 3.12c1.67 0 2.78 0 4.2-2.2l3.92-6.28.71.25-4.46 7.1a12.11 12.11 0 0 1-2.74 3.13c1.67 0 2.78 0 4.2-2.2l4.72-7.57h.15c.13.377.2.771.21 1.17 0 2.38-1.56 4.48-3.43 6.1.169.049.344.072.52.07.27.003.542-.013.81-.05-.51 1.025-1.117 2-1.81 2.91-.69-.118-1.39-.182-2.09-.19-.61 0-.68.36-.68.67a1.63 1.63 0 0 0 .56 1.25c.11-.29.34-.67 1.47-.67h.11c-.37.38-1.37 1.17-1.37 1.88a1.25 1.25 0 0 0 1.13 1.12 2.41 2.41 0 0 1 0-.38 2.85 2.85 0 0 1 .87-1.62c-.01.09-.01.18 0 .27 0 1.29.11 1.88.93 1.88a1.29 1.29 0 0 0 .77-.29 1.74 1.74 0 0 1-.56-1.59v-.63c.01-.18.01-.36 0-.54.213-.02.427-.02.64 0 0 0 1.16-.09 1.44.51.31-.29.77-.69.77-1.14 0-.45-.14-.64-.74-.64-.23 0-.94.14-1.53.14.43-.76.93-1.48 1.49-2.15.094.34.289.644.56.87a6.15 6.15 0 0 1 1.09-2.93c.122.83.169 1.67.14 2.51 0 3.2-.77 5.56-2.4 6a1.4 1.4 0 0 0 1.12.7c.6 0 .93-.67 1.26-1.31.17.47.65 1.62 1.13 1.62.48 0 1-1.15 1.13-1.62.33.64.65 1.31 1.25 1.31a1.39 1.39 0 0 0 1.13-.7c-1.63-.45-2.4-2.81-2.4-6-.004-.854.063-1.707.2-2.55a6 6 0 0 1 1.09 2.93 1.69 1.69 0 0 0 .57-.87c.56.67 1.06 1.39 1.49 2.15-.6 0-1.31-.14-1.54-.14-.59 0-.73.34-.73.64.138.448.406.845.77 1.14.28-.6 1.44-.51 1.44-.51.213-.02.427-.02.64 0-.01.18-.01.36 0 .54v.63a1.74 1.74 0 0 1-.56 1.59c.222.179.495.28.78.29.81 0 .93-.59.93-1.88.01-.09.01-.18 0-.27.464.43.776.998.89 1.62.02.126.02.254 0 .38a1.25 1.25 0 0 0 1.14-1.12c0-.67-1-1.5-1.37-1.87 1.13 0 1.36.38 1.47.67a1.59 1.59 0 0 0 .57-1.25c0-.31-.07-.67-.68-.67-.7.008-1.4.072-2.09.19a20.08 20.08 0 0 1-1.84-2.91c.268.037.54.053.81.05a1.81 1.81 0 0 0 .52-.07c-1.87-1.62-3.43-3.72-3.43-6.1a3.85 3.85 0 0 1 .22-1.17h.14l4.73 7.57c1.44 2.23 2.55 2.23 4.23 2.23a12.14 12.14 0 0 1-2.74-3.11l-4.43-7.1.7-.25 3.93 6.28c1.41 2.18 2.52 2.18 4.2 2.18a11.8 11.8 0 0 1-2.74-3.11l-3.81-6.1.63-.38 3.12 5c1.42 2.24 2.53 2.2 4.2 2.2a12.27 12.27 0 0 1-2.67-3.12l-3.2-5.13c.19-.17.37-.35.54-.53l2.27 3.64c1.39 2.24 2.5 2.19 4.18 2.19a11.84 11.84 0 0 1-2.79-3.12l-2.6-4.21c.138-.258.259-.525.36-.8L28.15 11Zm17.38 18h-4.84V1.34h4.84V29Z" fill="#FAFAFA"/><path d="M45.53 56.64h-4.84V29h4.84v27.64Z" fill="#9C9C9C"/><path d="M45.53 84.34h-4.84v-27.7h4.84v27.7Z" fill="#505050"/></g><defs><clipPath id="a"><path fill="#fff" d="M0 0h168.02v84.34H0z"/></clipPath></defs></svg>