<svg width="365" height="61" viewBox="0 0 365 61" fill="none" xmlns="http://www.w3.org/2000/svg">
<path d="M4.80395 41.7007L2.44129 34.5674C2.24129 33.984 1.93462 32.833 1.93462 32.833H1.91994C1.91994 32.833 1.93462 34.0908 1.93462 35.0116V41.7007H0.630615V31.2695H2.56395L4.94263 38.3564C5.18663 39.0622 5.38661 39.7376 5.46395 39.9523C5.52528 39.7059 5.69328 39.0621 5.92394 38.3408L8.20929 31.2695H10.172V41.7007H8.86929V34.8892C8.86929 33.984 8.86929 32.681 8.86929 32.681H8.85327C8.85327 32.681 8.56128 33.846 8.36261 34.4439L6.07729 41.7007H4.80395Z" fill="#F7F7F7"/>
<path d="M16.0533 41.7007H14.7026V31.2695H16.0533V41.7007Z" fill="#F7F7F7"/>
<path d="M19.2413 31.2695H27.004V32.4804H23.7973V41.7007H22.448V32.4804H19.2413V31.2695Z" fill="#F7F7F7"/>
<path d="M36.4186 39.6608C36.788 39.1238 36.972 38.4946 36.9866 37.4206H33.3973V36.2082H38.2453V41.7009H36.972V40.3665C36.48 41.1332 35.4533 41.8848 33.888 41.8848C31.1266 41.8848 29.1786 39.8916 29.1786 36.4842C29.1786 33.3097 31.004 31.0848 33.9186 31.0848C35.7906 31.0848 37.1866 31.9894 37.9386 33.4624L36.8026 34.2306C36.2666 32.9869 35.2693 32.267 33.9186 32.267C31.8626 32.267 30.5746 33.9233 30.5746 36.4842C30.5746 39.0312 31.8626 40.7197 33.9186 40.7197C34.9773 40.7197 35.9586 40.3212 36.4186 39.6608Z" fill="#F7F7F7"/>
<path d="M48.7454 41.7007H42.2253V31.2695H43.5907V40.4887H48.7454V41.7007Z" fill="#F7F7F7"/>
<path d="M52.9787 41.7007H51.628V31.2695H52.9787V41.7007Z" fill="#F7F7F7"/>
<path d="M64.7826 41.7007H57.5106V31.2695H64.4906V32.4804H58.8613V35.733H63.9693V36.945H58.8613V40.4887H64.7826V41.7007Z" fill="#F7F7F7"/>
<path d="M69.8373 40.5043H71.2787C72.536 40.5043 73.412 40.5043 74.1787 39.86C74.884 39.2772 75.4067 38.0335 75.4067 36.4996C75.4067 35.1652 74.9293 33.846 74.1333 33.1403C73.396 32.5272 72.5987 32.4804 71.08 32.4804H69.8373V40.5043ZM68.4866 41.7007V31.2695H71.0333C72.7053 31.2695 73.8093 31.2851 74.8226 32.0204C75.9426 32.8486 76.7546 34.4595 76.7546 36.4387C76.7546 38.1715 76.188 39.6449 75.2213 40.6127C74.1013 41.7007 72.9973 41.7007 70.9733 41.7007H68.4866Z" fill="#F7F7F7"/>
<path d="M86.7239 41.7007H85.3733V31.2695H86.7239V41.7007Z" fill="#F7F7F7"/>
<path d="M95.6546 41.7007L93.2933 34.5674C93.0933 33.984 92.7866 32.833 92.7866 32.833H92.7706C92.7706 32.833 92.7866 34.0908 92.7866 35.0116V41.7007H91.4813V31.2695H93.416L95.7933 38.3564C96.0386 39.0622 96.2387 39.7376 96.3147 39.9523C96.376 39.7059 96.544 39.0621 96.7746 38.3408L99.06 31.2695H101.024V41.7007H99.72V34.8892C99.72 33.984 99.72 32.681 99.72 32.681H99.7053C99.7053 32.681 99.4147 33.846 99.2133 34.4439L96.928 41.7007H95.6546Z" fill="#F7F7F7"/>
<path d="M152.981 33.2046C157.568 33.2046 160.34 29.6343 160.34 23.5536C160.34 17.3687 157.355 13.9546 152.875 13.9546C148.503 13.9546 145.088 17.1551 145.088 23.5536C145.088 30.0067 148.555 33.2046 152.981 33.2046ZM145.516 32.5666V36.2984H141.089V0.037901H145.516V14.6499C146.421 12.8895 149.088 10.3296 153.675 10.3296C160.021 10.3296 164.872 15.1291 164.872 23.6603C164.872 31.9807 160.287 36.939 153.833 36.939C149.035 36.939 146.421 34.2723 145.516 32.5666Z" fill="#F7F7F7"/>
<path d="M185.567 23.3948C185.195 23.5537 184.501 23.7672 182.635 24.1396L180.181 24.6735C178.208 25.1005 176.396 25.4729 175.221 26.3271C174.368 26.9131 173.888 27.8193 173.888 29.1005C173.888 31.9808 176.128 33.5251 179.275 33.5251C182.473 33.5251 185.567 31.9808 185.567 28.0328V23.3948ZM192.605 36.6708C192.072 36.7776 191.22 36.8844 190.1 36.8844C187.007 36.8844 185.993 35.5511 185.833 33.4729H185.78C184.98 34.8063 182.741 36.9912 177.941 36.9912C172.768 36.9912 169.303 34.2204 169.303 29.3141C169.303 26.4339 170.584 24.5667 172.556 23.3948C174.528 22.2204 177.248 21.6891 179.969 21.2073L183.435 20.6213C185.033 20.3557 185.567 20.1423 185.567 19.0745V18.5407C185.567 15.8765 184.713 13.9547 180.181 13.9547C175.595 13.9547 174.208 16.3011 174.208 19.3428L169.943 18.8609C169.836 13.1552 174.689 10.3844 180.395 10.3844C186.047 10.3844 189.832 12.0355 189.832 18.3819C189.832 19.5537 189.832 31.2855 189.832 31.2855C189.832 33.0459 190.473 33.5797 192.02 33.5797H192.605V36.6708Z" fill="#F7F7F7"/>
<path d="M197.035 10.9155H201.463V25.5275C201.463 27.926 201.728 29.5275 202.313 30.6474C203.22 32.4051 204.821 33.0458 207.22 33.0458C211.485 33.0458 213.673 29.5796 213.673 25.4728V10.9155H218.097V36.2984H213.673V32.5666C212.285 35.0198 209.833 36.939 205.567 36.939C202.955 36.939 200.715 36.1916 199.221 34.5379C197.621 32.7255 197.035 30.913 197.035 25.366V10.9155Z" fill="#F7F7F7"/>
<path d="M246.023 36.2983H243.072L233.515 22.5978L228.14 28.0118V36.2983H225.788V10.9129H228.14V25.0978L242.101 10.9129H245.239L235.307 20.9181L246.023 36.2983Z" fill="#F7F7F7"/>
<path d="M251.509 30.3244C251.285 29.3922 251.173 28.5718 251.173 25.8453V10.913H253.525V26.0327C253.525 29.0198 253.749 30.1395 254.236 31.2203C255.28 33.6109 257.595 34.6942 260.731 34.6942C263.829 34.6942 266.144 33.6109 267.189 31.2203C267.675 30.1395 267.899 29.0198 267.899 26.0327V10.913H270.251V25.8453C270.251 28.5718 270.14 29.3922 269.952 30.3244C268.944 34.6187 265.547 36.7827 260.731 36.7827C255.952 36.7827 252.517 34.6187 251.509 30.3244Z" fill="#F7F7F7"/>
<path d="M295.561 36.2983H279.209V10.9129H281.561V34.2071H295.561V36.2983Z" fill="#F7F7F7"/>
<path d="M294.629 10.9129H313.22V13.0014H305.083V36.2983H302.731V13.0014H294.629V10.9129Z" fill="#F7F7F7"/>
<path d="M318.111 30.3244C317.887 29.3922 317.775 28.5718 317.775 25.8453V10.913H320.127V26.0327C320.127 29.0198 320.351 30.1395 320.837 31.2203C321.881 33.6109 324.196 34.6942 327.332 34.6942C330.431 34.6942 332.747 33.6109 333.791 31.2203C334.277 30.1395 334.501 29.0198 334.501 26.0327V10.913H336.853V25.8453C336.853 28.5718 336.741 29.3922 336.553 30.3244C335.545 34.6187 332.147 36.7827 327.332 36.7827C322.553 36.7827 319.119 34.6187 318.111 30.3244Z" fill="#F7F7F7"/>
<path d="M347.045 22.9702H354.176C356.676 22.9702 357.759 22.7097 358.807 22.2618C360.447 21.4779 361.417 20.0587 361.417 17.9675C361.417 15.8763 360.447 14.4597 358.807 13.7123C357.759 13.2279 356.676 13.0014 354.176 13.0014H347.045V22.9702ZM353.764 25.0613H347.045V36.2983H344.695V10.9129H354.699C356.827 10.9129 358.955 11.0613 360.783 12.2175C362.761 13.4129 363.957 15.2801 363.957 18.0066C363.957 20.7306 362.761 22.5587 360.783 23.7539C359.515 24.5769 358.023 24.9129 356.564 25.0249L364.629 36.2983H361.605L353.764 25.0613Z" fill="#F7F7F7"/>
<path d="M142.235 58.9344H145.011C145.885 58.9344 146.347 58.8745 146.623 58.7521C147.22 58.4761 147.635 57.8615 147.635 57.1089C147.635 56.4657 147.328 55.9605 146.867 55.6532C146.361 55.3459 145.732 55.3302 145.011 55.3302H142.235V58.9344ZM146.437 51.1427C146.1 51.0047 145.748 50.9422 144.872 50.9422H142.235V54.1636H144.872C145.748 54.1636 146.1 54.0724 146.421 53.95C146.944 53.7052 147.281 53.2287 147.281 52.5542C147.281 51.8797 146.944 51.3719 146.437 51.1427ZM140.884 60.1479V49.7157H144.965C146.145 49.7157 146.729 49.8381 147.251 50.0985C148.125 50.5438 148.616 51.3433 148.616 52.4318C148.616 53.5516 147.972 54.3328 147.036 54.6245C148.201 54.9787 148.969 55.8979 148.969 57.187C148.969 58.3537 148.448 59.2104 147.541 59.687C147.005 59.9787 146.407 60.1479 145.073 60.1479H140.884Z" fill="#F7F7F7"/>
<path d="M153.453 58.7051C153.069 58.0462 152.916 57.4004 152.916 55.8509V49.7155H154.265V55.8353C154.265 56.679 154.281 57.5384 154.648 58.1374C155.032 58.7806 155.845 59.1504 156.859 59.1504C157.869 59.1504 158.684 58.7806 159.068 58.1374C159.435 57.5384 159.451 56.679 159.451 55.8353V49.7155H160.8V55.8509C160.8 57.4004 160.647 58.0462 160.263 58.7051C159.588 59.8405 158.407 60.3457 156.859 60.3457C155.308 60.3457 154.128 59.8405 153.453 58.7051Z" fill="#F7F7F7"/>
<path d="M171.364 56.7261C171.687 57.187 172.085 57.799 172.145 57.9084H172.161C172.161 57.9084 172.132 57.1401 172.132 56.2209V49.7157H173.481V60.1479H172.145L167.268 53.1219C166.976 52.7078 166.517 51.9865 166.456 51.8641H166.44C166.44 51.8641 166.472 52.5386 166.472 53.1532V60.1479H165.12V49.7157H166.456L171.364 56.7261Z" fill="#F7F7F7"/>
<path d="M179.549 58.95H180.992C182.251 58.95 183.124 58.95 183.891 58.3068C184.596 57.7235 185.117 56.4813 185.117 54.9474C185.117 53.6115 184.643 52.2938 183.844 51.5881C183.108 50.9735 182.309 50.9266 180.792 50.9266H179.549V58.95ZM178.199 60.1479V49.7157H180.747C182.417 49.7157 183.524 49.7313 184.535 50.4683C185.655 51.2964 186.469 52.9058 186.469 54.8849C186.469 56.6193 185.901 58.0907 184.933 59.0594C183.813 60.1479 182.709 60.1479 180.685 60.1479H178.199Z" fill="#F7F7F7"/>
<path d="M197.595 60.1479H190.324V49.7157H197.304V50.9266H191.673V54.1792H196.783V55.3927H191.673V58.9344H197.595V60.1479Z" fill="#F7F7F7"/>
<path d="M207.529 52.1243C206.871 51.1894 205.935 50.7285 204.723 50.7285C203.465 50.7285 202.529 51.3118 202.529 52.3535C202.529 53.291 203.083 53.6426 204.371 53.9655L205.783 54.3171C207.5 54.7624 208.819 55.377 208.819 57.2337C208.819 59.1973 207.116 60.3301 204.892 60.3301C202.928 60.3301 201.472 59.4264 200.735 58.1999L201.84 57.416C202.329 58.3379 203.419 59.1191 204.969 59.1191C206.364 59.1191 207.423 58.5202 207.423 57.3092C207.423 56.2806 206.625 55.8822 205.291 55.5462L204.017 55.2233C202.499 54.8249 201.164 54.3327 201.164 52.4759C201.164 50.5749 202.821 49.5306 204.739 49.5306C206.687 49.5306 207.899 50.4368 208.528 51.2806L207.529 52.1243Z" fill="#F7F7F7"/>
<path d="M218.955 52.1243C218.295 51.1894 217.359 50.7285 216.147 50.7285C214.889 50.7285 213.953 51.3118 213.953 52.3535C213.953 53.291 214.507 53.6426 215.795 53.9655L217.205 54.3171C218.923 54.7624 220.244 55.377 220.244 57.2337C220.244 59.1973 218.54 60.3301 216.316 60.3301C214.353 60.3301 212.895 59.4264 212.159 58.1999L213.263 57.416C213.753 58.3379 214.843 59.1191 216.392 59.1191C217.788 59.1191 218.848 58.5202 218.848 57.3092C218.848 56.2806 218.049 55.8822 216.715 55.5462L215.441 55.2233C213.923 54.8249 212.587 54.3327 212.587 52.4759C212.587 50.5749 214.245 49.5306 216.163 49.5306C218.111 49.5306 219.321 50.4368 219.952 51.2806L218.955 52.1243Z" fill="#F7F7F7"/>
<path d="M222.692 49.7157H230.455V50.9266H227.249V60.1479H225.899V50.9266H222.692V49.7157Z" fill="#F7F7F7"/>
<path d="M235.06 60.1479H233.711V49.7157H235.06V60.1479Z" fill="#F7F7F7"/>
<path d="M240.088 60.1479V49.7157H246.976V50.9136H241.437V54.1636H246.439V55.3615H241.437V60.1479H240.088Z" fill="#F7F7F7"/>
<path d="M249.772 49.7157H257.535V50.9266H254.328V60.1479H252.977V50.9266H249.772V49.7157Z" fill="#F7F7F7"/>
<path d="M261.237 58.7051C260.855 58.0462 260.7 57.4004 260.7 55.8509V49.7155H262.051V55.8353C262.051 56.679 262.065 57.5384 262.435 58.1374C262.817 58.7806 263.631 59.1504 264.643 59.1504C265.656 59.1504 266.469 58.7806 266.852 58.1374C267.22 57.5384 267.236 56.679 267.236 55.8353V49.7155H268.585V55.8509C268.585 57.4004 268.432 58.0462 268.048 58.7051C267.373 59.8405 266.193 60.3457 264.643 60.3457C263.093 60.3457 261.913 59.8405 261.237 58.7051Z" fill="#F7F7F7"/>
<path d="M279.303 56.7261C279.625 57.187 280.024 57.799 280.084 57.9084H280.1C280.1 57.9084 280.069 57.1401 280.069 56.2209V49.7157H281.419V60.1479H280.084L275.205 53.1219C274.916 52.7078 274.456 51.9865 274.393 51.8641H274.377C274.377 51.8641 274.409 52.5386 274.409 53.1532V60.1479H273.059V49.7157H274.393L279.303 56.7261Z" fill="#F7F7F7"/>
<path d="M292.688 58.1061C293.057 57.5697 293.241 56.9421 293.255 55.8665H289.667V54.6556H294.513V60.1478H293.241V58.8118C292.751 59.5801 291.721 60.3301 290.156 60.3301C287.396 60.3301 285.448 58.3379 285.448 54.9316C285.448 51.7572 287.273 49.5306 290.188 49.5306C292.06 49.5306 293.456 50.4368 294.207 51.9082L293.072 52.6764C292.535 51.4342 291.537 50.7129 290.188 50.7129C288.133 50.7129 286.844 52.3691 286.844 54.9316C286.844 57.4785 288.133 59.166 290.188 59.166C291.247 59.166 292.228 58.7676 292.688 58.1061Z" fill="#F7F7F7"/>
<path d="M0.613342 60.1582V49.7285H7.50133V50.9238H1.96399V54.1764H6.96399V55.3717H1.96399V60.1582H0.613342Z" fill="#F7F7F7"/>
<path d="M15.8733 46.9813H17.1773V48.6401H15.8733V46.9813ZM13.112 46.9813H14.416V48.6401H13.112V46.9813ZM15.1066 59.1453C17.1613 59.1453 18.42 57.4891 18.42 54.9422C18.42 52.3979 17.1773 50.7391 15.1066 50.7391C13.0346 50.7391 11.7773 52.3823 11.7773 54.9422C11.7773 57.4891 13.0346 59.1453 15.1066 59.1453ZM15.1066 49.5438C18.0053 49.5438 19.8306 51.7677 19.8306 54.9422C19.8306 58.1193 18.036 60.3433 15.1066 60.3433C12.192 60.3433 10.3653 58.1193 10.3653 54.9422C10.3653 51.7677 12.192 49.5438 15.1066 49.5438Z" fill="#F7F7F7"/>
<path d="M27.096 54.4993C28.0627 54.4993 28.492 54.4056 28.8907 54.2363C29.4733 53.9603 29.78 53.4395 29.78 52.7025C29.78 51.9837 29.444 51.429 28.8613 51.1686C28.4773 51.015 28.0627 50.9238 27.0814 50.9238H24.7494V54.4993H27.096ZM24.7494 60.1582H23.3987V49.7285H27.3267C28.3693 49.7285 28.9827 49.8509 29.4734 50.0332C30.532 50.4629 31.1774 51.4004 31.1774 52.7181C31.1774 54.39 30.0574 55.3874 28.5387 55.6348L31.484 60.1582H29.796L26.9427 55.6947H24.7494V60.1582Z" fill="#F7F7F7"/>
<path d="M36.5587 58.9629H38.0013C39.2587 58.9629 40.1333 58.9629 40.9 58.3171C41.6067 57.7363 42.128 56.4915 42.128 54.9577C42.128 53.6243 41.652 52.304 40.8547 51.5983C40.1173 50.9863 39.32 50.9395 37.8013 50.9395H36.5587V58.9629ZM35.2094 60.1582V49.7285H37.756C39.428 49.7285 40.532 49.7441 41.5454 50.4785C42.6654 51.3066 43.4774 52.9186 43.4774 54.8978C43.4774 56.6296 42.9107 58.1035 41.944 59.0697C40.824 60.1582 39.72 60.1582 37.6947 60.1582H35.2094Z" fill="#F7F7F7"/>
<path d="M54.64 60.1582H47.368V49.7285H54.348V50.9395H48.7186V54.1921H53.8266V55.403H48.7186V58.9473H54.64V60.1582Z" fill="#F7F7F7"/>
<path d="M62.4173 54.4993C63.384 54.4993 63.8133 54.4056 64.212 54.2363C64.7947 53.9603 65.1013 53.4395 65.1013 52.7025C65.1013 51.9837 64.764 51.429 64.1813 51.1686C63.7987 51.015 63.384 50.9238 62.4013 50.9238H60.0707V54.4993H62.4173ZM60.0707 60.1582H58.72V49.7285H62.6467C63.6907 49.7285 64.304 49.8509 64.7946 50.0332C65.8533 50.4629 66.4986 51.4004 66.4986 52.7181C66.4986 54.39 65.3786 55.3874 63.86 55.6348L66.8053 60.1582H65.1173L62.264 55.6947H60.0707V60.1582Z" fill="#F7F7F7"/>
<path d="M73.472 57.1686C73.6093 57.5046 73.7773 58.041 73.8546 58.2884H73.8693C73.9453 58.0124 74.084 57.5983 74.252 57.1686L76.876 49.7285H78.256L74.4973 60.1582H73.148L69.4973 49.7285H70.924L73.472 57.1686Z" fill="#F7F7F7"/>
<path d="M88.7653 60.1582H81.4946V49.7285H88.4733V50.9395H82.844V54.1921H87.9533V55.403H82.844V58.9473H88.7653V60.1582Z" fill="#F7F7F7"/>
<path d="M96.5787 54.4993C97.544 54.4993 97.9733 54.4056 98.372 54.2363C98.956 53.9603 99.2627 53.4395 99.2627 52.7025C99.2627 51.9837 98.924 51.429 98.3427 51.1686C97.9587 51.015 97.544 50.9238 96.5627 50.9238H94.232V54.4993H96.5787ZM94.232 60.1582H92.88V49.7285H96.8067C97.852 49.7285 98.4653 49.8509 98.956 50.0332C100.015 50.4629 100.659 51.4004 100.659 52.7181C100.659 54.39 99.5386 55.3874 98.0213 55.6348L100.967 60.1582H99.2787L96.424 55.6947H94.232V60.1582Z" fill="#F7F7F7"/>
<path d="M111.887 60.1582H104.615V49.7285H111.595V50.9395H105.967V54.1921H111.073V55.403H105.967V58.9473H111.887V60.1582Z" fill="#F7F7F7"/>
<path d="M117.317 60.1582H115.968V49.7285H117.317V60.1582Z" fill="#F7F7F7"/>
<path d="M128.164 56.7389C128.487 57.1973 128.885 57.8118 128.947 57.9186H128.963C128.963 57.9186 128.932 57.153 128.932 56.2311V49.7285H130.281V60.1582H128.947L124.069 53.1322C123.777 52.7181 123.317 51.9967 123.255 51.8743H123.241C123.241 51.8743 123.271 52.5488 123.271 53.1634V60.1582H121.92V49.7285H123.255L128.164 56.7389Z" fill="#F7F7F7"/>
</svg>
