<svg xmlns="http://www.w3.org/2000/svg" xmlns:xlink="http://www.w3.org/1999/xlink" version="1.1" id="Ebene_1" x="0px"
  y="0px" viewBox="0 0 394 158.3" style="enable-background:new 0 0 510.2 158.3;" xml:space="preserve">
  <style type="text/css">
    .st0 {
      fill: white;
    }

    .st1 {
      fill: white;
    }

    .st2 {
      fill: white;
    }
  </style>
  <path class="st0" d="M91.1,136h-87V31.9h33.4v71.3h53.6V136z" />
  <path class="st0" d="M215.3,4.2h33.3v89.6h-33.3V4.2z" />
  <g>
    <path class="st1" d="M215.5,112.2h12.7v2.4h-9.9v7.5h8.4v2.4h-8.4v9.9h-2.8V112.2z" />
    <path class="st1"
      d="M230.1,126.1c0-5.5,3.6-8.6,7.6-8.6s7.6,3.2,7.6,8.6c0,5.5-3.6,8.5-7.6,8.5   C233.7,134.7,230.1,131.6,230.1,126.1z M232.8,112.9c0-0.9,0.8-1.6,1.6-1.6s1.6,0.8,1.6,1.6s-0.8,1.6-1.6,1.6   S232.8,113.8,232.8,112.9z M242.4,126.1c0-3.8-1.9-6.3-4.7-6.3s-4.7,2.5-4.7,6.3c0,3.8,1.9,6.2,4.7,6.2S242.4,129.9,242.4,126.1z    M239.2,112.9c0-0.9,0.8-1.6,1.6-1.6c1,0,1.6,0.8,1.6,1.6s-0.8,1.6-1.6,1.6C240,114.6,239.2,113.8,239.2,112.9z" />
    <path class="st1"
      d="M249.6,118h2.3l0.3,2.9h0.1c1.1-2,2.8-3.4,4.7-3.4c0.8,0,1.3,0.1,1.8,0.4l-0.5,2.4c-0.5-0.1-0.9-0.3-1.6-0.3   c-1.4,0-3,1-4.2,3.8v10.5h-2.8L249.6,118L249.6,118z" />
    <path class="st1"
      d="M259.8,126.1c0-5.3,3.3-8.6,7.1-8.6c1.9,0,3.2,0.8,4.6,1.9l-0.1-2.8v-6.3h2.8v24h-2.3l-0.3-1.9h-0.1   c-1.3,1.3-3,2.3-4.9,2.3C262.5,134.7,259.8,131.6,259.8,126.1z M271.3,130.2v-8.6c-1.4-1.3-2.7-1.6-3.9-1.6c-2.7,0-4.7,2.5-4.7,6.2   c0,3.9,1.6,6.2,4.4,6.2C268.7,132.3,270,131.6,271.3,130.2z" />
    <path class="st1"
      d="M278.5,126.1c0-5.3,3.6-8.6,7.4-8.6c4.2,0,6.5,3,6.5,7.6c0,0.6,0,1.1-0.1,1.5h-11c0.3,3.4,2.3,5.7,5.5,5.7   c1.5,0,2.9-0.5,4.1-1.3l1,1.8c-1.4,0.9-3.2,1.6-5.5,1.6C281.9,134.7,278.5,131.4,278.5,126.1z M289.9,124.8c0-3.3-1.5-5.1-4.1-5.1   c-2.3,0-4.3,1.9-4.7,5.1H289.9z" />
    <path class="st1"
      d="M296.3,118h2.3l0.3,2.9h0.1c1.1-2,2.8-3.4,4.7-3.4c0.8,0,1.3,0.1,1.8,0.4l-0.5,2.4c-0.5-0.1-0.9-0.3-1.6-0.3   c-1.4,0-3,1-4.2,3.8v10.5h-2.8L296.3,118L296.3,118z" />
    <path class="st1"
      d="M306.5,118h2.8l3,9.3c0.5,1.6,1,3.3,1.5,4.8h0.1c0.5-1.5,1-3.2,1.5-4.8l3-9.3h2.7l-5.8,16.4h-3.2L306.5,118z" />
    <path class="st1"
      d="M323.3,126.1c0-5.3,3.6-8.6,7.4-8.6c4.2,0,6.5,3,6.5,7.6c0,0.6,0,1.1-0.1,1.5h-11c0.3,3.4,2.3,5.7,5.5,5.7   c1.5,0,2.9-0.5,4.1-1.3l1,1.8c-1.4,0.9-3.2,1.6-5.5,1.6C326.7,134.7,323.3,131.4,323.3,126.1z M334.7,124.8c0-3.3-1.5-5.1-4.1-5.1   c-2.3,0-4.3,1.9-4.7,5.1H334.7z" />
    <path class="st1"
      d="M341.1,118h2.3l0.3,2.9h0.1c1.1-2,2.8-3.4,4.7-3.4c0.8,0,1.3,0.1,1.8,0.4l-0.5,2.4c-0.5-0.1-0.9-0.3-1.6-0.3   c-1.4,0-3,1-4.2,3.8v10.5h-2.8L341.1,118L341.1,118z" />
    <path class="st1"
      d="M351.3,126.1c0-5.3,3.6-8.6,7.4-8.6c4.2,0,6.5,3,6.5,7.6c0,0.6,0,1.1-0.1,1.5h-11c0.3,3.4,2.3,5.7,5.5,5.7   c1.5,0,2.9-0.5,4.1-1.3l1,1.8c-1.4,0.9-3.2,1.6-5.5,1.6C354.7,134.7,351.3,131.4,351.3,126.1z M362.7,124.8c0-3.3-1.5-5.1-4.1-5.1   c-2.3,0-4.3,1.9-4.7,5.1H362.7z" />
    <path class="st1"
      d="M368.7,112.8c0-1.1,0.9-1.8,1.9-1.8s1.9,0.8,1.9,1.8s-0.9,1.8-1.9,1.8C369.4,114.6,368.7,113.8,368.7,112.8z    M369.2,118h2.8v16.4h-2.8V118z" />
    <path class="st1"
      d="M377.4,118h2.3l0.3,2.4h0.1c1.5-1.5,3.3-2.8,5.5-2.8c3.4,0,4.9,2.3,4.9,6.3v10.4h-2.8v-10c0-3-0.9-4.3-3-4.3   c-1.6,0-2.8,0.9-4.4,2.5v11.8h-2.8L377.4,118L377.4,118z" />
  </g>
  <path class="st2" d="M149.9,55.5" />
  <path class="st0"
    d="M184.5,65.8c9.5-4.9,13.4-15.4,13.6-21.4C198.9,19.3,180.5,4,155.4,4h-19.3v27.9h19.3c16.6,0,16.4,23.6,0,23.6  h-52.9V136h53.7c29.3,0,43.6-12.9,46.9-34.1C204.8,91.8,202.5,74.9,184.5,65.8z M155.4,106.6h-19.3V79.7h19.3  C175.1,79.7,175.5,106.6,155.4,106.6z" />
</svg>