<svg xmlns="http://www.w3.org/2000/svg" viewBox="0 0 200 78">
  <g clip-path="url(#clip0_984_165)">
    <path d="M192.67 46.0731L191.274 47.2947L189.355 47.9928L187.435 48.1673H184.468V28.9701H187.958L189.704 29.1446C190.227 29.1446 190.751 29.4937 191.1 29.6682L192.321 30.8898L192.67 32.635C192.67 33.3331 192.496 34.0312 192.147 34.5548C191.972 34.9038 191.449 35.4274 190.925 35.6019C190.576 35.9509 189.878 36.1254 189.355 36.3L188.133 36.4745H187.958V39.7904L189.355 39.9649L191.274 40.663L192.67 41.8846C193.019 42.4082 193.194 43.1062 193.194 43.9788C193.194 44.8514 193.019 45.5495 192.67 46.0731ZM197.557 39.9649C196.335 38.9178 194.939 38.3942 193.369 38.0452C194.939 37.6961 195.812 36.998 196.859 35.9509C197.732 34.9038 198.255 33.5076 198.255 31.7624C198.255 30.5408 197.906 29.4937 197.557 28.6211C197.033 27.7485 196.335 27.0504 195.463 26.7014C194.59 26.1778 193.718 25.8288 192.67 25.6542C191.623 25.3052 190.925 25.3052 189.704 25.3052H178.883V51.8323H188.656L192.496 51.4832C193.718 51.3087 194.939 50.9597 195.812 50.4361C196.859 49.9125 197.732 49.0399 198.255 48.1673C198.953 47.1202 199.128 45.8986 199.128 44.3279C199.128 42.5827 198.604 41.012 197.557 39.9649ZM168.412 25.3052H173.648V51.8323H164.922L155.149 30.1918V51.8323H149.913V25.3052H158.639L168.412 46.9457V25.3052ZM139.791 37.8706H145.026V50.6106C142.121 51.6773 139.046 52.2095 135.951 52.1813C132.32 52.2751 128.78 51.0331 126.004 48.6909C124.782 47.4692 123.735 46.0731 123.037 44.3279C122.339 42.7572 121.99 40.663 121.99 38.5687C121.99 36.4745 122.339 34.5548 123.037 32.8096C123.765 31.1481 124.843 29.6639 126.199 28.4589C127.555 27.2538 129.155 26.3566 130.89 25.8288C132.636 25.1307 134.032 24.7816 135.951 24.7816C138.618 24.7667 141.269 25.1792 143.805 26.0033L143.63 30.5408L140.314 29.3192L136.824 28.9701C135.602 28.9701 134.555 29.1446 133.334 29.6682C132.287 30.1918 131.588 30.7153 130.716 31.5879C129.843 32.4605 129.32 33.3331 128.796 34.5548C128.447 35.7764 128.098 36.998 128.098 38.5687C128.098 39.7904 128.273 41.1865 128.622 42.2336C128.971 43.4553 129.494 44.5024 130.192 45.2005C130.89 46.0731 131.763 46.7712 132.81 47.2947C133.857 47.8183 134.555 47.9928 135.951 47.9928H137.697L139.791 47.2947V37.8706ZM104.014 47.6438H101.92V29.3192H104.887C106.283 29.3192 107.505 29.4937 108.552 30.0172C109.599 30.5408 110.471 31.0644 111.17 31.937C111.868 32.8096 112.391 33.6822 112.74 34.9038C113.089 35.9509 113.264 37.1726 113.264 38.5687C113.264 44.6769 110.122 47.6438 104.014 47.6438ZM105.759 25.3052H95.9863V51.8323H104.887C107.156 51.8323 109.075 51.4832 110.821 50.9597C112.566 50.4361 114.136 49.5635 115.358 48.5164C116.58 47.4692 117.627 46.0731 118.325 44.3279C119.023 42.7572 119.372 40.8375 119.372 38.5687C119.372 34.2057 118.15 30.8898 115.882 28.6211C113.438 26.3523 110.122 25.3052 105.759 25.3052Z" fill="url(#paint0_linear_984_165)"/>
    <path d="M13.2634 67.8888L12.8804 67.3144C-6.49129 50.735 10.0921 3.68295 33.6523 0.890625L33.8568 0.873047C25.4798 1.74565 17.8009 5.41057 11.8673 10.8207C2.44317 19.8957 -1.04723 35.6025 0.348927 45.3757C1.74509 54.2762 6.45713 62.3041 13.2634 67.8888Z" fill="url(#paint1_linear_984_165)"/>
    <path d="M57.9372 24.5984C54.5584 10.5313 46.6886 -0.514588 33.8566 0.87266C30.6304 1.20872 27.5656 2.41074 24.8252 4.12792C38.5007 1.50029 46.6509 14.3817 49.2855 29.9224C52.2201 27.7791 55.1578 25.9668 57.9372 24.5984Z" fill="url(#paint2_linear_984_165)"/>
    <path d="M59.7883 38.0356C56.5162 39.9756 53.1523 42.5274 50.1041 45.5205C49.3539 57.9534 45.2371 69.4525 37.7581 73.8848C38.8154 75.969 40.8318 77.0244 43.6268 76.6659C43.6268 76.6659 43.8616 76.6318 43.979 76.6139C55.0693 74.6815 60.6181 56.2467 59.7883 38.0356Z" fill="url(#paint3_linear_984_165)"/>
    <path d="M23.4285 65.425C17.0205 65.3611 11.1221 63.2485 6.55176 58.2197C7.63877 61.1762 9.18638 63.8491 11.2456 66.1031C11.8953 66.7223 12.5681 67.3178 13.2628 67.8877C15.914 70.0877 19.3812 71.2073 23.3269 71.4714C22.9318 69.8223 22.9821 67.7569 23.4285 65.425Z" fill="url(#paint4_linear_984_165)"/>
    <path d="M36.912 69.7434C36.9215 67.6502 37.4215 65.1739 38.4692 62.4366C53.5588 56.7335 68.0991 43.9847 72.7852 34.0508C74.7865 34.4022 76.0786 35.6142 76.2638 37.853L76.2645 37.8703C76.9652 48.4967 55.8659 64.4364 36.912 69.7434Z" fill="url(#paint5_linear_984_165)"/>
    <path d="M76.2652 37.8705C75.5671 29.1445 58.1151 35.9507 47.2949 48.5162C33.5078 64.223 34.5549 78.1846 43.979 76.6139C38.0744 77.5134 32.0418 77.0356 26.3525 75.2178C19.3717 72.6 24.0837 56.3696 34.9039 43.4551C48.1675 27.3993 69.808 15.3574 73.8219 25.4795C75.6468 29.1292 76.0979 33.8552 76.2652 37.8705Z" fill="url(#paint6_linear_984_165)"/>
  </g>
  <defs>
    <linearGradient id="paint0_linear_984_165" x1="147.47" y1="52.1813" x2="147.47" y2="24.8104" gradientUnits="userSpaceOnUse">
      <stop stop-color="white"/>
      <stop offset="1" stop-color="#ebebeb"/>
    </linearGradient>
    <linearGradient id="paint1_linear_984_165" x1="-0.000113316" y1="34.3809" x2="33.8327" y2="34.3809" gradientUnits="userSpaceOnUse">
      <stop stop-color="#474747"/>
      <stop offset="0.3" stop-color="#868686"/>
      <stop offset="0.6" stop-color="#AAAAAA"/>
      <stop offset="0.7" stop-color="#A8A8A8"/>
      <stop offset="1" stop-color="white"/>
    </linearGradient>
    <linearGradient id="paint2_linear_984_165" x1="35.951" y1="77.1379" x2="35.951" y2="0.736708" gradientUnits="userSpaceOnUse">
      <stop stop-color="#AFAFAF"/>
      <stop offset="0.5" stop-color="white"/>
      <stop offset="1" stop-color="#AEAEAE"/>
    </linearGradient>
    <linearGradient id="paint3_linear_984_165" x1="35.951" y1="77.1379" x2="35.951" y2="0.736708" gradientUnits="userSpaceOnUse">
      <stop stop-color="#AFAFAF"/>
      <stop offset="0.5" stop-color="white"/>
      <stop offset="1" stop-color="#AEAEAE"/>
    </linearGradient>
    <linearGradient id="paint4_linear_984_165" x1="0.348633" y1="48.6912" x2="76.3143" y2="48.6912" gradientUnits="userSpaceOnUse">
      <stop stop-color="#B4B4B4"/>
      <stop offset="0.5" stop-color="white"/>
      <stop offset="1" stop-color="#ACACAC"/>
    </linearGradient>
    <linearGradient id="paint5_linear_984_165" x1="0.348633" y1="48.6912" x2="76.3143" y2="48.6912" gradientUnits="userSpaceOnUse">
      <stop stop-color="#B4B4B4"/>
      <stop offset="0.5" stop-color="white"/>
      <stop offset="1" stop-color="#ACACAC"/>
    </linearGradient>
    <linearGradient id="paint6_linear_984_165" x1="23.0366" y1="49.3888" x2="76.194" y2="49.3888" gradientUnits="userSpaceOnUse">
      <stop/>
      <stop offset="0.3" stop-color="#818181"/>
      <stop offset="0.6" stop-color="#B2B3B4"/>
      <stop offset="0.7" stop-color="white"/>
      <stop offset="1" stop-color="#8B8B8B"/>
    </linearGradient>
  </defs>
</svg>