<?xml version="1.0" encoding="UTF-8"?><svg id="Ebene_1" xmlns="http://www.w3.org/2000/svg" xmlns:xlink="http://www.w3.org/1999/xlink" viewBox="0 0 1789 906"><defs><style>.cls-1{letter-spacing:-.02em;}.cls-2{clip-path:url(#clippath);}.cls-3,.cls-4,.cls-5{fill:none;}.cls-3,.cls-6,.cls-7,.cls-8,.cls-9,.cls-10{stroke-width:0px;}.cls-11{fill:#fffdf0;}.cls-11,.cls-12{font-size:19.28px;}.cls-11,.cls-12,.cls-13{font-family:HelveticaNeue, 'Helvetica Neue';}.cls-4{stroke:#fff;}.cls-4,.cls-5{stroke-linejoin:round;stroke-width:.75px;}.cls-12,.cls-14,.cls-13{fill:#fff;}.cls-15{letter-spacing:0em;}.cls-6{fill:#2c2c2c;}.cls-16{letter-spacing:-.02em;}.cls-7,.cls-9{fill:#222;}.cls-17{letter-spacing:-.01em;}.cls-18{letter-spacing:-.01em;}.cls-19{letter-spacing:-.01em;}.cls-14{font-family:HelveticaNeue-Bold, 'Helvetica Neue';font-weight:700;}.cls-14,.cls-13{font-size:32.14px;}.cls-8,.cls-10{fill:#000;opacity:0;}.cls-20{letter-spacing:0em;}.cls-21{clip-path:url(#clippath-1);}.cls-22{clip-path:url(#clippath-2);}.cls-23{letter-spacing:-.02em;}.cls-24{letter-spacing:-.02em;}.cls-5{stroke:#595959;}.cls-9,.cls-10{fill-rule:evenodd;}.cls-25{letter-spacing:0em;}.cls-26{letter-spacing:-.02em;}</style><clipPath id="clippath"><rect class="cls-3" x="-1.99" y="-4" width="1801.99" height="910.64"/></clipPath><clipPath id="clippath-1"><rect class="cls-3" x="-1.99" y="-4" width="1801.99" height="910.64"/></clipPath><clipPath id="clippath-2"><rect class="cls-3" x="-1.99" y="-4" width="1804.13" height="910.64"/></clipPath></defs><g class="cls-2"><g class="cls-21"><g class="cls-22"><rect class="cls-6" x="-1.99" y="-4" width="1804.13" height="910.64"/><rect class="cls-8" x="13.01" y="4.57" width="329.97" height="57.85"/><text class="cls-12" transform="translate(33.43 42.94)"><tspan x="0" y="0">Build</tspan><tspan class="cls-25" x="43.93" y="0">S</tspan><tspan x="56.39" y="0">ys</tspan><tspan class="cls-17" x="75.67" y="0">t</tspan><tspan x="81.51" y="0">ems</tspan></text><rect class="cls-8" x="1527.88" y="4.57" width="248.55" height="57.85"/><text class="cls-11" transform="translate(1686.14 42.94)"><tspan x="0" y="0">2024-03</tspan></text><rect class="cls-7" x="-1.99" y="-4" width="1804.13" height="910.64"/><rect class="cls-5" x="-.92" y="-5.07" width="1804.13" height="910.64"/><path class="cls-10" d="M143.36,185.63h0c0-50.29,40.77-91.06,91.06-91.06h1332.78c24.15,0,47.31,9.59,64.39,26.67,17.08,17.08,26.67,40.24,26.67,64.39,0,50.29-40.77,91.06-91.06,91.06H234.43c-50.29,0-91.06-40.77-91.06-91.06Z"/><path class="cls-4" d="M143.36,186.7h0c0-50.29,40.77-91.06,91.06-91.06h1332.78c24.15,0,47.31,9.59,64.39,26.67,17.08,17.08,26.67,40.24,26.67,64.39,0,50.29-40.77,91.06-91.06,91.06H234.43c-50.29,0-91.06-40.77-91.06-91.06Z"/><path class="cls-9" d="M1178.09,565.85h0c0-132.63,107.51-240.14,240.14-240.14,63.69,0,124.77,25.3,169.8,70.34,45.03,45.03,70.34,106.12,70.34,169.8,0,132.63-107.51,240.14-240.14,240.14s-240.14-107.51-240.14-240.14Z"/><path class="cls-4" d="M1178.09,565.85h0c0-132.63,107.51-240.14,240.14-240.14,63.69,0,124.77,25.3,169.8,70.34,45.03,45.03,70.34,106.12,70.34,169.8,0,132.63-107.51,240.14-240.14,240.14s-240.14-107.51-240.14-240.14Z"/><path class="cls-9" d="M143.23,565.87h0c0-132.63,107.51-240.14,240.14-240.14,63.69,0,124.77,25.3,169.8,70.34,45.03,45.03,70.34,106.12,70.34,169.8,0,132.63-107.51,240.14-240.14,240.14s-240.14-107.51-240.14-240.14Z"/><path class="cls-4" d="M143.23,565.87h0c0-132.63,107.51-240.14,240.14-240.14,63.69,0,124.77,25.3,169.8,70.34,45.03,45.03,70.34,106.12,70.34,169.8,0,132.63-107.51,240.14-240.14,240.14s-240.14-107.51-240.14-240.14Z"/><rect class="cls-8" x="1217.19" y="478.1" width="402.82" height="173.56"/><text class="cls-13" transform="translate(1295.72 538.83)"><tspan x="0" y="0">Ö</tspan><tspan class="cls-18" x="24.43" y="0">k</tspan><tspan class="cls-20" x="40.72" y="0">onomisch und </tspan></text><text class="cls-13" transform="translate(1340.41 577.4)"><tspan x="0" y="0">ö</tspan><tspan class="cls-18" x="18.45" y="0">k</tspan><tspan x="34.74" y="0">ologisch </tspan></text><text class="cls-13" transform="translate(1274.74 615.97)"><tspan x="0" y="0">t</tspan><tspan class="cls-1" x="10.12" y="0">r</tspan><tspan x="20.09" y="0">agfähiges </tspan><tspan class="cls-18" x="168.28" y="0">K</tspan><tspan x="189.33" y="0">on</tspan><tspan class="cls-16" x="225.65" y="0">z</tspan><tspan x="240.5" y="0">ept</tspan></text><rect class="cls-8" x="169.43" y="478.1" width="426.39" height="173.56"/><text class="cls-13" transform="translate(264.24 538.84)"><tspan x="0" y="0">A</tspan><tspan class="cls-24" x="20.83" y="0">r</tspan><tspan x="30.95" y="0">chi</tspan><tspan class="cls-18" x="73.21" y="0">t</tspan><tspan x="82.95" y="0">ek</tspan><tspan class="cls-19" x="116.89" y="0">t</tspan><tspan x="126.63" y="0">onische</tspan></text><text class="cls-13" transform="translate(259.68 577.41)"><tspan x="0" y="0">und ene</tspan><tspan class="cls-23" x="116.12" y="0">r</tspan><tspan x="126.24" y="0">getische</tspan></text><text class="cls-13" transform="translate(266.14 615.98)"><tspan x="0" y="0">Qualität s</tspan><tspan class="cls-19" x="136.34" y="0">t</tspan><tspan x="146.07" y="0">eigern</tspan></text><path class="cls-9" d="M660.66,565.85h0c0-132.63,107.51-240.14,240.14-240.14,63.69,0,124.77,25.3,169.8,70.34,45.03,45.03,70.34,106.12,70.34,169.8,0,132.63-107.51,240.14-240.14,240.14s-240.14-107.51-240.14-240.14Z"/><path class="cls-4" d="M660.66,565.85h0c0-132.63,107.51-240.14,240.14-240.14,63.69,0,124.77,25.3,169.8,70.34,45.03,45.03,70.34,106.12,70.34,169.8,0,132.63-107.51,240.14-240.14,240.14s-240.14-107.51-240.14-240.14Z"/><rect class="cls-8" x="707.24" y="478.1" width="385.68" height="173.56"/><text class="cls-13" transform="translate(812.02 519.55)"><tspan x="0" y="0">Optimierung </tspan></text><text class="cls-13" transform="translate(754 558.12)"><tspan x="0" y="0">vermietba</tspan><tspan class="cls-23" x="142.28" y="0">r</tspan><tspan x="152.4" y="0">er Fläche:</tspan></text><text class="cls-13" transform="translate(740.78 596.69)"><tspan x="0" y="0">Aufs</tspan><tspan class="cls-18" x="64.28" y="0">t</tspan><tspan x="74.02" y="0">ockung, Neubau, </tspan></text><text class="cls-13" transform="translate(873.96 635.25)"><tspan x="0" y="0">etc.</tspan></text><rect class="cls-8" x="184.42" y="98.85" width="1420.59" height="173.56"/><text class="cls-14" transform="translate(270.86 197.61)"><tspan x="0" y="0">Nachhaltige Entwicklung und Aufwe</tspan><tspan class="cls-15" x="552.8" y="0">r</tspan><tspan x="565.34" y="0">tung Immobilie: Best-</tspan><tspan class="cls-26" x="894.25" y="0">Pr</tspan><tspan x="927.23" y="0">actice </tspan><tspan class="cls-18" x="1029.56" y="0">C</tspan><tspan x="1052.99" y="0">ase schaﬀen</tspan></text></g></g></g></svg>