<svg viewBox="0 0 420 650" fill="none" xmlns="http://www.w3.org/2000/svg">
<rect width="420" height="650" rx="9" fill="#222222"/>
<rect x="0.5" y="0.5" width="419" height="649" rx="8.5" stroke="white"/>
<rect x="15.5" y="445.5" width="389" height="179" rx="8.5" stroke="white"/>
<path d="M30.848 33V17.6H41.21V19.646H33.29V24.046H40.858V26.136H33.29V30.932H41.496V33H30.848ZM43.9882 33V22.33H46.2762V22.99C46.2762 23.254 46.2762 23.54 46.2322 23.804C46.8262 22.814 47.8602 21.978 49.3342 21.978C50.6982 21.978 51.8422 22.836 52.3482 24.024C53.0082 22.88 54.2622 21.978 55.8022 21.978C57.9582 21.978 59.5202 23.496 59.5202 26.268V33H57.2322V26.642C57.2322 24.86 56.6162 23.782 55.2302 23.782C53.8002 23.782 52.8982 25.058 52.8982 26.708V33H50.6102V26.686C50.6102 24.882 50.0162 23.782 48.6302 23.782C47.2222 23.782 46.2762 25.036 46.2762 26.752V33H43.9882ZM62.4003 33V22.33H64.6883V33H62.4003ZM62.3123 20.504V17.974H64.7983V20.504H62.3123ZM71.6895 33.352C68.7415 33.352 66.9815 31.79 66.8715 29.392H69.1595C69.2255 30.756 70.1055 31.614 71.6675 31.614C73.0095 31.614 73.8895 30.998 73.8895 30.052C73.8895 29.282 73.2955 28.842 72.0855 28.6L70.6335 28.314C68.5215 27.918 67.2455 26.884 67.2455 25.168C67.2455 23.342 68.9835 21.978 71.5135 21.978C74.2195 21.978 75.8915 23.342 76.0015 25.542H73.7135C73.6035 24.376 72.7675 23.716 71.4475 23.716C70.3035 23.716 69.5115 24.222 69.5115 25.058C69.5115 25.806 70.0395 26.18 71.3155 26.422L72.7895 26.708C74.7915 27.104 76.1335 28.05 76.1335 29.876C76.1335 31.856 74.4395 33.352 71.6895 33.352ZM82.5176 33.352C79.5696 33.352 77.8096 31.79 77.6996 29.392H79.9876C80.0536 30.756 80.9336 31.614 82.4956 31.614C83.8376 31.614 84.7176 30.998 84.7176 30.052C84.7176 29.282 84.1236 28.842 82.9136 28.6L81.4616 28.314C79.3496 27.918 78.0736 26.884 78.0736 25.168C78.0736 23.342 79.8116 21.978 82.3416 21.978C85.0476 21.978 86.7196 23.342 86.8296 25.542H84.5416C84.4316 24.376 83.5956 23.716 82.2756 23.716C81.1316 23.716 80.3396 24.222 80.3396 25.058C80.3396 25.806 80.8676 26.18 82.1436 26.422L83.6176 26.708C85.6196 27.104 86.9616 28.05 86.9616 29.876C86.9616 31.856 85.2676 33.352 82.5176 33.352ZM89.3417 33V22.33H91.6297V33H89.3417ZM89.2537 20.504V17.974H91.7397V20.504H89.2537ZM99.3349 33.352C96.1889 33.352 93.9889 31.152 93.9889 27.676C93.9889 24.266 96.2109 21.978 99.3349 21.978C102.481 21.978 104.703 24.266 104.703 27.676C104.703 31.152 102.481 33.352 99.3349 33.352ZM96.3209 27.676C96.3209 30.052 97.4869 31.57 99.3349 31.57C101.183 31.57 102.371 30.052 102.371 27.676C102.371 25.256 101.161 23.782 99.3349 23.782C97.5309 23.782 96.3209 25.256 96.3209 27.676ZM107.066 33V22.33H109.354V22.924C109.354 23.21 109.332 23.474 109.31 23.804C109.882 22.814 111.026 21.978 112.588 21.978C115.008 21.978 116.438 23.584 116.438 26.268V33H114.15V26.576C114.15 24.794 113.446 23.782 111.972 23.782C110.388 23.782 109.354 25.08 109.354 26.664V33H107.066ZM123.316 33.352C120.368 33.352 118.608 31.79 118.498 29.392H120.786C120.852 30.756 121.732 31.614 123.294 31.614C124.636 31.614 125.516 30.998 125.516 30.052C125.516 29.282 124.922 28.842 123.712 28.6L122.26 28.314C120.148 27.918 118.872 26.884 118.872 25.168C118.872 23.342 120.61 21.978 123.14 21.978C125.846 21.978 127.518 23.342 127.628 25.542H125.34C125.23 24.376 124.394 23.716 123.074 23.716C121.93 23.716 121.138 24.222 121.138 25.058C121.138 25.806 121.666 26.18 122.942 26.422L124.416 26.708C126.418 27.104 127.76 28.05 127.76 29.876C127.76 31.856 126.066 33.352 123.316 33.352ZM130.141 37.532V22.33H132.429V22.946C132.429 23.232 132.429 23.496 132.385 23.826C133.023 22.77 134.255 21.978 135.905 21.978C138.853 21.978 140.701 24.354 140.701 27.676C140.701 31.108 138.655 33.352 135.817 33.352C134.167 33.352 133.067 32.604 132.385 31.526C132.429 31.878 132.429 32.164 132.429 32.472V37.532H130.141ZM132.319 27.654C132.319 29.986 133.573 31.57 135.355 31.57C137.159 31.57 138.347 29.964 138.347 27.654C138.347 25.388 137.181 23.782 135.355 23.782C133.595 23.782 132.319 25.278 132.319 27.654ZM143.031 33V22.33H145.319V22.968C145.319 23.386 145.319 23.782 145.275 24.178C145.825 22.968 146.903 21.978 148.509 21.978C148.685 21.978 148.861 21.978 149.037 22.022V24.244C148.883 24.222 148.663 24.178 148.355 24.178C146.507 24.178 145.319 25.168 145.319 27.522V33H143.031ZM155.345 33.352C152.199 33.352 149.999 31.152 149.999 27.676C149.999 24.266 152.221 21.978 155.345 21.978C158.491 21.978 160.713 24.266 160.713 27.676C160.713 31.152 158.491 33.352 155.345 33.352ZM152.331 27.676C152.331 30.052 153.497 31.57 155.345 31.57C157.193 31.57 158.381 30.052 158.381 27.676C158.381 25.256 157.171 23.782 155.345 23.782C153.541 23.782 152.331 25.256 152.331 27.676ZM166.138 24.178V33H163.85V24.178H161.782V22.33H163.85V20.724C163.85 18.414 165.236 17.226 167.084 17.226C167.656 17.226 168.118 17.336 168.338 17.424V19.272C168.162 19.228 167.898 19.184 167.634 19.184C166.732 19.184 166.138 19.712 166.138 20.68V22.33H172.452V33H170.164V24.178H166.138ZM170.054 20.504V17.974H172.54V20.504H170.054ZM175.451 33V17.6H177.739V33H175.451Z" fill="white"/>
<path d="M35.412 477V463.646H30.176V461.6H43.068V463.646H37.854V477H35.412ZM46.9677 477.352C43.8217 477.352 41.6217 475.152 41.6217 471.676C41.6217 468.266 43.8437 465.978 46.9677 465.978C50.1137 465.978 52.3357 468.266 52.3357 471.676C52.3357 475.152 50.1137 477.352 46.9677 477.352ZM43.9537 471.676C43.9537 474.052 45.1197 475.57 46.9677 475.57C48.8157 475.57 50.0037 474.052 50.0037 471.676C50.0037 469.256 48.7937 467.782 46.9677 467.782C45.1637 467.782 43.9537 469.256 43.9537 471.676ZM55.0511 477V461.6H60.0891C65.1711 461.6 68.2951 464.042 68.2951 469.3C68.2951 473.964 65.5671 477 60.3531 477H55.0511ZM57.4931 474.932H60.1331C63.6091 474.932 65.7871 473.238 65.7871 469.3C65.7871 465.714 63.9611 463.646 60.0891 463.646H57.4931V474.932ZM75.4345 477.352C72.2885 477.352 70.0885 475.152 70.0885 471.676C70.0885 468.266 72.3105 465.978 75.4345 465.978C78.5805 465.978 80.8025 468.266 80.8025 471.676C80.8025 475.152 78.5805 477.352 75.4345 477.352ZM72.4205 471.676C72.4205 474.052 73.5865 475.57 75.4345 475.57C77.2825 475.57 78.4705 474.052 78.4705 471.676C78.4705 469.256 77.2605 467.782 75.4345 467.782C73.6305 467.782 72.4205 469.256 72.4205 471.676ZM82.9679 477V474.074H85.8939V477H82.9679ZM82.9679 470.202V467.276H85.8939V470.202H82.9679ZM30.704 506V503.756L38.536 493.966C38.91 493.504 39.24 493.108 39.658 492.646H31.1V490.6H42.452V492.712L34.62 502.502C34.246 502.964 33.85 503.448 33.41 503.932H42.76V506H30.704ZM44.9023 506V495.33H47.1903V506H44.9023ZM44.8143 493.504V490.974H47.3003V493.504H44.8143ZM54.8514 506.352C51.6614 506.352 49.5494 504.328 49.5494 500.632C49.5494 497.31 51.7494 494.978 54.7634 494.978C57.9754 494.978 59.8014 497.222 59.8014 500.676V501.16H51.8594C51.9034 503.228 53.1354 504.57 54.8734 504.57C56.1054 504.57 57.1834 503.976 57.4034 502.612H59.7134C59.4934 504.636 57.8214 506.352 54.8514 506.352ZM51.8814 499.532H57.4034C57.3814 497.86 56.3914 496.716 54.7414 496.716C53.1354 496.716 52.0354 497.926 51.8814 499.532ZM62.1757 506V490.6H64.4637V506H62.1757ZM70.2328 506L66.1848 495.33H68.6488L71.1788 502.7C71.3548 503.162 71.4428 503.492 71.5528 503.91C71.6628 503.492 71.7728 503.162 71.9268 502.7L74.4128 495.33H76.7888L72.8068 506H70.2328ZM82.953 506.352C79.763 506.352 77.651 504.328 77.651 500.632C77.651 497.31 79.851 494.978 82.865 494.978C86.077 494.978 87.903 497.222 87.903 500.676V501.16H79.961C80.005 503.228 81.237 504.57 82.975 504.57C84.207 504.57 85.285 503.976 85.505 502.612H87.815C87.595 504.636 85.923 506.352 82.953 506.352ZM79.983 499.532H85.505C85.483 497.86 84.493 496.716 82.843 496.716C81.237 496.716 80.137 497.926 79.983 499.532ZM90.2773 506V495.33H92.5653V495.968C92.5653 496.386 92.5653 496.782 92.5213 497.178C93.0713 495.968 94.1493 494.978 95.7553 494.978C95.9313 494.978 96.1073 494.978 96.2833 495.022V497.244C96.1293 497.222 95.9093 497.178 95.6013 497.178C93.7533 497.178 92.5653 498.168 92.5653 500.522V506H90.2773ZM102.547 506.352C99.3567 506.352 97.2447 504.328 97.2447 500.632C97.2447 497.31 99.4447 494.978 102.459 494.978C105.671 494.978 107.497 497.222 107.497 500.676V501.16H99.5547C99.5987 503.228 100.831 504.57 102.569 504.57C103.801 504.57 104.879 503.976 105.099 502.612H107.409C107.189 504.636 105.517 506.352 102.547 506.352ZM99.5767 499.532H105.099C105.077 497.86 104.087 496.716 102.437 496.716C100.831 496.716 99.7307 497.926 99.5767 499.532ZM109.871 506V495.33H112.159V506H109.871ZM109.783 493.504V490.974H112.269V493.504H109.783ZM115.156 506V495.33H117.444V495.924C117.444 496.21 117.422 496.474 117.4 496.804C117.972 495.814 119.116 494.978 120.678 494.978C123.098 494.978 124.528 496.584 124.528 499.268V506H122.24V499.576C122.24 497.794 121.536 496.782 120.062 496.782C118.478 496.782 117.444 498.08 117.444 499.664V506H115.156ZM133.1 506.352C131.472 506.352 130.262 505.582 129.646 504.526C129.69 504.878 129.69 505.164 129.69 505.494V506H127.402V490.6H129.69V495.858C129.69 496.188 129.668 496.496 129.646 496.804C130.328 495.77 131.472 494.978 133.1 494.978C135.938 494.978 137.984 497.266 137.984 500.676C137.984 504.152 135.982 506.352 133.1 506.352ZM129.558 500.676C129.558 502.986 130.812 504.57 132.594 504.57C134.398 504.57 135.63 502.986 135.63 500.676C135.63 498.388 134.398 496.782 132.594 496.782C130.812 496.782 129.558 498.3 129.558 500.676ZM143.373 506.352C141.437 506.352 139.699 505.12 139.699 503.074C139.699 500.83 141.459 499.928 143.549 499.642L145.463 499.356C146.299 499.246 146.585 498.938 146.585 498.344C146.585 497.398 145.837 496.716 144.649 496.716C143.197 496.716 142.383 497.508 142.317 498.718H139.985C140.095 496.628 141.767 494.978 144.495 494.978C147.443 494.978 148.851 496.628 148.851 499.356V506H146.717V505.516C146.717 505.186 146.739 504.878 146.761 504.548C146.211 505.626 145.089 506.352 143.373 506.352ZM142.053 503.008C142.053 504.042 142.867 504.636 143.879 504.636C145.441 504.636 146.629 503.536 146.629 501.908V500.544C146.453 500.764 146.057 500.896 145.419 501.006L144.209 501.248C142.955 501.49 142.053 501.974 142.053 503.008ZM151.701 506V495.33H153.989V495.968C153.989 496.386 153.989 496.782 153.945 497.178C154.495 495.968 155.573 494.978 157.179 494.978C157.355 494.978 157.531 494.978 157.707 495.022V497.244C157.553 497.222 157.333 497.178 157.025 497.178C155.177 497.178 153.989 498.168 153.989 500.522V506H151.701ZM163.239 506.352C160.929 506.352 159.411 504.878 159.411 502.106V495.33H161.699V501.71C161.699 503.47 162.381 504.548 163.899 504.548C165.439 504.548 166.407 503.382 166.407 501.446V495.33H168.695V506H166.429V505.45C166.429 505.142 166.451 504.812 166.495 504.526C165.967 505.604 164.845 506.352 163.239 506.352ZM171.682 506V495.33H173.97V495.924C173.97 496.21 173.948 496.474 173.926 496.804C174.498 495.814 175.642 494.978 177.204 494.978C179.624 494.978 181.054 496.584 181.054 499.268V506H178.766V499.576C178.766 497.794 178.062 496.782 176.588 496.782C175.004 496.782 173.97 498.08 173.97 499.664V506H171.682ZM188.57 510.884C185.578 510.884 183.774 509.256 183.774 506.88H186.062C186.084 508.222 187.03 509.102 188.614 509.102C190.308 509.102 191.496 508.156 191.496 506.22V504.988C191.496 504.636 191.518 504.306 191.54 503.976C190.946 504.988 189.758 505.736 188.13 505.736C185.27 505.736 183.312 503.712 183.312 500.368C183.312 497.068 185.534 494.978 188.108 494.978C189.934 494.978 190.946 495.814 191.54 496.804C191.518 496.496 191.496 496.188 191.496 495.858V495.33H193.784V505.56C193.784 509.146 191.848 510.884 188.57 510.884ZM185.666 500.368C185.666 502.502 186.898 503.932 188.658 503.932C190.396 503.932 191.65 502.48 191.65 500.368C191.65 498.278 190.396 496.782 188.658 496.782C186.898 496.782 185.666 498.256 185.666 500.368ZM201.439 506.352C198.249 506.352 196.137 504.328 196.137 500.632C196.137 497.31 198.337 494.978 201.351 494.978C204.563 494.978 206.389 497.222 206.389 500.676V501.16H198.447C198.491 503.228 199.723 504.57 201.461 504.57C202.693 504.57 203.771 503.976 203.991 502.612H206.301C206.081 504.636 204.409 506.352 201.439 506.352ZM198.469 499.532H203.991C203.969 497.86 202.979 496.716 201.329 496.716C199.723 496.716 198.623 497.926 198.469 499.532ZM208.764 506V495.33H211.052V495.924C211.052 496.21 211.03 496.474 211.008 496.804C211.58 495.814 212.724 494.978 214.286 494.978C216.706 494.978 218.136 496.584 218.136 499.268V506H215.848V499.576C215.848 497.794 215.144 496.782 213.67 496.782C212.086 496.782 211.052 498.08 211.052 499.664V506H208.764ZM225.93 506V490.6H228.218V495.836C228.218 496.144 228.218 496.452 228.174 496.804C228.768 495.77 229.89 494.978 231.452 494.978C233.872 494.978 235.302 496.584 235.302 499.268V506H233.014V499.576C233.014 497.794 232.288 496.782 230.814 496.782C229.252 496.782 228.218 498.08 228.218 499.664V506H225.93ZM238.176 506V495.33H240.464V506H238.176ZM238.088 493.504V490.974H240.574V493.504H238.088ZM243.461 506V495.33H245.749V495.924C245.749 496.21 245.727 496.474 245.705 496.804C246.277 495.814 247.421 494.978 248.983 494.978C251.403 494.978 252.833 496.584 252.833 499.268V506H250.545V499.576C250.545 497.794 249.841 496.782 248.367 496.782C246.783 496.782 245.749 498.08 245.749 499.664V506H243.461ZM259.711 506.352C256.763 506.352 255.003 504.79 254.893 502.392H257.181C257.247 503.756 258.127 504.614 259.689 504.614C261.031 504.614 261.911 503.998 261.911 503.052C261.911 502.282 261.317 501.842 260.107 501.6L258.655 501.314C256.543 500.918 255.267 499.884 255.267 498.168C255.267 496.342 257.005 494.978 259.535 494.978C262.241 494.978 263.913 496.342 264.023 498.542H261.735C261.625 497.376 260.789 496.716 259.469 496.716C258.325 496.716 257.533 497.222 257.533 498.058C257.533 498.806 258.061 499.18 259.337 499.422L260.811 499.708C262.813 500.104 264.155 501.05 264.155 502.876C264.155 504.856 262.461 506.352 259.711 506.352ZM266.535 506V495.33H268.823V506H266.535ZM266.447 493.504V490.974H268.933V493.504H266.447ZM276.528 506.352C273.382 506.352 271.182 504.306 271.182 500.654C271.182 497.178 273.558 494.978 276.638 494.978C279.454 494.978 281.236 496.672 281.478 499.136H279.146C279.014 497.838 278.156 496.782 276.616 496.782C274.812 496.782 273.514 498.322 273.514 500.654C273.514 502.986 274.746 504.57 276.594 504.57C278.2 504.57 279.102 503.558 279.278 502.172H281.566C281.28 504.68 279.564 506.352 276.528 506.352ZM283.766 506V490.6H286.054V495.836C286.054 496.144 286.054 496.452 286.01 496.804C286.604 495.77 287.726 494.978 289.288 494.978C291.708 494.978 293.138 496.584 293.138 499.268V506H290.85V499.576C290.85 497.794 290.124 496.782 288.65 496.782C287.088 496.782 286.054 498.08 286.054 499.664V506H283.766ZM300.172 506.176C298.236 506.176 296.916 505.23 296.916 502.854V497.178H294.694V495.33H296.916V491.634H299.204V495.33H301.624V497.178H299.204V502.546C299.204 503.734 299.732 504.262 300.766 504.262C301.03 504.262 301.294 504.24 301.58 504.196V506.022C301.25 506.11 300.722 506.176 300.172 506.176ZM303.746 506V490.6H306.034V506H303.746ZM309.031 506V495.33H311.319V506H309.031ZM308.943 493.504V490.974H311.429V493.504H308.943ZM319.024 506.352C315.878 506.352 313.678 504.306 313.678 500.654C313.678 497.178 316.054 494.978 319.134 494.978C321.95 494.978 323.732 496.672 323.974 499.136H321.642C321.51 497.838 320.652 496.782 319.112 496.782C317.308 496.782 316.01 498.322 316.01 500.654C316.01 502.986 317.242 504.57 319.09 504.57C320.696 504.57 321.598 503.558 321.774 502.172H324.062C323.776 504.68 322.06 506.352 319.024 506.352ZM326.262 506V490.6H328.55V495.836C328.55 496.144 328.55 496.452 328.506 496.804C329.1 495.77 330.222 494.978 331.784 494.978C334.204 494.978 335.634 496.584 335.634 499.268V506H333.346V499.576C333.346 497.794 332.62 496.782 331.146 496.782C329.584 496.782 328.55 498.08 328.55 499.664V506H326.262ZM35.764 535.352C32.948 535.352 30.858 533.372 30.858 529.676C30.858 526.156 33.036 523.978 35.808 523.978C37.524 523.978 38.624 524.88 39.174 525.804C39.13 525.474 39.13 525.166 39.13 524.858V519.6H41.418V535H39.13V534.472C39.13 534.12 39.13 533.834 39.174 533.526C38.668 534.406 37.546 535.352 35.764 535.352ZM33.212 529.676C33.212 532.03 34.466 533.57 36.248 533.57C37.986 533.57 39.262 532.008 39.262 529.654C39.262 527.3 38.008 525.782 36.248 525.782C34.488 525.782 33.212 527.366 33.212 529.676ZM49.0721 535.352C45.8821 535.352 43.7701 533.328 43.7701 529.632C43.7701 526.31 45.9701 523.978 48.9841 523.978C52.1961 523.978 54.0221 526.222 54.0221 529.676V530.16H46.0801C46.1241 532.228 47.3561 533.57 49.0941 533.57C50.3261 533.57 51.4041 532.976 51.6241 531.612H53.9341C53.7141 533.636 52.0421 535.352 49.0721 535.352ZM46.1021 528.532H51.6241C51.6021 526.86 50.6121 525.716 48.9621 525.716C47.3561 525.716 46.2561 526.926 46.1021 528.532ZM56.3964 535V524.33H58.6844V524.968C58.6844 525.386 58.6844 525.782 58.6404 526.178C59.1904 524.968 60.2684 523.978 61.8744 523.978C62.0504 523.978 62.2264 523.978 62.4024 524.022V526.244C62.2484 526.222 62.0284 526.178 61.7204 526.178C59.8724 526.178 58.6844 527.168 58.6844 529.522V535H56.3964ZM68.973 535V519.6H71.371V526.222C71.635 525.892 71.965 525.54 72.339 525.166L77.663 519.6H80.743L74.231 526.31L81.711 535H78.455L72.581 528.026L71.371 529.258V535H68.973ZM86.9716 535.352C83.8256 535.352 81.6256 533.152 81.6256 529.676C81.6256 526.266 83.8476 523.978 86.9716 523.978C90.1176 523.978 92.3396 526.266 92.3396 529.676C92.3396 533.152 90.1176 535.352 86.9716 535.352ZM83.9576 529.676C83.9576 532.052 85.1236 533.57 86.9716 533.57C88.8196 533.57 90.0076 532.052 90.0076 529.676C90.0076 527.256 88.7976 525.782 86.9716 525.782C85.1676 525.782 83.9576 527.256 83.9576 529.676ZM94.703 535V524.33H96.991V524.924C96.991 525.21 96.969 525.474 96.947 525.804C97.519 524.814 98.663 523.978 100.225 523.978C102.645 523.978 104.075 525.584 104.075 528.268V535H101.787V528.576C101.787 526.794 101.083 525.782 99.609 525.782C98.025 525.782 96.991 527.08 96.991 528.664V535H94.703ZM107.809 535V526.178H105.741V524.33H107.809V522.724C107.809 520.414 109.195 519.226 111.043 519.226C111.615 519.226 112.077 519.336 112.297 519.424V521.272C112.121 521.228 111.857 521.184 111.593 521.184C110.691 521.184 110.097 521.712 110.097 522.68V524.33H112.319V526.178H110.097V535H107.809ZM118.64 535.352C115.494 535.352 113.294 533.152 113.294 529.676C113.294 526.266 115.516 523.978 118.64 523.978C121.786 523.978 124.008 526.266 124.008 529.676C124.008 533.152 121.786 535.352 118.64 535.352ZM115.626 529.676C115.626 532.052 116.792 533.57 118.64 533.57C120.488 533.57 121.676 532.052 121.676 529.676C121.676 527.256 120.466 525.782 118.64 525.782C116.836 525.782 115.626 527.256 115.626 529.676ZM126.371 535V524.33H128.659V524.968C128.659 525.386 128.659 525.782 128.615 526.178C129.165 524.968 130.243 523.978 131.849 523.978C132.025 523.978 132.201 523.978 132.377 524.022V526.244C132.223 526.222 132.003 526.178 131.695 526.178C129.847 526.178 128.659 527.168 128.659 529.522V535H126.371ZM134.191 535V524.33H136.479V524.99C136.479 525.254 136.479 525.54 136.435 525.804C137.029 524.814 138.063 523.978 139.537 523.978C140.901 523.978 142.045 524.836 142.551 526.024C143.211 524.88 144.465 523.978 146.005 523.978C148.161 523.978 149.723 525.496 149.723 528.268V535H147.435V528.642C147.435 526.86 146.819 525.782 145.433 525.782C144.003 525.782 143.101 527.058 143.101 528.708V535H140.813V528.686C140.813 526.882 140.219 525.782 138.833 525.782C137.425 525.782 136.479 527.036 136.479 528.752V535H134.191ZM152.603 535V524.33H154.891V535H152.603ZM152.515 522.504V519.974H155.001V522.504H152.515ZM162.157 535.176C160.221 535.176 158.901 534.23 158.901 531.854V526.178H156.679V524.33H158.901V520.634H161.189V524.33H163.609V526.178H161.189V531.546C161.189 532.734 161.717 533.262 162.751 533.262C163.015 533.262 163.279 533.24 163.565 533.196V535.022C163.235 535.11 162.707 535.176 162.157 535.176ZM168.81 535.352C166.874 535.352 165.136 534.12 165.136 532.074C165.136 529.83 166.896 528.928 168.986 528.642L170.9 528.356C171.736 528.246 172.022 527.938 172.022 527.344C172.022 526.398 171.274 525.716 170.086 525.716C168.634 525.716 167.82 526.508 167.754 527.718H165.422C165.532 525.628 167.204 523.978 169.932 523.978C172.88 523.978 174.288 525.628 174.288 528.356V535H172.154V534.516C172.154 534.186 172.176 533.878 172.198 533.548C171.648 534.626 170.526 535.352 168.81 535.352ZM166.566 522.504V519.974H169.052V522.504H166.566ZM167.49 532.008C167.49 533.042 168.304 533.636 169.316 533.636C170.878 533.636 172.066 532.536 172.066 530.908V529.544C171.89 529.764 171.494 529.896 170.856 530.006L169.646 530.248C168.392 530.49 167.49 530.974 167.49 532.008ZM170.944 522.504V519.974H173.408V522.504H170.944ZM181.299 535.176C179.363 535.176 178.043 534.23 178.043 531.854V526.178H175.821V524.33H178.043V520.634H180.331V524.33H182.751V526.178H180.331V531.546C180.331 532.734 180.859 533.262 181.893 533.262C182.157 533.262 182.421 533.24 182.707 533.196V535.022C182.377 535.11 181.849 535.176 181.299 535.176ZM189.793 535V524.33H192.081V524.99C192.081 525.254 192.081 525.54 192.037 525.804C192.631 524.814 193.665 523.978 195.139 523.978C196.503 523.978 197.647 524.836 198.153 526.024C198.813 524.88 200.067 523.978 201.607 523.978C203.763 523.978 205.325 525.496 205.325 528.268V535H203.037V528.642C203.037 526.86 202.421 525.782 201.035 525.782C199.605 525.782 198.703 527.058 198.703 528.708V535H196.415V528.686C196.415 526.882 195.821 525.782 194.435 525.782C193.027 525.782 192.081 527.036 192.081 528.752V535H189.793ZM208.205 535V524.33H210.493V535H208.205ZM208.117 522.504V519.974H210.603V522.504H208.117ZM217.758 535.176C215.822 535.176 214.502 534.23 214.502 531.854V526.178H212.28V524.33H214.502V520.634H216.79V524.33H219.21V526.178H216.79V531.546C216.79 532.734 217.318 533.262 218.352 533.262C218.616 533.262 218.88 533.24 219.166 533.196V535.022C218.836 535.11 218.308 535.176 217.758 535.176ZM230.52 535.352C227.704 535.352 225.614 533.372 225.614 529.676C225.614 526.156 227.792 523.978 230.564 523.978C232.28 523.978 233.38 524.88 233.93 525.804C233.886 525.474 233.886 525.166 233.886 524.858V519.6H236.174V535H233.886V534.472C233.886 534.12 233.886 533.834 233.93 533.526C233.424 534.406 232.302 535.352 230.52 535.352ZM227.968 529.676C227.968 532.03 229.222 533.57 231.004 533.57C232.742 533.57 234.018 532.008 234.018 529.654C234.018 527.3 232.764 525.782 231.004 525.782C229.244 525.782 227.968 527.366 227.968 529.676ZM243.828 535.352C240.638 535.352 238.526 533.328 238.526 529.632C238.526 526.31 240.726 523.978 243.74 523.978C246.952 523.978 248.778 526.222 248.778 529.676V530.16H240.836C240.88 532.228 242.112 533.57 243.85 533.57C245.082 533.57 246.16 532.976 246.38 531.612H248.69C248.47 533.636 246.798 535.352 243.828 535.352ZM240.858 528.532H246.38C246.358 526.86 245.368 525.716 243.718 525.716C242.112 525.716 241.012 526.926 240.858 528.532ZM251.152 535V524.33H253.44V524.924C253.44 525.21 253.418 525.474 253.396 525.804C253.968 524.814 255.112 523.978 256.674 523.978C259.094 523.978 260.524 525.584 260.524 528.268V535H258.236V528.576C258.236 526.794 257.532 525.782 256.058 525.782C254.474 525.782 253.44 527.08 253.44 528.664V535H251.152ZM31.848 564V548.6H34.246V555.222C34.51 554.892 34.84 554.54 35.214 554.166L40.538 548.6H43.618L37.106 555.31L44.586 564H41.33L35.456 557.026L34.246 558.258V564H31.848ZM45.6327 564V548.6H47.9207V564H45.6327ZM50.9179 564V553.33H53.2059V564H50.9179ZM50.8299 551.504V548.974H53.3159V551.504H50.8299ZM56.203 564V553.33H58.491V553.99C58.491 554.254 58.491 554.54 58.447 554.804C59.041 553.814 60.075 552.978 61.549 552.978C62.913 552.978 64.057 553.836 64.563 555.024C65.223 553.88 66.477 552.978 68.017 552.978C70.173 552.978 71.735 554.496 71.735 557.268V564H69.447V557.642C69.447 555.86 68.831 554.782 67.445 554.782C66.015 554.782 65.113 556.058 65.113 557.708V564H62.825V557.686C62.825 555.882 62.231 554.782 60.845 554.782C59.437 554.782 58.491 556.036 58.491 557.752V564H56.203ZM77.6951 564.352C75.7591 564.352 74.0211 563.12 74.0211 561.074C74.0211 558.83 75.7811 557.928 77.8711 557.642L79.7851 557.356C80.6211 557.246 80.9071 556.938 80.9071 556.344C80.9071 555.398 80.1591 554.716 78.9711 554.716C77.5191 554.716 76.7051 555.508 76.6391 556.718H74.3071C74.4171 554.628 76.0891 552.978 78.8171 552.978C81.7651 552.978 83.1731 554.628 83.1731 557.356V564H81.0391V563.516C81.0391 563.186 81.0611 562.878 81.0831 562.548C80.5331 563.626 79.4111 564.352 77.6951 564.352ZM76.3751 561.008C76.3751 562.042 77.1891 562.636 78.2011 562.636C79.7631 562.636 80.9511 561.536 80.9511 559.908V558.544C80.7751 558.764 80.3791 558.896 79.7411 559.006L78.5311 559.248C77.2771 559.49 76.3751 559.974 76.3751 561.008ZM86.0233 568.532V553.33H88.3113V553.946C88.3113 554.232 88.3113 554.496 88.2673 554.826C88.9053 553.77 90.1373 552.978 91.7873 552.978C94.7353 552.978 96.5833 555.354 96.5833 558.676C96.5833 562.108 94.5373 564.352 91.6993 564.352C90.0493 564.352 88.9493 563.604 88.2673 562.526C88.3113 562.878 88.3113 563.164 88.3113 563.472V568.532H86.0233ZM88.2013 558.654C88.2013 560.986 89.4553 562.57 91.2373 562.57C93.0413 562.57 94.2293 560.964 94.2293 558.654C94.2293 556.388 93.0633 554.782 91.2373 554.782C89.4773 554.782 88.2013 556.278 88.2013 558.654ZM99.7096 564V555.178H97.6416V553.33H99.7096V551.724C99.7096 549.414 101.096 548.226 102.944 548.226C103.516 548.226 103.978 548.336 104.198 548.424V550.272C104.022 550.228 103.758 550.184 103.494 550.184C102.592 550.184 101.998 550.712 101.998 551.68V553.33H104.22V555.178H101.998V564H99.7096ZM108.89 564.352C106.954 564.352 105.216 563.12 105.216 561.074C105.216 558.83 106.976 557.928 109.066 557.642L110.98 557.356C111.816 557.246 112.102 556.938 112.102 556.344C112.102 555.398 111.354 554.716 110.166 554.716C108.714 554.716 107.9 555.508 107.834 556.718H105.502C105.612 554.628 107.284 552.978 110.012 552.978C112.96 552.978 114.368 554.628 114.368 557.356V564H112.234V563.516C112.234 563.186 112.256 562.878 112.278 562.548C111.728 563.626 110.606 564.352 108.89 564.352ZM107.57 561.008C107.57 562.042 108.384 562.636 109.396 562.636C110.958 562.636 112.146 561.536 112.146 559.908V558.544C111.97 558.764 111.574 558.896 110.936 559.006L109.726 559.248C108.472 559.49 107.57 559.974 107.57 561.008ZM121.487 564.352C118.671 564.352 116.581 562.372 116.581 558.676C116.581 555.156 118.759 552.978 121.531 552.978C123.247 552.978 124.347 553.88 124.897 554.804C124.853 554.474 124.853 554.166 124.853 553.858V548.6H127.141V564H124.853V563.472C124.853 563.12 124.853 562.834 124.897 562.526C124.391 563.406 123.269 564.352 121.487 564.352ZM118.935 558.676C118.935 561.03 120.189 562.57 121.971 562.57C123.709 562.57 124.985 561.008 124.985 558.654C124.985 556.3 123.731 554.782 121.971 554.782C120.211 554.782 118.935 556.366 118.935 558.676ZM134.795 564.352C131.605 564.352 129.493 562.328 129.493 558.632C129.493 555.31 131.693 552.978 134.707 552.978C137.919 552.978 139.745 555.222 139.745 558.676V559.16H131.803C131.847 561.228 133.079 562.57 134.817 562.57C136.049 562.57 137.127 561.976 137.347 560.612H139.657C139.437 562.636 137.765 564.352 134.795 564.352ZM131.825 557.532H137.347C137.325 555.86 136.335 554.716 134.685 554.716C133.079 554.716 131.979 555.926 131.825 557.532ZM142.119 564V553.33H144.407V553.924C144.407 554.21 144.385 554.474 144.363 554.804C144.935 553.814 146.079 552.978 147.641 552.978C150.061 552.978 151.491 554.584 151.491 557.268V564H149.203V557.576C149.203 555.794 148.499 554.782 147.025 554.782C145.441 554.782 144.407 556.08 144.407 557.664V564H142.119ZM163.145 564.176C161.209 564.176 159.889 563.23 159.889 560.854V555.178H157.667V553.33H159.889V549.634H162.177V553.33H164.597V555.178H162.177V560.546C162.177 561.734 162.705 562.262 163.739 562.262C164.003 562.262 164.267 562.24 164.553 562.196V564.022C164.223 564.11 163.695 564.176 163.145 564.176ZM166.719 564V553.33H169.007V553.968C169.007 554.386 169.007 554.782 168.963 555.178C169.513 553.968 170.591 552.978 172.197 552.978C172.373 552.978 172.549 552.978 172.725 553.022V555.244C172.571 555.222 172.351 555.178 172.043 555.178C170.195 555.178 169.007 556.168 169.007 558.522V564H166.719ZM178.988 564.352C175.798 564.352 173.686 562.328 173.686 558.632C173.686 555.31 175.886 552.978 178.9 552.978C182.112 552.978 183.938 555.222 183.938 558.676V559.16H175.996C176.04 561.228 177.272 562.57 179.01 562.57C180.242 562.57 181.32 561.976 181.54 560.612H183.85C183.63 562.636 181.958 564.352 178.988 564.352ZM176.018 557.532H181.54C181.518 555.86 180.528 554.716 178.878 554.716C177.272 554.716 176.172 555.926 176.018 557.532ZM189.418 555.178V564H187.13V555.178H185.062V553.33H187.13V551.724C187.13 549.414 188.516 548.226 190.364 548.226C190.936 548.226 191.398 548.336 191.618 548.424V550.272C191.442 550.228 191.178 550.184 190.914 550.184C190.012 550.184 189.418 550.712 189.418 551.68V553.33H193.994V551.724C193.994 549.414 195.38 548.226 197.228 548.226C197.8 548.226 198.262 548.336 198.482 548.424V550.272C198.306 550.228 198.042 550.184 197.778 550.184C196.876 550.184 196.282 550.712 196.282 551.68V553.33H198.504V555.178H196.282V564H193.994V555.178H189.418ZM204.769 564.352C201.579 564.352 199.467 562.328 199.467 558.632C199.467 555.31 201.667 552.978 204.681 552.978C207.893 552.978 209.719 555.222 209.719 558.676V559.16H201.777C201.821 561.228 203.053 562.57 204.791 562.57C206.023 562.57 207.101 561.976 207.321 560.612H209.631C209.411 562.636 207.739 564.352 204.769 564.352ZM201.799 557.532H207.321C207.299 555.86 206.309 554.716 204.659 554.716C203.053 554.716 201.953 555.926 201.799 557.532ZM212.094 564V553.33H214.382V553.924C214.382 554.21 214.36 554.474 214.338 554.804C214.91 553.814 216.054 552.978 217.616 552.978C220.036 552.978 221.466 554.584 221.466 557.268V564H219.178V557.576C219.178 555.794 218.474 554.782 217 554.782C215.416 554.782 214.382 556.08 214.382 557.664V564H212.094ZM224.142 564V561.074H227.068V564H224.142Z" fill="white"/>
<rect x="15.5" y="45.5" width="389" height="391" rx="8.5" stroke="white"/>
<path d="M207.919 215.107L207.906 215.12V215.107H207.919Z" fill="white"/>
<path d="M207.909 332.797V341.632L105.939 282.789V273.954L207.909 332.797Z" stroke="white" stroke-linecap="round" stroke-linejoin="round"/>
<path d="M309.866 273.954V282.789L207.909 341.632V332.797L309.866 273.954Z" stroke="white" stroke-linecap="round" stroke-linejoin="round"/>
<path d="M246.739 237.805L309.609 274.167L207.954 332.826L207.909 332.8L106.296 274.16L150.6 248.979" stroke="white" stroke-linecap="round" stroke-linejoin="round"/>
<path d="M208.139 253.471V308.978L227.38 297.868L246.622 286.758V231.375L227.676 242.317L227.38 242.485L208.434 253.386L208.393 253.344L208.139 253.471Z" stroke="white" stroke-linecap="round" stroke-linejoin="round"/>
<path d="M227.38 242.403V242.486L227.676 242.317L246.622 231.376V231.293L227.38 242.403Z" fill="white" stroke="white" stroke-linecap="round" stroke-linejoin="round"/>
<path d="M208.393 253.344L208.434 253.385L227.38 242.485V242.402L208.434 253.303L208.393 253.344Z" fill="white" stroke="white" stroke-linecap="round" stroke-linejoin="round"/>
<path d="M150.448 220.195V276.083L208.129 308.991V253.485L150.448 220.195Z" stroke="white" stroke-linecap="round" stroke-linejoin="round"/>
<path d="M208.25 253.347H208.336V308.946L246.641 286.881V231.451L235.335 221.666L208.25 253.347Z" stroke="white" stroke-linecap="round" stroke-linejoin="round"/>
<path d="M208.088 253.453L208.171 253.329" stroke="white" stroke-linecap="round" stroke-linejoin="round"/>
<path d="M150.406 220.234L169.689 231.283L179.351 236.81H179.393L188.041 241.79V241.831L189.01 242.336L208.249 253.348L212.468 248.413L220.865 238.539L229.723 228.204L233.605 223.691L235.334 221.667L177.367 188.257L150.406 220.234Z" stroke="white" stroke-linecap="round" stroke-linejoin="round"/>
<path d="M192.371 244.233L195.885 246.255L195.691 246.159L192.33 244.233H192.371Z" fill="white" stroke="white" stroke-linecap="round" stroke-linejoin="round"/>
<path d="M279.201 278.908C278.284 275.455 280.819 271.856 283.207 269.644C283.429 269.441 283.601 269.406 283.836 269.632C286.033 271.691 288.008 274.47 288.008 277.589C288.297 282.851 280.54 283.886 279.201 278.908Z" fill="white" stroke="white" stroke-linecap="round" stroke-linejoin="round"/>
<path d="M283.42 279.725V283.246V284.654V285.775" stroke="white" stroke-linecap="round" stroke-linejoin="round"/>
<path d="M176.507 234.903L163.652 227.549L190.261 195.992L203.62 203.692L176.507 234.903Z" fill="white"/>
<path d="M232.578 239.668L232.788 294.551" stroke="white" stroke-linecap="round" stroke-linejoin="round"/>
<path d="M208.336 308.947L246.641 286.882" stroke="white" stroke-linecap="round" stroke-linejoin="round"/>
<path d="M224.381 244.137L224.381 258.614" stroke="white" stroke-linecap="round" stroke-linejoin="round"/>
<path d="M220.654 246.371L220.654 260.525" stroke="white" stroke-linecap="round" stroke-linejoin="round"/>
<path d="M209.884 267.152V288.435" stroke="white" stroke-linecap="round" stroke-linejoin="round"/>
<path d="M211.562 266.069V287.355" stroke="white" stroke-linecap="round" stroke-linejoin="round"/>
<path d="M213.241 265.443V286.729" stroke="white" stroke-linecap="round" stroke-linejoin="round"/>
<path d="M214.92 264.356V285.639" stroke="white" stroke-linecap="round" stroke-linejoin="round"/>
<path d="M216.599 263.273V284.56" stroke="white" stroke-linecap="round" stroke-linejoin="round"/>
<path d="M218.277 262.311V283.593" stroke="white" stroke-linecap="round" stroke-linejoin="round"/>
<path d="M232.785 275.715L208.332 289.796" stroke="white" stroke-linecap="round" stroke-linejoin="round"/>
<path d="M232.785 253.865L208.332 267.95" stroke="white" stroke-linecap="round" stroke-linejoin="round"/>
<path d="M158.797 228.776V237.277L154.381 234.728L154.371 234.725V226.221L158.797 228.776Z" stroke="white" stroke-linejoin="round"/>
<path d="M165.086 232.348V240.852L160.67 238.304L160.66 238.297V229.793L165.086 232.348Z" stroke="white" stroke-linejoin="round"/>
<path d="M193.704 248.397V256.901L189.288 254.352L189.278 254.346V245.842L193.704 248.397Z" stroke="white" stroke-linejoin="round"/>
<path d="M199.992 251.971V260.475L195.576 257.927H195.573L195.563 257.92V249.416L199.992 251.971Z" stroke="white" stroke-linejoin="round"/>
<path d="M158.797 246.601V255.105L154.381 252.557L154.371 252.55V244.046L158.797 246.601Z" stroke="white" stroke-linejoin="round"/>
<path d="M165.086 250.176V258.677L160.67 256.129L160.66 256.125V247.621L165.086 250.176Z" stroke="white" stroke-linejoin="round"/>
<path d="M193.704 266.225V274.726L189.288 272.177L189.278 272.171V263.67L193.704 266.225Z" stroke="white" stroke-linejoin="round"/>
<path d="M199.992 269.797V278.302L195.576 275.753H195.573L195.563 275.746V267.242L199.992 269.797Z" stroke="white" stroke-linejoin="round"/>
<path d="M158.797 261.856V270.36L154.381 267.811L154.371 267.805V259.301L158.797 261.856Z" stroke="white" stroke-linejoin="round"/>
<path d="M165.086 265.43V273.931L160.67 271.382L160.66 271.379V262.875L165.086 265.43Z" stroke="white" stroke-linejoin="round"/>
<path d="M175.467 237.969V246.473L171.051 243.925H171.048L171.038 243.918V235.414L175.467 237.969Z" stroke="white" stroke-linejoin="round"/>
<path d="M175.467 255.798V264.299L171.051 261.751H171.048L171.038 261.744V253.243L175.467 255.798Z" stroke="white" stroke-linejoin="round"/>
<path d="M181.755 259.37V267.874L177.336 265.325L177.326 265.319V256.814L181.755 259.37Z" stroke="white" stroke-linejoin="round"/>
<path d="M175.467 271.052V279.553L171.051 277.005H171.048L171.038 276.998V268.497L175.467 271.052Z" stroke="white" stroke-linejoin="round"/>
<path d="M181.755 274.624V283.129L177.336 280.58L177.326 280.574V272.069L181.755 274.624Z" stroke="white" stroke-linejoin="round"/>
<path d="M193.704 281.479V289.98L189.288 287.431L189.278 287.425V278.924L193.704 281.479Z" stroke="white" stroke-linejoin="round"/>
<path d="M199.992 285.051V293.555L195.576 291.007H195.573L195.563 291V282.496L199.992 285.051Z" stroke="white" stroke-linejoin="round"/>
<path d="M181.755 241.545V250.05L177.336 247.501L177.326 247.495V238.99L181.755 241.545Z" stroke="white" stroke-linejoin="round"/>
<path d="M156.32 228.995V160.183" stroke="white" stroke-linecap="round" stroke-linejoin="round"/>
<path d="M179.453 209.034V160.183" stroke="white" stroke-linecap="round" stroke-linejoin="round"/>
<path d="M214.522 264.357V160.183" stroke="white" stroke-linecap="round" stroke-linejoin="round"/>
<path d="M276.867 264.357V160.183" stroke="white" stroke-linecap="round" stroke-linejoin="round"/>
<path d="M290.745 253.596V160.183" stroke="white" stroke-linecap="round" stroke-linejoin="round"/>
<path d="M330.253 332.187C330.253 325.161 324.555 319.466 317.526 319.466C310.497 319.466 304.799 325.161 304.799 332.187C304.799 339.213 310.497 344.909 317.526 344.909C324.555 344.909 330.253 339.213 330.253 332.187Z" stroke="white" stroke-miterlimit="10"/>
<path d="M320.133 332.874L321.955 333.451C321.676 334.467 321.21 335.222 320.558 335.717C319.911 336.208 319.088 336.454 318.089 336.454C316.854 336.454 315.838 336.033 315.042 335.19C314.247 334.344 313.849 333.189 313.849 331.725C313.849 330.176 314.249 328.974 315.049 328.119C315.849 327.26 316.9 326.831 318.204 326.831C319.342 326.831 320.267 327.167 320.977 327.84C321.401 328.238 321.718 328.809 321.93 329.554L320.07 329.998C319.96 329.516 319.729 329.135 319.378 328.855C319.031 328.576 318.608 328.437 318.108 328.437C317.419 328.437 316.858 328.684 316.426 329.179C315.999 329.674 315.785 330.476 315.785 331.585C315.785 332.761 315.997 333.599 316.42 334.099C316.843 334.598 317.393 334.848 318.07 334.848C318.57 334.848 318.999 334.689 319.359 334.372C319.718 334.054 319.977 333.555 320.133 332.874Z" fill="white"/>
<path d="M88.8468 168.383C88.7108 167.847 88.1666 167.524 87.6313 167.66L78.9085 169.876C78.3732 170.012 78.0495 170.556 78.1855 171.092C78.3215 171.627 78.8657 171.95 79.401 171.814L87.1546 169.844L89.1247 177.598C89.2607 178.133 89.8049 178.457 90.3402 178.321C90.8755 178.185 91.1991 177.641 91.0631 177.105L88.8468 168.383ZM305.633 347.913C306.045 347.545 306.08 346.913 305.712 346.501C305.344 346.089 304.712 346.054 304.3 346.422L305.633 347.913ZM86.0497 169.771C85.7737 170.249 85.9379 170.861 86.4163 171.137C86.8947 171.413 87.5062 171.249 87.7821 170.77L86.0497 169.771ZM85.9383 174.068C86.2013 173.583 86.0208 172.976 85.5352 172.713C85.0496 172.45 84.4427 172.63 84.1797 173.116L85.9383 174.068ZM82.4 176.51C82.1501 177.003 82.3469 177.605 82.8394 177.855C83.3319 178.105 83.9338 177.908 84.1836 177.415L82.4 176.51ZM82.5196 180.808C82.7562 180.309 82.5433 179.712 82.0442 179.476C81.5452 179.239 80.9489 179.452 80.7123 179.951L82.5196 180.808ZM79.1178 183.436C78.8949 183.941 79.1237 184.532 79.6289 184.755C80.1342 184.978 80.7246 184.749 80.9476 184.244L79.1178 183.436ZM79.4685 187.721C79.6778 187.21 79.4331 186.626 78.922 186.417C78.4109 186.207 77.8269 186.452 77.6176 186.963L79.4685 187.721ZM76.2134 190.529C76.0179 191.045 76.2782 191.622 76.7948 191.818C77.3113 192.013 77.8885 191.753 78.0839 191.236L76.2134 190.529ZM76.7946 194.788C76.976 194.267 76.7002 193.697 76.1786 193.515C75.657 193.334 75.087 193.61 74.9056 194.131L76.7946 194.788ZM73.6955 197.768C73.5283 198.294 73.8194 198.857 74.3457 199.024C74.872 199.191 75.4343 198.9 75.6016 198.374L73.6955 197.768ZM74.506 201.99C74.659 201.459 74.3528 200.905 73.8221 200.752C73.2915 200.599 72.7373 200.905 72.5842 201.435L74.506 201.99ZM71.5722 205.132C71.4335 205.667 71.7545 206.213 72.2891 206.351C72.8237 206.49 73.3695 206.169 73.5081 205.634L71.5722 205.132ZM72.6092 209.304C72.7333 208.766 72.3977 208.229 71.8596 208.105C71.3215 207.981 70.7845 208.316 70.6604 208.854L72.6092 209.304ZM69.8492 212.6C69.7396 213.141 70.0895 213.669 70.6308 213.779C71.1721 213.888 71.6998 213.538 71.8094 212.997L69.8492 212.6ZM71.1093 216.711C71.2043 216.167 70.8403 215.648 70.2962 215.553C69.7522 215.458 69.2341 215.822 69.1391 216.366L71.1093 216.711ZM68.5306 220.15C68.4503 220.696 68.8281 221.204 69.3745 221.285C69.9209 221.365 70.429 220.987 70.5093 220.441L68.5306 220.15ZM70.0095 224.187C70.0752 223.639 69.6839 223.141 69.1355 223.075C68.5872 223.01 68.0894 223.401 68.0237 223.949L70.0095 224.187ZM67.6187 227.759C67.5676 228.309 67.972 228.796 68.5219 228.847C69.0719 228.898 69.559 228.494 69.6101 227.944L67.6187 227.759ZM69.3109 231.712C69.3473 231.16 68.93 230.684 68.379 230.648C67.8279 230.611 67.3516 231.029 67.3152 231.58L69.3109 231.712ZM67.1133 235.406C67.0915 235.958 67.5212 236.423 68.0731 236.445C68.6249 236.467 69.09 236.037 69.1118 235.485L67.1133 235.406ZM69.0124 239.263C69.0197 238.711 68.5779 238.257 68.0256 238.25C67.4734 238.243 67.0198 238.684 67.0126 239.237L69.0124 239.263ZM67.0139 243.17C67.0215 243.722 67.4754 244.164 68.0276 244.156C68.5799 244.148 69.0214 243.695 69.0137 243.142L67.0139 243.17ZM69.123 247.1C69.1001 246.548 68.6343 246.119 68.0825 246.142C67.5306 246.165 67.1019 246.631 67.1247 247.183L69.123 247.1ZM67.3469 251.196C67.3851 251.747 67.8627 252.162 68.4137 252.124C68.9647 252.086 69.3803 251.608 69.3421 251.057L67.3469 251.196ZM69.6706 254.999C69.6171 254.449 69.1281 254.047 68.5784 254.1C68.0287 254.154 67.6265 254.643 67.68 255.193L69.6706 254.999ZM68.1259 259.19C68.1948 259.738 68.6949 260.126 69.2429 260.057C69.7908 259.988 70.1792 259.488 70.1103 258.94L68.1259 259.19ZM70.6585 262.856C70.5743 262.31 70.0635 261.936 69.5177 262.02C68.9719 262.104 68.5977 262.615 68.6819 263.161L70.6585 262.856ZM69.3517 267.128C69.4513 267.671 69.9724 268.03 70.5156 267.931C71.0588 267.831 71.4185 267.31 71.3189 266.767L69.3517 267.128ZM72.0873 270.649C71.9724 270.108 71.4414 269.764 70.9012 269.878C70.361 269.993 70.0162 270.524 70.1311 271.065L72.0873 270.649ZM71.0225 274.983C71.1526 275.52 71.6932 275.85 72.2299 275.72C72.7666 275.589 73.0963 275.049 72.9662 274.512L71.0225 274.983ZM73.9533 278.347C73.8081 277.814 73.2584 277.5 72.7256 277.645C72.1927 277.79 71.8785 278.34 72.0237 278.873L73.9533 278.347ZM73.1342 282.732C73.2944 283.26 73.8528 283.559 74.3813 283.399C74.9099 283.238 75.2084 282.68 75.0482 282.151L73.1342 282.732ZM76.2513 285.927C76.0762 285.403 75.5096 285.12 74.9858 285.295C74.462 285.47 74.1794 286.037 74.3545 286.561L76.2513 285.927ZM75.6805 290.348C75.8704 290.867 76.4447 291.133 76.9634 290.943C77.482 290.753 77.7485 290.179 77.5587 289.661L75.6805 290.348ZM78.9739 293.363C78.7695 292.85 78.1878 292.6 77.6748 292.805C77.1617 293.009 76.9115 293.591 77.116 294.104L78.9739 293.363ZM78.6548 297.812C78.8736 298.319 79.4621 298.553 79.9692 298.334C80.4762 298.115 80.7099 297.527 80.491 297.02L78.6548 297.812ZM82.112 300.634C81.8789 300.134 81.2841 299.917 80.7834 300.15C80.2827 300.383 80.0658 300.978 80.2988 301.478L82.112 300.634ZM82.0451 305.096C82.2922 305.589 82.8929 305.79 83.3868 305.542C83.8808 305.295 84.0809 304.695 83.8338 304.201L82.0451 305.096ZM85.6549 307.716C85.394 307.23 84.7879 307.047 84.3011 307.307C83.8143 307.568 83.6312 308.174 83.8921 308.661L85.6549 307.716ZM85.8398 312.176C86.1142 312.655 86.7253 312.821 87.2045 312.546C87.6837 312.272 87.8497 311.661 87.5753 311.182L85.8398 312.176ZM89.5908 314.589C89.3029 314.118 88.6875 313.969 88.2161 314.257C87.7448 314.544 87.596 315.16 87.8838 315.631L89.5908 314.589ZM90.0257 319.031C90.3267 319.494 90.946 319.625 91.4091 319.325C91.8722 319.024 92.0037 318.404 91.7028 317.941L90.0257 319.031ZM93.9068 321.231C93.593 320.777 92.9702 320.663 92.5157 320.976C92.0612 321.29 91.9472 321.913 92.2609 322.367L93.9068 321.231ZM94.589 325.641C94.9154 326.086 95.5411 326.183 95.9867 325.856C96.4322 325.53 96.5288 324.904 96.2024 324.459L94.589 325.641ZM98.5875 327.621C98.2488 327.185 97.6206 327.106 97.1843 327.444C96.7481 327.783 96.669 328.411 97.0077 328.847L98.5875 327.621ZM99.5146 331.985C99.8653 332.412 100.495 332.473 100.922 332.122C101.349 331.772 101.41 331.141 101.059 330.715L99.5146 331.985ZM103.618 333.739C103.255 333.323 102.623 333.279 102.207 333.641C101.79 334.004 101.746 334.635 102.109 335.052L103.618 333.739ZM104.787 338.045C105.161 338.451 105.793 338.478 106.2 338.104C106.606 337.73 106.633 337.097 106.259 336.691L104.787 338.045ZM108.981 339.567C108.596 339.172 107.963 339.163 107.567 339.548C107.171 339.933 107.163 340.566 107.548 340.962L108.981 339.567ZM110.389 343.801C110.785 344.186 111.418 344.177 111.803 343.781C112.188 343.385 112.179 342.752 111.783 342.367L110.389 343.801ZM114.661 345.088C114.255 344.714 113.622 344.741 113.248 345.147C112.874 345.554 112.901 346.187 113.308 346.56L114.661 345.088ZM116.302 349.237C116.719 349.599 117.351 349.555 117.713 349.138C118.075 348.721 118.031 348.089 117.614 347.727L116.302 349.237ZM120.64 350.283C120.213 349.933 119.583 349.995 119.233 350.421C118.882 350.848 118.944 351.478 119.371 351.829L120.64 350.283ZM122.51 354.334C122.947 354.672 123.575 354.593 123.913 354.156C124.252 353.72 124.172 353.092 123.736 352.753L122.51 354.334ZM126.899 355.136C126.454 354.81 125.828 354.907 125.502 355.353C125.176 355.799 125.273 356.424 125.718 356.751L126.899 355.136ZM128.993 359.077C129.448 359.39 130.07 359.276 130.384 358.821C130.697 358.366 130.583 357.744 130.128 357.43L128.993 359.077ZM133.42 359.632C132.956 359.332 132.337 359.463 132.036 359.927C131.736 360.39 131.868 361.009 132.331 361.31L133.42 359.632ZM135.732 363.45C136.203 363.737 136.819 363.588 137.106 363.117C137.394 362.645 137.245 362.03 136.773 361.742L135.732 363.45ZM140.181 363.756C139.702 363.482 139.091 363.648 138.817 364.127C138.543 364.607 138.709 365.218 139.188 365.492L140.181 363.756ZM142.704 367.438C143.191 367.698 143.797 367.515 144.057 367.028C144.318 366.541 144.135 365.935 143.648 365.674L142.704 367.438ZM147.164 367.494C146.67 367.247 146.07 367.447 145.823 367.941C145.576 368.435 145.776 369.036 146.271 369.283L147.164 367.494ZM149.889 371.027C150.389 371.26 150.984 371.043 151.217 370.542C151.45 370.041 151.233 369.447 150.732 369.214L149.889 371.027ZM154.347 370.833C153.84 370.614 153.252 370.848 153.033 371.356C152.814 371.863 153.048 372.451 153.556 372.67L154.347 370.833ZM157.264 374.207C157.778 374.411 158.359 374.161 158.563 373.647C158.768 373.134 158.517 372.553 158.004 372.349L157.264 374.207ZM161.708 373.762C161.189 373.573 160.615 373.839 160.425 374.358C160.235 374.877 160.502 375.451 161.021 375.641L161.708 373.762ZM164.809 376.965C165.332 377.14 165.899 376.857 166.074 376.333C166.249 375.809 165.966 375.243 165.442 375.068L164.809 376.965ZM169.218 376.27C168.689 376.11 168.131 376.409 167.971 376.937C167.811 377.466 168.11 378.024 168.638 378.184L169.218 376.27ZM172.497 379.293C173.03 379.438 173.58 379.124 173.725 378.591C173.87 378.058 173.555 377.508 173.023 377.363L172.497 379.293ZM176.858 378.349C176.321 378.219 175.781 378.549 175.651 379.086C175.521 379.623 175.85 380.163 176.387 380.293L176.858 378.349ZM180.306 381.184C180.846 381.298 181.377 380.953 181.492 380.413C181.607 379.873 181.262 379.342 180.722 379.227L180.306 381.184ZM184.604 379.995C184.06 379.895 183.539 380.255 183.44 380.798C183.34 381.342 183.7 381.863 184.243 381.962L184.604 379.995ZM188.21 382.631C188.756 382.715 189.267 382.341 189.351 381.795C189.435 381.249 189.061 380.738 188.515 380.654L188.21 382.631ZM192.43 381.202C191.882 381.133 191.382 381.521 191.314 382.069C191.245 382.617 191.633 383.117 192.181 383.186L192.43 381.202ZM196.179 383.632C196.728 383.685 197.217 383.283 197.271 382.733C197.324 382.183 196.922 381.694 196.372 381.641L196.179 383.632ZM200.314 381.969C199.763 381.931 199.285 382.347 199.247 382.898C199.209 383.449 199.625 383.926 200.176 383.964L200.314 381.969ZM204.188 384.186C204.74 384.209 205.206 383.78 205.229 383.228C205.252 382.677 204.823 382.211 204.271 382.188L204.188 384.186ZM208.229 382.297C207.677 382.289 207.223 382.731 207.215 383.283C207.207 383.835 207.649 384.289 208.201 384.297L208.229 382.297ZM212.228 384.297C212.78 384.289 213.221 383.835 213.214 383.283C213.206 382.731 212.752 382.29 212.2 382.297L212.228 384.297ZM216.159 382.188C215.607 382.211 215.178 382.677 215.201 383.229C215.224 383.78 215.69 384.209 216.242 384.186L216.159 382.188ZM220.251 383.965C220.802 383.927 221.217 383.449 221.179 382.898C221.141 382.347 220.663 381.931 220.113 381.97L220.251 383.965ZM224.06 381.641C223.51 381.695 223.108 382.184 223.161 382.733C223.215 383.283 223.704 383.685 224.254 383.632L224.06 381.641ZM228.246 383.187C228.794 383.118 229.182 382.618 229.114 382.07C229.045 381.522 228.545 381.134 227.997 381.203L228.246 383.187ZM231.919 380.654C231.373 380.738 230.999 381.249 231.083 381.795C231.167 382.341 231.678 382.715 232.224 382.631L231.919 380.654ZM236.184 381.963C236.727 381.864 237.087 381.343 236.988 380.799C236.888 380.256 236.367 379.896 235.824 379.996L236.184 381.963ZM239.708 379.228C239.168 379.343 238.823 379.874 238.938 380.414C239.053 380.954 239.583 381.299 240.124 381.184L239.708 379.228ZM244.041 380.295C244.578 380.165 244.908 379.624 244.778 379.087C244.648 378.551 244.107 378.221 243.571 378.351L244.041 380.295ZM247.407 377.365C246.874 377.51 246.559 378.059 246.704 378.592C246.849 379.125 247.399 379.44 247.932 379.295L247.407 377.365ZM251.792 378.185C252.321 378.025 252.62 377.467 252.46 376.938C252.3 376.41 251.741 376.111 251.213 376.271L251.792 378.185ZM254.986 375.07C254.462 375.245 254.179 375.812 254.354 376.335C254.529 376.859 255.095 377.142 255.619 376.967L254.986 375.07ZM259.411 375.642C259.93 375.452 260.196 374.878 260.007 374.359C259.817 373.84 259.243 373.574 258.724 373.763L259.411 375.642ZM262.424 372.351C261.911 372.555 261.661 373.137 261.865 373.65C262.069 374.163 262.651 374.413 263.164 374.209L262.424 372.351ZM266.875 372.672C267.382 372.453 267.616 371.865 267.397 371.358C267.179 370.85 266.59 370.616 266.083 370.835L266.875 372.672ZM269.697 369.217C269.196 369.449 268.979 370.044 269.212 370.545C269.445 371.046 270.039 371.263 270.54 371.03L269.697 369.217ZM274.158 369.286C274.652 369.039 274.853 368.439 274.606 367.945C274.359 367.451 273.758 367.25 273.264 367.497L274.158 369.286ZM276.782 365.677C276.295 365.938 276.112 366.544 276.373 367.031C276.633 367.518 277.239 367.701 277.726 367.441L276.782 365.677ZM281.24 365.496C281.72 365.221 281.886 364.611 281.612 364.131C281.338 363.652 280.727 363.485 280.247 363.76L281.24 365.496ZM283.657 361.745C283.186 362.033 283.037 362.648 283.324 363.12C283.612 363.591 284.227 363.74 284.699 363.453L283.657 361.745ZM288.098 361.314C288.561 361.013 288.693 360.394 288.392 359.931C288.092 359.468 287.473 359.336 287.009 359.636L288.098 361.314ZM290.301 357.434C289.846 357.747 289.732 358.37 290.046 358.825C290.359 359.28 290.982 359.394 291.436 359.081L290.301 357.434ZM294.711 356.755C295.157 356.429 295.254 355.803 294.928 355.357C294.601 354.911 293.976 354.814 293.53 355.14L294.711 356.755ZM296.693 352.758C296.257 353.096 296.177 353.724 296.516 354.161C296.854 354.597 297.482 354.677 297.919 354.338L296.693 352.758ZM301.058 351.833C301.485 351.482 301.547 350.852 301.196 350.425C300.846 349.999 300.216 349.937 299.789 350.287L301.058 351.833ZM302.814 347.731C302.398 348.094 302.353 348.725 302.716 349.142C303.078 349.559 303.709 349.603 304.126 349.241L302.814 347.731ZM87.0181 168.118C86.6917 168.666 86.3689 169.218 86.0497 169.771L87.7821 170.77C88.0969 170.225 88.4152 169.681 88.737 169.14L87.0181 168.118ZM84.1797 173.116C83.5718 174.239 82.9785 175.37 82.4 176.51L84.1836 177.415C84.754 176.291 85.339 175.175 85.9383 174.068L84.1797 173.116ZM80.7123 179.951C80.1658 181.104 79.6342 182.266 79.1178 183.436L80.9476 184.244C81.4567 183.09 81.9808 181.945 82.5196 180.808L80.7123 179.951ZM77.6176 186.963C77.1341 188.144 76.666 189.332 76.2134 190.529L78.0839 191.236C78.5302 190.057 78.9918 188.885 79.4685 187.721L77.6176 186.963ZM74.9056 194.131C74.4865 195.336 74.0831 196.549 73.6955 197.768L75.6016 198.374C75.9837 197.171 76.3814 195.976 76.7946 194.788L74.9056 194.131ZM72.5842 201.435C72.2309 202.661 71.8934 203.893 71.5722 205.132L73.5081 205.634C73.8249 204.413 74.1575 203.198 74.506 201.99L72.5842 201.435ZM70.6604 208.854C70.3737 210.097 70.1033 211.346 69.8492 212.6L71.8094 212.997C72.0599 211.76 72.3266 210.529 72.6092 209.304L70.6604 208.854ZM69.1391 216.366C68.9198 217.622 68.7169 218.883 68.5306 220.15L70.5093 220.441C70.693 219.192 70.8931 217.949 71.1093 216.711L69.1391 216.366ZM68.0237 223.949C67.8721 225.214 67.737 226.484 67.6187 227.759L69.6101 227.944C69.7268 226.687 69.86 225.435 70.0095 224.187L68.0237 223.949ZM67.3152 231.58C67.2312 232.851 67.1639 234.126 67.1133 235.406L69.1118 235.485C69.1616 234.223 69.2281 232.965 69.3109 231.712L67.3152 231.58ZM67.0126 239.237C67.0042 239.875 67 240.514 67 241.153H69C69 240.522 69.0041 239.892 69.0124 239.263L67.0126 239.237ZM67 241.153C67 241.827 67.0046 242.499 67.0139 243.17L69.0137 243.142C69.0046 242.48 69 241.818 69 241.153H67ZM67.1247 247.183C67.1804 248.525 67.2545 249.863 67.3469 251.196L69.3421 251.057C69.251 249.743 69.1779 248.424 69.123 247.1L67.1247 247.183ZM67.68 255.193C67.8103 256.53 67.959 257.863 68.1259 259.19L70.1103 258.94C69.9457 257.632 69.7991 256.318 69.6706 254.999L67.68 255.193ZM68.6819 263.161C68.887 264.489 69.1103 265.812 69.3517 267.128L71.3189 266.767C71.0809 265.469 70.8607 264.165 70.6585 262.856L68.6819 263.161ZM70.1311 271.065C70.4103 272.378 70.7075 273.684 71.0225 274.983L72.9662 274.512C72.6557 273.231 72.3626 271.943 72.0873 270.649L70.1311 271.065ZM72.0237 278.873C72.3763 280.167 72.7465 281.453 73.1342 282.732L75.0482 282.151C74.666 280.891 74.3009 279.622 73.9533 278.347L72.0237 278.873ZM74.3545 286.561C74.7793 287.831 75.2214 289.094 75.6805 290.348L77.5587 289.661C77.106 288.424 76.6701 287.179 76.2513 285.927L74.3545 286.561ZM77.116 294.104C77.612 295.349 78.1251 296.585 78.6548 297.812L80.491 297.02C79.9688 295.81 79.463 294.591 78.9739 293.363L77.116 294.104ZM80.2988 301.478C80.8645 302.693 81.4466 303.899 82.0451 305.096L83.8338 304.201C83.2437 303.021 82.6697 301.832 82.112 300.634L80.2988 301.478ZM83.8921 308.661C84.5253 309.843 85.1746 311.014 85.8398 312.176L87.5753 311.182C86.9195 310.037 86.2792 308.881 85.6549 307.716L83.8921 308.661ZM87.8838 315.631C88.5823 316.775 89.2964 317.908 90.0257 319.031L91.7028 317.941C90.9836 316.834 90.2795 315.717 89.5908 314.589L87.8838 315.631ZM92.2609 322.367C93.022 323.47 93.7981 324.561 94.589 325.641L96.2024 324.459C95.4226 323.394 94.6572 322.318 93.9068 321.231L92.2609 322.367ZM97.0077 328.847C97.8289 329.905 98.6646 330.951 99.5146 331.985L101.059 330.715C100.221 329.695 99.3973 328.664 98.5875 327.621L97.0077 328.847ZM102.109 335.052C102.988 336.062 103.88 337.06 104.787 338.045L106.259 336.691C105.365 335.719 104.484 334.735 103.618 333.739L102.109 335.052ZM107.548 340.962C108.481 341.922 109.429 342.868 110.389 343.801L111.783 342.367C110.836 341.447 109.902 340.514 108.981 339.567L107.548 340.962ZM113.308 346.56C114.293 347.466 115.292 348.358 116.302 349.237L117.614 347.727C116.617 346.861 115.633 345.981 114.661 345.088L113.308 346.56ZM119.371 351.829C120.405 352.678 121.452 353.513 122.51 354.334L123.736 352.753C122.692 351.944 121.66 351.121 120.64 350.283L119.371 351.829ZM125.718 356.751C126.799 357.541 127.89 358.316 128.993 359.077L130.128 357.43C129.041 356.68 127.964 355.916 126.899 355.136L125.718 356.751ZM132.331 361.31C133.454 362.039 134.587 362.752 135.732 363.45L136.773 361.742C135.645 361.054 134.527 360.351 133.42 359.632L132.331 361.31ZM139.188 365.492C140.35 366.156 141.522 366.805 142.704 367.438L143.648 365.674C142.482 365.051 141.327 364.411 140.181 363.756L139.188 365.492ZM146.271 369.283C147.467 369.881 148.673 370.462 149.889 371.027L150.732 369.214C149.533 368.657 148.344 368.083 147.164 367.494L146.271 369.283ZM153.556 372.67C154.783 373.199 156.019 373.711 157.264 374.207L158.004 372.349C156.777 371.86 155.558 371.355 154.347 370.833L153.556 372.67ZM161.021 375.641C162.275 376.099 163.538 376.541 164.809 376.965L165.442 375.068C164.189 374.65 162.944 374.214 161.708 373.762L161.021 375.641ZM168.638 378.184C169.917 378.571 171.204 378.941 172.497 379.293L173.023 377.363C171.747 377.016 170.479 376.652 169.218 376.27L168.638 378.184ZM176.387 380.293C177.687 380.608 178.993 380.905 180.306 381.184L180.722 379.227C179.427 378.952 178.139 378.66 176.858 378.349L176.387 380.293ZM184.243 381.962C185.559 382.203 186.882 382.426 188.21 382.631L188.515 380.654C187.205 380.452 185.901 380.232 184.604 379.995L184.243 381.962ZM192.181 383.186C193.508 383.353 194.841 383.501 196.179 383.632L196.372 381.641C195.053 381.513 193.739 381.366 192.43 381.202L192.181 383.186ZM200.176 383.964C201.508 384.057 202.846 384.131 204.188 384.186L204.271 382.188C202.947 382.133 201.628 382.06 200.314 381.969L200.176 383.964ZM208.201 384.297C208.872 384.306 209.544 384.311 210.217 384.311V382.311C209.553 382.311 208.891 382.306 208.229 382.297L208.201 384.297ZM210.217 384.311C210.889 384.311 211.559 384.306 212.228 384.297L212.2 382.297C211.54 382.306 210.879 382.311 210.217 382.311V384.311ZM216.242 384.186C217.583 384.131 218.919 384.057 220.251 383.965L220.113 381.97C218.799 382.06 217.482 382.133 216.159 382.188L216.242 384.186ZM224.254 383.632C225.59 383.502 226.921 383.354 228.246 383.187L227.997 381.203C226.69 381.367 225.378 381.513 224.06 381.641L224.254 383.632ZM232.224 382.631C233.55 382.426 234.87 382.204 236.184 381.963L235.824 379.996C234.529 380.233 233.227 380.453 231.919 380.654L232.224 382.631ZM240.124 381.184C241.436 380.906 242.742 380.609 244.041 380.295L243.571 378.351C242.29 378.661 241.002 378.953 239.708 379.228L240.124 381.184ZM247.932 379.295C249.226 378.942 250.513 378.572 251.792 378.185L251.213 376.271C249.951 376.653 248.683 377.018 247.407 377.365L247.932 379.295ZM255.619 376.967C256.891 376.543 258.155 376.101 259.411 375.642L258.724 373.763C257.486 374.216 256.24 374.652 254.986 375.07L255.619 376.967ZM263.164 374.209C264.41 373.714 265.647 373.201 266.875 372.672L266.083 370.835C264.872 371.357 263.653 371.862 262.424 372.351L263.164 374.209ZM270.54 371.03C271.756 370.465 272.962 369.884 274.158 369.286L273.264 367.497C272.085 368.086 270.896 368.66 269.697 369.217L270.54 371.03ZM277.726 367.441C278.908 366.808 280.079 366.16 281.24 365.496L280.247 363.76C279.102 364.414 277.947 365.054 276.782 365.677L277.726 367.441ZM284.699 363.453C285.842 362.755 286.976 362.042 288.098 361.314L287.009 359.636C285.903 360.354 284.785 361.058 283.657 361.745L284.699 363.453ZM291.436 359.081C292.539 358.32 293.631 357.545 294.711 356.755L293.53 355.14C292.465 355.92 291.389 356.684 290.301 357.434L291.436 359.081ZM297.919 354.338C298.977 353.517 300.024 352.682 301.058 351.833L299.789 350.287C298.769 351.125 297.737 351.948 296.693 352.758L297.919 354.338ZM304.126 349.241C304.632 348.802 305.134 348.359 305.633 347.913L304.3 346.422C303.808 346.862 303.313 347.298 302.814 347.731L304.126 349.241Z" fill="white"/>
<path d="M111.284 137.649C110.884 138.03 110.87 138.663 111.252 139.063C111.633 139.462 112.266 139.477 112.665 139.095L111.284 137.649ZM329.235 317.711C329.354 318.25 329.888 318.591 330.427 318.472L339.215 316.53C339.754 316.411 340.095 315.878 339.976 315.338C339.857 314.799 339.323 314.458 338.784 314.578L330.972 316.303L329.246 308.492C329.127 307.952 328.594 307.612 328.054 307.731C327.515 307.85 327.174 308.384 327.294 308.923L329.235 317.711ZM114.065 137.776C114.469 137.4 114.492 136.767 114.116 136.363C113.74 135.958 113.108 135.935 112.703 136.311L114.065 137.776ZM115.595 133.694C115.181 134.059 115.141 134.691 115.506 135.105C115.871 135.52 116.503 135.56 116.917 135.195L115.595 133.694ZM119.838 132.692C120.262 132.339 120.32 131.708 119.966 131.284C119.612 130.86 118.982 130.803 118.557 131.156L119.838 132.692ZM121.587 128.7C121.154 129.042 121.079 129.67 121.421 130.104C121.763 130.538 122.392 130.612 122.826 130.27L121.587 128.7ZM125.878 127.929C126.321 127.599 126.412 126.973 126.082 126.53C125.752 126.087 125.125 125.996 124.682 126.326L125.878 127.929ZM127.841 124.037C127.389 124.355 127.281 124.979 127.599 125.431C127.917 125.882 128.541 125.991 128.992 125.673L127.841 124.037ZM132.167 123.501C132.627 123.196 132.752 122.575 132.447 122.115C132.141 121.655 131.521 121.53 131.061 121.835L132.167 123.501ZM134.339 119.721C133.871 120.014 133.729 120.631 134.022 121.1C134.315 121.568 134.932 121.71 135.4 121.417L134.339 119.721ZM138.688 119.421C139.164 119.141 139.323 118.528 139.043 118.052C138.763 117.576 138.15 117.417 137.674 117.698L138.688 119.421ZM141.063 115.765C140.579 116.032 140.404 116.641 140.671 117.124C140.938 117.608 141.546 117.783 142.029 117.516L141.063 115.765ZM145.421 115.703C145.912 115.449 146.104 114.846 145.85 114.355C145.596 113.865 144.993 113.673 144.502 113.927L145.421 115.703ZM147.991 112.182C147.494 112.422 147.286 113.02 147.526 113.518C147.766 114.015 148.364 114.223 148.861 113.983L147.991 112.182ZM152.347 112.358C152.851 112.132 153.075 111.54 152.849 111.036C152.623 110.532 152.031 110.308 151.527 110.534L152.347 112.358ZM155.106 108.983C154.597 109.196 154.356 109.781 154.568 110.291C154.781 110.801 155.367 111.042 155.876 110.829L155.106 108.983ZM159.446 109.397C159.962 109.199 160.218 108.62 160.02 108.105C159.821 107.589 159.243 107.332 158.727 107.531L159.446 109.397ZM162.387 106.178C161.866 106.363 161.593 106.934 161.778 107.455C161.962 107.975 162.533 108.248 163.054 108.064L162.387 106.178ZM166.696 106.83C167.222 106.66 167.51 106.096 167.34 105.571C167.17 105.045 166.606 104.757 166.081 104.927L166.696 106.83ZM169.808 103.778C169.278 103.933 168.975 104.489 169.13 105.019C169.286 105.549 169.841 105.852 170.371 105.697L169.808 103.778ZM174.076 104.665C174.61 104.524 174.929 103.977 174.788 103.443C174.647 102.909 174.1 102.59 173.566 102.731L174.076 104.665ZM177.351 101.788C176.813 101.914 176.48 102.452 176.606 102.99C176.732 103.527 177.27 103.861 177.808 103.735L177.351 101.788ZM181.564 102.907C182.105 102.796 182.453 102.267 182.342 101.726C182.23 101.185 181.701 100.837 181.161 100.948L181.564 102.907ZM184.992 100.214C184.448 100.31 184.086 100.829 184.182 101.373C184.279 101.917 184.798 102.279 185.342 102.183L184.992 100.214ZM189.138 101.562C189.684 101.48 190.061 100.971 189.979 100.425C189.897 99.8786 189.388 99.502 188.842 99.5837L189.138 101.562ZM192.708 99.0593C192.159 99.1261 191.769 99.6247 191.836 100.173C191.903 100.721 192.401 101.111 192.949 101.045L192.708 99.0593ZM196.773 100.631C197.323 100.579 197.726 100.092 197.674 99.5418C197.623 98.9919 197.135 98.5883 196.585 98.6402L196.773 100.631ZM200.472 98.3262C199.921 98.3632 199.504 98.84 199.541 99.391C199.578 99.9421 200.055 100.359 200.606 100.322L200.472 98.3262ZM204.447 100.116C204.999 100.094 205.428 99.6282 205.406 99.0764C205.384 98.5245 204.918 98.0951 204.367 98.1173L204.447 100.116ZM208.265 98.013C207.713 98.0204 207.271 98.4741 207.279 99.0263C207.286 99.5785 207.74 100.02 208.292 100.013L208.265 98.013ZM212.207 100.014C212.759 100.021 213.213 99.5798 213.22 99.0276C213.228 98.4754 212.787 98.0215 212.234 98.0139L212.207 100.014ZM216.247 98.1246C215.695 98.1017 215.229 98.5305 215.207 99.0823C215.184 99.6342 215.613 100.1 216.164 100.123L216.247 98.1246ZM220.122 100.342C220.673 100.38 221.15 99.9641 221.189 99.4132C221.227 98.8622 220.811 98.3846 220.26 98.3465L220.122 100.342ZM224.257 98.6791C223.707 98.6256 223.218 99.0279 223.165 99.5776C223.111 100.127 223.514 100.616 224.063 100.67L224.257 98.6791ZM228.005 101.109C228.553 101.178 229.053 100.789 229.122 100.241C229.191 99.6933 228.802 99.1932 228.254 99.1244L228.005 101.109ZM232.225 99.6797C231.68 99.5956 231.169 99.9699 231.085 100.516C231.001 101.062 231.375 101.572 231.921 101.656L232.225 99.6797ZM235.832 102.316C236.375 102.415 236.896 102.056 236.996 101.512C237.095 100.969 236.736 100.448 236.192 100.349L235.832 102.316ZM240.13 101.127C239.589 101.012 239.058 101.357 238.944 101.897C238.829 102.438 239.174 102.969 239.714 103.083L240.13 101.127ZM243.578 103.961C244.115 104.091 244.655 103.761 244.785 103.225C244.915 102.688 244.585 102.147 244.049 102.017L243.578 103.961ZM247.939 103.017C247.406 102.872 246.856 103.187 246.711 103.72C246.566 104.252 246.88 104.802 247.413 104.947L247.939 103.017ZM251.218 106.041C251.747 106.201 252.305 105.902 252.465 105.373C252.625 104.845 252.326 104.287 251.798 104.126L251.218 106.041ZM255.627 105.345C255.104 105.17 254.537 105.453 254.362 105.977C254.187 106.501 254.47 107.067 254.994 107.242L255.627 105.345ZM258.728 108.548C259.247 108.738 259.821 108.471 260.011 107.952C260.201 107.434 259.934 106.859 259.415 106.67L258.728 108.548ZM263.172 108.104C262.658 107.899 262.077 108.15 261.873 108.663C261.669 109.176 261.919 109.758 262.432 109.962L263.172 108.104ZM266.089 111.477C266.596 111.696 267.185 111.462 267.403 110.955C267.622 110.448 267.388 109.859 266.881 109.641L266.089 111.477ZM270.548 111.283C270.047 111.05 269.452 111.267 269.219 111.768C268.986 112.269 269.204 112.864 269.705 113.097L270.548 111.283ZM273.272 114.816C273.766 115.063 274.367 114.863 274.613 114.369C274.86 113.875 274.66 113.274 274.166 113.027L273.272 114.816ZM277.733 114.872C277.246 114.612 276.64 114.795 276.379 115.282C276.118 115.769 276.302 116.375 276.789 116.636L277.733 114.872ZM280.255 118.554C280.734 118.828 281.345 118.662 281.62 118.183C281.894 117.703 281.727 117.092 281.248 116.818L280.255 118.554ZM284.705 118.86C284.233 118.573 283.618 118.722 283.33 119.193C283.043 119.665 283.192 120.28 283.664 120.568L284.705 118.86ZM287.017 122.678C287.48 122.979 288.1 122.847 288.4 122.383C288.701 121.92 288.569 121.301 288.106 121L287.017 122.678ZM291.444 123.233C290.989 122.92 290.366 123.034 290.053 123.489C289.739 123.944 289.854 124.566 290.308 124.88L291.444 123.233ZM293.538 127.174C293.983 127.5 294.609 127.403 294.935 126.957C295.261 126.511 295.164 125.886 294.718 125.559L293.538 127.174ZM297.927 127.976C297.49 127.638 296.862 127.717 296.524 128.154C296.185 128.59 296.265 129.218 296.701 129.557L297.927 127.976ZM299.797 132.027C300.224 132.377 300.854 132.315 301.204 131.888C301.555 131.462 301.493 130.832 301.066 130.481L299.797 132.027ZM304.135 133.073C303.718 132.711 303.086 132.755 302.724 133.172C302.362 133.589 302.406 134.221 302.823 134.583L304.135 133.073ZM305.776 137.222C306.183 137.596 306.815 137.569 307.189 137.162C307.563 136.756 307.536 136.123 307.129 135.749L305.776 137.222ZM310.049 138.508C309.652 138.124 309.019 138.133 308.634 138.529C308.25 138.925 308.259 139.558 308.655 139.943L310.049 138.508ZM311.456 142.742C311.841 143.138 312.475 143.147 312.87 142.762C313.266 142.376 313.275 141.743 312.89 141.348L311.456 142.742ZM315.65 144.265C315.276 143.859 314.644 143.832 314.237 144.206C313.831 144.58 313.805 145.213 314.179 145.619L315.65 144.265ZM316.82 148.571C317.182 148.987 317.814 149.031 318.231 148.669C318.647 148.306 318.691 147.675 318.329 147.258L316.82 148.571ZM320.923 150.325C320.572 149.898 319.942 149.837 319.515 150.188C319.089 150.538 319.027 151.169 319.378 151.595L320.923 150.325ZM321.85 154.689C322.189 155.125 322.817 155.204 323.253 154.866C323.689 154.527 323.769 153.899 323.43 153.462L321.85 154.689ZM325.849 156.669C325.522 156.224 324.897 156.127 324.451 156.454C324.005 156.78 323.909 157.406 324.235 157.851L325.849 156.669ZM326.531 161.079C326.845 161.533 327.468 161.647 327.922 161.334C328.377 161.02 328.491 160.397 328.177 159.943L326.531 161.079ZM330.412 163.279C330.111 162.816 329.492 162.685 329.029 162.985C328.566 163.286 328.434 163.906 328.735 164.369L330.412 163.279ZM330.847 167.721C331.135 168.192 331.75 168.341 332.222 168.053C332.693 167.766 332.842 167.15 332.554 166.679L330.847 167.721ZM334.598 170.134C334.324 169.655 333.713 169.489 333.233 169.764C332.754 170.038 332.588 170.649 332.863 171.128L334.598 170.134ZM334.783 174.594C335.044 175.08 335.65 175.263 336.137 175.003C336.624 174.742 336.807 174.136 336.546 173.649L334.783 174.594ZM338.393 177.215C338.146 176.721 337.545 176.521 337.051 176.768C336.557 177.015 336.357 177.615 336.604 178.109L338.393 177.215ZM338.326 181.676C338.559 182.177 339.154 182.393 339.655 182.16C340.155 181.927 340.372 181.332 340.139 180.832L338.326 181.676ZM341.783 184.498C341.565 183.991 340.976 183.757 340.469 183.976C339.962 184.195 339.728 184.783 339.947 185.291L341.783 184.498ZM341.464 188.947C341.669 189.46 342.25 189.71 342.763 189.505C343.276 189.301 343.527 188.719 343.322 188.206L341.464 188.947ZM344.758 191.962C344.568 191.444 343.994 191.177 343.475 191.367C342.956 191.557 342.69 192.131 342.88 192.65L344.758 191.962ZM344.187 196.384C344.362 196.907 344.929 197.19 345.452 197.015C345.976 196.84 346.259 196.273 346.084 195.749L344.187 196.384ZM347.304 199.579C347.144 199.05 346.586 198.752 346.057 198.912C345.528 199.072 345.23 199.63 345.39 200.159L347.304 199.579ZM346.485 203.963C346.63 204.496 347.18 204.81 347.713 204.665C348.246 204.52 348.56 203.97 348.415 203.437L346.485 203.963ZM349.416 207.327C349.286 206.79 348.745 206.461 348.208 206.591C347.672 206.721 347.342 207.262 347.472 207.798L349.416 207.327ZM348.351 211.662C348.466 212.202 348.997 212.547 349.537 212.432C350.077 212.317 350.422 211.786 350.307 211.246L348.351 211.662ZM351.087 215.183C350.987 214.64 350.466 214.28 349.923 214.38C349.38 214.479 349.02 215 349.12 215.544L351.087 215.183ZM349.78 219.455C349.864 220.001 350.375 220.375 350.921 220.291C351.467 220.206 351.841 219.696 351.756 219.15L349.78 219.455ZM352.313 223.121C352.244 222.573 351.744 222.184 351.196 222.253C350.648 222.322 350.259 222.822 350.328 223.37L352.313 223.121ZM350.768 227.312C350.821 227.862 351.31 228.264 351.86 228.21C352.41 228.157 352.812 227.668 352.758 227.118L350.768 227.312ZM353.092 231.115C353.053 230.564 352.576 230.148 352.025 230.187C351.474 230.225 351.058 230.702 351.096 231.253L353.092 231.115ZM351.315 235.211C351.338 235.763 351.804 236.192 352.356 236.169C352.908 236.146 353.337 235.68 353.314 235.128L351.315 235.211ZM353.425 239.141C353.417 238.589 352.963 238.147 352.411 238.155C351.859 238.162 351.417 238.616 351.425 239.168L353.425 239.141ZM351.425 243.159C351.417 243.711 351.858 244.165 352.411 244.173C352.963 244.181 353.417 243.739 353.424 243.187L351.425 243.159ZM353.311 247.243C353.334 246.691 352.906 246.225 352.354 246.202C351.802 246.179 351.336 246.607 351.313 247.159L353.311 247.243ZM351.09 251.154C351.051 251.705 351.467 252.183 352.018 252.221C352.568 252.26 353.046 251.845 353.085 251.294L351.09 251.154ZM352.745 255.337C352.799 254.788 352.397 254.298 351.847 254.244C351.298 254.19 350.808 254.592 350.754 255.142L352.745 255.337ZM350.306 259.117C350.237 259.665 350.624 260.165 351.172 260.235C351.72 260.304 352.221 259.917 352.29 259.369L350.306 259.117ZM351.722 263.387C351.807 262.842 351.433 262.33 350.888 262.245C350.342 262.16 349.831 262.534 349.746 263.079L351.722 263.387ZM349.073 267.023C348.972 267.566 349.331 268.088 349.874 268.188C350.417 268.289 350.939 267.93 351.039 267.387L349.073 267.023ZM350.243 271.367C350.359 270.827 350.016 270.295 349.476 270.179C348.936 270.063 348.404 270.406 348.288 270.946L350.243 271.367ZM347.391 274.845C347.26 275.382 347.588 275.923 348.125 276.055C348.661 276.186 349.203 275.858 349.334 275.321L347.391 274.845ZM348.312 279.248C348.459 278.716 348.146 278.165 347.614 278.019C347.081 277.872 346.531 278.185 346.384 278.717L348.312 279.248ZM345.266 282.559C345.104 283.087 345.401 283.646 345.929 283.808C346.457 283.97 347.017 283.673 347.178 283.145L345.266 282.559ZM345.934 287.007C346.111 286.484 345.83 285.917 345.307 285.74C344.784 285.563 344.216 285.844 344.039 286.367L345.934 287.007ZM342.704 290.138C342.512 290.656 342.777 291.232 343.295 291.423C343.812 291.615 344.388 291.351 344.58 290.833L342.704 290.138ZM343.116 294.618C343.323 294.106 343.075 293.523 342.563 293.317C342.05 293.11 341.468 293.358 341.261 293.87L343.116 294.618ZM339.713 297.559C339.492 298.065 339.723 298.655 340.229 298.876C340.736 299.097 341.325 298.866 341.546 298.359L339.713 297.559ZM339.869 302.055C340.105 301.556 339.89 300.96 339.391 300.724C338.891 300.489 338.295 300.703 338.06 301.203L339.869 302.055ZM336.304 304.798C336.054 305.291 336.252 305.892 336.744 306.142C337.237 306.391 337.839 306.194 338.088 305.701L336.304 304.798ZM336.204 309.295C336.467 308.81 336.287 308.203 335.802 307.939C335.316 307.676 334.709 307.856 334.446 308.341L336.204 309.295ZM332.488 311.831C332.211 312.309 332.374 312.921 332.852 313.198C333.33 313.475 333.941 313.312 334.219 312.834L332.488 311.831ZM332.134 316.315C332.424 315.846 332.279 315.229 331.809 314.939C331.339 314.648 330.723 314.794 330.432 315.263L332.134 316.315ZM112.665 139.095C113.129 138.652 113.595 138.212 114.065 137.776L112.703 136.311C112.227 136.754 111.754 137.2 111.284 137.649L112.665 139.095ZM116.917 135.195C117.879 134.348 118.853 133.514 119.838 132.692L118.557 131.156C117.559 131.989 116.571 132.835 115.595 133.694L116.917 135.195ZM122.826 130.27C123.832 129.476 124.85 128.696 125.878 127.929L124.682 126.326C123.64 127.103 122.608 127.895 121.587 128.7L122.826 130.27ZM128.992 125.673C130.04 124.935 131.099 124.211 132.167 123.501L131.061 121.835C129.977 122.555 128.904 123.289 127.841 124.037L128.992 125.673ZM135.4 121.417C136.486 120.737 137.582 120.072 138.688 119.421L137.674 117.698C136.552 118.357 135.441 119.032 134.339 119.721L135.4 121.417ZM142.029 117.516C143.151 116.897 144.281 116.292 145.421 115.703L144.502 113.927C143.347 114.524 142.2 115.137 141.063 115.765L142.029 117.516ZM148.861 113.983C150.014 113.426 151.177 112.884 152.347 112.358L151.527 110.534C150.34 111.068 149.161 111.617 147.991 112.182L148.861 113.983ZM155.876 110.829C157.058 110.336 158.248 109.859 159.446 109.397L158.727 107.531C157.512 107.999 156.305 108.483 155.106 108.983L155.876 110.829ZM163.054 108.064C164.261 107.636 165.475 107.225 166.696 106.83L166.081 104.927C164.842 105.328 163.61 105.745 162.387 106.178L163.054 108.064ZM170.371 105.697C171.599 105.336 172.834 104.992 174.076 104.665L173.566 102.731C172.306 103.063 171.054 103.412 169.808 103.778L170.371 105.697ZM177.808 103.735C179.054 103.442 180.306 103.166 181.564 102.907L181.161 100.948C179.884 101.211 178.614 101.491 177.351 101.788L177.808 103.735ZM185.342 102.183C186.601 101.959 187.867 101.752 189.138 101.562L188.842 99.5837C187.553 99.7766 186.27 99.9866 184.992 100.214L185.342 102.183ZM192.949 101.045C194.219 100.89 195.493 100.752 196.773 100.631L196.585 98.6402C195.287 98.7626 193.995 98.9024 192.708 99.0593L192.949 101.045ZM200.606 100.322C201.882 100.236 203.162 100.167 204.447 100.116L204.367 98.1173C203.064 98.1696 201.766 98.2393 200.472 98.3262L200.606 100.322ZM208.292 100.013C208.933 100.004 209.575 100 210.218 100V98C209.566 98 208.915 98.0044 208.265 98.013L208.292 100.013ZM210.218 100C210.882 100 211.545 100.005 212.207 100.014L212.234 98.0139C211.563 98.0046 210.891 98 210.218 98V100ZM216.164 100.123C217.488 100.178 218.808 100.251 220.122 100.342L220.26 98.3465C218.927 98.2542 217.59 98.1801 216.247 98.1246L216.164 100.123ZM224.063 100.67C225.383 100.798 226.697 100.944 228.005 101.109L228.254 99.1244C226.928 98.9577 225.595 98.8092 224.257 98.6791L224.063 100.67ZM231.921 101.656C233.231 101.858 234.534 102.078 235.832 102.316L236.192 100.349C234.876 100.108 233.554 99.8845 232.225 99.6797L231.921 101.656ZM239.714 103.083C241.009 103.358 242.297 103.651 243.578 103.961L244.049 102.017C242.749 101.703 241.443 101.406 240.13 101.127L239.714 103.083ZM247.413 104.947C248.689 105.294 249.957 105.659 251.218 106.041L251.798 104.126C250.519 103.739 249.232 103.369 247.939 103.017L247.413 104.947ZM254.994 107.242C256.247 107.661 257.492 108.096 258.728 108.548L259.415 106.67C258.161 106.211 256.898 105.77 255.627 105.345L254.994 107.242ZM262.432 109.962C263.66 110.45 264.879 110.956 266.089 111.477L266.881 109.641C265.653 109.112 264.417 108.599 263.172 108.104L262.432 109.962ZM269.705 113.097C270.903 113.654 272.092 114.227 273.272 114.816L274.166 113.027C272.969 112.43 271.763 111.848 270.548 111.283L269.705 113.097ZM276.789 116.636C277.954 117.259 279.11 117.899 280.255 118.554L281.248 116.818C280.086 116.154 278.914 115.505 277.733 114.872L276.789 116.636ZM283.664 120.568C284.792 121.256 285.91 121.959 287.017 122.678L288.106 121C286.983 120.271 285.849 119.558 284.705 118.86L283.664 120.568ZM290.308 124.88C291.396 125.63 292.472 126.394 293.538 127.174L294.718 125.559C293.638 124.769 292.547 123.994 291.444 123.233L290.308 124.88ZM296.701 129.557C297.745 130.366 298.777 131.189 299.797 132.027L301.066 130.481C300.032 129.632 298.985 128.797 297.927 127.976L296.701 129.557ZM302.823 134.583C303.82 135.449 304.804 136.329 305.776 137.222L307.129 135.749C306.144 134.844 305.145 133.952 304.135 133.073L302.823 134.583ZM308.655 139.943C309.601 140.863 310.535 141.796 311.456 142.742L312.89 141.348C311.956 140.388 311.009 139.442 310.049 138.508L308.655 139.943ZM314.179 145.619C315.073 146.591 315.953 147.575 316.82 148.571L318.329 147.258C317.45 146.248 316.557 145.25 315.65 144.265L314.179 145.619ZM319.378 151.595C320.216 152.615 321.04 153.646 321.85 154.689L323.43 153.462C322.609 152.405 321.773 151.359 320.923 150.325L319.378 151.595ZM324.235 157.851C325.015 158.916 325.78 159.992 326.531 161.079L328.177 159.943C327.416 158.84 326.64 157.749 325.849 156.669L324.235 157.851ZM328.735 164.369C329.454 165.476 330.158 166.593 330.847 167.721L332.554 166.679C331.856 165.535 331.141 164.402 330.412 163.279L328.735 164.369ZM332.863 171.128C333.519 172.273 334.159 173.429 334.783 174.594L336.546 173.649C335.913 172.467 335.263 171.296 334.598 170.134L332.863 171.128ZM336.604 178.109C337.194 179.289 337.768 180.478 338.326 181.676L340.139 180.832C339.574 179.617 338.991 178.411 338.393 177.215L336.604 178.109ZM339.947 185.291C340.469 186.501 340.975 187.719 341.464 188.947L343.322 188.206C342.826 186.961 342.313 185.725 341.783 184.498L339.947 185.291ZM342.88 192.65C343.332 193.886 343.768 195.131 344.187 196.384L346.084 195.749C345.659 194.479 345.217 193.216 344.758 191.962L342.88 192.65ZM345.39 200.159C345.772 201.42 346.137 202.688 346.485 203.963L348.415 203.437C348.062 202.144 347.692 200.857 347.304 199.579L345.39 200.159ZM347.472 207.798C347.783 209.079 348.076 210.367 348.351 211.662L350.307 211.246C350.028 209.933 349.731 208.627 349.416 207.327L347.472 207.798ZM349.12 215.544C349.358 216.841 349.578 218.145 349.78 219.455L351.756 219.15C351.551 217.821 351.328 216.499 351.087 215.183L349.12 215.544ZM350.328 223.37C350.493 224.679 350.639 225.993 350.768 227.312L352.758 227.118C352.628 225.78 352.479 224.448 352.313 223.121L350.328 223.37ZM351.096 231.253C351.187 232.568 351.261 233.887 351.315 235.211L353.314 235.128C353.258 233.786 353.184 232.448 353.092 231.115L351.096 231.253ZM351.425 239.168C351.434 239.83 351.438 240.493 351.438 241.157H353.438C353.438 240.484 353.434 239.812 353.425 239.141L351.425 239.168ZM351.438 241.157C351.438 241.826 351.434 242.493 351.425 243.159L353.424 243.187C353.434 242.511 353.438 241.835 353.438 241.157H351.438ZM351.313 247.159C351.257 248.496 351.183 249.827 351.09 251.154L353.085 251.294C353.179 249.948 353.255 248.598 353.311 247.243L351.313 247.159ZM350.754 255.142C350.623 256.472 350.474 257.797 350.306 259.117L352.29 259.369C352.46 258.031 352.612 256.687 352.745 255.337L350.754 255.142ZM349.746 263.079C349.54 264.4 349.315 265.714 349.073 267.023L351.039 267.387C351.285 266.06 351.513 264.727 351.722 263.387L349.746 263.079ZM348.288 270.946C348.007 272.253 347.708 273.553 347.391 274.845L349.334 275.321C349.655 274.01 349.958 272.692 350.243 271.367L348.288 270.946ZM346.384 278.717C346.029 280.005 345.656 281.286 345.266 282.559L347.178 283.145C347.574 281.854 347.952 280.555 348.312 279.248L346.384 278.717ZM344.039 286.367C343.612 287.632 343.166 288.89 342.704 290.138L344.58 290.833C345.049 289.566 345.5 288.291 345.934 287.007L344.039 286.367ZM341.261 293.87C340.762 295.109 340.246 296.338 339.713 297.559L341.546 298.359C342.087 297.121 342.61 295.874 343.116 294.618L341.261 293.87ZM338.06 301.203C337.491 302.411 336.906 303.609 336.304 304.798L338.088 305.701C338.699 304.496 339.292 303.28 339.869 302.055L338.06 301.203ZM334.446 308.341C333.81 309.515 333.157 310.678 332.488 311.831L334.219 312.834C334.897 311.665 335.559 310.485 336.204 309.295L334.446 308.341ZM330.432 315.263C330.082 315.831 329.727 316.395 329.368 316.957L331.054 318.033C331.418 317.463 331.778 316.891 332.134 316.315L330.432 315.263Z" fill="white"/>
<path d="M285.187 267.401C283.97 262.814 287.341 258.031 290.513 255.092C290.809 254.822 291.034 254.778 291.349 255.073C294.27 257.812 296.888 261.5 296.888 265.647C297.269 272.513 286.945 273.962 285.187 267.401Z" fill="white" stroke="white" stroke-linecap="round" stroke-linejoin="round"/>
<path d="M290.793 268.488V276.525" stroke="white" stroke-linecap="round" stroke-linejoin="round"/>
<path d="M272.346 268.577C271.43 265.124 273.964 261.525 276.352 259.313C276.575 259.11 276.747 259.075 276.982 259.301C279.179 261.36 281.153 264.139 281.153 267.258C281.443 272.52 273.686 273.554 272.346 268.577Z" fill="white" stroke="white" stroke-linecap="round" stroke-linejoin="round"/>
<path d="M276.564 269.394V272.915V274.319V275.441" stroke="white" stroke-linecap="round" stroke-linejoin="round"/>
<path d="M88.2051 162.019C83.5346 162.019 79.7717 157.804 80.9275 153.098C81.6917 149.983 84.4839 147.648 87.7092 147.648C88.4627 147.667 88.7011 147.47 88.8188 146.717C89.9684 138.823 100.275 137.039 104.941 142.811C105.298 143.247 105.695 143.405 106.27 143.307C110.296 142.633 113.609 144.775 114.661 148.719C114.88 149.552 114.937 149.612 115.812 149.691C123.932 150.549 122.536 162.022 114.581 162.022H88.2051V162.019Z" stroke="white" stroke-miterlimit="10"/>
<path d="M98.5962 153.592L100.418 154.17C100.139 155.186 99.6732 155.941 99.0215 156.436C98.374 156.927 97.5509 157.172 96.5522 157.172C95.3166 157.172 94.3009 156.751 93.5054 155.909C92.7098 155.063 92.312 153.908 92.312 152.443C92.312 150.895 92.7119 149.693 93.5117 148.838C94.3115 147.979 95.3631 147.549 96.6665 147.549C97.8049 147.549 98.7295 147.886 99.4404 148.559C99.8636 148.956 100.181 149.528 100.393 150.272L98.5327 150.717C98.4227 150.234 98.1921 149.854 97.8408 149.574C97.4938 149.295 97.0706 149.155 96.5713 149.155C95.8815 149.155 95.3208 149.403 94.8892 149.898C94.4618 150.393 94.248 151.195 94.248 152.304C94.248 153.48 94.4596 154.318 94.8828 154.817C95.306 155.317 95.8561 155.566 96.5332 155.566C97.0326 155.566 97.4621 155.408 97.8218 155.09C98.1815 154.773 98.4396 154.274 98.5962 153.592ZM101.656 152.418C101.656 151.47 101.798 150.674 102.081 150.031C102.293 149.557 102.58 149.132 102.944 148.755C103.312 148.379 103.715 148.099 104.15 147.917C104.73 147.672 105.399 147.549 106.156 147.549C107.527 147.549 108.623 147.975 109.444 148.825C110.27 149.676 110.682 150.859 110.682 152.374C110.682 153.876 110.274 155.052 109.457 155.903C108.64 156.749 107.549 157.172 106.182 157.172C104.798 157.172 103.698 156.751 102.881 155.909C102.064 155.063 101.656 153.899 101.656 152.418ZM103.592 152.354C103.592 153.408 103.835 154.208 104.322 154.754C104.808 155.296 105.426 155.566 106.175 155.566C106.924 155.566 107.538 155.298 108.016 154.76C108.499 154.219 108.74 153.408 108.74 152.329C108.74 151.263 108.505 150.467 108.035 149.942C107.57 149.418 106.95 149.155 106.175 149.155C105.401 149.155 104.777 149.422 104.303 149.955C103.829 150.484 103.592 151.284 103.592 152.354ZM115.668 158.704H111.56V157.638L112.977 156.247C113.237 155.995 113.441 155.787 113.588 155.623C113.735 155.449 113.839 155.293 113.9 155.155C113.961 155.016 113.991 154.873 113.991 154.726C113.991 154.57 113.939 154.448 113.835 154.362C113.74 154.275 113.605 154.232 113.432 154.232C113.267 154.232 113.09 154.275 112.899 154.362C112.717 154.448 112.513 154.591 112.288 154.791L111.508 153.829C111.785 153.586 112.093 153.391 112.431 153.244C112.778 153.088 113.181 153.01 113.64 153.01C114.203 153.01 114.654 153.148 114.992 153.426C115.339 153.694 115.512 154.084 115.512 154.596C115.512 154.856 115.464 155.098 115.369 155.324C115.274 155.54 115.122 155.77 114.914 156.013C114.706 156.247 114.433 156.52 114.095 156.832L113.432 157.43H115.668V158.704Z" fill="white"/>
<path d="M155.482 156.229V153.438H152.669V151.512H155.482V148.722H157.357V151.512H160.177V153.438H157.357V156.229H155.482Z" fill="#24B54A"/>
<path d="M155.482 143.613V140.822H152.669V138.896H155.482V136.105H157.357V138.896H160.177V140.822H157.357V143.613H155.482Z" fill="#24B54A"/>
<path d="M178.537 155.905V153.114H175.724V151.188H178.537V148.397H180.412V151.188H183.231V153.114H180.412V155.905H178.537Z" fill="#24B54A"/>
<path d="M178.537 143.289V140.498H175.724V138.572H178.537V135.781H180.412V138.572H183.231V140.498H180.412V143.289H178.537Z" fill="#24B54A"/>
<path d="M288.853 141.97V139.912H292.896V141.97H288.853Z" fill="#24B54A"/>
<path d="M178.537 131.441V128.65H175.724V126.724H178.537V123.934H180.412V126.724H183.231V128.65H180.412V131.441H178.537Z" fill="#24B54A"/>
<path d="M213.449 155.905V153.114H210.636V151.188H213.449V148.397H215.324V151.188H218.144V153.114H215.324V155.905H213.449Z" fill="#24B54A"/>
<path d="M275.099 154.586V152.528H279.142V154.586H275.099Z" fill="#24B54A"/>
<path d="M288.853 154.586V152.528H292.896V154.586H288.853Z" fill="#24B54A"/>
</svg>
