<svg viewBox="0 0 420 650" fill="none" xmlns="http://www.w3.org/2000/svg">
<rect width="420" height="650" rx="9" fill="#222222"/>
<rect x="0.5" y="0.5" width="419" height="649" rx="8.5" stroke="white"/>
<rect x="15.5" y="445.5" width="389" height="179" rx="8.5" stroke="white"/>
<path d="M42.42 34.43L40.792 32.582C39.758 33.088 38.614 33.352 37.36 33.352C33.136 33.352 29.946 30.294 29.946 25.3C29.946 20.394 33.136 17.226 37.36 17.226C41.606 17.226 44.818 20.438 44.818 25.3C44.818 27.874 43.96 29.942 42.53 31.35L44.048 33.044L42.42 34.43ZM32.476 25.3C32.476 29.062 34.434 31.306 37.36 31.306C38.064 31.306 38.724 31.174 39.318 30.932L37.47 28.842L39.098 27.478L41.012 29.612C41.826 28.6 42.288 27.126 42.288 25.3C42.288 21.604 40.286 19.294 37.36 19.294C34.456 19.294 32.476 21.582 32.476 25.3ZM50.9718 33.352C48.6618 33.352 47.1438 31.878 47.1438 29.106V22.33H49.4318V28.71C49.4318 30.47 50.1138 31.548 51.6318 31.548C53.1718 31.548 54.1398 30.382 54.1398 28.446V22.33H56.4278V33H54.1618V32.45C54.1618 32.142 54.1838 31.812 54.2278 31.526C53.6998 32.604 52.5778 33.352 50.9718 33.352ZM62.494 33.352C60.558 33.352 58.82 32.12 58.82 30.074C58.82 27.83 60.58 26.928 62.67 26.642L64.584 26.356C65.42 26.246 65.706 25.938 65.706 25.344C65.706 24.398 64.958 23.716 63.77 23.716C62.318 23.716 61.504 24.508 61.438 25.718H59.106C59.216 23.628 60.888 21.978 63.616 21.978C66.564 21.978 67.972 23.628 67.972 26.356V33H65.838V32.516C65.838 32.186 65.86 31.878 65.882 31.548C65.332 32.626 64.21 33.352 62.494 33.352ZM61.174 30.008C61.174 31.042 61.988 31.636 63 31.636C64.562 31.636 65.75 30.536 65.75 28.908V27.544C65.574 27.764 65.178 27.896 64.54 28.006L63.33 28.248C62.076 28.49 61.174 28.974 61.174 30.008ZM70.8222 33V17.6H73.1102V33H70.8222ZM76.1073 33V22.33H78.3953V33H76.1073ZM76.0193 20.504V17.974H78.5053V20.504H76.0193ZM85.6605 33.176C83.7245 33.176 82.4045 32.23 82.4045 29.854V24.178H80.1825V22.33H82.4045V18.634H84.6925V22.33H87.1125V24.178H84.6925V29.546C84.6925 30.734 85.2205 31.262 86.2545 31.262C86.5185 31.262 86.7825 31.24 87.0685 31.196V33.022C86.7385 33.11 86.2105 33.176 85.6605 33.176ZM92.3143 33.352C90.3783 33.352 88.6403 32.12 88.6403 30.074C88.6403 27.83 90.4003 26.928 92.4903 26.642L94.4043 26.356C95.2403 26.246 95.5263 25.938 95.5263 25.344C95.5263 24.398 94.7783 23.716 93.5903 23.716C92.1383 23.716 91.3243 24.508 91.2583 25.718H88.9263C89.0363 23.628 90.7083 21.978 93.4363 21.978C96.3843 21.978 97.7923 23.628 97.7923 26.356V33H95.6583V32.516C95.6583 32.186 95.6803 31.878 95.7023 31.548C95.1523 32.626 94.0303 33.352 92.3143 33.352ZM90.0703 20.504V17.974H92.5563V20.504H90.0703ZM90.9943 30.008C90.9943 31.042 91.8083 31.636 92.8203 31.636C94.3823 31.636 95.5703 30.536 95.5703 28.908V27.544C95.3943 27.764 94.9983 27.896 94.3603 28.006L93.1503 28.248C91.8963 28.49 90.9943 28.974 90.9943 30.008ZM94.4483 20.504V17.974H96.9123V20.504H94.4483ZM104.803 33.176C102.867 33.176 101.547 32.23 101.547 29.854V24.178H99.3251V22.33H101.547V18.634H103.835V22.33H106.255V24.178H103.835V29.546C103.835 30.734 104.363 31.262 105.397 31.262C105.661 31.262 105.925 31.24 106.211 31.196V33.022C105.881 33.11 105.353 33.176 104.803 33.176ZM112.381 33.352C109.433 33.352 107.673 31.79 107.563 29.392H109.851C109.917 30.756 110.797 31.614 112.359 31.614C113.701 31.614 114.581 30.998 114.581 30.052C114.581 29.282 113.987 28.842 112.777 28.6L111.325 28.314C109.213 27.918 107.937 26.884 107.937 25.168C107.937 23.342 109.675 21.978 112.205 21.978C114.911 21.978 116.583 23.342 116.693 25.542H114.405C114.295 24.376 113.459 23.716 112.139 23.716C110.995 23.716 110.203 24.222 110.203 25.058C110.203 25.806 110.731 26.18 112.007 26.422L113.481 26.708C115.483 27.104 116.825 28.05 116.825 29.876C116.825 31.856 115.131 33.352 112.381 33.352ZM119.205 37.532V22.33H121.493V22.946C121.493 23.232 121.493 23.496 121.449 23.826C122.087 22.77 123.319 21.978 124.969 21.978C127.917 21.978 129.765 24.354 129.765 27.676C129.765 31.108 127.719 33.352 124.881 33.352C123.231 33.352 122.131 32.604 121.449 31.526C121.493 31.878 121.493 32.164 121.493 32.472V37.532H119.205ZM121.383 27.654C121.383 29.986 122.637 31.57 124.419 31.57C126.223 31.57 127.411 29.964 127.411 27.654C127.411 25.388 126.245 23.782 124.419 23.782C122.659 23.782 121.383 25.278 121.383 27.654ZM132.096 33V22.33H134.384V22.968C134.384 23.386 134.384 23.782 134.34 24.178C134.89 22.968 135.968 21.978 137.574 21.978C137.75 21.978 137.926 21.978 138.102 22.022V24.244C137.948 24.222 137.728 24.178 137.42 24.178C135.572 24.178 134.384 25.168 134.384 27.522V33H132.096ZM144.409 33.352C141.263 33.352 139.063 31.152 139.063 27.676C139.063 24.266 141.285 21.978 144.409 21.978C147.555 21.978 149.777 24.266 149.777 27.676C149.777 31.152 147.555 33.352 144.409 33.352ZM141.395 27.676C141.395 30.052 142.561 31.57 144.409 31.57C146.257 31.57 147.445 30.052 147.445 27.676C147.445 25.256 146.235 23.782 144.409 23.782C142.605 23.782 141.395 25.256 141.395 27.676ZM155.203 24.178V33H152.915V24.178H150.847V22.33H152.915V20.724C152.915 18.414 154.301 17.226 156.149 17.226C156.721 17.226 157.183 17.336 157.403 17.424V19.272C157.227 19.228 156.963 19.184 156.699 19.184C155.797 19.184 155.203 19.712 155.203 20.68V22.33H161.517V33H159.229V24.178H155.203ZM159.119 20.504V17.974H161.605V20.504H159.119ZM164.516 33V17.6H166.804V33H164.516Z" fill="white"/>
<path d="M35.412 477V463.646H30.176V461.6H43.068V463.646H37.854V477H35.412ZM46.9677 477.352C43.8217 477.352 41.6217 475.152 41.6217 471.676C41.6217 468.266 43.8437 465.978 46.9677 465.978C50.1137 465.978 52.3357 468.266 52.3357 471.676C52.3357 475.152 50.1137 477.352 46.9677 477.352ZM43.9537 471.676C43.9537 474.052 45.1197 475.57 46.9677 475.57C48.8157 475.57 50.0037 474.052 50.0037 471.676C50.0037 469.256 48.7937 467.782 46.9677 467.782C45.1637 467.782 43.9537 469.256 43.9537 471.676ZM55.0511 477V461.6H60.0891C65.1711 461.6 68.2951 464.042 68.2951 469.3C68.2951 473.964 65.5671 477 60.3531 477H55.0511ZM57.4931 474.932H60.1331C63.6091 474.932 65.7871 473.238 65.7871 469.3C65.7871 465.714 63.9611 463.646 60.0891 463.646H57.4931V474.932ZM75.4345 477.352C72.2885 477.352 70.0885 475.152 70.0885 471.676C70.0885 468.266 72.3105 465.978 75.4345 465.978C78.5805 465.978 80.8025 468.266 80.8025 471.676C80.8025 475.152 78.5805 477.352 75.4345 477.352ZM72.4205 471.676C72.4205 474.052 73.5865 475.57 75.4345 475.57C77.2825 475.57 78.4705 474.052 78.4705 471.676C78.4705 469.256 77.2605 467.782 75.4345 467.782C73.6305 467.782 72.4205 469.256 72.4205 471.676ZM82.9679 477V474.074H85.8939V477H82.9679ZM82.9679 470.202V467.276H85.8939V470.202H82.9679ZM30 506L36.248 490.6H39.108L45.378 506H42.65L41 501.6H34.268L32.596 506H30ZM35.038 499.554H40.23L38.162 494.076C37.964 493.548 37.81 493.108 37.634 492.602C37.48 493.108 37.282 493.57 37.106 494.076L35.038 499.554ZM50.5538 506.352C48.2438 506.352 46.7258 504.878 46.7258 502.106V495.33H49.0138V501.71C49.0138 503.47 49.6958 504.548 51.2138 504.548C52.7538 504.548 53.7218 503.382 53.7218 501.446V495.33H56.0098V506H53.7438V505.45C53.7438 505.142 53.7658 504.812 53.8098 504.526C53.2818 505.604 52.1598 506.352 50.5538 506.352ZM63 506.352C60.052 506.352 58.292 504.79 58.182 502.392H60.47C60.536 503.756 61.416 504.614 62.978 504.614C64.32 504.614 65.2 503.998 65.2 503.052C65.2 502.282 64.606 501.842 63.396 501.6L61.944 501.314C59.832 500.918 58.556 499.884 58.556 498.168C58.556 496.342 60.294 494.978 62.824 494.978C65.53 494.978 67.202 496.342 67.312 498.542H65.024C64.914 497.376 64.078 496.716 62.758 496.716C61.614 496.716 60.822 497.222 60.822 498.058C60.822 498.806 61.35 499.18 62.626 499.422L64.1 499.708C66.102 500.104 67.444 501.05 67.444 502.876C67.444 504.856 65.75 506.352 63 506.352ZM73.8281 506.352C70.8801 506.352 69.1201 504.79 69.0101 502.392H71.2981C71.3641 503.756 72.2441 504.614 73.8061 504.614C75.1481 504.614 76.0281 503.998 76.0281 503.052C76.0281 502.282 75.4341 501.842 74.2241 501.6L72.7721 501.314C70.6601 500.918 69.3841 499.884 69.3841 498.168C69.3841 496.342 71.1221 494.978 73.6521 494.978C76.3581 494.978 78.0301 496.342 78.1401 498.542H75.8521C75.7421 497.376 74.9061 496.716 73.5861 496.716C72.4421 496.716 71.6501 497.222 71.6501 498.058C71.6501 498.806 72.1781 499.18 73.4541 499.422L74.9281 499.708C76.9301 500.104 78.2721 501.05 78.2721 502.876C78.2721 504.856 76.5781 506.352 73.8281 506.352ZM84.7484 506.176C82.8124 506.176 81.4924 505.23 81.4924 502.854V497.178H79.2704V495.33H81.4924V491.634H83.7804V495.33H86.2004V497.178H83.7804V502.546C83.7804 503.734 84.3084 504.262 85.3424 504.262C85.6064 504.262 85.8704 504.24 86.1564 504.196V506.022C85.8264 506.11 85.2984 506.176 84.7484 506.176ZM91.4022 506.352C89.4662 506.352 87.7282 505.12 87.7282 503.074C87.7282 500.83 89.4882 499.928 91.5782 499.642L93.4922 499.356C94.3282 499.246 94.6142 498.938 94.6142 498.344C94.6142 497.398 93.8662 496.716 92.6782 496.716C91.2262 496.716 90.4122 497.508 90.3462 498.718H88.0142C88.1242 496.628 89.7962 494.978 92.5242 494.978C95.4722 494.978 96.8802 496.628 96.8802 499.356V506H94.7462V505.516C94.7462 505.186 94.7682 504.878 94.7902 504.548C94.2402 505.626 93.1182 506.352 91.4022 506.352ZM90.0822 503.008C90.0822 504.042 90.8962 504.636 91.9082 504.636C93.4702 504.636 94.6582 503.536 94.6582 501.908V500.544C94.4822 500.764 94.0862 500.896 93.4482 501.006L92.2382 501.248C90.9842 501.49 90.0822 501.974 90.0822 503.008ZM103.891 506.176C101.955 506.176 100.635 505.23 100.635 502.854V497.178H98.413V495.33H100.635V491.634H102.923V495.33H105.343V497.178H102.923V502.546C102.923 503.734 103.451 504.262 104.485 504.262C104.749 504.262 105.013 504.24 105.299 504.196V506.022C104.969 506.11 104.441 506.176 103.891 506.176ZM111.733 506.176C109.797 506.176 108.477 505.23 108.477 502.854V497.178H106.255V495.33H108.477V491.634H110.765V495.33H113.185V497.178H110.765V502.546C110.765 503.734 111.293 504.262 112.327 504.262C112.591 504.262 112.855 504.24 113.141 504.196V506.022C112.811 506.11 112.283 506.176 111.733 506.176ZM119.025 506.352C116.715 506.352 115.197 504.878 115.197 502.106V495.33H117.485V501.71C117.485 503.47 118.167 504.548 119.685 504.548C121.225 504.548 122.193 503.382 122.193 501.446V495.33H124.481V506H122.215V505.45C122.215 505.142 122.237 504.812 122.281 504.526C121.753 505.604 120.631 506.352 119.025 506.352ZM127.467 506V495.33H129.755V495.924C129.755 496.21 129.733 496.474 129.711 496.804C130.283 495.814 131.427 494.978 132.989 494.978C135.409 494.978 136.839 496.584 136.839 499.268V506H134.551V499.576C134.551 497.794 133.847 496.782 132.373 496.782C130.789 496.782 129.755 498.08 129.755 499.664V506H127.467ZM144.355 510.884C141.363 510.884 139.559 509.256 139.559 506.88H141.847C141.869 508.222 142.815 509.102 144.399 509.102C146.093 509.102 147.281 508.156 147.281 506.22V504.988C147.281 504.636 147.303 504.306 147.325 503.976C146.731 504.988 145.543 505.736 143.915 505.736C141.055 505.736 139.097 503.712 139.097 500.368C139.097 497.068 141.319 494.978 143.893 494.978C145.719 494.978 146.731 495.814 147.325 496.804C147.303 496.496 147.281 496.188 147.281 495.858V495.33H149.569V505.56C149.569 509.146 147.633 510.884 144.355 510.884ZM141.451 500.368C141.451 502.502 142.683 503.932 144.443 503.932C146.181 503.932 147.435 502.48 147.435 500.368C147.435 498.278 146.181 496.782 144.443 496.782C142.683 496.782 141.451 498.256 141.451 500.368ZM156.564 506.352C153.616 506.352 151.856 504.79 151.746 502.392H154.034C154.1 503.756 154.98 504.614 156.542 504.614C157.884 504.614 158.764 503.998 158.764 503.052C158.764 502.282 158.17 501.842 156.96 501.6L155.508 501.314C153.396 500.918 152.12 499.884 152.12 498.168C152.12 496.342 153.858 494.978 156.388 494.978C159.094 494.978 160.766 496.342 160.876 498.542H158.588C158.478 497.376 157.642 496.716 156.322 496.716C155.178 496.716 154.386 497.222 154.386 498.058C154.386 498.806 154.914 499.18 156.19 499.422L157.664 499.708C159.666 500.104 161.008 501.05 161.008 502.876C161.008 504.856 159.314 506.352 156.564 506.352ZM163.389 506V495.33H165.677V495.924C165.677 496.21 165.655 496.474 165.633 496.804C166.205 495.814 167.349 494.978 168.911 494.978C171.331 494.978 172.761 496.584 172.761 499.268V506H170.473V499.576C170.473 497.794 169.769 496.782 168.295 496.782C166.711 496.782 165.677 498.08 165.677 499.664V506H163.389ZM175.635 506V495.33H177.923V506H175.635ZM175.547 493.504V490.974H178.033V493.504H175.547ZM183.692 506L179.644 495.33H182.108L184.638 502.7C184.814 503.162 184.902 503.492 185.012 503.91C185.122 503.492 185.232 503.162 185.386 502.7L187.872 495.33H190.248L186.266 506H183.692ZM196.412 506.352C193.222 506.352 191.11 504.328 191.11 500.632C191.11 497.31 193.31 494.978 196.324 494.978C199.536 494.978 201.362 497.222 201.362 500.676V501.16H193.42C193.464 503.228 194.696 504.57 196.434 504.57C197.666 504.57 198.744 503.976 198.964 502.612H201.274C201.054 504.636 199.382 506.352 196.412 506.352ZM193.442 499.532H198.964C198.942 497.86 197.952 496.716 196.302 496.716C194.696 496.716 193.596 497.926 193.442 499.532ZM206.816 506.352C204.88 506.352 203.142 505.12 203.142 503.074C203.142 500.83 204.902 499.928 206.992 499.642L208.906 499.356C209.742 499.246 210.028 498.938 210.028 498.344C210.028 497.398 209.28 496.716 208.092 496.716C206.64 496.716 205.826 497.508 205.76 498.718H203.428C203.538 496.628 205.21 494.978 207.938 494.978C210.886 494.978 212.294 496.628 212.294 499.356V506H210.16V505.516C210.16 505.186 210.182 504.878 210.204 504.548C209.654 505.626 208.532 506.352 206.816 506.352ZM205.496 503.008C205.496 504.042 206.31 504.636 207.322 504.636C208.884 504.636 210.072 503.536 210.072 501.908V500.544C209.896 500.764 209.5 500.896 208.862 501.006L207.652 501.248C206.398 501.49 205.496 501.974 205.496 503.008ZM218.862 506.352C216.552 506.352 215.034 504.878 215.034 502.106V495.33H217.322V501.71C217.322 503.47 218.004 504.548 219.522 504.548C221.062 504.548 222.03 503.382 222.03 501.446V495.33H224.318V506H222.052V505.45C222.052 505.142 222.074 504.812 222.118 504.526C221.59 505.604 220.468 506.352 218.862 506.352ZM236.493 506.352C233.677 506.352 231.587 504.372 231.587 500.676C231.587 497.156 233.765 494.978 236.537 494.978C238.253 494.978 239.353 495.88 239.903 496.804C239.859 496.474 239.859 496.166 239.859 495.858V490.6H242.147V506H239.859V505.472C239.859 505.12 239.859 504.834 239.903 504.526C239.397 505.406 238.275 506.352 236.493 506.352ZM233.941 500.676C233.941 503.03 235.195 504.57 236.977 504.57C238.715 504.57 239.991 503.008 239.991 500.654C239.991 498.3 238.737 496.782 236.977 496.782C235.217 496.782 233.941 498.366 233.941 500.676ZM249.801 506.352C246.611 506.352 244.499 504.328 244.499 500.632C244.499 497.31 246.699 494.978 249.713 494.978C252.925 494.978 254.751 497.222 254.751 500.676V501.16H246.809C246.853 503.228 248.085 504.57 249.823 504.57C251.055 504.57 252.133 503.976 252.353 502.612H254.663C254.443 504.636 252.771 506.352 249.801 506.352ZM246.831 499.532H252.353C252.331 497.86 251.341 496.716 249.691 496.716C248.085 496.716 246.985 497.926 246.831 499.532ZM260.23 497.178V506H257.942V497.178H255.874V495.33H257.942V493.724C257.942 491.414 259.328 490.226 261.176 490.226C261.748 490.226 262.21 490.336 262.43 490.424V492.272C262.254 492.228 261.99 492.184 261.726 492.184C260.824 492.184 260.23 492.712 260.23 493.68V495.33H266.544V506H264.256V497.178H260.23ZM264.146 493.504V490.974H266.632V493.504H264.146ZM269.543 506V495.33H271.831V495.924C271.831 496.21 271.809 496.474 271.787 496.804C272.359 495.814 273.503 494.978 275.065 494.978C277.485 494.978 278.915 496.584 278.915 499.268V506H276.627V499.576C276.627 497.794 275.923 496.782 274.449 496.782C272.865 496.782 271.831 498.08 271.831 499.664V506H269.543ZM281.789 506V495.33H284.077V506H281.789ZM281.701 493.504V490.974H284.187V493.504H281.701ZM291.738 506.352C288.548 506.352 286.436 504.328 286.436 500.632C286.436 497.31 288.636 494.978 291.65 494.978C294.862 494.978 296.688 497.222 296.688 500.676V501.16H288.746C288.79 503.228 290.022 504.57 291.76 504.57C292.992 504.57 294.07 503.976 294.29 502.612H296.6C296.38 504.636 294.708 506.352 291.738 506.352ZM288.768 499.532H294.29C294.268 497.86 293.278 496.716 291.628 496.716C290.022 496.716 288.922 497.926 288.768 499.532ZM299.062 506V495.33H301.35V495.968C301.35 496.386 301.35 496.782 301.306 497.178C301.856 495.968 302.934 494.978 304.54 494.978C304.716 494.978 304.892 494.978 305.068 495.022V497.244C304.914 497.222 304.694 497.178 304.386 497.178C302.538 497.178 301.35 498.168 301.35 500.522V506H299.062ZM311.332 506.352C308.142 506.352 306.03 504.328 306.03 500.632C306.03 497.31 308.23 494.978 311.244 494.978C314.456 494.978 316.282 497.222 316.282 500.676V501.16H308.34C308.384 503.228 309.616 504.57 311.354 504.57C312.586 504.57 313.664 503.976 313.884 502.612H316.194C315.974 504.636 314.302 506.352 311.332 506.352ZM308.362 499.532H313.884C313.862 497.86 312.872 496.716 311.222 496.716C309.616 496.716 308.516 497.926 308.362 499.532ZM318.656 506V495.33H320.944V495.924C320.944 496.21 320.922 496.474 320.9 496.804C321.472 495.814 322.616 494.978 324.178 494.978C326.598 494.978 328.028 496.584 328.028 499.268V506H325.74V499.576C325.74 497.794 325.036 496.782 323.562 496.782C321.978 496.782 320.944 498.08 320.944 499.664V506H318.656ZM330.704 506V503.074H333.63V506H330.704ZM31.848 535V519.6H42.21V521.646H34.29V526.046H41.858V528.136H34.29V532.932H42.496V535H31.848ZM44.9882 535V524.33H47.2762V524.924C47.2762 525.21 47.2542 525.474 47.2322 525.804C47.8042 524.814 48.9482 523.978 50.5102 523.978C52.9302 523.978 54.3602 525.584 54.3602 528.268V535H52.0722V528.576C52.0722 526.794 51.3682 525.782 49.8942 525.782C48.3102 525.782 47.2762 527.08 47.2762 528.664V535H44.9882ZM61.3949 535.176C59.4589 535.176 58.1389 534.23 58.1389 531.854V526.178H55.9169V524.33H58.1389V520.634H60.4269V524.33H62.8469V526.178H60.4269V531.546C60.4269 532.734 60.9549 533.262 61.9889 533.262C62.2529 533.262 62.5169 533.24 62.8029 533.196V535.022C62.4729 535.11 61.9449 535.176 61.3949 535.176ZM68.9727 535.352C66.0247 535.352 64.2647 533.79 64.1547 531.392H66.4427C66.5087 532.756 67.3887 533.614 68.9507 533.614C70.2927 533.614 71.1727 532.998 71.1727 532.052C71.1727 531.282 70.5787 530.842 69.3687 530.6L67.9167 530.314C65.8047 529.918 64.5287 528.884 64.5287 527.168C64.5287 525.342 66.2667 523.978 68.7967 523.978C71.5027 523.978 73.1747 525.342 73.2847 527.542H70.9967C70.8867 526.376 70.0507 525.716 68.7307 525.716C67.5867 525.716 66.7947 526.222 66.7947 527.058C66.7947 527.806 67.3227 528.18 68.5987 528.422L70.0727 528.708C72.0747 529.104 73.4167 530.05 73.4167 531.876C73.4167 533.856 71.7227 535.352 68.9727 535.352ZM80.5048 535.352C77.3588 535.352 75.1588 533.306 75.1588 529.654C75.1588 526.178 77.5348 523.978 80.6148 523.978C83.4308 523.978 85.2128 525.672 85.4548 528.136H83.1228C82.9908 526.838 82.1328 525.782 80.5928 525.782C78.7888 525.782 77.4908 527.322 77.4908 529.654C77.4908 531.986 78.7228 533.57 80.5708 533.57C82.1768 533.57 83.0788 532.558 83.2548 531.172H85.5428C85.2568 533.68 83.5408 535.352 80.5048 535.352ZM87.7421 535V519.6H90.0301V524.836C90.0301 525.144 90.0301 525.452 89.9861 525.804C90.5801 524.77 91.7021 523.978 93.2641 523.978C95.6841 523.978 97.1141 525.584 97.1141 528.268V535H94.8261V528.576C94.8261 526.794 94.1001 525.782 92.6261 525.782C91.0641 525.782 90.0301 527.08 90.0301 528.664V535H87.7421ZM104.652 535.352C101.462 535.352 99.3502 533.328 99.3502 529.632C99.3502 526.31 101.55 523.978 104.564 523.978C107.776 523.978 109.602 526.222 109.602 529.676V530.16H101.66C101.704 532.228 102.936 533.57 104.674 533.57C105.906 533.57 106.984 532.976 107.204 531.612H109.514C109.294 533.636 107.622 535.352 104.652 535.352ZM101.682 528.532H107.204C107.182 526.86 106.192 525.716 104.542 525.716C102.936 525.716 101.836 526.926 101.682 528.532ZM111.976 535V524.33H114.264V535H111.976ZM111.888 522.504V519.974H114.374V522.504H111.888ZM121.53 535.352C118.714 535.352 116.624 533.372 116.624 529.676C116.624 526.156 118.802 523.978 121.574 523.978C123.29 523.978 124.39 524.88 124.94 525.804C124.896 525.474 124.896 525.166 124.896 524.858V519.6H127.184V535H124.896V534.472C124.896 534.12 124.896 533.834 124.94 533.526C124.434 534.406 123.312 535.352 121.53 535.352ZM118.978 529.676C118.978 532.03 120.232 533.57 122.014 533.57C123.752 533.57 125.028 532.008 125.028 529.654C125.028 527.3 123.774 525.782 122.014 525.782C120.254 525.782 118.978 527.366 118.978 529.676ZM133.892 535.352C131.582 535.352 130.064 533.878 130.064 531.106V524.33H132.352V530.71C132.352 532.47 133.034 533.548 134.552 533.548C136.092 533.548 137.06 532.382 137.06 530.446V524.33H139.348V535H137.082V534.45C137.082 534.142 137.104 533.812 137.148 533.526C136.62 534.604 135.498 535.352 133.892 535.352ZM142.334 535V524.33H144.622V524.924C144.622 525.21 144.6 525.474 144.578 525.804C145.15 524.814 146.294 523.978 147.856 523.978C150.276 523.978 151.706 525.584 151.706 528.268V535H149.418V528.576C149.418 526.794 148.714 525.782 147.24 525.782C145.656 525.782 144.622 527.08 144.622 528.664V535H142.334ZM159.222 539.884C156.23 539.884 154.426 538.256 154.426 535.88H156.714C156.736 537.222 157.682 538.102 159.266 538.102C160.96 538.102 162.148 537.156 162.148 535.22V533.988C162.148 533.636 162.17 533.306 162.192 532.976C161.598 533.988 160.41 534.736 158.782 534.736C155.922 534.736 153.964 532.712 153.964 529.368C153.964 526.068 156.186 523.978 158.76 523.978C160.586 523.978 161.598 524.814 162.192 525.804C162.17 525.496 162.148 525.188 162.148 524.858V524.33H164.436V534.56C164.436 538.146 162.5 539.884 159.222 539.884ZM156.318 529.368C156.318 531.502 157.55 532.932 159.31 532.932C161.048 532.932 162.302 531.48 162.302 529.368C162.302 527.278 161.048 525.782 159.31 525.782C157.55 525.782 156.318 527.256 156.318 529.368ZM171.6 535V533.02L177.21 526.838C177.474 526.552 177.672 526.332 177.892 526.134H171.842V524.33H180.334V526.332L174.768 532.47C174.548 532.734 174.306 532.976 174.064 533.196H180.532V535H171.6ZM186.464 535.352C184.154 535.352 182.636 533.878 182.636 531.106V524.33H184.924V530.71C184.924 532.47 185.606 533.548 187.124 533.548C188.664 533.548 189.632 532.382 189.632 530.446V524.33H191.92V535H189.654V534.45C189.654 534.142 189.676 533.812 189.72 533.526C189.192 534.604 188.07 535.352 186.464 535.352ZM200.178 535V519.6H202.62V532.932H210.496V535H200.178ZM216.823 535.352C213.677 535.352 211.477 533.152 211.477 529.676C211.477 526.266 213.699 523.978 216.823 523.978C219.969 523.978 222.191 526.266 222.191 529.676C222.191 533.152 219.969 535.352 216.823 535.352ZM213.809 529.676C213.809 532.052 214.975 533.57 216.823 533.57C218.671 533.57 219.859 532.052 219.859 529.676C219.859 527.256 218.649 525.782 216.823 525.782C215.019 525.782 213.809 527.256 213.809 529.676ZM226.559 535L223.193 524.33H225.591L227.725 531.898C227.813 532.228 227.901 532.58 227.967 532.932C228.055 532.558 228.143 532.206 228.231 531.898L230.277 524.33H233.247L235.359 531.898C235.447 532.206 235.535 532.536 235.601 532.91C235.689 532.536 235.755 532.206 235.865 531.876L237.977 524.33H240.221L236.921 535H234.171L232.015 527.322C231.949 527.036 231.861 526.684 231.773 526.266C231.707 526.684 231.619 527.014 231.509 527.322L229.375 535H226.559ZM241.695 530.468V528.29H247.393V530.468H241.695ZM252.275 535V521.646H247.039V519.6H259.931V521.646H254.717V535H252.275ZM263.787 535.352C260.597 535.352 258.485 533.328 258.485 529.632C258.485 526.31 260.685 523.978 263.699 523.978C266.911 523.978 268.737 526.222 268.737 529.676V530.16H260.795C260.839 532.228 262.071 533.57 263.809 533.57C265.041 533.57 266.119 532.976 266.339 531.612H268.649C268.429 533.636 266.757 535.352 263.787 535.352ZM260.817 528.532H266.339C266.317 526.86 265.327 525.716 263.677 525.716C262.071 525.716 260.971 526.926 260.817 528.532ZM275.819 535.352C272.673 535.352 270.473 533.306 270.473 529.654C270.473 526.178 272.849 523.978 275.929 523.978C278.745 523.978 280.527 525.672 280.769 528.136H278.437C278.305 526.838 277.447 525.782 275.907 525.782C274.103 525.782 272.805 527.322 272.805 529.654C272.805 531.986 274.037 533.57 275.885 533.57C277.491 533.57 278.393 532.558 278.569 531.172H280.857C280.571 533.68 278.855 535.352 275.819 535.352ZM283.057 535V519.6H285.345V524.836C285.345 525.144 285.345 525.452 285.301 525.804C285.895 524.77 287.017 523.978 288.579 523.978C290.999 523.978 292.429 525.584 292.429 528.268V535H290.141V528.576C290.141 526.794 289.415 525.782 287.941 525.782C286.379 525.782 285.345 527.08 285.345 528.664V535H283.057ZM304.931 535.352C301.785 535.352 299.585 533.152 299.585 529.676C299.585 526.266 301.807 523.978 304.931 523.978C308.077 523.978 310.299 526.266 310.299 529.676C310.299 533.152 308.077 535.352 304.931 535.352ZM301.917 529.676C301.917 532.052 303.083 533.57 304.931 533.57C306.779 533.57 307.967 532.052 307.967 529.676C307.967 527.256 306.757 525.782 304.931 525.782C303.127 525.782 301.917 527.256 301.917 529.676ZM316.93 535.352C314.114 535.352 312.024 533.372 312.024 529.676C312.024 526.156 314.202 523.978 316.974 523.978C318.69 523.978 319.79 524.88 320.34 525.804C320.296 525.474 320.296 525.166 320.296 524.858V519.6H322.584V535H320.296V534.472C320.296 534.12 320.296 533.834 320.34 533.526C319.834 534.406 318.712 535.352 316.93 535.352ZM314.378 529.676C314.378 532.03 315.632 533.57 317.414 533.57C319.152 533.57 320.428 532.008 320.428 529.654C320.428 527.3 319.174 525.782 317.414 525.782C315.654 525.782 314.378 527.366 314.378 529.676ZM330.238 535.352C327.048 535.352 324.936 533.328 324.936 529.632C324.936 526.31 327.136 523.978 330.15 523.978C333.362 523.978 335.188 526.222 335.188 529.676V530.16H327.246C327.29 532.228 328.522 533.57 330.26 533.57C331.492 533.57 332.57 532.976 332.79 531.612H335.1C334.88 533.636 333.208 535.352 330.238 535.352ZM327.268 528.532H332.79C332.768 526.86 331.778 525.716 330.128 525.716C328.522 525.716 327.422 526.926 327.268 528.532ZM337.562 535V524.33H339.85V524.968C339.85 525.386 339.85 525.782 339.806 526.178C340.356 524.968 341.434 523.978 343.04 523.978C343.216 523.978 343.392 523.978 343.568 524.022V526.244C343.414 526.222 343.194 526.178 342.886 526.178C341.038 526.178 339.85 527.168 339.85 529.522V535H337.562ZM37.216 564.352C33.278 564.352 30.858 562.218 30.704 558.874H33.234C33.366 561.052 35.06 562.306 37.304 562.306C39.416 562.306 40.802 561.426 40.802 559.842C40.802 558.522 39.768 557.884 38.008 557.51L35.544 556.982C33.168 556.476 31.254 555.09 31.254 552.692C31.254 550.074 33.696 548.226 37.062 548.226C40.67 548.226 42.848 550.162 43.024 553.088H40.494C40.406 551.46 39.174 550.272 36.974 550.272C35.126 550.272 33.74 551.13 33.74 552.472C33.74 553.726 34.708 554.342 36.38 554.694L39.042 555.266C41.462 555.772 43.31 557.114 43.31 559.578C43.31 562.284 41.088 564.352 37.216 564.352ZM45.7187 564V553.33H48.0067V553.99C48.0067 554.254 48.0067 554.54 47.9627 554.804C48.5567 553.814 49.5907 552.978 51.0647 552.978C52.4287 552.978 53.5727 553.836 54.0787 555.024C54.7387 553.88 55.9927 552.978 57.5327 552.978C59.6887 552.978 61.2507 554.496 61.2507 557.268V564H58.9627V557.642C58.9627 555.86 58.3467 554.782 56.9607 554.782C55.5307 554.782 54.6287 556.058 54.6287 557.708V564H52.3407V557.686C52.3407 555.882 51.7467 554.782 50.3607 554.782C48.9527 554.782 48.0067 556.036 48.0067 557.752V564H45.7187ZM67.2108 564.352C65.2748 564.352 63.5368 563.12 63.5368 561.074C63.5368 558.83 65.2968 557.928 67.3868 557.642L69.3008 557.356C70.1368 557.246 70.4228 556.938 70.4228 556.344C70.4228 555.398 69.6748 554.716 68.4868 554.716C67.0348 554.716 66.2208 555.508 66.1548 556.718H63.8228C63.9328 554.628 65.6048 552.978 68.3328 552.978C71.2808 552.978 72.6888 554.628 72.6888 557.356V564H70.5548V563.516C70.5548 563.186 70.5768 562.878 70.5988 562.548C70.0488 563.626 68.9268 564.352 67.2108 564.352ZM65.8908 561.008C65.8908 562.042 66.7048 562.636 67.7168 562.636C69.2788 562.636 70.4668 561.536 70.4668 559.908V558.544C70.2908 558.764 69.8948 558.896 69.2568 559.006L68.0468 559.248C66.7928 559.49 65.8908 559.974 65.8908 561.008ZM75.539 564V553.33H77.827V553.968C77.827 554.386 77.827 554.782 77.783 555.178C78.333 553.968 79.411 552.978 81.017 552.978C81.193 552.978 81.369 552.978 81.545 553.022V555.244C81.391 555.222 81.171 555.178 80.863 555.178C79.015 555.178 77.827 556.168 77.827 558.522V564H75.539ZM87.8206 564.176C85.8846 564.176 84.5646 563.23 84.5646 560.854V555.178H82.3426V553.33H84.5646V549.634H86.8526V553.33H89.2726V555.178H86.8526V560.546C86.8526 561.734 87.3806 562.262 88.4146 562.262C88.6786 562.262 88.9426 562.24 89.2286 562.196V564.022C88.8986 564.11 88.3706 564.176 87.8206 564.176ZM96.6664 564V548.6H102.914C105.84 548.6 107.996 549.744 107.996 552.472C107.996 554.276 106.698 555.42 105.202 555.86C107.138 556.344 108.414 557.642 108.414 559.622C108.414 562.966 105.532 564 102.474 564H96.6664ZM99.0864 561.932H102.694C104.894 561.932 105.906 561.074 105.906 559.446C105.906 557.884 105.026 556.982 102.65 556.982H99.0864V561.932ZM99.0864 554.936H102.606C104.52 554.936 105.488 554.122 105.488 552.736C105.488 551.482 104.674 550.646 102.672 550.646H99.0864V554.936ZM114.599 564.352C112.289 564.352 110.771 562.878 110.771 560.106V553.33H113.059V559.71C113.059 561.47 113.741 562.548 115.259 562.548C116.799 562.548 117.767 561.382 117.767 559.446V553.33H120.055V564H117.789V563.45C117.789 563.142 117.811 562.812 117.855 562.526C117.327 563.604 116.205 564.352 114.599 564.352ZM123.041 564V553.33H125.329V564H123.041ZM122.953 551.504V548.974H125.439V551.504H122.953ZM128.326 564V548.6H130.614V564H128.326ZM137.879 564.352C135.063 564.352 132.973 562.372 132.973 558.676C132.973 555.156 135.151 552.978 137.923 552.978C139.639 552.978 140.739 553.88 141.289 554.804C141.245 554.474 141.245 554.166 141.245 553.858V548.6H143.533V564H141.245V563.472C141.245 563.12 141.245 562.834 141.289 562.526C140.783 563.406 139.661 564.352 137.879 564.352ZM135.327 558.676C135.327 561.03 136.581 562.57 138.363 562.57C140.101 562.57 141.377 561.008 141.377 558.654C141.377 556.3 140.123 554.782 138.363 554.782C136.603 554.782 135.327 556.366 135.327 558.676ZM146.523 564V553.33H148.811V564H146.523ZM146.435 551.504V548.974H148.921V551.504H146.435ZM151.809 564V553.33H154.097V553.924C154.097 554.21 154.075 554.474 154.053 554.804C154.625 553.814 155.769 552.978 157.331 552.978C159.751 552.978 161.181 554.584 161.181 557.268V564H158.893V557.576C158.893 555.794 158.189 554.782 156.715 554.782C155.131 554.782 154.097 556.08 154.097 557.664V564H151.809ZM168.697 568.884C165.705 568.884 163.901 567.256 163.901 564.88H166.189C166.211 566.222 167.157 567.102 168.741 567.102C170.435 567.102 171.623 566.156 171.623 564.22V562.988C171.623 562.636 171.645 562.306 171.667 561.976C171.073 562.988 169.885 563.736 168.257 563.736C165.397 563.736 163.439 561.712 163.439 558.368C163.439 555.068 165.661 552.978 168.235 552.978C170.061 552.978 171.073 553.814 171.667 554.804C171.645 554.496 171.623 554.188 171.623 553.858V553.33H173.911V563.56C173.911 567.146 171.975 568.884 168.697 568.884ZM165.793 558.368C165.793 560.502 167.025 561.932 168.785 561.932C170.523 561.932 171.777 560.48 171.777 558.368C171.777 556.278 170.523 554.782 168.785 554.782C167.025 554.782 165.793 556.256 165.793 558.368ZM179.682 564L185.93 548.6H188.79L195.06 564H192.332L190.682 559.6H183.95L182.278 564H179.682ZM184.72 557.554H189.912L187.844 552.076C187.646 551.548 187.492 551.108 187.316 550.602C187.162 551.108 186.964 551.57 186.788 552.076L184.72 557.554ZM200.235 564.352C197.925 564.352 196.407 562.878 196.407 560.106V553.33H198.695V559.71C198.695 561.47 199.377 562.548 200.895 562.548C202.435 562.548 203.403 561.382 203.403 559.446V553.33H205.691V564H203.425V563.45C203.425 563.142 203.447 562.812 203.491 562.526C202.963 563.604 201.841 564.352 200.235 564.352ZM212.682 564.352C209.734 564.352 207.974 562.79 207.864 560.392H210.152C210.218 561.756 211.098 562.614 212.66 562.614C214.002 562.614 214.882 561.998 214.882 561.052C214.882 560.282 214.288 559.842 213.078 559.6L211.626 559.314C209.514 558.918 208.238 557.884 208.238 556.168C208.238 554.342 209.976 552.978 212.506 552.978C215.212 552.978 216.884 554.342 216.994 556.542H214.706C214.596 555.376 213.76 554.716 212.44 554.716C211.296 554.716 210.504 555.222 210.504 556.058C210.504 556.806 211.032 557.18 212.308 557.422L213.782 557.708C215.784 558.104 217.126 559.05 217.126 560.876C217.126 562.856 215.432 564.352 212.682 564.352ZM223.51 564.352C220.562 564.352 218.802 562.79 218.692 560.392H220.98C221.046 561.756 221.926 562.614 223.488 562.614C224.83 562.614 225.71 561.998 225.71 561.052C225.71 560.282 225.116 559.842 223.906 559.6L222.454 559.314C220.342 558.918 219.066 557.884 219.066 556.168C219.066 554.342 220.804 552.978 223.334 552.978C226.04 552.978 227.712 554.342 227.822 556.542H225.534C225.424 555.376 224.588 554.716 223.268 554.716C222.124 554.716 221.332 555.222 221.332 556.058C221.332 556.806 221.86 557.18 223.136 557.422L224.61 557.708C226.612 558.104 227.954 559.05 227.954 560.876C227.954 562.856 226.26 564.352 223.51 564.352ZM234.43 564.176C232.494 564.176 231.174 563.23 231.174 560.854V555.178H228.952V553.33H231.174V549.634H233.462V553.33H235.882V555.178H233.462V560.546C233.462 561.734 233.99 562.262 235.024 562.262C235.288 562.262 235.552 562.24 235.838 562.196V564.022C235.508 564.11 234.98 564.176 234.43 564.176ZM241.084 564.352C239.148 564.352 237.41 563.12 237.41 561.074C237.41 558.83 239.17 557.928 241.26 557.642L243.174 557.356C244.01 557.246 244.296 556.938 244.296 556.344C244.296 555.398 243.548 554.716 242.36 554.716C240.908 554.716 240.094 555.508 240.028 556.718H237.696C237.806 554.628 239.478 552.978 242.206 552.978C245.154 552.978 246.562 554.628 246.562 557.356V564H244.428V563.516C244.428 563.186 244.45 562.878 244.472 562.548C243.922 563.626 242.8 564.352 241.084 564.352ZM239.764 561.008C239.764 562.042 240.578 562.636 241.59 562.636C243.152 562.636 244.34 561.536 244.34 559.908V558.544C244.164 558.764 243.768 558.896 243.13 559.006L241.92 559.248C240.666 559.49 239.764 559.974 239.764 561.008ZM253.573 564.176C251.637 564.176 250.317 563.23 250.317 560.854V555.178H248.095V553.33H250.317V549.634H252.605V553.33H255.025V555.178H252.605V560.546C252.605 561.734 253.133 562.262 254.167 562.262C254.431 562.262 254.695 562.24 254.981 562.196V564.022C254.651 564.11 254.123 564.176 253.573 564.176ZM261.414 564.176C259.478 564.176 258.158 563.23 258.158 560.854V555.178H255.936V553.33H258.158V549.634H260.446V553.33H262.866V555.178H260.446V560.546C260.446 561.734 260.974 562.262 262.008 562.262C262.272 562.262 262.536 562.24 262.822 562.196V564.022C262.492 564.11 261.964 564.176 261.414 564.176ZM268.706 564.352C266.396 564.352 264.878 562.878 264.878 560.106V553.33H267.166V559.71C267.166 561.47 267.848 562.548 269.366 562.548C270.906 562.548 271.874 561.382 271.874 559.446V553.33H274.162V564H271.896V563.45C271.896 563.142 271.918 562.812 271.962 562.526C271.434 563.604 270.312 564.352 268.706 564.352ZM277.148 564V553.33H279.436V553.924C279.436 554.21 279.414 554.474 279.392 554.804C279.964 553.814 281.108 552.978 282.67 552.978C285.09 552.978 286.52 554.584 286.52 557.268V564H284.232V557.576C284.232 555.794 283.528 554.782 282.054 554.782C280.47 554.782 279.436 556.08 279.436 557.664V564H277.148ZM294.036 568.884C291.044 568.884 289.24 567.256 289.24 564.88H291.528C291.55 566.222 292.496 567.102 294.08 567.102C295.774 567.102 296.962 566.156 296.962 564.22V562.988C296.962 562.636 296.984 562.306 297.006 561.976C296.412 562.988 295.224 563.736 293.596 563.736C290.736 563.736 288.778 561.712 288.778 558.368C288.778 555.068 291 552.978 293.574 552.978C295.4 552.978 296.412 553.814 297.006 554.804C296.984 554.496 296.962 554.188 296.962 553.858V553.33H299.25V563.56C299.25 567.146 297.314 568.884 294.036 568.884ZM291.132 558.368C291.132 560.502 292.364 561.932 294.124 561.932C295.862 561.932 297.116 560.48 297.116 558.368C297.116 556.278 295.862 554.782 294.124 554.782C292.364 554.782 291.132 556.256 291.132 558.368ZM302.044 564V561.074H304.97V564H302.044Z" fill="white"/>
<rect x="15.5" y="45.5" width="389" height="391" rx="8.5" stroke="white"/>
<path d="M259.888 367.569V378.015L139.814 308.71V298.265L259.888 367.569Z" stroke="white" stroke-linecap="round" stroke-linejoin="round"/>
<path d="M380.383 297.995V308.441L259.888 378.015V367.569L371.335 303.226L380.383 297.995Z" stroke="white" stroke-linecap="round" stroke-linejoin="round"/>
<path d="M261.947 230.112L380.079 298.247L259.941 367.602L259.888 367.572L139.799 298.239L151.947 290.612" stroke="white" stroke-linecap="round" stroke-linejoin="round"/>
<path d="M213.854 225.254L213.84 225.268V225.254H213.854Z" fill="#B2BDFF"/>
<path d="M147.077 175.347L125.947 137.112" stroke="#24B54A" stroke-linecap="round" stroke-linejoin="round" stroke-dasharray="2 2"/>
<path d="M143.447 239.612L78.4473 239.612" stroke="#24B54A" stroke-linecap="round" stroke-linejoin="round" stroke-dasharray="2 2"/>
<path d="M57.6062 221.435C57.7798 221.649 58.0946 221.683 58.3094 221.509L61.8094 218.681C62.0241 218.507 62.0576 218.192 61.884 217.978C61.7104 217.763 61.3956 217.729 61.1808 217.903L58.0697 220.417L55.5556 217.306C55.382 217.091 55.0672 217.058 54.8524 217.231C54.6376 217.405 54.6042 217.72 54.7778 217.935L57.6062 221.435ZM102.097 133.553C102.105 133.277 101.889 133.046 101.613 133.037L97.1148 132.897C96.8388 132.888 96.6081 133.105 96.5994 133.381C96.5908 133.657 96.8075 133.887 97.0835 133.896L101.082 134.021L100.956 138.019C100.948 138.295 101.165 138.526 101.441 138.535C101.717 138.543 101.947 138.327 101.956 138.051L102.097 133.553ZM58.6011 220.182C58.6322 219.907 58.4349 219.66 58.1605 219.629C57.8861 219.598 57.6385 219.795 57.6074 220.069L58.6011 220.182ZM57.8472 218.079C57.8122 218.353 58.0059 218.603 58.2798 218.638C58.5538 218.673 58.8042 218.479 58.8391 218.206L57.8472 218.079ZM59.1055 216.231C59.1443 215.957 58.9542 215.704 58.6808 215.665C58.4074 215.627 58.1543 215.817 58.1154 216.09L59.1055 216.231ZM58.4116 214.107C58.3689 214.38 58.5554 214.636 58.8282 214.678C59.1011 214.721 59.3569 214.535 59.3996 214.262L58.4116 214.107ZM59.7218 212.296C59.7684 212.024 59.5856 211.766 59.3134 211.719C59.0412 211.673 58.7828 211.855 58.7362 212.128L59.7218 212.296ZM59.0889 210.153C59.0384 210.424 59.2176 210.685 59.4891 210.736C59.7605 210.786 60.0216 210.607 60.072 210.336L59.0889 210.153ZM60.4499 208.381C60.5042 208.111 60.3288 207.847 60.0581 207.793C59.7873 207.738 59.5238 207.914 59.4694 208.185L60.4499 208.381ZM59.8785 206.22C59.8202 206.49 59.9919 206.756 60.2618 206.814C60.5317 206.872 60.7978 206.701 60.856 206.431L59.8785 206.22ZM61.2897 204.487C61.3517 204.218 61.1839 203.95 60.9148 203.888C60.6457 203.826 60.3773 203.993 60.3152 204.263L61.2897 204.487ZM60.7798 202.312C60.7139 202.58 60.8779 202.851 61.1461 202.917C61.4142 202.983 61.685 202.819 61.7509 202.551L60.7798 202.312ZM62.2402 200.619C62.3099 200.352 62.1498 200.079 61.8826 200.009C61.6155 199.94 61.3423 200.1 61.2726 200.367L62.2402 200.619ZM61.7928 198.43C61.7193 198.696 61.8754 198.972 62.1416 199.045C62.4078 199.119 62.6831 198.963 62.7567 198.697L61.7928 198.43ZM63.3008 196.781C63.3781 196.516 63.2259 196.238 62.9608 196.161C62.6957 196.083 62.4181 196.236 62.3408 196.501L63.3008 196.781ZM62.9164 194.579C62.8353 194.843 62.9835 195.123 63.2475 195.204C63.5114 195.285 63.7912 195.137 63.8723 194.873L62.9164 194.579ZM64.4707 192.974C64.5556 192.711 64.4114 192.43 64.1487 192.345C63.8859 192.26 63.6041 192.404 63.5192 192.667L64.4707 192.974ZM64.1496 190.762C64.061 191.024 64.2011 191.307 64.4626 191.396C64.7242 191.485 65.008 191.345 65.0967 191.083L64.1496 190.762ZM65.7495 189.202C65.8418 188.941 65.7058 188.656 65.4455 188.563C65.1853 188.471 64.8995 188.607 64.8071 188.867L65.7495 189.202ZM65.4913 186.982C65.3952 187.241 65.5272 187.529 65.7861 187.625C66.0449 187.721 66.3327 187.589 66.4288 187.33L65.4913 186.982ZM67.1354 185.468C67.2351 185.21 67.1073 184.921 66.8498 184.821C66.5923 184.721 66.3027 184.849 66.2029 185.106L67.1354 185.468ZM66.941 183.241C66.8375 183.498 66.9612 183.789 67.2173 183.892C67.4733 183.996 67.7647 183.872 67.8682 183.616L66.941 183.241ZM68.6273 181.775C68.7344 181.521 68.6149 181.228 68.3603 181.121C68.1058 181.013 67.8126 181.133 67.7055 181.388L68.6273 181.775ZM68.4968 179.544C68.3861 179.797 68.5014 180.092 68.7544 180.202C69.0074 180.313 69.3022 180.198 69.4129 179.945L68.4968 179.544ZM70.2243 178.127C70.3386 177.875 70.2275 177.579 69.9762 177.464C69.7248 177.35 69.4284 177.461 69.314 177.713L70.2243 178.127ZM70.1574 175.893C70.0395 176.142 70.1464 176.44 70.3961 176.558C70.6458 176.676 70.9438 176.569 71.0617 176.32L70.1574 175.893ZM71.9249 174.525C72.0463 174.277 71.9437 173.977 71.6957 173.856C71.4477 173.734 71.1482 173.837 71.0268 174.085L71.9249 174.525ZM71.9216 172.29C71.7966 172.536 71.8949 172.837 72.1412 172.962C72.3874 173.087 72.6883 172.989 72.8133 172.743L71.9216 172.29ZM73.7273 170.973C73.8557 170.729 73.7617 170.426 73.5173 170.298C73.2728 170.17 72.9705 170.264 72.8421 170.508L73.7273 170.973ZM73.7878 168.739C73.6559 168.982 73.7456 169.285 73.9882 169.417C74.2308 169.549 74.5344 169.459 74.6663 169.217L73.7878 168.739ZM75.63 167.475C75.7654 167.234 75.68 166.929 75.4393 166.794C75.1986 166.658 74.8938 166.744 74.7584 166.984L75.63 167.475ZM75.7542 165.243C75.6154 165.482 75.6965 165.788 75.9352 165.926C76.1739 166.065 76.48 165.984 76.6187 165.745L75.7542 165.243ZM77.6318 164.031C77.774 163.794 77.6973 163.487 77.4605 163.345C77.2238 163.203 76.9166 163.279 76.7745 163.516L77.6318 164.031ZM77.819 161.804C77.6735 162.039 77.7458 162.347 77.9805 162.493C78.2152 162.638 78.5234 162.566 78.6689 162.331L77.819 161.804ZM79.7305 160.646C79.8793 160.413 79.8114 160.104 79.5788 159.955C79.3461 159.806 79.0369 159.874 78.8881 160.107L79.7305 160.646ZM79.981 158.425C79.8289 158.656 79.8924 158.966 80.1229 159.118C80.3533 159.27 80.6635 159.206 80.8156 158.976L79.981 158.425ZM81.9242 157.322C82.0796 157.093 82.0205 156.782 81.7922 156.627C81.5639 156.472 81.2529 156.531 81.0975 156.759L81.9242 157.322ZM82.2377 155.109C82.0792 155.335 82.1339 155.647 82.36 155.805C82.586 155.964 82.8978 155.909 83.0564 155.683L82.2377 155.109ZM84.2115 154.061C84.3733 153.837 84.323 153.524 84.0992 153.363C83.8754 153.201 83.5628 153.251 83.4011 153.475L84.2115 154.061ZM84.5875 151.858C84.4225 152.079 84.4684 152.393 84.6899 152.558C84.9114 152.722 85.2246 152.677 85.3895 152.455L84.5875 151.858ZM86.5903 150.866C86.7583 150.647 86.7169 150.333 86.4977 150.165C86.2786 149.997 85.9647 150.038 85.7967 150.258L86.5903 150.866ZM87.0283 148.675C86.8572 148.891 86.8942 149.206 87.1109 149.377C87.3277 149.548 87.6421 149.511 87.8132 149.294L87.0283 148.675ZM89.0583 147.74C89.2325 147.526 89.2 147.211 88.9857 147.037C88.7714 146.862 88.4565 146.895 88.2823 147.109L89.0583 147.74ZM89.5583 145.562C89.3811 145.774 89.4092 146.089 89.621 146.266C89.8328 146.443 90.1481 146.415 90.3253 146.203L89.5583 145.562ZM91.6138 144.685C91.794 144.476 91.7704 144.16 91.5611 143.98C91.3518 143.8 91.0361 143.823 90.8559 144.033L91.6138 144.685ZM92.1752 142.522C91.9921 142.728 92.0112 143.044 92.2179 143.228C92.4247 143.411 92.7407 143.392 92.9237 143.185L92.1752 142.522ZM94.2547 141.703C94.4407 141.499 94.426 141.183 94.2219 140.997C94.0178 140.811 93.7016 140.826 93.5156 141.03L94.2547 141.703ZM94.8769 139.557C94.688 139.758 94.6982 140.075 94.8997 140.264C95.1012 140.452 95.4176 140.442 95.6064 140.241L94.8769 139.557ZM96.9787 138.797C97.1704 138.599 97.1647 138.282 96.9659 138.09C96.7671 137.899 96.4506 137.905 96.2589 138.103L96.9787 138.797ZM97.6613 136.669C97.4668 136.865 97.4681 137.182 97.6641 137.377C97.8602 137.571 98.1768 137.57 98.3712 137.374L97.6613 136.669ZM99.7837 135.97C99.981 135.776 99.9842 135.46 99.7909 135.263C99.5976 135.065 99.281 135.062 99.0838 135.256L99.7837 135.97ZM100.526 133.862C100.326 134.052 100.319 134.369 100.509 134.569C100.7 134.769 101.016 134.776 101.216 134.586L100.526 133.862ZM58.4923 221.173C58.5274 220.842 58.5637 220.512 58.6011 220.182L57.6074 220.069C57.5698 220.402 57.5333 220.734 57.4979 221.068L58.4923 221.173ZM58.8391 218.206C58.9234 217.546 59.0121 216.888 59.1055 216.231L58.1154 216.09C58.0214 216.752 57.932 217.415 57.8472 218.079L58.8391 218.206ZM59.3996 214.262C59.5025 213.605 59.6099 212.95 59.7218 212.296L58.7362 212.128C58.6234 212.786 58.5152 213.446 58.4116 214.107L59.3996 214.262ZM60.072 210.336C60.1935 209.683 60.3194 209.031 60.4499 208.381L59.4694 208.185C59.3381 208.839 59.2112 209.495 59.0889 210.153L60.072 210.336ZM60.856 206.431C60.9961 205.781 61.1406 205.133 61.2897 204.487L60.3152 204.263C60.1651 204.913 60.0195 205.566 59.8785 206.22L60.856 206.431ZM61.7509 202.551C61.9096 201.905 62.0727 201.261 62.2402 200.619L61.2726 200.367C61.1039 201.013 60.9396 201.662 60.7798 202.312L61.7509 202.551ZM62.7567 198.697C62.9336 198.056 63.115 197.418 63.3008 196.781L62.3408 196.501C62.1537 197.142 61.971 197.785 61.7928 198.43L62.7567 198.697ZM63.8723 194.873C64.0674 194.238 64.2669 193.605 64.4707 192.974L63.5192 192.667C63.3139 193.302 63.1129 193.94 62.9164 194.579L63.8723 194.873ZM65.0967 191.083C65.3099 190.454 65.5275 189.827 65.7495 189.202L64.8071 188.867C64.5836 189.497 64.3644 190.128 64.1496 190.762L65.0967 191.083ZM66.4288 187.33C66.66 186.707 66.8956 186.086 67.1354 185.468L66.2029 185.106C65.9614 185.73 65.7242 186.355 65.4913 186.982L66.4288 187.33ZM67.8682 183.616C68.117 183 68.37 182.387 68.6273 181.775L67.7055 181.388C67.4464 182.003 67.1916 182.621 66.941 183.241L67.8682 183.616ZM69.4129 179.945C69.6792 179.337 69.9497 178.73 70.2243 178.127L69.314 177.713C69.0374 178.321 68.765 178.931 68.4968 179.544L69.4129 179.945ZM71.0617 176.32C71.3453 175.719 71.633 175.121 71.9249 174.525L71.0268 174.085C70.7329 174.685 70.443 175.288 70.1574 175.893L71.0617 176.32ZM72.8133 172.743C73.1139 172.151 73.4186 171.561 73.7273 170.973L72.8421 170.508C72.5311 171.1 72.2243 171.694 71.9216 172.29L72.8133 172.743ZM74.6663 169.217C74.9835 168.634 75.3048 168.053 75.63 167.475L74.7584 166.984C74.4309 167.567 74.1073 168.152 73.7878 168.739L74.6663 169.217ZM76.6187 165.745C76.9525 165.171 77.2902 164.6 77.6318 164.031L76.7745 163.516C76.4304 164.089 76.0903 164.665 75.7542 165.243L76.6187 165.745ZM78.6689 162.331C79.0189 161.767 79.3728 161.205 79.7305 160.646L78.8881 160.107C78.5279 160.67 78.1715 161.236 77.819 161.804L78.6689 162.331ZM80.8156 158.976C81.1813 158.422 81.5509 157.87 81.9242 157.322L81.0975 156.759C80.7215 157.312 80.3493 157.867 79.981 158.425L80.8156 158.976ZM83.0564 155.683C83.4377 155.139 83.8228 154.599 84.2115 154.061L83.4011 153.475C83.0095 154.017 82.6218 154.561 82.2377 155.109L83.0564 155.683ZM85.3895 152.455C85.7861 151.922 86.1863 151.393 86.5903 150.866L85.7967 150.258C85.3899 150.788 84.9868 151.321 84.5875 151.858L85.3895 152.455ZM87.8132 149.294C88.2246 148.773 88.6397 148.255 89.0583 147.74L88.2823 147.109C87.8607 147.628 87.4427 148.15 87.0283 148.675L87.8132 149.294ZM90.3253 146.203C90.7513 145.694 91.1808 145.188 91.6138 144.685L90.8559 144.033C90.4198 144.539 89.9873 145.049 89.5583 145.562L90.3253 146.203ZM92.9237 143.185C93.3639 142.688 93.8076 142.194 94.2547 141.703L93.5156 141.03C93.0653 141.524 92.6185 142.021 92.1752 142.522L92.9237 143.185ZM95.6064 140.241C96.0605 139.756 96.5179 139.275 96.9787 138.797L96.2589 138.103C95.7948 138.585 95.3341 139.069 94.8769 139.557L95.6064 140.241ZM98.3712 137.374C98.8388 136.902 99.3096 136.434 99.7837 135.97L99.0838 135.256C98.6063 135.723 98.1321 136.195 97.6613 136.669L98.3712 137.374ZM101.216 134.586C101.456 134.357 101.697 134.129 101.939 133.902L101.255 133.173C101.011 133.402 100.768 133.631 100.526 133.862L101.216 134.586Z" fill="#24B54A"/>
<path d="M129.462 120.627C129.462 114.352 124.374 109.265 118.099 109.265C111.824 109.265 106.736 114.352 106.736 120.627C106.736 126.903 111.824 131.99 118.099 131.99C124.374 131.99 129.462 126.903 129.462 120.627Z" stroke="#24B54A" stroke-linecap="round" stroke-linejoin="round"/>
<path d="M118.118 109.264V104" stroke="#24B54A" stroke-linecap="round" stroke-linejoin="round"/>
<path d="M118.118 137.25V131.985" stroke="#24B54A" stroke-linecap="round" stroke-linejoin="round"/>
<path d="M134.746 120.349H129.478" stroke="#24B54A" stroke-linecap="round" stroke-linejoin="round"/>
<path d="M106.756 120.349H101.397" stroke="#24B54A" stroke-linecap="round" stroke-linejoin="round"/>
<path d="M110.265 112.405L106.203 108.34" stroke="#24B54A" stroke-linecap="round" stroke-linejoin="round"/>
<path d="M129.94 132.08L126.34 128.477" stroke="#24B54A" stroke-linecap="round" stroke-linejoin="round"/>
<path d="M109.991 128.57L106.203 132.354" stroke="#24B54A" stroke-linecap="round" stroke-linejoin="round"/>
<path d="M129.939 108.618L126.062 112.496" stroke="#24B54A" stroke-linecap="round" stroke-linejoin="round"/>
<path d="M68.0651 240.356C68.0651 234.08 62.9779 228.993 56.7025 228.993C50.4271 228.993 45.3398 234.08 45.3398 240.356C45.3398 246.631 50.4271 251.718 56.7025 251.718C62.9779 251.718 68.0651 246.631 68.0651 240.356Z" stroke="#24B54A" stroke-linecap="round" stroke-linejoin="round"/>
<path d="M56.7168 228.993V223.729" stroke="#24B54A" stroke-linecap="round" stroke-linejoin="round"/>
<path d="M56.7168 256.978V251.714" stroke="#24B54A" stroke-linecap="round" stroke-linejoin="round"/>
<path d="M73.3443 240.077H68.0801" stroke="#24B54A" stroke-linecap="round" stroke-linejoin="round"/>
<path d="M45.3582 240.077H40" stroke="#24B54A" stroke-linecap="round" stroke-linejoin="round"/>
<path d="M48.8674 232.13L44.8018 228.068" stroke="#24B54A" stroke-linecap="round" stroke-linejoin="round"/>
<path d="M68.5419 251.805L64.9385 248.205" stroke="#24B54A" stroke-linecap="round" stroke-linejoin="round"/>
<path d="M48.5893 248.295L44.8018 252.082" stroke="#24B54A" stroke-linecap="round" stroke-linejoin="round"/>
<path d="M68.5416 228.347L64.6602 232.224" stroke="#24B54A" stroke-linecap="round" stroke-linejoin="round"/>
<path d="M261.951 184.41V311.034L218.086 336.359L217.943 336.276V209.822L261.951 184.41Z" stroke="white" stroke-linecap="round" stroke-linejoin="round"/>
<path d="M261.952 184.41L217.944 209.822L152.146 171.834L196.154 146.426L261.952 184.41Z" stroke="white" stroke-linecap="round" stroke-linejoin="round"/>
<path d="M217.944 209.822V336.277L152.293 298.375H152.289L152.146 298.288V247.814L152.293 247.728V184.41L152.146 184.324V171.834L196.154 197.242L217.944 209.822Z" stroke="white" stroke-linecap="round" stroke-linejoin="round"/>
<path d="M217.944 209.822V336.277L152.293 298.375H152.289L152.146 298.288V171.834L217.944 209.822Z" stroke="white" stroke-miterlimit="10"/>
<path d="M180.797 175.471L182.833 176.639L185.08 177.939L187.572 179.386L189.822 180.682L192.16 182.028L194.606 183.44" stroke="white" stroke-width="0.5" stroke-miterlimit="10"/>
<path d="M179.312 177.372L181.353 178.541L183.6 179.848L186.091 181.287L188.338 182.584L190.668 183.929L193.121 185.342" stroke="white" stroke-width="0.5" stroke-miterlimit="10"/>
<path d="M177.772 179.353L179.802 180.521L182.048 181.821L184.551 183.257L186.798 184.553L189.128 185.909L191.57 187.322" stroke="white" stroke-width="0.5" stroke-miterlimit="10"/>
<path d="M190.04 189.28L187.583 187.867L185.257 186.522L183.01 185.225L180.519 183.79L178.272 182.49L176.231 181.31L177.772 179.352L179.313 177.372L180.797 175.471L182.36 173.479L184.389 174.659L186.636 175.956L189.127 177.395L191.385 178.691L193.715 180.036L196.157 181.449L194.606 183.441L193.121 185.342L191.57 187.322L190.04 189.28Z" stroke="white" stroke-width="0.5" stroke-miterlimit="10"/>
<path d="M184.389 174.659L182.833 176.639L181.353 178.541L179.801 180.521L178.271 182.49" stroke="white" stroke-width="0.5" stroke-miterlimit="10"/>
<path d="M186.636 175.956L185.08 177.94L183.6 179.849L182.048 181.821L180.519 183.79" stroke="white" stroke-width="0.5" stroke-miterlimit="10"/>
<path d="M189.127 177.395L187.571 179.386L186.091 181.287L184.55 183.256L183.01 185.225" stroke="white" stroke-width="0.5" stroke-miterlimit="10"/>
<path d="M191.385 178.691L189.822 180.683L188.338 182.584L186.797 184.553L185.257 186.522" stroke="white" stroke-width="0.5" stroke-miterlimit="10"/>
<path d="M193.715 180.036L192.16 182.028L190.668 183.929L189.127 185.909L187.583 187.867" stroke="white" stroke-width="0.5" stroke-miterlimit="10"/>
<path d="M194.64 183.396V186.465" stroke="white" stroke-width="0.5" stroke-miterlimit="10"/>
<path d="M195.15 182.745V186.476" stroke="white" stroke-width="0.5" stroke-miterlimit="10"/>
<path d="M194.478 186.559V186.72C194.478 186.754 194.534 186.788 194.639 186.814C194.707 186.826 194.789 186.837 194.883 186.837C194.989 186.837 195.079 186.826 195.15 186.803C195.244 186.792 195.289 186.758 195.289 186.72V186.559C195.289 186.525 195.244 186.491 195.15 186.476C195.079 186.454 194.989 186.442 194.883 186.442C194.789 186.442 194.711 186.454 194.639 186.465C194.534 186.487 194.478 186.521 194.478 186.559Z" stroke="white" stroke-width="0.5" stroke-miterlimit="10"/>
<path d="M163.971 165.811L166.007 166.979L168.254 168.275L170.745 169.726L172.992 171.022L175.333 172.367L177.779 173.78" stroke="white" stroke-width="0.5" stroke-miterlimit="10"/>
<path d="M162.486 167.708L164.527 168.88L166.774 170.188L169.265 171.623L171.512 172.923L173.841 174.265L176.295 175.681" stroke="white" stroke-width="0.5" stroke-miterlimit="10"/>
<path d="M160.946 169.692L162.972 170.861L165.222 172.157L167.725 173.596L169.972 174.893L172.298 176.249L174.744 177.662" stroke="white" stroke-width="0.5" stroke-miterlimit="10"/>
<path d="M173.214 179.619L170.757 178.207L168.431 176.861L166.18 175.565L163.693 174.126L161.442 172.83L159.405 171.65L160.946 169.692L162.486 167.708L163.971 165.811L165.534 163.815L167.559 164.999L169.81 166.295L172.297 167.731L174.559 169.031L176.885 170.372L179.331 171.789L177.779 173.78L176.295 175.682L174.743 177.662L173.214 179.619Z" stroke="white" stroke-width="0.5" stroke-miterlimit="10"/>
<path d="M167.559 164.999L166.007 166.979L164.526 168.881L162.971 170.861L161.441 172.83" stroke="white" stroke-width="0.5" stroke-miterlimit="10"/>
<path d="M169.81 166.295L168.254 168.275L166.774 170.188L165.222 172.157L163.692 174.126" stroke="white" stroke-width="0.5" stroke-miterlimit="10"/>
<path d="M172.297 167.73L170.745 169.726L169.265 171.623L167.724 173.596L166.18 175.565" stroke="white" stroke-width="0.5" stroke-miterlimit="10"/>
<path d="M174.559 169.031L172.992 171.023L171.512 172.924L169.971 174.893L168.431 176.862" stroke="white" stroke-width="0.5" stroke-miterlimit="10"/>
<path d="M176.885 170.372L175.333 172.367L173.842 174.265L172.297 176.249L170.757 178.206" stroke="white" stroke-width="0.5" stroke-miterlimit="10"/>
<path d="M177.813 173.735V176.805" stroke="white" stroke-width="0.5" stroke-miterlimit="10"/>
<path d="M178.324 173.085V176.816" stroke="white" stroke-width="0.5" stroke-miterlimit="10"/>
<path d="M177.651 176.895V177.056C177.651 177.09 177.708 177.124 177.813 177.15C177.881 177.162 177.963 177.173 178.057 177.173C178.162 177.173 178.253 177.162 178.324 177.139C178.418 177.128 178.463 177.094 178.463 177.056V176.895C178.463 176.861 178.418 176.827 178.324 176.812C178.253 176.79 178.162 176.778 178.057 176.778C177.963 176.778 177.884 176.79 177.813 176.801C177.708 176.823 177.651 176.857 177.651 176.895Z" stroke="white" stroke-width="0.5" stroke-miterlimit="10"/>
<path d="M220.187 183.012L222.223 184.184L224.474 185.48L226.965 186.931L229.212 188.227L231.553 189.572L233.995 190.985" stroke="white" stroke-width="0.5" stroke-miterlimit="10"/>
<path d="M218.702 184.913L220.742 186.082L222.989 187.393L225.481 188.828L227.728 190.128L230.057 191.47L232.511 192.883" stroke="white" stroke-width="0.5" stroke-miterlimit="10"/>
<path d="M217.162 186.894L219.191 188.066L221.438 189.362L223.941 190.798L226.188 192.098L228.517 193.45L230.96 194.867" stroke="white" stroke-width="0.5" stroke-miterlimit="10"/>
<path d="M229.43 196.824L226.976 195.412L224.647 194.067L222.4 192.77L219.908 191.331L217.661 190.035L215.621 188.851L217.162 186.893L218.702 184.913L220.186 183.012L221.75 181.021L223.779 182.204L226.026 183.5L228.517 184.936L230.775 186.236L233.105 187.577L235.547 188.99L233.995 190.985L232.511 192.883L230.959 194.867L229.43 196.824Z" stroke="white" stroke-width="0.5" stroke-miterlimit="10"/>
<path d="M223.778 182.204L222.223 184.184L220.742 186.082L219.19 188.066L217.661 190.035" stroke="white" stroke-width="0.5" stroke-miterlimit="10"/>
<path d="M226.025 183.5L224.474 185.48L222.989 187.393L221.438 189.362L219.908 191.331" stroke="white" stroke-width="0.5" stroke-miterlimit="10"/>
<path d="M228.517 184.936L226.965 186.931L225.481 188.828L223.94 190.797L222.399 192.77" stroke="white" stroke-width="0.5" stroke-miterlimit="10"/>
<path d="M230.775 186.236L229.212 188.228L227.728 190.129L226.187 192.098L224.646 194.067" stroke="white" stroke-width="0.5" stroke-miterlimit="10"/>
<path d="M233.105 187.577L231.553 189.572L230.058 191.47L228.517 193.45L226.977 195.412" stroke="white" stroke-width="0.5" stroke-miterlimit="10"/>
<path d="M234.029 190.937V194.006" stroke="white" stroke-width="0.5" stroke-miterlimit="10"/>
<path d="M234.54 190.29V194.021" stroke="white" stroke-width="0.5" stroke-miterlimit="10"/>
<path d="M233.867 194.1V194.261C233.867 194.295 233.924 194.329 234.029 194.355C234.096 194.367 234.179 194.378 234.273 194.378C234.378 194.378 234.468 194.367 234.54 194.344C234.634 194.333 234.679 194.299 234.679 194.261V194.1C234.679 194.066 234.634 194.032 234.54 194.017C234.468 193.995 234.378 193.983 234.273 193.983C234.179 193.983 234.1 193.995 234.029 194.006C233.924 194.028 233.867 194.062 233.867 194.1Z" stroke="white" stroke-width="0.5" stroke-miterlimit="10"/>
<path d="M217.714 180.626V184.357Z" fill="white"/>
<path d="M217.714 180.626V184.357" stroke="white" stroke-width="0.5" stroke-miterlimit="10"/>
<path d="M203.36 173.352L205.397 174.52L207.644 175.82L210.135 177.267L212.386 178.567L214.723 179.908L217.169 181.321" stroke="white" stroke-width="0.5" stroke-miterlimit="10"/>
<path d="M201.876 175.253L203.916 176.422L206.163 177.733L208.654 179.168L210.901 180.465L213.231 181.81L215.685 183.223" stroke="white" stroke-width="0.5" stroke-miterlimit="10"/>
<path d="M200.336 177.233L202.361 178.402L204.612 179.702L207.114 181.137L209.361 182.434L211.691 183.79L214.133 185.203" stroke="white" stroke-width="0.5" stroke-miterlimit="10"/>
<path d="M212.604 187.161L210.146 185.748L207.82 184.406L205.573 183.106L203.082 181.671L200.831 180.375L198.795 179.191L200.336 177.233L201.876 175.253L203.36 173.352L204.923 171.36L206.949 172.54L209.199 173.84L211.691 175.276L213.949 176.572L216.279 177.917L218.721 179.33L217.169 181.321L215.685 183.223L214.133 185.203L212.604 187.161Z" stroke="white" stroke-width="0.5" stroke-miterlimit="10"/>
<path d="M206.948 172.54L205.396 174.52L203.916 176.422L202.36 178.402L200.831 180.374" stroke="white" stroke-width="0.5" stroke-miterlimit="10"/>
<path d="M209.199 173.84L207.644 175.82L206.163 177.733L204.611 179.702L203.082 181.67" stroke="white" stroke-width="0.5" stroke-miterlimit="10"/>
<path d="M211.69 175.275L210.135 177.267L208.654 179.168L207.114 181.137L205.573 183.106" stroke="white" stroke-width="0.5" stroke-miterlimit="10"/>
<path d="M213.949 176.572L212.386 178.567L210.901 180.465L209.361 182.434L207.82 184.407" stroke="white" stroke-width="0.5" stroke-miterlimit="10"/>
<path d="M216.279 177.917L214.723 179.908L213.231 181.81L211.691 183.79L210.146 185.748" stroke="white" stroke-width="0.5" stroke-miterlimit="10"/>
<path d="M217.203 181.276V184.346" stroke="white" stroke-width="0.5" stroke-miterlimit="10"/>
<path d="M217.041 184.44V184.601C217.041 184.635 217.097 184.669 217.203 184.695C217.27 184.707 217.353 184.718 217.447 184.718C217.552 184.718 217.642 184.707 217.714 184.684C217.808 184.673 217.853 184.639 217.853 184.601V184.44C217.853 184.406 217.808 184.372 217.714 184.357C217.642 184.335 217.552 184.323 217.447 184.323C217.353 184.323 217.274 184.335 217.203 184.346C217.097 184.368 217.041 184.402 217.041 184.44Z" stroke="white" stroke-width="0.5" stroke-miterlimit="10"/>
<path d="M374.822 311.653H374.818" stroke="white" stroke-miterlimit="10"/>
<path d="M355.242 306.044L267.031 280.782" stroke="white" stroke-miterlimit="10" stroke-dasharray="2 2"/>
<path d="M225.826 338.869L276.657 353.426" stroke="white" stroke-miterlimit="10" stroke-dasharray="2 2"/>
<path d="M193.467 288.774V303.575L188.624 300.779V285.979L193.467 288.774Z" stroke="white" stroke-width="0.5" stroke-miterlimit="10"/>
<path d="M164.418 198.245V213.046L159.574 210.25V195.449L164.418 198.245Z" stroke="white" stroke-width="0.5" stroke-miterlimit="10"/>
<path d="M164.418 222.838V237.631L159.574 234.835V220.042L164.418 222.838Z" stroke="white" stroke-width="0.5" stroke-miterlimit="10"/>
<path d="M164.418 247.419V262.216L159.574 259.42V244.623L164.418 247.419Z" stroke="white" stroke-width="0.5" stroke-miterlimit="10"/>
<path d="M164.418 272.005V286.802L159.574 284.006V269.209L164.418 272.005Z" stroke="white" stroke-width="0.5" stroke-miterlimit="10"/>
<path d="M174.101 203.836V218.636L169.258 215.841V201.04L174.101 203.836Z" stroke="white" stroke-width="0.5" stroke-miterlimit="10"/>
<path d="M174.101 228.428V243.222L169.258 240.426V225.633L174.101 228.428Z" stroke="white" stroke-width="0.5" stroke-miterlimit="10"/>
<path d="M174.101 253.01V267.807L169.258 265.012V250.215L174.101 253.01Z" stroke="white" stroke-width="0.5" stroke-miterlimit="10"/>
<path d="M183.784 209.427V224.228L178.94 221.433V206.632L183.784 209.427Z" stroke="white" stroke-width="0.5" stroke-miterlimit="10"/>
<path d="M193.468 215.018V229.819L188.628 227.023V212.223L193.468 215.018Z" stroke="white" stroke-width="0.5" stroke-miterlimit="10"/>
<path d="M193.468 239.611V254.404L188.628 251.609V236.815L193.468 239.611Z" stroke="white" stroke-width="0.5" stroke-miterlimit="10"/>
<path d="M183.784 234.02V248.813L178.94 246.018V231.225L183.784 234.02Z" stroke="white" stroke-width="0.5" stroke-miterlimit="10"/>
<path d="M193.468 264.192V278.989L188.628 276.193V261.396L193.468 264.192Z" stroke="white" stroke-width="0.5" stroke-miterlimit="10"/>
<path d="M183.784 258.601V273.398L178.94 270.603V255.806L183.784 258.601Z" stroke="white" stroke-width="0.5" stroke-miterlimit="10"/>
<path d="M174.101 277.595V292.392L169.258 289.597V274.8L174.101 277.595Z" stroke="white" stroke-width="0.5" stroke-miterlimit="10"/>
<path d="M183.784 283.186V297.983L178.94 295.188V280.391L183.784 283.186Z" stroke="white" stroke-width="0.5" stroke-miterlimit="10"/>
<path d="M203.15 220.606V235.407L198.311 232.611V217.811L203.15 220.606Z" stroke="white" stroke-width="0.5" stroke-miterlimit="10"/>
<path d="M212.833 226.201V240.998L207.993 238.202V223.401L212.833 226.201Z" stroke="white" stroke-width="0.5" stroke-miterlimit="10"/>
<path d="M212.833 250.79V265.583L207.993 262.787V247.994L212.833 250.79Z" stroke="white" stroke-width="0.5" stroke-miterlimit="10"/>
<path d="M203.15 245.199V259.992L198.311 257.197V242.403L203.15 245.199Z" stroke="white" stroke-width="0.5" stroke-miterlimit="10"/>
<path d="M212.833 275.371V290.168L207.993 287.372V272.575L212.833 275.371Z" stroke="white" stroke-width="0.5" stroke-miterlimit="10"/>
<path d="M203.15 269.78V284.577L198.311 281.781V266.984L203.15 269.78Z" stroke="white" stroke-width="0.5" stroke-miterlimit="10"/>
<path d="M203.15 294.365V309.166L198.311 306.37V291.569L203.15 294.365Z" stroke="white" stroke-width="0.5" stroke-miterlimit="10"/>
<path d="M212.833 299.957V314.614L207.993 311.962V297.161L212.833 299.957Z" stroke="white" stroke-width="0.5" stroke-miterlimit="10"/>
<path d="M152.999 201.95L155.25 203.246L157.576 204.591L160.033 206.004L161.562 204.046L163.114 202.066L164.598 200.165L166.15 198.173L163.704 196.761L161.378 195.415L159.116 194.119L152.999 201.95Z" stroke="white" stroke-width="0.5" stroke-miterlimit="10"/>
<path d="M161.378 195.415L159.812 197.407L158.331 199.308L156.791 201.277L155.25 203.246" stroke="white" stroke-width="0.5" stroke-miterlimit="10"/>
<path d="M163.704 196.761L162.152 198.752L160.66 200.653L159.116 202.634L157.575 204.591" stroke="white" stroke-width="0.5" stroke-miterlimit="10"/>
<path d="M164.441 197.418L162.889 199.413L161.394 201.311L159.853 203.295L158.312 205.252" stroke="white" stroke-width="0.5" stroke-miterlimit="10"/>
<path d="M165.316 197.719L163.764 199.714L162.269 201.612L160.728 203.592L159.188 205.553" stroke="white" stroke-width="0.5" stroke-miterlimit="10"/>
<path d="M163.005 196.167L161.454 198.162L159.958 200.06L158.418 202.044L156.877 204.001" stroke="white" stroke-width="0.5" stroke-miterlimit="10"/>
<path d="M162.1 195.96L160.548 197.951L159.053 199.853L157.512 201.833L155.972 203.791" stroke="white" stroke-width="0.5" stroke-miterlimit="10"/>
<path d="M160.514 195.036L158.962 197.031L157.467 198.929L155.926 200.913L154.386 202.87" stroke="white" stroke-width="0.5" stroke-miterlimit="10"/>
<path d="M159.815 194.544L158.263 196.535L156.768 198.437L155.227 200.417L153.687 202.375" stroke="white" stroke-width="0.5" stroke-miterlimit="10"/>
<path d="M165.144 199.47V202.69V203.062V203.201" stroke="white" stroke-width="0.5" stroke-miterlimit="10"/>
<path d="M163.234 231.702L165.481 233.002L167.811 234.343L170.265 235.76L171.794 233.802L173.346 231.818L174.83 229.921L176.382 227.925L173.939 226.513L171.61 225.171L169.352 223.871L163.234 231.702Z" stroke="white" stroke-width="0.5" stroke-miterlimit="10"/>
<path d="M171.61 225.171L170.047 227.162L168.563 229.06L167.022 231.033L165.481 233.001" stroke="white" stroke-width="0.5" stroke-miterlimit="10"/>
<path d="M173.94 226.513L172.388 228.504L170.893 230.405L169.352 232.386L167.812 234.343" stroke="white" stroke-width="0.5" stroke-miterlimit="10"/>
<path d="M174.676 227.174L173.121 229.165L171.629 231.067L170.088 233.047L168.544 235.004" stroke="white" stroke-width="0.5" stroke-miterlimit="10"/>
<path d="M175.547 227.475L173.996 229.466L172.5 231.367L170.96 233.348L169.419 235.305" stroke="white" stroke-width="0.5" stroke-miterlimit="10"/>
<path d="M173.237 225.923L171.685 227.914L170.19 229.816L168.649 231.796L167.108 233.753" stroke="white" stroke-width="0.5" stroke-miterlimit="10"/>
<path d="M172.332 225.712L170.78 227.707L169.288 229.605L167.744 231.589L166.203 233.546" stroke="white" stroke-width="0.5" stroke-miterlimit="10"/>
<path d="M170.746 224.792L169.194 226.783L167.698 228.685L166.158 230.665L164.617 232.623" stroke="white" stroke-width="0.5" stroke-miterlimit="10"/>
<path d="M170.046 224.299L168.495 226.29L166.999 228.192L165.459 230.172L163.918 232.129" stroke="white" stroke-width="0.5" stroke-miterlimit="10"/>
<path d="M175.375 229.226V232.446V232.814V232.953" stroke="white" stroke-width="0.5" stroke-miterlimit="10"/>
<path d="M173.237 237.646L175.484 238.946L177.814 240.288L180.271 241.7L181.801 239.743L183.352 237.763L184.837 235.861L186.389 233.87L183.942 232.457L181.613 231.112L179.354 229.815L173.237 237.646Z" stroke="white" stroke-width="0.5" stroke-miterlimit="10"/>
<path d="M181.612 231.111L180.049 233.107L178.565 235.004L177.024 236.973L175.483 238.946" stroke="white" stroke-width="0.5" stroke-miterlimit="10"/>
<path d="M183.942 232.457L182.39 234.448L180.895 236.35L179.354 238.33L177.813 240.288" stroke="white" stroke-width="0.5" stroke-miterlimit="10"/>
<path d="M184.678 233.118L183.126 235.11L181.631 237.011L180.09 238.991L178.55 240.949" stroke="white" stroke-width="0.5" stroke-miterlimit="10"/>
<path d="M185.55 233.419L183.998 235.41L182.503 237.312L180.962 239.292L179.422 241.25" stroke="white" stroke-width="0.5" stroke-miterlimit="10"/>
<path d="M183.243 231.867L181.687 233.859L180.195 235.76L178.655 237.74L177.11 239.698" stroke="white" stroke-width="0.5" stroke-miterlimit="10"/>
<path d="M182.337 231.656L180.786 233.648L179.29 235.549L177.75 237.529L176.209 239.487" stroke="white" stroke-width="0.5" stroke-miterlimit="10"/>
<path d="M180.752 230.736L179.196 232.728L177.704 234.629L176.164 236.609L174.623 238.567" stroke="white" stroke-width="0.5" stroke-miterlimit="10"/>
<path d="M180.049 230.24L178.498 232.235L177.002 234.133L175.461 236.117L173.921 238.075" stroke="white" stroke-width="0.5" stroke-miterlimit="10"/>
<path d="M185.377 235.166V238.39V238.758V238.897" stroke="white" stroke-width="0.5" stroke-miterlimit="10"/>
<path d="M163.234 280.53L165.481 281.826L167.811 283.171L170.265 284.584L171.794 282.626L173.346 280.642L174.83 278.745L176.382 276.75L173.939 275.337L171.61 273.995L169.352 272.695L163.234 280.53Z" stroke="white" stroke-width="0.5" stroke-miterlimit="10"/>
<path d="M171.61 273.996L170.047 275.988L168.563 277.889L167.022 279.858L165.481 281.827" stroke="white" stroke-width="0.5" stroke-miterlimit="10"/>
<path d="M173.94 275.337L172.388 277.332L170.893 279.23L169.352 281.214L167.812 283.171" stroke="white" stroke-width="0.5" stroke-miterlimit="10"/>
<path d="M174.676 275.998L173.121 277.99L171.629 279.891L170.088 281.871L168.544 283.829" stroke="white" stroke-width="0.5" stroke-miterlimit="10"/>
<path d="M175.547 276.299L173.996 278.29L172.5 280.192L170.96 282.172L169.419 284.129" stroke="white" stroke-width="0.5" stroke-miterlimit="10"/>
<path d="M173.237 274.747L171.685 276.739L170.19 278.64L168.649 280.62L167.108 282.578" stroke="white" stroke-width="0.5" stroke-miterlimit="10"/>
<path d="M172.332 274.537L170.78 276.532L169.288 278.43L167.744 280.414L166.203 282.371" stroke="white" stroke-width="0.5" stroke-miterlimit="10"/>
<path d="M170.746 273.616L169.194 275.611L167.698 277.509L166.158 279.489L164.617 281.451" stroke="white" stroke-width="0.5" stroke-miterlimit="10"/>
<path d="M170.046 273.124L168.495 275.115L166.999 277.017L165.459 278.997L163.918 280.955" stroke="white" stroke-width="0.5" stroke-miterlimit="10"/>
<path d="M175.375 278.05V281.27V281.642V281.781" stroke="white" stroke-width="0.5" stroke-miterlimit="10"/>
<path d="M173.237 286.47L175.484 287.77L177.814 289.112L180.271 290.525L181.801 288.567L183.352 286.587L184.837 284.689L186.389 282.694L183.942 281.281L181.613 279.936L179.354 278.64L173.237 286.47Z" stroke="white" stroke-width="0.5" stroke-miterlimit="10"/>
<path d="M181.612 279.937L180.049 281.932L178.565 283.829L177.024 285.802L175.483 287.771" stroke="white" stroke-width="0.5" stroke-miterlimit="10"/>
<path d="M183.942 281.281L182.39 283.273L180.895 285.174L179.354 287.154L177.813 289.112" stroke="white" stroke-width="0.5" stroke-miterlimit="10"/>
<path d="M184.678 281.943L183.126 283.935L181.631 285.836L180.09 287.816L178.55 289.774" stroke="white" stroke-width="0.5" stroke-miterlimit="10"/>
<path d="M185.55 282.243L183.998 284.235L182.503 286.136L180.962 288.116L179.422 290.074" stroke="white" stroke-width="0.5" stroke-miterlimit="10"/>
<path d="M183.243 280.691L181.687 282.683L180.195 284.584L178.655 286.564L177.11 288.522" stroke="white" stroke-width="0.5" stroke-miterlimit="10"/>
<path d="M182.337 280.481L180.786 282.473L179.29 284.374L177.75 286.354L176.209 288.312" stroke="white" stroke-width="0.5" stroke-miterlimit="10"/>
<path d="M180.752 279.561L179.196 281.552L177.704 283.453L176.164 285.433L174.623 287.391" stroke="white" stroke-width="0.5" stroke-miterlimit="10"/>
<path d="M180.049 279.064L178.498 281.06L177.002 282.957L175.461 284.941L173.921 286.899" stroke="white" stroke-width="0.5" stroke-miterlimit="10"/>
<path d="M185.377 283.994V287.214V287.583V287.722" stroke="white" stroke-width="0.5" stroke-miterlimit="10"/>
<path d="M168.183 205.253V198.955L175.374 203.246V209.822" stroke="white" stroke-width="0.5" stroke-miterlimit="10"/>
<path d="M158.398 224.108V217.811L165.594 222.105V228.681" stroke="white" stroke-width="0.5" stroke-miterlimit="10"/>
<path d="M158.398 273.263V266.966L165.594 271.261V277.836" stroke="white" stroke-width="0.5" stroke-miterlimit="10"/>
<path d="M178.017 210.888V204.591L185.212 208.882V215.461" stroke="white" stroke-width="0.5" stroke-miterlimit="10"/>
<path d="M187.451 216.289V209.991L194.643 214.286V220.862" stroke="white" stroke-width="0.5" stroke-miterlimit="10"/>
<path d="M197.386 222.037V215.739L204.581 220.03V226.61" stroke="white" stroke-width="0.5" stroke-miterlimit="10"/>
<path d="M207.047 227.47V221.173L214.242 225.468V232.043" stroke="white" stroke-width="0.5" stroke-miterlimit="10"/>
<path d="M187.451 240.881V234.587L194.643 238.878V245.454" stroke="white" stroke-width="0.5" stroke-miterlimit="10"/>
<path d="M187.451 265.477V259.18L194.643 263.471V270.05" stroke="white" stroke-width="0.5" stroke-miterlimit="10"/>
<path d="M168.183 254.28V247.982L175.374 252.277V258.853" stroke="white" stroke-width="0.5" stroke-miterlimit="10"/>
<path d="M187.451 290.063V283.766L194.643 288.06V294.636" stroke="white" stroke-width="0.5" stroke-miterlimit="10"/>
<path d="M207.047 252.067V245.77L214.242 250.061V256.636" stroke="white" stroke-width="0.5" stroke-miterlimit="10"/>
<path d="M207.047 276.863V270.565L214.242 274.856V281.432" stroke="white" stroke-width="0.5" stroke-miterlimit="10"/>
<path d="M207.047 301.659V295.361L214.242 299.652V306.228" stroke="white" stroke-width="0.5" stroke-miterlimit="10"/>
<path d="M191.735 248.091L193.982 249.388L196.312 250.733L198.766 252.146L200.295 250.188L201.847 248.208L203.331 246.306L204.883 244.315L202.44 242.898L200.111 241.557L197.853 240.257L191.735 248.091Z" stroke="white" stroke-width="0.5" stroke-miterlimit="10"/>
<path d="M200.11 241.558L198.547 243.549L197.063 245.45L195.522 247.419L193.981 249.388" stroke="white" stroke-width="0.5" stroke-miterlimit="10"/>
<path d="M202.44 242.898L200.888 244.894L199.393 246.791L197.852 248.775L196.312 250.733" stroke="white" stroke-width="0.5" stroke-miterlimit="10"/>
<path d="M203.176 243.561L201.621 245.556L200.129 247.453L198.588 249.433L197.044 251.391" stroke="white" stroke-width="0.5" stroke-miterlimit="10"/>
<path d="M204.048 243.86L202.497 245.852L201.001 247.753L199.46 249.733L197.92 251.691" stroke="white" stroke-width="0.5" stroke-miterlimit="10"/>
<path d="M201.738 242.309L200.186 244.304L198.691 246.201L197.15 248.182L195.609 250.143" stroke="white" stroke-width="0.5" stroke-miterlimit="10"/>
<path d="M200.832 242.103L199.28 244.094L197.788 245.995L196.244 247.975L194.703 249.933" stroke="white" stroke-width="0.5" stroke-miterlimit="10"/>
<path d="M199.247 241.178L197.695 243.173L196.199 245.07L194.659 247.054L193.118 249.012" stroke="white" stroke-width="0.5" stroke-miterlimit="10"/>
<path d="M198.547 240.686L196.996 242.677L195.5 244.578L193.96 246.558L192.419 248.516" stroke="white" stroke-width="0.5" stroke-miterlimit="10"/>
<path d="M203.875 245.611V248.831V249.203V249.343" stroke="white" stroke-width="0.5" stroke-miterlimit="10"/>
<path d="M172.846 261.881L175.096 263.178L177.422 264.523L179.88 265.936L181.409 263.978L182.961 261.998L184.445 260.096L185.997 258.105L183.551 256.688L181.225 255.347L178.963 254.047L172.846 261.881Z" stroke="white" stroke-width="0.5" stroke-miterlimit="10"/>
<path d="M181.225 255.348L179.658 257.339L178.178 259.24L176.637 261.209L175.097 263.178" stroke="white" stroke-width="0.5" stroke-miterlimit="10"/>
<path d="M183.551 256.688L181.999 258.684L180.508 260.581L178.963 262.565L177.423 264.523" stroke="white" stroke-width="0.5" stroke-miterlimit="10"/>
<path d="M184.288 257.351L182.736 259.342L181.24 261.243L179.7 263.224L178.159 265.181" stroke="white" stroke-width="0.5" stroke-miterlimit="10"/>
<path d="M185.163 257.65L183.611 259.642L182.115 261.543L180.575 263.523L179.034 265.481" stroke="white" stroke-width="0.5" stroke-miterlimit="10"/>
<path d="M182.852 256.099L181.3 258.09L179.805 259.991L178.264 261.972L176.724 263.929" stroke="white" stroke-width="0.5" stroke-miterlimit="10"/>
<path d="M181.947 255.893L180.395 257.884L178.899 259.785L177.359 261.766L175.818 263.723" stroke="white" stroke-width="0.5" stroke-miterlimit="10"/>
<path d="M180.361 254.968L178.809 256.963L177.314 258.861L175.773 260.844L174.232 262.802" stroke="white" stroke-width="0.5" stroke-miterlimit="10"/>
<path d="M179.662 254.476L178.11 256.467L176.614 258.368L175.074 260.349L173.533 262.306" stroke="white" stroke-width="0.5" stroke-miterlimit="10"/>
<path d="M184.99 259.401V262.622V262.994V263.133" stroke="white" stroke-width="0.5" stroke-miterlimit="10"/>
<path d="M192.1 273.015L194.347 274.311L196.676 275.657L199.13 277.069L200.659 275.112L202.215 273.132L203.695 271.23L205.247 269.239L202.805 267.822L200.475 266.481L198.217 265.181L192.1 273.015Z" stroke="white" stroke-width="0.5" stroke-miterlimit="10"/>
<path d="M200.475 266.48L198.912 268.472L197.428 270.373L195.887 272.342L194.347 274.311" stroke="white" stroke-width="0.5" stroke-miterlimit="10"/>
<path d="M202.804 267.822L201.252 269.817L199.757 271.715L198.216 273.699L196.676 275.657" stroke="white" stroke-width="0.5" stroke-miterlimit="10"/>
<path d="M203.541 268.483L201.985 270.479L200.493 272.376L198.953 274.356L197.412 276.318" stroke="white" stroke-width="0.5" stroke-miterlimit="10"/>
<path d="M204.413 268.784L202.861 270.776L201.365 272.677L199.825 274.657L198.284 276.615" stroke="white" stroke-width="0.5" stroke-miterlimit="10"/>
<path d="M202.102 267.232L200.55 269.228L199.055 271.125L197.514 273.105L195.974 275.067" stroke="white" stroke-width="0.5" stroke-miterlimit="10"/>
<path d="M201.2 267.025L199.644 269.017L198.152 270.918L196.612 272.898L195.067 274.856" stroke="white" stroke-width="0.5" stroke-miterlimit="10"/>
<path d="M199.611 266.102L198.059 268.097L196.564 269.994L195.023 271.978L193.482 273.936" stroke="white" stroke-width="0.5" stroke-miterlimit="10"/>
<path d="M198.912 265.609L197.36 267.601L195.864 269.502L194.324 271.482L192.783 273.44" stroke="white" stroke-width="0.5" stroke-miterlimit="10"/>
<path d="M204.24 270.535V273.755V274.127V274.266" stroke="white" stroke-width="0.5" stroke-miterlimit="10"/>
<path d="M192.1 297.604L194.347 298.904L196.676 300.246L199.13 301.662L200.659 299.701L202.215 297.721L203.695 295.823L205.247 293.828L202.805 292.415L200.475 291.07L198.217 289.773L192.1 297.604Z" stroke="white" stroke-width="0.5" stroke-miterlimit="10"/>
<path d="M200.475 291.069L198.912 293.065L197.428 294.962L195.887 296.935L194.347 298.904" stroke="white" stroke-width="0.5" stroke-miterlimit="10"/>
<path d="M202.804 292.415L201.252 294.407L199.757 296.308L198.216 298.288L196.676 300.246" stroke="white" stroke-width="0.5" stroke-miterlimit="10"/>
<path d="M203.541 293.076L201.985 295.068L200.493 296.969L198.953 298.949L197.412 300.907" stroke="white" stroke-width="0.5" stroke-miterlimit="10"/>
<path d="M204.413 293.377L202.861 295.368L201.365 297.27L199.825 299.25L198.284 301.208" stroke="white" stroke-width="0.5" stroke-miterlimit="10"/>
<path d="M202.102 291.825L200.55 293.817L199.055 295.718L197.514 297.698L195.974 299.656" stroke="white" stroke-width="0.5" stroke-miterlimit="10"/>
<path d="M201.2 291.614L199.644 293.609L198.152 295.507L196.612 297.487L195.067 299.449" stroke="white" stroke-width="0.5" stroke-miterlimit="10"/>
<path d="M199.611 290.694L198.059 292.686L196.564 294.587L195.023 296.567L193.482 298.525" stroke="white" stroke-width="0.5" stroke-miterlimit="10"/>
<path d="M198.912 290.198L197.36 292.193L195.864 294.091L194.324 296.075L192.783 298.033" stroke="white" stroke-width="0.5" stroke-miterlimit="10"/>
<path d="M204.24 295.128V298.348V298.716V298.855" stroke="white" stroke-width="0.5" stroke-miterlimit="10"/>
<path d="M153.367 250.7L155.614 251.996L157.94 253.341L160.397 254.754L161.927 252.796L163.479 250.816L164.963 248.915L166.515 246.923L164.072 245.507L161.743 244.165L159.484 242.865L153.367 250.7Z" stroke="white" stroke-width="0.5" stroke-miterlimit="10"/>
<path d="M161.743 244.165L160.18 246.157L158.695 248.058L157.155 250.027L155.614 251.996" stroke="white" stroke-width="0.5" stroke-miterlimit="10"/>
<path d="M164.073 245.507L162.517 247.502L161.025 249.4L159.485 251.384L157.94 253.341" stroke="white" stroke-width="0.5" stroke-miterlimit="10"/>
<path d="M164.805 246.168L163.253 248.159L161.758 250.061L160.217 252.041L158.677 253.999" stroke="white" stroke-width="0.5" stroke-miterlimit="10"/>
<path d="M165.68 246.469L164.128 248.46L162.633 250.362L161.092 252.342L159.552 254.299" stroke="white" stroke-width="0.5" stroke-miterlimit="10"/>
<path d="M163.37 244.917L161.818 246.908L160.322 248.81L158.782 250.79L157.241 252.748" stroke="white" stroke-width="0.5" stroke-miterlimit="10"/>
<path d="M162.464 244.706L160.913 246.701L159.417 248.599L157.877 250.583L156.336 252.54" stroke="white" stroke-width="0.5" stroke-miterlimit="10"/>
<path d="M160.878 243.785L159.327 245.78L157.831 247.678L156.291 249.662L154.75 251.62" stroke="white" stroke-width="0.5" stroke-miterlimit="10"/>
<path d="M160.179 243.293L158.627 245.284L157.132 247.186L155.591 249.166L154.051 251.124" stroke="white" stroke-width="0.5" stroke-miterlimit="10"/>
<path d="M165.508 248.22V251.44V251.812V251.951" stroke="white" stroke-width="0.5" stroke-miterlimit="10"/>
<path d="M252.029 184.725L248.609 188.704" stroke="white" stroke-linecap="round" stroke-linejoin="round"/>
<path d="M243.225 185.567L246.644 181.588" stroke="white" stroke-linecap="round" stroke-linejoin="round"/>
<path d="M256.101 184.349L252.028 184.725L246.644 181.588L250.717 181.212L256.101 184.349Z" stroke="white" stroke-linecap="round" stroke-linejoin="round"/>
<path d="M256.102 184.35L248.609 188.705L252.029 184.725L256.102 184.35Z" stroke="white" stroke-linecap="round" stroke-linejoin="round"/>
<path d="M237.87 182.452L241.289 178.473" stroke="white" stroke-linecap="round" stroke-linejoin="round"/>
<path d="M250.747 181.234L246.674 181.606L241.289 178.472L245.362 178.097L250.747 181.234Z" stroke="white" stroke-linecap="round" stroke-linejoin="round"/>
<path d="M232.489 179.318L235.909 175.339" stroke="white" stroke-linecap="round" stroke-linejoin="round"/>
<path d="M245.362 178.101L241.289 178.476L235.908 175.339L239.981 174.967L245.362 178.101Z" stroke="white" stroke-linecap="round" stroke-linejoin="round"/>
<path d="M227.108 176.188L230.524 172.209" stroke="white" stroke-linecap="round" stroke-linejoin="round"/>
<path d="M239.982 174.971L235.909 175.346L230.524 172.209L234.598 171.833L239.982 174.971Z" stroke="white" stroke-linecap="round" stroke-linejoin="round"/>
<path d="M221.747 173.058L225.163 169.075" stroke="white" stroke-linecap="round" stroke-linejoin="round"/>
<path d="M234.62 171.841L230.547 172.213L225.162 169.075L229.235 168.703L234.62 171.841Z" stroke="white" stroke-linecap="round" stroke-linejoin="round"/>
<path d="M216.362 169.924L219.782 165.945" stroke="white" stroke-linecap="round" stroke-linejoin="round"/>
<path d="M229.239 168.707L225.166 169.083L219.781 165.945L223.854 165.569L229.239 168.707Z" stroke="white" stroke-linecap="round" stroke-linejoin="round"/>
<path d="M210.955 166.76L214.374 162.781" stroke="white" stroke-linecap="round" stroke-linejoin="round"/>
<path d="M223.832 165.543L219.759 165.919L214.374 162.781L218.447 162.405L223.832 165.543Z" stroke="white" stroke-linecap="round" stroke-linejoin="round"/>
<path d="M205.574 163.631L208.994 159.651" stroke="white" stroke-linecap="round" stroke-linejoin="round"/>
<path d="M218.452 162.413L214.379 162.789L208.994 159.651L213.067 159.275L218.452 162.413Z" stroke="white" stroke-linecap="round" stroke-linejoin="round"/>
<path d="M200.193 160.501L203.613 156.518" stroke="white" stroke-linecap="round" stroke-linejoin="round"/>
<path d="M213.067 159.283L208.994 159.655L203.613 156.517L207.686 156.146L213.067 159.283Z" stroke="white" stroke-linecap="round" stroke-linejoin="round"/>
<path d="M194.832 157.367L198.248 153.388" stroke="white" stroke-linecap="round" stroke-linejoin="round"/>
<path d="M207.705 156.149L203.632 156.525L198.247 153.387L202.32 153.012L207.705 156.149Z" stroke="white" stroke-linecap="round" stroke-linejoin="round"/>
<path d="M189.447 154.237L192.867 150.258" stroke="white" stroke-linecap="round" stroke-linejoin="round"/>
<path d="M202.324 153.019L198.251 153.395L192.866 150.258L196.939 149.882L202.324 153.019Z" stroke="white" stroke-linecap="round" stroke-linejoin="round"/>
<path d="M248.596 188.71L189.459 154.268" stroke="white" stroke-linecap="round"/>
</svg>
