<svg xmlns="http://www.w3.org/2000/svg" viewBox="0 0 200 27" fill="none">
    <path
        d="M8.57949 14.6096C8.57949 10.7996 6.88617 10.254 5.07055 10.254C4.13171 10.2515 3.20154 10.4337 2.33302 10.7902V17.3753C2.33302 18.6547 3.3302 19.2568 5.27752 19.2568C6.81091 19.2568 8.57949 18.7206 8.57949 14.5531M10.9313 14.5531C10.9313 20.4421 7.39417 21.3076 5.28692 21.3076C0.385701 21.3734 0 18.2032 0 17.2248V3.52771H2.33302V8.57004C3.22283 8.31329 4.14444 8.18344 5.07055 8.18434C7.73283 8.18434 10.9313 9.31322 10.9313 14.6096"
        fill="white" />
    <path
        d="M21.6368 15.127C20.8988 15.0174 20.1533 14.967 19.4072 14.9765C18.3066 14.9765 15.6443 15.3057 15.6443 17.1307C15.6443 18.5889 16.6885 19.3038 18.7111 19.3038C20.7337 19.3038 21.6368 18.6077 21.6368 17.1966V15.127ZM23.9886 13.5371V17.2248C23.9886 18.1655 23.6029 21.3734 18.6923 21.3734C13.7817 21.3734 13.2925 18.1467 13.2925 17.1495C13.2925 14.619 15.5408 13.1044 19.3038 13.1044C20.084 13.1002 20.8636 13.1505 21.6368 13.2549C21.5333 11.1571 20.6114 10.2352 18.109 10.2352C16.9027 10.2512 15.7074 10.4674 14.5719 10.8749V8.8805C15.8071 8.41339 17.1177 8.17742 18.4383 8.18435C21.9943 8.18435 23.998 10.0658 23.998 13.5371"
        fill="white" />
    <path
        d="M37.272 8.39136L31.985 22.5212C30.8562 25.5692 29.2193 26.2089 28.0151 26.2089C27.4137 26.2028 26.8146 26.1335 26.2277 26.0019V23.9041C26.6937 24.0334 27.1742 24.103 27.6577 24.111C28.9371 24.111 29.7555 22.5776 30.2165 21.1665L25.3999 8.39136H27.9117L31.383 17.968L34.8072 8.39136H37.272Z"
        fill="white" />
    <path
        d="M41.0443 13.9982H47.6295C47.4978 12.5118 46.8863 10.2823 44.3557 10.2823C42.2014 10.2823 41.2795 11.223 41.082 13.9982M49.1252 18.429V20.5551C47.6863 21.14 46.144 21.428 44.5909 21.4017C41.9004 21.4017 38.7019 20.2729 38.7019 14.9483C38.7019 13.2832 38.7019 8.19385 44.3463 8.19385C47.78 8.19385 49.9907 10.6209 49.9907 14.3651C49.9907 14.9922 49.9656 15.5817 49.9155 16.1336H41.0631C41.4206 18.7959 42.9446 19.3886 44.6756 19.3886C46.1976 19.436 47.7084 19.1131 49.0782 18.4478"
        fill="white" />
    <path
        d="M55.1929 21.1666H52.8411V9.47325C54.8097 8.64248 56.9227 8.20774 59.0593 8.19385V10.3481C57.7541 10.3772 56.4567 10.5572 55.1929 10.8843V21.1666Z"
        fill="white" />
    <path
        d="M61.2793 21.1665V9.49196C62.9735 8.64058 64.8396 8.18692 66.7356 8.16553C69.9623 8.16553 71.8814 9.96233 71.8814 12.9256V21.1665H69.5201V12.7751C69.5201 11.571 69.1909 10.3386 66.6227 10.3386C65.6078 10.339 64.599 10.4945 63.6311 10.7996V21.1477L61.2793 21.1665Z"
        fill="white" />
    <path d="M99.3132 8.39132H101.665V21.1665H99.3132V8.39132ZM101.74 6.41578H99.2285V3.94165H101.74V6.41578Z"
        fill="white" />
    <path
        d="M105.362 21.1665V9.49196C107.056 8.64058 108.923 8.18692 110.819 8.16553C114.045 8.16553 115.964 9.96233 115.964 12.9256V21.1665H113.613V12.7751C113.613 11.571 113.283 10.3386 110.715 10.3386C109.7 10.339 108.691 10.4945 107.724 10.7996V21.1477L105.362 21.1665Z"
        fill="white" />
    <path
        d="M119.567 21.1665V9.49196C121.262 8.64058 123.128 8.18692 125.024 8.16553C128.25 8.16553 130.169 9.96233 130.169 12.9256V21.1665H127.818V12.7751C127.818 11.571 127.488 10.3386 124.92 10.3386C123.905 10.339 122.897 10.4945 121.929 10.7996V21.1477L119.567 21.1665Z"
        fill="white" />
    <path
        d="M142.719 14.7978C142.719 10.8279 140.978 10.2917 139.059 10.2917C137.14 10.2917 135.4 10.8279 135.4 14.7978C135.4 18.7677 137.14 19.3039 139.059 19.3039C140.978 19.3039 142.719 18.7677 142.719 14.7978ZM145.07 14.7978C145.07 20.2258 141.797 21.3829 139.059 21.3829C136.322 21.3829 133.048 20.2352 133.048 14.7978C133.048 9.36034 136.322 8.21265 139.059 8.21265C141.797 8.21265 145.07 9.36034 145.07 14.7978Z"
        fill="white" />
    <path d="M158.448 8.39136L153.537 21.1665H151.129L146.237 8.39136H148.749L152.333 18.3537L155.936 8.39136H158.448Z"
        fill="white" />
    <path
        d="M168.184 15.127C167.446 15.0174 166.701 14.9671 165.955 14.9765C164.854 14.9765 162.192 15.3057 162.192 17.1307C162.192 18.5889 163.236 19.3038 165.259 19.3038C167.281 19.3038 168.203 18.6077 168.203 17.206L168.184 15.127ZM170.536 13.5371V17.2248C170.536 18.1655 170.151 21.3734 165.24 21.3734C160.329 21.3734 159.84 18.1467 159.84 17.1495C159.84 14.619 162.088 13.1044 165.851 13.1044C166.632 13.1002 167.411 13.1505 168.184 13.2549C168.081 11.1571 167.159 10.2352 164.657 10.2352C163.45 10.2512 162.255 10.4674 161.119 10.8749V8.8805C162.355 8.41339 163.665 8.17742 164.986 8.18435C168.542 8.18435 170.546 10.0658 170.546 13.5371"
        fill="white" />
    <path
        d="M176.858 10.3481V17.7705C176.858 18.8712 177.573 19.2757 178.739 19.2757C179.261 19.287 179.775 19.1535 180.226 18.89V20.9878C179.65 21.2244 179.033 21.3458 178.41 21.3453C177.899 21.3856 177.385 21.317 176.902 21.1442C176.419 20.9714 175.978 20.6983 175.608 20.3428C175.238 19.9873 174.948 19.5575 174.757 19.0817C174.565 18.6059 174.476 18.0949 174.497 17.5824V10.3481H172.267V8.39139H174.497V4.58142H176.858V8.39139H180.263V10.3481H176.858Z"
        fill="white" />
    <path d="M182.879 8.39132H185.23V21.1665H182.879V8.39132ZM185.325 6.42519H182.813V3.94165H185.325V6.42519Z"
        fill="white" />
    <path d="M200 8.39136L195.08 21.1665H192.681L187.789 8.39136H190.292L193.876 18.3537L197.488 8.39136H200Z"
        fill="white" />
    <path
        d="M86.8673 26.0583C89.6895 22.4271 93.65 16.5663 93.65 13.0292C93.65 9.492 89.6424 3.63123 86.8673 0H82.4082C85.174 3.61242 89.2003 9.52023 89.2003 13.0292C89.2003 16.5381 85.174 22.4365 82.4082 26.0583H86.8673Z"
        fill="#C2C2C2" />
    <path
        d="M81.9942 13.0291C81.9942 11.6463 82.935 9.37909 84.6377 6.58511C83.998 5.53149 83.2548 4.40261 82.4082 3.21729C79.3226 7.54466 77.5352 11.1289 77.5352 13.0291C77.5352 14.9294 79.3696 18.5512 82.4082 22.841C83.2548 21.6557 83.998 20.5174 84.6377 19.4543C82.9538 16.6321 81.9942 14.3838 81.9942 13.0291Z"
        fill="white" />

</svg>