<svg xmlns="http://www.w3.org/2000/svg" width="200" height="69" viewBox="0 0 200 69" fill="none">
  <path
    d="M69.2932 1.12815L76.3662 0V53.4021C74.7415 53.8222 72.6615 54.2438 70.1261 54.6668C67.2336 55.1137 64.3096 55.3245 61.3829 55.297C58.5871 55.341 55.8052 54.8935 53.1642 53.975C50.8443 53.1571 48.7195 51.8666 46.9241 50.1851C45.1677 48.5034 43.8031 46.4557 42.9271 44.1874C41.9567 41.6464 41.4796 38.9438 41.5213 36.2242C41.4923 33.6035 41.8912 30.9956 42.7024 28.5034C43.4266 26.2742 44.6061 24.2198 46.1661 22.4705C47.7183 20.7647 49.6278 19.4225 51.7584 18.5396C54.1617 17.5662 56.7368 17.088 59.3294 17.1338C62.8066 17.0976 66.2362 17.9436 69.2976 19.5928V1.12815H69.2932ZM69.2932 25.6875C66.627 23.8594 63.47 22.8808 60.2372 22.8803C58.4457 22.8329 56.6658 23.1804 55.0239 23.8983C53.6388 24.5349 52.4291 25.4982 51.4984 26.7054C50.5518 27.9692 49.878 29.4158 49.5197 30.9536C49.1037 32.6763 48.8995 34.4433 48.9116 36.2154C48.9116 40.4724 50.053 43.7584 52.3357 46.0735C54.6184 48.3886 57.6621 49.5461 61.4667 49.5461C63.086 49.5636 64.705 49.4812 66.3142 49.2993C67.3262 49.1866 68.33 49.0099 69.3197 48.7705V25.6831L69.2932 25.6875ZM85.1799 36.2771C85.1166 33.3849 85.6336 30.5094 86.7002 27.8204C87.6199 25.5672 88.9992 23.5305 90.7501 21.8403C92.4085 20.2596 94.3774 19.0411 96.5319 18.2619C98.6815 17.4646 100.955 17.0543 103.248 17.0501C108.574 17.0501 112.658 18.5822 115.499 21.6464C118.34 24.7106 119.76 29.3775 119.76 35.6469V36.7354C119.761 37.1466 119.735 37.5573 119.681 37.9649H92.5746C92.8683 41.7548 94.0611 44.6325 96.1529 46.5979C98.2447 48.5634 101.491 49.5461 105.892 49.5461C108.001 49.5842 110.108 49.3847 112.172 48.9512C113.483 48.6732 114.768 48.2855 116.015 47.7922L117.002 53.2655C115.544 53.8652 114.027 54.3083 112.476 54.5875C110.06 55.08 107.599 55.3149 105.134 55.2882C102.093 55.3576 99.0643 54.8723 96.197 53.856C93.8616 53.0101 91.7436 51.6554 89.9966 49.8898C88.3598 48.1834 87.1251 46.1327 86.3829 43.8877C85.5664 41.4342 85.16 38.8628 85.1799 36.2771ZM112.348 32.6987C112.398 29.7609 111.599 27.34 109.951 25.4363C108.303 23.5325 106.033 22.5851 103.142 22.5939C101.746 22.5611 100.359 22.8259 99.0737 23.3707C97.7881 23.9155 96.6332 24.7278 95.6858 25.7536C94.8186 26.6959 94.1342 27.7912 93.6675 28.9838C93.1911 30.1773 92.8711 31.4275 92.7156 32.7032H112.348V32.6987ZM128.808 19.0155C130.432 18.6424 132.589 18.2443 135.277 17.8213C138.351 17.372 141.455 17.1598 144.562 17.1867C147.706 17.1867 150.319 17.5965 152.402 18.4162C154.325 19.1262 156.039 20.3082 157.386 21.8535C158.666 23.387 159.571 25.1975 160.03 27.1417C160.557 29.3723 160.813 31.6584 160.792 33.9503V54.4509H153.68V35.3649C153.708 33.4348 153.543 31.5066 153.186 29.6096C152.942 28.2152 152.383 26.895 151.551 25.7492C150.77 24.7497 149.71 24.0032 148.506 23.603C146.982 23.1242 145.388 22.9023 143.791 22.9464C143.028 22.9464 142.244 22.9729 141.433 23.0169C140.622 23.061 139.847 23.1227 139.111 23.1932C138.375 23.2637 137.714 23.3474 137.132 23.4356C136.55 23.5237 136.127 23.5986 135.876 23.6471V54.4509H128.808V19.0155ZM184.118 17.0501C186.555 16.9911 188.985 17.335 191.31 18.068C193.09 18.6439 194.708 19.6348 196.03 20.9589C197.222 22.2009 198.096 23.7128 198.577 25.3658C199.094 27.2034 199.344 29.1063 199.317 31.0153V53.8207L196.77 54.2085C195.68 54.3731 194.45 54.5199 193.081 54.6492C191.712 54.7785 190.229 54.9077 188.63 55.037C187.032 55.1545 185.447 55.2133 183.875 55.2133C181.802 55.2309 179.733 55.0196 177.706 54.5831C175.988 54.2208 174.351 53.5472 172.876 52.5956C171.513 51.6912 170.412 50.4452 169.681 48.982C168.879 47.2965 168.488 45.445 168.54 43.5792C168.486 41.7578 168.944 39.9579 169.862 38.3836C170.751 36.9236 171.994 35.7112 173.475 34.8581C175.133 33.9185 176.932 33.2546 178.803 32.8926C180.906 32.4643 183.047 32.2531 185.193 32.2625C185.904 32.2625 186.639 32.2977 187.397 32.3682C188.154 32.4387 188.877 32.5328 189.565 32.6503L191.354 32.9632C191.859 33.0572 192.215 33.1277 192.42 33.1747V31.3503C192.421 30.274 192.293 29.2016 192.041 28.1553C191.799 27.1292 191.331 26.1702 190.671 25.3481C189.946 24.4808 189.018 23.8058 187.969 23.3827C186.55 22.8428 185.036 22.5925 183.519 22.6467C181.468 22.6202 179.419 22.7676 177.393 23.0874C176.062 23.2885 174.751 23.6055 173.475 24.0349L172.638 18.6321C174.119 18.1169 175.649 17.7522 177.203 17.5436C179.491 17.1922 181.803 17.0271 184.118 17.0501ZM184.726 49.7532C186.401 49.7532 187.884 49.718 189.177 49.6475C190.264 49.6026 191.345 49.4729 192.411 49.2596V38.3836C191.617 38.0784 190.786 37.8784 189.939 37.7886C188.564 37.6102 187.179 37.5277 185.792 37.5419C184.661 37.546 183.531 37.6166 182.408 37.7534C181.279 37.8773 180.176 38.1746 179.138 38.6348C178.188 39.0499 177.343 39.6734 176.666 40.4592C175.976 41.3228 175.624 42.4089 175.679 43.5131C175.679 45.8634 176.491 47.4896 178.116 48.3915C179.74 49.2934 181.944 49.7473 184.726 49.7532Z"
    fill="white" />
  <path d="M0 61.6384H33.8577V68.3324H0V61.6384Z" fill="white" />
  <path d="M41.5344 61.6384H75.3922V68.3324H41.5344V61.6384Z" fill="white" />
  <path d="M83.0688 61.6384H116.927V68.3324H83.0688V61.6384Z" fill="white" />
  <path d="M124.608 61.6384H158.466V68.3324H124.608V61.6384Z" fill="white" />
  <path d="M166.142 61.6384H200V68.3324H166.142V61.6384Z" fill="white" />
</svg>