<svg xmlns="http://www.w3.org/2000/svg" viewBox="0 0 45 30" fill="none">
  <path
    d="M0 20.34V6.33997H5.68C8.34 6.33997 10.3 7.37997 10.3 9.85997C10.3 11.5 9.12 12.54 7.76 12.94C9.52 13.38 10.68 14.56 10.68 16.36C10.68 19.4 8.06 20.34 5.28 20.34H0ZM2.2 18.46H5.48C7.48 18.46 8.4 17.68 8.4 16.2C8.4 14.78 7.6 13.96 5.44 13.96H2.2V18.46ZM2.2 12.1H5.4C7.14 12.1 8.02 11.36 8.02 10.1C8.02 8.95997 7.28 8.19997 5.46 8.19997H2.2V12.1Z"
    fill="white" />
  <path
    d="M16.3022 20.66C14.2022 20.66 12.8222 19.32 12.8222 16.8V10.64H14.9022V16.44C14.9022 18.04 15.5222 19.02 16.9022 19.02C18.3022 19.02 19.1822 17.96 19.1822 16.2V10.64H21.2622V20.34H19.2022V19.84C19.2022 19.56 19.2222 19.26 19.2622 19C18.7822 19.98 17.7622 20.66 16.3022 20.66Z"
    fill="white" />
  <path d="M23.9769 20.34V10.64H26.0569V20.34H23.9769ZM23.8969 8.97997V6.67997H26.1569V8.97997H23.8969Z" fill="white" />
  <path d="M28.7816 20.34V6.33997H30.8616V20.34H28.7816Z" fill="white" />
  <path
    d="M37.4663 20.66C34.9063 20.66 33.0062 18.86 33.0062 15.5C33.0062 12.3 34.9862 10.32 37.5062 10.32C39.0662 10.32 40.0662 11.14 40.5662 11.98C40.5262 11.68 40.5262 11.4 40.5262 11.12V6.33997H42.6063V20.34H40.5262V19.86C40.5262 19.54 40.5262 19.28 40.5662 19C40.1062 19.8 39.0863 20.66 37.4663 20.66ZM35.1463 15.5C35.1463 17.64 36.2862 19.04 37.9062 19.04C39.4862 19.04 40.6463 17.62 40.6463 15.48C40.6463 13.34 39.5063 11.96 37.9062 11.96C36.3063 11.96 35.1463 13.4 35.1463 15.5Z"
    fill="white" />
</svg>