<svg xmlns="http://www.w3.org/2000/svg" viewBox="0 0 82 30" fill="none">
  <path
    d="M5.52 20.66C2.22 20.66 0.14 18.72 0 15.68H2.3C2.42 17.66 3.7 18.8 5.58 18.8C7.32 18.8 8.56 17.94 8.56 16.56C8.56 15.36 7.64 14.82 5.98 14.42L4.32 14C2.22 13.48 0.5 12.24 0.5 10.04C0.5 7.7 2.68 6 5.46 6C8.44 6 10.42 7.76 10.58 10.42H8.3C8.2 8.94 7.1 7.88 5.38 7.88C3.94 7.88 2.76 8.66 2.76 9.84C2.76 11 3.6 11.52 5.18 11.94L6.98 12.4C9.18 12.96 10.84 14.1 10.84 16.34C10.84 18.78 8.72 20.66 5.52 20.66Z"
    fill="white" />
  <path
    d="M14.8322 24.46L16.4922 20.12L12.6522 10.64H14.9922L17.2122 16.86C17.3322 17.22 17.4922 17.6 17.5922 18.04C17.7122 17.6 17.8322 17.22 17.9722 16.86L20.0122 10.64H22.1922L17.0322 24.46H14.8322Z"
    fill="white" />
  <path
    d="M29.5844 20.66C26.8844 20.66 25.2844 19.24 25.2044 17.06H27.2844C27.3444 18.3 28.1244 19.08 29.5644 19.08C30.7644 19.08 31.5644 18.52 31.5644 17.66C31.5644 16.96 31.0244 16.56 29.9244 16.34L28.6044 16.08C26.6844 15.72 25.5244 14.78 25.5244 13.22C25.5244 11.56 27.1244 10.32 29.4044 10.32C31.8844 10.32 33.3844 11.56 33.4844 13.56H31.4244C31.3044 12.5 30.5444 11.9 29.3444 11.9C28.3044 11.9 27.6044 12.36 27.6044 13.12C27.6044 13.8 28.0644 14.14 29.2244 14.36L30.5644 14.62C32.4044 14.98 33.6244 15.84 33.6244 17.5C33.6244 19.3 32.0644 20.66 29.5844 20.66Z"
    fill="white" />
  <path
    d="M44.3566 20.52C41.4166 20.52 39.5966 19.3 39.5966 16.28V12.32H36.0366V10.64H39.5966V7.28H41.6766V10.64H45.8566V12.32H41.6766V16.04C41.6766 18.02 42.5766 18.7 44.7166 18.7C45.1566 18.7 45.5766 18.66 46.0366 18.58V20.32C45.5766 20.44 44.9766 20.52 44.3566 20.52Z"
    fill="white" />
  <path
    d="M53.6488 20.66C50.7488 20.66 48.8087 18.82 48.8087 15.46C48.8087 12.44 50.8088 10.32 53.5488 10.32C56.4888 10.32 58.1287 12.36 58.1287 15.5V15.94H50.9287C50.9687 17.82 52.0888 19.04 53.6488 19.04C54.7688 19.04 55.7688 18.5 55.9688 17.26H58.0488C57.8488 19.1 56.3288 20.66 53.6488 20.66ZM50.9487 14.46H55.9688C55.9488 12.94 55.0487 11.9 53.5287 11.9C52.0687 11.9 51.0687 13 50.9487 14.46Z"
    fill="white" />
  <path
    d="M60.2609 20.34V10.64H62.1209V11.32C62.1209 11.54 62.1009 11.8 62.0809 11.98C62.4409 10.94 63.1409 10.32 64.1209 10.32C64.9809 10.32 65.7609 10.84 66.0609 12.06C66.4609 11.04 67.1409 10.32 68.3409 10.32C69.8009 10.32 70.6609 11.54 70.6609 13.56V20.34H68.8009V13.88C68.8009 12.7 68.5409 11.96 67.7409 11.96C66.7009 11.96 66.3809 13.04 66.3809 14.3V20.34H64.5409V13.94C64.5409 12.74 64.2609 11.96 63.4409 11.96C62.4609 11.96 62.1209 13.06 62.1209 14.34V20.34H60.2609Z"
    fill="white" />
  <path
    d="M77.5531 20.66C74.8531 20.66 73.2531 19.24 73.1731 17.06H75.2531C75.3131 18.3 76.0931 19.08 77.5331 19.08C78.7331 19.08 79.5331 18.52 79.5331 17.66C79.5331 16.96 78.9931 16.56 77.8931 16.34L76.5731 16.08C74.6531 15.72 73.4931 14.78 73.4931 13.22C73.4931 11.56 75.0931 10.32 77.3731 10.32C79.8531 10.32 81.3531 11.56 81.4531 13.56H79.3931C79.2731 12.5 78.5131 11.9 77.3131 11.9C76.2731 11.9 75.5731 12.36 75.5731 13.12C75.5731 13.8 76.0331 14.14 77.1931 14.36L78.5331 14.62C80.3731 14.98 81.5931 15.84 81.5931 17.5C81.5931 19.3 80.0331 20.66 77.5531 20.66Z"
    fill="white" />
</svg>