<svg class="cover-sustainable" xmlns="http://www.w3.org/2000/svg" viewBox="0 0 132 30" fill="none">
  <path
    d="M5.52 20.66C2.22 20.66 0.14 18.72 0 15.68H2.3C2.42 17.66 3.7 18.8 5.58 18.8C7.32 18.8 8.56 17.94 8.56 16.56C8.56 15.36 7.64 14.82 5.98 14.42L4.32 14C2.22 13.48 0.5 12.24 0.5 10.04C0.5 7.7 2.68 6 5.46 6C8.44 6 10.42 7.76 10.58 10.42H8.3C8.2 8.94 7.1 7.88 5.38 7.88C3.94 7.88 2.76 8.66 2.76 9.84C2.76 11 3.6 11.52 5.18 11.94L6.98 12.4C9.18 12.96 10.84 14.1 10.84 16.34C10.84 18.78 8.72 20.66 5.52 20.66Z"
    fill="white" />
  <path
    d="M16.6122 20.66C14.3722 20.66 13.0122 19.26 13.0122 16.74V10.64H15.0922V16.34C15.0922 17.98 15.6922 19.02 17.1922 19.02C18.7122 19.02 19.5722 17.9 19.5722 16.1V10.64H21.6722V20.34H19.6122V19.84C19.6122 19.56 19.6322 19.26 19.6722 19C19.1722 19.98 18.1522 20.66 16.6122 20.66Z"
    fill="white" />
  <path
    d="M29.5844 20.66C26.8844 20.66 25.2844 19.24 25.2044 17.06H27.2844C27.3444 18.3 28.1244 19.08 29.5644 19.08C30.7644 19.08 31.5644 18.52 31.5644 17.66C31.5644 16.96 31.0244 16.56 29.9244 16.34L28.6044 16.08C26.6844 15.72 25.5244 14.78 25.5244 13.22C25.5244 11.56 27.1244 10.32 29.4044 10.32C31.8844 10.32 33.3844 11.56 33.4844 13.56H31.4244C31.3044 12.5 30.5444 11.9 29.3444 11.9C28.3044 11.9 27.6044 12.36 27.6044 13.12C27.6044 13.8 28.0644 14.14 29.2244 14.36L30.5644 14.62C32.4044 14.98 33.6244 15.84 33.6244 17.5C33.6244 19.3 32.0644 20.66 29.5844 20.66Z"
    fill="white" />
  <path
    d="M44.3566 20.52C41.4166 20.52 39.5966 19.3 39.5966 16.28V12.32H36.0366V10.64H39.5966V7.28H41.6766V10.64H45.8566V12.32H41.6766V16.04C41.6766 18.02 42.5766 18.7 44.7166 18.7C45.1566 18.7 45.5766 18.66 46.0366 18.58V20.32C45.5766 20.44 44.9766 20.52 44.3566 20.52Z"
    fill="white" />
  <path
    d="M52.4688 20.66C50.5688 20.66 49.0687 19.52 49.0687 17.68C49.0687 15.62 50.6687 14.84 52.6287 14.58L54.5287 14.32C55.2887 14.22 55.5488 13.88 55.5488 13.34C55.5488 12.48 54.8687 11.9 53.6687 11.9C52.2687 11.9 51.4887 12.62 51.4287 13.72H49.3087C49.4087 11.82 51.0287 10.32 53.5687 10.32C56.3887 10.32 57.6287 11.78 57.6287 14.24V20.34H55.6687V19.9C55.6687 19.6 55.6887 19.32 55.7087 19.02C55.2287 20 54.1088 20.66 52.4688 20.66ZM51.1888 17.64C51.1888 18.56 51.9287 19.1 52.9287 19.1C54.4487 19.1 55.5887 18.1 55.5887 16.62V15.38C55.4687 15.54 55.0687 15.68 54.4487 15.8L53.2288 16.02C52.0288 16.22 51.1888 16.64 51.1888 17.64Z"
    fill="white" />
  <path
    d="M60.5409 20.34V18.66H65.0409V12.32H61.3609V10.64H67.1009V18.66H70.9809V20.34H60.5409ZM64.6609 9.08V6.56H67.1609V9.08H64.6609Z"
    fill="white" />
  <path
    d="M73.1331 20.34V10.64H75.2131V11.18C75.2131 11.44 75.1931 11.68 75.1731 11.98C75.6931 11.08 76.7331 10.32 78.2731 10.32C80.5531 10.32 81.8731 11.84 81.8731 14.3V20.34H79.7731V14.58C79.7731 12.94 79.1331 11.96 77.6931 11.96C76.1531 11.96 75.2131 13.18 75.2131 14.64V20.34H73.1331Z"
    fill="white" />
  <path
    d="M88.4453 20.66C86.5453 20.66 85.0453 19.52 85.0453 17.68C85.0453 15.62 86.6453 14.84 88.6053 14.58L90.5053 14.32C91.2653 14.22 91.5253 13.88 91.5253 13.34C91.5253 12.48 90.8453 11.9 89.6453 11.9C88.2453 11.9 87.4653 12.62 87.4053 13.72H85.2853C85.3853 11.82 87.0053 10.32 89.5453 10.32C92.3653 10.32 93.6053 11.78 93.6053 14.24V20.34H91.6453V19.9C91.6453 19.6 91.6653 19.32 91.6853 19.02C91.2053 20 90.0853 20.66 88.4453 20.66ZM87.1653 17.64C87.1653 18.56 87.9053 19.1 88.9053 19.1C90.4253 19.1 91.5653 18.1 91.5653 16.62V15.38C91.4453 15.54 91.0453 15.68 90.4253 15.8L89.2053 16.02C88.0053 16.22 87.1653 16.64 87.1653 17.64Z"
    fill="white" />
  <path
    d="M102.118 20.66C100.617 20.66 99.5375 19.96 98.9575 19C98.9975 19.32 98.9975 19.58 98.9975 19.88V20.34H96.9375V6.34H98.9975V11.12C98.9975 11.42 98.9775 11.7 98.9575 11.98C99.5775 11.04 100.637 10.32 102.118 10.32C104.678 10.32 106.537 12.4 106.537 15.5C106.537 18.66 104.737 20.66 102.118 20.66ZM98.8975 15.5C98.8975 17.6 100.038 19.04 101.638 19.04C103.278 19.04 104.397 17.6 104.397 15.5C104.397 13.42 103.298 11.96 101.638 11.96C100.038 11.96 98.8975 13.34 98.8975 15.5Z"
    fill="white" />
  <path d="M108.41 20.34V18.66H113.01V8.02H109.23V6.34H115.09V18.66H119.03V20.34H108.41Z" fill="white" />
  <path
    d="M125.602 20.66C122.702 20.66 120.762 18.82 120.762 15.46C120.762 12.44 122.762 10.32 125.502 10.32C128.442 10.32 130.082 12.36 130.082 15.5V15.94H122.882C122.922 17.82 124.042 19.04 125.602 19.04C126.722 19.04 127.722 18.5 127.922 17.26H130.002C129.802 19.1 128.282 20.66 125.602 20.66ZM122.902 14.46H127.922C127.902 12.94 127.002 11.9 125.482 11.9C124.022 11.9 123.022 13 122.902 14.46Z"
    fill="white" />
</svg>