<svg xmlns="http://www.w3.org/2000/svg" viewBox="0 0 200 94" fill="none">
  <path fill-rule="evenodd" clip-rule="evenodd" d="M2.15702 39.9104L3.88029 35.8803H11.075L12.6259 39.9104H15.0385L8.81316 24.3102H6.59445L0.00292969 39.9104H2.15702ZM10.4287 34.1036H4.5696L7.58533 26.4119L10.4287 34.1036Z" fill="white"/>
  <path fill-rule="evenodd" clip-rule="evenodd" d="M17.2765 39.9104H19.2583V33.8003C19.2583 31.8719 20.2923 30.8536 22.0371 30.8536C22.3171 30.8536 22.6833 30.8969 23.1141 30.9836V29.0986C22.8556 29.0552 22.5756 29.0336 22.2956 29.0336C20.68 29.0336 19.646 29.7269 19.2583 31.1136L19.2152 29.0336H17.2119C17.2765 29.7919 17.2765 30.3769 17.2765 30.7453V31.1786V39.9104Z" fill="white"/>
  <path fill-rule="evenodd" clip-rule="evenodd" d="M33.4602 36.2486H31.5215C31.5 37.722 30.5737 38.6537 29.1951 38.6537C27.4288 38.6537 26.5025 37.1587 26.5025 34.2336C26.5025 31.6336 27.6011 30.1819 29.2382 30.1819C30.466 30.1819 31.4354 31.1353 31.4354 32.4569H33.374V32.4136C33.374 30.1819 31.8016 28.7736 29.389 28.7736C26.2655 28.7736 24.4346 30.9619 24.4346 34.7103C24.4346 38.1987 26.1578 40.1704 29.2382 40.1704C31.8016 40.1704 33.2879 38.8053 33.4602 36.2486Z" fill="white"/>
  <path fill-rule="evenodd" clip-rule="evenodd" d="M38.6881 30.8319V24.3102H36.6848V39.9104H38.6881V32.8469C38.6881 31.3953 39.8729 30.3769 41.5531 30.3769C43.2548 30.3769 43.9656 31.2653 43.9656 33.0419V39.9104H45.9474V33.1719C45.9474 31.9153 45.9259 31.0486 45.4304 30.3769C44.7626 29.4669 43.5133 28.9036 42.07 28.9036C40.4545 28.9036 39.162 29.6836 38.6881 30.8319Z" fill="white"/>
  <path fill-rule="evenodd" clip-rule="evenodd" d="M49.7365 39.9104H51.7398V29.0336H49.7365V39.9104ZM49.5642 26.5202H51.8906V24.3102H49.5642V26.5202Z" fill="white"/>
  <path fill-rule="evenodd" clip-rule="evenodd" d="M54.0664 29.0336V30.4636H55.8974V37.852C55.8974 39.5854 56.7375 40.1487 58.6762 40.1487C59.0854 40.1487 59.6024 40.0621 60.2486 39.8887V38.3721C59.9255 38.4587 59.6024 38.5237 59.2578 38.5237C58.1161 38.5237 57.8791 38.2204 57.8791 37.137V30.4636H60.2917V29.0336H57.8791V26.1302L55.8974 26.8019V29.0336H54.0664Z" fill="white"/>
  <path fill-rule="evenodd" clip-rule="evenodd" d="M71.6824 36.422H69.7868C69.7653 37.8087 68.7744 38.6753 67.1804 38.6753C65.2848 38.6753 64.1646 37.527 64.1646 35.447V35.0136V34.797H71.8332C71.8763 34.342 71.8763 33.9086 71.8763 33.4753C71.8763 30.5719 70.0884 28.7736 67.1588 28.7736C64.0138 28.7736 62.1829 30.7886 62.1829 34.6886C62.1829 38.2853 63.9492 40.1704 67.3096 40.1704C69.916 40.1704 71.6609 38.697 71.6824 36.422ZM64.2723 33.3886C64.2723 31.4169 65.5002 30.1386 67.1804 30.1386C68.7098 30.1386 69.8514 31.2869 69.8514 33.1503V33.3886H64.2723Z" fill="white"/>
  <path fill-rule="evenodd" clip-rule="evenodd" d="M77.044 39.9104V34.082L81.4362 39.9104H83.8919L79.0689 33.7136L83.5688 29.0119H81.1368L77.044 33.4753V24.3102H75.0386V39.9104H77.044Z" fill="white"/>
  <path fill-rule="evenodd" clip-rule="evenodd" d="M84.635 29.0336V30.4636H86.466V37.852C86.466 39.5854 87.3061 40.1487 89.2448 40.1487C89.654 40.1487 90.171 40.0621 90.8172 39.8887V38.3721C90.4941 38.4587 90.171 38.5237 89.8264 38.5237C88.6847 38.5237 88.4478 38.2204 88.4478 37.137V30.4636H90.8603V29.0336H88.4478V26.1302L86.466 26.8019V29.0336H84.635Z" fill="white"/>
  <path fill-rule="evenodd" clip-rule="evenodd" d="M102.251 36.422H100.356C100.334 37.8087 99.3432 38.6753 97.7492 38.6753C95.8536 38.6753 94.7335 37.527 94.7335 35.447V35.0136V34.797H102.402C102.445 34.342 102.445 33.9086 102.445 33.4753C102.445 30.5719 100.657 28.7736 97.7277 28.7736C94.5827 28.7736 92.7517 30.7886 92.7517 34.6886C92.7517 38.2853 94.5181 40.1704 97.8784 40.1704C100.485 40.1704 102.23 38.697 102.251 36.422ZM94.8412 33.3886C94.8412 31.4169 96.069 30.1386 97.7492 30.1386C99.2786 30.1386 100.42 31.2869 100.42 33.1503V33.3886H94.8412Z" fill="white"/>
  <path fill-rule="evenodd" clip-rule="evenodd" d="M107.718 30.8103L107.654 29.0336H105.629C105.693 29.8136 105.715 30.5719 105.715 31.2653V39.9104H107.718V32.8469C107.718 31.3953 108.903 30.3769 110.583 30.3769C112.285 30.3769 112.996 31.2653 112.996 33.0419V39.9104H114.977V33.1503C114.977 31.8936 114.956 31.0486 114.46 30.3769C113.793 29.4669 112.543 28.9036 111.1 28.9036C109.484 28.9036 108.192 29.6619 107.718 30.8103Z" fill="white"/>
  <path fill-rule="evenodd" clip-rule="evenodd" d="M120.705 39.9104V34.082L125.1 39.9104H127.555L122.73 33.7136L127.232 29.0119H124.798L120.705 33.4753V24.3102H118.702V39.9104H120.705Z" fill="white"/>
  <path fill-rule="evenodd" clip-rule="evenodd" d="M135.943 34.5153V35.5986C135.943 37.527 134.909 38.5453 133.059 38.5453C131.851 38.5453 131.011 37.7437 131.011 36.7036C131.011 35.4036 132.09 34.5153 134.263 34.5153H135.943ZM138.057 39.9103C137.97 39.347 137.947 39.0003 137.947 38.8703V38.177V32.1536C137.947 29.8569 136.762 28.7736 133.682 28.7736C131.097 28.7736 129.697 29.8352 129.697 31.7419V31.9153H131.614C131.659 30.7452 132.477 30.0519 133.811 30.0519C135.233 30.0519 135.943 30.6586 135.943 31.8286V33.1503H134.069C130.817 33.1503 128.964 34.667 128.964 36.8987C128.964 38.827 130.345 40.1704 132.583 40.1704C134.308 40.1704 135.515 39.477 136.053 38.1987C136.116 39.0003 136.159 39.5637 136.266 39.9103H138.057Z" fill="white"/>
  <path fill-rule="evenodd" clip-rule="evenodd" d="M143.704 39.9104V33.3453C143.704 31.4169 144.803 30.4202 146.462 30.4202C148.163 30.4202 148.831 31.4386 148.831 33.3453V39.9104H150.856V33.1719C150.856 31.5469 152.019 30.4419 153.613 30.4419C155.186 30.4419 155.983 31.2869 155.983 32.9769V39.9104H157.921V33.2586C157.921 32.0453 157.857 31.2003 157.577 30.6586C157.038 29.6186 155.703 28.9036 154.152 28.9036C152.644 28.9036 151.61 29.4886 150.533 30.8103C149.607 29.5319 148.465 28.9036 146.979 28.9036C145.492 28.9036 144.243 29.7052 143.704 30.8753L143.64 29.0336H141.615C141.68 30.2252 141.701 30.9836 141.701 31.2869V39.9104H143.704Z" fill="white"/>
  <path fill-rule="evenodd" clip-rule="evenodd" d="M163.785 39.9104V33.3453C163.785 31.4169 164.883 30.4202 166.542 30.4202C168.244 30.4202 168.912 31.4386 168.912 33.3453V39.9104H170.936V33.1719C170.936 31.5469 172.1 30.4419 173.694 30.4419C175.266 30.4419 176.063 31.2869 176.063 32.9769V39.9104H178.002V33.2586C178.002 32.0453 177.937 31.2003 177.657 30.6586C177.119 29.6186 175.783 28.9036 174.232 28.9036C172.724 28.9036 171.69 29.4886 170.613 30.8103C169.687 29.5319 168.545 28.9036 167.059 28.9036C165.573 28.9036 164.323 29.7052 163.785 30.8753L163.72 29.0336H161.695C161.76 30.2252 161.781 30.9836 161.781 31.2869V39.9104H163.785Z" fill="white"/>
  <path fill-rule="evenodd" clip-rule="evenodd" d="M190.694 36.422H188.798C188.775 37.8087 187.786 38.6753 186.19 38.6753C184.296 38.6753 183.176 37.527 183.176 35.447V35.0136V34.797H190.842C190.886 34.342 190.886 33.9086 190.886 33.4753C190.886 30.5719 189.1 28.7736 186.17 28.7736C183.023 28.7736 181.194 30.7886 181.194 34.6886C181.194 38.2853 182.959 40.1704 186.321 40.1704C188.928 40.1704 190.672 38.697 190.694 36.422ZM183.282 33.3886C183.282 31.4169 184.509 30.1386 186.19 30.1386C187.719 30.1386 188.863 31.2869 188.863 33.1503V33.3886H183.282Z" fill="white"/>
  <path fill-rule="evenodd" clip-rule="evenodd" d="M194.05 39.9104H196.031V33.8003C196.031 31.8719 197.065 30.8536 198.81 30.8536C199.09 30.8536 199.457 30.8969 199.887 30.9836V29.0986C199.629 29.0552 199.349 29.0336 199.069 29.0336C197.453 29.0336 196.419 29.7269 196.031 31.1136L195.986 29.0336H193.985C194.05 29.7919 194.05 30.3769 194.05 30.7453V31.1786V39.9104Z" fill="white"/>
  <path fill-rule="evenodd" clip-rule="evenodd" d="M6.70009 6.84235H3.70806V1.94563H6.70009C8.85418 1.94563 9.91184 2.76898 9.91184 4.43733C9.91184 6.23568 8.89942 6.84235 6.70009 6.84235ZM6.89612 14.0791H3.70806V8.57571H6.89612C9.20099 8.57571 10.3427 9.48572 10.3427 11.3491C10.3427 13.3424 9.24407 14.0791 6.89612 14.0791ZM1.64014 15.8125H7.19769C10.7519 15.8125 12.5398 14.8158 12.5398 11.6741C12.5398 9.57238 11.5274 8.16403 9.61027 7.62236C11.2474 7.10236 12.1306 5.88901 12.1306 4.17732C12.1306 2.55231 11.3335 1.29563 9.99801 0.667285C9.13637 0.277281 8.14549 0.21228 6.91766 0.21228H1.64014V15.8125Z" fill="white"/>
  <path fill-rule="evenodd" clip-rule="evenodd" d="M21.9531 10.4174V11.5007C21.9531 13.4291 20.9192 14.4474 19.0666 14.4474C17.8604 14.4474 17.0203 13.6458 17.0203 12.6057C17.0203 11.3057 18.0973 10.4174 20.2729 10.4174H21.9531ZM24.0641 15.8124C23.978 15.2491 23.9564 14.9024 23.9564 14.7724V14.0791V8.0557C23.9564 5.759 22.7717 4.67566 19.6913 4.67566C17.1064 4.67566 15.7063 5.73734 15.7063 7.64403V7.81736H17.6234C17.6665 6.64735 18.485 5.95401 19.8206 5.95401C21.2423 5.95401 21.9531 6.56068 21.9531 7.73069V9.05237H20.0791C16.8264 9.05237 14.9739 10.5691 14.9739 12.8007C14.9739 14.7291 16.3525 16.0725 18.5927 16.0725C20.316 16.0725 21.5223 15.3791 22.0608 14.1008C22.1255 14.9024 22.1685 15.4658 22.2762 15.8124H24.0641Z" fill="white"/>
  <path fill-rule="evenodd" clip-rule="evenodd" d="M30.5113 15.8125L28.8527 19.9292H30.7052L37.0382 4.93567H35.0565L31.5668 13.5591L28.1203 4.93567H26.0955L30.5113 15.8125Z" fill="white"/>
  <path fill-rule="evenodd" clip-rule="evenodd" d="M48.0154 12.3241H46.1198C46.0983 13.7108 45.1074 14.5774 43.5134 14.5774C41.6178 14.5774 40.4976 13.4291 40.4976 11.3491V10.9157V10.6991H48.1662C48.2093 10.2441 48.2093 9.81072 48.2093 9.37738C48.2093 6.47401 46.4214 4.67566 43.4918 4.67566C40.3468 4.67566 38.5159 6.69068 38.5159 10.5907C38.5159 14.1874 40.2822 16.0725 43.6426 16.0725C46.2491 16.0725 47.9939 14.5991 48.0154 12.3241ZM40.6053 9.29071C40.6053 7.31902 41.8332 6.04067 43.5134 6.04067C45.0428 6.04067 46.1844 7.18902 46.1844 9.05237V9.29071H40.6053Z" fill="white"/>
  <path fill-rule="evenodd" clip-rule="evenodd" d="M51.3715 15.8125H53.3554V9.70239C53.3554 7.77403 54.3894 6.75569 56.132 6.75569C56.4121 6.75569 56.7783 6.79902 57.2091 6.88569V5.00067C56.9506 4.95734 56.6706 4.93567 56.3905 4.93567C54.775 4.93567 53.741 5.62901 53.3554 7.01569L53.3102 4.93567H51.3069C51.3715 5.69401 51.3715 6.27902 51.3715 6.64735V7.08069V15.8125Z" fill="white"/>
  <path fill-rule="evenodd" clip-rule="evenodd" d="M59.6303 15.8125H61.6336V4.93567H59.6303V15.8125ZM59.458 2.4223H61.7844V0.21228H59.458V2.4223Z" fill="white"/>
  <path fill-rule="evenodd" clip-rule="evenodd" d="M64.8433 12.5408V12.8008C64.8433 15.0758 66.2219 16.0725 69.2161 16.0725C71.9302 16.0725 73.5458 14.7075 73.5458 12.6925C73.5458 11.1541 72.7272 10.2224 71.047 9.76744L68.5914 9.09577C67.4713 8.79243 66.9974 8.40243 66.9974 7.68742C66.9974 6.82074 67.859 6.10574 69.1514 6.10574C70.4224 6.10574 71.2194 6.73408 71.2194 7.79576V7.88242H73.2011C73.2227 7.77409 73.2227 7.66575 73.2227 7.55742C73.2227 5.8024 71.7579 4.69739 69.3022 4.69739C66.5881 4.69739 64.9294 6.1274 64.9294 8.03409C64.9294 9.48577 65.8772 10.4175 67.7944 10.8725L70.0992 11.4141C70.9824 11.6308 71.3917 12.0858 71.3917 12.8441C71.3917 13.8408 70.5085 14.5558 69.1299 14.5558C67.7513 14.5558 66.8466 13.7758 66.8466 12.5841V12.5408H64.8433Z" fill="white"/>
  <path fill-rule="evenodd" clip-rule="evenodd" d="M85.0205 12.1507H83.0796C83.0581 13.6241 82.1318 14.5558 80.7554 14.5558C78.9869 14.5558 78.0606 13.0608 78.0606 10.1357C78.0606 7.53569 79.1592 6.08401 80.7963 6.08401C82.0241 6.08401 82.9935 7.03735 82.9935 8.35903H84.9321V8.3157C84.9321 6.08401 83.3597 4.67566 80.9471 4.67566C77.8237 4.67566 75.9927 6.86402 75.9927 10.6124C75.9927 14.1008 77.7181 16.0725 80.7963 16.0725C83.3597 16.0725 84.846 14.7074 85.0205 12.1507Z" fill="white"/>
  <path fill-rule="evenodd" clip-rule="evenodd" d="M90.0309 6.73402V0.21228H88.0276V15.8125H90.0309V8.74904C90.0309 7.29736 91.2156 6.27901 92.8958 6.27901C94.5976 6.27901 95.3084 7.16736 95.3084 8.94404V15.8125H97.2902V9.07405C97.2902 7.81736 97.2686 6.95069 96.7732 6.27901C96.1054 5.369 94.8561 4.80566 93.4128 4.80566C91.7972 4.80566 90.5048 5.58567 90.0309 6.73402Z" fill="white"/>
  <path fill-rule="evenodd" clip-rule="evenodd" d="M109.954 12.3241H108.059C108.037 13.7108 107.046 14.5774 105.452 14.5774C103.557 14.5774 102.436 13.4291 102.436 11.3491V10.9157V10.6991H110.105C110.148 10.2441 110.148 9.81072 110.148 9.37738C110.148 6.47401 108.36 4.67566 105.431 4.67566C102.286 4.67566 100.457 6.69068 100.457 10.5907C100.457 14.1874 102.221 16.0725 105.581 16.0725C108.188 16.0725 109.933 14.5991 109.954 12.3241ZM102.544 9.29071C102.544 7.31902 103.772 6.04067 105.452 6.04067C106.982 6.04067 108.123 7.18902 108.123 9.05237V9.29071H102.544Z" fill="white"/>
  <path fill-rule="evenodd" clip-rule="evenodd" d="M17.3133 91.1093L13.759 91.1115L13.1365 89.5493L17.3133 91.1093Z" fill="white"/>
  <path fill-rule="evenodd" clip-rule="evenodd" d="M24.6501 86.1562C24.6501 86.544 24.5941 86.9211 24.4886 87.2829L21.8778 80.7135L14.7219 78.0268L17.5007 85.114L24.3679 87.6902C23.7992 89.7118 22.0717 91.1114 19.8745 91.1006L17.5007 85.114L10.3168 82.449L13.1365 89.5493L5.95045 86.8842L3.29015 80.226L3.288 79.8468L10.3168 82.449L7.51648 75.3553L3.28369 73.8017L3.29446 67.7632L4.686 68.2615L7.51648 75.3553L14.7219 78.0268L11.8807 70.9525L4.686 68.2615L4.35212 67.4252L10.5064 67.4403C10.711 67.982 11.8807 70.9525 11.8807 70.9525L19.0538 73.5872L16.611 67.436L18.8685 67.4338L23.4503 69.2105L24.6501 72.0142V75.6716L19.0538 73.5872L21.8778 80.7135L24.6501 81.7557V86.1562Z" fill="white"/>
  <path fill-rule="evenodd" clip-rule="evenodd" d="M22.7393 67.4316H24.6499V69.6243L23.4501 69.2105L22.7393 67.4316Z" fill="white"/>
  <path fill-rule="evenodd" clip-rule="evenodd" d="M7.61545 91.0573C5.19856 90.7388 3.29004 88.6761 3.26634 86.1693L3.25342 85.8638L5.95034 86.8843L7.61545 91.0573Z" fill="white"/>
  <path fill-rule="evenodd" clip-rule="evenodd" d="M24.5661 86.113V67.4621L3.33757 67.4751L3.33542 86.113C3.31173 88.7585 5.60368 91.0379 8.2209 91.0422L19.9025 91.0574C22.3 91.0747 24.5597 89.064 24.5661 86.113ZM24.8936 86.1325C24.872 89.4302 22.4487 91.3975 19.7776 91.3975H8.21874C5.5886 91.391 2.99507 89.2547 2.99292 86.1476V67.1111H24.8936V86.1325Z" fill="white"/>
  <path fill-rule="evenodd" clip-rule="evenodd" d="M1.60135 59.0618C1.33424 59.0748 1.21792 59.3067 1.21792 59.5602C1.21792 59.8332 1.43979 60.0563 1.71121 60.0563C1.76506 60.0563 2.43283 60.2925 2.43714 61.3693L2.43068 63.393L2.42852 64.784L2.43068 65.2434L2.43498 65.4059C2.43714 65.4384 2.48237 65.4146 2.48237 65.4622L25.4127 65.4146L25.4644 65.2434L25.4665 64.784V63.393L25.4601 61.3693C25.4644 60.3012 26.2485 60.0563 26.3066 60.0563C26.5802 60.0563 26.7999 59.8332 26.7999 59.5602C26.7999 59.2937 26.591 59.0748 26.3282 59.0618C26.3368 59.0272 26.3411 58.9903 26.3411 58.9513C26.3411 58.6783 26.1192 58.4551 25.8456 58.4551C25.5742 58.4551 25.3524 58.6783 25.3524 58.9513C25.3524 58.9903 25.3567 59.0272 25.3653 59.0618C25.1003 59.0727 24.8871 59.2915 24.8871 59.5602C24.8871 59.8332 25.1089 60.0563 25.3804 60.0563C25.4385 60.0563 25.4924 60.0477 25.5419 60.0303C25.4902 60.286 25.3588 60.4377 25.1176 60.5828C25.0809 60.3445 24.8763 60.1625 24.6286 60.1625C24.3636 60.1625 24.1482 60.3727 24.1353 60.637C24.1008 60.6305 24.0642 60.6262 24.0254 60.6262C23.7519 60.6262 23.53 60.8472 23.53 61.1223C23.53 61.3975 23.7519 61.6185 24.0254 61.6185C24.0642 61.6185 24.1008 61.6163 24.1353 61.6077C24.1439 61.8742 24.3615 62.0887 24.6286 62.0887C24.8181 62.0887 24.9818 61.9825 25.0659 61.8244C25.1822 62.2555 25.3545 62.8319 24.9366 63.1655C24.7901 63.2804 24.7169 63.3259 24.5079 63.3605C23.9694 63.4515 23.293 63.2782 23.1875 62.8449C23.1832 62.821 23.1832 62.8015 23.1918 62.782C23.2198 62.7907 23.2478 62.795 23.278 62.795C23.4611 62.795 23.6097 62.6455 23.6097 62.4614C23.6097 62.2794 23.4611 62.1299 23.278 62.1299C23.2866 62.0995 23.2952 62.0692 23.2952 62.0367C23.2952 61.8395 23.1358 61.6792 22.9398 61.6792C22.7459 61.6792 22.5865 61.8395 22.5865 62.0367C22.5865 62.0692 22.5908 62.0995 22.5994 62.1299C22.4206 62.1342 22.2785 62.2815 22.2785 62.4614C22.2785 62.6455 22.4271 62.795 22.608 62.795C22.6296 62.795 22.6511 62.7929 22.677 62.8384C22.5973 63.2977 22.076 63.3909 21.5848 63.3519C21.3048 63.328 21.1131 63.302 20.9128 63.198C20.2795 62.6759 20.3376 62.1429 20.7232 61.7225C20.7814 61.9327 20.9731 62.0887 21.1993 62.0887C21.4664 62.0887 21.6839 61.8742 21.6926 61.6077C21.7292 61.6163 21.7658 61.6185 21.8046 61.6185C22.076 61.6185 22.2979 61.3975 22.2979 61.1223C22.2979 60.8472 22.076 60.6262 21.8046 60.6262C21.7658 60.6262 21.7292 60.6305 21.6926 60.637C21.6818 60.3727 21.4642 60.1625 21.1993 60.1625C20.9515 60.1625 20.7469 60.3467 20.7103 60.6002C20.4647 60.4398 20.3441 60.286 20.2902 60.0282C20.3419 60.0477 20.3958 60.0563 20.4539 60.0563C20.7275 60.0563 20.9472 59.8332 20.9472 59.5602C20.9472 59.2937 20.7383 59.0748 20.4755 59.0618C20.4841 59.0272 20.4884 58.9903 20.4884 58.9513C20.4884 58.6783 20.2665 58.4551 19.993 58.4551C19.7194 58.4551 19.4997 58.6783 19.4997 58.9513C19.4997 58.9903 19.504 59.0272 19.5105 59.0618C19.2455 59.0727 19.0344 59.2915 19.0344 59.5602C19.0344 59.8332 19.2541 60.0563 19.5277 60.0563C19.5837 60.0563 19.6397 60.0477 19.6892 60.0303C19.6375 60.286 19.5061 60.4377 19.2649 60.5828C19.2283 60.3445 19.0236 60.1625 18.7759 60.1625C18.511 60.1625 18.2934 60.3727 18.2826 60.637C18.246 60.6305 18.2094 60.6262 18.1728 60.6262C17.8992 60.6262 17.6773 60.8472 17.6773 61.1223C17.6773 61.3975 17.8992 61.6185 18.1728 61.6185C18.2094 61.6185 18.246 61.6163 18.2826 61.6077C18.2912 61.8742 18.5088 62.0887 18.7759 62.0887C18.9892 62.0887 19.1701 61.9522 19.239 61.7637C19.588 62.1775 19.6246 62.6997 18.9353 63.1872C18.7953 63.2825 18.6661 63.328 18.47 63.3605C17.9358 63.4494 17.3434 63.2782 17.2379 62.8449C17.2314 62.821 17.2336 62.8015 17.24 62.782C17.268 62.7907 17.2982 62.795 17.3284 62.795C17.5093 62.795 17.6579 62.6455 17.6579 62.4614C17.6579 62.2794 17.5093 62.1299 17.3284 62.1299C17.337 62.0995 17.3434 62.0692 17.3434 62.0367C17.3434 61.8395 17.1862 61.6792 16.9902 61.6792C16.7941 61.6792 16.6347 61.8395 16.6347 62.0367C16.6347 62.0692 16.6391 62.0995 16.6477 62.1299C16.4689 62.1342 16.3267 62.2815 16.3267 62.4614C16.3267 62.6455 16.4753 62.795 16.6584 62.795C16.6778 62.795 16.6994 62.7929 16.7252 62.8384C16.6477 63.2977 16.1264 63.3909 15.6331 63.3519C15.3164 63.3259 15.1161 63.2955 14.8749 63.1482C14.3019 62.6434 14.3686 62.1299 14.7435 61.7225C14.8016 61.9327 14.9933 62.0887 15.2195 62.0887C15.4866 62.0887 15.7042 61.8742 15.7149 61.6077C15.7494 61.6163 15.786 61.6185 15.8248 61.6185C16.0962 61.6185 16.3181 61.3975 16.3181 61.1223C16.3181 60.8472 16.0962 60.6262 15.8248 60.6262C15.786 60.6262 15.7494 60.6305 15.7149 60.637C15.702 60.3727 15.4845 60.1625 15.2195 60.1625C14.9718 60.1625 14.7671 60.3467 14.7327 60.6002C14.485 60.4398 14.3643 60.286 14.3105 60.0282C14.3622 60.0477 14.416 60.0563 14.4742 60.0563C14.7478 60.0563 14.9675 59.8332 14.9675 59.5602C14.9675 59.2937 14.7585 59.0748 14.4957 59.0618C14.5044 59.0272 14.5087 58.9903 14.5087 58.9513C14.5087 58.6783 14.2868 58.4551 14.0132 58.4551C13.7418 58.4551 13.5199 58.6783 13.5199 58.9513C13.5199 58.9903 13.5242 59.0272 13.5329 59.0618C13.2679 59.0727 13.0546 59.2915 13.0546 59.5602C13.0546 59.8332 13.2744 60.0563 13.5479 60.0563C13.6061 60.0563 13.6599 60.0477 13.7095 60.0303C13.6578 60.286 13.5264 60.4377 13.2851 60.5828C13.2485 60.3445 13.0439 60.1625 12.7962 60.1625C12.5312 60.1625 12.3158 60.3727 12.3029 60.637C12.2684 60.6305 12.2318 60.6262 12.193 60.6262C11.9194 60.6262 11.6976 60.8472 11.6976 61.1223C11.6976 61.3975 11.9194 61.6185 12.193 61.6185C12.2296 61.6185 12.2684 61.6163 12.3029 61.6077C12.3115 61.8742 12.5291 62.0887 12.7962 62.0887C13.0094 62.0887 13.1904 61.9522 13.2614 61.7637C13.6082 62.1775 13.6449 62.6997 12.9513 63.1807C12.8069 63.2804 12.6777 63.328 12.4774 63.3605C11.941 63.4494 11.3486 63.2782 11.2431 62.8449C11.2388 62.821 11.2388 62.8015 11.2474 62.782C11.2754 62.7907 11.3034 62.795 11.3335 62.795C11.5166 62.795 11.6653 62.6455 11.6653 62.4614C11.6653 62.2794 11.5166 62.1299 11.3335 62.1299C11.3421 62.0995 11.3508 62.0692 11.3508 62.0367C11.3508 61.8395 11.1914 61.6792 10.9953 61.6792C10.7993 61.6792 10.6421 61.8395 10.6421 62.0367C10.6421 62.0692 10.6464 62.0995 10.655 62.1299C10.4762 62.1342 10.334 62.2815 10.334 62.4614C10.334 62.6455 10.4827 62.795 10.6636 62.795C10.6851 62.795 10.7067 62.7929 10.7325 62.8384C10.6528 63.2977 10.1315 63.3909 9.63826 63.3519C9.29361 63.3237 9.08035 63.289 8.80678 63.1005C8.29196 62.6109 8.36519 62.1169 8.72708 61.7225C8.78524 61.9327 8.97696 62.0887 9.20314 62.0887C9.47024 62.0887 9.68781 61.8742 9.69858 61.6077C9.73304 61.6163 9.76966 61.6185 9.80844 61.6185C10.082 61.6185 10.3017 61.3975 10.3017 61.1223C10.3017 60.8472 10.082 60.6262 9.80844 60.6262C9.76966 60.6262 9.73304 60.6305 9.69858 60.637C9.68565 60.3727 9.47024 60.1625 9.20314 60.1625C8.95541 60.1625 8.75078 60.3467 8.71631 60.6002C8.46859 60.4398 8.35012 60.286 8.29411 60.0282C8.34581 60.0477 8.39966 60.0563 8.45782 60.0563C8.73139 60.0563 8.95326 59.8332 8.95326 59.5602C8.95326 59.2937 8.74216 59.0748 8.47936 59.0618C8.48798 59.0272 8.49229 58.9903 8.49229 58.9513C8.49229 58.6783 8.27041 58.4551 7.99684 58.4551C7.72543 58.4551 7.50356 58.6783 7.50356 58.9513C7.50356 58.9903 7.50787 59.0272 7.51648 59.0618C7.25153 59.0727 7.03827 59.2915 7.03827 59.5602C7.03827 59.8332 7.26015 60.0563 7.53156 60.0563C7.58972 60.0563 7.64357 60.0477 7.69527 60.0303C7.64142 60.286 7.51002 60.4377 7.26876 60.5828C7.23214 60.3445 7.0275 60.1625 6.77978 60.1625C6.51483 60.1625 6.29942 60.3727 6.2865 60.637C6.25203 60.6305 6.21326 60.6262 6.17664 60.6262C5.90307 60.6262 5.6812 60.8472 5.6812 61.1223C5.6812 61.3975 5.90307 61.6185 6.17664 61.6185C6.21326 61.6185 6.25203 61.6163 6.2865 61.6077C6.29511 61.8742 6.51268 62.0887 6.77978 62.0887C6.99304 62.0887 7.17398 61.9522 7.24507 61.7637C7.59188 62.1775 7.6285 62.6997 6.93272 63.1742C6.82717 63.2479 6.65054 63.341 6.52776 63.3605C5.99139 63.4494 5.39901 63.2782 5.29346 62.8449C5.287 62.821 5.28915 62.8015 5.29777 62.782C5.32362 62.7907 5.35378 62.795 5.38393 62.795C5.56703 62.795 5.71351 62.6455 5.71351 62.4614C5.71351 62.2794 5.56703 62.1299 5.38393 62.1299C5.39255 62.0995 5.40117 62.0692 5.40117 62.0367C5.40117 61.8395 5.24176 61.6792 5.04574 61.6792C4.84972 61.6792 4.69247 61.8395 4.69247 62.0367C4.69247 62.0692 4.69678 62.0995 4.70324 62.1299C4.52661 62.1342 4.38444 62.2815 4.38444 62.4614C4.38444 62.6455 4.53091 62.795 4.71401 62.795C4.73555 62.795 4.75709 62.7929 4.78294 62.8384C4.70324 63.2977 4.18195 63.3909 3.68866 63.3519C3.37848 63.3259 3.22338 63.2197 3.0252 62.9987C2.71932 62.6585 2.75379 62.2902 2.86796 61.8287C2.94981 61.9825 3.11352 62.0887 3.30093 62.0887C3.56804 62.0887 3.7856 61.8742 3.79637 61.6077C3.83083 61.6163 3.86745 61.6185 3.90623 61.6185C4.17764 61.6185 4.39951 61.3975 4.39951 61.1223C4.39951 60.8472 4.17764 60.6262 3.90623 60.6262C3.86745 60.6262 3.83083 60.6305 3.79637 60.637C3.78344 60.3727 3.56804 60.1625 3.30093 60.1625C3.05536 60.1625 2.85072 60.3445 2.81195 60.5828C2.57285 60.4377 2.44145 60.286 2.38759 60.0303C2.43929 60.0477 2.49314 60.0563 2.55131 60.0563C2.82272 60.0563 3.04459 59.8332 3.04459 59.5602C3.04459 59.2915 2.83134 59.0727 2.56638 59.0618C2.575 59.0272 2.57931 58.9903 2.57931 58.9513C2.57931 58.6783 2.35744 58.4551 2.08387 58.4551C1.81245 58.4551 1.59058 58.6783 1.59058 58.9513C1.59058 58.9903 1.59489 59.0272 1.60135 59.0618ZM25.4601 86.1606V66.4372H2.44576V86.1238C2.44576 89.8765 5.65104 91.8807 8.04424 91.8915H20.1976C22.552 91.9132 25.4837 89.8505 25.4601 86.1606ZM5.03282 60.832L8.02269 57.6643L11.0018 60.8493L13.9572 57.6643L16.9665 60.8818L19.965 57.6665L22.9893 60.832L25.8736 57.647L27.528 59.2763L26.3152 60.5547L26.2765 86.1606C26.3152 89.974 23.2693 92.6802 20.3204 92.6932H7.83098C4.84757 92.6802 1.60566 89.974 1.61212 86.1606L1.55612 60.507L0.360596 59.2763L1.93524 57.6643L5.03282 60.832ZM25.6195 59.4258C25.6195 59.3327 25.697 59.259 25.7896 59.259C25.8844 59.259 25.9598 59.3327 25.9598 59.4258C25.9598 59.519 25.8844 59.5948 25.7896 59.5948C25.697 59.5948 25.6195 59.519 25.6195 59.4258ZM7.79867 61.0378C7.79867 60.9057 8.08732 60.8992 8.09378 61.0378V63.068C8.09378 63.1937 7.79867 63.1937 7.79867 63.068V61.0378ZM3.32032 64.5522H3.64989V64.2207H3.32032V64.5522ZM6.32527 64.5522H6.65485V64.2207H6.32527V64.5522ZM9.33238 64.5522H9.66196V64.2207H9.33238V64.5522ZM12.3373 64.5522H12.6669V64.2207H12.3373V64.5522ZM15.3423 64.5522H15.6719V64.2207H15.3423V64.5522ZM18.3472 64.5522H18.6768V64.2207H18.3472V64.5522ZM21.3544 64.5522H21.6839V64.2207H21.3544V64.5522ZM24.3593 64.5522H24.6889V64.2207H24.3593V64.5522ZM4.42106 64.7516H5.64458V64.0387H4.42106V64.7516ZM10.3814 64.7516H11.6049V64.0387H10.3814V64.7516ZM16.3956 64.7516H17.6192V64.0387H16.3956V64.7516ZM22.4077 64.7516H23.6312V64.0387H22.4077V64.7516ZM7.95592 63.7765L8.56553 64.3897L7.95592 65.0029L7.34631 64.3897L7.95592 63.7765ZM13.9529 63.7765L14.5647 64.3897L13.9529 65.0029L13.3433 64.3897L13.9529 63.7765ZM19.952 63.7765L20.5617 64.3897L19.952 65.0029L19.3403 64.3897L19.952 63.7765ZM13.8474 61.0378C13.8474 60.9057 14.1338 60.8992 14.1403 61.0378V63.068C14.1403 63.1937 13.8474 63.1937 13.8474 63.068V61.0378ZM19.8314 61.0378C19.8314 60.9057 20.1179 60.8992 20.1244 61.0378V63.068C20.1244 63.1937 19.8314 63.1937 19.8314 63.068V61.0378ZM24.4239 61.1678C24.4239 61.0747 24.4993 60.9988 24.5941 60.9988C24.6867 60.9988 24.7621 61.0747 24.7621 61.1678C24.7621 61.2632 24.6867 61.339 24.5941 61.339C24.4993 61.339 24.4239 61.2632 24.4239 61.1678ZM21.4448 61.1678C21.4448 61.2632 21.3694 61.339 21.2747 61.339C21.182 61.339 21.1066 61.2632 21.1066 61.1678C21.1066 61.0747 21.182 60.9988 21.2747 60.9988C21.3694 60.9988 21.4448 61.0747 21.4448 61.1678ZM18.9224 61.1678C18.9224 61.2632 18.847 61.339 18.7522 61.339C18.6596 61.339 18.5842 61.2632 18.5842 61.1678C18.5842 61.0747 18.6596 60.9988 18.7522 60.9988C18.847 60.9988 18.9224 61.0747 18.9224 61.1678ZM15.5146 61.1678C15.5146 61.2632 15.4392 61.339 15.3444 61.339C15.2518 61.339 15.1764 61.2632 15.1764 61.1678C15.1764 61.0747 15.2518 60.9988 15.3444 60.9988C15.4392 60.9988 15.5146 61.0747 15.5146 61.1678ZM12.8974 61.1678C12.8974 61.2632 12.822 61.339 12.7294 61.339C12.6346 61.339 12.5592 61.2632 12.5592 61.1678C12.5592 61.0747 12.6346 60.9988 12.7294 60.9988C12.822 60.9988 12.8974 61.0747 12.8974 61.1678ZM9.50255 61.1678C9.50255 61.2632 9.42716 61.339 9.33453 61.339C9.23975 61.339 9.16436 61.2632 9.16436 61.1678C9.16436 61.0747 9.23975 60.9988 9.33453 60.9988C9.42716 60.9988 9.50255 61.0747 9.50255 61.1678ZM6.80563 61.1678C6.80563 61.2632 6.73024 61.339 6.63546 61.339C6.54283 61.339 6.46744 61.2632 6.46744 61.1678C6.46744 61.0747 6.54283 60.9988 6.63546 60.9988C6.73024 60.9988 6.80563 61.0747 6.80563 61.1678ZM3.22123 61.1678C3.22123 61.0747 3.29662 60.9988 3.3914 60.9988C3.48403 60.9988 3.55942 61.0747 3.55942 61.1678C3.55942 61.2632 3.48403 61.339 3.3914 61.339C3.29662 61.339 3.22123 61.2632 3.22123 61.1678ZM1.89431 59.4258C1.89431 59.3327 1.9697 59.259 2.06448 59.259C2.15926 59.259 2.23465 59.3327 2.23465 59.4258C2.23465 59.519 2.15926 59.5948 2.06448 59.5948C1.9697 59.5948 1.89431 59.519 1.89431 59.4258ZM7.91714 59.259C8.01192 59.259 8.08732 59.3327 8.08732 59.4258C8.08732 59.519 8.01192 59.5948 7.91714 59.5948C7.82236 59.5948 7.74697 59.519 7.74697 59.4258C7.74697 59.3327 7.82236 59.259 7.91714 59.259ZM13.9874 59.259C14.0821 59.259 14.1575 59.3327 14.1575 59.4258C14.1575 59.519 14.0821 59.5948 13.9874 59.5948C13.8947 59.5948 13.8172 59.519 13.8172 59.4258C13.8172 59.3327 13.8947 59.259 13.9874 59.259ZM19.9283 59.259C20.021 59.259 20.0985 59.3327 20.0985 59.4258C20.0985 59.519 20.021 59.5948 19.9283 59.5948C19.8336 59.5948 19.7582 59.519 19.7582 59.4258C19.7582 59.3327 19.8336 59.259 19.9283 59.259Z" fill="white"/>
</svg>